<svg xmlns="http://www.w3.org/2000/svg" viewBox="0 0 189.71 164.54"><defs><style>.cls-1{fill:#fff;}.cls-2{fill:#ff5100;}.cls-3{fill:#fbfdff;}</style></defs><g id="Layer_2" data-name="Layer 2"><g id="Layer_1-2" data-name="Layer 1"><path class="cls-1" d="M188.32,105.86a22.93,22.93,0,0,0-5.5-8.18L163.58,78.61a70,70,0,0,0,.68-9.71,68.9,68.9,0,0,0-121-45.08l-2.55,2.94a30.07,30.07,0,0,0-2.93,1L29.47,31a12.59,12.59,0,0,1-2.76.82l-.26,0h-.38l-.38-.07a2.9,2.9,0,0,1-1-.62,32.62,32.62,0,0,1-2.41-2.38,16.42,16.42,0,0,1-1.85-2.35,5.1,5.1,0,0,1-.76-1.74,2.41,2.41,0,0,1,.07-1.21,3.28,3.28,0,0,1,1-1.4l.21-.19.1-.08.44-.34.11-.08.64-.34L23,21l.4.05a7.77,7.77,0,0,1,3.79,2.39L31.47,28l13.6-12.72L38.79,8.59A20,20,0,0,0,32.35,4a21.63,21.63,0,0,0-7.84-1.83l-1,0H23.1l-.6,0-.37,0-.63,0-.43.05-.55.07-.42.07-.62.11-.36.07-.65.14-.33.08L17.56,3l-.42.12-1,.31a22,22,0,0,0-7.8,4.8,22.92,22.92,0,0,0-5.82,8.21,20.26,20.26,0,0,0-1.49,8.86A22.77,22.77,0,0,0,3.42,34a31.62,31.62,0,0,0,5.33,7.66,30.23,30.23,0,0,0,11.37,8l.75.25.26.07.55.15.27.07.62.13.19,0,.32.05.55.08c.26,0,.53.06.78.08l.28,0,.61,0h1l.78,0h.2l.8-.08.15,0,.72-.09A68.14,68.14,0,0,0,26.7,63.24c0,.48-.08,1-.11,1.46-.08,1.44-.13,2.85-.13,4.2a68.9,68.9,0,0,0,113.92,52.16c.73-.63,1.44-1.27,2.09-1.89l9.62,9.53a22.94,22.94,0,0,0,8.21,5.42l.78.27.16.05.75.23.19.05.8.2.17,0,.61.12.2,0,.82.13h.1c.26,0,.53.07.88.1l.74.06h.15l.79,0h.77l.64,0a21.74,21.74,0,0,0,7.88-2.06,22.55,22.55,0,0,0,11-11,22,22,0,0,0,2-7.91A20.55,20.55,0,0,0,188.32,105.86Zm-25.73-2.24,7.24,7.18a3.89,3.89,0,0,1,1.41,2.51,4.12,4.12,0,0,1-3.6,3.66h-.26l-.38-.07-.8-.39h0l-.86-.69-.26-.24-7.23-7.17ZM22.68,21h0Z"/><path class="cls-2" d="M135.86,53.6a22.67,22.67,0,0,0-1.59-6.05,34.19,34.19,0,0,0-2.68-5.19c-1-1.58-2-3-3-4.35-2-2.64-3.79-4.86-5.21-6.82a27.48,27.48,0,0,1-1.67-2.55h0v.07c.14,3.27-.24,7.74-2.53,8.14-1,.18-1.36.64-1,1.74,1.38,4.45.78,8.85-.5,13.21-.29,1-.69,1.11-1.52.5s-1.77-1.08-2.87-1.72c.42,2.18.9,3.94,1.07,5.73s0,3.55,0,5.47l-5.54-6.35a2.5,2.5,0,0,0-2.62-.88,13,13,0,0,1-1.52.23l-.8,1.75A8,8,0,0,1,102.2,59a19.24,19.24,0,0,1-1.88,1.58l-.44.34-.1.09-.06,0,0,0h0s0,0,0,0h0l-.22.18-.41.34-.39.36-.1.1c2.44,3.44,8.26,12,10.4,18.07h0C108.79,74.8,107,70,105.21,65a2,2,0,0,1,.54,0,12.55,12.55,0,0,1,1.19.67,35.53,35.53,0,0,1,13.4,15.69c1.35-1.41,2.69-2.8,4-4.2l1.27-1.35,1.27-1.37c.81-.87,1.58-1.74,2.31-2.64a38.66,38.66,0,0,0,3.87-5.67A24.83,24.83,0,0,0,135.48,60,19,19,0,0,0,135.86,53.6ZM98.33,57.83l-.27-.06-.51-.13a6.21,6.21,0,0,1-1-.4L96.11,57a3.91,3.91,0,0,1-.41-.3,4,4,0,0,1-.36-.35l-.17-.19L95,56l.13-.16.21.09.21.07a3.23,3.23,0,0,0,.85.14h.41a4.28,4.28,0,0,0,.81-.13l.39-.11.19-.07.08,0,0,0h0l.22-.08.16-.09.36-.19c.23-.13.46-.27.7-.43.46-.31.93-.65,1.44-1l3.07-.33h0c.32-.29.63-.58.93-.88h0c-5.62.52-8.58-.39-8.58-.39a40.4,40.4,0,0,1,14.74-12.12h0a.52.52,0,0,0-.32,0c-2.93,1.11-5.9,2.17-8.72,3.51a66.44,66.44,0,0,0-6.14,3.73,23.2,23.2,0,0,1,6.83-7.94,39.54,39.54,0,0,0-15.39,8.38c.2-1.28.36-2.22.51-3.16l-.06,0c-2.89,2.4-7.94,8-5.92,6.43a7.36,7.36,0,0,1-.19,1c-1.12,2.6-2.22,5.21-3.42,7.77a1.74,1.74,0,0,1-1.22.75l-1.21.14c-1.81.22-3.62.38-5.44.56a4.25,4.25,0,0,1-.84-.08L71.26,59l-3,.28-.3-.17a3.3,3.3,0,0,1-.68,1.12C66.24,61.25,65,62,63.84,63c-1.5,1.28-2.94,2.65-4.43,4a3.27,3.27,0,0,1,.65.69c2.5-.78,7.47-2.46,7.47-2.46l.08,0c.94-.34,1.67-.56,2.36-.87A2.42,2.42,0,0,1,73,65a8.75,8.75,0,0,0,3,1.79c1.71.59,3.49,1,5.38,1.5l.68.18-.56.1,1.64,0s-4.67-1-5.24-3.06l6.49-4.9,3-9s.45,1.66,1,3.56v-.08L88.6,55s.11.16.28.46a5.66,5.66,0,0,1,.29.56q.17.33.33.75c.11.27.22.58.32.91s.18.68.28,1,.15.75.18,1.14c0,.07,0,.14,0,.21s.07.12.11.17a15.62,15.62,0,0,1,1.82,4.09s2-1.72,3.58-2.88c.27-.44.54-.88.84-1.3l.36-.5.37-.48.18-.23.2-.24.38-.45c.11-.15.23-.28.34-.42h0Zm-21,.38c.28-.18.27-.82.39-1.26-.51.09-1.16,0-1.5.31l0,0a13.39,13.39,0,0,0-1.53,2.11l1.53-.62A7.25,7.25,0,0,0,77.33,58.21Z"/><path class="cls-3" d="M70.34,68l-.25-.4L66.47,69l2.66-3h0l-.74-.34-1-.27.27-.09h0l-.08,0s-5,1.68-7.47,2.46h0a3.44,3.44,0,0,1,0,3.76c-.89,1.45-.27,2.31.89,2.82a24.48,24.48,0,0,0,3.85,1c-.44,1.41,2.37,4,4.22,3.79a25.19,25.19,0,0,1,0-4.52,25.08,25.08,0,0,1,1.68-4.25L66.7,71.39ZM81.67,51.5a59.42,59.42,0,0,1,6.47-6.86h0l-.39-.26-6.38,4.18-3.31,2.17c.09-.3.3-.95.56-1.76L78,49.1,77,50.77l-3.7,1.72a31.05,31.05,0,0,0-4.53,4.9,6.48,6.48,0,0,0-.39.93c-.12.26-.23.54-.34.81h0l.3.17,3-.28,0,0A3,3,0,0,0,72,58.9l.53-.2c1.48-.76,2.07-2.83,3.55-3.92l.06.07.53.57ZM109,80.08C106.82,74,101,65.45,98.56,62c-.49.46-1,.93-1.41,1.44s-.92,1.12-1.34,1.72c-.21.3-.41.6-.6.92l-.14.23-.14.25c-.1.16-.18.31-.27.47a8.51,8.51,0,0,0-.77,2,4.81,4.81,0,0,0,0,2.17l-.2.07A5.53,5.53,0,0,1,93.19,69a9.52,9.52,0,0,1,.37-2.37c0-.19.11-.39.17-.58l.08-.27.1-.28c.13-.38.28-.74.43-1.11a22.28,22.28,0,0,1,1-2.15c.14-.26.29-.51.44-.75-1.62,1.16-3.58,2.88-3.58,2.88a15.62,15.62,0,0,0-1.82-4.09s-.07-.11-.11-.17c0,.33,0,.66.07,1s0,.81-.05,1.21a11.17,11.17,0,0,1-.17,1.16c0,.19-.09.37-.14.54a4.51,4.51,0,0,1-.17.52,6.24,6.24,0,0,1-.39.9l-.2.39-.22.33c-.06.11-.13.2-.19.29l-.19.23a5.43,5.43,0,0,1-.38.41L88.08,67a4.33,4.33,0,0,1,.1-.53c0-.17.07-.37.11-.6s0-.23.08-.35l.06-.4c0-.14.06-.28.08-.43a3.71,3.71,0,0,1,.06-.45c.05-.31.07-.64.12-1,0-.17,0-.34,0-.51s0-.36,0-.54a4.58,4.58,0,0,0,0-.53c0-.18,0-.37,0-.55,0-.37,0-.73,0-1.09s0-.72,0-1.07c0-.18,0-.35,0-.51s0-.34,0-.5,0-.31,0-.47,0-.3,0-.44,0-.27,0-.4,0-.25,0-.37,0-.44-.06-.61,0-.38,0-.46c-.6-1.9-1-3.56-1-3.56l-3,9-6.49,4.9c.57,2,5.24,3.06,5.24,3.06l-1.64,0h0l-.1,0-4.59.77c.43.27.67.44.92.58a33.33,33.33,0,0,1,3.67,2.16A39.44,39.44,0,0,1,91,81.56c.27.38.57,1.07.41,1.38C90.32,85.1,89.12,87.2,88,89.31l-.46-.1c-.06-.66-.13-1.32-.2-2-1.18,1.36-2.18,2.7-3.37,3.83-1.54,1.46-1.78,2.5-.54,4.14a19.68,19.68,0,0,1,2.87.82,2.43,2.43,0,0,0,1.59,0c2.09-1.15,4.09-2.46,6.17-3.62a1.79,1.79,0,0,0,1.1-1.86A27,27,0,0,1,97.68,78a4,4,0,0,0,0-2.62,34.38,34.38,0,0,0-1.91-4.07A54.38,54.38,0,0,1,109,80.38C109,80.28,109,80.18,109,80.08Zm2.47-39.91A40.4,40.4,0,0,0,96.69,52.29s3,.91,8.58.39A10.78,10.78,0,0,0,108.18,48l-7.07,2.1a28.27,28.27,0,0,1,9.21-6.67l.86,1.72.61-.12c.11-1.49.25-3,.29-4.48C112.08,40.46,111.73,40.25,111.43,40.17Zm-25.21,45-.36-.29c-1.25,1.09-2.49,2.2-3.29,2.9l-1.2-.17-4.85-.7a5.49,5.49,0,0,0,3.09,3.33,2.37,2.37,0,0,0,1.76.17,3.41,3.41,0,0,0,1.47-1C84,88,85.1,86.53,86.22,85.13Z"/><path class="cls-2" d="M71.25,84.61H71a23,23,0,0,1-4-.43V99.06h11l-.4-1c-.36-.9-.72-1.81-1.11-2.7a7.74,7.74,0,0,0-.36-.76C73,92.3,71,88,71.31,84.61Zm2.64,26.48,1.62,5,1.61-5h5.22L78.12,108l1.61-5-4.22,3.07-4.23-3.07,1.62,5-4.23,3.07Zm57.62.13A55.65,55.65,0,0,1,39.9,73.67c-.11-1.39-.18-2.79-.2-4.2a17,17,0,0,0,3.46,2l.15.07A17.72,17.72,0,0,0,50,73.1c.22,0,.43,0,.64,0h.57c-.23-.38-.47-.77-.69-1.18A4.56,4.56,0,0,1,51.49,66q1.14-1,2.28-2a89.66,89.66,0,0,1,7.4-6.18,2.33,2.33,0,0,0,.43-.39l1.15-1.89c.09-.16.19-.32.29-.47l.17-.28c.42-.7,4.3-6.92,9.51-9.74,1.53-.82,4.93-2.5,7.52-3.76l3.22-1.57L79.11,27.18h-12V45.89A36.91,36.91,0,0,0,63.67,41c-.61-.75-1.26-1.49-2-2.24a57.16,57.16,0,0,0-5.13-4.92l-.23-.19a20.11,20.11,0,0,0-2.54-1.8,16,16,0,0,0-2.6-1.28c-.2-.08-.41-.15-.61-.21l-.21-.07L50,30.19l-.25-.06L49.34,30,49.09,30l-.4-.07-.25,0L48,29.82l-.22,0-.65-.05h-.78l-.66,0a17.11,17.11,0,0,0-2.54.37,25.26,25.26,0,0,0-4,1.26L37.77,32l-6.9,2.71a17.14,17.14,0,0,1-3.61,1l-.47,0h-.13l-.38,0h-.57l-.29,0h-.13L25,35.66l-.12,0-.36-.09a6.78,6.78,0,0,1-2.4-1.4c-.78-.68-1.68-1.57-2.7-2.66a19.59,19.59,0,0,1-2.28-2.9,8.86,8.86,0,0,1-1.29-3A6.31,6.31,0,0,1,16,22.43a7.15,7.15,0,0,1,2.1-3.13l.35-.31.11-.09.24-.2.12-.09a2.48,2.48,0,0,1,.26-.19.31.31,0,0,1,.09-.07l.34-.23.07,0,.28-.17.12-.06.24-.13.11-.06.31-.13,0,0,.35-.13.09,0,.26-.08.12,0,.26-.06H22c.11,0,.23,0,.35-.06h0l.32,0h.73l.14,0,.25,0,.12,0,.37.08A11.52,11.52,0,0,1,30,20.76l1.68,1.79,7.93-7.43L36,11.23a16.17,16.17,0,0,0-5.19-3.68,17.64,17.64,0,0,0-6.44-1.49c-.27,0-.54,0-.81,0h-.26l-.56,0-.31,0-.5,0-.34,0-.49.06-.33,0-.49.09-.33.06-.51.12-.32.07-.55.16-.27.07-.82.26a18.23,18.23,0,0,0-6.43,4,19.22,19.22,0,0,0-4.86,6.81,16.65,16.65,0,0,0-1.23,7.2,18.91,18.91,0,0,0,2,7.19A27.3,27.3,0,0,0,11.58,39a26.06,26.06,0,0,0,9.87,7c.19.07.38.14.57.19l.14,0,.05,0,.41.11.11,0,.11,0,.41.09.21,0,.24,0,.3,0h.08l.64.07h.2l.46,0h.85q.33,0,.66,0H27l.66-.06.13,0,.66-.09h.05l.7-.13.15,0,.7-.15.13,0,.67-.17H31l.76-.22.14-.05.75-.24.14-.05.79-.29,1.52-.58,6.35-2.4a27.08,27.08,0,0,1,3.46-1.05l.33-.06h.11l.22,0h1l.23,0h.14l.24.05h0l.09,0,.36.09a7.68,7.68,0,0,1,2.55,1.46l.22.18a48.66,48.66,0,0,1,3.5,3.43c1.16,1.25,2.18,2.44,3,3.57a9.13,9.13,0,0,1,1.7,3.3,5.46,5.46,0,0,1-.18,3.24,9.57,9.57,0,0,1-2.61,3.53c-.11.11-.23.21-.35.31l-.11.1-.24.2-.13.1-.23.18-.13.09-.23.17-.12.07-.31.2,0,0-.34.2-.11,0-.25.12-.12.05-.22.1-.13,0L52.5,62l-.11,0-.29.08h-.05l-.35.07-.09,0-.25,0h-.12l-.23,0h-.6l-.13,0a3,3,0,0,1-.43-.06,8.79,8.79,0,0,1-5-2.73l-.79-.84L43,57.47c-1.87-2,.42-8.63,1.73-11.74.19-.42.38-.83.58-1.24a23.81,23.81,0,0,0-2.52.78l-.22.08-7.84,3c-.41.15-.81.3-1.21.43a64.84,64.84,0,0,0-3,14.81c0,.45-.07.91-.1,1.37-.07,1.31-.12,2.64-.12,4a65,65,0,0,0,107.5,49.23c.76-.66,1.51-1.33,2.23-2l-6.65-6.59C132.8,110.1,132.16,110.67,131.51,111.22Zm-37.76-.13,1.62,5,1.61-5h5.22L98,108l1.61-5-4.22,3.07-4.22-3.07,1.61,5-4.22,3.07Zm19.66,0,1.62,5,1.61-5h5.22L117.64,108l1.61-5L115,106.12l-4.22-3.07,1.61,5-4.22,3.07Z"/><path class="cls-2" d="M25.77,143.44l-1.13,4.22H15.07l-4.29,16H5.27l4.29-16H0l1.13-4.22Z"/><path class="cls-2" d="M31.16,150.66l-.83,3.09H42.88L42,157.18H29.42l-.83,3.09H43.37l-.91,3.43H23.19l4.41-16.46H46.87L46,150.66Z"/><path class="cls-2" d="M67.67,163.7H63.08l-1-3.28H51.2l-2.79,3.28h-4.6l14-16.46h4.6ZM61,157.06l-1.87-5.9-5,5.9Z"/><path class="cls-2" d="M97.29,147.25l-4.41,16.46H88.4l2.36-8.81-7.52,8.81H78.65l-2.8-8.81-2.36,8.81H69l4.41-16.46H78l4,12.53,10.69-12.53Z"/><path class="cls-2" d="M112.18,149.52c.3-1.26,1.49-3.62,5.87-5.31a25.85,25.85,0,0,1,8.75-1.61,23.54,23.54,0,0,1,4.27.3,14,14,0,0,1,7.65,3.78,5.49,5.49,0,0,1,.54.6l-5.39,2.27c-.22-.22-2.79-2.64-8.45-2.47-3.43.1-7.07.87-7.42,2.35-.48,2,5.9,1.83,8.07,1.94,9,.46,11.18,3.19,10.45,6.24-.69,2.89-4.81,6.63-14.62,6.92-8.49.25-12.59-3.44-13.35-4.66l5.36-2.25c1,1.42,4.87,2.5,9.38,2.36,4.3-.12,7.13-1.09,7.41-2.28s-.47-2.22-8-2.14C114.75,155.64,111.45,152.56,112.18,149.52Z"/><path class="cls-2" d="M166,147.25l-4.41,16.46H157.1l2.36-8.81-7.52,8.81h-4.59l-2.8-8.81-2.36,8.81h-4.47l4.41-16.46h4.59l4,12.53,10.69-12.53Z"/><path class="cls-2" d="M189.6,155.47a10.26,10.26,0,0,1-3.28,4.94l-.08.07c-.29.25-.59.49-.91.72h0a16.89,16.89,0,0,1-9.76,3.18c-6.43,0-10.58-4-9.26-8.92s7.61-8.91,14-8.91c4.29,0,7.56,1.77,8.87,4.42l-4.47,1.76c-.79-1.59-2.77-2.65-5.35-2.65-3.88,0-7.68,2.41-8.48,5.38s1.71,5.39,5.6,5.39a10,10,0,0,0,6.93-2.81h-7.64l.69-2.57Z"/><path d="M90.28,59.88c0-.39-.12-.77-.18-1.14s-.17-.72-.28-1-.21-.64-.32-.91-.22-.53-.33-.75a5.66,5.66,0,0,0-.29-.56c-.17-.3-.28-.46-.28-.46l-.21.07v.08c0,.08,0,.24,0,.46s0,.38.06.61,0,.24,0,.37,0,.26,0,.4,0,.29,0,.44,0,.31,0,.47,0,.33,0,.5,0,.33,0,.51c0,.35,0,.7,0,1.07s0,.72,0,1.09c0,.18,0,.37,0,.55a4.58,4.58,0,0,1,0,.53c0,.18,0,.36,0,.54s0,.34,0,.51c0,.34-.07.67-.12,1a3.71,3.71,0,0,0-.06.45c0,.15-.06.29-.08.43l-.06.4c0,.12-.05.24-.08.35s-.07.43-.11.6a4.33,4.33,0,0,0-.1.53l.19.11a5.43,5.43,0,0,0,.38-.41l.19-.23c.06-.09.13-.18.19-.29l.22-.33.2-.39a6.24,6.24,0,0,0,.39-.9A4.51,4.51,0,0,0,90,64c0-.17.1-.35.14-.54a11.17,11.17,0,0,0,.17-1.16c.05-.4,0-.81.05-1.21s0-.67-.07-1C90.29,60,90.29,60,90.28,59.88ZM76.71,55.42l-.53-.57-.06-.07c-1.48,1.09-2.07,3.16-3.55,3.92a2.77,2.77,0,0,1-.53.2,3,3,0,0,1-.76.09l0,0L69.9,61.23a4.25,4.25,0,0,0,.84.08c1.82-.18,3.63-.34,5.44-.56l1.21-.14a1.74,1.74,0,0,0,1.22-.75c1.2-2.56,2.3-5.17,3.42-7.77a7.36,7.36,0,0,0,.19-1l-5.5,4.37Zm.62,2.79a7.25,7.25,0,0,1-1.15.57l-1.53.62a13.39,13.39,0,0,1,1.53-2.11l0,0c.34-.29,1-.22,1.5-.31C77.6,57.39,77.61,58,77.33,58.21Zm107.36,49a18.89,18.89,0,0,0-4.6-6.77l-16.7-16.56-1.65,1.67-5.1,5.14-6.78,6.84h0l2.55,2.54,0,0,4.1,4.06,6-6,10,9.91q2.76,2.73,2.55,5.55a7.66,7.66,0,0,1-2.28,4.91,7.58,7.58,0,0,1-4.89,2.33l-.41,0h-.33l-.22,0h-.12l-.26,0h-.08l-.33-.07-.09,0-.25-.07-.13,0-.21-.07-.13-.06-.2-.08-.14-.07-.2-.09-.15-.08-.18-.1-.15-.09a1.18,1.18,0,0,1-.19-.11l-.15-.1-.19-.13-.14-.1-.19-.14-.15-.11-.2-.17L163,119l-.22-.2-.11-.09-.34-.32-10.67-10.58-2.45-2.43-6.79-6.73L140,96.16l-5.67-5.61q-2.76-2.74-2.55-5.56a8,8,0,0,1,7.17-7.24H140l.26,0h.07l.34.08.11,0L141,78l.13,0,.2.08.15,0,.19.08.15.07.19.09.14.08.19.1.15.09.19.11.15.1L143,79l.14.1.19.15.14.11.21.16.13.11.22.2.11.1.33.31,1,1a5.46,5.46,0,0,1,1.64,5.44,30.62,30.62,0,0,1-1.78,6.4l2.06,2,11.21-11.3A65,65,0,0,0,46.19,26.35h.33a16.54,16.54,0,0,1,5.9,1.07,20.69,20.69,0,0,1,3.77,1.93A55.47,55.47,0,0,1,95.36,13.24,55.6,55.6,0,0,1,151,66c0,.47,0,.93.06,1.4s0,1,0,1.54c0,.92,0,1.83-.07,2.73a19.49,19.49,0,0,0-3.33-2.38,15.23,15.23,0,0,0-2.36-1.1c-.22-.09-.45-.17-.68-.24l-.11,0-.66-.2-.12,0-.67-.17H143l-.64-.14-.1,0-.65-.1-.12,0-.65-.08h-.08l-.63,0h-.06l-.65,0h-.89a36.25,36.25,0,0,1-6.21,11.24,63.14,63.14,0,0,1-4.82,5.21l6.73-9.87-3.57,2.58c5.51-6.95,7.17-15.1,7.6-20.5h0a23.58,23.58,0,0,0-.28-2.56,25.62,25.62,0,0,0-2.17-6.74,36.44,36.44,0,0,0-3.13-5.28c-1.1-1.56-2.21-2.94-3.27-4.2-2.12-2.51-4-4.56-5.51-6.37a24.82,24.82,0,0,1-1.85-2.5c-.14-.22-.26-.42-.37-.62h0a5.67,5.67,0,0,0-.41-2.12l-.36.31-.32.29c-7.29,6.37-9.37,6.67-18.59,8.26a12.25,12.25,0,0,0-2.06.54c-3.43,1.63-12,5.73-18.55,8.92-3.34,1.62-6.14,3-7.42,3.71-4.31,2.33-7.78,7.55-8.54,8.8h0a.75.75,0,0,0-.07.12l0,0a1,1,0,0,1-.11.17c-.75,1.21-1.15,2.48-2.54,3.48-3.35,2.41-6.37,5.32-9.48,8.06a2,2,0,0,0-.37,2.69,15,15,0,0,0,7.52,7.07,5.2,5.2,0,0,1,1.88,1c2.42,2.64,5.57,3.18,8.9,3.3,1,0,1.19-.34,1.09-1.31-.2-2.06-.27-4.14-.28-6.21a1.56,1.56,0,0,1,.86-1.11c2.42-1,5.38-.13,7.35,1.47A11.2,11.2,0,0,1,81.37,76a19.27,19.27,0,0,1,1.37,1.73A9.27,9.27,0,0,1,83.94,81c.17.73.58,2.18-.21,2.71a6.4,6.4,0,0,1-1.88,1,4.42,4.42,0,0,1-.48.15,8.6,8.6,0,0,1-2.8.18l-4.52-.9c-.84,2.53,1,6.57,3.74,8.52a4.1,4.1,0,0,1,1.15,1.76c.74,1.68,1.37,3.42,2.09,5.11a1.29,1.29,0,0,0,.34.51c.32.26.73.14,1.28-.16a2.72,2.72,0,0,1,1.89-.07,4.37,4.37,0,0,1,1.69,1.11c.63.62,1.09.5,1.76,0,3.44-2.35,6.94-4.61,10.37-7a3,3,0,0,0,1-1.6c.23-.87.36-1.77.53-2.65a54.53,54.53,0,0,1,.92-8.59s3.62.81,6.66,6.2a32.54,32.54,0,0,1,3.58,11.8h12.54V94.19a20.85,20.85,0,0,0,3.18,4l.21.21,6.43,6.38,2.42,2.38,6.64,6.59,2.42,2.39,9.93,9.85a19,19,0,0,0,6.81,4.53l.67.23.12,0,.64.19.13,0,.65.17h0l.64.13.11,0,.63.1.13,0,.64.08h.07l.61,0h1.38l.49,0a18,18,0,0,0,6.49-1.7,18.73,18.73,0,0,0,9.09-9.18,17.75,17.75,0,0,0,1.64-6.5A16.71,16.71,0,0,0,184.69,107.21ZM81.37,90.37a2.37,2.37,0,0,1-1.76-.17,5.49,5.49,0,0,1-3.09-3.33l4.85.7,1.2.17c.8-.7,2-1.81,3.29-2.9l.36.29C85.1,86.53,84,88,82.84,89.33A3.41,3.41,0,0,1,81.37,90.37ZM126.89,74.5l-1.27,1.37-1.27,1.35c-1.32,1.4-2.66,2.79-4,4.2a35.53,35.53,0,0,0-13.4-15.69,12.55,12.55,0,0,0-1.19-.67,2,2,0,0,0-.54,0c1.83,5,3.58,9.77,3.75,15h0c0,.1,0,.2,0,.3a54.38,54.38,0,0,0-13.22-9.07,34.38,34.38,0,0,1,1.91,4.07,4,4,0,0,1,0,2.62,27,27,0,0,0-2.56,12.57A1.79,1.79,0,0,1,94,92.43c-2.08,1.16-4.08,2.47-6.17,3.62a2.43,2.43,0,0,1-1.59,0,19.68,19.68,0,0,0-2.87-.82c-1.24-1.64-1-2.68.54-4.14,1.19-1.13,2.19-2.47,3.37-3.83.07.68.14,1.34.2,2l.46.1c1.16-2.11,2.36-4.21,3.45-6.37.16-.31-.14-1-.41-1.38a39.44,39.44,0,0,0-9.63-9.49,33.33,33.33,0,0,0-3.67-2.16c-.25-.14-.49-.31-.92-.58l4.59-.77.1,0h0l.56-.1-.68-.18c-1.89-.5-3.67-.91-5.38-1.5A8.75,8.75,0,0,1,73,65a2.42,2.42,0,0,0-3-.56c-.69.31-1.42.53-2.36.87h0l-.27.09,1,.27h0l.84.21a1.47,1.47,0,0,1-.1.13l-2.66,3,3.62-1.38.25.4L66.7,71.39l4.06-1.07a25.08,25.08,0,0,0-1.68,4.25,25.19,25.19,0,0,0,0,4.52c-1.85.24-4.66-2.38-4.22-3.79a24.48,24.48,0,0,1-3.85-1c-1.16-.51-1.78-1.37-.89-2.82a3.44,3.44,0,0,0,0-3.76h0a3.27,3.27,0,0,0-.65-.69c1.49-1.36,2.93-2.73,4.43-4,1.12-1,2.4-1.75,3.47-2.75A3.3,3.3,0,0,0,68,59.13h0c.11-.27.22-.55.34-.81a6.48,6.48,0,0,1,.39-.93,31.8,31.8,0,0,1,4.09-4.49l.08,0a11,11,0,0,1,3.19-.92s1-.59,2-1.26c0,0,0,0,0,.06l3.31-2.17,6.38-4.18.39.26h0l.06,0c-.15.94-.31,1.88-.51,3.16a39.54,39.54,0,0,1,15.39-8.38,23.2,23.2,0,0,0-6.83,7.94,66.44,66.44,0,0,1,6.14-3.73c2.82-1.34,5.79-2.4,8.72-3.51a.52.52,0,0,1,.32,0h0c.3.08.65.29.65.39,0,1.49-.18,3-.29,4.48l-.61.12-.86-1.72a28.27,28.27,0,0,0-9.21,6.67l7.07-2.1a10.78,10.78,0,0,1-2.91,4.67h0c-.3.3-.61.59-.93.88h0l-3.07.33c-.51.37-1,.71-1.44,1-.24.16-.47.3-.7.43l-.36.19-.16.09-.22.08h0l0,0-.08,0-.19.07-.39.11a4.28,4.28,0,0,1-.81.13h-.41a3.23,3.23,0,0,1-.85-.14l-.21-.07-.21-.09L95,56l.14.19.17.19a4,4,0,0,0,.36.35,3.91,3.91,0,0,0,.41.3l.45.26a6.21,6.21,0,0,0,1,.4l.51.13.27.06.13,0h0c-.11.14-.23.27-.34.42l-.38.45-.2.24-.18.23-.37.48-.36.5c-.3.42-.57.86-.84,1.3-.15.24-.3.49-.44.75a22.28,22.28,0,0,0-1,2.15c-.15.37-.3.73-.43,1.11l-.1.28-.08.27c-.06.19-.12.39-.17.58A9.52,9.52,0,0,0,93.19,69a5.53,5.53,0,0,0,.46,2.32l.2-.07a4.81,4.81,0,0,1,0-2.17,8.51,8.51,0,0,1,.77-2c.09-.16.17-.31.27-.47l.14-.25.14-.23c.19-.32.39-.62.6-.92.42-.6.87-1.17,1.34-1.72s.92-1,1.41-1.44l.1-.1.39-.36.41-.34.22-.18h0s0,0,0,0h0l0,0,.06,0,.1-.09.44-.34A19.24,19.24,0,0,0,102.2,59a8,8,0,0,0,1.73-2.41l.8-1.75a13,13,0,0,0,1.52-.23,2.5,2.5,0,0,1,2.62.88l5.54,6.35c0-1.92.13-3.71,0-5.47s-.65-3.55-1.07-5.73c1.1.64,2,1.11,2.87,1.72s1.23.48,1.52-.5c1.28-4.36,1.88-8.76.5-13.21-.34-1.1,0-1.56,1-1.74,2.29-.4,2.67-4.87,2.53-8.14v-.07h0a27.48,27.48,0,0,0,1.67,2.55c1.42,2,3.24,4.18,5.21,6.82,1,1.33,2,2.77,3,4.35a34.19,34.19,0,0,1,2.68,5.19,22.67,22.67,0,0,1,1.59,6.05,19,19,0,0,1-.38,6.4,24.83,24.83,0,0,1-2.41,6.19,38.66,38.66,0,0,1-3.87,5.67C128.47,72.76,127.7,73.63,126.89,74.5Z"/></g></g></svg>