<svg id="svg" version="1.1" xmlns="http://www.w3.org/2000/svg" xmlns:xlink="http://www.w3.org/1999/xlink" width="400" height="400" viewBox="0, 0, 400,400"><g id="svgg"><path id="path0" d="M356.180 42.644 C 354.730 43.396,43.250 43.488,42.048 42.737 C 40.192 41.578,39.616 43.024,40.508 46.600 C 40.905 48.188,40.946 70.969,40.709 157.200 C 40.545 216.930,40.488 285.240,40.582 309.000 C 40.676 332.760,40.757 353.392,40.762 354.850 C 40.770 357.268,40.850 357.520,41.685 357.744 C 42.782 358.038,265.702 358.089,266.467 357.796 C 267.187 357.520,267.054 318.309,266.328 316.900 L 265.865 316.000 178.432 315.998 C 83.201 315.995,88.969 316.157,86.690 313.430 L 85.200 311.648 85.200 295.879 L 85.200 280.110 86.300 278.752 C 86.905 278.005,119.145 245.658,157.944 206.871 C 220.839 143.996,228.494 136.211,228.544 135.075 L 228.600 133.800 158.526 133.699 L 88.452 133.598 86.926 131.736 L 85.400 129.874 85.286 109.837 C 85.158 87.467,85.062 88.748,87.018 86.700 L 88.450 85.200 200.231 85.200 L 312.012 85.200 313.387 86.500 L 314.762 87.800 314.881 101.833 L 315.000 115.865 313.907 117.433 C 313.305 118.295,280.129 151.670,240.181 191.600 C 200.232 231.530,167.373 264.515,167.160 264.900 C 166.377 266.313,167.447 267.330,169.429 267.058 C 170.391 266.926,192.400 266.806,218.339 266.790 C 255.904 266.768,265.641 266.658,266.197 266.252 C 266.848 265.776,266.892 264.121,266.864 241.586 L 266.834 217.430 288.075 196.151 C 302.533 181.667,309.650 174.807,310.358 174.669 C 311.353 174.477,315.459 175.325,315.961 175.827 C 316.092 175.959,316.200 216.908,316.200 266.826 L 316.200 357.586 317.260 358.025 C 318.718 358.629,358.976 358.385,359.592 357.768 C 360.326 357.033,360.155 44.496,359.420 43.374 C 358.668 42.226,357.495 41.962,356.180 42.644 " stroke="none" fill="#23b2e9" fill-rule="evenodd"></path><path id="path1" d="M44.200 40.410 C 43.760 40.593,42.657 40.756,41.749 40.772 C 39.675 40.807,39.219 41.357,38.651 44.500 C 37.925 48.526,38.411 356.716,39.146 357.819 C 40.726 360.191,31.061 360.008,154.740 360.008 L 267.400 360.008 268.100 359.160 C 268.940 358.142,269.200 317.094,268.376 315.555 C 267.527 313.969,267.914 313.976,180.042 313.975 C 90.658 313.974,89.861 313.961,88.204 312.404 L 87.200 311.461 87.200 295.636 L 87.200 279.812 158.600 208.401 C 209.376 157.617,230.000 136.741,230.000 136.128 C 230.000 135.654,230.100 135.006,230.221 134.689 C 230.343 134.372,229.967 133.547,229.386 132.856 L 228.329 131.600 158.379 131.600 L 88.428 131.600 87.914 130.700 C 87.161 129.382,86.969 89.843,87.708 88.404 C 88.092 87.656,88.717 87.308,90.210 87.011 C 93.550 86.348,309.016 86.464,310.899 87.131 C 313.629 88.097,313.600 87.940,313.600 102.011 L 313.600 114.643 312.446 116.422 C 311.812 117.400,306.048 123.420,299.639 129.800 C 293.229 136.180,278.943 150.449,267.892 161.508 C 256.842 172.567,237.218 192.187,224.285 205.108 C 211.352 218.029,194.432 234.960,186.685 242.733 C 178.938 250.506,171.369 258.066,169.865 259.533 C 165.021 264.256,164.098 266.135,165.789 267.825 L 166.778 268.815 216.173 268.792 C 248.405 268.778,265.971 268.629,266.728 268.365 C 268.808 267.640,268.800 267.747,268.800 241.822 L 268.800 217.682 289.300 197.190 C 312.980 173.520,311.139 175.120,312.553 176.973 L 313.615 178.367 313.592 267.385 C 313.568 360.808,313.537 359.110,315.281 360.043 C 315.751 360.295,323.647 360.396,336.911 360.320 C 359.726 360.189,359.803 360.181,361.328 357.853 C 362.164 356.578,362.399 47.902,361.568 44.025 C 361.013 41.437,360.051 40.842,355.672 40.375 C 351.299 39.910,45.317 39.943,44.200 40.410 M359.875 42.163 L 361.000 43.131 361.200 199.465 C 361.310 285.449,361.300 356.238,361.178 356.773 C 360.571 359.440,361.030 359.387,337.193 359.522 L 315.643 359.644 315.013 358.425 C 314.445 357.326,314.384 348.395,314.396 267.568 L 314.408 177.928 313.066 176.586 C 311.077 174.597,311.832 173.965,289.277 196.528 L 268.413 217.400 268.307 241.935 L 268.200 266.471 267.241 267.248 C 266.664 267.715,265.628 268.037,264.641 268.057 C 255.671 268.235,167.982 268.371,167.312 268.207 C 166.152 267.924,165.466 266.598,165.789 265.263 C 165.960 264.556,190.553 239.666,239.166 191.000 C 279.382 150.740,312.671 117.232,313.143 116.538 C 313.977 115.310,314.000 114.916,314.000 101.859 L 314.000 88.441 312.531 87.320 L 311.062 86.200 202.631 86.080 C 83.883 85.948,88.945 85.876,87.554 87.729 L 86.600 89.000 86.600 109.217 C 86.600 131.461,86.558 131.072,89.061 132.023 C 89.705 132.268,115.497 132.405,159.096 132.394 C 223.225 132.379,228.165 132.426,228.856 133.051 C 229.652 133.771,229.843 135.797,229.209 136.799 C 229.001 137.129,196.784 169.450,157.615 208.624 L 86.400 279.850 86.400 295.647 L 86.400 311.443 87.822 312.822 L 89.244 314.200 177.722 314.400 C 274.021 314.618,267.693 314.438,268.168 316.968 C 268.556 319.037,268.375 357.793,267.974 358.442 C 267.681 358.916,250.776 359.030,155.115 359.200 C 37.692 359.409,41.373 359.455,39.971 357.765 C 39.028 356.629,38.911 42.982,39.853 41.941 C 40.492 41.235,45.992 41.210,199.632 41.202 L 358.750 41.195 359.875 42.163 " stroke="none" fill="#124052" fill-rule="evenodd"></path><path id="path2" d="M0.000 200.000 L 0.000 400.000 200.000 400.000 L 400.000 400.000 400.000 200.000 L 400.000 0.000 200.000 0.000 L 0.000 0.000 0.000 200.000 M358.627 39.540 C 359.081 39.683,360.161 40.388,361.027 41.107 L 362.600 42.415 362.800 198.907 C 363.017 368.930,363.148 357.367,360.983 359.269 L 359.467 360.600 337.634 360.800 C 313.186 361.024,314.511 361.139,313.285 358.684 L 312.383 356.878 312.380 267.539 C 312.377 190.659,312.296 178.061,311.802 177.200 C 311.487 176.650,311.222 176.413,311.214 176.673 C 311.206 176.933,310.803 177.272,310.318 177.426 C 309.399 177.718,306.400 180.611,306.400 181.206 C 306.400 181.393,306.049 181.657,305.620 181.794 C 305.192 181.930,304.733 182.383,304.600 182.800 C 304.467 183.217,304.036 183.662,303.640 183.787 C 303.245 183.913,302.718 184.462,302.469 185.008 C 302.221 185.553,301.772 186.000,301.473 186.000 C 301.173 186.000,300.723 186.450,300.473 187.000 C 300.222 187.550,299.739 188.000,299.399 188.000 C 299.059 188.000,298.609 188.450,298.400 189.000 C 298.191 189.550,297.741 190.000,297.401 190.000 C 297.061 190.000,296.579 190.447,296.331 190.992 C 296.082 191.538,295.555 192.087,295.160 192.213 C 294.764 192.338,294.333 192.783,294.200 193.200 C 294.067 193.617,293.636 194.062,293.240 194.187 C 292.845 194.313,292.318 194.862,292.069 195.408 C 291.821 195.953,291.355 196.400,291.036 196.400 C 290.716 196.400,290.336 196.770,290.193 197.223 C 290.049 197.676,289.497 198.211,288.966 198.413 C 288.435 198.615,288.000 199.059,288.000 199.399 C 288.000 199.739,287.550 200.222,287.000 200.473 C 286.450 200.723,286.000 201.173,286.000 201.473 C 286.000 201.772,285.553 202.221,285.008 202.469 C 284.462 202.718,283.913 203.245,283.787 203.640 C 283.662 204.036,283.217 204.467,282.800 204.600 C 282.383 204.733,281.926 205.202,281.786 205.643 C 281.646 206.085,281.097 206.611,280.566 206.813 C 280.035 207.015,279.600 207.426,279.600 207.726 C 279.600 208.026,279.166 208.470,278.635 208.711 C 278.104 208.953,277.552 209.522,277.408 209.976 C 277.264 210.429,276.884 210.800,276.564 210.800 C 276.245 210.800,275.779 211.247,275.531 211.792 C 275.282 212.338,274.755 212.887,274.360 213.013 C 273.964 213.138,273.538 213.564,273.413 213.960 C 273.287 214.355,272.738 214.882,272.192 215.131 C 271.647 215.379,271.200 215.850,271.200 216.177 C 271.200 216.504,270.850 216.959,270.422 217.188 C 269.666 217.593,269.641 218.316,269.522 242.591 C 269.403 266.962,269.380 267.598,268.600 268.375 C 267.906 269.066,196.313 269.657,166.700 269.216 C 164.183 269.179,163.130 266.012,164.900 263.804 C 166.764 261.479,245.806 182.400,246.265 182.400 C 246.530 182.400,246.846 182.085,246.969 181.700 C 247.092 181.315,261.606 166.600,279.223 149.000 C 296.841 131.400,311.541 116.460,311.891 115.800 C 312.474 114.700,312.775 89.042,312.211 88.478 C 312.130 88.397,311.374 88.170,310.532 87.975 C 308.784 87.569,93.819 87.535,90.400 87.940 L 88.200 88.200 88.200 109.400 L 88.200 130.600 158.800 130.803 C 197.630 130.914,229.421 131.049,229.446 131.103 C 229.471 131.156,229.985 131.913,230.589 132.784 L 231.687 134.368 230.773 136.284 C 230.050 137.798,214.969 153.096,158.929 209.155 L 88.000 280.111 88.000 295.841 L 88.000 311.572 88.900 312.086 C 89.624 312.500,106.779 312.619,176.669 312.697 C 268.538 312.800,266.940 312.768,268.690 314.519 C 269.115 314.944,269.482 345.618,269.218 358.671 C 269.171 360.970,278.314 360.800,154.556 360.800 L 41.169 360.800 39.550 359.290 C 37.247 357.141,37.400 368.607,37.400 198.519 L 37.400 42.839 38.962 41.239 C 40.180 39.992,40.884 39.607,42.162 39.490 C 45.085 39.222,357.774 39.271,358.627 39.540 " stroke="none" fill="#040404" fill-rule="evenodd"></path><path id="path3" d="M42.162 39.490 C 40.884 39.607,40.180 39.992,38.962 41.239 L 37.400 42.839 37.400 198.519 C 37.400 368.607,37.247 357.141,39.550 359.290 L 41.169 360.800 154.556 360.800 C 278.314 360.800,269.171 360.970,269.218 358.671 C 269.482 345.618,269.115 314.944,268.690 314.519 C 266.940 312.768,268.538 312.800,176.669 312.697 C 106.779 312.619,89.624 312.500,88.900 312.086 L 88.000 311.572 88.000 295.841 L 88.000 280.111 158.929 209.155 C 214.969 153.096,230.050 137.798,230.773 136.284 L 231.687 134.368 230.589 132.784 C 229.985 131.913,229.471 131.156,229.446 131.103 C 229.421 131.049,197.630 130.914,158.800 130.803 L 88.200 130.600 88.200 109.400 L 88.200 88.200 90.400 87.940 C 93.819 87.535,308.784 87.569,310.532 87.975 C 311.374 88.170,312.130 88.397,312.211 88.478 C 312.775 89.042,312.474 114.700,311.891 115.800 C 311.541 116.460,296.841 131.400,279.223 149.000 C 261.606 166.600,247.092 181.315,246.969 181.700 C 246.846 182.085,246.530 182.400,246.265 182.400 C 245.806 182.400,166.764 261.479,164.900 263.804 C 163.130 266.012,164.183 269.179,166.700 269.216 C 196.313 269.657,267.906 269.066,268.600 268.375 C 269.380 267.598,269.403 266.962,269.522 242.591 C 269.641 218.316,269.666 217.593,270.422 217.188 C 270.850 216.959,271.200 216.504,271.200 216.177 C 271.200 215.850,271.647 215.379,272.192 215.131 C 272.738 214.882,273.287 214.355,273.413 213.960 C 273.538 213.564,273.964 213.138,274.360 213.013 C 274.755 212.887,275.282 212.338,275.531 211.792 C 275.779 211.247,276.245 210.800,276.564 210.800 C 276.884 210.800,277.264 210.429,277.408 209.976 C 277.552 209.522,278.104 208.953,278.635 208.711 C 279.166 208.470,279.600 208.026,279.600 207.726 C 279.600 207.426,280.035 207.015,280.566 206.813 C 281.097 206.611,281.646 206.085,281.786 205.643 C 281.926 205.202,282.383 204.733,282.800 204.600 C 283.217 204.467,283.662 204.036,283.787 203.640 C 283.913 203.245,284.462 202.718,285.008 202.469 C 285.553 202.221,286.000 201.772,286.000 201.473 C 286.000 201.173,286.450 200.723,287.000 200.473 C 287.550 200.222,288.000 199.739,288.000 199.399 C 288.000 199.059,288.435 198.615,288.966 198.413 C 289.497 198.211,290.049 197.676,290.193 197.223 C 290.336 196.770,290.716 196.400,291.036 196.400 C 291.355 196.400,291.821 195.953,292.069 195.408 C 292.318 194.862,292.845 194.313,293.240 194.187 C 293.636 194.062,294.067 193.617,294.200 193.200 C 294.333 192.783,294.764 192.338,295.160 192.213 C 295.555 192.087,296.082 191.538,296.331 190.992 C 296.579 190.447,297.061 190.000,297.401 190.000 C 297.741 190.000,298.191 189.550,298.400 189.000 C 298.609 188.450,299.059 188.000,299.399 188.000 C 299.739 188.000,300.222 187.550,300.473 187.000 C 300.723 186.450,301.173 186.000,301.473 186.000 C 301.772 186.000,302.221 185.553,302.469 185.008 C 302.718 184.462,303.245 183.913,303.640 183.787 C 304.036 183.662,304.467 183.217,304.600 182.800 C 304.733 182.383,305.192 181.930,305.620 181.794 C 306.049 181.657,306.400 181.393,306.400 181.206 C 306.400 180.611,309.399 177.718,310.318 177.426 C 310.803 177.272,311.206 176.933,311.214 176.673 C 311.222 176.413,311.487 176.650,311.802 177.200 C 312.296 178.061,312.377 190.659,312.380 267.539 L 312.383 356.878 313.285 358.684 C 314.511 361.139,313.186 361.024,337.634 360.800 L 359.467 360.600 360.983 359.269 C 363.148 357.367,363.017 368.930,362.800 198.907 L 362.600 42.415 361.027 41.107 C 360.161 40.388,359.081 39.683,358.627 39.540 C 357.774 39.271,45.085 39.222,42.162 39.490 M355.672 40.375 C 360.051 40.842,361.013 41.437,361.568 44.025 C 362.399 47.902,362.164 356.578,361.328 357.853 C 359.803 360.181,359.726 360.189,336.911 360.320 C 323.647 360.396,315.751 360.295,315.281 360.043 C 313.537 359.110,313.568 360.808,313.592 267.385 L 313.615 178.367 312.553 176.973 C 311.139 175.120,312.980 173.520,289.300 197.190 L 268.800 217.682 268.800 241.822 C 268.800 267.747,268.808 267.640,266.728 268.365 C 265.971 268.629,248.405 268.778,216.173 268.792 L 166.778 268.815 165.789 267.825 C 164.098 266.135,165.021 264.256,169.865 259.533 C 171.369 258.066,178.938 250.506,186.685 242.733 C 194.432 234.960,211.352 218.029,224.285 205.108 C 237.218 192.187,256.842 172.567,267.892 161.508 C 278.943 150.449,293.229 136.180,299.639 129.800 C 306.048 123.420,311.812 117.400,312.446 116.422 L 313.600 114.643 313.600 102.011 C 313.600 87.940,313.629 88.097,310.899 87.131 C 309.016 86.464,93.550 86.348,90.210 87.011 C 88.717 87.308,88.092 87.656,87.708 88.404 C 86.969 89.843,87.161 129.382,87.914 130.700 L 88.428 131.600 158.379 131.600 L 228.329 131.600 229.386 132.856 C 229.967 133.547,230.343 134.372,230.221 134.689 C 230.100 135.006,230.000 135.654,230.000 136.128 C 230.000 136.741,209.376 157.617,158.600 208.401 L 87.200 279.812 87.200 295.636 L 87.200 311.461 88.204 312.404 C 89.861 313.961,90.658 313.974,180.042 313.975 C 267.914 313.976,267.527 313.969,268.376 315.555 C 269.200 317.094,268.940 358.142,268.100 359.160 L 267.400 360.008 154.740 360.008 C 31.061 360.008,40.726 360.191,39.146 357.819 C 38.411 356.716,37.925 48.526,38.651 44.500 C 39.219 41.357,39.675 40.807,41.749 40.772 C 42.657 40.756,43.760 40.593,44.200 40.410 C 45.317 39.943,351.299 39.910,355.672 40.375 " stroke="none" fill="#0e2733" fill-rule="evenodd"></path><path id="path4" d="M39.853 41.941 C 38.911 42.982,39.028 356.629,39.971 357.765 C 41.373 359.455,37.692 359.409,155.115 359.200 C 250.776 359.030,267.681 358.916,267.974 358.442 C 268.375 357.793,268.556 319.037,268.168 316.968 C 267.693 314.438,274.021 314.618,177.722 314.400 L 89.244 314.200 87.822 312.822 L 86.400 311.443 86.400 295.647 L 86.400 279.850 157.615 208.624 C 196.784 169.450,229.001 137.129,229.209 136.799 C 229.843 135.797,229.652 133.771,228.856 133.051 C 228.165 132.426,223.225 132.379,159.096 132.394 C 115.497 132.405,89.705 132.268,89.061 132.023 C 86.558 131.072,86.600 131.461,86.600 109.217 L 86.600 89.000 87.554 87.729 C 88.945 85.876,83.883 85.948,202.631 86.080 L 311.062 86.200 312.531 87.320 L 314.000 88.441 314.000 101.859 C 314.000 114.916,313.977 115.310,313.143 116.538 C 312.671 117.232,279.382 150.740,239.166 191.000 C 190.553 239.666,165.960 264.556,165.789 265.263 C 165.466 266.598,166.152 267.924,167.312 268.207 C 167.982 268.371,255.671 268.235,264.641 268.057 C 265.628 268.037,266.664 267.715,267.241 267.248 L 268.200 266.471 268.307 241.935 L 268.413 217.400 289.277 196.528 C 311.832 173.965,311.077 174.597,313.066 176.586 L 314.408 177.928 314.396 267.568 C 314.384 348.395,314.445 357.326,315.013 358.425 L 315.643 359.644 337.193 359.522 C 361.030 359.387,360.571 359.440,361.178 356.773 C 361.300 356.238,361.310 285.449,361.200 199.465 L 361.000 43.131 359.875 42.163 L 358.750 41.195 199.632 41.202 C 45.992 41.210,40.492 41.235,39.853 41.941 M359.420 43.374 C 360.155 44.496,360.326 357.033,359.592 357.768 C 358.976 358.385,318.718 358.629,317.260 358.025 L 316.200 357.586 316.200 266.826 C 316.200 216.908,316.092 175.959,315.961 175.827 C 315.459 175.325,311.353 174.477,310.358 174.669 C 309.650 174.807,302.533 181.667,288.075 196.151 L 266.834 217.430 266.864 241.586 C 266.892 264.121,266.848 265.776,266.197 266.252 C 265.641 266.658,255.904 266.768,218.339 266.790 C 192.400 266.806,170.391 266.926,169.429 267.058 C 167.447 267.330,166.377 266.313,167.160 264.900 C 167.373 264.515,200.232 231.530,240.181 191.600 C 280.129 151.670,313.305 118.295,313.907 117.433 L 315.000 115.865 314.881 101.833 L 314.762 87.800 313.387 86.500 L 312.012 85.200 200.231 85.200 L 88.450 85.200 87.018 86.700 C 85.062 88.748,85.158 87.467,85.286 109.837 L 85.400 129.874 86.926 131.736 L 88.452 133.598 158.526 133.699 L 228.600 133.800 228.544 135.075 C 228.494 136.211,220.839 143.996,157.944 206.871 C 119.145 245.658,86.905 278.005,86.300 278.752 L 85.200 280.110 85.200 295.879 L 85.200 311.648 86.690 313.430 C 88.969 316.157,83.201 315.995,178.432 315.998 L 265.865 316.000 266.328 316.900 C 267.054 318.309,267.187 357.520,266.467 357.796 C 265.702 358.089,42.782 358.038,41.685 357.744 C 40.850 357.520,40.770 357.268,40.762 354.850 C 40.757 353.392,40.676 332.760,40.582 309.000 C 40.488 285.240,40.545 216.930,40.709 157.200 C 40.946 70.969,40.905 48.188,40.508 46.600 C 39.616 43.024,40.192 41.578,42.048 42.737 C 43.250 43.488,354.730 43.396,356.180 42.644 C 357.495 41.962,358.668 42.226,359.420 43.374 " stroke="none" fill="#18647c" fill-rule="evenodd"></path></g></svg>