<svg width="65" height="64" viewBox="0 0 65 64" fill="none" xmlns="http://www.w3.org/2000/svg">
<path fill-rule="evenodd" clip-rule="evenodd" d="M61.7327 39.3382C62.3232 36.9899 62.6367 34.5316 62.6367 32C62.6367 15.4315 49.2053 2 32.6367 2C16.0682 2 2.63672 15.4315 2.63672 32C2.63672 34.4897 2.94 36.9085 3.51163 39.2216C10.2011 40.0243 15.3864 45.719 15.3864 52.6248C15.3864 53.8636 15.2195 55.0634 14.9071 56.2029C19.8739 59.8475 26.004 62 32.6367 62C39.5523 62 45.9214 59.66 50.9953 55.7286C50.7609 54.7321 50.6368 53.6929 50.6368 52.6248C50.6368 45.9895 55.4239 40.4722 61.7327 39.3382ZM23.2902 15.5067C23.29 19.2569 26.2496 20.7568 31.2432 20.7568C36.2368 20.7568 44.0051 23.382 44.0051 31.257C44.0051 31.257 39.7511 32.7571 39.9359 36.5072C40.0219 38.2536 41.2712 39.5933 42.6003 41.0186C44.1254 42.6542 45.7557 44.4025 45.8546 47.0073C53.6227 41.9448 53.6227 31.257 53.6227 31.257C54.1774 15.5067 39.0115 10.0692 33.0928 10.0691C27.174 10.0691 23.2903 11.7566 23.2902 15.5067ZM41.9854 46.6316C41.9856 42.8814 39.026 41.3815 34.0324 41.3815C29.0388 41.3815 21.2705 38.7563 21.2705 30.8813C21.2705 30.8813 25.5245 29.3812 25.3397 25.6311C25.2537 23.8847 24.0044 22.545 22.6753 21.1196C21.1502 19.4841 19.5199 17.7358 19.421 15.1309C11.6529 20.1935 11.6529 30.8813 11.6529 30.8813C11.0982 46.6316 26.2641 52.0691 32.1828 52.0692C38.1016 52.0692 41.9852 50.3817 41.9854 46.6316ZM37.638 31.2071C37.638 33.9685 35.3994 36.2071 32.638 36.2071C29.8766 36.2071 27.638 33.9685 27.638 31.2071C27.638 28.4457 29.8766 26.2071 32.638 26.2071C35.3994 26.2071 37.638 28.4457 37.638 31.2071Z" fill="url(#paint0_radial_89_860)"/>
<path fill-rule="evenodd" clip-rule="evenodd" d="M61.7327 39.3382C62.3232 36.9899 62.6367 34.5316 62.6367 32C62.6367 15.4315 49.2053 2 32.6367 2C16.0682 2 2.63672 15.4315 2.63672 32C2.63672 34.4897 2.94 36.9085 3.51163 39.2216C10.2011 40.0243 15.3864 45.719 15.3864 52.6248C15.3864 53.8636 15.2195 55.0634 14.9071 56.2029C19.8739 59.8475 26.004 62 32.6367 62C39.5523 62 45.9214 59.66 50.9953 55.7286C50.7609 54.7321 50.6368 53.6929 50.6368 52.6248C50.6368 45.9895 55.4239 40.4722 61.7327 39.3382ZM23.2902 15.5067C23.29 19.2569 26.2496 20.7568 31.2432 20.7568C36.2368 20.7568 44.0051 23.382 44.0051 31.257C44.0051 31.257 39.7511 32.7571 39.9359 36.5072C40.0219 38.2536 41.2712 39.5933 42.6003 41.0186C44.1254 42.6542 45.7557 44.4025 45.8546 47.0073C53.6227 41.9448 53.6227 31.257 53.6227 31.257C54.1774 15.5067 39.0115 10.0692 33.0928 10.0691C27.174 10.0691 23.2903 11.7566 23.2902 15.5067ZM41.9854 46.6316C41.9856 42.8814 39.026 41.3815 34.0324 41.3815C29.0388 41.3815 21.2705 38.7563 21.2705 30.8813C21.2705 30.8813 25.5245 29.3812 25.3397 25.6311C25.2537 23.8847 24.0044 22.545 22.6753 21.1196C21.1502 19.4841 19.5199 17.7358 19.421 15.1309C11.6529 20.1935 11.6529 30.8813 11.6529 30.8813C11.0982 46.6316 26.2641 52.0691 32.1828 52.0692C38.1016 52.0692 41.9852 50.3817 41.9854 46.6316ZM37.638 31.2071C37.638 33.9685 35.3994 36.2071 32.638 36.2071C29.8766 36.2071 27.638 33.9685 27.638 31.2071C27.638 28.4457 29.8766 26.2071 32.638 26.2071C35.3994 26.2071 37.638 28.4457 37.638 31.2071Z" fill="url(#paint1_radial_89_860)"/>
<defs>
<radialGradient id="paint0_radial_89_860" cx="0" cy="0" r="1" gradientUnits="userSpaceOnUse" gradientTransform="translate(32.6367 2) rotate(90) scale(74.1)">
<stop stop-color="#D72D1D"/>
<stop offset="1" stop-color="#F65F23"/>
</radialGradient>
<radialGradient id="paint1_radial_89_860" cx="0" cy="0" r="1" gradientUnits="userSpaceOnUse" gradientTransform="translate(32.6367 2) rotate(90) scale(74.1)">
<stop stop-color="#D72D1D"/>
<stop offset="1" stop-color="#F65F23"/>
</radialGradient>
</defs>
</svg>
