<svg width="513" height="260" viewBox="0 0 513 260" fill="none" xmlns="http://www.w3.org/2000/svg">
<path fill-rule="evenodd" clip-rule="evenodd" d="M141.089 185.466C144.204 184.082 145.761 183.07 145.762 182.425C145.761 182.046 145.441 181.855 144.805 181.855C143.56 181.855 141.306 182.604 138.04 184.096C134.778 185.584 132.122 187.084 130.085 188.595L124.763 189.729L118.534 190.745C109.285 192.294 102.51 194.007 98.2065 195.897C89.7141 199.556 85.4659 205.163 85.4659 212.712C85.4659 218.946 88.676 223.453 95.0911 226.248C90.5614 233.269 86.9581 238.455 84.276 241.817C75.1789 253.181 64.9478 258.862 53.5877 258.862C48.8673 258.862 44.9227 257.758 41.7515 255.552C38.5803 253.345 36.9973 250.615 36.9973 247.371C36.9973 245.441 37.3398 244.481 38.0185 244.481C38.2429 244.52 38.3558 244.707 38.3558 245.048V246.182C38.3558 247.883 39.242 248.731 41.0158 248.731C42.1875 248.731 43.1736 248.297 43.9872 247.428C44.7969 246.559 45.203 245.502 45.203 244.257C45.203 241.688 43.9742 240.407 41.5218 240.407C39.9375 240.407 38.5881 241.095 37.4722 242.475C36.3602 243.851 35.8022 245.521 35.8022 247.485C35.8022 251.149 37.6058 254.147 41.2091 256.488C44.8124 258.827 49.3889 260 54.9398 260C64.8673 260 74.5717 256.639 84.0451 249.921C87.446 247.502 90.1228 245.089 92.0873 242.67C94.1984 240.101 96.6339 236.177 99.3899 230.891L100.978 227.777C101.618 227.851 102.281 227.89 102.959 227.89C110.019 227.89 115.773 225.211 120.229 219.851C122.721 216.904 123.967 214.28 123.967 211.978C123.967 211.679 123.85 211.527 123.626 211.527C123.362 211.527 123.154 211.826 123.003 212.432C122.172 216.433 119.815 219.851 115.926 222.68C112.036 225.514 107.793 226.928 103.185 226.928C102.579 226.928 102.051 226.893 101.597 226.815L102.501 225.119C111.711 207.884 121.016 195.905 130.417 189.191C134.419 188.087 137.975 186.851 141.089 185.466ZM124.867 190.545C126.563 190.13 127.848 189.826 128.717 189.64L128.718 189.642C116.601 197.636 105.539 209.615 95.5375 225.573C90.8948 223.613 88.5722 220.256 88.5722 215.502C88.5722 210.561 91.2984 205.967 96.7533 201.723C102.208 197.479 109.541 194.265 118.751 192.076C121.433 191.436 123.47 190.925 124.867 190.545ZM391.429 240.065C391.461 240.025 391.492 239.985 391.524 239.944C391.563 239.894 391.602 239.843 391.641 239.791C391.678 239.737 391.715 239.684 391.752 239.632C392.329 238.88 392.732 238.281 392.927 237.98C392.957 237.939 392.987 237.898 393.017 237.857C393.021 237.851 393.025 237.844 393.03 237.838L393.031 237.836C393.035 237.83 393.038 237.824 393.043 237.819C393.049 237.808 393.054 237.801 393.058 237.796C393.062 237.79 393.065 237.786 393.065 237.784L393.069 237.78C399.029 229.508 401.673 227.7 402.84 227.7C403.385 227.7 404.008 227.865 404.008 229.146C404.008 231.092 401.491 236.098 396.52 244.018L387.401 258.453L387.929 258.385C389.089 258.238 390.335 258.164 391.632 258.164C391.995 258.164 393.111 258.238 394.954 258.389L395.113 258.402L395.191 258.263C406.564 237.978 415.065 227.699 420.451 227.699C421.943 227.699 422.64 228.357 422.64 229.767C422.64 230.961 421.109 233.825 418.097 238.293C415.164 242.581 413.317 245.496 412.611 246.962C411.901 248.442 411.538 250.069 411.538 251.794C411.538 253.772 412.139 255.468 413.328 256.83C414.527 258.202 416.027 258.899 417.797 258.899C420.47 258.899 424.001 256.233 428.586 250.756C429.923 249.16 431.048 247.793 431.991 246.625C431.796 247.598 431.697 248.584 431.697 249.589C431.697 252.236 432.401 254.473 433.791 256.229C435.192 257.999 436.953 258.899 439.025 258.899C440.968 258.899 442.988 257.942 445.025 256.057C446.777 254.435 449.238 251.467 452.348 247.214C451.755 248.823 451.457 250.359 451.457 251.796C451.457 253.812 452.032 255.516 453.162 256.857C454.3 258.212 455.796 258.9 457.605 258.9C460.278 258.9 463.786 256.235 468.338 250.758C469.584 249.282 470.644 248.002 471.548 246.895C470.844 248.591 470.484 250.352 470.484 252.138C470.484 254.077 471.029 255.703 472.102 256.97C473.188 258.251 474.593 258.9 476.289 258.9C479.807 258.9 485.049 254.025 492.309 243.996L494.722 240.678C495.16 240.241 495.358 239.9 495.358 239.598C495.358 239.29 495.212 239.078 494.947 239.014L494.912 239.01H494.886C494.519 239.01 494.211 239.243 494 239.681C485.62 251.538 479.815 257.552 476.738 257.552C475.436 257.552 474.835 256.821 474.835 255.255C474.835 253.797 476.145 250.734 478.737 246.149C481.345 241.524 490.673 225.868 506.45 199.61L506.451 199.594L506.818 198.98L506.147 199.231C504.976 199.672 503.673 199.893 502.275 199.893C501.428 199.893 500.441 199.746 499.338 199.447L499.152 199.399L499.057 199.568C494.394 207.874 488.584 217.816 481.788 229.119C480.954 230.503 480.174 231.804 479.444 233.029L479.44 233.033V233.037L479.423 233.059L474.695 240.486C471.472 245.163 468.258 249.173 465.134 252.426C461.872 255.814 459.489 257.535 458.058 257.535C456.716 257.535 456.093 256.769 456.093 255.125C456.093 253.326 457.832 249.502 461.266 243.756L471.566 226.708L471.034 226.789C469.429 227.053 468.106 227.183 467.111 227.183C466.267 227.183 465.276 227.053 464.169 226.793L463.978 226.75L461.863 230.769C461.902 230.48 461.924 230.215 461.924 229.981C461.924 227.563 460.66 226.334 458.165 226.334C455.379 226.334 451.68 227.602 447.172 230.102C440.147 233.939 435.492 238.218 433.256 242.876C426.283 252.609 421.26 257.534 418.306 257.534C416.892 257.534 416.23 256.876 416.23 255.461C416.23 254.047 418.007 250.664 421.512 245.408C424.995 240.183 426.763 236.233 426.763 233.663C426.763 231.612 426.17 229.859 425.006 228.463C423.83 227.053 422.354 226.335 420.625 226.335C418.53 226.335 416.234 227.503 413.802 229.801C411.937 231.562 409.428 234.52 406.323 238.631C407.565 236.191 408.188 234.145 408.188 232.531C408.188 230.857 407.711 229.395 406.773 228.188C405.826 226.959 404.653 226.337 403.291 226.337C401.183 226.337 397.299 230.173 391.408 238.069L390.95 238.675C390.95 238.675 390.781 238.896 390.56 239.181C390.262 239.574 389.864 240.089 389.678 240.315C389.488 240.542 389.119 240.99 388.849 241.318L388.727 241.466C388.606 241.613 388.523 241.713 388.523 241.713C387.333 243.166 385.923 244.463 384.31 245.584C382.091 247.128 380.136 247.912 378.5 247.912C377.704 247.912 376.972 247.74 376.32 247.402C380.785 241.367 383.051 236.12 383.051 231.798C383.051 228.173 381.33 226.339 377.934 226.339C374.421 226.339 369.918 228.278 364.537 232.105C361.504 234.256 359.056 236.454 357.221 238.685L356.914 239.066L356.235 239.909C347.95 251.606 342.106 257.537 338.866 257.537C337.218 257.537 336.447 256.807 336.447 255.241C336.447 253.632 337.369 251.295 339.185 248.288L352.315 226.719L351.792 226.793C349.957 227.057 348.526 227.186 347.527 227.186C346.869 227.186 345.957 227.057 344.806 226.797L344.628 226.758L337.266 239.269C337.158 239.369 337.046 239.503 336.929 239.671C328.852 251.528 323.064 257.537 319.728 257.537C318.081 257.537 317.31 256.807 317.31 255.241C317.31 253.743 318.079 251.693 319.599 249.137L332.153 227.689H339.576L340.299 226.339H332.901L339.503 215.204L338.91 215.363C337.807 215.658 336.721 215.804 335.692 215.804C334.702 215.804 333.637 215.658 332.53 215.363L332.348 215.315L325.7 226.338H320.045L319.146 227.687H324.951L318.073 239.233H318.069C317.956 239.341 317.844 239.489 317.735 239.67C314.322 244.693 310.918 248.988 307.612 252.428C304.346 255.816 301.966 257.536 300.53 257.536C299.193 257.536 298.571 256.771 298.571 255.127C298.571 253.327 300.309 249.507 303.744 243.757L314.044 226.709L313.512 226.791C311.907 227.054 310.587 227.184 309.588 227.184C308.745 227.184 307.753 227.054 306.643 226.795L306.457 226.752L304.342 230.77C304.381 230.481 304.403 230.216 304.403 229.983C304.403 227.564 303.135 226.335 300.644 226.335C297.858 226.335 294.159 227.603 289.651 230.103C282.63 233.94 277.971 238.22 275.735 242.878C268.762 252.611 263.739 257.535 260.785 257.535C259.37 257.535 258.709 256.877 258.709 255.463C258.709 254.048 260.486 250.666 263.991 245.409C267.474 240.184 269.242 236.229 269.242 233.664C269.242 231.614 268.649 229.861 267.485 228.465C266.308 227.054 264.833 226.337 263.103 226.337C261.005 226.337 258.713 227.504 256.277 229.802C254.416 231.559 251.912 234.521 248.802 238.632C250.044 236.193 250.67 234.147 250.67 232.532C250.67 230.862 250.19 229.4 249.251 228.189C248.3 226.961 247.127 226.338 245.768 226.338C243.661 226.338 239.772 230.175 233.885 238.07L233.626 238.417L233.622 238.421C233.614 238.434 233.591 238.462 233.557 238.506L233.557 238.507L233.556 238.507C233.536 238.534 233.511 238.566 233.482 238.603C233.464 238.627 233.444 238.652 233.423 238.68L233.06 239.16C233.057 239.162 232.973 239.266 232.84 239.428L232.839 239.429C232.435 239.925 231.582 240.97 231.205 241.384C230.98 241.627 230.474 242.193 230.019 242.708C230.017 242.709 230.015 242.711 230.014 242.712C230.012 242.714 230.011 242.715 230.009 242.716L230.008 242.717C230.004 242.721 230 242.724 229.997 242.73C229.746 243.028 229.494 243.314 229.24 243.582C229.171 243.66 229.132 243.703 229.132 243.703C226.736 246.272 224.482 247.571 222.397 247.571C220.16 247.571 219.075 246.1 219.075 243.063C219.075 241.977 219.331 240.58 219.837 238.906L220.424 238.409C222.085 237.393 223.344 236.609 224.167 236.086C229.54 232.643 232.153 230.038 232.153 228.118C232.153 227.305 231.807 226.34 230.15 226.34C228.385 226.34 226.391 227.508 224.222 229.819C222.089 232.077 220.282 234.924 218.845 238.268C217.63 239.258 216.358 240.447 215.051 241.828C217.231 238.043 218.335 234.885 218.335 232.423C218.335 228.387 216.73 226.34 213.551 226.34C211.366 226.34 207.426 230.177 201.495 238.077L200.53 239.422L200.527 239.426C200.349 239.586 200.167 239.793 199.969 240.058C191.407 251.583 184.092 257.427 178.231 257.427C174.852 257.427 173.213 255.917 173.213 252.807C173.213 250.28 174.472 247.083 176.964 243.289C185.201 241.636 191.171 239.836 194.71 237.938C198.331 235.992 200.165 233.586 200.165 230.778C200.165 229.536 199.649 228.472 198.633 227.616C197.625 226.769 196.402 226.339 194.986 226.339C191.828 226.339 187.693 227.72 182.696 230.445C175.951 234.126 171.56 238.27 169.579 242.817C162.636 252.594 157.592 257.539 154.564 257.539C152.916 257.539 152.145 256.808 152.145 255.242C152.145 253.745 152.914 251.695 154.434 249.138L166.988 227.69H174.411L175.128 226.34H167.735L174.337 215.205L173.744 215.364C172.637 215.659 171.555 215.806 170.526 215.806C169.536 215.806 168.471 215.659 167.364 215.364L167.182 215.316L160.534 226.339H154.875L153.98 227.689H159.781L152.046 240.671C144.26 251.866 138.705 257.537 135.539 257.537C134.119 257.537 133.463 256.88 133.463 255.465C133.463 254.051 135.24 250.668 138.74 245.412C142.226 240.187 143.991 236.237 143.991 233.666C143.991 231.616 143.403 229.863 142.234 228.467C141.057 227.057 139.587 226.339 137.856 226.339C135.758 226.339 133.462 227.507 131.03 229.805C129.169 231.562 126.661 234.524 123.555 238.635C124.793 236.195 125.419 234.149 125.419 232.535C125.419 230.861 124.943 229.403 124.005 228.192C123.054 226.963 121.881 226.34 120.518 226.34C118.411 226.34 114.526 230.177 108.639 238.073L107.584 239.466C107.438 239.613 107.338 239.808 107.29 240.046L107.281 240.094L107.285 240.137C107.367 240.634 107.726 240.686 107.873 240.686H107.898L107.921 240.682C108.189 240.626 108.482 240.349 108.872 239.783C115.845 229.785 118.812 227.693 120.072 227.693C120.574 227.693 121.24 227.839 121.24 229.138C121.24 231.084 118.717 236.09 113.748 244.01L104.633 258.447L105.155 258.378C106.315 258.232 107.561 258.158 108.863 258.158C109.23 258.158 110.316 258.232 112.18 258.382L112.34 258.395L112.418 258.256C123.795 237.972 132.296 227.693 137.681 227.693C139.173 227.693 139.87 228.35 139.87 229.761C139.87 230.951 138.339 233.818 135.323 238.287C132.391 242.574 130.543 245.494 129.843 246.956C129.129 248.435 128.77 250.062 128.77 251.788C128.77 253.765 129.37 255.461 130.56 256.824C131.754 258.195 133.259 258.892 135.029 258.892C137.702 258.892 141.229 256.227 145.818 250.75C146.756 249.625 147.596 248.617 148.335 247.708C147.748 249.271 147.453 250.672 147.453 251.901C147.453 253.886 148.076 255.561 149.308 256.885C150.541 258.217 152.098 258.892 153.937 258.892C157.364 258.892 162.157 254.739 168.55 246.212C168.416 247.004 168.346 247.804 168.346 248.618C168.346 251.543 169.276 254.008 171.106 255.954C172.941 257.901 175.241 258.892 177.945 258.892C183.595 258.892 190.426 253.991 198.26 244.322L200.699 241.267C201.166 240.671 201.435 240.307 201.581 240.078C201.584 240.075 201.586 240.071 201.588 240.068C201.59 240.065 201.591 240.062 201.591 240.061C201.655 239.979 201.72 239.883 201.785 239.784C207.275 231.759 211.082 227.694 213.097 227.694C213.59 227.694 214.152 227.84 214.152 229.03C214.152 230.787 211.824 235.467 207.226 242.939L197.688 258.413L198.172 258.383C198.967 258.328 201.402 258.159 201.606 258.159C201.934 258.159 203.078 258.233 205.098 258.383L205.254 258.393L205.331 258.259C208.97 252.033 211.565 247.85 213.049 245.826C214.391 243.987 216.124 242.11 218.202 240.236C217.881 241.526 217.722 242.629 217.722 243.524C217.722 246.997 219.258 248.758 222.281 248.758C224.882 248.758 227.671 247.123 230.579 243.909C232.314 242.028 233.179 240.994 233.615 240.41C233.619 240.406 233.624 240.401 233.628 240.393C233.775 240.25 233.936 240.052 234.118 239.787C241.091 229.789 244.058 227.696 245.318 227.696C245.82 227.696 246.486 227.843 246.486 229.142C246.486 231.088 243.969 236.094 238.994 244.014L229.878 258.451L230.407 258.382C231.561 258.235 232.812 258.162 234.11 258.162C234.477 258.162 235.563 258.235 237.431 258.386L237.591 258.399L237.669 258.26C249.042 237.976 257.542 227.696 262.928 227.696C264.42 227.696 265.117 228.354 265.117 229.765C265.117 230.958 263.586 233.827 260.575 238.291C257.637 242.578 255.794 245.497 255.09 246.96C254.38 248.439 254.017 250.066 254.017 251.792C254.017 253.769 254.623 255.465 255.807 256.828C257.006 258.199 258.506 258.896 260.276 258.896C262.949 258.896 266.48 256.231 271.069 250.754C272.406 249.158 273.531 247.79 274.47 246.622C274.275 247.596 274.175 248.582 274.175 249.586C274.175 252.238 274.88 254.47 276.27 256.227C277.671 257.997 279.432 258.896 281.504 258.896C283.446 258.896 285.467 257.94 287.504 256.054C289.261 254.432 291.717 251.465 294.827 247.212C294.234 248.82 293.936 250.357 293.936 251.793C293.936 253.81 294.511 255.513 295.641 256.855C296.779 258.21 298.275 258.897 300.084 258.897C302.757 258.897 306.265 256.232 310.817 250.755C311.885 249.487 312.82 248.362 313.629 247.372C312.958 249.072 312.621 250.586 312.621 251.906C312.621 253.887 313.243 255.566 314.476 256.89C315.709 258.223 317.271 258.897 319.11 258.897C322.414 258.897 326.983 255.038 333.035 247.122C332.188 249.12 331.758 250.76 331.758 252.019C331.758 253.965 332.385 255.614 333.614 256.92C334.846 258.23 336.403 258.897 338.247 258.897C341.876 258.897 346.851 254.593 353.427 245.76C353.138 246.881 352.995 248.004 352.995 249.134C352.995 251.787 353.825 254.1 355.466 256.009C357.113 257.925 359.13 258.899 361.462 258.899C365.874 258.899 370.629 255.355 375.594 248.373C376.486 248.779 377.507 248.987 378.631 248.987C381.481 248.987 384.631 247.291 387.987 243.947C388.432 243.502 388.818 243.103 389.155 242.748C389.35 242.544 389.522 242.355 389.683 242.177L389.687 242.173C389.704 242.156 389.752 242.104 389.839 242.004C390.017 241.801 390.176 241.615 390.319 241.443C390.324 241.438 390.328 241.434 390.332 241.429L390.339 241.421C390.352 241.407 390.363 241.393 390.375 241.378C390.595 241.114 390.877 240.772 391.218 240.331L391.222 240.327C391.256 240.284 391.29 240.24 391.326 240.196L391.367 240.144C391.387 240.119 391.408 240.092 391.429 240.065ZM354.258 213.486C352.912 213.486 351.619 214.092 350.403 215.285C349.187 216.479 348.573 217.747 348.573 219.057C348.573 220.887 349.543 221.852 351.372 221.852C352.757 221.852 354.05 221.246 355.205 220.052C356.356 218.859 356.944 217.552 356.944 216.168C356.944 214.411 356.014 213.486 354.258 213.486ZM67.0023 191.214C68.6204 191.214 70.0308 190.99 71.1856 190.54C72.2847 190.111 72.8426 189.618 72.8465 189.073C72.8465 188.883 72.7738 188.701 72.622 188.532C72.3664 188.242 71.9071 187.982 71.2414 187.745C70.1165 187.348 68.6671 187.144 66.9414 187.144C62.8229 187.144 58.7694 187.982 54.8807 189.635C55.5904 189.761 56.753 189.973 58.3412 190.267C61.5773 190.899 64.4929 191.214 67.0023 191.214ZM53.1977 189.276C57.8962 187.23 62.4765 186.192 66.8116 186.192V186.182C71.4491 186.182 73.7029 187.109 73.686 189.003C73.686 190.206 72.5649 191.179 70.2553 191.98C68.0404 192.751 65.2961 193.14 62.1132 193.14C58.9303 193.14 54.9196 192.699 50.2043 191.833C47.7467 193.118 45.4721 195.047 43.4298 197.557C41.3667 200.096 39.1167 203.747 36.7461 208.407C34.3625 213.083 32.594 216.249 31.482 217.812C30.3661 219.382 28.809 220.926 26.8666 222.397C21.7361 226.2 16.3331 228.13 10.8042 228.13C7.84582 228.13 5.38437 227.489 3.49384 226.23C1.58255 224.955 0.613281 223.276 0.613281 221.238C0.613281 220.2 0.924693 219.296 1.54362 218.552C2.17034 217.795 2.92811 217.414 3.79747 217.414C5.22088 217.414 5.97345 218.197 5.97345 219.681C5.97345 220.378 5.75287 220.988 5.3156 221.49C4.87443 222 4.32038 222.26 3.6755 222.26C2.6154 222.26 2.05356 221.705 2.05356 220.664C2.05356 220.193 1.97052 220.109 1.96662 220.106C1.83168 220.113 1.65911 220.46 1.65911 221.429C1.65911 223.008 2.49343 224.367 4.13353 225.47C5.54786 226.422 7.26971 226.971 9.25496 227.114H9.25885C9.60529 227.14 9.95563 227.153 10.3189 227.153C15.709 227.153 20.6189 224.682 24.906 219.807C26.9354 217.514 29.5836 213.685 32.7886 208.412C37.8893 200.064 43.2923 194.409 48.8509 191.597C47.7779 191.403 46.2987 191.096 44.4471 190.685C39.3036 189.573 35.311 188.984 32.581 189.006C32.3954 189.008 32.179 189.007 31.9352 189.007C28.4465 188.998 19.338 188.977 14.3037 195.197C11.0456 199.224 11.7164 203.598 12.6338 205.839C13.5771 208.15 16.4966 210.187 18.8335 210.213C21.1703 210.239 22.8779 209.435 24.4142 207.807C26.0971 206.026 25.9765 202.881 25.1629 201.704C24.3441 200.527 21.7452 200.553 21.5933 200.588C21.5933 200.588 21.6011 200.584 21.6063 200.584C21.608 200.584 21.61 200.583 21.6122 200.583C21.6145 200.582 21.617 200.58 21.6198 200.579C21.6225 200.578 21.6253 200.576 21.6284 200.575C21.6284 200.571 21.6323 200.571 21.6323 200.571C21.6323 200.567 21.6414 200.567 21.6414 200.567L21.6452 200.563L21.6628 200.555L21.6628 200.555C21.6765 200.549 21.6924 200.542 21.7101 200.533C21.7361 200.524 21.7659 200.511 21.8009 200.494C22.4925 200.222 24.6945 199.565 26.2347 200.387C27.8345 201.235 29.4695 204.181 27.1858 207.482C24.6153 211.198 20.5748 211.276 18.862 211.22C17.3088 211.168 13.9339 211.012 11.793 206.423C9.85572 202.275 11.5205 197.615 12.5416 195.98C16.6043 189.474 22.4355 187.895 28.4094 186.974C32.3851 186.364 36.8837 186.438 42.5942 187.204C44.0396 187.398 47.604 188.125 53.1977 189.276ZM73.5179 216.648L73.4959 216.644H73.4738C73.2402 216.644 72.9976 216.822 72.7082 217.206C68.0929 223.422 64.1509 226.575 60.9979 226.575C59.2073 226.575 58.3327 225.775 58.3327 224.131C58.3327 222.781 59.0074 221.063 60.34 219.03L60.353 219.026C64.7958 218.135 68.0189 217.162 69.9302 216.133C71.9025 215.073 72.9068 213.753 72.9068 212.218C72.9068 211.534 72.6213 210.946 72.0595 210.47C71.9077 210.34 71.7481 210.228 71.5755 210.137C71.5726 210.136 71.5693 210.135 71.5659 210.134C71.5586 210.132 71.5509 210.13 71.5456 210.124C71.5288 210.111 71.4976 210.098 71.4548 210.085L71.4457 210.081C71.0305 209.877 70.5673 209.77 70.0574 209.77C68.3394 209.77 66.0985 210.518 63.3867 211.997C59.9559 213.871 57.6502 215.964 56.4915 218.253L55.9634 218.989C52.8233 223.383 50.4397 225.906 48.8684 226.503C48.8554 226.507 48.8256 226.516 48.7866 226.529C48.7646 226.538 48.7386 226.542 48.7179 226.546C48.5453 226.607 48.3766 226.636 48.2248 226.64C48.2234 226.639 48.2213 226.638 48.2187 226.638C48.2179 226.637 48.2171 226.637 48.2162 226.637C48.2143 226.637 48.2123 226.638 48.2102 226.638C48.2078 226.638 48.2053 226.639 48.2027 226.64C47.4281 226.64 47.0687 226.277 47.0687 225.506C47.0687 225.017 47.5838 223.668 50.0362 220.038C51.8709 217.33 52.7662 215.301 52.7662 213.844C52.7662 212.719 52.4328 211.755 51.7892 210.967C51.4946 210.613 51.1702 210.331 50.816 210.137C50.3839 209.89 49.9077 209.77 49.3926 209.77C49.2719 209.77 49.1422 209.779 49.0163 209.796H49.0072C47.2945 210.016 45.2093 211.69 42.6869 214.883L43.9073 212.855L43.9126 212.846C44.7134 211.515 45.1441 210.799 45.2041 210.696L45.2107 210.685L45.2144 210.679C49.3836 203.943 52.5681 198.797 54.6957 195.39L54.9461 194.984L54.4881 195.11C53.7835 195.308 53.0257 195.408 52.2433 195.408H52.2135C51.7944 195.408 51.2831 195.353 50.6862 195.231L50.5565 195.205L45.8373 203.217C42.3845 209.109 40.2955 212.651 39.6208 213.756C38.3621 216.009 37.4149 217.74 36.7999 218.899L32.1196 227.373L32.4959 227.318C32.963 227.24 33.3692 227.188 33.7208 227.158C33.9245 227.141 34.1101 227.132 34.2697 227.132C34.6849 227.132 35.2 227.197 35.7969 227.314L35.9266 227.34L35.9954 227.223C39.5468 220.834 42.3677 216.434 44.3918 214.15C46.464 211.796 48.1119 210.603 49.2719 210.603C50.0024 210.603 50.345 210.923 50.345 211.611C50.345 211.779 50.2451 212.1 49.9557 212.692C49.9557 212.696 49.9518 212.701 49.9466 212.705C49.4886 213.63 48.5453 215.205 46.7326 217.874C45.1665 220.202 44.3711 222.122 44.3711 223.581C44.3711 224.684 44.7045 225.618 45.3533 226.354C46.0112 227.093 46.8676 227.469 47.9017 227.469C49.7053 227.469 52.2628 225.238 55.7065 220.647C55.6416 221.049 55.6117 221.455 55.6117 221.867C55.6117 223.459 56.1178 224.804 57.1169 225.868C58.1199 226.932 59.3746 227.469 60.8499 227.469C63.9174 227.469 67.6283 224.813 71.8726 219.574L73.1922 217.921C73.7852 217.168 73.7852 217.09 73.7852 217.012C73.7852 216.827 73.6853 216.692 73.5218 216.649L73.5179 216.648ZM65.7871 212.746C67.509 211.28 68.9064 210.54 69.9354 210.54C70.5452 210.54 70.8216 210.783 70.8216 211.332C70.8216 212.487 69.8186 213.75 67.8411 215.083C65.9415 216.364 63.6189 217.385 60.9278 218.124C62.5108 215.948 64.1418 214.14 65.7858 212.747L65.7871 212.746ZM194.749 227.571C192.819 227.571 190.219 228.955 187.014 231.676V231.677C183.917 234.307 180.836 237.729 177.86 241.857C182.96 240.48 187.355 238.563 190.929 236.15C194.615 233.663 196.483 231.3 196.483 229.133C196.483 228.067 195.935 227.571 194.749 227.571ZM281.892 257.536C284.4 257.536 288.891 253.206 295.224 244.671C300.416 237.649 303.046 232.787 303.046 230.208C303.046 228.487 302.315 227.686 300.749 227.686C297.37 227.686 292.833 231.082 287.265 237.787C281.688 244.502 278.86 249.996 278.86 254.105C278.86 256.415 279.85 257.536 281.892 257.536ZM373.037 243.857C373.037 241.959 373.793 239.985 375.295 237.987V237.989C376.809 235.968 378.322 234.943 379.793 234.943C380.192 234.943 380.689 235.086 381.039 235.687C381.476 234.54 381.697 233.272 381.697 231.91C381.697 228.99 380.425 227.571 377.812 227.571C374.477 227.571 370.315 230.853 365.44 237.325C360.551 243.818 358.072 249.351 358.072 253.764C358.072 256.226 359.215 257.425 361.564 257.425C365.505 257.425 369.892 254.124 374.607 247.609C373.565 246.406 373.037 245.142 373.037 243.857ZM439.418 257.536C441.928 257.536 446.413 253.206 452.756 244.671C457.943 237.649 460.577 232.787 460.577 230.208C460.577 228.487 459.846 227.686 458.276 227.686C454.897 227.686 450.363 231.082 444.795 237.787C439.215 244.506 436.386 249.996 436.386 254.105C436.386 256.415 437.376 257.536 439.418 257.536Z" fill="white"/>
<path fill-rule="evenodd" clip-rule="evenodd" d="M341.469 118.015C343.24 110.97 344.181 103.595 344.181 96C344.181 46.2944 303.886 6 254.181 6C204.475 6 164.181 46.2944 164.181 96C164.181 103.469 165.091 110.726 166.805 117.665C186.874 120.073 202.43 137.157 202.43 157.874C202.43 161.591 201.929 165.19 200.992 168.609C215.892 179.542 234.282 186 254.181 186C274.927 186 294.035 178.98 309.256 167.186C308.553 164.196 308.181 161.079 308.181 157.874C308.181 137.968 322.542 121.417 341.469 118.015ZM226.141 46.5201C226.141 57.7706 235.019 62.2705 250 62.2705C264.981 62.2705 288.286 70.1458 288.286 93.7711C288.286 93.7711 275.524 98.2711 276.078 109.522C276.336 114.761 280.084 118.78 284.072 123.056C288.647 127.962 293.538 133.207 293.834 141.022C317.139 125.834 317.139 93.7711 317.139 93.7711C318.803 46.5201 273.305 30.2075 255.549 30.2073C237.793 30.2072 226.142 35.2697 226.141 46.5201ZM282.227 139.895C282.227 128.644 273.348 124.144 258.368 124.144C243.387 124.144 220.082 116.269 220.082 92.6438C220.082 92.6438 232.844 88.1437 232.29 76.8933C232.032 71.6542 228.284 67.6351 224.296 63.3589C219.721 58.4524 214.83 53.2074 214.533 45.3929C191.229 60.5804 191.229 92.6438 191.229 92.6438C189.565 139.895 235.063 156.207 252.819 156.208C270.575 156.208 282.226 151.145 282.227 139.895ZM269.185 93.6213C269.185 101.906 262.469 108.621 254.185 108.621C245.9 108.621 239.185 101.906 239.185 93.6213C239.185 85.337 245.9 78.6213 254.185 78.6213C262.469 78.6213 269.185 85.337 269.185 93.6213Z" fill="url(#paint0_radial_89_889)"/>
<path fill-rule="evenodd" clip-rule="evenodd" d="M341.469 118.015C343.24 110.97 344.181 103.595 344.181 96C344.181 46.2944 303.886 6 254.181 6C204.475 6 164.181 46.2944 164.181 96C164.181 103.469 165.091 110.726 166.805 117.665C186.874 120.073 202.43 137.157 202.43 157.874C202.43 161.591 201.929 165.19 200.992 168.609C215.892 179.542 234.282 186 254.181 186C274.927 186 294.035 178.98 309.256 167.186C308.553 164.196 308.181 161.079 308.181 157.874C308.181 137.968 322.542 121.417 341.469 118.015ZM226.141 46.5201C226.141 57.7706 235.019 62.2705 250 62.2705C264.981 62.2705 288.286 70.1458 288.286 93.7711C288.286 93.7711 275.524 98.2712 276.078 109.522C276.336 114.761 280.084 118.78 284.072 123.056C288.647 127.962 293.538 133.207 293.834 141.022C317.139 125.834 317.139 93.7711 317.139 93.7711C318.803 46.5202 273.305 30.2075 255.549 30.2073C237.793 30.2072 226.142 35.2697 226.141 46.5201ZM282.227 139.895C282.227 128.644 273.348 124.144 258.368 124.144C243.387 124.144 220.082 116.269 220.082 92.6438C220.082 92.6438 232.844 88.1437 232.29 76.8933C232.032 71.6542 228.284 67.6351 224.296 63.3589C219.721 58.4524 214.83 53.2074 214.533 45.3929C191.229 60.5804 191.229 92.6438 191.229 92.6438C189.565 139.895 235.063 156.207 252.819 156.208C270.575 156.208 282.226 151.145 282.227 139.895ZM269.185 93.6213C269.185 101.906 262.469 108.621 254.185 108.621C245.9 108.621 239.185 101.906 239.185 93.6213C239.185 85.337 245.9 78.6213 254.185 78.6213C262.469 78.6213 269.185 85.337 269.185 93.6213Z" fill="#D72D1D"/>
<defs>
<radialGradient id="paint0_radial_89_889" cx="0" cy="0" r="1" gradientUnits="userSpaceOnUse" gradientTransform="translate(254.181 6) rotate(90) scale(222.3)">
<stop stop-color="#D72D1D"/>
<stop offset="1" stop-color="#F65F23"/>
</radialGradient>
</defs>
</svg>
