<?xml version="1.0" encoding="utf-8"?>
<!-- Generator: Adobe Illustrator 18.0.0, SVG Export Plug-In . SVG Version: 6.00 Build 0)  -->
<!DOCTYPE svg PUBLIC "-//W3C//DTD SVG 1.1//EN" "http://www.w3.org/Graphics/SVG/1.1/DTD/svg11.dtd">
<svg version="1.1" id="Layer_1" xmlns="http://www.w3.org/2000/svg" xmlns:xlink="http://www.w3.org/1999/xlink" x="0px" y="0px"
	 viewBox="0 0 192 192" enable-background="new 0 0 192 192" xml:space="preserve">
<g>
	<path fill="#006C94" d="M175.4,30.6l0-4l-3.9-0.4c-0.2,0-20.9-2.2-39.7-8.2C113.1,12.1,99.1,3.4,99,3.3l-2.4-1.5l-2.4,1.5
		C94.2,3.4,80.2,12.1,61.5,18c-18.8,6-39.5,8.2-39.7,8.2l-3.9,0.4l0,4c0,1.6-0.1,38.4,4.4,60.8c4.5,22.4,17.1,49.1,30.8,65
		c17.6,20.5,40.7,32.3,41.6,32.8l2,1l2-1c1-0.5,24-12.3,41.6-32.8c13.6-15.9,26.3-42.6,30.8-65C175.5,69,175.4,32.2,175.4,30.6z
		 M162.4,89.7c-4.2,21-16,46.1-28.8,60.9c-13.6,15.8-31.1,26.3-36.9,29.6c-5.8-3.3-23.3-13.8-36.9-29.6
		C47,135.8,35.1,110.8,30.9,89.7c-3.5-17.5-4.1-45-4.2-55.2c7.1-1,22.6-3.4,37.5-8.1C79.6,21.6,91.7,15,96.7,12.2
		c4.9,2.8,17.1,9.4,32.4,14.3c14.8,4.7,30.3,7.2,37.5,8.1C166.5,44.7,165.9,72.3,162.4,89.7z"/>
	<path d="M73.8,32.7c-13.5,4.3-38,7.1-38,7.1s0,0,0,0.1l0,0c0,0,0,0.1,0,0.1c0,0,0,0.1,0,0.1c0,0,0,0.1,0,0.1c0,0.1,0,0.1,0,0.2
		c0,0,0,0,0,0.1c0,0.1,0,0.1,0,0.2c0,0,0,0.1,0,0.1c0,0.1,0,0.1,0,0.2c0,0.1,0,0.1,0,0.2c0,0.1,0,0.2,0,0.2c0,0.1,0,0.1,0,0.2
		c0,0.1,0,0.2,0,0.3c0,0,0,0.1,0,0.1c0,0.1,0,0.3,0,0.4c0,0,0,0.1,0,0.1c0,0.1,0,0.3,0,0.5c0,0,0,0.1,0,0.1c0,0.2,0,0.3,0,0.5
		c0,0,0,0.1,0,0.1c0,0.2,0,0.3,0,0.5c0,0,0,0.1,0,0.1c0,0.2,0,0.4,0,0.6c0,0.4,0,0.8,0,1.2c0,0.2,0,0.4,0,0.7c0,0.2,0,0.4,0,0.6
		c0,0.3,0,0.6,0,0.8c0,0.2,0,0.3,0,0.5c0,0.3,0,0.6,0,0.9c0,0.2,0,0.3,0,0.5c0,0.3,0,0.7,0,1c0,0.2,0,0.3,0,0.5c0,0.4,0,0.7,0,1.1
		c0,0.2,0,0.3,0,0.5c0,0.4,0,0.8,0,1.2c0,0.2,0,0.4,0,0.5c0,0.4,0,0.8,0,1.2c0,0.2,0,0.3,0,0.5c0,0.4,0,0.9,0,1.3c0,0.2,0,0.3,0,0.5
		c0,0.5,0,0.9,0,1.4c0,0.2,0,0.3,0,0.5c0,0.5,0,1,0,1.5c0,0.1,0,0.3,0,0.4c0,0.5,0,1.1,0,1.6c0,0.1,0,0.2,0,0.3c0,0.6,0,1.2,0.1,1.8
		c0,0,0,0,0,0c0.1,4,0.4,8.2,0.7,12.6c0,0.1,0,0.2,0,0.3c0.1,0.6,0.1,1.2,0.2,1.8c0,0.2,0,0.3,0,0.5c0.1,0.6,0.1,1.1,0.2,1.7
		c0,0.2,0,0.4,0.1,0.6c0.1,0.6,0.1,1.1,0.2,1.7c0,0.2,0,0.4,0.1,0.6c0.1,0.5,0.1,1.1,0.2,1.6c0,0.2,0.1,0.4,0.1,0.7
		c0.1,0.5,0.1,1.1,0.2,1.6c0,0.2,0.1,0.5,0.1,0.7c0.1,0.5,0.2,1.1,0.2,1.6c0,0.2,0.1,0.5,0.1,0.7c0.1,0.5,0.2,1.1,0.3,1.6
		c0,0.2,0.1,0.4,0.1,0.7c0.1,0.5,0.2,1.1,0.3,1.6c0,0.2,0.1,0.4,0.1,0.6c0.1,0.5,0.2,1.1,0.3,1.6c0,0.2,0.1,0.4,0.1,0.5
		c0.1,0.6,0.2,1.1,0.4,1.7c0,0.1,0,0.2,0.1,0.3c0.8,3.6,1.8,7.1,2.9,10.4c0.3,0.7,0.5,1.4,0.8,2.1l0,0c0.2,0.5,0.3,0.9,0.5,1.4
		c0.1,0.2,0.2,0.5,0.3,0.7c0.2,0.5,0.3,0.9,0.5,1.3c0.1,0.2,0.1,0.4,0.2,0.5c0.4,1,0.8,2,1.2,2.9c0,0,0,0,0,0.1
		c0.2,0.5,0.4,1,0.6,1.5c0.1,0.1,0.1,0.2,0.2,0.4c0.3,0.7,0.6,1.4,0.9,2c0.1,0.2,0.2,0.4,0.3,0.5c0.3,0.6,0.6,1.2,0.9,1.8
		c0,0,0,0.1,0.1,0.1l0,0c3.1,6.2,6.3,11.5,9.7,15.9l0,0c0,0.1,0.1,0.1,0.1,0.2c0,0,0.1,0.1,0.1,0.1l0,0
		c17.3,22.9,36.4,25.3,37.9,25.4V76.5v-55C96.7,21.5,91.6,27,73.8,32.7z M85,103.6c-1.4,0.1-2.8,0.3-4.1,0.3c-6.6,0-7.5-0.6-9.5-6.8
		c-1-3-1.9-6-2.3-9.4c5.5,5,10.9,10,16.4,15C85.3,103,85.1,103.3,85,103.6z"/>
	<path fill="#FFFFFF" d="M71.3,97.1c2,6.2,2.9,6.9,9.5,6.8c1.4,0,2.8-0.2,4.1-0.3c0.2-0.3,0.3-0.6,0.5-0.9c-5.5-5-10.9-10-16.4-15
		C69.4,91.1,70.3,94.1,71.3,97.1z"/>
	<path fill="#FFFFFF" d="M138.4,28.9c-3.1-0.8-6.2-1.7-9.3-2.7c-15.4-4.9-27.5-11.4-32.4-14.3l0,0l0,0v0
		c-4.9,2.8-17.1,9.4-32.4,14.3c-14.8,4.7-30.3,7.2-37.5,8.1c0.1,10.1,0.7,37.7,4.2,55.2c4.2,21.1,16,46.1,28.8,60.9
		c13.6,15.8,31.1,26.3,36.9,29.6l0,0c5.9-3.3,23.4-13.8,36.9-29.6c12.8-14.8,24.6-39.9,28.8-60.9c3.5-17.5,4.1-45,4.2-55.2
		C160.9,33.6,150,31.9,138.4,28.9z M150.3,102.2L150.3,102.2c-2,9.5-5.3,18-9,25.5c-3.8,7.6-7.9,14-11.7,19c0,0,0,0,0,0
		c-4.1,5.6-8.5,9.6-13,12.7c0,0,0,0-0.1,0c-0.5,0.3-1,0.7-1.5,1c-0.3,0.2-0.6,0.4-0.9,0.6c-0.1,0.1-0.2,0.1-0.3,0.2
		c-0.3,0.2-0.5,0.3-0.8,0.5c-0.1,0-0.1,0.1-0.2,0.1c-5.6,3.3-11.2,5.3-16.4,7.1c-1.5-0.1-20.6-2.5-37.9-25.4l0,0
		c0,0-0.1-0.1-0.1-0.1c0-0.1-0.1-0.1-0.1-0.2l0,0c-3.3-4.5-6.6-9.7-9.7-15.9l0,0c0,0,0-0.1-0.1-0.1c-0.3-0.6-0.6-1.2-0.9-1.8
		c-0.1-0.2-0.2-0.4-0.3-0.5c-0.3-0.7-0.6-1.3-0.9-2c-0.1-0.1-0.1-0.2-0.2-0.4c-0.2-0.5-0.4-1-0.6-1.5c0,0,0,0,0-0.1
		c-0.4-1-0.8-1.9-1.2-2.9c-0.1-0.2-0.1-0.4-0.2-0.5c-0.2-0.4-0.3-0.9-0.5-1.3c-0.1-0.2-0.2-0.5-0.3-0.7c-0.2-0.4-0.3-0.9-0.5-1.4
		l0,0c-0.3-0.7-0.5-1.4-0.8-2.1c-1.1-3.3-2.1-6.8-2.9-10.4c0-0.1,0-0.2-0.1-0.3c-0.1-0.6-0.2-1.1-0.4-1.7c0-0.2-0.1-0.4-0.1-0.5
		c-0.1-0.5-0.2-1.1-0.3-1.6c0-0.2-0.1-0.4-0.1-0.6c-0.1-0.5-0.2-1.1-0.3-1.6c0-0.2-0.1-0.4-0.1-0.7c-0.1-0.5-0.2-1.1-0.3-1.6
		c0-0.2-0.1-0.5-0.1-0.7c-0.1-0.5-0.2-1.1-0.2-1.6c0-0.2-0.1-0.5-0.1-0.7c-0.1-0.5-0.1-1.1-0.2-1.6c0-0.2-0.1-0.4-0.1-0.7
		c-0.1-0.5-0.1-1.1-0.2-1.6c0-0.2,0-0.4-0.1-0.6c-0.1-0.6-0.1-1.1-0.2-1.7c0-0.2,0-0.4-0.1-0.6c-0.1-0.6-0.1-1.1-0.2-1.7
		c0-0.2,0-0.3,0-0.5c-0.1-0.6-0.1-1.2-0.2-1.8c0-0.1,0-0.2,0-0.3c-0.4-4.3-0.6-8.6-0.7-12.6c0,0,0,0,0,0c0-0.6,0-1.2-0.1-1.8
		c0-0.1,0-0.2,0-0.3c0-0.5,0-1.1,0-1.6c0-0.1,0-0.3,0-0.4c0-0.5,0-1,0-1.5c0-0.2,0-0.3,0-0.5c0-0.5,0-0.9,0-1.4c0-0.2,0-0.3,0-0.5
		c0-0.4,0-0.9,0-1.3c0-0.2,0-0.4,0-0.5c0-0.4,0-0.8,0-1.2c0-0.2,0-0.4,0-0.5c0-0.4,0-0.8,0-1.2c0-0.2,0-0.4,0-0.5c0-0.4,0-0.7,0-1.1
		c0-0.2,0-0.3,0-0.5c0-0.3,0-0.7,0-1c0-0.2,0-0.3,0-0.5c0-0.3,0-0.6,0-0.9c0-0.2,0-0.4,0-0.5c0-0.3,0-0.6,0-0.8c0-0.2,0-0.4,0-0.6
		c0-0.2,0-0.5,0-0.7c0-0.4,0-0.8,0-1.2c0-0.2,0-0.4,0-0.6c0,0,0-0.1,0-0.1c0-0.2,0-0.4,0-0.5c0,0,0-0.1,0-0.1c0-0.2,0-0.3,0-0.5
		c0,0,0-0.1,0-0.1c0-0.2,0-0.3,0-0.5c0,0,0-0.1,0-0.1c0-0.1,0-0.3,0-0.4c0,0,0-0.1,0-0.1c0-0.1,0-0.2,0-0.3c0-0.1,0-0.1,0-0.2
		c0-0.1,0-0.2,0-0.2c0-0.1,0-0.1,0-0.2c0-0.1,0-0.2,0-0.2c0,0,0-0.1,0-0.1c0-0.1,0-0.1,0-0.2c0,0,0,0,0-0.1c0-0.1,0-0.1,0-0.2
		c0,0,0-0.1,0-0.1c0,0,0-0.1,0-0.1c0-0.1,0-0.1,0-0.1l0,0c0-0.1,0-0.1,0-0.1s24.5-2.8,38-7.1C91.6,27,96.7,21.5,96.7,21.5l9.7,27.9
		c0,0-1.9,3.2-4.3,4.6c-1.8,1-3.9,2.1-4.8,2.6c0.3,0.7,0.7,2.3,0.4,5.3c-0.2,2.6-0.6,4.6-1,5.8v2c0.6,1.8,1.8,5.6,2.5,8
		c0.5,1.7,0.9,3,1.1,3.8c0.2-0.1,0.4-0.2,0.6-0.1c0.2,0,0.5,0.1,0.7,0.2c0.4,0.2,0.8,0.4,1.2,0.5c0.1,0,0.2,0,0.3,0
		c0.2,0,0.4,0.1,0.6,0.1c0.2,0.1,0.4,0.1,0.7,0.2c0.5,0.2,1,0.4,1.5,0.4c0.3,0,0.5,0,0.7-0.1c0.1,0,0.3-0.1,0.4-0.1l0.3-0.1
		c0.5-0.2,0.9-0.4,1.4-0.7c0.5-0.2,0.9-0.5,1.3-0.8c0.2-0.1,0.4-0.3,0.6-0.4c0.1-0.1,0.2-0.1,0.3-0.2l0.1-0.1l0.2-0.1
		c0.5-0.3,0.8-0.6,1.2-1c0.4-0.4,0.8-0.7,1.1-1.1c1.5-1.5,3-3.1,4.4-4.7c1.4-1.6,2.9-3.2,4.3-4.8l2.1-2.5l0,3.3
		c0,2.1-0.1,4.2-0.2,6.2c0,1-0.1,2.1-0.2,3.1c0,0.5-0.1,1.1-0.2,1.6l-0.1,0.4l0,0.1l0,0.1l0,0.2c-0.1,0.2-0.1,0.5-0.2,0.8
		c-0.1,0.6-0.3,1-0.5,1.6l-0.5,1.5c-0.3,1-0.7,2-1.1,2.9c-0.5,1.4-1,2.7-1.6,4c0.5-0.3,1-0.5,1.5-0.8c0.7-0.4,1.5-0.9,2.2-1.4
		c0.7-0.5,1.4-1,2.1-1.5c1.4-1,2.8-2.1,4.2-3.1c1.3-1.1,3-2.2,3.7-3.2c1-1.2,1.9-2.6,2.7-4.1c1.6-3,3-6.2,4.3-9.5
		c1.3-3.3,2.4-6.6,3.5-9.9c0.5-1.7,1.1-3.4,1.6-5.1c0.5-1.7,1-3.4,1.4-5.1l1.2-4.4v0l0,0c3.3,3.3,5.2,8.2,6.1,14.3
		C155.9,69.7,153.9,85.2,150.3,102.2z"/>
	<path fill="#006C94" d="M97.2,56.6c0.9-0.4,3.1-1.5,4.8-2.6c2.4-1.4,4.3-4.6,4.3-4.6l-9.7-27.9v46.2c0.3-1.2,0.8-3.2,1-5.8
		C97.8,58.9,97.5,57.3,97.2,56.6z"/>
	<path fill="#006C94" d="M113.2,161.8c0.3-0.2,0.5-0.3,0.8-0.5c0.1-0.1,0.2-0.1,0.3-0.2c0.3-0.2,0.6-0.4,0.9-0.6
		c0.5-0.3,1-0.7,1.5-1c0,0,0,0,0.1,0c4.5-3.1,8.9-7.2,13-12.7c0,0,0,0,0,0c3.7-5,7.9-11.4,11.7-19c3.7-7.5,7-16.1,9-25.5l0,0
		c3.6-17,5.5-32.5,3.8-43.9c-0.9-6.1-2.8-11-6.1-14.3l0,0v0l-1.2,4.4c-0.4,1.7-0.9,3.4-1.4,5.1c-0.5,1.7-1,3.4-1.6,5.1
		c-1.1,3.4-2.2,6.7-3.5,9.9c-1.3,3.3-2.7,6.5-4.3,9.5c-0.8,1.5-1.7,2.9-2.7,4.1c-0.7,1-2.4,2.1-3.7,3.2c-1.4,1.1-2.8,2.1-4.2,3.1
		c-0.7,0.5-1.4,1-2.1,1.5c-0.7,0.5-1.5,0.9-2.2,1.4c-0.5,0.3-1,0.6-1.5,0.8c0.5-1.3,1.1-2.7,1.6-4c0.4-1,0.7-2,1.1-2.9l0.5-1.5
		c0.2-0.5,0.3-1,0.5-1.6c0.1-0.3,0.1-0.5,0.2-0.8l0-0.2l0-0.1l0-0.1l0.1-0.4c0.1-0.6,0.1-1.1,0.2-1.6c0.1-1.1,0.1-2.1,0.2-3.1
		c0.1-2.1,0.1-4.2,0.2-6.2l0-3.3l-2.1,2.5c-1.4,1.6-2.8,3.3-4.3,4.8c-1.4,1.6-2.9,3.2-4.4,4.7c-0.4,0.4-0.8,0.7-1.1,1.1
		c-0.4,0.3-0.7,0.6-1.2,1l-0.2,0.1l-0.1,0.1c-0.1,0.1-0.2,0.1-0.3,0.2c-0.2,0.1-0.4,0.3-0.6,0.4c-0.4,0.3-0.9,0.5-1.3,0.8
		c-0.5,0.2-0.9,0.5-1.4,0.7l-0.3,0.1c-0.1,0-0.2,0.1-0.4,0.1c-0.2,0.1-0.4,0.1-0.7,0.1c-0.5,0-1-0.2-1.5-0.4
		c-0.2-0.1-0.4-0.2-0.7-0.2c-0.2-0.1-0.4-0.1-0.6-0.1c-0.1,0-0.2,0-0.3,0c-0.4,0-0.8-0.3-1.2-0.5c-0.2-0.1-0.4-0.2-0.7-0.2
		c-0.2,0-0.4,0-0.6,0.1c-0.2-0.9-0.6-2.2-1.1-3.8c-0.7-2.4-1.9-6.1-2.5-8v99.2v0c5.2-1.8,10.8-3.8,16.4-7.1
		C113.1,161.8,113.2,161.8,113.2,161.8z"/>
</g>
</svg>
