<?xml version="1.0" encoding="utf-8"?>
<!-- Generator: Adobe Illustrator 25.0.0, SVG Export Plug-In . SVG Version: 6.00 Build 0)  -->
<svg version="1.1" id="Layer_1" xmlns="http://www.w3.org/2000/svg" xmlns:xlink="http://www.w3.org/1999/xlink" x="0px" y="0px"
	 viewBox="0 0 192 192" style="enable-background:new 0 0 192 192;" xml:space="preserve">
<style type="text/css">
	.st0{fill:#FFFFFF;}
	.st1{fill:#002554;stroke:#002554;stroke-miterlimit:10;}
	.st2{fill-rule:evenodd;clip-rule:evenodd;fill:#D2003C;}
	.st3{fill-rule:evenodd;clip-rule:evenodd;fill:#FFCC00;}
</style>
<g>
	<polygon class="st0" points="96.1,0 30.8,39.4 30.8,53.9 30.8,53.9 30.8,94.1 30.8,97.7 30.8,137.9 30.8,137.9 30.8,152.7 
		96.1,192 96.1,192 96.1,192 161.2,152.7 161.2,137.9 161.2,137.9 161.2,97.7 161.2,94.1 161.2,53.9 161.2,53.9 161.2,39.4 	"/>
	<polygon class="st1" points="96.1,2.2 32.8,40.5 32.8,55.1 32.8,55.2 32.8,94.2 32.8,97.6 32.8,136.6 32.8,136.7 32.8,151.6 
		96.1,189.8 96.1,189.8 96.1,189.8 159.2,151.6 159.2,136.7 159.2,136.6 159.2,97.6 159.2,94.2 159.2,55.2 159.2,55.1 159.2,40.5 
		159,40.4 	"/>
	<g>
		<path class="st0" d="M88.5,53.2c0.9,0,4.1,0.6,4.2,2.5c0.1,1.9-0.8,3.8-2.1,3.9c-1.3,0.1-2.9,0.1-3.8-0.4
			c-0.9-0.5-1.4-0.3-1.8-1.6c-0.4-1.3-1-0.7-0.3-2.6s-0.1-2.8,1.5-2.8"/>
		<path class="st0" d="M68.3,47.7c-0.3-0.1-4.1,0-4.1,0L62,50.8l3.1,11.4H79l3.9-2.9l0.4-0.2l0.3-0.1l-0.3-1.8c0,0,0-2.2-1.1-3.6
			c-1.1-1.4-3.3-2.8-5-2.5c-1.7,0.3-3.7,0.8-4.3,1.6c-0.7,0.9-0.7,0.7-0.9,0.6c-0.1-0.1-0.1-0.4,0-0.7
			C72.1,52.3,69.9,48.7,68.3,47.7z"/>
		<polygon class="st0" points="127.7,51.1 107.3,51.1 101.6,46.3 102.5,62.2 110.8,57.9 114.1,62.2 127.7,62.2 		"/>
		<path class="st2" d="M116.1,62.3c-1.8,0-3.2-0.5-4.1-1.4c-1.3-1.3-1.2-2.9-1.2-3.5v-5.9h3.9v5.8c0,0.1,0.1,1.5,1.5,1.5
			c0.4,0,0.7-0.1,0.9-0.3c0.4-0.4,0.4-1.1,0.4-1.1v-5.8h3.9v6c0,0.2,0.1,2-1.1,3.3C119.2,61.8,117.9,62.3,116.1,62.3z M77.8,62.1
			c-5.7,0-5.9-4.9-5.9-5.4c0-2.7,1.5-5.7,5.6-5.7c1.7,0,3,0.5,3.9,1.5c1.5,1.6,1.4,3.9,1.4,4v1.2h-7c0.2,0.8,0.9,1.4,1.9,1.4
			c1.1,0,1.6-1,1.6-1.1l0.2-0.3l0.3,0.1l2.9,1.4l-0.2,0.3C81.4,61.3,79.8,62.1,77.8,62.1z M79,55c-0.1-0.4-0.5-1.1-1.4-1.1
			S76.2,54.5,76,55H79z M88.2,62c-2.4,0-5-1.7-5-5.6c0-3.9,3-5.4,5-5.4c1.2,0,2.2,0.5,2.8,0.8v-7.1h3.8v17.1h-3.8v-0.8
			C90.6,61.5,89.6,62,88.2,62z M89.2,54.3c-0.2,0-1.8,0.2-1.8,2.2c0,1.9,1.2,2,1.8,2c0.1,0,2.1,0,2.1-2.1
			C91.2,54.5,89.4,54.3,89.2,54.3z M127.5,61.8V44.7h3.8v17.1H127.5z M122.3,61.8V44.7h3.8v17.1H122.3z M98.3,61.8V45.3h5.8
			c3.5,0,5.1,2.2,5.1,4.4c0,1.5-0.7,2.5-1.2,3.1c1.5,0.7,2.4,1.8,2.4,4.3c0,4.6-5.1,4.8-5.2,4.8l0,0L98.3,61.8L98.3,61.8z
			 M104.8,58.3c0.2,0,1.7-0.3,1.7-1.7c0-1.6-1.4-1.7-1.7-1.7h-2.2v-3.5h1.4h0c0,0,0,0,0.1,0c0.5,0,1.2-0.2,1.2-1.3
			c0-1.2-1-1.3-1.6-1.3c-0.1,0-0.1,0-0.1,0h0h-1.2v9.5L104.8,58.3L104.8,58.3z M68.4,61.8L65,56.4v-4.2h1.2c0.3,0,1.7-0.1,1.7-1.7
			c0-1.6-1.5-1.7-2-1.7h-1.2v13h-4V45H65c4.7,0,6.9,1.8,6.9,5.5c0,3.3-2.3,4.3-3.5,4.6l4.6,6.7L68.4,61.8L68.4,61.8z"/>
		<path class="st0" d="M130.8,45.1v16.3h-3V45.1H130.8 M125.7,45.1v16.3h-3.1V45.1H125.7 M94.6,45.1v16.3h-3.1v-1.2
			c0,0-1.2,1.4-3.3,1.4c-2.1,0-4.6-1.4-4.6-5.2c0-3.8,2.9-5,4.6-5c1.7,0,3.2,1.2,3.2,1.2v-7.4L94.6,45.1 M89.1,58.9L89.1,58.9
			c0.2,0,2.5-0.1,2.5-2.5c0-2.4-2.4-2.5-2.4-2.5S87,54.1,87,56.5C87,58.9,88.9,58.9,89.1,58.9 M65.1,45.4c3.7,0,6.5,1.1,6.5,5.1
			s-3.7,4.4-3.7,4.4l4.5,6.5h-3.8l-3.2-5.1v-3.7h0.8l0,0c0.2,0,2.1-0.1,2.1-2.1c0-2-2-2-2.3-2c0,0-0.1,0-0.1,0h-1.5v13h-3.2v-16
			C61.1,45.4,61.3,45.4,65.1,45.4 M104.1,45.7c3.2,0,4.8,1.9,4.8,4s-1.4,3.2-1.4,3.2c1.7,0.7,2.7,1.6,2.7,4.1c0,4.3-4.8,4.4-4.8,4.4
			h-6.7V45.7C98.7,45.7,100.9,45.7,104.1,45.7 M101.9,58.7h2.9c0,0,2.1-0.3,2.1-2.1c0-1.8-1.6-2-2.1-2c-0.5,0-1.9,0-1.9,0v-2.8h1
			c0,0,0,0,0.1,0c0.4,0,1.6-0.1,1.6-1.7c0-1.6-1.5-1.7-2-1.7c-0.1,0-0.1,0-0.1,0H102L101.9,58.7 M77.6,51.3c5.2,0,5,5,5,5v0.8h-7
			c0,1.2,1,2.1,2.3,2.1c1.3,0,2-1.3,2-1.3l2.5,1.2c-1.2,1.7-2.7,2.4-4.4,2.4c-5.4,0-5.5-4.5-5.5-5C72.3,56.1,72.4,51.3,77.6,51.3
			 M75.6,55.3h3.9c0,0-0.2-1.8-1.9-1.8C75.8,53.5,75.6,55.3,75.6,55.3 M114.1,51.9v5.5c0,0,0.1,1.8,1.8,1.8s1.7-1.8,1.7-1.8v-5.5
			h3.1v5.7c0,0,0.4,4.4-4.8,4.4c-5.2,0-5-3.9-5-4.6s0-5.5,0-5.5H114.1 M131.6,44.3h-0.7h-3h-0.7v0.7v16.3v0.7h0.7h3h0.7v-0.7V45.1
			V44.3L131.6,44.3z M126.4,44.3h-0.7h-3.1h-0.7v0.7v16.3v0.7h0.7h3.1h0.7v-0.7V45.1L126.4,44.3L126.4,44.3z M95.3,44.3h-0.7h-3.1
			h-0.7v0.7v6.1c-0.7-0.3-1.5-0.6-2.5-0.6c-1.8,0-4.5,1.1-5.2,4.1c-0.2-0.8-0.6-1.8-1.4-2.6c-1-1-2.4-1.6-4.2-1.6
			c-4.4,0-6,3.3-6,6.1c0,2.7,1.6,5.8,6.3,5.8c2.1,0,3.8-0.9,5.1-2.8l0.5-0.7l-0.7-0.4l-1.4-0.7h1.4H83c0.6,3,2.9,4.4,5.2,4.4
			c1.1,0,1.9-0.3,2.5-0.6v0.5h0.7h3.1h0.7v-0.7V45.1L95.3,44.3L95.3,44.3z M76.7,54.6c0.2-0.2,0.4-0.3,0.8-0.3
			c0.4,0,0.6,0.1,0.8,0.3H76.7L76.7,54.6z M89.1,58.2c-0.6,0-1.4-0.3-1.4-1.7c0-1.6,1.2-1.8,1.4-1.8c0.3,0,1.7,0.2,1.7,1.7
			C90.9,58.1,89.4,58.2,89.1,58.2L89.1,58.2L89.1,58.2z M76.5,57.9H79c-0.2,0.3-0.6,0.7-1.2,0.7C77.2,58.6,76.8,58.3,76.5,57.9
			L76.5,57.9z M65.1,44.7h-3.9h-0.7v0.7v16v0.7h0.7h3.2h0.7v-0.7v-4.1l2.9,4.6l0.2,0.3h0.4h3.8h1.4L73.1,61l-3.9-5.6
			c1.5-0.5,3.2-1.9,3.2-4.8c0-2.1-0.7-3.7-2.2-4.7C69,45,67.3,44.7,65.1,44.7L65.1,44.7z M65.1,49.2h0.8h0h0h0
			c0.6,0,1.6,0.2,1.6,1.3c0,1.2-1,1.4-1.4,1.4h0l0,0h-0.8h-0.3V49.2L65.1,49.2z M104.1,45h-5.4h-0.7v0.7v15.7v0.7h0.7h6.7
			c0.1,0,1.4,0,2.7-0.6c0.9-0.4,1.9-1.2,2.4-2.4c0.2,0.8,0.6,1.5,1.2,2.1c1,1,2.5,1.5,4.4,1.5c1.9,0,3.3-0.5,4.3-1.6
			c1.3-1.4,1.2-3.3,1.2-3.6v-5.6v-0.8h-0.7h-3.1h-0.7v0.8v5.4c0,0.3-0.1,1.1-1,1.1c-0.9,0-1.1-0.8-1.1-1.1v-5.4v-0.7h-0.7H111h-0.7
			v0.7v2.4c-0.4-0.8-1-1.3-1.6-1.6c0.5-0.6,1-1.6,1-2.9C109.6,47.4,107.9,45,104.1,45L104.1,45z M102.7,49.2h0.8h0h0c0,0,0,0,0.1,0
			c0.8,0,1.2,0.3,1.2,1c0,0.3,0,0.9-0.8,0.9c0,0,0,0,0,0h0h0h-1h-0.3L102.7,49.2L102.7,49.2z M102.7,55.3h0.3h1.9
			c0.3,0,1.3,0.1,1.3,1.3c0,1-1.2,1.3-1.4,1.3h-2.1L102.7,55.3L102.7,55.3z"/>
		<rect x="125.9" y="44.3" class="st0" width="1.6" height="8.1"/>
	</g>
	<g>
		<g>
			<path class="st0" d="M66.7,71.3H42.2v12.6v19l0,0v43.2l47.6,28.8v-72l0,0V84V71.3H77.2L66.7,71.3L66.7,71.3z M77.2,102.9
				L77.2,102.9v49.6l-22.4-13.5v-36l0,0v-19h22.4V102.9z"/>
			<polygon class="st0" points="125.3,71.3 114.8,71.3 102.2,71.3 102.2,83.9 102.2,102.9 102.2,102.9 102.2,174.9 149.8,146.1 
				149.8,111.4 137.2,111.4 137.2,111.4 126,111.4 126,124 137.2,124 137.2,138.9 114.8,152.5 114.8,102.9 114.8,102.9 114.8,83.9 
				137.2,83.9 137.2,98.8 149.8,98.8 149.8,83.9 149.8,71.3 			"/>
		</g>
	</g>
	<g>
		<path class="st3" d="M107.3,30.4c0,6.3-5.1,11.3-11.3,11.3c-6.3,0-11.3-5.1-11.3-11.3S89.7,19.1,96,19.1
			C102.2,19.1,107.3,24.2,107.3,30.4z"/>
		<g>
			<g>
				<path class="st0" d="M95.6,35.8c-0.2-0.1-0.7-0.3-0.9-0.6c-0.1-0.2-0.3-0.8-1-1.4c0-0.3-0.1-0.9-0.4-1.3
					c-0.1-0.2-0.2-0.8-0.2-0.9c-0.1-0.3-0.2-0.7-0.2-0.8c0-0.2,0-1.2-0.6-2c-0.1-0.2-0.5-0.9-1.1-1.4c-0.1-0.1-0.5-0.6-0.8-1
					c-0.1-0.1-0.6-0.7-1.6-1.3c0,0-0.4-0.3-0.7-0.6c0,0-0.1-0.1-0.1-0.1c0,0-1.1-0.7-2.2-0.7c-0.5,0-1.1,0.2-1.5,0.5
					c-0.2,0.2-0.9,0.6-1.4,0.7c-0.3,0-1.8,0.3-2.5,1.4c0,0-0.1,0.1-0.3,0.1c-0.3,0-1.7,0-2.7,1.3c-0.1,0.1-0.4,0.3-1,0.4
					c-0.3,0-1.8,0-2.8,1.2c-0.4,0.3-1.5,1.1-2.4,1.1c-0.3,0-0.6-0.1-0.9-0.3c-0.1-0.1-0.4-0.5,0.1-1.4c0.1-0.1,0.6-0.7,1.4-1.3
					c0.4-0.3,1-1,0.6-2c-0.1-0.2-0.4-1.1-1.8-1.2c-0.4-0.1-1.3-0.4-1.7-0.8c-0.1-0.1-0.3-0.2-0.5-0.2c-0.2,0-0.3,0.2-0.4,0.3
					c0,0.1-0.3,1.2,0.3,2.1c0.4,0.5,1.1,0.8,2,0.8c-0.1,0.1-0.3,0.2-0.4,0.3h0c0,0-1,0.4-1.4,1.8c-0.3,0.8-0.5,2.6,1.4,3.4
					c0.5,0.2,1.2,0.2,2,0.1c0,0.5,0.1,1.1,0.4,1.7c0,0,0,0,0,0.1c0,0.1,0.1,0.1,0.1,0.2l-0.7,0.4c0,0-0.1,0-0.1,0
					c-0.1,0-0.2,0-0.3,0c-0.4,0-0.6,0.2-0.7,0.3c0,0-0.1,0.1-0.1,0.1c0,0-0.1,0.4-0.3,0.7v0c-0.1,0.1-0.2,0.4-0.4,0.6
					c0-0.1,0-0.1,0-0.1c-0.1-0.1-0.2-0.3-0.5-0.4c-0.3-0.1-0.6,0-0.8,0.2c-0.2,0.1-0.4,0.3-0.4,0.3c-0.2,0.1-0.4,0.3-0.5,0.5v0
					c-0.2,0-0.3,0.1-0.4,0.2c-0.3,0.3-0.3,0.7-0.3,0.8c0,0.1-0.1,0.2-0.1,0.2l0,0c0,0,0,0,0,0c-0.2,0.3-0.2,0.5-0.1,0.6
					c0,0,0,0.1,0,0.1c0.1,0.2,0.2,0.6,1,0.6c0.2,0,0.3,0,0.3,0c0.1,0,0.1,0,0.1-0.1c0.1,0.1,0.2,0.1,0.3,0.1c0,0,0.1,0,0.2,0
					c0.1,0,0.2,0,0.2,0c0,0,0.2,0.1,0.4,0.1c0.5,0,0.8-0.2,1-0.6c0.1-0.2,0.3-0.4,0.4-0.5c0.1,0,0.3,0.1,0.5,0.1
					c0.5,0,0.9-0.2,1.3-0.5c0,0,0.5-0.5,1.2-0.5c0.1,0,0.1,0,0.2,0c0,0,0.5,0.1,1,0.1c0.4,0,0.7-0.1,0.9-0.2
					c0.3-0.1,0.8-0.4,0.9-0.4c0.2-0.1,0.6-0.3,0.7-0.8c0.1-0.2,0.2-0.5,0.3-0.5c0.1-0.1,0.1-0.3,0.1-0.5c0.2,0.1,0.5,0.1,0.8,0h0
					c0,0,0.5-0.1,1-0.1c0.1,0,0.3,0,0.4,0c0.1,0,0.9,0.2,1.7,0.2c0.2,0,0.4,0,0.6,0c0.1,0,0.2-0.1,0.3-0.1c0.3,0.3,0.6,0.6,1,0.7
					c0,0,0.5,0.2,0.6,0.8c-0.2,0.1-0.5,0.2-1,0.4h0c-0.2-0.5-0.8-1.5-1.5-1.5h-0.1l-1,0.1c0,0-0.1,0-0.1,0c-0.2,0.1-0.4,0.2-0.5,0.5
					c0,0.1-0.1,0.4,0.2,0.7c0.1,0.1,0.3,0.4,0.4,0.6c0.1,0.3,0.3,0.5,0.7,0.5c0.1,0,0.1,0,0.1,0c0,0,0,0,0,0c0,0,0.1,0.1,0.1,0.3
					c0,0,0,0.1,0,0.1c0,0.1,0.3,0.6,0.9,0.7c0,0,0.2,0.1,0.4,0.1s0.4-0.1,0.6-0.1c0.5-0.2,1.6-0.6,1.9-0.8c0,0,0.1-0.1,0.2-0.1
					c0,0,0,0,0.1,0c0,0,0.1,0,0.3,0c0.4,0,0.7-0.2,1-0.5l0.4-0.6c0,0.2,0.1,0.4,0.2,0.6c0.1,0.1,0.3,0.3,0.7,0.3c0.1,0,0.1,0,0.2,0
					h0c0.1,0,0.2,0,0.6-0.1c0.1,0,0.5-0.1,0.6-0.2c0.2-0.1,0.5-0.2,0.7-0.2l0,0c0,0,0.1,0,0.1,0s0.1,0,0.3,0h0c0,0,0.1,0,0.2,0
					c0.3,0,0.9-0.1,1.4-0.5c0.3,0.3,1,1,2.1,1c0.2,0,0.4,0,0.6-0.1c0.2-0.1,0.4-0.2,0.4-0.4c0-0.1,0-0.2-0.1-0.3
					c0.1,0,0.3,0,0.5-0.1c0.2-0.1,0.3-0.3,0.3-0.5C95.9,36.1,95.8,35.9,95.6,35.8z M69.1,25.2C69,25,69,24.9,69,24.8
					c0.7,0.3,1.4,0.5,1.5,0.5c0,0,0.1,0,0.1,0c0.7,0,0.8,0.4,0.9,0.5c0,0,0,0.1,0,0.1c0.1,0.2,0.1,0.4,0,0.5c0-0.1-0.1-0.2-0.1-0.3
					c-0.2-0.4-0.7-0.5-0.8-0.5c0,0-0.1,0-0.1,0l0,0h-0.1C69.8,25.6,69.4,25.4,69.1,25.2z M70.3,37.1c0,0.1-0.1,0.1-0.1,0.2
					c-0.4,0.2-0.8,0.7-0.9,1c0,0,0,0.1-0.1,0.1c-0.1,0-0.1,0-0.1,0l0,0c-0.1,0-0.1,0-0.2-0.1c0-0.1,0.1-0.1,0.1-0.2
					c0.3-0.1,0.5-0.3,0.7-0.5c0,0,0-0.1,0-0.1c0-0.1,0.2-0.2,0.2-0.2c0,0,0.1,0,0.1,0C70.1,37.3,70.3,37.1,70.3,37.1
					C70.3,37.1,70.3,37.1,70.3,37.1z M81.3,36.6c0,0-0.1,0-0.1,0c-0.1-0.1-0.1-0.2-0.2-0.3l0.4,0c0.1,0.1,0.2,0.2,0.4,0.4
					C81.7,36.7,81.5,36.6,81.3,36.6z M82.7,37.8c-0.1,0-0.1-0.1-0.2-0.1c0.1,0.1,0.3,0.1,0.4,0.1C82.8,37.9,82.7,37.8,82.7,37.8z
					 M87.8,34.2c-0.1,0.1-0.5,0.4-0.7,0.8c0,0,0,0,0,0c0,0,0-0.1,0-0.1l-0.3-0.6c0.3,0,0.5,0,0.7-0.1C87.6,34.2,87.7,34.1,87.8,34.2
					C87.8,34.1,87.8,34.2,87.8,34.2z M92.2,35c0.3,0.3,0.4,0.6,0.5,0.8c-0.1-0.1-0.3-0.2-0.5-0.2c-0.3,0-0.5,0.2-0.6,0.2
					c0,0,0,0-0.1,0.1c-0.2,0.2-0.4,0.3-0.6,0.3c0.1-0.1,0.2-0.1,0.3-0.3c0.1-0.1,0.2-0.4,0.1-0.8c-0.1-0.3-0.3-0.5-0.7-0.5
					c-0.2,0-0.4,0.1-0.6,0.2c-0.1,0-0.5,0.3-0.6,0.8c0,0,0,0,0,0.1c0,0.2,0,0.4,0.1,0.5c0,0,0.1,0.1,0.1,0.1
					c-0.2,0.1-0.4,0.1-0.5,0.1c-0.1,0-0.4,0.1-0.6,0.2h0c-0.1,0-0.2,0.1-0.2,0.1c-0.1,0-0.1,0-0.2,0c0-0.1,0-0.1-0.1-0.2
					c0-0.1,0.1-0.2,0.2-0.3c0,0,0,0,0,0c0.1-0.1,0.3-0.3,0.2-0.6c0-0.1-0.1-0.1-0.1-0.2l0,0c-0.1-0.1-0.1-0.1-0.2-0.2
					c0.1-0.1,0.1-0.1,0.1-0.1c0.3-0.3,0.4-0.6,0.4-0.7c0-0.1,0.1-0.3,0.2-0.4c0.2-0.3,0.1-0.5,0.1-0.6c-0.1-0.2-0.3-0.3-0.5-0.3
					c-0.1,0-0.2,0-0.2,0c-0.1,0-0.6,0.1-1.1,0.2c-0.1,0-0.1,0-0.2,0.1c0.5-1.2,0-2.1,0-2.2c-0.1-0.2-0.3-0.3-0.5-0.3
					c-0.2,0.1-0.4,0.3-0.4,0.5c0,0.3-0.2,0.9-0.3,1.2v0c-0.1,0.4-0.3,0.5-0.3,0.5c0,0-0.1,0-0.1,0c-0.1,0-0.4,0.1-0.7,0.2
					c0,0-0.1,0-0.1,0c-0.3,0.1-0.4,0.3-0.5,0.5c-0.1,0.3,0,0.5,0.1,0.6c0,0,0,0.1,0.1,0.1c0,0,0.1,0.1,0.1,0.2
					c0.1,0.3,0.5,0.9,0.6,1.1c0,0.1,0.1,0.1,0.1,0.1v0c0,0,0,0.1,0,0.1c0,0.1-0.1,0.4-0.2,0.6c0,0,0,0.1,0,0.1c0,0,0,0,0-0.1
					c0-1.5-1.2-2-1.2-2c-0.8-0.3-1.1-1.3-1.1-1.3c0-0.1-0.1-0.1-0.1-0.1C82.4,33,82.2,33,82.1,33c-0.3,0-0.5,0.2-0.7,0.5
					c0,0.1,0,0.1,0,0.1c0,0.2,0,0.3,0,0.5c-0.7,0-1.3-0.2-1.3-0.2h0c-0.2,0-0.4-0.1-0.6-0.1c-0.6,0-1.1,0.1-1.2,0.1
					c-0.1,0-0.1,0-0.2,0c-0.2,0-0.4-0.1-0.4-0.1l0,0c0,0,0,0,0,0c-0.1-0.1-0.1-0.9-0.1-1.6v0c0-0.3,0-0.5-0.2-0.6
					c-0.1-0.1-0.3-0.2-0.4-0.2c-0.1,0-0.1,0-0.2,0c-0.1,0-0.1,0.1-0.2,0.1c-0.5,0.5-0.5,1.7-0.5,2.3c-0.7,1.4-2.1,1.5-2.4,1.5
					c-0.1,0-0.2,0-0.3,0c-0.3,0-0.7,0.1-0.7,0.1c-0.9,0.2-1.5,0.6-1.9,1C70.9,36.2,71,36,71,36c0.1-0.2,0.2-0.4,0.3-0.6
					c0.1,0,0.1,0,0.1,0c0,0,0.1,0,0.1,0c0.1,0,0.1,0,0.2,0c0.3,0,0.5-0.1,0.6-0.1l0.7-0.4c0,0,0.1,0,0.1-0.1
					c0.5-0.4,0.4-1.1,0.1-1.5c-0.4-0.8-0.3-1.8-0.3-1.8c0-0.1,0-0.3-0.1-0.4c-0.1-0.1-0.1-0.1-0.2-0.1c0.9-0.4,1.6-1,1.6-1
					c0,0,0,0,0.1-0.1c0.6-0.7,1.6-0.8,1.9-0.8c0.1,0,0.1,0,0.1,0c0,0,0.1,0,0.1,0c1.1-0.1,1.6-0.6,1.7-0.7c0,0,0,0,0.1-0.1
					c0.7-0.9,1.5-1,1.8-1c0.1,0,0.1,0,0.1,0c0,0,0.1,0,0.1,0c0.7-0.1,1-0.3,1.1-0.5c0.5-0.8,1.8-1,1.8-1c0,0,0,0,0.1,0
					c0.8-0.2,1.8-0.8,1.8-0.9l0,0c0.3-0.2,0.5-0.3,0.9-0.3c0.7,0,1.4,0.4,1.6,0.5c0.4,0.4,0.8,0.7,0.8,0.7c1,0.7,1.4,1.2,1.4,1.2
					l0,0c0.3,0.3,0.8,0.9,0.8,0.9c0,0,0,0.1,0.1,0.1c0.5,0.5,0.9,1.2,0.9,1.2c0,0,0,0.1,0.1,0.1c0.5,0.5,0.4,1.3,0.4,1.3v0
					c0,0.2,0.1,0.6,0.2,0.9c-0.2-0.3-0.5-0.6-0.5-0.7c0,0,0-0.1-0.1-0.1c-0.1-0.1-0.3-0.3-0.6-0.3c-0.1,0-0.5,0.1-0.7,0.4
					c0,0-0.1,0.1-0.1,0.1c0,0,0,0.1,0,0.1c0,0-0.3,0.6-0.4,0.7c-0.1,0.1-0.1,0.3-0.1,0.5c0,0.2,0.2,0.4,0.4,0.5
					c0.1,0,0.5,0.1,0.9-0.3c0.1,0.1,0.2,0.2,0.2,0.2c0,0.1,0.1,0.2,0.1,0.6c0,0.1,0.1,0.3,0.2,0.4c0.1,0.1,0.3,0.1,0.4,0.1
					c0,0,0.7-0.1,0.8-1l0,0c0.2,0.2,0.3,0.6,0.3,0.9c-0.1,0-0.2,0-0.3,0.1c-0.2,0.1-0.3,0.2-0.3,0.4C92,34.6,92.1,34.9,92.2,35z"/>
				<path class="st0" d="M86.4,26.7c-0.1,0-0.4,0.1-0.6,0.3c0,0,0,0,0,0c-0.2,0.4-0.1,0.7,0,0.9c0,0,0,0.1,0.1,0.1s0.4,0.5,0.4,1.5
					c0,0.2,0.2,0.4,0.4,0.5c0,0,0.1,0,0.1,0c0.2,0,0.4-0.1,0.5-0.3c0-0.1,0.5-1.5-0.2-2.6C86.9,26.9,86.7,26.7,86.4,26.7z"/>
				<path class="st0" d="M125.3,38c0,0-0.1-0.1-0.1-0.2c0-0.2,0-0.6-0.3-0.8c-0.1-0.1-0.3-0.2-0.4-0.2v0c-0.1-0.3-0.3-0.5-0.5-0.5
					c-0.1,0-0.3-0.2-0.4-0.3c-0.2-0.1-0.4-0.2-0.6-0.2c-0.1,0-0.1,0-0.2,0c-0.3,0.1-0.5,0.3-0.5,0.4c0,0.1,0,0.1,0,0.1
					c-0.2-0.2-0.3-0.5-0.4-0.6v0c-0.1-0.3-0.3-0.7-0.3-0.7c0-0.1,0-0.1-0.1-0.1c-0.1-0.1-0.3-0.3-0.7-0.3c-0.1,0-0.3,0-0.3,0
					c-0.1,0-0.1,0-0.1,0l-0.7-0.4c0-0.1,0-0.1,0.1-0.2c0,0,0,0,0-0.1c0.3-0.6,0.4-1.3,0.4-1.7c0.8,0.1,1.4,0.1,2-0.2
					c1.8-0.7,1.7-2.5,1.4-3.4c-0.4-1.3-1.4-1.7-1.4-1.8h0c-0.1-0.1-0.3-0.2-0.4-0.3c0.9,0,1.6-0.3,2-0.8c0.6-0.9,0.3-2,0.3-2.1
					c-0.1-0.2-0.2-0.3-0.4-0.3s-0.4,0-0.5,0.2c-0.4,0.5-1.3,0.7-1.7,0.8c-1.3,0.1-1.7,0.9-1.8,1.2c-0.4,1,0.2,1.7,0.6,2
					c0.8,0.6,1.3,1.2,1.4,1.3c0.6,0.9,0.2,1.3,0.2,1.4c-0.2,0.2-0.5,0.3-0.9,0.3c-1,0-2.2-1-2.4-1.1c-1-1.2-2.5-1.2-2.8-1.2
					c-0.6-0.1-1-0.3-1-0.4c-1-1.4-2.4-1.4-2.7-1.4c-0.2,0-0.3-0.1-0.3-0.1c-0.7-1.2-2.2-1.4-2.5-1.4c-0.6-0.2-1.4-0.6-1.4-0.7
					c-0.4-0.3-0.9-0.5-1.5-0.5c-1.2,0-2.2,0.7-2.2,0.7c0,0-0.1,0-0.1,0.1c-0.3,0.3-0.7,0.6-0.7,0.6c-1,0.7-1.5,1.2-1.6,1.3
					c-0.3,0.3-0.7,0.8-0.8,1c-0.6,0.5-1,1.2-1.1,1.4c-0.6,0.8-0.6,1.8-0.6,2c0,0.1-0.1,0.5-0.2,0.8c0,0.1-0.2,0.7-0.2,0.9
					c-0.3,0.4-0.4,1-0.4,1.3c-0.6,0.5-0.9,1.2-1,1.4c-0.2,0.3-0.7,0.6-0.9,0.6c-0.2,0.1-0.3,0.3-0.3,0.5s0.1,0.4,0.3,0.5
					c0.1,0.1,0.3,0.1,0.5,0.1c-0.1,0.1-0.1,0.2-0.1,0.3c0,0.2,0.2,0.4,0.4,0.4c0.2,0,0.4,0.1,0.6,0.1c1.1,0,1.8-0.6,2.1-1
					c0.5,0.4,1.1,0.5,1.4,0.5c0.1,0,0.2,0,0.2,0h0c0.1,0,0.3,0,0.3,0c0,0,0.1,0,0.1,0c0.1,0,0.5,0.1,0.7,0.2
					c0.1,0.1,0.5,0.2,0.6,0.2c0.3,0.1,0.5,0.1,0.6,0.1h0c0.1,0,0.1,0,0.2,0c0.4,0,0.6-0.3,0.7-0.3c0.1-0.1,0.2-0.4,0.2-0.6l0.4,0.6
					c0.2,0.3,0.5,0.5,1,0.5c0.1,0,0.3,0,0.3,0c0,0,0,0,0.1,0c0.1,0,0.1,0,0.2,0.1c0.3,0.2,1.4,0.6,1.9,0.8c0.2,0.1,0.4,0.1,0.6,0.1
					c0.2,0,0.4-0.1,0.4-0.1c0.5-0.2,0.8-0.7,0.9-0.7c0,0,0-0.1,0-0.1c0-0.1,0.1-0.2,0.1-0.3c0,0,0,0,0,0c0.1,0,0.1,0,0.1,0
					c0.4,0,0.6-0.2,0.7-0.5c0.1-0.2,0.3-0.5,0.4-0.6c0.2-0.3,0.2-0.5,0.2-0.7c-0.1-0.3-0.3-0.4-0.5-0.5c0,0-0.1,0-0.1,0l-1-0.1h-0.1
					c-0.7,0-1.3,1-1.5,1.5c0,0,0,0,0,0c-0.5-0.2-0.8-0.3-1-0.4c0.1-0.6,0.5-0.7,0.6-0.8c0.4-0.2,0.8-0.4,1-0.7
					c0.1,0.1,0.1,0.1,0.3,0.1c0.2,0,0.4,0,0.6,0c0.8,0,1.6-0.2,1.7-0.2c0.1,0,0.3,0,0.4,0c0.5,0,1,0.1,1,0.1h0c0.3,0.1,0.6,0,0.8,0
					c0,0.1,0,0.3,0.1,0.5c0.1,0.1,0.2,0.3,0.3,0.5c0.1,0.5,0.5,0.7,0.7,0.8c0.2,0.1,0.7,0.3,1,0.4c0.2,0.1,0.5,0.2,0.9,0.2
					c0.5,0,1-0.1,1-0.1c0.1,0,0.1,0,0.2,0c0.7,0,1.2,0.5,1.2,0.5c0.3,0.3,0.7,0.5,1.2,0.5c0.2,0,0.4,0,0.5-0.1
					c0.1,0.1,0.3,0.3,0.4,0.5c0.2,0.4,0.6,0.6,1,0.6c0.2,0,0.4-0.1,0.5-0.1c0,0,0.1,0,0.2,0c0.1,0,0.2,0,0.2,0c0.1,0,0.2,0,0.3-0.1
					c0.1,0,0.1,0,0.1,0.1c0,0,0.2,0,0.3,0c0.7,0,0.9-0.4,1-0.6c0,0,0,0,0-0.1C125.4,38.5,125.4,38.3,125.3,38z M121.6,25.6
					C121.5,25.6,121.5,25.6,121.6,25.6c-0.2,0-0.7,0.1-0.9,0.5c-0.1,0.1-0.1,0.2-0.1,0.3c-0.1-0.1-0.1-0.3,0-0.5c0,0,0,0,0-0.1
					c0-0.1,0.2-0.5,0.9-0.5c0,0,0.1,0,0.1,0c0.1,0,0.8-0.2,1.5-0.5c0,0.1-0.1,0.3-0.2,0.3C122.6,25.4,122.2,25.6,121.6,25.6
					L121.6,25.6z M110.5,36.4l0.4,0c-0.1,0.1-0.1,0.2-0.2,0.3c-0.1,0-0.3,0-0.6,0.1C110.3,36.6,110.4,36.4,110.5,36.4z M109.5,37.7
					c-0.1,0.1-0.1,0.1-0.2,0.1c0,0-0.1,0-0.2,0C109.2,37.8,109.4,37.8,109.5,37.7z M104.9,34.9C104.9,34.9,104.9,34.9,104.9,34.9
					L104.9,34.9c-0.2-0.3-0.6-0.6-0.7-0.7c0,0,0-0.1,0-0.1c0.1,0,0.2,0,0.3,0.1c0.2,0.1,0.5,0.1,0.7,0.1L104.9,34.9z M119.2,35.5
					c0,0-0.3-0.1-0.7-0.1c-0.1,0-0.2,0-0.3,0c-0.2,0-1.6-0.1-2.4-1.5c0-0.6,0-1.8-0.5-2.3c-0.1-0.1-0.1-0.1-0.2-0.1
					c-0.1,0-0.1,0-0.2,0c-0.2,0-0.3,0.1-0.4,0.2c-0.1,0.1-0.2,0.4-0.2,0.6v0c0.1,0.7,0.1,1.4,0,1.6c0,0,0,0,0,0c0,0-0.1,0.1-0.4,0.1
					c-0.1,0-0.1,0-0.2,0c-0.1,0-0.7-0.1-1.2-0.1c-0.2,0-0.4,0-0.6,0.1h0c0,0-0.6,0.1-1.3,0.2c0-0.1,0-0.3,0-0.5c0-0.1,0-0.1,0-0.1
					c-0.1-0.3-0.4-0.5-0.7-0.5c-0.1,0-0.3,0-0.5,0.3c0,0.1-0.1,0.1-0.1,0.1c0,0-0.3,1-1.1,1.3c-0.1,0-1.3,0.5-1.2,2c0,0,0,0.1,0,0.1
					c0,0,0-0.1-0.1-0.1c-0.1-0.2-0.2-0.5-0.2-0.6c0,0,0-0.1,0-0.1v0l0,0c0,0,0.1-0.1,0.1-0.1c0.1-0.3,0.5-0.8,0.6-1.1
					c0-0.1,0.1-0.2,0.1-0.2c0,0,0.1-0.1,0.1-0.1c0.1-0.1,0.2-0.4,0.1-0.6c0-0.1-0.1-0.3-0.5-0.5c0,0-0.1,0-0.1,0
					c-0.3-0.1-0.6-0.1-0.7-0.2c0,0-0.1,0-0.1,0c0,0-0.2-0.1-0.3-0.5v0c-0.1-0.2-0.3-0.8-0.3-1.2c0-0.2-0.1-0.4-0.4-0.5
					c-0.2-0.1-0.5,0.1-0.5,0.3c0,0.1-0.5,1,0,2.2c-0.1,0-0.1-0.1-0.2-0.1c-0.4-0.1-1-0.1-1.1-0.2c0,0-0.1,0-0.2,0
					c-0.2,0-0.4,0.1-0.5,0.3c-0.1,0.1-0.1,0.3,0.1,0.6c0.1,0.1,0.2,0.3,0.2,0.4c0,0.1,0.1,0.5,0.4,0.7c0.1,0,0.1,0.1,0.1,0.1
					c-0.1,0.1-0.2,0.1-0.2,0.2l0,0c-0.1,0.1-0.1,0.1-0.1,0.2c-0.1,0.3,0.1,0.5,0.2,0.6l0,0c0.1,0.1,0.1,0.2,0.2,0.3
					c0,0.1,0,0.1-0.1,0.2c-0.1,0-0.1,0-0.2,0c0,0-0.1,0-0.2-0.1h0c-0.2-0.1-0.5-0.1-0.6-0.2c-0.1,0-0.3-0.1-0.5-0.1
					c0.1,0,0.1-0.1,0.1-0.1c0.1-0.1,0.2-0.3,0.1-0.5c0,0,0,0,0-0.1c-0.1-0.5-0.5-0.8-0.6-0.8c-0.2-0.1-0.4-0.2-0.6-0.2
					c-0.4,0-0.6,0.3-0.7,0.5c-0.1,0.4,0.1,0.7,0.1,0.8c0.1,0.1,0.2,0.2,0.3,0.3c-0.2,0-0.4-0.1-0.6-0.3c0,0,0,0-0.1-0.1
					c-0.1-0.1-0.3-0.2-0.6-0.2c-0.2,0-0.4,0.1-0.5,0.2c0.1-0.2,0.2-0.5,0.5-0.8c0.1-0.1,0.2-0.4,0.1-0.7c-0.1-0.2-0.2-0.3-0.3-0.4
					c-0.1-0.1-0.2-0.1-0.3-0.1c0-0.3,0.1-0.7,0.3-0.9l0,0c0.1,0.8,0.7,1,0.8,1c0.1,0,0.3,0,0.4-0.1c0.1-0.1,0.2-0.2,0.2-0.4
					c0-0.4,0-0.6,0.1-0.6c0.1-0.1,0.1-0.1,0.2-0.2c0.4,0.4,0.7,0.4,0.9,0.3c0.2-0.1,0.4-0.3,0.4-0.5c0-0.2-0.1-0.4-0.1-0.5
					c-0.1-0.1-0.3-0.6-0.4-0.7c0-0.1-0.1-0.1-0.1-0.1c0-0.1,0-0.1-0.1-0.1c-0.2-0.4-0.5-0.4-0.7-0.4c-0.3,0-0.5,0.1-0.6,0.3
					c0,0,0,0.1-0.1,0.1c-0.1,0.1-0.3,0.4-0.5,0.7c0.1-0.3,0.2-0.7,0.2-0.9v0c0,0,0-0.7,0.4-1.3c0,0,0-0.1,0.1-0.1
					c0,0,0.4-0.7,0.9-1.2c0,0,0.1,0,0.1-0.1c0,0,0.5-0.6,0.8-0.9l0,0c0,0,0.5-0.5,1.4-1.2c0,0,0.5-0.3,0.8-0.7
					c0.2-0.1,0.9-0.5,1.6-0.5c0.3,0,0.6,0.1,0.9,0.3l0,0c0,0,1,0.7,1.8,0.9c0,0,0,0,0.1,0c0,0,1.3,0.2,1.8,1
					c0.1,0.2,0.4,0.5,1.1,0.5c0,0,0.1,0,0.1,0c0,0,0,0,0.1,0c0.3,0,1.2,0.1,1.8,1c0,0,0,0,0.1,0.1c0.1,0.1,0.6,0.6,1.7,0.7
					c0,0,0.1,0,0.1,0c0,0,0.1,0,0.1,0c0.4,0,1.3,0.1,1.9,0.8c0,0,0,0,0.1,0.1c0,0,0.7,0.6,1.6,1c-0.1,0-0.2,0.1-0.2,0.1
					c-0.1,0.1-0.2,0.3-0.1,0.4c0,0,0.1,1-0.3,1.8c-0.3,0.4-0.4,1.1,0.1,1.5c0,0,0.1,0,0.1,0.1l0.7,0.4c0.1,0.1,0.3,0.1,0.6,0.1
					c0.1,0,0.1,0,0.2,0c0,0,0.1,0,0.1,0c0,0,0.1,0,0.1,0c0.1,0.1,0.1,0.4,0.3,0.6c0,0.1,0.1,0.2,0.2,0.4
					C120.7,36.1,120.1,35.6,119.2,35.5z M123,38.3c0,0-0.1,0-0.1,0c-0.1,0-0.1,0-0.2-0.1c-0.1-0.3-0.5-0.7-0.9-1
					c0-0.1,0-0.1-0.1-0.2c0,0,0,0-0.1-0.1c0.1,0.1,0.3,0.2,0.4,0.3c0,0,0.1,0,0.1,0c0,0,0.2,0.1,0.2,0.2c0,0,0,0.1,0,0.1
					c0.1,0.2,0.3,0.5,0.7,0.5c0,0,0.1,0.1,0.1,0.2C123.1,38.3,123,38.3,123,38.3z"/>
				<path class="st0" d="M106.1,27c-0.2-0.3-0.4-0.3-0.6-0.3c-0.3,0-0.5,0.2-0.6,0.4c-0.7,1.1-0.2,2.5-0.2,2.6
					c0.1,0.2,0.3,0.3,0.5,0.3c0,0,0.1,0,0.1,0c0.2,0,0.4-0.2,0.4-0.5c0.1-1,0.4-1.4,0.4-1.5c0,0,0-0.1,0.1-0.1
					C106.3,27.8,106.4,27.5,106.1,27C106.2,27,106.1,27,106.1,27z"/>
			</g>
			<g>
				<path class="st2" d="M86.2,27.7c-0.1-0.1-0.1-0.3,0-0.4c0.2-0.3,0.3,0,0.3,0c0.6,0.9,0.2,2.2,0.2,2.2
					C86.7,28.3,86.2,27.7,86.2,27.7L86.2,27.7z M91.6,33.5c0-0.3,0-0.8-0.2-1c-0.1-0.1-0.5-0.5-0.5-0.5c-0.1-0.1-0.1-0.1-0.1-0.1
					c-0.1,0-0.2,0.2-0.2,0.2c-0.3,0.5-0.5,0.5-0.5,0.5c0-0.1,0.1-0.2,0.1-0.2c0.1-0.1,0.4-0.7,0.4-0.7c0-0.1,0.1-0.2,0.1-0.2
					c0.3-0.4,0.5-0.1,0.5-0.1c0.1,0.2,0.7,0.9,0.7,0.9c0.1,0.1,0.1,0.3,0.1,0.3C92.1,33.4,91.6,33.5,91.6,33.5L91.6,33.5L91.6,33.5z
					 M90.1,35.9c-0.1,0-0.1,0-0.1-0.2c0.1-0.3,0.3-0.5,0.3-0.5c0.5-0.3,0.6,0,0.6,0c0.1,0.5-0.3,0.6-0.3,0.6
					C90.4,35.9,90.1,35.9,90.1,35.9L90.1,35.9L90.1,35.9z M68,37.4c0,0,0.1,0.1,0.1,0.2c0,0-0.3,0.8-0.3,1c0,0-0.6,0.1-0.7-0.2
					c0,0,0-0.1,0.1-0.3c0,0,0.1-0.2,0.1-0.5c0,0,0-0.7,0.5-0.5C67.9,37.3,67.9,37.4,68,37.4L68,37.4L68,37.4z M68.8,36.2
					c0.1-0.1,0.3-0.1,0.4-0.1c0.3,0.1,0.1,0.3,0.1,0.3c-0.1,0.2-0.5,0.6-0.5,0.6c-0.3,0.3-0.6-0.1-0.6-0.1c-0.3-0.3,0.1-0.4,0.1-0.4
					C68.4,36.5,68.8,36.2,68.8,36.2L68.8,36.2L68.8,36.2z M72.4,31.6c0,0-0.1,1.1,0.4,2.1c0,0,0.4,0.5,0,0.9L72,34.9
					c0,0-0.1,0.1-0.4,0.1c0,0-0.5-0.1-0.6,0.1c0,0-0.1,0.4-0.3,0.7c0,0-0.3,0.8-0.9,1c0,0-0.5,0.1-0.6,0.5c0,0-0.1,0.3-0.4,0.3
					c0,0-0.2,0.1-0.4,0.5c0,0-0.1,0.3-0.1,0.5c0,0,0.4-0.1,0.6,0c0,0,0.6,0.2,0.9-0.3c0,0,0.5-0.9,0.9-0.7c0,0,0.8,0.3,1.3-0.3
					c0,0,0.7-0.8,1.8-0.7c0,0,1.2,0.2,1.6,0c0,0,0.7-0.4,1-0.5c0,0,0.3-0.1,0.4-0.5c0,0,0.2-0.5,0.4-0.7h-0.6c0,0-0.5,0.9-1.4,1.1
					c0,0-0.5,0.2-1.4,0c0,0-1.4-0.3-2.6,1c0,0-0.2,0.2-0.4,0.1c0,0,0.7-1.2,2.1-1.4c0,0,0.5-0.1,0.9,0c0,0,2,0.1,2.9-1.9
					c0,0-0.1-1.7,0.3-2c0,0,0.2-0.1,0.1,0.3c0,0-0.3,1.7,0.3,2.1c0,0,0.3,0.3,0.9,0.2c0,0,0.9-0.2,1.7-0.1c0,0,1.2,0.3,2.1,0.1
					c0,0-0.3-0.4-0.2-0.9c0,0,0.1-0.3,0.3-0.1c0,0,0.4,1.3,1.4,1.6c0,0,0.9,0.3,0.9,1.5c0,0-0.1,0.2-1.4,0.6c0,0-0.5,0.1-0.6-0.2
					c0,0-0.6-1.3-1.1-1.2l-1,0.1c0,0-0.3,0.1-0.1,0.3c0,0,0.3,0.4,0.5,0.7c0,0,0,0.2,0.3,0.2c0,0,0.4-0.2,0.7,0.6
					c0,0,0.2,0.4,0.6,0.5c0,0,0.3,0.1,0.7-0.1c0,0,1.6-0.6,1.9-0.8c0,0,0.3-0.2,0.6-0.1c0,0,0.5,0.1,0.7-0.3l0.5-0.8
					c0,0,0.1-0.2,0.1-0.4c0,0,0.1-0.2-0.1-0.5c0,0-0.2-0.2-0.2-0.3l-0.3-0.8c0,0-0.1-0.2-0.3-0.3l-0.5,0c0,0,0.3,0.8,0.6,1.2
					c0,0,0.3,0.5,0.3,0.8c0,0,0,0.2-0.1,0.3c0,0-0.1,0.2-0.1,0.3c0,0-0.1,0.3-0.3,0.4c0,0-0.2,0.1-0.3,0.1c0,0-0.1,0,0-0.1
					c0,0,0.3-0.5,0.3-0.9c0,0,0.1-0.3-0.2-0.5c0,0-0.5-0.8-0.6-1.1c0,0-0.2-0.3-0.3-0.4c0,0-0.2-0.2,0.1-0.3c0,0,0.7-0.2,0.9-0.3
					c0,0,0.3-0.1,0.6-0.8c0,0,0.3-0.8,0.3-1.4c0,0,0.6,1.2-0.4,2.4c0,0,0.8,0.2,1.1,0c0,0,1-0.1,1.2-0.2c0,0,0.2-0.1,0.1,0.1
					c0,0-0.3,0.4-0.3,0.7c0,0,0,0.2-0.2,0.3c0,0-0.5,0.4-0.6,0.7c0,0-0.1,0.3,0.1,0.3c0,0,0.3-0.1,0.4,0c0,0,0,0-0.1,0.1
					c0,0-0.3,0.3-0.3,0.7c0,0,0.1,0.4,0.2,0.6c0,0,0.1,0.2,0.4,0.1c0,0,0.1-0.1,0.2,0c0,0,0.1,0,0.4-0.1c0,0,0.5-0.1,0.6-0.2
					c0,0,0.6-0.2,0.9-0.2c0,0,0.2,0,0.4,0c0,0,0.7,0.1,1.2-0.5c0,0,0.4-0.3,0.5,0c0,0,0.9,1.2,2.3,0.9c0,0-1.1-0.5-1.4-1.1
					c0,0,0-0.5-0.6-1.3c0,0-0.2-0.3,0-0.3c0,0,0.1-0.1,0.3,0.1c0,0,0.6,0.5,0.8,1c0,0,0.7,1.1,1.7,0.7c0,0-0.8-0.3-1.2-0.9
					c0,0-0.2-0.8-1-1.4c0,0,0-0.9-0.4-1.4c0,0-0.2-0.8-0.2-1c0,0-0.2-0.7-0.2-0.9c0,0,0.1-1-0.5-1.7c0,0-0.4-0.8-1-1.3
					c0,0-0.5-0.6-0.8-1c0,0-0.5-0.5-1.5-1.3c0,0-0.5-0.3-0.8-0.7c0,0-1.8-1.3-3.1-0.3c0,0-0.9,0.6-1.6,0.8c0,0-1.6,0.2-2.2,1.2
					c0,0-0.1,0.2-0.7,0.3c0,0-1.4-0.2-2.4,1.2c0,0-0.5,0.5-1.4,0.6c0,0-1.5-0.1-2.5,1c0,0-2.5,2.2-3.9,0.7c0,0-0.8-0.7,0.1-2
					c0,0,0.5-0.7,1.5-1.4c0,0,0.8-0.5,0.4-1.4c0,0-0.2-0.8-1.3-0.8c0,0-1.4-0.3-2-1c0,0-0.7,2.3,1.9,2.2c0,0,0.7,0.1,0.4,0.6
					c0,0-0.3,0.5-0.8,0.6c0,0-0.8,0.3-1.1,1.5c0,0-0.8,2,1.1,2.7C70.8,31.8,71.7,31.7,72.4,31.6L72.4,31.6L72.4,31.6z"/>
				<path class="st2" d="M105.8,27.7c0.1-0.1,0.1-0.3,0-0.4c-0.2-0.3-0.3,0-0.3,0c-0.6,0.9-0.2,2.2-0.2,2.2
					C105.3,28.3,105.8,27.7,105.8,27.7L105.8,27.7z M100.4,33.5c0-0.3,0-0.8,0.2-1c0.1-0.1,0.5-0.5,0.5-0.5c0.1-0.1,0.1-0.1,0.1-0.1
					c0.1,0,0.2,0.2,0.2,0.2c0.3,0.5,0.5,0.5,0.5,0.5c0-0.1-0.1-0.2-0.1-0.2c-0.1-0.1-0.4-0.7-0.4-0.7c0-0.1-0.1-0.2-0.1-0.2
					c-0.3-0.4-0.5-0.1-0.5-0.1c-0.1,0.2-0.7,0.9-0.7,0.9c-0.1,0.1-0.1,0.3-0.1,0.3C99.9,33.4,100.4,33.5,100.4,33.5L100.4,33.5
					L100.4,33.5z M101.9,35.9c0.1,0,0.1,0,0.1-0.2c-0.1-0.3-0.3-0.5-0.3-0.5c-0.5-0.3-0.6,0-0.6,0c-0.1,0.5,0.3,0.6,0.3,0.6
					C101.6,35.9,101.9,35.9,101.9,35.9L101.9,35.9L101.9,35.9z M124,37.4c0,0-0.1,0.1-0.1,0.2c0,0,0.3,0.8,0.3,1
					c0,0,0.6,0.1,0.7-0.2c0,0,0-0.1-0.1-0.3c0,0-0.1-0.2-0.1-0.5c0,0,0-0.7-0.5-0.5C124.1,37.3,124.1,37.4,124,37.4L124,37.4
					L124,37.4z M123.2,36.2c-0.1-0.1-0.3-0.1-0.4-0.1c-0.3,0.1-0.1,0.3-0.1,0.3c0.1,0.2,0.5,0.6,0.5,0.6c0.3,0.3,0.6-0.1,0.6-0.1
					c0.3-0.3-0.1-0.4-0.1-0.4C123.6,36.5,123.2,36.2,123.2,36.2L123.2,36.2L123.2,36.2z M119.6,31.6c0,0,0.1,1.1-0.4,2.1
					c0,0-0.4,0.5,0,0.9l0.7,0.4c0,0,0.1,0.1,0.4,0.1c0,0,0.5-0.1,0.6,0.1c0,0,0.1,0.4,0.3,0.7c0,0,0.3,0.8,0.9,1
					c0,0,0.5,0.1,0.6,0.5c0,0,0.1,0.3,0.4,0.3c0,0,0.2,0.1,0.4,0.5c0,0,0.1,0.3,0.1,0.5c0,0-0.4-0.1-0.6,0c0,0-0.6,0.2-0.9-0.3
					c0,0-0.5-0.9-0.9-0.7c0,0-0.8,0.3-1.3-0.3c0,0-0.7-0.8-1.8-0.7c0,0-1.2,0.2-1.6,0c0,0-0.7-0.4-1-0.5c0,0-0.3-0.1-0.4-0.5
					c0,0-0.2-0.5-0.4-0.7h0.6c0,0,0.5,0.9,1.4,1.1c0,0,0.5,0.2,1.4,0c0,0,1.4-0.3,2.6,1c0,0,0.2,0.2,0.4,0.1c0,0-0.7-1.2-2.1-1.4
					c0,0-0.5-0.1-0.9,0c0,0-2,0.1-2.9-1.9c0,0,0.1-1.7-0.3-2c0,0-0.2-0.1-0.1,0.3c0,0,0.3,1.7-0.3,2.1c0,0-0.3,0.3-0.9,0.2
					c0,0-0.9-0.2-1.7-0.1c0,0-1.2,0.3-2.1,0.1c0,0,0.3-0.4,0.2-0.9c0,0-0.1-0.3-0.3-0.1c0,0-0.4,1.3-1.4,1.6c0,0-0.9,0.3-0.9,1.5
					c0,0,0.1,0.2,1.4,0.6c0,0,0.5,0.1,0.6-0.2c0,0,0.6-1.3,1.1-1.2l1,0.1c0,0,0.3,0.1,0.1,0.3c0,0-0.3,0.4-0.5,0.7
					c0,0,0,0.2-0.3,0.2c0,0-0.4-0.2-0.7,0.6c0,0-0.2,0.4-0.6,0.5c0,0-0.3,0.1-0.7-0.1c0,0-1.6-0.6-1.9-0.8c0,0-0.3-0.2-0.6-0.1
					c0,0-0.5,0.1-0.7-0.3l-0.5-0.8c0,0-0.1-0.2-0.1-0.4c0,0-0.1-0.2,0.1-0.5c0,0,0.2-0.2,0.2-0.3l0.3-0.8c0,0,0.1-0.2,0.3-0.3l0.5,0
					c0,0-0.3,0.8-0.6,1.2c0,0-0.3,0.5-0.3,0.8c0,0,0,0.2,0.1,0.3c0,0,0.1,0.2,0.1,0.3c0,0,0.1,0.3,0.3,0.4c0,0,0.2,0.1,0.3,0.1
					c0,0,0.1,0,0-0.1c0,0-0.3-0.5-0.3-0.9c0,0-0.1-0.3,0.2-0.5c0,0,0.5-0.8,0.6-1.1c0,0,0.2-0.3,0.3-0.4c0,0,0.2-0.2-0.1-0.3
					c0,0-0.7-0.2-0.9-0.3c0,0-0.3-0.1-0.6-0.8c0,0-0.3-0.8-0.3-1.4c0,0-0.6,1.2,0.4,2.4c0,0-0.8,0.2-1.1,0c0,0-1-0.1-1.2-0.2
					c0,0-0.2-0.1-0.1,0.1c0,0,0.3,0.4,0.3,0.7c0,0,0,0.2,0.2,0.3c0,0,0.5,0.4,0.6,0.7c0,0,0.1,0.3-0.1,0.3c0,0-0.3-0.1-0.4,0
					c0,0,0,0,0.1,0.1c0,0,0.3,0.3,0.3,0.7c0,0-0.1,0.4-0.2,0.6c0,0-0.1,0.2-0.4,0.1c0,0-0.1-0.1-0.2,0c0,0-0.1,0-0.4-0.1
					c0,0-0.5-0.1-0.6-0.2c0,0-0.6-0.2-0.9-0.2c0,0-0.2,0-0.4,0c0,0-0.7,0.1-1.2-0.5c0,0-0.4-0.3-0.5,0c0,0-0.9,1.2-2.3,0.9
					c0,0,1.1-0.5,1.4-1.1c0,0,0-0.5,0.6-1.3c0,0,0.2-0.3,0-0.3c0,0-0.1-0.1-0.3,0.1c0,0-0.6,0.5-0.8,1c0,0-0.7,1.1-1.7,0.7
					c0,0,0.8-0.3,1.2-0.9c0,0,0.2-0.8,1-1.4c0,0,0-0.9,0.4-1.4c0,0,0.2-0.8,0.2-1c0,0,0.2-0.7,0.2-0.9c0,0-0.1-1,0.5-1.7
					c0,0,0.4-0.8,1-1.3c0,0,0.5-0.6,0.8-1c0,0,0.5-0.5,1.5-1.3c0,0,0.5-0.3,0.8-0.7c0,0,1.8-1.3,3.1-0.3c0,0,0.9,0.6,1.6,0.8
					c0,0,1.6,0.2,2.2,1.2c0,0,0.1,0.2,0.7,0.3c0,0,1.4-0.2,2.4,1.2c0,0,0.5,0.5,1.4,0.6c0,0,1.5-0.1,2.5,1c0,0,2.5,2.2,3.9,0.7
					c0,0,0.8-0.7-0.1-2c0,0-0.5-0.7-1.5-1.4c0,0-0.8-0.5-0.4-1.4c0,0,0.2-0.8,1.3-0.8c0,0,1.4-0.3,2-1c0,0,0.7,2.3-1.9,2.2
					c0,0-0.7,0.1-0.4,0.6c0,0,0.3,0.5,0.8,0.6c0,0,0.8,0.3,1.1,1.5c0,0,0.8,2-1.1,2.7C121.2,31.8,120.3,31.7,119.6,31.6L119.6,31.6
					L119.6,31.6z"/>
			</g>
		</g>
	</g>
</g>
</svg>
