<?xml version="1.0" encoding="utf-8"?>
<!-- Generator: Adobe Illustrator 25.2.1, SVG Export Plug-In . SVG Version: 6.00 Build 0)  -->
<svg version="1.1" id="Layer_1" xmlns="http://www.w3.org/2000/svg" xmlns:xlink="http://www.w3.org/1999/xlink" x="0px" y="0px"
	 viewBox="0 0 192 192" style="enable-background:new 0 0 192 192;" xml:space="preserve">
<style type="text/css">
	.st0{fill:#1B436A;}
</style>
<g>
	<g id="Слой_1-2">
		<path class="st0" d="M74.94,96.82c-1.97-3.96-4.36-7.67-7.18-11.06c-2.77-3.34-5.9-6.36-9.35-8.98
			c-4.99-4.02-15.05-17.87-15.05-30.39V24.78c0.54,4.08,3.28,20.87,17.76,31.24c4.19,2.99,8.92,5.16,13.94,6.41
			c0,8.78,0,13.2,0.03,15.59c0,0.37,0,1.54,0.03,3.11c0,1.71,0,3.91-0.03,6.44C75.06,91.43,75,94.63,74.94,96.82z"/>
		<path class="st0" d="M96.38,138.44l-0.4-0.06c-11.92-0.34-21.49-9.92-21.81-21.84c-0.14-1.03-0.26-2.08-0.26-3.11
			c-0.86-5.3-2.59-10.4-5.16-15.11c-4.93-8.95-10.23-11.2-16.85-18.36c-10.75-11.6-7.95-17.62-16.59-29.05
			c-4.85-6.41-13.2-14.4-28.42-20.24c7.33,7.13,13,15.79,16.56,25.37c3.76,10.18,1.28,12.51,4.19,24.91
			c2.08,8.87,6.44,16.25,10.49,21.66c-0.54-1.25-1-2.54-1.31-3.88c-0.23-1-0.4-2-0.51-3.02c0.97,1.05,1.85,2.19,2.65,3.42
			c1.8,2.74,3.05,5.82,3.73,9.01c-0.09,1.6-1.14,35.89,24.8,51.91c11.26,6.96,22.92,7.5,28.96,7.27"/>
		<path class="st0" d="M117.47,96.82c1.97-3.96,4.36-7.67,7.16-11.06c2.77-3.34,5.9-6.36,9.35-8.98
			c4.99-4.02,15.05-17.87,15.05-30.39V24.78c-0.54,4.08-3.28,20.87-17.76,31.24c-4.19,2.99-8.92,5.16-13.94,6.41
			c0,8.78,0,13.2-0.03,15.59c0,0.37,0,1.54-0.03,3.11c0,1.71,0,3.91,0.03,6.44C117.36,91.43,117.42,94.63,117.47,96.82z"/>
		<path class="st0" d="M96.29,138.41c0.09,0,0.26,0,0.34-0.03c11.92-0.34,21.49-9.92,21.81-21.86c0.14-1.03,0.26-2.08,0.26-3.11
			c0.86-5.3,2.59-10.4,5.16-15.11c4.93-8.95,10.23-11.2,16.85-18.36c10.75-11.6,7.95-17.62,16.62-29.05
			c4.85-6.41,13.2-14.4,28.42-20.24c-7.35,7.13-13,15.82-16.53,25.4c-3.76,10.18-1.28,12.51-4.19,24.91
			c-2.08,8.87-6.44,16.25-10.49,21.66c0.97-2.19,1.57-4.5,1.8-6.87c-0.97,1.05-1.85,2.19-2.65,3.39c-1.8,2.77-3.05,5.82-3.73,9.01
			c0.09,1.6,1.14,35.89-24.8,51.91c-11.37,7.01-22.98,7.5-28.96,7.27"/>
	</g>
</g>
</svg>
