<svg width="24" height="24" viewBox="0 0 24 24" fill="none" xmlns="http://www.w3.org/2000/svg">
<g clip-path="url(#clip0_2235_2986)">
<path d="M0.270508 1.16333L5.97435 3.06344C11.6304 4.94763 16.9909 7.62381 21.896 11.0122L23.2089 11.9191C23.4872 12.1113 23.6533 12.428 23.6533 12.7663V12.7663C23.6533 13.1454 23.346 13.4527 22.9669 13.4527H22.7516C22.4191 13.4527 22.1283 13.6767 22.0433 13.9982L21.9334 14.414C21.7109 15.2564 21.8438 16.1531 22.3012 16.8946L23.0319 18.0792C23.652 19.0847 23.2737 20.4056 22.2152 20.9302L21.4031 21.3328C19.8991 22.0782 18.282 20.5443 18.9471 19.0031L19.5424 17.6237C20.0566 16.4321 19.9866 15.069 19.3531 13.9364V13.9364C18.9141 13.1515 18.3173 12.4661 17.6004 11.9232L15.6581 10.4523C14.9649 9.92737 13.9664 10.3862 13.9132 11.254L13.8513 12.2638C13.7036 14.6748 14.0368 17.0912 14.8316 19.3723L15.1723 20.3502C15.8912 22.4134 13.8607 24.3705 11.8253 23.5762V23.5762C10.4594 23.0432 9.81973 21.4738 10.4239 20.1378L10.5866 19.7779C11.7343 17.2399 12.2633 14.4657 12.1301 11.6835L12.059 10.1976C11.9837 8.62353 11.0831 7.20611 9.69015 6.4692L8.78108 5.98827C7.97282 5.56067 6.99995 6.14662 6.99995 7.06101V7.33464C6.99995 8.59209 7.1198 9.84668 7.35787 11.0814L7.84596 13.6128C8.19471 15.4215 6.06071 16.6508 4.67107 15.4417V15.4417C4.06308 14.9127 3.84595 14.0626 4.12577 13.3068L4.92129 11.1582C5.39468 9.87967 5.63703 8.52712 5.63703 7.16373V7.16373C5.63703 5.427 4.7233 3.81835 3.23161 2.92892L0.270508 1.16333Z" fill="white"/>
</g>
<defs>
<clipPath id="clip0_2235_2986">
<rect width="24" height="24" fill="white"/>
</clipPath>
</defs>
</svg>
