<svg width="24" height="24" viewBox="0 0 24 24" fill="none" xmlns="http://www.w3.org/2000/svg">
<g clip-path="url(#clip0_2235_3009)">
<path fill-rule="evenodd" clip-rule="evenodd" d="M4.67368 2.50182C5.25523 1.92027 6.1981 1.92027 6.77965 2.50182L9.43658 5.15875C9.57231 5.29448 9.54868 5.52072 9.38783 5.62548L8.21088 6.392C7.90262 6.59275 7.66613 6.88626 7.53554 7.23016C7.51336 7.28858 7.43855 7.30511 7.39382 7.26147L4.68681 4.62077C4.09293 4.04144 4.08702 3.08848 4.67368 2.50182ZM8.10834 0.303163C8.69265 -0.281144 9.63958 -0.282502 10.2256 0.30013L12.8766 2.93603C13.025 3.08352 12.9992 3.33031 12.8236 3.444L10.7874 4.76235C10.67 4.83833 10.5156 4.82213 10.4165 4.72345L8.11022 2.42531C7.52295 1.84012 7.52211 0.889394 8.10834 0.303163ZM4.40317 5.85731C3.81799 5.27213 2.86923 5.27213 2.28406 5.85731C1.69888 6.44248 1.69888 7.39124 2.28406 7.97642L6.11023 11.8026C6.69541 12.3878 7.64417 12.3878 8.22935 11.8026C8.81452 11.2174 8.81452 10.2687 8.22935 9.68348L4.40317 5.85731ZM0.309569 9.77064C0.894745 9.18546 1.84351 9.18546 2.42868 9.77063L4.57723 11.9192C5.16241 12.5044 5.16241 13.4531 4.57723 14.0383C3.99205 14.6235 3.04329 14.6235 2.45812 14.0383L0.309569 11.8897C-0.275608 11.3046 -0.275608 10.3558 0.309569 9.77064ZM11.4434 9.1614C10.6638 9.64291 9.65545 9.52536 9.00753 8.87744C8.56098 8.43089 8.64221 7.68578 9.17449 7.34594L14.2463 4.10778C14.8876 3.69829 15.734 3.83391 16.2153 4.4233L19.0424 7.88531C19.2334 8.11915 19.3493 8.40518 19.3751 8.70598L19.8051 13.7229C19.8253 13.9577 19.9277 14.1779 20.0944 14.3446L22.9326 17.1828C21.331 20.345 18.5519 22.8097 15.172 24L11.8404 20.6684C11.7114 20.5394 11.5496 20.4482 11.3725 20.4046L8.21009 19.6254C7.94443 19.56 7.70174 19.4231 7.50827 19.2296L4.1881 15.9095C3.90416 15.6255 4.05387 15.1396 4.44838 15.0647L5.25609 14.9113C5.87258 14.7942 6.39839 14.3946 6.67624 13.832L6.73415 13.7147C6.87976 13.4198 7.16105 13.2154 7.48647 13.168L8.19976 13.0639C9.09796 12.9329 9.85479 12.3258 10.1775 11.4774C10.2421 11.3074 10.3606 11.1632 10.5148 11.0668L12.8849 9.58426C13.0181 9.50094 13.191 9.5967 13.191 9.75382L13.191 11.939C13.1889 12.1086 13.2553 12.2719 13.3753 12.3919L14.4804 13.7273C14.7263 13.9732 15.023 13.9732 15.2689 13.7273C15.5147 13.4815 15.5147 13.1724 15.2689 12.9265L14.5482 12.1216C14.3812 11.935 14.2903 11.6926 14.2934 11.4422L14.3291 8.55507C14.3316 8.35422 14.2447 8.17108 14.089 8.05258C14.046 8.01988 13.9961 7.99762 13.9448 7.98074C13.7246 7.90829 13.5511 7.9021 13.3753 8.00778L12.0049 8.81457L11.4434 9.1614Z" fill="white"/>
</g>
<defs>
<clipPath id="clip0_2235_3009">
<rect width="24" height="24" fill="white"/>
</clipPath>
</defs>
</svg>
