<?xml version="1.0" encoding="utf-8"?>
<!-- Generator: Adobe Illustrator 25.2.1, SVG Export Plug-In . SVG Version: 6.00 Build 0)  -->
<svg version="1.1" id="Layer_1" xmlns="http://www.w3.org/2000/svg" xmlns:xlink="http://www.w3.org/1999/xlink" x="0px" y="0px"
	 width="192px" height="192px" viewBox="0 0 192 192" enable-background="new 0 0 192 192" xml:space="preserve">
<g>
	<g>
		<g id="base_1_">
			<path fill="#08141E" d="M95.6,190.8c-0.3-0.1-34.1-12.8-52.9-25.8c-28.8-19.8-30.1-47.2-30.1-102.2v-33L96,1.1l83.4,28.7v33
				c0,55-1.3,82.3-30.1,102.2c-18.8,13-52.6,25.6-52.9,25.8l-0.4,0.1L95.6,190.8z"/>
			
				<linearGradient id="SVGID_1_" gradientUnits="userSpaceOnUse" x1="21.0109" y1="166.56" x2="170.2408" y2="47.2559" gradientTransform="matrix(1 0 0 -1 0 192)">
				<stop  offset="0" style="stop-color:#AC9641"/>
				<stop  offset="0.486" style="stop-color:#C4BA40"/>
				<stop  offset="1" style="stop-color:#AC9641"/>
			</linearGradient>
			<path fill="url(#SVGID_1_)" d="M96,2.2l82.3,28.4v32.3c0,54.4-1.1,81.7-29.6,101.3c-18.9,13-52.7,25.7-52.7,25.7
				s-33.8-12.6-52.7-25.7c-28.5-19.6-29.6-46.9-29.6-101.3V30.5L96,2.2 M96,0l-0.7,0.2L13,28.6l-1.4,0.5v1.5v32.3
				c0,55.4,1.3,82.9,30.5,103c18.9,13,51.8,25.4,53.2,25.9L96,192l0.7-0.3c1.4-0.5,34.3-12.9,53.2-25.9
				c29.2-20.1,30.5-47.6,30.5-103V30.5V29l-1.4-0.5L96.7,0.2L96,0L96,0z"/>
		</g>
	</g>
	<g>
		<path fill="#FFFFFF" d="M48.7,91.4c-7,0.3-16.6,0.2-26.6-1c0.2,5.9,0.4,11.3,0.9,16.3c8.8-1,17-2.7,23.1-4.2
			C46.7,98.6,47.6,94.9,48.7,91.4z"/>
		<path fill="#FFFFFF" d="M57.7,72.4c-9.6-3.8-23.9-10.7-35.9-19.7v13.1c0,2.5,0,5,0,7.4C33,77.4,44.5,80,52.6,81.4
			C54.1,78.2,55.9,75.2,57.7,72.4z"/>
		<path fill="#FFFFFF" d="M48.5,143.4c-2,2.4-4.5,5.2-7.2,8.1c2.2,2,4.6,3.9,7.2,5.8c1.7,1.1,3.5,2.3,5.3,3.4
			C51.6,154.6,49.8,148.9,48.5,143.4z"/>
		<path fill="#FFFFFF" d="M45.1,114.7c-5.2,2.5-12,5.6-19.6,8.2c1.4,5.8,3.2,10.9,5.7,15.6c5.7-3.6,10.7-7.2,14.5-10.3
			C45.2,123.5,45,119,45.1,114.7z"/>
		<path fill="#FFFFFF" d="M79.6,50.8c3.4-2.2,6.7-3.9,9.6-5.2c-2.7-7.5-6.1-18.2-8-29.5l-16.3,5.6C69.3,33.1,75.1,43.6,79.6,50.8z"
			/>
		<path fill="#FFFFFF" d="M71.2,57.1c-6.7-6.8-16-17.7-23.1-29.6l-18.3,6.3c10.1,12.9,24.6,24.1,34.1,30.5
			C66.3,61.6,68.7,59.2,71.2,57.1z"/>
		<path fill="#FFFFFF" d="M126.8,75.8c1.6,1.3,5.9,0.1,5.9,0.1l-3.1-3.7l-6.6-4.4C123,67.8,125.1,74.4,126.8,75.8z"/>
		<polygon fill="#FFFFFF" points="148.3,112.6 144.4,109.4 146.7,114.9 153.1,114.4 		"/>
		<path fill="#FFFFFF" d="M100.7,12.5c-2.7,8.7-3.6,19.5-0.5,30c1.2-1.3,9.6-10,17.1-18.2c0,0,10,11.5-4,23.3
			c0,0,24.9,17.4,26.5,18.2c0,0-1.3,5.4,0,10l19.6,38l-9.9,11.7l-14.5-8.2l7,11.2c0,0-7.9,1-10.3-0.2c-1.4-7.1-7.7-18.6-7.7-18.6
			l-14.8-6c0,0-6.4-7.9-6-19.4c0,0-7.2,30.4,12.5,37.7l27.8,35.3c25.7-17.7,26.7-42.4,26.7-91.5V36.5L100.7,12.5z"/>
	</g>
</g>
</svg>
