<?xml version="1.0" encoding="utf-8"?>
<!-- Generator: Adobe Illustrator 26.0.1, SVG Export Plug-In . SVG Version: 6.00 Build 0)  -->
<svg version="1.1" id="Layer_1" xmlns="http://www.w3.org/2000/svg" xmlns:xlink="http://www.w3.org/1999/xlink" x="0px" y="0px"
	 viewBox="0 0 92 92" style="enable-background:new 0 0 92 92;" xml:space="preserve">
<style type="text/css">
	.st0{clip-path:url(#SVGID_00000083054504660532358650000005875232001752180895_);}
	.st1{fill:url(#SVGID_00000170978116768966963240000005381891440626382775_);}
</style>
<g>
	<defs>
		<path id="SVGID_1_" d="M66.05,24.18c0,7.34,0.04,14.68,0.03,22.01c0,3.7-0.07,7.4-0.09,11.11c0.03,0.37-0.18,0.71-0.51,0.86
			c-1.45,0.81-2.88,1.64-4.31,2.47c-0.16,0.09-0.31,0.21-0.51,0.34c0.14,0.12,0.29,0.23,0.44,0.33c2.85,1.65,5.69,3.28,8.54,4.94
			c0.28,0.19,0.65,0.19,0.93,0c1.51-0.89,3.03-1.77,4.56-2.63c0.36-0.17,0.58-0.55,0.54-0.95c0-11.09,0-22.17,0-33.26
			c0.04-0.42-0.19-0.82-0.57-0.99c-2.56-1.46-5.13-2.94-7.69-4.42c-0.41-0.23-0.82-0.45-1.33-0.72
			C66.08,23.65,66.05,23.91,66.05,24.18z M29.88,30.85c-2.81-1.62-5.64-3.25-8.48-4.89c-0.28-0.2-0.66-0.2-0.94,0
			c-1.39,0.82-2.78,1.63-4.19,2.41c-0.38,0.17-0.61,0.57-0.57,0.99c0,11.1,0,22.2,0,33.3c-0.04,0.4,0.18,0.79,0.55,0.96
			c2.25,1.28,4.49,2.56,6.73,3.88c0.73,0.42,1.48,0.83,2.28,1.29c0.03-0.26,0.05-0.42,0.05-0.56c0-3.49-0.03-6.98-0.03-10.47
			c0-7.69,0.02-15.38,0.05-23.08c0.04-0.3,0.2-0.56,0.45-0.73c0.63-0.42,1.3-0.77,1.96-1.14l2.7-1.54c-0.27-0.2-0.4-0.31-0.55-0.39
			L29.88,30.85z M25.02,24.02c2.77,1.61,5.56,3.19,8.33,4.82c0.36,0.26,0.84,0.26,1.2,0c3.49-2.05,7-4.04,10.5-6.07
			c0.35-0.27,0.83-0.29,1.2-0.05c4.54,2.65,9.08,5.3,13.63,7.93c0.84,0.51,1.68,0.95,2.56,1.46c0.04-0.17,0.07-0.34,0.09-0.51
			c0-3.33,0-6.67,0-9.98c-0.04-0.28-0.19-0.53-0.43-0.69c-5.25-3.03-10.52-6.05-15.77-9.1c-0.39-0.28-0.92-0.28-1.31,0
			c-5.79,3.35-11.58,6.69-17.39,10.03c-1.03,0.58-2.02,1.18-3.11,1.82C24.69,23.79,24.85,23.91,25.02,24.02z M28.79,60.94
			c0,3.03,0,6.06,0,9.09c-0.05,0.52,0.23,1.01,0.7,1.23c5.26,3.01,10.51,6.04,15.75,9.07c0.26,0.18,0.61,0.18,0.88,0
			c6.63-3.83,13.25-7.65,19.88-11.47c0.18-0.11,0.35-0.23,0.51-0.36c-0.2-0.14-0.32-0.25-0.45-0.32c-2.81-1.63-5.64-3.25-8.43-4.89
			c-0.35-0.21-0.78-0.18-1.1,0.08c-3.4,1.96-6.81,3.9-10.2,5.87c-0.36,0.26-0.84,0.26-1.2,0c-5.16-2.94-10.32-5.88-15.49-8.79
			c-0.22-0.12-0.45-0.22-0.82-0.4L28.79,60.94z M46.35,64.53v-0.79c0-5.88,0-11.76,0-17.64c-0.05-0.39,0.16-0.78,0.51-0.95
			c5.13-2.93,10.26-5.87,15.38-8.83c0.12-0.07,0.25-0.12,0.49-0.24v0.69c0,5.84,0,11.68,0,17.52c0.03,0.42-0.19,0.81-0.56,0.99
			c-5.09,2.98-10.17,5.97-15.25,8.96c-0.13,0.07-0.29,0.13-0.57,0.27V64.53z M50.75,48.57c0,0.06,0.07,0.55,0.41,0.69
			c0.07,0,0.24,0.1,0.68-0.1c0.29-0.14,0.55-0.31,0.83-0.47c1.68-0.99,3.35-2,5.05-2.96c0.25-0.11,0.44-0.33,0.51-0.6
			c0.05-0.16,0.02-0.34-0.06-0.48c-0.16-0.18-0.4-0.27-0.65-0.25c-0.33,0-0.66,0.11-0.93,0.3c-1.65,1.11-3.44,1.99-5.13,3.04
			c-0.18,0.11-0.35,0.26-0.48,0.43c-0.1,0.12-0.18,0.25-0.24,0.39V48.57z M50.85,55.42c-0.05,0.32,0.16,0.63,0.48,0.68
			c0.15,0.03,0.31-0.01,0.44-0.1c0.44-0.19,0.85-0.42,1.25-0.68c1.6-0.95,3.21-1.91,4.81-2.88c0.24-0.12,0.43-0.34,0.51-0.6
			c0.03-0.2-0.02-0.4-0.15-0.55c-0.15-0.11-0.33-0.16-0.51-0.15c-0.17-0.01-0.35,0.01-0.51,0.08c-0.06,0.02-0.11,0.04-0.16,0.08
			c-1.89,1.09-3.73,2.28-5.64,3.34c-0.19,0.09-0.34,0.24-0.44,0.42c-0.06,0.11-0.09,0.24-0.09,0.36V55.42z M28.85,35.92
			c0.33,0.18,0.61,0.32,0.87,0.47c4.79,2.78,9.57,5.59,14.4,8.29c0.72,0.34,1.14,1.11,1.03,1.9c-0.04,5.64,0,11.32,0,16.98
			c0,0.25,0,0.51-0.04,0.87c-0.2-0.09-0.4-0.18-0.59-0.29c-4.48-2.65-8.95-5.3-13.42-7.95c-0.63-0.37-1.28-0.72-1.89-1.14
			c-0.22-0.16-0.37-0.41-0.41-0.68c0-5.98,0-11.96,0-17.95C28.79,36.29,28.82,36.16,28.85,35.92z M40.38,56.44
			c0.04-0.2,0.07-0.41,0.08-0.62c0-2.41,0-4.82,0-7.23c0.03-0.38-0.2-0.73-0.55-0.87c-1.71-0.97-3.42-1.96-5.13-2.94
			c-0.44-0.25-0.88-0.51-1.38-0.76c-0.04,0.14-0.07,0.29-0.09,0.44c0,2.49,0,4.98,0,7.47c0.03,0.28,0.19,0.53,0.42,0.69
			c1.43,0.86,2.89,1.68,4.34,2.51C38.82,55.55,39.54,55.95,40.38,56.44z M41.62,39.4c2.53-0.4,5.1-0.43,7.63-0.1
			c0.55,0.07,1.09,0.22,1.6,0.45c0.47,0.22,0.62,0.09,0.77-0.34c0.82-2.37,1.67-4.73,2.48-7.1c0.06-0.33,0.3-0.61,0.62-0.72
			c0.3-0.05,0.5-0.34,0.45-0.64c-0.01-0.05-0.03-0.1-0.05-0.15c-0.11-0.32-0.46-0.5-0.79-0.39c-0.04,0.01-0.07,0.03-0.11,0.05
			c-0.19,0.08-0.33,0.24-0.38,0.45c0,0.16,0.04,0.31,0.13,0.45c0.08,0.16,0.11,0.17,0.12,0.26s-0.09,0.28-0.24,0.45l-0.48,0.51
			c-0.87,1.02-1.91,1.89-3.08,2.56c-1.07,0.55-1.78,0.38-2.46-0.6c-0.18-0.26-0.33-0.54-0.46-0.83c-0.89-1.88-1.2-3.93-1.57-5.93
			c-0.01-0.24,0.06-0.48,0.21-0.68c0.23-0.31,0.27-0.62,0-0.85c-0.19-0.13-0.43-0.17-0.65-0.1c-0.33,0.19-0.37,0.51-0.18,0.88
			c0.14,0.23,0.2,0.5,0.19,0.76c-0.21,1.28-0.48,2.54-0.83,3.79c-0.34,1.07-0.8,2.1-1.36,3.08c-0.46,0.82-1.2,0.94-2.08,0.56
			c-0.3-0.11-0.58-0.27-0.83-0.47c-1.03-0.92-2.02-1.85-2.99-2.81c-0.12-0.18-0.15-0.41-0.07-0.61c0.15-0.41,0.11-0.72-0.28-0.91
			c-0.27-0.16-0.63-0.08-0.8,0.2c-0.02,0.03-0.04,0.07-0.05,0.11c-0.18,0.41,0.03,0.67,0.39,0.87c0.22,0.09,0.4,0.25,0.51,0.45
			c0.65,1.77,1.26,3.56,1.89,5.35c0.3,0.86,0.61,1.7,0.9,2.53c0.6-0.22,1.22-0.41,1.84-0.56L41.62,39.4z M42.8,34.11
			c0.09-0.82-0.74-1.6-1.06-2.53c-0.1-0.2-0.12-0.44-0.06-0.66c0.07-0.11,0.13-0.24,0.16-0.36c0.04-0.11,0.04-0.24,0-0.35
			c-0.1-0.23-0.37-0.33-0.6-0.23c-0.1,0.05-0.19,0.13-0.23,0.23c-0.02,0.09-0.02,0.19,0,0.28c0.03,0.16,0.1,0.32,0.21,0.45
			c0.1,0.22,0.15,0.45,0.15,0.69c0.08,0.92-0.57,1.79-0.26,2.63c0.16,0.43,0.56,0.84,0.94,0.81s0.68-0.51,0.73-0.98V34.11z
			 M49.25,35.07c0.38,0.04,0.78-0.38,0.94-0.81c0.31-0.84-0.34-1.71-0.26-2.63c0-0.24,0.05-0.48,0.15-0.69
			c0.1-0.13,0.17-0.28,0.21-0.45c0.02-0.09,0.02-0.19,0-0.28c-0.07-0.17-0.24-0.28-0.43-0.28c-0.17,0.01-0.32,0.11-0.4,0.26
			c-0.04,0.11-0.04,0.24,0,0.35c0.04,0.13,0.09,0.25,0.16,0.36c0.07,0.22,0.05,0.45-0.05,0.66c-0.32,0.93-1.15,1.71-1.06,2.53
			C48.51,34.56,48.86,35.04,49.25,35.07z M46,0.47L6.37,23.33v45.81L46,92l39.63-22.86V23.33L46,0.47z M79.4,65.56L46,84.9
			L12.6,65.56V26.9L46,7.57L79.4,26.9V65.56z"/>
	</defs>
	<clipPath id="SVGID_00000180336383415915722390000004203397542101343875_">
		<use xlink:href="#SVGID_1_"  style="overflow:visible;"/>
	</clipPath>
	<g style="clip-path:url(#SVGID_00000180336383415915722390000004203397542101343875_);">
		
			<linearGradient id="SVGID_00000150822482637091936810000003343247206082810800_" gradientUnits="userSpaceOnUse" x1="-1653.653" y1="-1128.9155" x2="-1653.6119" y2="-1128.9155" gradientTransform="matrix(0 -2496.6699 2496.6699 0 2818575.75 -4128530.25)">
			<stop  offset="0" style="stop-color:#F05523"/>
			<stop  offset="1" style="stop-color:#FEE800"/>
		</linearGradient>
		
			<rect x="4.41" y="-1.28" style="fill:url(#SVGID_00000150822482637091936810000003343247206082810800_);" width="83.88" height="94.68"/>
	</g>
</g>
</svg>
