<?xml version="1.0" encoding="utf-8"?>
<!-- Generator: Adobe Illustrator 19.0.0, SVG Export Plug-In . SVG Version: 6.00 Build 0)  -->
<svg version="1.1" id="Layer_1" xmlns="http://www.w3.org/2000/svg" xmlns:xlink="http://www.w3.org/1999/xlink" x="0px" y="0px"
	 viewBox="0 0 192 192" style="enable-background:new 0 0 192 192;" xml:space="preserve">
<g id="XMLID_158_">
	<path id="XMLID_389_" d="M183.2,49.6L183.2,49.6c-13.4,0-25.3-6.2-33-15.9c-0.8-1-1.6-2.1-2.3-3.2c-0.5-0.7-1.4-1-2.2-0.5l-37,21.5
		c-0.7,0.4-1.2,1.2-1.2,2.1v65.6l-7.5,4.4c-1,0.6-0.6,2.1,0.6,2.1l0,0c13.3,0,25.2,6.2,33,15.9c0.8,1,1.6,2.1,2.3,3.2
		c0.5,0.7,1.4,1,2.2,0.5l37-21.5c0.7-0.4,1.2-1.2,1.2-2.1V95c0-0.8-0.9-1.4-1.6-0.9L155,105.5c-0.5,0.3-0.9,0.9-0.9,1.5v21.6
		c0,0.6-0.2,1.1-0.7,1.4c-0.8,0.7-2,0.5-2.6-0.3c-5.3-7.1-12.7-12.5-21.2-15.4V46.8c0-0.6,0.2-1.1,0.7-1.4c0.8-0.7,2-0.5,2.6,0.3
		c5.3,7.1,12.7,12.5,21.2,15.4v20.7c0,0.8,0.9,1.4,1.6,0.9l19.7-11.4c0.5-0.3,0.9-0.9,0.9-1.5V56.1l7.5-4.4
		C184.8,51.1,184.4,49.6,183.2,49.6z"/>
	<path id="XMLID_395_" d="M103.9,134.1c-1.8-1.5-4-2.4-6.5-2.6c-0.2,0-0.4,0-0.6,0.1l-13.4,7.8c-0.3,0.2-0.2,0.6,0.1,0.7
		c3.8,1.2,7.2,4.1,7.2,6.7c0,3.9-4.7,3.8-4.7,3.8c-9.2,0-14.9-8-25.2-10c-2.4-0.4-4.5-0.4-6.4-0.1l28.9-16.8
		c0.7-0.4,1.2-1.2,1.2-2.1V56.1l7.5-4.4c1-0.6,0.6-2.1-0.6-2.1l0,0c-13.3,0-25.2-6.2-33-15.9c-0.8-1-1.6-2.1-2.3-3.2
		c-0.5-0.7-1.4-1-2.2-0.5l-37,21.5c-0.7,0.4-1.2,1.2-1.2,2.1v65.6l-7.5,4.4c-1,0.6-0.6,2.1,0.6,2.1l0,0c13.3,0,25.2,6.2,33,15.9
		c0.5,0.6,0.9,1.2,1.4,1.8l-15.5,9c-0.7,0.4-1.1,1.4-0.7,2.2c0.3,0.5,0.8,0.8,1.4,0.8c0.3,0,0.5-0.1,0.8-0.2l1.4-0.8
		c3-1.8,6.6-2.4,10-1.8h0.1c7.6,1.4,16,8.7,25.2,9.5c0.2,0,0.5,0,0.7,0c5.4,0.3,10.7-1.1,15.3-3.8l21.3-12.4
		c1.8-1.1,3.2-2.9,3.5-4.9c0.1-0.5,0.1-1.1,0.1-1.6C106.8,137.3,105.5,135.4,103.9,134.1z M37.9,114.3V46.7c0-0.6,0.3-1.2,0.9-1.5
		c0.8-0.5,1.8-0.2,2.3,0.5c5.3,7.1,12.7,12.5,21.2,15.4v67.6c0,0.6-0.3,1.2-0.9,1.5c-0.8,0.5-1.8,0.2-2.3-0.5
		C53.8,122.6,46.5,117.2,37.9,114.3z"/>
</g>
</svg>
