<?xml version="1.0" encoding="utf-8"?>
<!-- Generator: Adobe Illustrator 25.2.3, SVG Export Plug-In . SVG Version: 6.00 Build 0)  -->
<svg version="1.1" id="Layer_1" xmlns="http://www.w3.org/2000/svg" xmlns:xlink="http://www.w3.org/1999/xlink" x="0px" y="0px"
	 width="192px" height="192px" viewBox="0 0 192 192" enable-background="new 0 0 192 192" xml:space="preserve">
<g id="Breakdown">
</g>
<g id="Crest_x2C__Positive">
</g>
<g id="Crest_x2C__Negative_copy">
	<g>
		<path fill="#FFFFFF" d="M101.5,57.7c7.9,1.1,15.4,4.7,21.5,10.6h39.2c-3.5-8.4-8.7-16.3-15.5-23.2c-12.6-12.6-28.8-19.5-45.2-20.8
			L101.5,57.7L101.5,57.7z"/>
		<path fill="#FFFFFF" d="M165.9,79.4H107v33.1h23.9c-1.8,3.9-4.4,7.5-7.6,10.8c-6.1,6.1-13.8,9.8-21.8,10.9v33.3V192l0,0l45.2-45.2
			C165,128.5,171.4,102.9,165.9,79.4z"/>
		<path fill="#FFFFFF" d="M90.5,134.3c-8-1.1-15.7-4.8-21.8-10.9c-3.2-3.2-5.8-6.9-7.6-10.8H85V79.4H61.1c1.8-3.9,4.4-7.5,7.6-10.8
			c6.1-6.1,13.8-9.8,21.8-10.9V24.4V0L45.2,45.2c-28,28-28,73.5,0,101.5c12.6,12.6,28.8,19.5,45.2,20.8V134.3z"/>
	</g>
</g>
<g id="Layer_6">
</g>
<g id="Layer_7">
</g>
<g id="Layer_8">
</g>
<g id="Layer_9">
</g>
</svg>
