<svg id="Layer_1" data-name="Layer 1" xmlns="http://www.w3.org/2000/svg" xmlns:xlink="http://www.w3.org/1999/xlink" viewBox="0 0 192 192"><defs><style>.cls-1{fill:url(#linear-gradient);}</style><linearGradient id="linear-gradient" x1="7.92" y1="96" x2="184.08" y2="96" gradientUnits="userSpaceOnUse"><stop offset="0" stop-color="#0f7dc9"/><stop offset="1" stop-color="#4f0d75"/></linearGradient></defs><title>colored logo</title><path class="cls-1" d="M114.9,116.14l17.53-18.09v36.18ZM58.75,97.91,76.38,116.1,58.75,134.43Zm36.87-1.66L7.92,5.79V186.54A110.23,110.23,0,0,1,33.31,169V71.66l7.16,7.44v86.61A134.53,134.53,0,0,1,76.24,156l19.38-20,19.53,20.14a132.72,132.72,0,0,1,35.61,9.61V79.1l7.17-7.35V169a110,110,0,0,1,25.88,18h.27V5Z"/><path class="cls-1" d="M114.9,116.14l17.53-18.09v36.18ZM58.75,97.91,76.38,116.1,58.75,134.43Zm36.87-1.66L7.92,5.79V186.54A110.23,110.23,0,0,1,33.31,169V71.66l7.16,7.44v86.61A134.53,134.53,0,0,1,76.24,156l19.38-20,19.53,20.14a132.72,132.72,0,0,1,35.61,9.61V79.1l7.17-7.35V169a110,110,0,0,1,25.88,18h.27V5Z"/></svg>