<svg id="Layer_1" data-name="Layer 1" xmlns="http://www.w3.org/2000/svg" viewBox="0 0 372.29 363.28"><defs><style>.cls-1{fill:#fff;}.cls-2{fill:#111820;}.cls-3{fill:#fe5000;}</style></defs><title>logo</title><path class="cls-1" d="M607.09,158.15C574.42,138.79,540.2,124.42,504.14,116v0L481.9,157.7q-3.11-.52-6.13-.95a16.13,16.13,0,0,0-2.15-3.45c-9.9-12-39.34-11.39-50.18-6a39.48,39.48,0,0,0-10.93,8.84,193.92,193.92,0,0,0-46.79,12.27l-28-52.41c-36.06,8.42-70.28,22.79-103,42.15l45.66,78.77c-3.82,4.36-10.16,14.41-13.72,21.35a28.83,28.83,0,0,0,9.38,9.74c-12.87,16.93-30.38,48.62-39.11,70.24,40.31,43.63,71.09,65.66,126.22,41.45L421,479.28,607.07,158.21Z" transform="translate(-234.8 -116)"/><path class="cls-2" d="M276.51,257.53a31.43,31.43,0,0,0,11.3,8.1c-14.61,19-31.17,47.8-41.29,70.85,44.56,44.92,66.78,57.53,120,33L421,463.32l175.18-302.2a349,349,0,0,0-87.88-35.8l-22,41.24c-5.53-1-11-1.9-16.54-2.57a12.94,12.94,0,0,0-2.26-5.63C460.72,150.21,436,150,427,154.44c-3.24,1.61-6.92,5-10.49,9.23a184.79,184.79,0,0,0-54.43,15l-28.48-53.34a349,349,0,0,0-87.9,35.78L290,237.43a231.67,231.67,0,0,0-13.5,20.1" transform="translate(-234.8 -116)"/><path class="cls-3" d="M345.85,247.93c2.27,2.5,24.45,7.19,23.52-10.27a41,41,0,0,0-23.52,10.27" transform="translate(-234.8 -116)"/><path class="cls-1" d="M385.69,322.88,388,309.52l15.38.67-4.62-17.86c-28,16.53-34.21,48.13-40.11,60.5a131.24,131.24,0,0,1,65.72-30.94,72,72,0,0,0-12.84-27L413.07,318l-18.89.46-3.94,8.29-11.56,1L372.23,337l3.72-12Z" transform="translate(-234.8 -116)"/><path class="cls-3" d="M325.54,182.7c1.63-4.09,8.09-10.73,19.39-13.54L328.19,137.8a338.51,338.51,0,0,0-67.74,27.31l36.19,62.43a207.94,207.94,0,0,1,27.45-25.42c-1-6.75-.86-13.57,1.47-19.41m171.35-13.38,16.81-31.49a338.54,338.54,0,0,1,67.73,27.33l-20.62,35.58c-10.28-6.52-25-12.68-37.84-17l3.35-5.78a218,218,0,0,0-29.43-8.65" transform="translate(-234.8 -116)"/><path class="cls-1" d="M431.63,197.32a142.31,142.31,0,0,0-16.87-2.79c6.56-12.48,23.44-23.5,32-21-4.58,2.54-12.89,12.38-15.1,23.77m75.52-7.19,3.41-5.88a254.79,254.79,0,0,0-40.36-9.11,78.61,78.61,0,0,1-5.29,23.75c8.89,6.18,18.45,18.34,20.53,29.19-7.38-11-20.46-19.43-35.36-25.17,5.74-10.82,10.59-31.07,6.85-36.44-3.22-4.63-18.15-5.25-26.08-2-8.5,3.51-19.8,16.24-30.2,29.17.88-5,3.65-11.43,7.29-17.68-68.38,12.32-106.47,60.25-118.55,77.85a25.62,25.62,0,0,0,8.1,3c2.16-7.69,15.59-19.17,21.68-23.22-5.16,6.1-10.73,18.56-9.73,23.69,23.26-.22,36.86-29.92,73.89-26.93l-6.64,4.41c1.46,6.89-.24,19.81-16.93,22.34a25.4,25.4,0,0,1,11.6,6.27c-35.2-7.64-51,7.87-72.85,4.54-16.5,22.87-27.69,41.19-39.69,65.5,9.72-5.18,32.36-6.29,44.77-1.66l.63,11.35c-11.93,3.3-13.75,18.44,4.72,25.14,12.09,4.38,34.88,4.75,43.51-21.73,7.77-23.82,23.14-60.87,63.51-74.46L411.18,281c11.71,10.37,22.75,30.84,25.3,49.86a112.82,112.82,0,0,0-77.82,33.38c21-12.07,41.4-18.13,67.75-18.81,33.31-.87,42.09-21.18,32.42-48.67,12.5,9.6,16.16,29.15,7.92,43.23-6.44,11-20.21,16.23-38.09,15.82-20.38-.47-38.31,2.82-50.67,7.82l21.55,37.17,7-12.07,22.63,39.08L555.45,210c-12-7.71-32.71-15.79-48.3-19.84" transform="translate(-234.8 -116)"/></svg>