<?xml version="1.0" encoding="utf-8"?>
<!-- Generator: Adobe Illustrator 23.1.0, SVG Export Plug-In . SVG Version: 6.00 Build 0)  -->
<svg version="1.1" id="Eye" xmlns="http://www.w3.org/2000/svg" xmlns:xlink="http://www.w3.org/1999/xlink" x="0px" y="0px"
	 width="192px" height="192px" viewBox="0 0 192 192" enable-background="new 0 0 192 192" xml:space="preserve">
<path fill="#FFFFFF" d="M192,102.1c0,0-0.5-0.6-1.7-1.7c-0.3-0.3-0.6-0.5-0.9-0.9c-0.4-0.3-0.7-0.6-1.2-1c-0.8-0.7-1.8-1.5-3-2.4
	c-2.3-1.7-5.2-3.7-8.6-5.7c-3.5-2-7.5-4.1-12-6.1c-4.5-2-9.6-3.8-15-5.4c-5.4-1.6-11.3-2.9-17.4-3.9c-0.8-0.1-1.5-0.2-2.3-0.3
	c-0.8-0.1-1.5-0.2-2.3-0.3c-0.8-0.1-1.6-0.2-2.4-0.3c-0.8-0.1-1.6-0.2-2.4-0.3c-0.8-0.1-1.6-0.2-2.4-0.2c-0.8-0.1-1.6-0.1-2.5-0.2
	c-0.8-0.1-1.6-0.1-2.4-0.1c-0.8,0-1.5-0.1-2.3-0.1l-0.6,0l-0.3,0l-0.4,0l-1.2,0c-0.8,0-1.7,0-2.5,0c-1.7,0-3.3,0-5,0.1
	c-1.7,0.1-3.4,0.2-5.1,0.3c-1.7,0.1-3.4,0.3-5.1,0.5c-0.9,0.1-1.7,0.2-2.6,0.3c-0.9,0.1-1.7,0.3-2.6,0.4c-1.7,0.3-3.4,0.6-5.1,1.1
	c-1.5,0.4-3.1,0.8-4.6,1.2c3-2.5,6-4.8,9-6.9c3.7-2.6,7.5-4.8,11.3-6.7c1.9-0.9,3.8-1.7,5.8-2.4l0.4-0.1l0.2-0.1l0.1,0l0,0
	c0,0-0.1,0,0,0c0.3-0.1,0.5-0.2,0.8-0.2c0.5-0.2,1.1-0.3,1.6-0.5c1-0.3,1.9-0.5,2.9-0.8c2-0.5,3.9-0.9,5.8-1.2
	c1.9-0.3,3.8-0.6,5.6-0.8c7.2-0.7,13.4-0.3,17.8,0.3c2.2,0.3,3.9,0.6,5.1,0.9c1.2,0.3,1.8,0.4,1.8,0.4s-0.5-0.4-1.5-1.2
	c-1-0.7-2.5-1.7-4.5-2.9c-2-1.1-4.6-2.3-7.7-3.4c-3.1-1.1-6.7-2-10.7-2.6c-2-0.3-4.1-0.5-6.3-0.7c-0.3,0-0.6,0-0.8,0
	c-0.3,0-0.6,0-0.8,0c-0.6,0-1.1,0-1.7,0c-1.1,0-2.3,0-3.5,0.1c-1.2,0-2.4,0.2-3.7,0.3c-0.3,0-0.6,0.1-0.9,0.1
	c-0.3,0-0.6,0.1-0.8,0.1c-0.3,0-0.6,0.1-0.9,0.1c0.1,0-0.1,0-0.1,0l-0.1,0l-0.1,0l-0.2,0l-0.5,0.1c-2.5,0.3-5.1,0.8-7.7,1.6
	c-5.1,1.4-10.2,3.6-15,6.3c-4.8,2.7-9.2,5.9-13.3,9.2c-4.1,3.3-7.9,6.8-11.6,10.2c-3.6,3.3-7.1,6.5-10.4,9.4
	c-3.4,2.8-6.6,5.2-9.9,7.1c-3.2,1.9-6.5,3.1-9.7,3.9c-3.2,0.8-6.4,1-9.3,0.9c-2.9-0.1-5.5-0.4-7.7-0.7c-1.1-0.2-2.1-0.3-2.9-0.5
	c-0.4-0.1-0.8-0.2-1.2-0.2c-0.4-0.1-0.7-0.1-1-0.2C0.6,95.6,0,95.5,0,95.5s0.1,0.2,0.3,0.5c0.2,0.4,0.5,0.9,0.9,1.5
	c0.2,0.3,0.5,0.7,0.8,1.1c0.3,0.4,0.6,0.8,1,1.2c0.8,0.9,1.7,1.8,2.9,2.7c2.3,1.9,5.5,3.9,9.4,5.4c2,0.8,4.1,1.5,6.4,2.1
	c1.2,0.3,2.3,0.5,3.6,0.7c0.6,0.1,1.2,0.2,1.9,0.3l0.5,0.1l0.2,0c0,0,0.1,0,0.1,0l0.1,0l0.1,0c0.3,0,0.6,0.1,0.9,0.1l0.4,0.1l0.5,0
	c0.3,0,0.7,0.1,1,0.1c0.7,0,1.3,0.1,2,0.1c1.4,0.1,2.8,0,4.2,0c1.4-0.1,2.9-0.2,4.4-0.4c1.5-0.2,3-0.5,4.6-0.8
	c1.5-0.3,3.1-0.7,4.6-1.2c0.3-0.1,0.6-0.2,1-0.3c0.8,1.2,1.7,2.5,2.7,3.7c1,1.2,2.2,2.4,3.5,3.5c1.3,1.1,2.7,2.1,4.1,3
	c1.4,0.9,3,1.7,4.5,2.3c1.5,0.7,3.1,1.2,4.6,1.6c1.5,0.4,3.1,0.7,4.5,1c0.4,0.1,0.7,0.1,1.1,0.1c0.4,0,0.7,0.1,1.1,0.1
	c0.7,0,1.4,0.1,2,0.1c0.3,0,0.7,0,1,0c0.3,0,0.6,0,0.9,0c0.3,0,0.6,0,0.9,0c0.3,0,0.6,0,0.9-0.1c0.6,0,1.1-0.1,1.6-0.1
	c0.3,0,0.5-0.1,0.7-0.1c0.2,0,0.5-0.1,0.7-0.1c0.9-0.1,1.7-0.3,2.3-0.4c0.6-0.1,1.1-0.3,1.4-0.3c0.3-0.1,0.5-0.1,0.5-0.1
	s-0.2,0-0.5-0.1c-0.3-0.1-0.8-0.1-1.5-0.3c-0.6-0.1-1.3-0.3-2.2-0.5c-0.2-0.1-0.4-0.1-0.6-0.2c-0.2-0.1-0.4-0.1-0.7-0.2
	c-0.5-0.1-0.9-0.3-1.4-0.5c-0.2-0.1-0.5-0.2-0.7-0.3c-0.3-0.1-0.5-0.2-0.8-0.3c-0.3-0.1-0.5-0.2-0.8-0.3c-0.3-0.1-0.5-0.3-0.8-0.4
	c-0.5-0.2-1.1-0.5-1.6-0.8c-0.3-0.1-0.5-0.3-0.8-0.5c-0.3-0.2-0.5-0.3-0.8-0.5c-1.1-0.7-2.1-1.4-3.1-2.2c-1-0.8-1.9-1.7-2.7-2.6
	c-0.8-0.9-1.6-1.9-2.2-2.9c-0.6-1-1.2-2-1.6-2.9c-0.4-1-0.8-1.9-1-2.7c-0.2-0.8-0.3-1.5-0.4-2.2c0.3-0.1,0.6-0.3,0.9-0.4
	c0.7-0.3,1.3-0.6,1.9-0.8c0.6-0.3,1.3-0.5,1.9-0.8c2.2-0.9,4.4-1.7,6.6-2.4c1.9,8.6,9.5,14.9,18.5,14.9c0.7,0,1.5,0,2.2-0.1
	c10-1.2,17.3-10.1,16.7-20.1c0.7,0,1.3,0,1.9,0c0.7,0,1.4,0,2.1,0c0.7,0,1.4,0,2.1,0c1.4,0,2.9,0,4.3,0c0.7,0,1.4,0,2.1,0
	c0.4,0,0.7,0,1.1,0c0.4,0,0.7,0,1.1,0c5.6,0.2,11.1,0.5,16.3,0.9c0.1,0,0.3,0,0.4,0c-0.9,0.4-1.9,0.9-2.8,1.4
	c-4.4,2.3-8.3,5.3-11.8,8.5c-3.5,3.1-6.8,6.4-9.8,9.5c-3.1,3.1-6,6-9,8.5c-3,2.5-6,4.7-9.1,6.5c-1.6,0.9-3.2,1.6-4.8,2.3
	c-0.4,0.2-0.8,0.3-1.2,0.5c-0.2,0.1-0.4,0.2-0.6,0.2l0,0c0,0-0.1,0,0.1,0l-0.1,0l-0.2,0.1l-0.4,0.1c-0.5,0.1-0.9,0.3-1.4,0.4
	c-0.4,0.1-0.8,0.2-1.2,0.3c-0.4,0.1-0.8,0.2-1.2,0.3c-0.4,0.1-0.8,0.2-1.2,0.3c-0.4,0.1-0.8,0.2-1.2,0.3c-0.4,0.1-0.8,0.1-1.2,0.2
	c-1.6,0.3-3.2,0.5-4.7,0.6c-3.1,0.2-6,0.2-8.6-0.1c-1.3-0.1-2.5-0.3-3.6-0.5c-1.1-0.2-2.2-0.4-3.1-0.7c-1.9-0.5-3.4-1-4.4-1.4
	c-1-0.4-1.5-0.6-1.5-0.6s0.3,0.5,1,1.3c0.7,0.8,1.9,2,3.5,3.3c0.8,0.6,1.8,1.3,2.8,2c1.1,0.7,2.3,1.4,3.6,2c2.7,1.3,5.9,2.5,9.5,3.3
	c0.5,0.1,0.9,0.2,1.4,0.3c0.5,0.1,0.9,0.2,1.4,0.2c0.5,0.1,1,0.1,1.5,0.2c0.5,0.1,1,0.1,1.5,0.1c0.5,0,1,0.1,1.5,0.1
	c0.5,0,1,0,1.6,0c0.5,0,1,0,1.6,0c0.5,0,1.1,0,1.6,0c0.6,0,1.1-0.1,1.7-0.1c0.5,0,1-0.1,1.5-0.1l0.4,0l0.2,0l0.1,0
	c0.2,0,0.1,0,0.2,0l0.1,0c0.3,0,0.6-0.1,0.9-0.1c0.6-0.1,1.1-0.2,1.7-0.3c2.3-0.4,4.6-1,7-1.8c4.6-1.6,9.1-4,13.2-6.8
	c4.1-2.8,7.7-6.1,11-9.3c3.3-3.2,6.4-6.5,9.3-9.4c2.9-2.9,5.7-5.5,8.6-7.6c2.8-2.1,5.7-3.7,8.7-4.8c3-1.1,6.1-1.8,9.1-2.1
	c3-0.3,6-0.3,8.6-0.2c2.7,0.1,5,0.3,7,0.5c1,0.1,1.9,0.2,2.7,0.3c0.8,0.1,1.4,0.2,2,0.2C191.3,102.1,191.9,102.2,192,102.1
	c-0.1,0.1-0.2,0-0.3-0.1C191.9,102.1,192,102.1,192,102.1z M98.1,104.9c-0.4,0-0.8,0.1-1.3,0.1c-5.2,0-9.6-3.8-10.5-8.8
	c0.4-0.1,0.7-0.2,1.1-0.2c1.4-0.3,2.7-0.6,4.1-0.8c0.7-0.1,1.4-0.2,2.1-0.3c0.7-0.1,1.4-0.2,2.1-0.3c2.8-0.4,5.7-0.7,8.6-0.9
	c1-0.1,2-0.1,3.1-0.2C107.9,99.1,103.8,104.3,98.1,104.9z"/>
</svg>
