<?xml version="1.0" encoding="utf-8"?>
<!-- Generator: Adobe Illustrator 24.0.0, SVG Export Plug-In . SVG Version: 6.00 Build 0)  -->
<svg version="1.1" id="Layer_1" xmlns="http://www.w3.org/2000/svg" xmlns:xlink="http://www.w3.org/1999/xlink" x="0px" y="0px"
	 viewBox="0 0 192 192" style="enable-background:new 0 0 192 192;" xml:space="preserve">
<style type="text/css">
	.st0{fill:#A80414;}
	.st1{fill:#0A0D12;}
	.st2{fill:#FFFFFF;}
	.st3{fill:#515761;}
	.st4{fill:#252933;}
	.st5{fill:#7B818C;}
	.st6{fill:#850303;}
</style>
<g>
	<path class="st0" d="M110.15,42.46c-0.69-0.59-1.41-1.16-2.14-1.69c-3.34-2.44-6.65-3.43-9.59-4.46l0.96,3.35
		c-4.74-2.75-9.55-5.66-14.1-8.71c0.13,3.14,0.2,5.68,0.85,8.79c-0.35-0.14-0.69-0.3-1.03-0.46c-2.74-1.24-5.62-2.8-8.15-5.07
		l0.1,3.56c-0.1-0.09-0.21-0.2-0.31-0.3c-1.72-1.67-3.53-3.43-5.1-5.25c-3.25-3.78-4.72-6.47-5.27-9.72
		c-4.21,3.18-10.58,12.9-10.87,21.72l-1.04-2.06c-1.06,2.72-2.74,10.96-0.18,17.12c0.06,0.17,0.14,0.34,0.22,0.51l-2.95-2.5
		l-0.07,5.36c-0.03,2.27,0.35,5.04,1.06,7.2c0.31,0.95,0.74,2.07,1.26,3.13c-2.69,2.36-5.38,5.21-7.39,7.95
		c-3.92,5.37-4.94,11.24-5.18,15.47c2.4-1.24,4.63-2.29,7.2-3.13c-0.04,0.07-0.07,0.13-0.09,0.2l-1.55,3.9
		c2.4-0.64,7.66-1.13,11.55-0.44c-1.71,1.92-2.63,4.37-3.35,6.8c3.72-0.82,6.61-1.38,11.04-0.96c0.43,0.05,0.96,0.12,1.51,0.22
		l0.47,0.99c1.19,2.54,2.67,5.25,4.28,7.55c1.43,2.03,3.51,4.25,5.47,5.79l2.24,1.75c0.56,2.55,1.42,5.06,2.58,7.01
		c6.15,10.43,20.86,10.43,27.01,0c1.16-1.96,2.02-4.46,2.58-7.01l2.24-1.75c1.97-1.54,4.05-3.75,5.47-5.79
		c1.6-2.29,3.09-5.01,4.28-7.55l0.47-0.99c0.55-0.1,1.08-0.17,1.51-0.22c4.43-0.42,5.91-0.22,10.55,0.69
		c-0.63-1.94-1.51-4.51-2.83-6.5c0-0.01-0.01-0.03-0.03-0.03c0.42-0.08,0.82-0.14,1.2-0.18c3.17-0.6,6.45-0.2,10.04,0.69
		c-0.16-0.99-0.83-3.13-1.33-4.16c2.92,0.83,4.63,1.71,7.25,2.99c-0.43-3.26-1.3-9.96-5.23-15.33c-2.01-2.74-4.71-5.59-7.39-7.95
		c0.52-1.06,0.95-2.18,1.26-3.13c1.36-4.15,1.36-10.44,0.99-12.59l-2.95,2.54c0.08-0.17,0.16-0.34,0.22-0.51
		c2.83-6.83,1.21-13.99-0.53-18.31l-0.96,2.41c-0.18-1.38-0.47-4.42-0.87-5.75c-2.01-6.57-4.88-10.23-9.37-15.03
		c-1.17,3.02-2.61,6.11-5.62,9.63c-1.56,1.83-3.38,3.58-5.1,5.25C113.71,39.15,111.95,40.82,110.15,42.46z"/>
	<path class="st0" d="M77.01,154.04c-1.32,0.78-2.8,1.28-4.31,1.58v7.65l-18.81-8.68v-20.45l-11.97-13.5h14.76c1.28,0,2.57,0,3.85,0
		c24.58,0,49.17,0,73.75,0h16.53l-14.43,13.83v20.01l-18.73,9.24v-7.98l-1.15-0.12c-1.81-0.2-3.62-0.39-5.45-0.59l-4.74-0.5
		c-0.56,0.04-1.13,0.03-1.71,0c-2.07-0.13-4.15-0.22-6.22-0.26c-1.75-0.04-3.51-0.38-5.1-1.1c-1.56,0.72-3.32,1.07-5.04,1.12
		c-2.07,0.07-4.15,0.17-6.22,0.33C80.34,154.74,78.6,154.59,77.01,154.04z"/>
	<polygon class="st0" points="96.36,75.53 143.13,93.24 131.06,146.32 96.36,169.24 61.67,146.32 49.6,93.24 	"/>
	<polygon class="st1" points="96.36,73.74 139.37,94.91 128.23,144.41 96.36,165.46 64.5,144.41 53.35,94.91 	"/>
	<path class="st1" d="M134.28,123.39h9.63l-10.31,9.88v19.47l-13.19,6.5v-6.01l-3.61-0.38c-1.82-0.2-3.64-0.39-5.45-0.59l-3.47-0.36
		v-0.39c-0.98,0.23-2.02,0.31-3.1,0.25c-2.11-0.13-4.22-0.22-6.35-0.27c-1.94-0.04-3.77-0.53-5.15-1.5
		c-1.38,0.98-3.19,1.47-5.14,1.54c-2.11,0.06-4.22,0.17-6.33,0.33c-1.92,0.14-3.72-0.18-5.14-0.99c-1.36,1.2-3.26,1.89-5.47,2.19
		c-0.43,0.05-0.85,0.12-1.26,0.17v5.71l-13.28-6.13v-19.74l-8.58-9.69h8.6c1.28,0,2.57,0,3.85,0
		C85.69,123.39,110.1,123.39,134.28,123.39z"/>
	<g>
		<path class="st2" d="M74.8,129.94c0-1.6-1.12-2.67-3.34-2.67c-1.23,0-2.45,0-3.68,0c-2.41,0-4.84,0-7.26,0c-1.29,0-2.57,0-3.85,0
			l3.85,4.35v18.72l5.54,2.55c0-0.99,0-1.98,0-2.97c1.54-0.25,3.08-0.5,4.63-0.7c3.21-0.42,4.38-1.51,4.38-3.94c0-1.89,0-3.79,0-5.7
			c0-0.96-0.66-1.84-2.2-1.81c1.46-0.39,1.93-1.26,1.93-2.35C74.8,133.59,74.8,131.76,74.8,129.94z M68.92,131.25
			c0.38,0,0.5,0.14,0.5,0.43c0,1.45,0,2.89,0,4.34c0,0.4-0.31,0.61-0.69,0.64c-0.89,0.07-1.76,0.12-2.63,0.18c0-1.84,0-3.66,0-5.5
			C67.03,131.31,67.97,131.28,68.92,131.25z M69.49,144.94c0,0.34-0.12,0.47-0.57,0.53c-0.95,0.12-1.89,0.25-2.83,0.38
			c0-1.84,0-3.66,0-5.49c0.85-0.08,1.69-0.16,2.55-0.23c0.5-0.05,0.85,0.08,0.85,0.59C69.49,142.13,69.49,143.53,69.49,144.94z"/>
		<path class="st2" d="M85.86,130.86c0.39-0.01,0.51,0.13,0.51,0.39c0,2.07,0,4.15,0,6.23c0,2.07,0,4.16,0,6.23
			c0,0.31-0.08,0.43-0.55,0.44c-0.72,0.04-1.42,0.07-2.12,0.09c-0.47,0.03-0.55-0.08-0.55-0.4c0-2.09,0-4.18,0-6.28
			c0-2.09,0-4.18,0-6.28c0-0.26,0.12-0.39,0.51-0.4C84.39,130.88,85.12,130.86,85.86,130.86z M92.05,129.9
			c0-1.59-1.16-2.63-3.79-2.63c-2.32,0-4.64,0-6.96,0c-2.63,0-3.79,1.08-3.79,2.74c0,2.56,0,5.11,0,7.66c0,2.55,0,5.11,0,7.66
			c0,1.6,0.89,2.89,4.03,2.66c2.16-0.16,4.33-0.26,6.49-0.33c3.13-0.1,4.03-1.45,4.03-2.99c0-2.46,0-4.93,0-7.39
			C92.05,134.83,92.05,132.36,92.05,129.9z"/>
		<path class="st2" d="M102.85,130.86c0.39,0,0.51,0.14,0.51,0.4c0,2.09,0,4.17,0,6.26c0,2.09,0,4.17,0,6.26
			c0,0.31-0.08,0.43-0.55,0.4c-0.72-0.03-1.42-0.05-2.12-0.08c-0.47-0.01-0.55-0.12-0.55-0.43c0-2.07,0-4.15,0-6.22
			c0-2.07,0-4.15,0-6.22c0-0.26,0.12-0.39,0.51-0.39C101.37,130.85,102.1,130.86,102.85,130.86z M109.03,129.98
			c0-1.64-1.15-2.71-3.78-2.71c-2.32,0-4.64,0-6.96,0c-2.63,0-3.79,1.04-3.79,2.63c0,2.46,0,4.93,0,7.39c0,2.46,0,4.93,0,7.39
			c0,1.54,0.89,2.88,4.03,2.95c2.16,0.05,4.33,0.14,6.49,0.27c3.14,0.2,4.01-1.09,4.01-2.69c0-2.54,0-5.08,0-7.61
			C109.03,135.06,109.03,132.52,109.03,129.98z"/>
		<path class="st2" d="M124.28,139.61c0,2.24,0,4.48,0,6.71c0,2.24,0,4.47,0,6.7l5.45-2.69v-18.71l4.55-4.37c-3.47,0-6.95,0-10.42,0
			c-0.52,1.64-1.06,3.26-1.58,4.88c-0.52,1.59-1.04,3.18-1.56,4.77c-0.51-1.63-1.03-3.26-1.54-4.86c-0.5-1.6-1.02-3.19-1.53-4.78
			c-2.74,0-3.15,0-5.91,0c0,1.28,0,2.56,0,3.82c0,2.89,0,5.79,0,8.68c0,2.88,0,5.77,0,8.67c1.81,0.18,3.62,0.39,5.45,0.57
			c0-1.66,0-3.31,0-4.97c0-1.66,0-3.31,0-4.95l3.27,6.22L124.28,139.61z"/>
	</g>
	<path class="st1" d="M110.16,45.86c1.3-1.17,9.16-8.34,12.3-12.01c3.42-4,4.54-6.66,4.54-6.66s4.04,4.3,6.13,11.15
		c2.09,6.86,0.35,13.65,0.35,13.65s1.21-0.94,1.89-1.75c0.68-0.8,1.07-1.79,1.07-1.79s1.19,4.91-0.86,9.84
		c-2.03,4.94-5.75,7.96-5.75,7.96s2.11-0.05,4.13-0.9c2.02-0.83,4.22-2.71,4.22-2.71s0.04,3.4-0.94,6.39
		c-0.98,2.97-2.12,4.46-2.12,4.46s5.11,4.09,8.62,8.89c3.51,4.8,4.22,9.87,4.22,9.87s-2.67-1.38-5.87-2.09
		c-3.21-0.72-5.61-0.73-5.61-0.73s2.29,1.36,3.38,2.53c1.1,1.17,1.67,2.49,1.67,2.49s-3.26-0.65-6.78-0.25
		c-3.51,0.4-6.06,1.6-6.06,1.6s2.29,1.64,3.28,2.78c1,1.13,1.38,2.02,1.38,2.02s-3.22-0.78-7.44-0.38c-4.22,0.4-6.36,1.83-6.36,1.83
		l2.33,0.82c0,0-1.93,4.13-4.07,7.18c-2.12,3.04-4.95,5.24-4.95,5.24s0.53-1.63,0.76-4.04c0.22-2.42,0.03-4.25,0.03-4.25
		s-0.38,0.94-1.25,2.46c-0.86,1.54-1.93,2.98-1.93,2.98s-0.16,5.74-3.04,10.62c-2.82,4.74-7.3,6.39-11.34,6.61
		c-4.04-0.22-8.53-1.86-11.34-6.61c-2.88-4.89-3.04-10.62-3.04-10.62s-1.07-1.45-1.93-2.98c-0.87-1.53-1.25-2.46-1.25-2.46
		s-0.2,1.83,0.03,4.25c0.22,2.41,0.76,4.04,0.76,4.04s-2.83-2.2-4.95-5.24c-2.14-3.05-4.07-7.18-4.07-7.18l2.33-0.82
		c0,0-2.14-1.42-6.36-1.83c-4.22-0.4-7.44,0.38-7.44,0.38s0.38-0.89,1.38-2.02c0.99-1.13,3.29-2.78,3.29-2.78s-2.56-1.2-6.06-1.6
		c-3.52-0.4-6.78,0.25-6.78,0.25s0.57-1.32,1.67-2.49c1.08-1.17,3.38-2.53,3.38-2.53s-2.4,0.01-5.61,0.73
		c-3.19,0.7-5.87,2.09-5.87,2.09s0.72-5.07,4.22-9.87c3.51-4.8,8.62-8.89,8.62-8.89s-1.15-1.49-2.12-4.46
		C53.97,66.05,54,62.65,54,62.65s2.2,1.88,4.22,2.71c2.02,0.85,4.13,0.9,4.13,0.9s-3.72-3.02-5.75-7.96
		c-2.05-4.93-0.86-9.84-0.86-9.84s0.39,0.99,1.07,1.79c0.68,0.81,1.89,1.75,1.89,1.75s-1.73-6.79,0.35-13.65
		c2.09-6.84,6.13-11.15,6.13-11.15s1.12,2.66,4.54,6.66c2.75,3.22,9.14,9.12,11.55,11.33c-0.12-0.26-0.23-0.52-0.35-0.81
		c-0.89-2.15-1.21-5.44-1.21-5.44s1.3,1.26,4.35,2.65c3.04,1.37,5.91,2.19,5.91,2.19s-0.47-0.91-1.04-3.13
		c-0.57-2.22-0.95-5.2-0.95-5.2s0.86,0.73,5.44,3.58c4.59,2.84,11.05,6.37,11.05,6.37s-0.22-0.65-0.81-2.09
		c-0.57-1.45-1.24-2.99-1.24-2.99s1.8,0.78,4.11,2.46C108.17,44,109.52,45.25,110.16,45.86z"/>
	<path class="st3" d="M129.14,55.36c0,0,1.73-2.79,1.6-9.55c-0.14-6.75-3.65-12.04-3.65-12.04s-3.06,4.63-9.69,11.29
		c-5.85,5.89-11.18,9.07-12.34,9.74c0.29-0.35,0.74-0.94,1.21-1.63c0.77-1.19,1.21-1.96,1.21-1.96s-4.29-2.33-7.7-4.29
		c-3.43-1.96-5.45-3.43-5.45-3.43s0.51,1.92,1.63,4.35c1.11,2.45,2.46,3.91,2.46,3.91s-1.34-0.52-2.52-1.16
		c-1.16-0.65-2.06-1.42-2.06-1.42s-2.37-0.68-4.74-1.55c-2.39-0.86-3.3-1.42-3.3-1.42c1.39,4.26,2.83,6.74,5.16,10.19
		c-6.19-2.96-10.69-6.35-15.66-11.34c-6.62-6.66-9.69-11.29-9.69-11.29s-3.52,5.29-3.65,12.04c-0.13,6.77,1.6,9.55,1.6,9.55
		c-1.38-9.44,2.4-14.33,2.4-14.33l0.22-2.71c0,0,1.89,3.66,4.28,7.03c2.37,3.35,6.92,9.15,6.92,9.15s0.35,1.8,0.23,3.21
		c-0.1,1.41-0.6,2.72-0.6,2.72s-0.35-1.04-1.67-2.46c-1.3-1.42-2.62-1.8-2.62-1.8s0.78,1.2,0.94,3.6c0.16,2.4-0.66,4.33-0.66,4.33
		s-0.14-0.7-0.56-1.52c-0.42-0.82-1.13-1.63-1.13-1.63s0.29,1.8,0.07,3.72c-0.22,1.9-0.79,3.4-0.79,3.4l-0.27-0.91
		c0,0-0.99,0.17-2.5,0c-1.51-0.18-2.89-0.65-2.89-0.65s0.33,0.95,0.99,1.9c0.66,0.95,1.55,1.81,1.55,1.81S66,70.5,63.78,70.34
		c-2.23-0.16-4.15-0.61-4.15-0.61s0.83,1.93,2.71,3.7c1.89,1.79,4.51,3.19,4.51,3.19s-1.36,0.18-3.01-0.08
		c-1.64-0.26-3.18-0.8-3.18-0.8s-2.74,1.66-5.84,4.59c-3.12,2.93-5.01,6.01-5.01,6.01s2.31-1.89,5.14-3.02
		c2.82-1.13,4.68-1.49,4.68-1.49s-0.93,0.53-1.86,1.46c-0.93,0.93-1.8,2.01-1.8,2.01s3.36-0.73,8.2-0.6
		c4.85,0.14,7.07,1.19,7.07,1.19s-1.17,0.1-3.53,1.02c-2.35,0.91-4.07,2.15-4.07,2.15s2.01-0.33,6.3,0.09
		c4.29,0.43,6.4,1.64,6.4,1.64s-1.43,0.03-2.91,0.51c-1.46,0.47-2.26,1.06-2.26,1.06s1.41,0.63,2.59,1.8
		c1.19,1.17,2.84,2.88,2.84,2.88s0.25-0.74,0.86-1.81c0.6-1.07,0.98-1.55,0.98-1.55s0.03,1.82,0.96,4.67
		c0.93,2.84,3.75,7.44,3.75,7.44s0.6-1.64,0.33-4.42c-0.26-2.78-1.62-4.91-1.62-4.91s1.11,0.53,2.24,1.85
		c1.13,1.3,1.73,3.66,1.73,3.66s0.53-1.62,0.25-3.78c-0.29-2.15-1.42-2.82-2.99-4.11c-1.55-1.29-2.12-2.42-2.12-2.42
		s1.34,0.91,2.59,1.24c1.26,0.31,2.65,0.2,2.65,0.2s-0.86-0.34-1.85-0.93c-1-0.57-1.9-1.13-2.36-1.6c-0.46-0.48-1.79-2.75-1.79-2.75
		l-1.81-1.71c0,0,0.01,0.99,0.14,1.96c0.13,0.96,0.55,1.84,0.55,1.84s-1.28-1.12-1.97-2.8c-0.69-1.69-0.94-3.43-0.94-3.43
		s-0.2-0.7-0.91-2.11c-0.7-1.39-2.58-2.65-2.58-2.65s2.05-0.13,4.33,0.31c2.29,0.44,3.47,1.09,3.47,1.09s-0.85-0.06-1.86-0.05
		c-1.02,0.03-1.88,0.23-1.88,0.23s0.74,1.49,1.54,2.44c0.81,0.95,1.07,1.17,3.27,2.27c2.2,1.08,4.55,2.59,4.8,2.85
		c0.26,0.26,0.87,0.96,1.76,2.82c0.89,1.84,2.31,4.64,2.44,7.93c0.14,3.28-0.68,5.71-0.68,5.71s0.08-1.55-0.18-3.04
		c-0.27-1.5-1.03-2.99-1.03-2.99s-0.46,2.61-1.15,6.14c-0.69,3.53-1.56,7.08-1.63,10.47c-0.08,4.15,5.27,10.3,10.64,10.23
		c4.68-0.07,10.35-5.94,10.55-10.15c0.2-4.29-1.2-7.01-1.89-10.55c-0.69-3.53-1.16-6.14-1.16-6.14s-0.74,1.49-1.02,2.99
		c-0.26,1.49-0.18,3.04-0.18,3.04s-0.82-2.42-0.68-5.71c0.13-3.28,1.55-6.09,2.44-7.93c0.89-1.85,1.5-2.56,1.76-2.82
		c0.25-0.26,2.59-1.77,4.8-2.85c2.2-1.09,2.46-1.32,3.27-2.27c0.8-0.95,1.54-2.44,1.54-2.44s-0.86-0.21-1.88-0.23
		c-1.02-0.01-1.86,0.05-1.86,0.05s1.17-0.65,3.47-1.09c2.28-0.44,4.33-0.31,4.33-0.31s-1.88,1.25-2.58,2.65
		c-0.72,1.41-0.91,2.11-0.91,2.11s-0.25,1.73-0.94,3.43c-0.69,1.68-1.97,2.8-1.97,2.8s0.42-0.87,0.55-1.84
		c0.13-0.96,0.14-1.96,0.14-1.96l-1.81,1.71c0,0-1.33,2.27-1.79,2.75c-0.46,0.47-1.36,1.03-2.36,1.6c-1,0.59-1.85,0.93-1.85,0.93
		s1.38,0.12,2.65-0.2c1.25-0.33,2.59-1.24,2.59-1.24s-0.57,1.13-2.14,2.42c-1.55,1.29-2.69,1.96-2.97,4.11
		c-0.29,2.16,0.25,3.78,0.25,3.78s0.6-2.36,1.73-3.66c1.13-1.32,2.24-1.85,2.24-1.85s-1.36,2.14-1.62,4.91
		c-0.27,2.78,0.33,4.42,0.33,4.42s2.83-4.6,3.75-7.44c0.94-2.84,0.95-4.67,0.95-4.67s0.38,0.48,0.99,1.55
		c0.61,1.07,0.86,1.81,0.86,1.81s1.66-1.71,2.84-2.88c1.19-1.17,2.59-1.8,2.59-1.8s-0.79-0.59-2.25-1.06
		c-1.47-0.48-2.91-0.51-2.91-0.51s2.11-1.21,6.4-1.64c4.29-0.42,6.3-0.09,6.3-0.09s-1.72-1.24-4.07-2.15
		c-2.36-0.91-3.53-1.02-3.53-1.02s2.22-1.04,7.07-1.19c4.84-0.13,8.2,0.6,8.2,0.6s-0.87-1.08-1.8-2.01
		c-0.94-0.93-1.86-1.46-1.86-1.46s1.86,0.35,4.68,1.49c2.83,1.13,5.14,3.02,5.14,3.02s-1.89-3.08-5.01-6.01
		c-3.1-2.93-5.84-4.59-5.84-4.59s-1.54,0.53-3.19,0.8c-1.64,0.26-3,0.08-3,0.08s2.62-1.41,4.51-3.19c1.88-1.77,2.7-3.7,2.7-3.7
		s-1.9,0.46-4.13,0.61c-2.22,0.16-3.69-0.13-3.69-0.13s0.89-0.86,1.55-1.81c0.66-0.95,0.99-1.9,0.99-1.9s-1.38,0.47-2.89,0.65
		c-1.51,0.17-2.5,0-2.5,0l-0.27,0.91c0,0-0.57-1.5-0.8-3.4c-0.22-1.92,0.07-3.72,0.07-3.72s-0.72,0.81-1.13,1.63
		c-0.43,0.82-0.56,1.52-0.56,1.52s-0.82-1.93-0.66-4.33c0.16-2.4,0.94-3.6,0.94-3.6s-1.32,0.38-2.62,1.8
		c-1.32,1.42-1.67,2.46-1.67,2.46s-0.5-1.32-0.6-2.72c-0.12-1.41,0.23-3.21,0.23-3.21s4.55-5.8,6.92-9.15
		c2.39-3.36,4.28-7.03,4.28-7.03l0.22,2.71C126.74,41.04,130.52,45.93,129.14,55.36z M96.36,79.37c0.7-0.47,1.77-1.21,2.84-2.07
		c1.77-1.45,3.38-3,3.38-3s-1.71,3.22-3.34,5.66c-1.33,2.02-2.5,3.34-2.88,3.74c-0.36-0.4-1.54-1.72-2.87-3.74
		c-1.63-2.44-3.34-5.66-3.34-5.66s1.6,1.55,3.38,3C94.6,78.16,95.67,78.91,96.36,79.37z M96.36,99.54l4.25-1.76l-4.25,4.65
		l-4.24-4.65L96.36,99.54z M86.59,81.84c0,0,1.82,2.18,2.93,4.86c1.12,2.69,1.41,4.17,1.41,4.17s-0.05,0.77-0.17,1.34
		c-0.1,0.56-0.25,0.85-0.25,0.85s0.91-0.76,1.49-1.59c0.59-0.82,0.85-1.8,0.85-1.8S91.1,85.38,86.59,81.84z M106.13,81.84
		c0,0-1.82,2.18-2.93,4.86c-1.12,2.69-1.41,4.17-1.41,4.17s0.05,0.77,0.17,1.34c0.1,0.56,0.25,0.85,0.25,0.85s-0.91-0.76-1.5-1.59
		c-0.57-0.82-0.83-1.8-0.83-1.8S101.62,85.38,106.13,81.84z"/>
	<path class="st4" d="M105.19,54.71c-0.46,0.44-0.9,0.85-1.26,1.16c-1.51,1.24-2.26,1.53-2.26,1.53s-1.28-0.23-3.38-1.29
		c-2.09-1.04-3.35-2.22-3.35-2.22s0.82,3.38,2.66,6.24c1.85,2.87,3.47,3.85,3.47,3.85s-6.83,1.26-14.04-2.28
		c2.4,5.83,4.77,8.34,7.55,10.47c6.41,0.21,11.48-5.31,11.48-5.31s-1.47,4.54-3.51,7.47l0.01-0.03c0,0-1.6,1.55-3.38,3
		c-1.07,0.86-2.14,1.6-2.84,2.07c-0.69-0.47-1.76-1.21-2.83-2.07c-1.77-1.45-3.38-3-3.38-3s1.71,3.22,3.34,5.66
		c1.32,1.99,2.46,3.3,2.85,3.73l0.23,3.77c0,0,2.99-2.91,5.85-4.61c2.87-1.71,5.1-2.09,5.1-2.09s-0.59,0.29-1.43,1.11l0.04-0.03
		c-4.51,3.55-6.26,7.83-6.26,7.83s0.26,0.98,0.83,1.8c0.59,0.83,1.5,1.59,1.5,1.59s-0.01-0.01-0.03-0.07
		c0.14,0.26,0.33,0.53,0.55,0.77c0.13,0.13,0.27,0.25,0.42,0.36c-0.23,0.65-0.46,1.36-0.64,2.1c-0.39,0.35-1.12,0.98-1.93,1.55
		l-4.22,1.76l-4.24-1.76l0.64,0.69c-0.82-0.33-1.63-0.57-2.28-0.76c-0.05-0.51-0.14-0.99-0.26-1.47l0,0
		c-0.1-0.47-0.23-0.93-0.39-1.38c-0.47-1.41-1.06-2.66-1.69-3.99c-0.89-1.85-1.5-2.56-1.76-2.82c-0.25-0.26-2.59-1.77-4.8-2.85
		c-2.2-1.09-2.46-1.32-3.27-2.27c-0.8-0.95-1.54-2.44-1.54-2.44s0.86-0.21,1.88-0.23c1.02-0.01,1.86,0.05,1.86,0.05
		s-1.17-0.65-3.47-1.09c-2.28-0.44-4.33-0.31-4.33-0.31s1.88,1.25,2.58,2.65c0.72,1.41,0.91,2.11,0.91,2.11s0.25,1.73,0.94,3.43
		c0.69,1.68,1.97,2.8,1.97,2.8s-0.42-0.87-0.55-1.84c-0.13-0.96-0.14-1.96-0.14-1.96l1.81,1.71c0,0,1.33,2.27,1.79,2.75
		c0.46,0.47,1.36,1.03,2.36,1.6c0.99,0.59,1.85,0.93,1.85,0.93s-1.38,0.12-2.65-0.2c-1.25-0.33-2.59-1.24-2.59-1.24
		s0.57,1.13,2.12,2.42c1.56,1.29,2.7,1.96,2.99,4.11c0.29,2.16-0.25,3.78-0.25,3.78s-0.6-2.36-1.73-3.66
		c-1.13-1.32-2.24-1.85-2.24-1.85s1.36,2.14,1.62,4.91c0.27,2.78-0.33,4.42-0.33,4.42s-2.83-4.6-3.75-7.44
		c-0.94-2.84-0.96-4.67-0.96-4.67s-0.38,0.48-0.98,1.55c-0.61,1.07-0.86,1.81-0.86,1.81s-1.66-1.71-2.84-2.88
		c-1.19-1.17-2.59-1.8-2.59-1.8s0.79-0.59,2.26-1.06c1.47-0.48,2.91-0.51,2.91-0.51s-2.11-1.21-6.4-1.64
		c-4.29-0.42-6.3-0.09-6.3-0.09s1.72-1.24,4.07-2.15c2.36-0.91,3.53-1.02,3.53-1.02s-2.22-1.04-7.07-1.19
		c-4.84-0.13-8.2,0.6-8.2,0.6s0.87-1.08,1.8-2.01c0.94-0.93,1.86-1.46,1.86-1.46s-1.86,0.35-4.68,1.49
		c-2.83,1.13-5.14,3.02-5.14,3.02s1.89-3.08,5.01-6.01c3.1-2.93,5.84-4.59,5.84-4.59s1.54,0.53,3.18,0.8
		c1.66,0.26,3.01,0.08,3.01,0.08s-2.62-1.41-4.51-3.19c-1.88-1.77-2.71-3.7-2.71-3.7s1.92,0.46,4.15,0.61
		c2.22,0.16,3.69-0.13,3.69-0.13s-0.89-0.86-1.55-1.81c-0.66-0.95-0.99-1.9-0.99-1.9s1.38,0.47,2.89,0.65c1.51,0.17,2.5,0,2.5,0
		l0.27,0.91c0,0,0.57-1.5,0.79-3.4c0.22-1.92-0.07-3.72-0.07-3.72s0.72,0.81,1.13,1.63c0.42,0.82,0.56,1.52,0.56,1.52
		s0.82-1.93,0.66-4.33c-0.16-2.4-0.94-3.6-0.94-3.6s1.32,0.38,2.62,1.8c1.32,1.42,1.67,2.46,1.67,2.46s0.5-1.32,0.6-2.72
		c0.12-1.41-0.23-3.21-0.23-3.21s-4.55-5.8-6.92-9.15c-2.39-3.36-4.28-7.03-4.28-7.03l-0.22,2.71c0,0-3.78,4.89-2.4,14.33
		c0,0-1.73-2.79-1.6-9.55c0.13-6.75,3.65-12.04,3.65-12.04s3.06,4.63,9.69,11.29c4.97,4.99,9.46,8.38,15.66,11.34
		c-2.33-3.45-3.77-5.93-5.16-10.19c0,0,0.91,0.56,3.3,1.42c2.37,0.87,4.74,1.55,4.74,1.55s0.9,0.77,2.06,1.42
		c1.17,0.64,2.52,1.16,2.52,1.16s-1.36-1.46-2.46-3.91c-1.12-2.44-1.63-4.35-1.63-4.35s2.02,1.47,5.45,3.43
		c3.42,1.96,7.7,4.29,7.7,4.29s-0.44,0.77-1.21,1.96c-0.47,0.69-0.93,1.28-1.21,1.63C105.1,54.76,105.15,54.74,105.19,54.71z"/>
	<path class="st4" d="M113.65,89.87c-0.14,0.21-0.31,0.42-0.48,0.61c-0.42,0.43-0.98,0.87-1.45,1.21c0.01-0.03,0.01-0.04,0.01-0.04
		s-1.34,0.91-2.59,1.24c-1.26,0.31-2.65,0.2-2.65,0.2s0.85-0.34,1.85-0.93c1-0.57,1.9-1.13,2.36-1.6c0.46-0.48,1.79-2.75,1.79-2.75
		l1.81-1.71c0,0-0.01,0.99-0.14,1.96c-0.13,0.96-0.55,1.84-0.55,1.84S113.63,89.89,113.65,89.87z"/>
	<path class="st4" d="M110,93.73c-0.21,0.36-0.52,0.96-0.73,1.62c-0.33,1.04-0.35,1.58-0.35,1.58s0.85-0.69,2.4-1.67
		c1.56-0.98,2.84-1.79,2.84-1.79s0.05,0.09,0.1,0.22c0,0.14-0.05,1.93-0.95,4.65c-0.93,2.84-3.75,7.44-3.75,7.44
		s-0.6-1.64-0.33-4.42c0.26-2.78,1.62-4.91,1.62-4.91s-1.11,0.53-2.24,1.85c-1.13,1.3-1.73,3.66-1.73,3.66s-0.53-1.62-0.25-3.78
		c0.29-2.15,1.42-2.82,2.97-4.11C109.74,93.96,109.87,93.84,110,93.73z"/>
	<path class="st4" d="M115.27,95.23c0.35-0.47,1.45-1.85,2.46-2.87c0.47-0.48,0.9-0.86,1.25-1.16c0.1,0.04,0.21,0.07,0.31,0.1
		c1.46,0.47,2.25,1.06,2.25,1.06s-1.41,0.63-2.59,1.8c-1.19,1.17-2.84,2.88-2.84,2.88S115.87,96.29,115.27,95.23z"/>
	<path class="st1" d="M86.59,81.84c0,0,1.82,2.18,2.93,4.86c1.12,2.69,1.41,4.17,1.41,4.17s-0.05,0.77-0.17,1.34
		c-0.1,0.56-0.25,0.85-0.25,0.85s0.91-0.76,1.49-1.59c0.59-0.82,0.85-1.8,0.85-1.8S91.1,85.38,86.59,81.84z"/>
	<path class="st3" d="M89.23,79.37c0,0-2.07-2.79-3.58-5.58c-1.5-2.8-2.24-4.76-2.24-4.76s-0.26,1.9-0.2,4.07
		c0.07,2.15,0.4,3.51,0.4,3.51S85.13,79.13,89.23,79.37z M88,88.63c-0.94-3.9-2.59-5.58-4.99-7.17c0,0-1.28-0.06-2.03,0.33
		c-0.77,0.38-1.08,0.9-1.08,0.9s2.89,1.34,4.91,2.71C86.84,86.78,88,88.63,88,88.63z"/>
	<path class="st5" d="M125.95,39.38c-1.15,1.2-5.16,5.25-9.8,8.81c-3.75,2.88-6.93,4.37-8.58,5.03c2.36-1.59,5.98-4.29,9.84-8.17
		c6.62-6.66,9.69-11.29,9.69-11.29s3.51,5.29,3.65,12.04c0.13,6.77-1.6,9.55-1.6,9.55c1.38-9.44-2.4-14.33-2.4-14.33l-0.22-2.71
		C126.52,38.33,126.31,38.73,125.95,39.38z M106.65,87.82c0.74-0.52,2.67-1.72,4.5-2.62c2.2-1.09,2.46-1.32,3.27-2.27
		c0.8-0.95,1.54-2.44,1.54-2.44s-0.86-0.21-1.88-0.23c-0.25,0-0.48,0-0.69,0l1.21,0.53c0,0-0.46,0.83-0.98,1.47
		c-0.51,0.64-0.94,0.96-0.94,0.96s-2.15,1.37-3.74,2.58C107.92,86.6,107.1,87.38,106.65,87.82z M134.78,84.99
		c1.25,0.16,1.97,0.31,1.97,0.31s-0.87-1.08-1.8-2.01c-0.94-0.93-1.86-1.46-1.86-1.46h0.01c-0.53-0.26-1.1-0.48-1.64-0.66
		c-2.48-0.83-3.39-0.9-3.39-0.9s2.57,1.06,4.74,2.85C133.62,83.79,134.28,84.45,134.78,84.99z M138.26,83.53
		c2.59,1.13,4.64,2.82,4.64,2.82s-1.89-3.08-5.01-6.01c-3.1-2.93-5.84-4.59-5.84-4.59s-1.08,0.38-2.41,0.65
		c0.99,0.53,3.05,1.75,5.04,3.56C136.3,81.43,137.52,82.71,138.26,83.53z M125.93,76.62c-0.04,0-0.07,0-0.07,0s2.62-1.41,4.51-3.19
		c1.88-1.77,2.7-3.7,2.7-3.7s-1,0.23-2.4,0.43c-0.53,0.69-2.1,2.59-4.07,4.18c-2.45,1.98-4.85,3.12-4.85,3.12
		S124.12,77.12,125.93,76.62z M125.27,70.21h-0.01c0,0,0.89-0.86,1.55-1.81c0.66-0.95,0.99-1.9,0.99-1.9s-0.68,0.23-1.6,0.43
		c-0.27,0.59-0.73,1.53-1.29,2.37c-0.91,1.36-1.41,1.79-1.41,1.79S124.47,70.71,125.27,70.21z M114.36,69.99c0,0,0.6-3.26,0.64-5.93
		c0.05-2.67-0.66-5.42-0.66-5.42s-0.25,1.67-1.73,3.87c-1.49,2.19-3.06,3.42-3.06,3.42s0.18-1.2,0.17-2.23
		c-0.03-1.03-0.21-1.98-0.21-1.98s-0.72,0.99-2.01,2.16c-1.29,1.16-2.75,1.9-2.75,1.9s1.84-0.51,2.74-1.07
		c0.9-0.55,1.47-1.1,1.47-1.1s0.01,1.3-0.16,2.39c-0.17,1.09-0.38,1.85-0.38,1.85s1.23-0.59,2.57-1.64c1.34-1.06,2.03-2.2,2.03-2.2
		s0.66,2.62,0.53,5.15c-0.14,2.54-0.34,3.36-0.34,3.36S114.1,71.45,114.36,69.99z"/>
	<path class="st3" d="M62.32,76.23c-1.06,0.64-4.6,2.89-6.84,5.15c-1.13,1.15-1.92,2.11-2.44,2.84c-1.88,1.03-3.22,2.12-3.22,2.12
		s1.89-3.08,5.01-6.01c3.1-2.93,5.84-4.59,5.84-4.59S61.36,75.99,62.32,76.23z M59.61,81.84c1.15-0.44,1.89-0.61,1.89-0.61
		s-1.52,1.11-2.62,2.42c-0.35,0.43-0.69,0.9-0.99,1.36c-1.21,0.16-1.92,0.3-1.92,0.3s0.87-1.08,1.8-2.01
		c0.94-0.93,1.86-1.46,1.86-1.46H59.61z M71.21,85.89c0.44,0.05,0.64,0.1,0.64,0.1s-1.81,0.6-3.74,1.66
		c-0.87,0.48-1.54,0.94-2.01,1.29c-1.67-0.01-2.46,0.12-2.46,0.12s1.72-1.24,4.07-2.15C69.83,86.09,71,85.92,71.21,85.89z"/>
	<path class="st1" d="M77.81,62.6c0,0,0.03,2.67,0.51,5.27c0.5,2.61,1.23,4.54,1.23,4.54l0.42,5.23c0,0-1.8-1.67-3.22-3.68
		c-1.42-1.99-1.89-3.82-1.89-3.82l1.63,0.63C76.48,70.76,76.2,66.57,77.81,62.6z M114.92,62.6c0,0-0.03,2.67-0.51,5.27
		c-0.5,2.61-1.23,4.54-1.23,4.54l-0.42,5.23c0,0,1.8-1.67,3.22-3.68c1.42-1.99,1.89-3.82,1.89-3.82l-1.63,0.63
		C116.25,70.76,116.52,66.57,114.92,62.6z"/>
	<path class="st0" d="M106.18,91.51c0,0,0.56-1.8,1.29-2.4c0.73-0.6,2.89-1.68,2.89-1.68s-0.64,1.89-1.37,2.66
		C108.27,90.87,106.9,91.3,106.18,91.51z M86.54,91.51c0,0-0.56-1.8-1.29-2.4c-0.73-0.6-2.89-1.68-2.89-1.68s0.64,1.89,1.37,2.66
		C84.45,90.87,85.82,91.3,86.54,91.51z"/>
	<path class="st6" d="M85.89,91.3c-0.18-0.39-0.51-0.99-0.96-1.47c-0.78-0.82-1.66-1.07-1.66-1.07s-0.08,0.27,0,0.69
		c-0.52-0.87-0.91-2.02-0.91-2.02s2.16,1.08,2.89,1.68c0.73,0.6,1.29,2.4,1.29,2.4C86.36,91.46,86.14,91.39,85.89,91.3z
		 M106.18,91.51c0,0,0.56-1.8,1.29-2.4c0.73-0.6,2.89-1.68,2.89-1.68s-0.39,1.15-0.91,2.02c0.08-0.42,0-0.69,0-0.69
		s-0.87,0.25-1.66,1.07c-0.46,0.48-0.78,1.08-0.96,1.47C106.59,91.39,106.37,91.46,106.18,91.51z"/>
	<path class="st0" d="M139.41,94.46c0,0-3.99-1.45-9.71,0.22c-5.74,1.68-7.81,4.52-7.81,4.52s1.5,0.04,2.53,0.23
		c1.04,0.18,1.81,0.44,1.81,0.44s-2.45,1.23-4.24,3.43c-1.8,2.19-3.05,5.12-3.05,5.12s2.42-3.45,5.66-5.63
		c3.23-2.18,6.24-2.55,6.24-2.55s-1.29-0.81-2.39-1.29c-1.11-0.48-1.41-0.53-1.41-0.53s2.14-1.24,6.2-0.99
		c4.08,0.25,7.57,1.55,7.57,1.55L139.41,94.46z M52.78,94.46c0,0,3.99-1.45,9.71,0.22c5.74,1.68,7.81,4.52,7.81,4.52
		s-1.5,0.04-2.53,0.23c-1.04,0.18-1.81,0.44-1.81,0.44s2.45,1.23,4.24,3.43c1.8,2.19,3.05,5.12,3.05,5.12s-2.42-3.45-5.66-5.63
		c-3.23-2.18-6.24-2.55-6.24-2.55s1.29-0.81,2.39-1.29c1.11-0.48,1.41-0.53,1.41-0.53s-2.14-1.24-6.2-0.99
		c-4.08,0.25-7.57,1.55-7.57,1.55L52.78,94.46z"/>
	<g>
		<polygon class="st3" points="65.7,121.39 62.06,107.15 76.4,115.21 68.88,113.96 70.77,121.39 		"/>
		<polygon class="st4" points="127.03,121.39 130.66,107.15 116.33,115.21 123.85,113.96 121.96,121.39 		"/>
	</g>
	<path class="st3" d="M84.13,151.59l12.23,8.08l12.08-7.98c-2.1-0.12-4.28-0.2-6.49-0.26l-5.59,3.69l-5.66-3.74
		C88.52,151.42,86.32,151.49,84.13,151.59z"/>
	<path class="st4" d="M96.36,155.12v3.08l6.22-2.63l5.87-3.87c-2.1-0.12-4.28-0.2-6.49-0.26L96.36,155.12L96.36,155.12z"/>
	<path class="st1" d="M108.84,87.53l0.26-1.94c0,0-0.18-2.26-1.37-4.51c-1.19-2.26-2.31-3.4-2.31-3.4s2.63,1.76,3.81,3.71
		c1.19,1.97,1.58,3.12,1.58,3.12l-0.09,1.86L108.84,87.53z"/>
	<path class="st1" d="M112.05,86.15l0.16-1.92c0,0-0.21-1.6-0.72-3.06c-0.52-1.47-1.2-2.53-1.2-2.53s2.1,1.97,2.76,3.55
		c0.66,1.56,0.81,2.87,0.81,2.87L112.05,86.15z"/>
	<path class="st1" d="M106.11,88.89c0,0-0.1-2.54-0.68-4.24c-0.57-1.69-1.16-2.67-1.16-2.67s1.77,1.99,2.63,3.56
		c0.85,1.56,0.99,2.27,0.99,2.27L106.11,88.89z"/>
	<path class="st3" d="M111.46,94.55c0,0,0.43,1.34,0.6,2.53c0.17,1.2,0.14,1.81,0.14,1.81s0.34-0.47,0.47-2.29
		c0.13-1.84,0.05-2.92,0.05-2.92L111.46,94.55z"/>
	<path class="st1" d="M113.15,86.24c0,0,0.38,1.28,0.44,2.32c0.08,1.03,0.03,1.42,0.03,1.42l0.64-0.74c0,0,0.42,0.56,0.56,1.68
		c0.14,1.11,0.08,2.46,0.08,2.46s0.66-1.62,0.73-3.1c0.05-1.47-0.31-2.85-0.31-2.85l-0.74,1.29c0,0,0.08-0.87-0.07-1.86
		c-0.14-0.99-0.4-1.67-0.4-1.67L113.15,86.24z"/>
	<path class="st1" d="M110.36,90.35l0.3,2.33l0.99-0.76c0,0,0.47,1.02,0.65,3.08c0.18,2.06-0.18,4.58-0.18,4.58s0.91-1.99,1.17-4.47
		c0.26-2.48-0.23-4.84-0.23-4.84l-0.86,0.76c0,0-0.08-0.96-0.31-1.75c-0.23-0.78-0.26-0.89-0.26-0.89L110.36,90.35z"/>
	<path class="st3" d="M107.62,95.84c0.18,0.36,0.47,1.02,0.59,1.69c0.1,0.52,0.16,0.85,0.2,1.03c0.01-0.03,0.04-0.05,0.07-0.09
		l0.37-3.75C108.36,95.09,107.96,95.43,107.62,95.84z"/>
	<path class="st1" d="M107.44,91.88c0,0,0.34,0.78,0.26,1.67c-0.09,0.9-0.27,1.68-0.27,1.68l0.74-0.44c0,0,0.18,0.9,0.17,2.66
		c-0.01,1.76-0.1,2.23-0.1,2.23s0.73-1.77,1.08-3.42c0.37-1.64,0.37-2.41,0.37-2.41l-0.65,0.1c0,0,0.2-0.8,0.18-1.59
		c0-0.78-0.05-1.5-0.05-1.5L107.44,91.88z"/>
	<path class="st5" d="M102.83,104.51c0.13,1.11,0.34,2.35,0.7,3.68c1.26,4.64,1.25,7.91,1.25,7.91s-0.38-0.17-1.21-0.22
		c-0.85-0.07-1.64,0.17-1.64,0.17l-2.36,4.67l-2.44,4.2l-0.01,0.38c4.55-0.51,9.78-6.07,9.96-10.12c0.2-4.29-1.2-7.01-1.89-10.55
		c-0.69-3.53-1.16-6.14-1.16-6.14s-0.74,1.49-1.02,2.99C102.76,102.96,102.83,104.51,102.83,104.51L102.83,104.51z"/>
	<path class="st4" d="M92.32,97.28c0,0-0.93,6.13-0.21,9.62c0.73,3.49,2.89,4.89,2.89,4.89c-1.81,0.01-3.05-0.7-4.34-2.01
		c-0.08,10.17,2.99,13.27,6.43,15.5c-0.18,0.03-0.36,0.04-0.55,0.04c-5.37,0.07-10.71-6.09-10.64-10.23
		c0.07-3.39,0.94-6.93,1.63-10.47c0.69-3.53,1.15-6.14,1.15-6.14s0.76,1.49,1.03,2.99c0.26,1.49,0.18,3.04,0.18,3.04
		s0.82-2.42,0.68-5.71c-0.03-0.8-0.13-1.56-0.29-2.29L92.32,97.28z"/>
	<path class="st1" d="M96.64,125.52c0,0,1.71-0.44,3.06-1.54c1.37-1.08,1.75-1.86,1.75-1.86l-1.55,0.07c0,0,0.42-0.96,1.66-1.88
		s2.22-1.13,2.22-1.13s-0.09-1.53-0.66-2.27c-0.57-0.73-0.98-0.91-0.98-0.91c-3.82,0.14-7.16,0.14-10.96,0c0,0-0.4,0.18-0.98,0.91
		c-0.57,0.74-0.66,2.27-0.66,2.27s0.98,0.22,2.22,1.13c1.23,0.91,1.66,1.88,1.66,1.88l-1.55-0.07c0,0,0.38,0.78,1.75,1.86
		C94.95,125.08,96.64,125.52,96.64,125.52z"/>
</g>
</svg>
