<svg xmlns="http://www.w3.org/2000/svg" viewBox="0 0 322.95 399.07"><defs><style>.cls-1{fill:#7b8e9e;}.cls-2{fill:#131316;}.cls-3{fill:#fff;}.cls-4{fill:#162e4c;}.cls-5{fill:#fbba28;}.cls-6{fill:#ffde73;}.cls-7{fill:#ae6816;}.cls-8{fill:#f9b216;}</style></defs><g id="Слой_2" data-name="Слой 2"><g id="Слой_3" data-name="Слой 3"><path class="cls-1" d="M81.94,366.65l-4.59.34-1.43-1.3-2.16-28a144.38,144.38,0,0,1,57.4-255.8l9.92-29.4L224.12,0l49.64,86L257,114.77A143.25,143.25,0,0,1,305.82,223c0,79.59-64.75,144.35-144.35,144.35a143.39,143.39,0,0,1-49.7-8.8L63.09,399.07Zm53.62-36.39A110.32,110.32,0,0,0,262.67,179.08Zm-27.62-10.82c.63.36,1.27.7,1.91,1l118-151.64-3.14-.27-25.45,7.9,6.86,13.76-57.33,33.23Zm9.77-197.7C78.15,139,51.14,178.7,51.14,223a110.63,110.63,0,0,0,34.71,80.26l27.91-79.35L84.13,221.3ZM143,192.34l29.51-12.45-6.64-16.66L198.82,147l12.93-22.16a109.77,109.77,0,0,0-50.28-12.14c-1.6,0-3.21,0-4.83.1l-26.46,78.44ZM168.1,78.8a143.79,143.79,0,0,1,60.83,16.56l5.5-9.42L212.35,47.67l-42.89,27.1Z"/><path class="cls-1" d="M296.13,325.79a793.43,793.43,0,0,0-89.52-10.19c-15-.84-30.14-1.27-45.14-1.27s-30.18.43-45.14,1.27a793,793,0,0,0-89.51,10.19L0,330.41v-125H323v125Z"/><path class="cls-2" d="M11.34,216.78H311.61V317l-13.55-2.34a804.74,804.74,0,0,0-90.81-10.33c-15.17-.86-30.57-1.29-45.78-1.29s-30.61.43-45.77,1.29a804.74,804.74,0,0,0-90.81,10.33L11.34,317Z"/><path class="cls-2" d="M242.33,117.39,260.65,86,220.2,15.89l-69.66,44L139.79,91.76A133,133,0,0,0,87.27,333.4L75.92,365.69l13.23-31.06A132.11,132.11,0,0,0,106,343.91L65.11,396.42,108.37,345a133,133,0,0,0,134-227.58Zm15.42,31.3-32-2.8,10.84-18.58A123.62,123.62,0,0,1,257.75,148.69ZM160,67.33l56.28-35.55L247.54,86,233,110.86A132.38,132.38,0,0,0,161.47,90c-3.1,0-6.18.12-9.22.32ZM39.8,223a121.88,121.88,0,0,1,95.83-118.9L99.48,211.27l22.84,2,7,.61L91.19,322.26A121.6,121.6,0,0,1,39.8,223ZM93.68,324l46.19-108.45,60.59-35.12-55.62,23.46-30-2.64,33.46-99.19a121.4,121.4,0,0,1,79,18.65L206.9,155.63l-36,17.77,52.58-16.32,26.13,2.28L113.18,334.66A121.85,121.85,0,0,1,93.68,324Zm67.79,20.68A121,121,0,0,1,116,335.86L254.18,171.57l10.66-12.67A121.61,121.61,0,0,1,161.47,344.67Z"/><circle class="cls-3" cx="161.47" cy="223" r="126.5"/><circle class="cls-1" cx="161.47" cy="223" r="110.33"/><path class="cls-4" d="M161.47,322a99,99,0,1,1,99-99A99.11,99.11,0,0,1,161.47,322Z"/><path class="cls-2" d="M161.47,90a133,133,0,1,0,133,133A133,133,0,0,0,161.47,90Zm0,254.68A121.67,121.67,0,1,1,283.14,223,121.81,121.81,0,0,1,161.47,344.67Z"/><path class="cls-5" d="M154.6,62,107.75,207.36l27.62,3.4L63.09,399.07l2-2.65L207.67,197.85l40.23-30.56s7.24-9.63,7.92-10.64-29.88-5.55-29.88-5.55l-9.63-1,11.78-20.94,25.62-44.95L233.63,52.61,218.92,25,177,47.51Z"/><polygon class="cls-6" points="132.47 148.94 163.9 72.42 203.59 47.36 172.4 131.55 217.48 62.61 222.76 26.68 197.71 36.8 153.63 66.53 131.14 129.78 132.47 148.94"/><polygon class="cls-6" points="139.87 215.54 182.8 197.74 65.11 396.42 207.67 186.53 200.46 180.42 168.35 195.21 138.58 210.68 139.87 215.54"/><polygon class="cls-6" points="170.92 173.4 223.44 161.17 236.73 162.08 200.46 180.42 228.65 174.46 252.35 161.55 250.84 154.16 208.58 156.42 180.5 160.87 170.92 173.4"/><polygon class="cls-7" points="200.46 180.42 249.63 159.36 252.8 165.25 65.11 396.42 200.46 180.42"/><polygon class="cls-7" points="114.83 201.24 149.27 184.15 200.46 180.42 143.22 208.57 108.73 206.15 114.83 201.24"/><polygon class="cls-7" points="170.92 173.4 149.27 184.15 216.28 31.78 236.05 50.38 253.71 88.57 213.26 156.5 194.18 165.02 170.92 173.4"/><polygon class="cls-2" points="225.71 145.89 260.65 86 220.2 15.89 150.54 59.89 99.48 211.27 122.32 213.28 129.3 213.89 75.92 365.65 139.87 215.54 200.46 180.42 144.84 203.88 114.83 201.24 160 67.33 216.28 31.78 247.54 85.97 206.9 155.63 170.92 173.4 223.5 157.08 249.63 159.36 65.11 396.42 254.18 171.57 272.35 149.97 225.71 145.89"/><path class="cls-2" d="M11.34,216.78H311.61V317l-13.55-2.34a804.74,804.74,0,0,0-90.81-10.33c-15.17-.86-30.57-1.29-45.78-1.29s-30.61.43-45.77,1.29a804.74,804.74,0,0,0-90.81,10.33L11.34,317Z"/><path class="cls-3" d="M68.7,239.86c-7.42.15-11.12.24-18.54.43l0,16.52q14.55-.83,29.12-1.41c0,5.24,0,7.86-.06,13.1q-14.57.86-29.11,2.05L50,287.07c2.4-.27,3.61-.4,6-.65L56,300c-11.15,1.53-22.2,3.19-33.29,5V290.51l6.05-.83q0-24.4,0-48.8l-6.09.19V226.6h67.5c0,7.39-.05,11.09-.09,18.49-8.57.2-12.85.32-21.41.58Z"/><path class="cls-3" d="M100.19,295.45l0-12.71,6.13-.36q.07-21.57.17-43.15l-6.11.08c0-5.09,0-7.63.06-12.71h33.64l0,12.37L128,239l-.12,42.43,6.13-.19,0,12.38C122.67,294.08,111.45,294.69,100.19,295.45Z"/><path class="cls-3" d="M183.52,265.12q2.86-7.5,5.54-14.37T193.57,239l-4.65,0c0-4.95,0-7.42,0-12.37h33.57c0,5.08,0,7.62.06,12.71l-7-.1q-10.32,27.36-20.92,54.62c-8.79-.35-13.18-.47-22-.59Q162,266.08,151.41,238.9l-7,0,0-12.32H178l0,12.32-4.65,0q2,5.15,4.52,11.61T183.52,265.12Z"/><path class="cls-3" d="M233.09,296.28c0-5.14,0-7.71-.06-12.86l6.11.45q-.1-22.15-.2-44.31l-6.11-.1c0-5.15,0-7.72-.06-12.86h67.5v20.8c-8.51-.38-12.77-.56-21.29-.89,0-2.42,0-3.64,0-6.06-7.47-.2-11.21-.29-18.68-.46,0,6.46,0,9.7.07,16.16q14.58.71,29.15,1.66c0,5.67,0,8.51,0,14.19q-14.53-1.38-29.12-2.41c0,6.47,0,9.7.07,16.16,7.46.74,11.18,1.15,18.62,2,0-2.43,0-3.64,0-6.07,8.5.9,12.74,1.4,21.2,2.46V305C278,301.32,255.65,298.43,233.09,296.28Z"/><rect class="cls-2" x="61.26" y="193.17" width="200.43" height="33.41"/><path class="cls-8" d="M71.08,203.1H83.62v2.69h-8V209h7.22v2.54H75.64v5.27H71.08Z"/><path class="cls-8" d="M99.87,214.14H94l-1.22,2.62h-4.3l6.45-13.66h4.56l6.46,13.66h-4.81Zm-4.63-2.69h3.34l-1.67-4.06Z"/><path class="cls-8" d="M113,203.1h4c2.75,3,4.12,4.56,6.86,7.61V203.1h4.81v13.66h-4.3c-2.73-3-4.1-4.57-6.84-7.61v7.61H113Z"/><path class="cls-8" d="M141.47,206H136V203.1h15.44V206H146v10.77h-4.56Z"/><path class="cls-8" d="M167,214.14H161c-.48,1.05-.73,1.57-1.21,2.62h-4.31L162,203.1h4.56L173,216.76h-4.81C167.7,215.71,167.45,215.19,167,214.14Zm-4.64-2.69h3.35L164,207.39C163.34,209,163,209.83,162.33,211.45Z"/><path class="cls-8" d="M186.54,217A11,11,0,0,1,181,215.9a3.6,3.6,0,0,1-1.91-3h4.56a1.65,1.65,0,0,0,.88,1.08,4.68,4.68,0,0,0,2,.34c1.94,0,2.91-.42,2.91-1.25a.86.86,0,0,0-.28-.67,2.34,2.34,0,0,0-.81-.47,7.32,7.32,0,0,0-1.31-.36c-.53-.11-1.14-.21-1.83-.33a18.25,18.25,0,0,1-2.36-.56,6,6,0,0,1-1.78-.83,3.58,3.58,0,0,1-1.11-1.22,3.49,3.49,0,0,1-.39-1.71,3.09,3.09,0,0,1,.48-1.7,3.73,3.73,0,0,1,1.39-1.27,7.47,7.47,0,0,1,2.2-.79,13.49,13.49,0,0,1,2.89-.28,10.26,10.26,0,0,1,5.2,1,3.68,3.68,0,0,1,1.89,2.93h-4.56a1.38,1.38,0,0,0-.73-.93,4.12,4.12,0,0,0-1.8-.3,3.76,3.76,0,0,0-1.87.33,1,1,0,0,0-.54.86c0,.48.33.83,1,1a18.17,18.17,0,0,0,2.82.61,22,22,0,0,1,2.5.51,7.07,7.07,0,0,1,1.92.8,3.75,3.75,0,0,1,1.23,1.21,3.41,3.41,0,0,1,.43,1.75,3.52,3.52,0,0,1-2,3.17A11,11,0,0,1,186.54,217Z"/><path class="cls-8" d="M205.53,206h-5.45V203.1h15.45V206h-5.44v10.77h-4.56Z"/><path class="cls-8" d="M223.13,203.1h4.55v13.66h-4.55Z"/><path class="cls-8" d="M244.14,217a13.44,13.44,0,0,1-3.34-.38,6.88,6.88,0,0,1-2.6-1.22,5.74,5.74,0,0,1-1.68-2.16,7.71,7.71,0,0,1-.61-3.24v-.37a7,7,0,0,1,.63-3.09,5.82,5.82,0,0,1,1.75-2.11,7.7,7.7,0,0,1,2.62-1.21,12.88,12.88,0,0,1,3.23-.39,14.06,14.06,0,0,1,2.9.28,7.87,7.87,0,0,1,2.38.85,5.11,5.11,0,0,1,1.67,1.53,4.65,4.65,0,0,1,.77,2.28h-4.71a2.62,2.62,0,0,0-.4-.93,2.4,2.4,0,0,0-.69-.62,2.81,2.81,0,0,0-.89-.35,4.93,4.93,0,0,0-1-.11,4.47,4.47,0,0,0-1.4.21,2.65,2.65,0,0,0-1.12.66,3.12,3.12,0,0,0-.73,1.2,5.25,5.25,0,0,0-.27,1.8v.41a5.54,5.54,0,0,0,.29,1.9,3.59,3.59,0,0,0,.77,1.25,2.89,2.89,0,0,0,1.12.68,4.23,4.23,0,0,0,1.34.21,3.85,3.85,0,0,0,2.06-.48,2.07,2.07,0,0,0,1-1.54h4.71a4.71,4.71,0,0,1-.72,2.31,4.8,4.8,0,0,1-1.64,1.52,8,8,0,0,1-2.4.85A15.31,15.31,0,0,1,244.14,217Z"/></g></g></svg>