<?xml version="1.0" encoding="utf-8"?>
<!-- Generator: Adobe Illustrator 24.3.0, SVG Export Plug-In . SVG Version: 6.00 Build 0)  -->
<svg version="1.1" id="Слой_1" xmlns="http://www.w3.org/2000/svg" xmlns:xlink="http://www.w3.org/1999/xlink" x="0px" y="0px"
	 viewBox="0 0 192 192" style="enable-background:new 0 0 192 192;" xml:space="preserve">
<style type="text/css">
	.st0{fill:#FFFFFF;}
	.st1{fill:#111820;}
	.st2{fill:#FE5000;}
</style>
<path class="st0" d="M192,24.55c-16.85-9.98-34.49-17.39-53.08-21.73l0,0l-11.47,21.5c-1.07-0.18-2.12-0.34-3.16-0.49
	c-0.29-0.64-0.67-1.24-1.11-1.78c-5.1-6.19-20.28-5.87-25.87-3.09c-2.14,1.17-4.04,2.71-5.64,4.56c-8.27,1.09-16.38,3.22-24.13,6.33
	L53.11,2.81C34.52,7.15,16.87,14.56,0,24.55l23.54,40.62c-1.97,2.25-5.24,7.43-7.07,11.01c1.19,2.03,2.85,3.76,4.84,5.02
	c-6.64,8.73-15.66,25.07-20.17,36.22c20.78,22.5,36.66,33.86,65.08,21.37l29.83,51.35l95.94-165.55L192,24.55z"/>
<path class="st1" d="M21.55,75.79c1.61,1.81,3.6,3.24,5.83,4.18c-7.53,9.8-16.07,24.65-21.29,36.53
	c22.98,23.16,34.43,29.66,61.87,17.02l28.09,48.39l90.33-155.82c-14.19-8.19-29.44-14.4-45.31-18.46l-11.34,21.26
	c-2.85-0.52-5.67-0.98-8.53-1.33c-0.15-1.05-0.55-2.04-1.17-2.9c-3.5-4.2-16.24-4.31-20.88-2.02c-1.67,0.83-3.57,2.58-5.41,4.76
	c-9.7,1.13-19.16,3.73-28.06,7.73L50.98,7.62C35.11,11.68,19.86,17.89,5.66,26.07L28.5,65.42C26,68.76,23.68,72.21,21.55,75.79"/>
<path class="st2" d="M57.3,70.84c1.17,1.29,12.61,3.71,12.13-5.3C64.92,65.96,60.67,67.82,57.3,70.84"/>
<path class="st0" d="M77.84,109.48l1.19-6.89l7.93,0.35l-2.38-9.21c-14.44,8.52-17.64,24.82-20.68,31.19
	c9.57-8.4,21.31-13.93,33.89-15.95c-1.21-5.05-3.46-9.8-6.62-13.92l0.79,11.92l-9.74,0.24l-2.03,4.27l-5.96,0.52l-3.33,4.77
	l1.92-6.19L77.84,109.48z"/>
<path class="st2" d="M46.83,37.2c0.84-2.11,4.17-5.53,10-6.98l-8.63-16.17c-12.12,3.42-23.83,8.14-34.93,14.08l18.66,32.19
	c4.31-4.79,9.05-9.17,14.15-13.11c-0.52-3.48-0.44-7,0.76-10.01 M135.19,30.31l8.67-16.24c12.12,3.42,23.82,8.15,34.92,14.09
	l-10.63,18.35c-5.3-3.36-12.89-6.54-19.51-8.77l1.73-2.98C145.42,32.92,140.35,31.43,135.19,30.31"/>
<path class="st0" d="M101.53,44.74c-2.87-0.65-5.77-1.13-8.7-1.44c3.38-6.43,12.09-12.12,16.5-10.83
	c-2.36,1.31-6.65,6.38-7.79,12.26 M140.48,41.03l1.76-3.03c-6.8-2.13-13.76-3.7-20.81-4.7c-0.27,4.2-1.19,8.33-2.73,12.25
	c4.58,3.19,9.51,9.46,10.59,15.05c-3.81-5.67-10.55-10.02-18.23-12.98c2.96-5.58,5.46-16.02,3.53-18.79
	c-1.66-2.39-9.36-2.71-13.45-1.03c-4.38,1.81-10.21,8.37-15.57,15.04c0.45-2.58,1.88-5.89,3.76-9.12
	c-35.26,6.35-54.9,31.07-61.13,40.14c1.29,0.75,2.71,1.27,4.18,1.55c1.11-3.97,8.04-9.88,11.18-11.97
	c-2.66,3.15-5.53,9.57-5.02,12.21c11.99-0.11,19.01-15.43,38.1-13.89l-3.42,2.27c0.75,3.55-0.12,10.21-8.73,11.52
	c2.24,0.53,4.31,1.65,5.98,3.23c-18.15-3.94-26.3,4.06-37.56,2.34c-8.51,11.79-14.28,21.24-20.46,33.77
	c5.01-2.67,16.69-3.24,23.08-0.86l0.32,5.85c-6.15,1.7-7.09,9.51,2.43,12.96c6.23,2.26,17.98,2.45,22.43-11.2
	c4.01-12.28,11.93-31.39,32.75-38.39l-2.48,4.63c6.04,5.35,11.73,15.9,13.05,25.71c-15.1,0.31-29.49,6.48-40.13,17.21
	c10.83-6.22,21.35-9.35,34.93-9.7c17.18-0.45,21.7-10.92,16.72-25.1c6.45,4.95,8.33,15.03,4.08,22.29
	c-3.32,5.67-10.42,8.37-19.64,8.16c-10.51-0.24-19.75,1.45-26.13,4.03l11.11,19.17l3.61-6.22l11.67,20.15l65.11-112.31
	c-6.19-3.98-16.87-8.14-24.9-10.23"/>
</svg>
