<?xml version="1.0" encoding="utf-8"?>
<!-- Generator: Adobe Illustrator 24.0.0, SVG Export Plug-In . SVG Version: 6.00 Build 0)  -->
<svg version="1.1" id="Layer_1" xmlns="http://www.w3.org/2000/svg" xmlns:xlink="http://www.w3.org/1999/xlink" x="0px" y="0px"
	 viewBox="0 0 192 192" style="enable-background:new 0 0 192 192;" xml:space="preserve">
<style type="text/css">
	.st0{fill-rule:evenodd;clip-rule:evenodd;fill:#FFFFFF;}
</style>
<title>Artboard 12 copy</title>
<path class="st0" d="M83.3,188.7c12.2,6.9,27.7,2.8,34.7-9.3l41.6-70.8c7-11.9,3-27.2-8.9-34.1c-0.1-0.1-0.3-0.2-0.4-0.2
	c-12.2-6.9-27.7-2.8-34.7,9.3L74,154.3c-7,11.9-3,27.2,8.9,34.1C83,188.5,83.2,188.6,83.3,188.7z M32.4,83.5L74,12.7
	c7.1-12.1,22.5-16.2,34.7-9.3c12,6.7,16.3,21.9,9.6,34c-0.1,0.1-0.1,0.3-0.2,0.4l-41.5,70.8c-7.2,11.9-22.5,16-34.7,9.3
	c-12-6.7-16.3-21.9-9.6-33.9C32.3,83.8,32.3,83.6,32.4,83.5L32.4,83.5z"/>
</svg>
