<?xml version="1.0" encoding="utf-8"?>
<!-- Generator: Adobe Illustrator 25.2.3, SVG Export Plug-In . SVG Version: 6.00 Build 0)  -->
<svg version="1.1" id="Layer_1" xmlns="http://www.w3.org/2000/svg" xmlns:xlink="http://www.w3.org/1999/xlink" x="0px" y="0px"
	 viewBox="0 0 192 192" style="enable-background:new 0 0 192 192;" xml:space="preserve">
<style type="text/css">
	.st0{fill:#A80414;}
	.st1{fill:#0A0D12;}
	.st2{fill:#FFFFFF;}
	.st3{fill:#515761;}
	.st4{fill:#252933;}
	.st5{fill:#7B818C;}
	.st6{fill:#850303;}
</style>
<g>
	<path class="st0" d="M114.12,26.24c-0.91-0.77-1.85-1.52-2.81-2.23c-4.39-3.2-8.74-4.5-12.61-5.86l1.27,4.4
		c-6.24-3.61-12.56-7.43-18.53-11.44c0.17,4.13,0.26,7.47,1.11,11.54c-0.46-0.19-0.91-0.39-1.35-0.6c-3.6-1.63-7.38-3.68-10.71-6.66
		l0.14,4.68c-0.14-0.12-0.27-0.26-0.41-0.39c-2.26-2.19-4.64-4.5-6.7-6.9C59.25,7.81,57.32,4.28,56.6,0
		c-5.53,4.18-13.91,16.96-14.29,28.54l-1.37-2.71c-1.39,3.58-3.6,14.41-0.24,22.49c0.09,0.22,0.19,0.45,0.29,0.67l-3.87-3.29
		l-0.09,7.04c-0.03,2.98,0.46,6.63,1.39,9.46c0.41,1.25,0.98,2.72,1.66,4.11c-3.53,3.1-7.07,6.85-9.71,10.45
		c-5.16,7.06-6.49,14.77-6.8,20.33c3.15-1.63,6.08-3.01,9.46-4.11c-0.05,0.09-0.09,0.17-0.12,0.26l-2.04,5.12
		c3.15-0.84,10.07-1.49,15.18-0.58c-2.24,2.52-3.46,5.74-4.4,8.94c4.88-1.08,8.68-1.82,14.51-1.27c0.57,0.07,1.27,0.15,1.99,0.29
		l0.62,1.3c1.56,3.34,3.51,6.9,5.62,9.92c1.88,2.67,4.61,5.58,7.19,7.61l2.95,2.3c0.74,3.36,1.87,6.65,3.39,9.22
		c8.08,13.7,27.41,13.7,35.49,0c1.52-2.57,2.66-5.86,3.39-9.22l2.95-2.3c2.59-2.02,5.33-4.93,7.19-7.61
		c2.11-3.01,4.06-6.58,5.62-9.92l0.62-1.3c0.72-0.14,1.42-0.22,1.99-0.29c5.82-0.55,7.76-0.29,13.86,0.91
		c-0.82-2.55-1.99-5.93-3.72-8.55c0-0.02-0.02-0.03-0.03-0.03c0.55-0.1,1.08-0.19,1.58-0.24c4.16-0.79,8.48-0.26,13.19,0.91
		c-0.21-1.3-1.1-4.11-1.75-5.46c3.84,1.1,6.08,2.24,9.52,3.92c-0.57-4.28-1.71-13.09-6.87-20.14c-2.64-3.6-6.18-7.35-9.71-10.45
		c0.68-1.39,1.25-2.86,1.66-4.11c1.78-5.45,1.78-13.72,1.3-16.55l-3.87,3.34c0.1-0.22,0.21-0.45,0.29-0.67
		c3.72-8.98,1.59-18.38-0.7-24.07l-1.27,3.17c-0.24-1.82-0.62-5.81-1.15-7.55c-2.64-8.63-6.41-13.45-12.32-19.75
		c-1.54,3.97-3.43,8.03-7.38,12.66c-2.06,2.4-4.44,4.71-6.7,6.9C118.79,21.89,116.48,24.08,114.12,26.24z"/>
	<path class="st0" d="M70.57,172.87c-1.73,1.03-3.68,1.68-5.67,2.07v10.05l-24.72-11.41v-26.88l-15.72-17.75h19.39
		c1.68,0,3.37,0,5.05,0c32.31,0,64.61,0,96.92,0h21.72l-18.96,18.17v26.29l-24.61,12.14v-10.48l-1.51-0.15
		c-2.38-0.26-4.76-0.51-7.16-0.77l-6.24-0.65c-0.74,0.05-1.49,0.03-2.24,0c-2.72-0.17-5.45-0.29-8.17-0.34
		c-2.3-0.05-4.61-0.5-6.7-1.44c-2.06,0.94-4.37,1.4-6.63,1.47c-2.72,0.09-5.45,0.22-8.17,0.43
		C74.94,173.79,72.66,173.59,70.57,172.87z"/>
	<polygon class="st0" points="95.99,69.7 157.45,92.98 141.59,162.73 95.99,192.84 50.41,162.73 34.55,92.98 	"/>
	<polygon class="st1" points="95.99,67.35 152.52,95.17 137.87,160.21 95.99,187.87 54.13,160.21 39.49,95.17 	"/>
	<path class="st1" d="M145.82,132.6h12.66l-13.55,12.98v25.59l-17.33,8.55v-7.9l-4.74-0.5c-2.4-0.26-4.78-0.51-7.16-0.77l-4.56-0.48
		v-0.51c-1.28,0.31-2.65,0.41-4.08,0.33c-2.78-0.17-5.55-0.29-8.34-0.36c-2.55-0.05-4.95-0.7-6.77-1.97
		c-1.82,1.28-4.2,1.94-6.75,2.02c-2.77,0.09-5.55,0.22-8.32,0.43c-2.52,0.19-4.88-0.24-6.75-1.3c-1.78,1.58-4.28,2.48-7.19,2.88
		c-0.57,0.07-1.11,0.15-1.66,0.22v7.5l-17.45-8.05v-25.93L32.55,132.6h11.31c1.68,0,3.37,0,5.05,0
		C81.98,132.6,114.05,132.6,145.82,132.6z"/>
	<g>
		<path class="st2" d="M67.66,141.19c0-2.11-1.47-3.51-4.38-3.51c-1.61,0-3.22,0-4.83,0c-3.17,0-6.36,0-9.54,0c-1.7,0-3.37,0-5.05,0
			l5.05,5.72V168l7.28,3.36c0-1.3,0-2.6,0-3.91c2.02-0.33,4.04-0.65,6.08-0.93c4.21-0.55,5.76-1.99,5.76-5.17c0-2.48,0-4.98,0-7.49
			c0-1.27-0.87-2.42-2.89-2.38c1.92-0.51,2.53-1.66,2.53-3.08C67.66,145.99,67.66,143.59,67.66,141.19z M59.94,142.92
			c0.5,0,0.65,0.19,0.65,0.57c0,1.9,0,3.8,0,5.7c0,0.53-0.41,0.81-0.91,0.84c-1.16,0.09-2.31,0.15-3.46,0.24c0-2.42,0-4.81,0-7.23
			C57.45,142.99,58.69,142.96,59.94,142.92z M60.69,160.91c0,0.45-0.15,0.62-0.75,0.7c-1.25,0.15-2.48,0.33-3.72,0.5
			c0-2.42,0-4.81,0-7.21c1.11-0.1,2.23-0.21,3.36-0.31c0.65-0.07,1.11,0.1,1.11,0.77C60.69,157.21,60.69,159.06,60.69,160.91z"/>
		<path class="st2" d="M82.21,142.41c0.51-0.02,0.67,0.17,0.67,0.51c0,2.72,0,5.45,0,8.19c0,2.72,0,5.46,0,8.19
			c0,0.41-0.1,0.57-0.72,0.58c-0.94,0.05-1.87,0.09-2.79,0.12c-0.62,0.03-0.72-0.1-0.72-0.53c0-2.74,0-5.5,0-8.26
			c0-2.74,0-5.5,0-8.26c0-0.34,0.15-0.51,0.67-0.53C80.27,142.43,81.23,142.41,82.21,142.41z M90.34,141.14
			c0-2.09-1.52-3.46-4.98-3.46c-3.05,0-6.1,0-9.15,0c-3.46,0-4.98,1.42-4.98,3.6c0,3.36,0,6.71,0,10.07c0,3.36,0,6.71,0,10.07
			c0,2.11,1.16,3.8,5.29,3.49c2.84-0.21,5.69-0.34,8.53-0.43c4.11-0.14,5.29-1.9,5.29-3.92c0-3.24,0-6.47,0-9.71
			C90.34,147.62,90.34,144.38,90.34,141.14z"/>
		<path class="st2" d="M104.52,142.41c0.51,0,0.67,0.19,0.67,0.53c0,2.74,0,5.48,0,8.22s0,5.48,0,8.22c0,0.41-0.1,0.57-0.72,0.53
			c-0.94-0.03-1.87-0.07-2.79-0.1c-0.62-0.02-0.72-0.15-0.72-0.57c0-2.72,0-5.45,0-8.17c0-2.72,0-5.45,0-8.17
			c0-0.34,0.15-0.51,0.67-0.51C102.59,142.39,103.55,142.41,104.52,142.41z M112.64,141.25c0-2.16-1.51-3.56-4.97-3.56
			c-3.05,0-6.1,0-9.15,0c-3.46,0-4.98,1.37-4.98,3.46c0,3.24,0,6.47,0,9.71c0,3.24,0,6.47,0,9.71c0,2.02,1.16,3.79,5.29,3.87
			c2.84,0.07,5.69,0.19,8.53,0.36c4.13,0.26,5.28-1.44,5.28-3.53c0-3.34,0-6.68,0-10C112.64,147.93,112.64,144.59,112.64,141.25z"/>
		<path class="st2" d="M132.68,153.9c0,2.95,0,5.89,0,8.82c0,2.95,0,5.87,0,8.8l7.16-3.53v-24.58l5.98-5.74c-4.56,0-9.13,0-13.69,0
			c-0.69,2.16-1.39,4.28-2.07,6.41c-0.69,2.09-1.37,4.18-2.06,6.27c-0.67-2.14-1.35-4.28-2.02-6.39c-0.65-2.11-1.34-4.2-2-6.29
			c-3.6,0-4.15,0-7.76,0c0,1.68,0,3.36,0,5.02c0,3.8,0,7.61,0,11.41c0,3.79,0,7.59,0,11.39c2.38,0.24,4.76,0.51,7.16,0.75
			c0-2.18,0-4.35,0-6.53c0-2.18,0-4.35,0-6.51l4.3,8.17L132.68,153.9z"/>
	</g>
	<path class="st1" d="M114.13,30.71c1.71-1.54,12.04-10.96,16.17-15.78c4.49-5.26,5.96-8.75,5.96-8.75s5.31,5.65,8.05,14.65
		c2.74,9.01,0.46,17.93,0.46,17.93s1.59-1.23,2.48-2.3c0.89-1.04,1.4-2.35,1.4-2.35s1.56,6.46-1.13,12.93
		c-2.67,6.49-7.55,10.47-7.55,10.47s2.77-0.07,5.43-1.18c2.65-1.1,5.55-3.56,5.55-3.56s0.05,4.47-1.23,8.39
		c-1.28,3.91-2.79,5.86-2.79,5.86s6.71,5.38,11.32,11.68c4.61,6.3,5.55,12.97,5.55,12.97s-3.51-1.82-7.71-2.74
		c-4.21-0.94-7.37-0.96-7.37-0.96s3.01,1.78,4.44,3.32c1.44,1.54,2.19,3.27,2.19,3.27s-4.28-0.86-8.91-0.33
		c-4.61,0.53-7.96,2.11-7.96,2.11s3.01,2.16,4.32,3.65c1.32,1.49,1.82,2.65,1.82,2.65s-4.23-1.03-9.78-0.5
		c-5.55,0.53-8.36,2.4-8.36,2.4l3.07,1.08c0,0-2.53,5.43-5.34,9.44c-2.79,3.99-6.51,6.89-6.51,6.89s0.7-2.14,0.99-5.31
		c0.29-3.19,0.03-5.58,0.03-5.58s-0.5,1.23-1.64,3.24c-1.13,2.02-2.54,3.92-2.54,3.92s-0.21,7.54-3.99,13.96
		c-3.7,6.23-9.59,8.39-14.9,8.68c-5.31-0.29-11.2-2.45-14.9-8.68c-3.79-6.42-3.99-13.96-3.99-13.96s-1.4-1.9-2.53-3.92
		c-1.15-2-1.64-3.24-1.64-3.24s-0.26,2.4,0.03,5.58c0.29,3.17,0.99,5.31,0.99,5.31s-3.72-2.9-6.51-6.89
		c-2.81-4.01-5.34-9.44-5.34-9.44l3.07-1.08c0,0-2.81-1.87-8.36-2.4c-5.55-0.53-9.78,0.5-9.78,0.5s0.5-1.16,1.82-2.65
		c1.3-1.49,4.32-3.65,4.32-3.65s-3.36-1.58-7.97-2.11c-4.62-0.53-8.91,0.33-8.91,0.33s0.75-1.73,2.19-3.27
		c1.42-1.54,4.44-3.32,4.44-3.32s-3.15,0.02-7.37,0.96c-4.2,0.93-7.71,2.74-7.71,2.74s0.94-6.66,5.55-12.97s11.32-11.68,11.32-11.68
		s-1.51-1.95-2.79-5.86c-1.28-3.92-1.23-8.39-1.23-8.39s2.89,2.47,5.55,3.56c2.65,1.11,5.43,1.18,5.43,1.18s-4.88-3.97-7.55-10.47
		c-2.69-6.48-1.13-12.93-1.13-12.93s0.51,1.3,1.4,2.35c0.89,1.06,2.48,2.3,2.48,2.3s-2.28-8.92,0.46-17.93
		c2.74-8.99,8.05-14.65,8.05-14.65s1.47,3.49,5.96,8.75c3.61,4.23,12.01,11.99,15.18,14.89c-0.15-0.34-0.31-0.69-0.46-1.06
		c-1.16-2.83-1.59-7.14-1.59-7.14s1.71,1.66,5.72,3.48c3.99,1.8,7.76,2.88,7.76,2.88s-0.62-1.2-1.37-4.11
		c-0.75-2.91-1.25-6.83-1.25-6.83s1.13,0.96,7.14,4.71c6.03,3.73,14.53,8.38,14.53,8.38s-0.29-0.86-1.06-2.74
		c-0.75-1.9-1.63-3.92-1.63-3.92s2.36,1.03,5.4,3.24C111.51,28.26,113.29,29.91,114.13,30.71z"/>
	<path class="st3" d="M139.07,43.2c0,0,2.28-3.67,2.11-12.56c-0.19-8.87-4.8-15.83-4.8-15.83s-4.03,6.08-12.73,14.83
		c-7.69,7.74-14.7,11.92-16.22,12.8c0.38-0.46,0.98-1.23,1.59-2.14c1.01-1.56,1.59-2.57,1.59-2.57s-5.64-3.07-10.12-5.64
		c-4.51-2.57-7.16-4.51-7.16-4.51s0.67,2.52,2.14,5.72c1.46,3.22,3.24,5.14,3.24,5.14s-1.76-0.69-3.31-1.52
		c-1.52-0.86-2.71-1.87-2.71-1.87s-3.12-0.89-6.23-2.04c-3.13-1.13-4.33-1.87-4.33-1.87c1.83,5.6,3.72,8.86,6.78,13.39
		c-8.14-3.89-14.05-8.34-20.57-14.9c-8.7-8.75-12.73-14.83-12.73-14.83s-4.62,6.95-4.8,15.83c-0.17,8.89,2.11,12.56,2.11,12.56
		c-1.82-12.4,3.15-18.82,3.15-18.82l0.29-3.56c0,0,2.48,4.81,5.62,9.23c3.12,4.4,9.1,12.02,9.1,12.02s0.46,2.36,0.31,4.21
		c-0.14,1.85-0.79,3.58-0.79,3.58s-0.46-1.37-2.19-3.24c-1.71-1.87-3.44-2.36-3.44-2.36s1.03,1.58,1.23,4.73
		c0.21,3.15-0.87,5.69-0.87,5.69s-0.19-0.92-0.74-2c-0.55-1.08-1.49-2.14-1.49-2.14s0.38,2.36,0.09,4.88
		c-0.29,2.5-1.04,4.47-1.04,4.47l-0.36-1.2c0,0-1.3,0.22-3.29,0c-1.99-0.24-3.8-0.86-3.8-0.86s0.43,1.25,1.3,2.5
		c0.87,1.25,2.04,2.38,2.04,2.38s-1.94,0.38-4.85,0.17c-2.93-0.21-5.45-0.81-5.45-0.81s1.1,2.54,3.56,4.86
		c2.48,2.35,5.93,4.2,5.93,4.2s-1.78,0.24-3.96-0.1c-2.16-0.34-4.18-1.05-4.18-1.05s-3.6,2.18-7.67,6.03
		c-4.09,3.85-6.58,7.9-6.58,7.9s3.03-2.48,6.75-3.97c3.7-1.49,6.15-1.95,6.15-1.95s-1.22,0.7-2.45,1.92
		c-1.22,1.22-2.36,2.64-2.36,2.64s4.42-0.96,10.77-0.79c6.37,0.19,9.28,1.56,9.28,1.56s-1.54,0.14-4.64,1.34
		c-3.08,1.2-5.34,2.83-5.34,2.83s2.64-0.43,8.27,0.12c5.64,0.57,8.41,2.16,8.41,2.16s-1.88,0.03-3.82,0.67
		c-1.92,0.62-2.96,1.39-2.96,1.39s1.85,0.82,3.41,2.36c1.56,1.54,3.73,3.79,3.73,3.79s0.33-0.98,1.13-2.38
		c0.79-1.4,1.28-2.04,1.28-2.04s0.03,2.4,1.27,6.13c1.22,3.73,4.93,9.78,4.93,9.78s0.79-2.16,0.43-5.81
		c-0.34-3.65-2.12-6.46-2.12-6.46s1.46,0.7,2.95,2.43c1.49,1.71,2.28,4.81,2.28,4.81s0.7-2.12,0.33-4.97
		c-0.38-2.83-1.87-3.7-3.92-5.4c-2.04-1.7-2.79-3.19-2.79-3.19s1.76,1.2,3.41,1.63c1.66,0.41,3.48,0.26,3.48,0.26
		s-1.13-0.45-2.43-1.22c-1.32-0.75-2.5-1.49-3.1-2.11c-0.6-0.63-2.35-3.61-2.35-3.61l-2.38-2.24c0,0,0.02,1.3,0.19,2.57
		c0.17,1.27,0.72,2.42,0.72,2.42s-1.68-1.47-2.59-3.68c-0.91-2.23-1.23-4.5-1.23-4.5s-0.26-0.93-1.2-2.78
		c-0.93-1.83-3.39-3.48-3.39-3.48s2.69-0.17,5.69,0.41c3.01,0.58,4.56,1.44,4.56,1.44s-1.11-0.09-2.45-0.07
		c-1.34,0.03-2.47,0.31-2.47,0.31s0.98,1.95,2.02,3.2c1.06,1.25,1.4,1.54,4.3,2.98c2.89,1.42,5.98,3.41,6.3,3.75
		c0.34,0.34,1.15,1.27,2.31,3.7c1.16,2.41,3.03,6.1,3.2,10.41c0.19,4.32-0.89,7.5-0.89,7.5s0.1-2.04-0.24-3.99
		c-0.36-1.97-1.35-3.92-1.35-3.92s-0.6,3.43-1.51,8.07c-0.91,4.64-2.06,9.3-2.14,13.75c-0.1,5.45,6.92,13.53,13.98,13.45
		c6.15-0.09,13.6-7.81,13.86-13.34c0.26-5.64-1.58-9.22-2.48-13.86c-0.91-4.64-1.52-8.07-1.52-8.07s-0.98,1.95-1.34,3.92
		c-0.34,1.95-0.24,3.99-0.24,3.99s-1.08-3.19-0.89-7.5c0.17-4.32,2.04-8,3.2-10.41c1.16-2.43,1.97-3.36,2.31-3.7
		c0.33-0.34,3.41-2.33,6.3-3.75c2.89-1.44,3.24-1.73,4.3-2.98c1.04-1.25,2.02-3.2,2.02-3.2s-1.13-0.27-2.47-0.31
		c-1.34-0.02-2.45,0.07-2.45,0.07s1.54-0.86,4.56-1.44c3-0.58,5.69-0.41,5.69-0.41s-2.47,1.64-3.39,3.48
		c-0.94,1.85-1.2,2.78-1.2,2.78s-0.33,2.28-1.23,4.5c-0.91,2.21-2.59,3.68-2.59,3.68s0.55-1.15,0.72-2.42
		c0.17-1.27,0.19-2.57,0.19-2.57l-2.38,2.24c0,0-1.75,2.98-2.35,3.61c-0.6,0.62-1.78,1.35-3.1,2.11c-1.32,0.77-2.43,1.22-2.43,1.22
		s1.82,0.15,3.48-0.26c1.64-0.43,3.41-1.63,3.41-1.63s-0.75,1.49-2.81,3.19c-2.04,1.7-3.53,2.57-3.91,5.4
		c-0.38,2.84,0.33,4.97,0.33,4.97s0.79-3.1,2.28-4.81c1.49-1.73,2.95-2.43,2.95-2.43s-1.78,2.81-2.12,6.46
		c-0.36,3.65,0.43,5.81,0.43,5.81s3.72-6.05,4.93-9.78c1.23-3.73,1.25-6.13,1.25-6.13s0.5,0.63,1.3,2.04
		c0.81,1.4,1.13,2.38,1.13,2.38s2.18-2.24,3.73-3.79c1.56-1.54,3.41-2.36,3.41-2.36s-1.04-0.77-2.96-1.39
		c-1.94-0.63-3.82-0.67-3.82-0.67s2.77-1.59,8.41-2.16c5.64-0.55,8.27-0.12,8.27-0.12s-2.26-1.63-5.34-2.83
		c-3.1-1.2-4.64-1.34-4.64-1.34s2.91-1.37,9.28-1.56c6.35-0.17,10.77,0.79,10.77,0.79s-1.15-1.42-2.36-2.64
		c-1.23-1.22-2.45-1.92-2.45-1.92s2.45,0.46,6.15,1.95c3.72,1.49,6.75,3.97,6.75,3.97s-2.48-4.04-6.58-7.9
		c-4.08-3.85-7.67-6.03-7.67-6.03s-2.02,0.7-4.2,1.05c-2.16,0.34-3.94,0.1-3.94,0.1s3.44-1.85,5.93-4.2
		c2.47-2.33,3.55-4.86,3.55-4.86s-2.5,0.6-5.43,0.81c-2.91,0.21-4.85-0.17-4.85-0.17s1.16-1.13,2.04-2.38c0.87-1.25,1.3-2.5,1.3-2.5
		s-1.82,0.62-3.8,0.86c-1.99,0.22-3.29,0-3.29,0l-0.36,1.2c0,0-0.75-1.97-1.04-4.47c-0.29-2.52,0.09-4.88,0.09-4.88
		s-0.94,1.06-1.49,2.14c-0.57,1.08-0.74,2-0.74,2s-1.08-2.53-0.87-5.69c0.21-3.15,1.23-4.73,1.23-4.73s-1.73,0.5-3.44,2.36
		c-1.73,1.87-2.19,3.24-2.19,3.24s-0.65-1.73-0.79-3.58c-0.15-1.85,0.31-4.21,0.31-4.21s5.98-7.62,9.1-12.02
		c3.13-4.42,5.62-9.23,5.62-9.23l0.29,3.56C135.92,24.37,140.89,30.8,139.07,43.2z M95.99,74.75c0.93-0.62,2.33-1.59,3.73-2.72
		c2.33-1.9,4.44-3.94,4.44-3.94s-2.24,4.23-4.39,7.43c-1.75,2.66-3.29,4.39-3.79,4.92c-0.48-0.53-2.02-2.26-3.77-4.92
		c-2.14-3.2-4.39-7.43-4.39-7.43s2.11,2.04,4.44,3.94C93.68,73.16,95.09,74.13,95.99,74.75z M95.99,101.25l5.58-2.31l-5.58,6.12
		l-5.57-6.12L95.99,101.25z M83.16,77.99c0,0,2.4,2.86,3.85,6.39c1.47,3.53,1.85,5.48,1.85,5.48s-0.07,1.01-0.22,1.76
		c-0.14,0.74-0.33,1.11-0.33,1.11s1.2-0.99,1.95-2.09c0.77-1.08,1.11-2.36,1.11-2.36S89.09,82.65,83.16,77.99z M108.84,77.99
		c0,0-2.4,2.86-3.85,6.39c-1.47,3.53-1.85,5.48-1.85,5.48s0.07,1.01,0.22,1.76c0.14,0.74,0.33,1.11,0.33,1.11s-1.2-0.99-1.97-2.09
		c-0.75-1.08-1.1-2.36-1.1-2.36S102.91,82.65,108.84,77.99z"/>
	<path class="st4" d="M107.61,42.34c-0.6,0.58-1.18,1.11-1.66,1.52c-1.99,1.63-2.96,2-2.96,2s-1.68-0.31-4.44-1.7
		c-2.74-1.37-4.4-2.91-4.4-2.91s1.08,4.44,3.49,8.2c2.43,3.77,4.56,5.05,4.56,5.05s-8.98,1.66-18.45-3
		c3.15,7.66,6.27,10.96,9.92,13.75c8.43,0.27,15.09-6.97,15.09-6.97s-1.94,5.96-4.61,9.81l0.02-0.03c0,0-2.11,2.04-4.44,3.94
		c-1.4,1.13-2.81,2.11-3.73,2.72c-0.91-0.62-2.31-1.59-3.72-2.72c-2.33-1.9-4.44-3.94-4.44-3.94s2.24,4.23,4.39,7.43
		c1.73,2.62,3.24,4.33,3.75,4.9l0.31,4.95c0,0,3.92-3.82,7.69-6.06c3.77-2.24,6.7-2.74,6.7-2.74s-0.77,0.38-1.88,1.46l0.05-0.03
		c-5.93,4.66-8.22,10.29-8.22,10.29s0.34,1.28,1.1,2.36c0.77,1.1,1.97,2.09,1.97,2.09s-0.02-0.02-0.03-0.09
		c0.19,0.34,0.43,0.7,0.72,1.01c0.17,0.17,0.36,0.33,0.55,0.48c-0.31,0.86-0.6,1.78-0.84,2.76c-0.51,0.46-1.47,1.28-2.53,2.04
		l-5.55,2.31l-5.57-2.31l0.84,0.91c-1.08-0.43-2.14-0.75-3-0.99c-0.07-0.67-0.19-1.3-0.34-1.94l0,0c-0.14-0.62-0.31-1.22-0.51-1.82
		c-0.62-1.85-1.39-3.49-2.23-5.24c-1.16-2.43-1.97-3.36-2.31-3.7c-0.33-0.34-3.41-2.33-6.3-3.75c-2.89-1.44-3.24-1.73-4.3-2.98
		c-1.04-1.25-2.02-3.2-2.02-3.2s1.13-0.27,2.47-0.31c1.34-0.02,2.45,0.07,2.45,0.07s-1.54-0.86-4.56-1.44
		c-3-0.58-5.69-0.41-5.69-0.41s2.47,1.64,3.39,3.48c0.94,1.85,1.2,2.78,1.2,2.78s0.33,2.28,1.23,4.5c0.91,2.21,2.59,3.68,2.59,3.68
		s-0.55-1.15-0.72-2.42c-0.17-1.27-0.19-2.57-0.19-2.57l2.38,2.24c0,0,1.75,2.98,2.35,3.61c0.6,0.62,1.78,1.35,3.1,2.11
		c1.3,0.77,2.43,1.22,2.43,1.22s-1.82,0.15-3.48-0.26c-1.64-0.43-3.41-1.63-3.41-1.63s0.75,1.49,2.79,3.19
		c2.06,1.7,3.55,2.57,3.92,5.4c0.38,2.84-0.33,4.97-0.33,4.97s-0.79-3.1-2.28-4.81c-1.49-1.73-2.95-2.43-2.95-2.43
		s1.78,2.81,2.12,6.46c0.36,3.65-0.43,5.81-0.43,5.81s-3.72-6.05-4.93-9.78c-1.23-3.73-1.27-6.13-1.27-6.13s-0.5,0.63-1.28,2.04
		c-0.81,1.4-1.13,2.38-1.13,2.38s-2.18-2.24-3.73-3.79c-1.56-1.54-3.41-2.36-3.41-2.36s1.04-0.77,2.96-1.39
		c1.94-0.63,3.82-0.67,3.82-0.67s-2.78-1.59-8.41-2.16C55.64,87.05,53,87.48,53,87.48s2.26-1.63,5.34-2.83
		c3.1-1.2,4.64-1.34,4.64-1.34s-2.91-1.37-9.28-1.56c-6.35-0.17-10.77,0.79-10.77,0.79s1.15-1.42,2.36-2.64
		c1.23-1.22,2.45-1.92,2.45-1.92s-2.45,0.46-6.15,1.95c-3.72,1.49-6.75,3.97-6.75,3.97s2.48-4.04,6.58-7.9
		c4.08-3.85,7.67-6.03,7.67-6.03s2.02,0.7,4.18,1.05c2.18,0.34,3.96,0.1,3.96,0.1s-3.44-1.85-5.93-4.2
		c-2.47-2.33-3.56-4.86-3.56-4.86s2.52,0.6,5.45,0.81c2.91,0.21,4.85-0.17,4.85-0.17s-1.16-1.13-2.04-2.38
		c-0.87-1.25-1.3-2.5-1.3-2.5s1.82,0.62,3.8,0.86c1.99,0.22,3.29,0,3.29,0l0.36,1.2c0,0,0.75-1.97,1.04-4.47
		c0.29-2.52-0.09-4.88-0.09-4.88s0.94,1.06,1.49,2.14c0.55,1.08,0.74,2,0.74,2s1.08-2.53,0.87-5.69c-0.21-3.15-1.23-4.73-1.23-4.73
		s1.73,0.5,3.44,2.36c1.73,1.87,2.19,3.24,2.19,3.24s0.65-1.73,0.79-3.58c0.15-1.85-0.31-4.21-0.31-4.21s-5.98-7.62-9.1-12.02
		c-3.13-4.42-5.62-9.23-5.62-9.23l-0.29,3.56c0,0-4.97,6.42-3.15,18.82c0,0-2.28-3.67-2.11-12.56c0.17-8.87,4.8-15.83,4.8-15.83
		s4.03,6.08,12.73,14.83c6.53,6.56,12.44,11.01,20.57,14.9c-3.07-4.54-4.95-7.79-6.78-13.39c0,0,1.2,0.74,4.33,1.87
		c3.12,1.15,6.23,2.04,6.23,2.04s1.18,1.01,2.71,1.87c1.54,0.84,3.31,1.52,3.31,1.52s-1.78-1.92-3.24-5.14
		c-1.47-3.2-2.14-5.72-2.14-5.72s2.65,1.94,7.16,4.51c4.49,2.57,10.12,5.64,10.12,5.64s-0.58,1.01-1.59,2.57
		c-0.62,0.91-1.22,1.68-1.59,2.14C107.49,42.41,107.56,42.38,107.61,42.34z"/>
	<path class="st4" d="M118.72,88.54c-0.19,0.27-0.41,0.55-0.63,0.8c-0.55,0.57-1.28,1.15-1.9,1.59c0.02-0.03,0.02-0.05,0.02-0.05
		s-1.76,1.2-3.41,1.63c-1.66,0.41-3.48,0.26-3.48,0.26s1.11-0.45,2.43-1.22c1.32-0.75,2.5-1.49,3.1-2.11
		c0.6-0.63,2.35-3.61,2.35-3.61l2.38-2.24c0,0-0.02,1.3-0.19,2.57c-0.17,1.27-0.72,2.42-0.72,2.42S118.69,88.57,118.72,88.54z"/>
	<path class="st4" d="M113.93,93.61c-0.27,0.48-0.69,1.27-0.96,2.12c-0.43,1.37-0.46,2.07-0.46,2.07s1.11-0.91,3.15-2.19
		c2.06-1.28,3.73-2.35,3.73-2.35s0.07,0.12,0.14,0.29c0,0.19-0.07,2.53-1.25,6.11c-1.22,3.73-4.93,9.78-4.93,9.78
		s-0.79-2.16-0.43-5.81c0.34-3.65,2.12-6.46,2.12-6.46s-1.46,0.7-2.95,2.43c-1.49,1.71-2.28,4.81-2.28,4.81s-0.7-2.12-0.33-4.97
		c0.38-2.83,1.87-3.7,3.91-5.4C113.59,93.92,113.76,93.76,113.93,93.61z"/>
	<path class="st4" d="M120.85,95.58c0.46-0.62,1.9-2.43,3.24-3.77c0.62-0.63,1.18-1.13,1.64-1.52c0.14,0.05,0.27,0.09,0.41,0.14
		c1.92,0.62,2.96,1.39,2.96,1.39s-1.85,0.82-3.41,2.36c-1.56,1.54-3.73,3.79-3.73,3.79S121.64,96.98,120.85,95.58z"/>
	<path class="st1" d="M83.16,77.99c0,0,2.4,2.86,3.85,6.39c1.47,3.53,1.85,5.48,1.85,5.48s-0.07,1.01-0.22,1.76
		c-0.14,0.74-0.33,1.11-0.33,1.11s1.2-0.99,1.95-2.09c0.77-1.08,1.11-2.36,1.11-2.36S89.09,82.65,83.16,77.99z"/>
	<path class="st3" d="M86.62,74.75c0,0-2.72-3.67-4.71-7.33c-1.97-3.68-2.95-6.25-2.95-6.25s-0.34,2.5-0.26,5.34
		c0.09,2.83,0.53,4.61,0.53,4.61S81.25,74.43,86.62,74.75z M85.01,86.91c-1.23-5.12-3.41-7.33-6.56-9.42c0,0-1.68-0.09-2.67,0.43
		c-1.01,0.5-1.42,1.18-1.42,1.18s3.8,1.76,6.46,3.56C83.49,84.48,85.01,86.91,85.01,86.91z"/>
	<path class="st5" d="M134.88,22.2c-1.51,1.58-6.78,6.9-12.88,11.58c-4.93,3.79-9.11,5.74-11.27,6.61
		c3.1-2.09,7.86-5.64,12.93-10.74c8.7-8.75,12.73-14.83,12.73-14.83s4.61,6.95,4.8,15.83c0.17,8.89-2.11,12.56-2.11,12.56
		c1.82-12.4-3.15-18.82-3.15-18.82l-0.29-3.56C135.63,20.81,135.36,21.34,134.88,22.2z M109.53,85.85c0.98-0.69,3.51-2.26,5.91-3.44
		c2.89-1.44,3.24-1.73,4.3-2.98c1.04-1.25,2.02-3.2,2.02-3.2s-1.13-0.27-2.47-0.31c-0.33,0-0.63,0-0.91,0l1.59,0.7
		c0,0-0.6,1.1-1.28,1.94c-0.67,0.84-1.23,1.27-1.23,1.27s-2.83,1.8-4.92,3.39C111.19,84.24,110.11,85.27,109.53,85.85z
		 M146.49,82.13c1.64,0.21,2.59,0.41,2.59,0.41s-1.15-1.42-2.36-2.64c-1.23-1.22-2.45-1.92-2.45-1.92h0.02
		c-0.7-0.34-1.44-0.63-2.16-0.87c-3.25-1.1-4.45-1.18-4.45-1.18s3.37,1.39,6.24,3.75C144.97,80.56,145.82,81.41,146.49,82.13z
		 M151.06,80.22c3.41,1.49,6.1,3.7,6.1,3.7s-2.48-4.04-6.58-7.9c-4.08-3.85-7.67-6.03-7.67-6.03s-1.42,0.5-3.17,0.86
		c1.3,0.7,4.01,2.3,6.63,4.68C148.48,77.46,150.09,79.14,151.06,80.22z M134.86,71.14c-0.05,0-0.09,0-0.09,0s3.44-1.85,5.93-4.2
		c2.47-2.33,3.55-4.86,3.55-4.86s-1.32,0.31-3.15,0.57c-0.7,0.91-2.76,3.41-5.34,5.5c-3.22,2.6-6.37,4.09-6.37,4.09
		S132.48,71.79,134.86,71.14z M133.99,62.71h-0.02c0,0,1.16-1.13,2.04-2.38c0.87-1.25,1.3-2.5,1.3-2.5s-0.89,0.31-2.11,0.57
		c-0.36,0.77-0.96,2-1.7,3.12c-1.2,1.78-1.85,2.35-1.85,2.35S132.94,63.36,133.99,62.71z M119.65,62.42c0,0,0.79-4.28,0.84-7.79
		c0.07-3.51-0.87-7.13-0.87-7.13s-0.33,2.19-2.28,5.09c-1.95,2.88-4.03,4.49-4.03,4.49s0.24-1.58,0.22-2.93
		c-0.03-1.35-0.27-2.6-0.27-2.6s-0.94,1.3-2.64,2.84c-1.7,1.52-3.61,2.5-3.61,2.5s2.42-0.67,3.6-1.4c1.18-0.72,1.94-1.44,1.94-1.44
		s0.02,1.71-0.21,3.13c-0.22,1.44-0.5,2.43-0.5,2.43s1.61-0.77,3.37-2.16c1.76-1.39,2.67-2.89,2.67-2.89s0.87,3.44,0.7,6.77
		c-0.19,3.34-0.45,4.42-0.45,4.42S119.31,64.34,119.65,62.42z"/>
	<path class="st3" d="M51.27,70.62c-1.39,0.84-6.05,3.8-8.99,6.77c-1.49,1.51-2.52,2.78-3.2,3.73c-2.47,1.35-4.23,2.79-4.23,2.79
		s2.48-4.04,6.58-7.9c4.08-3.85,7.67-6.03,7.67-6.03S50,70.3,51.27,70.62z M47.71,77.99c1.51-0.58,2.48-0.81,2.48-0.81
		s-2,1.46-3.44,3.19c-0.46,0.57-0.91,1.18-1.3,1.78c-1.59,0.21-2.52,0.39-2.52,0.39s1.15-1.42,2.36-2.64
		c1.23-1.22,2.45-1.92,2.45-1.92H47.71z M62.95,83.32c0.58,0.07,0.84,0.14,0.84,0.14s-2.38,0.79-4.92,2.18
		c-1.15,0.63-2.02,1.23-2.64,1.7C54.04,87.31,53,87.48,53,87.48s2.26-1.63,5.34-2.83C61.14,83.57,62.68,83.35,62.95,83.32z"/>
	<path class="st1" d="M71.62,52.71c0,0,0.03,3.51,0.67,6.92c0.65,3.43,1.61,5.96,1.61,5.96l0.55,6.87c0,0-2.36-2.19-4.23-4.83
		c-1.87-2.62-2.48-5.02-2.48-5.02l2.14,0.82C69.87,63.43,69.51,57.93,71.62,52.71z M120.39,52.71c0,0-0.03,3.51-0.67,6.92
		c-0.65,3.43-1.61,5.96-1.61,5.96l-0.55,6.87c0,0,2.36-2.19,4.23-4.83c1.87-2.62,2.48-5.02,2.48-5.02l-2.14,0.82
		C122.13,63.43,122.49,57.93,120.39,52.71z"/>
	<path class="st0" d="M108.91,90.7c0,0,0.74-2.36,1.7-3.15c0.96-0.79,3.8-2.21,3.8-2.21s-0.84,2.48-1.8,3.49
		C111.65,89.86,109.85,90.42,108.91,90.7z M83.1,90.7c0,0-0.74-2.36-1.7-3.15c-0.96-0.79-3.8-2.21-3.8-2.21s0.84,2.48,1.8,3.49
		C80.35,89.86,82.15,90.42,83.1,90.7z"/>
	<path class="st6" d="M82.24,90.42c-0.24-0.51-0.67-1.3-1.27-1.94c-1.03-1.08-2.18-1.4-2.18-1.4s-0.1,0.36,0,0.91
		c-0.69-1.15-1.2-2.65-1.2-2.65s2.84,1.42,3.8,2.21c0.96,0.79,1.7,3.15,1.7,3.15C82.86,90.63,82.56,90.54,82.24,90.42z M108.91,90.7
		c0,0,0.74-2.36,1.7-3.15c0.96-0.79,3.8-2.21,3.8-2.21s-0.51,1.51-1.2,2.65c0.1-0.55,0-0.91,0-0.91s-1.15,0.33-2.18,1.4
		c-0.6,0.63-1.03,1.42-1.27,1.94C109.44,90.54,109.15,90.63,108.91,90.7z"/>
	<path class="st0" d="M152.57,94.57c0,0-5.24-1.9-12.76,0.29c-7.54,2.21-10.26,5.94-10.26,5.94s1.97,0.05,3.32,0.31
		c1.37,0.24,2.38,0.58,2.38,0.58s-3.22,1.61-5.57,4.5c-2.36,2.88-4.01,6.73-4.01,6.73s3.19-4.54,7.43-7.4
		c4.25-2.86,8.2-3.36,8.2-3.36s-1.7-1.06-3.13-1.7c-1.46-0.63-1.85-0.7-1.85-0.7s2.81-1.63,8.15-1.3c5.36,0.33,9.95,2.04,9.95,2.04
		L152.57,94.57z M38.73,94.57c0,0,5.24-1.9,12.76,0.29c7.54,2.21,10.26,5.94,10.26,5.94s-1.97,0.05-3.32,0.31
		c-1.37,0.24-2.38,0.58-2.38,0.58s3.22,1.61,5.57,4.5c2.36,2.88,4.01,6.73,4.01,6.73s-3.19-4.54-7.43-7.4
		c-4.25-2.86-8.2-3.36-8.2-3.36s1.7-1.06,3.13-1.7c1.46-0.63,1.85-0.7,1.85-0.7s-2.81-1.63-8.15-1.3c-5.36,0.33-9.95,2.04-9.95,2.04
		L38.73,94.57z"/>
	<g>
		<polygon class="st3" points="55.71,129.96 50.93,111.25 69.77,121.84 59.89,120.19 62.37,129.96 		"/>
		<polygon class="st4" points="136.3,129.96 141.08,111.25 122.24,121.84 132.12,120.19 129.64,129.96 		"/>
	</g>
	<path class="st3" d="M79.93,169.65l16.07,10.62l15.88-10.48c-2.76-0.15-5.62-0.26-8.53-0.34l-7.35,4.85l-7.43-4.92
		C85.7,169.42,82.8,169.51,79.93,169.65z"/>
	<path class="st4" d="M95.99,174.29v4.04l8.17-3.46l7.71-5.09c-2.76-0.15-5.62-0.26-8.53-0.34L95.99,174.29L95.99,174.29z"/>
	<path class="st1" d="M112.4,85.47l0.34-2.55c0,0-0.24-2.96-1.8-5.93c-1.56-2.96-3.03-4.47-3.03-4.47s3.46,2.31,5,4.88
		c1.56,2.59,2.07,4.09,2.07,4.09l-0.12,2.45L112.4,85.47z"/>
	<path class="st1" d="M116.62,83.66l0.21-2.52c0,0-0.27-2.11-0.94-4.03c-0.69-1.94-1.58-3.32-1.58-3.32s2.76,2.59,3.63,4.66
		c0.87,2.06,1.06,3.77,1.06,3.77L116.62,83.66z"/>
	<path class="st1" d="M108.81,87.25c0,0-0.14-3.34-0.89-5.57c-0.75-2.23-1.52-3.51-1.52-3.51s2.33,2.62,3.46,4.68
		c1.11,2.06,1.3,2.98,1.3,2.98L108.81,87.25z"/>
	<path class="st3" d="M115.85,94.69c0,0,0.57,1.76,0.79,3.32c0.22,1.58,0.19,2.38,0.19,2.38s0.45-0.62,0.62-3.01
		c0.17-2.42,0.07-3.84,0.07-3.84L115.85,94.69z"/>
	<path class="st1" d="M118.06,83.78c0,0,0.5,1.68,0.58,3.05c0.1,1.35,0.03,1.87,0.03,1.87l0.84-0.98c0,0,0.55,0.74,0.74,2.21
		c0.19,1.46,0.1,3.24,0.1,3.24s0.87-2.12,0.96-4.08c0.07-1.94-0.41-3.75-0.41-3.75l-0.98,1.7c0,0,0.1-1.15-0.09-2.45
		c-0.19-1.3-0.53-2.19-0.53-2.19L118.06,83.78z"/>
	<path class="st1" d="M114.39,89.17l0.39,3.07l1.3-0.99c0,0,0.62,1.34,0.86,4.04c0.24,2.71-0.24,6.01-0.24,6.01s1.2-2.62,1.54-5.88
		c0.34-3.25-0.31-6.35-0.31-6.35l-1.13,0.99c0,0-0.1-1.27-0.41-2.3c-0.31-1.03-0.34-1.16-0.34-1.16L114.39,89.17z"/>
	<path class="st3" d="M110.79,96.38c0.24,0.48,0.62,1.34,0.77,2.23c0.14,0.69,0.21,1.11,0.26,1.35c0.02-0.03,0.05-0.07,0.09-0.12
		l0.48-4.93C111.77,95.41,111.24,95.85,110.79,96.38z"/>
	<path class="st1" d="M110.55,91.18c0,0,0.45,1.03,0.34,2.19c-0.12,1.18-0.36,2.21-0.36,2.21l0.98-0.58c0,0,0.24,1.18,0.22,3.49
		c-0.02,2.31-0.14,2.93-0.14,2.93s0.96-2.33,1.42-4.49c0.48-2.16,0.48-3.17,0.48-3.17l-0.86,0.14c0,0,0.26-1.04,0.24-2.09
		c0-1.03-0.07-1.97-0.07-1.97L110.55,91.18z"/>
	<path class="st5" d="M104.51,107.78c0.17,1.46,0.45,3.08,0.92,4.83c1.66,6.1,1.64,10.4,1.64,10.4s-0.5-0.22-1.59-0.29
		c-1.11-0.09-2.16,0.22-2.16,0.22l-3.1,6.13l-3.2,5.52l-0.02,0.5c5.98-0.67,12.85-7.98,13.09-13.29c0.26-5.64-1.58-9.22-2.48-13.86
		c-0.91-4.64-1.52-8.07-1.52-8.07s-0.98,1.95-1.34,3.92C104.4,105.74,104.51,107.78,104.51,107.78L104.51,107.78z"/>
	<path class="st4" d="M90.68,98.29c0,0-1.22,8.05-0.27,12.64c0.96,4.59,3.8,6.42,3.8,6.42c-2.38,0.02-4.01-0.92-5.7-2.64
		c-0.1,13.36,3.92,17.44,8.44,20.37c-0.24,0.03-0.48,0.05-0.72,0.05c-7.06,0.09-14.08-8-13.98-13.45c0.09-4.45,1.23-9.11,2.14-13.75
		c0.91-4.64,1.51-8.07,1.51-8.07s0.99,1.95,1.35,3.92c0.34,1.95,0.24,3.99,0.24,3.99s1.08-3.19,0.89-7.5
		c-0.03-1.04-0.17-2.06-0.38-3.01L90.68,98.29z"/>
	<path class="st1" d="M96.37,135.39c0,0,2.24-0.58,4.03-2.02c1.8-1.42,2.3-2.45,2.3-2.45l-2.04,0.09c0,0,0.55-1.27,2.18-2.47
		c1.63-1.2,2.91-1.49,2.91-1.49s-0.12-2-0.87-2.98c-0.75-0.96-1.28-1.2-1.28-1.2c-5.02,0.19-9.4,0.19-14.41,0
		c0,0-0.53,0.24-1.28,1.2c-0.75,0.98-0.87,2.98-0.87,2.98s1.28,0.29,2.91,1.49c1.61,1.2,2.18,2.47,2.18,2.47l-2.04-0.09
		c0,0,0.5,1.03,2.29,2.45C94.14,134.81,96.37,135.39,96.37,135.39z"/>
</g>
</svg>
