<?xml version="1.0" encoding="utf-8"?>
<!-- Generator: Adobe Illustrator 26.0.1, SVG Export Plug-In . SVG Version: 6.00 Build 0)  -->
<svg version="1.1" id="Camada_1" xmlns="http://www.w3.org/2000/svg" xmlns:xlink="http://www.w3.org/1999/xlink" x="0px" y="0px"
	 viewBox="0 0 192 192" style="enable-background:new 0 0 192 192;" xml:space="preserve">
<style type="text/css">
	.st0{clip-path:url(#SVGID_00000043440170000295833780000017595804327741685906_);}
	.st1{fill:#50B748;}
	.st2{fill:#125B46;}
	.st3{fill:#080509;}
	.st4{fill:#808080;}
	.st5{fill:#009A4C;}
	.st6{fill:#16664D;}
	.st7{fill:#191919;}
	.st8{fill:#52AE32;}
	.st9{fill:#FFFFFF;}
	.st10{fill:#232323;}
	.st11{fill:#D3D0CF;}
	.st12{font-family:'ArialMT';}
	.st13{font-size:7.8751px;}
</style>
<g>
	<defs>
		<rect id="SVGID_1_" x="0" width="192" height="192"/>
	</defs>
	<clipPath id="SVGID_00000135652053266033895160000016717590301042801086_">
		<use xlink:href="#SVGID_1_"  style="overflow:visible;"/>
	</clipPath>
	<g style="clip-path:url(#SVGID_00000135652053266033895160000016717590301042801086_);">
		<g>
			<g>
				<path d="M62.5,158.9c-5.9-3-10.8-7.6-14.3-13.3c-3.5-5.7-5.3-12.2-5.3-18.8v-4.1h2.8c4.6,0,8.4-3.8,8.4-8.4
					c0-4.6-3.8-8.4-8.4-8.4h-2.8V64.1c-0.7,0.3-1.1,0.5-1.1,0.5l-3.9,1.7V62V30.3l-6.1-6v-8.7h128.4v8.7l-6.3,6v35.9l-3.9-1.7
					c0,0-0.4-0.2-1.2-0.5v41.8H146c-4.6,0-8.4,3.8-8.4,8.4s3.8,8.4,8.4,8.4h2.8v4.1c0,6.6-1.8,13.1-5.3,18.8
					c-3.5,5.7-8.4,10.3-14.3,13.3l-33.4,17.2L62.5,158.9z"/>
				<path d="M29,12.8v12.7l1.7,1.6l4.4,4.4v39.1l5-2.2v40.4h5.6c3.1,0,5.6,2.5,5.6,5.6c0,0.8-0.2,1.6-0.5,2.3
					c-0.9,1.9-2.8,3.2-5.1,3.2h-5.6v6.9c0,7.2,2,14.2,5.7,20.3c3.7,6.1,9,11.1,15.4,14.3l32.1,16.5l2.6,1.3l2.6-1.3l32.1-16.5
					c6.4-3.3,11.7-8.2,15.4-14.3s5.7-13.1,5.7-20.3v-6.9h-5.6c-2.3,0-4.2-1.3-5.1-3.2c-0.4-0.7-0.5-1.5-0.5-2.3
					c0-3.1,2.5-5.6,5.6-5.6h5.6V68.3l5.1,2.2v-39l4.6-4.4l1.7-1.7V12.8H29z M151.1,29.1V62c0,0-1.9-0.8-5.1-2v43.1
					c-6.2,0-11.2,5-11.2,11.2c0,0.8,0.1,1.6,0.3,2.3c1.1,5,5.6,8.8,10.9,8.8v1.3c0,12.5-7,23.9-18.1,29.6l-32.1,16.5l-32.1-16.5
					c-11.1-5.7-18.1-17.1-18.1-29.6v-1.3c5.4,0,9.9-3.8,10.9-8.8c0.2-0.7,0.3-1.5,0.3-2.3c0-6.2-5-11.2-11.2-11.2V60
					c-3.2,1.2-5,2-5,2V29.1l-6.1-6v-4.7h122.9v4.7L151.1,29.1z"/>
			</g>
			<path d="M63.1,157.7c-5.7-2.9-10.4-7.3-13.7-12.8c-3.3-5.4-5.1-11.7-5.1-18.1v-2.7h1.4c5.4,0,9.8-4.4,9.8-9.8
				c0-5.4-4.4-9.8-9.8-9.8h-1.4V62c-2,0.8-3.1,1.3-3.1,1.3l-2,0.9V29.7l-6.1-6V17h125.6v6.7l-6.3,6v34.4l-1.9-0.8
				c0,0-1.1-0.5-3.1-1.3v42.5H146c-5.4,0-9.8,4.4-9.8,9.8c0,5.4,4.4,9.8,9.8,9.8h1.4v2.7c0,6.4-1.8,12.6-5.1,18.1
				c-3.3,5.4-8.1,9.9-13.7,12.8l-32.7,16.8L63.1,157.7z"/>
			<path class="st1" d="M31.8,15.6v8.7l0.8,0.8l5.3,5.2v36l3.9-1.7c0,0,0.4-0.2,1.1-0.5v41.8h2.8c4.7,0,8.4,3.8,8.4,8.4
				c0,0.4,0,0.8-0.1,1.2s-0.1,0.8-0.2,1.1c-0.1,0.3-0.2,0.6-0.3,0.9c0,0.1-0.1,0.1-0.1,0.2c-0.3,0.7-0.7,1.3-1.2,1.9
				c-0.1,0.2-0.3,0.4-0.5,0.5c-0.2,0.2-0.4,0.4-0.6,0.5c-0.1,0.1-0.3,0.2-0.5,0.3c-0.3,0.2-0.6,0.4-0.9,0.6
				c-0.4,0.2-0.8,0.4-1.2,0.5c-0.3,0.1-0.7,0.2-1,0.3c-0.1,0-0.2,0.1-0.4,0.1c-0.1,0-0.2,0-0.3,0.1c-0.1,0-0.2,0-0.4,0
				c-0.2,0-0.4,0-0.7,0h-2.8v4.1c0,6.6,1.8,13.1,5.3,18.8c3.5,5.6,8.4,10.2,14.3,13.3l32.1,16.5l1.3,0.7l1.3-0.7l32.1-16.5
				c5.9-3,10.8-7.6,14.3-13.3c3.5-5.7,5.3-12.2,5.3-18.8v-4.1h-2.8c-0.2,0-0.5,0-0.7,0c-0.1,0-0.2,0-0.3,0c-0.1,0-0.2,0-0.3-0.1
				c-0.1,0-0.2,0-0.4-0.1c-0.3-0.1-0.7-0.1-1-0.3c0,0,0,0-0.1,0c-0.3-0.1-0.7-0.2-1-0.4c-0.1,0-0.2-0.1-0.3-0.1
				c-0.2-0.1-0.5-0.2-0.7-0.4c-0.5-0.4-1.1-0.8-1.5-1.3c-0.3-0.3-0.5-0.6-0.7-0.9c-0.1-0.2-0.2-0.4-0.4-0.6
				c-0.1-0.2-0.2-0.4-0.3-0.6c-0.1-0.2-0.2-0.4-0.3-0.6c-0.1-0.2-0.1-0.4-0.2-0.6c-0.1-0.3-0.2-0.7-0.2-1c0,0,0-0.1,0-0.1
				c0,0,0,0,0,0c-0.1-0.4-0.1-0.8-0.1-1.2c0-4.7,3.8-8.4,8.4-8.4h2.8V64.1c0.8,0.3,1.2,0.5,1.2,0.5l3.9,1.7V30.3l5.4-5.2l0.9-0.8
				v-8.7H31.8z M157.4,23.1l-6.3,6V62c0,0-1.9-0.8-5.1-2v43.1c-6.2,0-11.2,5-11.2,11.2c0,0.8,0.1,1.6,0.3,2.3
				c1.1,5,5.6,8.8,10.9,8.8v1.3c0,12.5-7,23.9-18.1,29.6l-32.1,16.5l-32.1-16.5c-11.1-5.7-18.1-17.1-18.1-29.6v-1.3
				c5.4,0,9.9-3.8,10.9-8.8c0.2-0.7,0.3-1.5,0.3-2.3c0-6.2-5-11.2-11.2-11.2V60c-3.2,1.2-5,2-5,2V29.1l-6.1-6v-4.7h122.9V23.1z"/>
			<path class="st2" d="M72.7,139.4c-6.7-7.4-17.8-4.7-17.8-4.7l1.2,5.5c1.2,5.2,5.1,9.3,10.2,10.7c7.9,2.1,18.5,5,18.7,5
				C84.8,155.8,74,140.6,72.7,139.4z"/>
			<path class="st2" d="M96.1,153.1c-8.5,0-16.2-4.4-20.6-11.6l0,0c-4.4-6.9-13.2-7.7-16.8-7.7l11.7-5.8l0.1-0.2
				c1.5-2.6,3.8-6.1,5-8c0.4-0.7,0.4-1.5,0-2.2c-1.4-2.1-2-3.2-2.1-3.5l1.6-12.9l-0.4-0.3c-2.7-1.6-3.9-4.5-4.3-5.4
				c3.9-2.4,3.6-6.4,2.7-8.5l0-0.1l0-0.1c-1.9-3.1-4.2-3.9-6.8-4.9c-1.8-0.7-3.8-1.4-6-3c-5.7-4.6-8-14-8.8-21
				c-0.7-5.6-0.5-11.4-0.3-13.8c6.3,3.6,33.4,22.7,39,26.6l0.3,0.2l0.3-0.1c1.7-0.4,3.4-0.6,5.1-0.6h0.9c1.7,0,3.5,0.2,5.1,0.6
				L102,71l0.3-0.2c5.6-3.9,32.6-23,39-26.6c0.1,2.4,0.4,8.2-0.3,13.8c-0.9,7-3.1,16.4-8.8,21c-2.2,1.6-4.2,2.3-6,3
				c-2.6,1-4.9,1.8-6.8,4.9l0,0.1l0,0.1c-0.9,2-1.3,6,2.7,8.5c-0.3,0.9-1.5,3.7-4.3,5.4l-0.4,0.3l1.6,12.9c-0.1,0.3-0.7,1.4-2.1,3.5
				c-0.5,0.7-0.5,1.6,0,2.3c1.2,1.9,3.5,5.4,5,8l0.1,0.2l11.7,5.8c-3.7,0-12.4,0.8-16.8,7.7C112.3,148.7,104.6,153.1,96.1,153.1z"/>
			<g>
				<path class="st1" d="M110.7,99c-0.3,0-0.8-0.1-0.9-0.1c-1-0.2-2.3-0.7-3.9-1.7c3.7-3.1,9.3-4.4,13-5c-2.1,1-2.9,1.8-2.9,1.9
					l-0.1,0.1l0,0.1c0,0-0.3,1.2-1.1,2.3C113.6,98.2,112.3,98.9,110.7,99L110.7,99z"/>
				<path class="st3" d="M119.8,91.7c-0.2,0-0.5,0.1-0.7,0.1c-3.7,0.5-9.8,1.9-13.6,5.3l-0.2,0.3c1.6,1,3.1,1.8,4.4,2
					c0.1,0,0.1,0,0.1,0c0,0,0.6,0.1,1,0.1c0,0,0.1,0,0.1,0c0.5,0,1-0.1,1.4-0.3c0,0,0.1,0,0.1,0c1.2-0.5,2.1-1.3,2.7-2.2
					c0.8-1.2,1.2-2.5,1.2-2.5s0.9-0.9,3.1-1.9c0.2-0.1,0.5-0.2,0.7-0.3C119.9,92.1,119.8,91.9,119.8,91.7z M115.4,94l-0.1,0.2
					c0,0-0.3,1.1-1.1,2.2c-1,1.4-2.1,2.1-3.5,2.2h0c-0.2,0-0.7-0.1-0.8-0.1c-0.9-0.1-2-0.6-3.2-1.3c2.8-2.2,6.6-3.4,9.8-4
					c-0.6,0.4-0.8,0.7-0.8,0.7L115.4,94z"/>
			</g>
			<path class="st4" d="M88.2,95.9c0,0,2.4,3.7-1.9,6.6c-0.1,0.1-3.1,2.8-6,9.3c0.2,1.9,1.2,4.2,2.3,6.2c1.4,2.6,3.1,5,5,7.2
				l2.9,3.3l-1.9,1.1l-5.7-6.5c0,0-5-6.7-5.5-11.3c2.9-6.4,5.9-9.2,6-9.3c3.9-1.7,4.4-4,4.4-4.2l0.1-0.2c0-0.1,0.1-0.3,0.1-0.4l0,0
				c0.1-0.2,0.1-0.5,0.1-0.7C87.9,96.9,88.2,95.9,88.2,95.9z"/>
			<path class="st5" d="M88.2,95.9c0,0,2.4,3.7-1.9,6.6c-0.1,0.1-3.1,2.8-6,9.3c0.2,1.9,1.2,4.2,2.3,6.2c1.4,2.6,3.1,5,5,7.2
				l2.9,3.3l-1.9,1.1l-5.7-6.5c0,0-5-6.7-5.5-11.3c2.9-6.4,5.9-9.2,6-9.3c3.9-1.7,4.4-4,4.4-4.2l0.1-0.2c0-0.1,0.1-0.3,0.1-0.4l0,0
				c0.1-0.2,0.1-0.5,0.1-0.7C87.9,96.9,88.2,95.9,88.2,95.9z"/>
			<path class="st5" d="M104,95.9c0,0-2.4,3.7,1.9,6.6c0.1,0.1,3.1,2.8,6,9.3c-0.2,1.9-1.2,4.2-2.3,6.2c-1.4,2.6-3.1,5-5,7.2
				l-2.9,3.3l1.9,1.1l5.7-6.5c0,0,5-6.7,5.5-11.3c-2.9-6.4-5.9-9.2-6-9.3c-3.9-1.7-4.4-4-4.4-4.2l-0.1-0.2c0-0.1-0.1-0.3-0.1-0.4
				l0,0c-0.1-0.2-0.1-0.5-0.1-0.7C104.4,96.9,104,95.9,104,95.9z"/>
			<path class="st5" d="M98.9,86.2l-0.6-0.3l0,0.7c0,0.3,0,0.7,0.1,0.9l0,0c0,0.1,0,0.2,0.1,0.3l0.1,0.2c0,0.1,0.5,2.1,3.8,3.5
				c0,0,0.7,0.4,1.8,1c0,0,0,0,0,0c-1.9,2.1-5.1,0.3-5.2,0.3l-0.6,0.3c0,0.2-1.1,1-2.2,1c-1.1,0-2.1-0.8-2.1-1l-0.6-0.3
				c-0.1,0.1-3.3,1.9-5.2-0.3c0,0,0,0,0,0c1-0.6,1.7-1,1.8-1c3.3-1.4,3.7-3.5,3.8-3.5l0-0.1c0-0.1,0.1-0.2,0.1-0.3v0
				c0.1-0.3,0.1-0.6,0.1-0.9l0-0.7l-0.6,0.3c-0.1,0.1-3.3,1.9-5.2-0.3c-0.7-0.7-1.2-1.8-1.8-2.9c-0.6-1.1-1.2-2.3-2-3.2
				c5-4.5,11.2-4.5,11.3-4.5h0.4h0.4c0.1,0,6.3,0,11.3,4.5c-0.8,0.9-1.4,2.1-2,3.2c-0.6,1.1-1.1,2.2-1.8,2.9
				C102.2,88.1,99,86.3,98.9,86.2z"/>
			<path class="st6" d="M115.9,133.2c-2.1,3.4-11,18.5-19.8,18.5c-8.8,0-17.6-15-19.8-18.5c-1.1-1.7-1.6-3.4-1.9-4.9
				c-0.4,2.3-0.4,5.8,1.9,9.5c1.4,2.3,4,6.6,6.9,11.3c5.8,9.8,20,9.8,25.8,0c2.9-4.8,5.5-9.1,6.9-11.3c2.3-3.7,2.3-7.2,1.9-9.5
				C117.5,129.8,117,131.5,115.9,133.2z"/>
			<path class="st5" d="M84.4,72.5c-5.2,2.9-8.8,7.2-10.5,9.7c-5.4-14.6-14.8-22.3-17.2-24c-0.2-0.1-0.4-0.3-0.5-0.4
				c-0.1-0.3-0.1-0.5-0.2-0.7c0-0.2-0.1-0.4-0.1-0.6c-0.2-1-0.4-1.9-0.6-2.7c0-0.2-0.1-0.4-0.1-0.6c-0.1-0.7-0.2-1.4-0.3-1.8
				c2.3,1.6,9.1,6.5,17.9,12.3C78.6,67.6,82.5,70.8,84.4,72.5z"/>
			<path class="st5" d="M107.8,72.5c5.2,2.9,8.8,7.2,10.5,9.7c5.4-14.6,14.8-22.3,17.2-24c0.2-0.1,0.4-0.3,0.5-0.4
				c0.1-0.3,0.1-0.5,0.2-0.7c0-0.2,0.1-0.4,0.1-0.6c0.2-1,0.4-1.9,0.6-2.7c0-0.2,0.1-0.4,0.1-0.6c0.1-0.7,0.2-1.4,0.3-1.8
				c-2.3,1.6-9.1,6.5-17.9,12.3C113.6,67.6,109.8,70.8,107.8,72.5z"/>
			<path class="st5" d="M99.5,112.9c0,0,1.3-5.2,5.7-5.5c4.4-0.3,1.9,5.1,1.9,5.1s-0.4-3-1.9-2.3C103.7,110.8,99.5,112.9,99.5,112.9
				z"/>
			<path class="st5" d="M92.9,112.9c0,0-1.3-5.2-5.7-5.5c-4.4-0.3-1.9,5.1-1.9,5.1s0.4-3,1.9-2.3C88.7,110.8,92.9,112.9,92.9,112.9z
				"/>
			<path class="st5" d="M96.1,101.6c0,1.9-3.2,2.2-3.2,2.2s2.9,2.7,3.2,6.3c0.3-3.6,3.2-6.3,3.2-6.3S96.1,103.5,96.1,101.6z"/>
			<path class="st2" d="M119.6,139.4c6.7-7.4,17.8-4.7,17.8-4.7l-1.2,5.5c-1.2,5.2-5.1,9.3-10.2,10.7c-7.9,2.1-18.5,5-18.7,5
				C107.4,155.8,118.3,140.6,119.6,139.4z"/>
			<path class="st5" d="M121.4,141c5.1-4.4,11.7-4,15.4-3.3l0.6-2.9c0,0-11.1-2.7-17.8,4.7c-1.3,1.1-12.1,16.3-12.4,16.5
				C107.5,155.8,120,141.9,121.4,141z"/>
			<path class="st6" d="M121.4,141c5.1-4.4,11.7-4,15.4-3.3l0.6-2.9c0,0-11.1-2.7-17.8,4.7c-1.3,1.1-12.1,16.3-12.4,16.5
				C107.5,155.8,120,141.9,121.4,141z"/>
			<path class="st6" d="M70.9,141c-5.1-4.4-11.7-4-15.4-3.3l-0.6-2.9c0,0,11.1-2.7,17.8,4.7C74,140.6,84.8,155.8,85,156
				C84.8,155.8,72.3,141.9,70.9,141z"/>
			<path d="M142,43l-0.4,0.2c-0.3,0.2-0.8,0.5-1.4,0.8c-0.1,0.1-0.3,0.2-0.5,0.3c-0.1,0.1-0.3,0.2-0.5,0.3c-0.1,0.1-0.3,0.2-0.5,0.3
				c-0.2,0.1-0.4,0.2-0.5,0.3c-0.1,0.1-0.3,0.2-0.5,0.3c-1.1,0.7-2.3,1.5-3.6,2.4c-0.3,0.2-0.6,0.4-1,0.6c-0.1,0.1-0.3,0.2-0.5,0.4
				c-0.2,0.1-0.4,0.2-0.6,0.4c-0.1,0.1-0.3,0.2-0.5,0.4c-1.4,0.9-2.9,1.9-4.4,3h0c-3.7,2.6-7.7,5.3-11.4,7.9
				c-5.7,4-10.8,7.6-13.3,9.3c-0.4,0.2-0.8,0.3-1.3,0.2c-1.4-0.3-3-0.5-4.6-0.5h-0.9c-1.6,0-3.2,0.2-4.6,0.5c-0.5,0.1-0.9,0-1.3-0.2
				c-2.5-1.8-7.6-5.4-13.3-9.3c-3.8-2.6-7.8-5.4-11.5-8c-1.4-1-2.8-1.9-4.1-2.8c-0.1,0-0.1-0.1-0.1-0.1c-3.1-2.1-5.8-3.9-7.7-5.1
				c-0.1-0.1-0.3-0.2-0.5-0.3c-0.2-0.1-0.4-0.2-0.5-0.3c-0.6-0.3-1.1-0.6-1.4-0.8l-0.4-0.2c0,0-0.4,4-0.2,9.1c0,0.4,0,0.7,0,1.1
				c0,0.2,0,0.4,0,0.6c0,0.2,0,0.3,0.1,0.5v0c0,0.1,0,0.3,0,0.5c0.1,1.1,0.1,2.2,0.3,3.4c0.9,7.2,3.2,16.8,9.1,21.5
				c2.3,1.7,4.3,2.4,6.2,3.1c2.6,1,4.6,1.7,6.4,4.4c0.1,0.1,0.1,0.2,0.1,0.3c0.2,0.6,0.7,2.3,0.1,4.2c-0.1,0.2-0.1,0.4-0.2,0.5
				c-0.5,1-1.2,2-2.6,2.7l-0.3,0.2l0.1,0.3c0.1,0.1,1.1,3.4,3.9,5.5c0.5,0.3,0.7,0.9,0.6,1.5l-1.5,11.7l0.1,0.1
				c0,0.1,0.4,0.8,1.4,2.4c0.2,0.3,0.4,0.7,0.7,1.1c0.3,0.5,0.3,1.2,0,1.7c-1.2,1.9-3.2,5-4.7,7.5c-0.1,0.3-0.4,0.5-0.7,0.6
				L55,134.7l0,0l2.2-0.2c0.1,0,11.2-1,16.5,7.3l9.9,12.6l1.2,1.5v0l11.4,14.5l11.3-14.5l1.3-1.6l0.1-0.1l9.6-12.4
				c5.3-8.3,16.4-7.3,16.5-7.3l2.3,0.2l-0.1,0l-2.7-1.4c-0.4-0.2-0.7-0.3-1.1-0.5l-1.1-0.6c-0.1,0-0.1-0.1-0.1-0.1l-1.6-0.8
				l-5.3-2.6l-2-1c0,0,0,0-0.1,0l-0.4-0.2c-0.2-0.1-0.4-0.2-0.5-0.5c0,0,0,0,0,0c0,0-0.1-0.1-0.1-0.1c-0.1-0.2-0.2-0.3-0.3-0.5
				c-0.1-0.1-0.2-0.3-0.3-0.5c-0.6-1.1-1.3-2.1-2-3.2c-0.4-0.6-0.7-1.1-1.1-1.7c-0.4-0.6-0.7-1.1-1.1-1.6c-0.3-0.5-0.3-1.2,0-1.7
				c0.3-0.4,0.5-0.7,0.7-1.1c1-1.6,1.4-2.3,1.4-2.4l0.1-0.1l-1.5-11.7c-0.1-0.6,0.2-1.1,0.7-1.5c2.8-2.1,3.9-5.4,3.9-5.5l0.1-0.3
				l-0.3-0.2c-1.3-0.8-2.2-1.7-2.6-2.7c-0.1-0.2-0.1-0.4-0.2-0.5c-0.6-1.8-0.1-3.6,0.2-4.2c0-0.1,0.1-0.2,0.1-0.3
				c1.8-2.7,3.8-3.5,6.3-4.4c1.8-0.7,3.9-1.5,6.2-3.1c5.9-4.8,8.3-14.3,9.2-21.5c0.1-1.1,0.2-2.2,0.3-3.3c0-0.2,0-0.4,0-0.5
				c0-0.1,0-0.3,0-0.5c0-0.1,0-0.3,0-0.5c0.1-0.4,0.1-0.8,0.1-1.2C142.4,47,142,43,142,43z M124.5,77.7c-1,0.8-2,1.5-2.9,2.1
				c-0.7,0.5-1.3,0.9-2,1.4c-0.3,0.2-0.6,0.3-1,0.3c-0.5,0-0.9-0.2-1.2-0.6c-0.5-0.7-1.1-1.4-1.8-2.1c-0.4-0.4-0.8-0.8-1.2-1.3
				c-0.5-0.5-0.9-0.9-1.4-1.3c-0.4-0.4-0.9-0.7-1.3-1.1c-0.1-0.1-0.1-0.1-0.2-0.1c-0.5-0.4-1.1-0.8-1.7-1.2c-0.1,0-0.1-0.1-0.1-0.1
				c-0.9-0.6-0.9-1.8-0.1-2.5c2.2-1.8,5.5-4.4,10-7.4c3.8-2.5,7.3-4.8,10.2-6.8c0.7-0.5,1.3-0.9,1.9-1.3c0.3-0.2,0.6-0.5,0.9-0.6
				c0.5-0.4,1.1-0.7,1.5-1.1c0.1-0.1,0.1-0.1,0.1-0.1c0.6-0.4,1.1-0.8,1.5-1.1c0.1-0.1,0.2-0.1,0.2-0.2c0.1-0.1,0.2-0.1,0.2-0.2
				c0,0,0.1-0.1,0.1-0.1c0,0,0,0,0.1,0c0.4-0.1,0.8,0.2,0.8,0.6V53c0,0.1,0,0.2-0.1,0.3c-0.1,0.3-0.1,0.7-0.2,1.1c0,0.1,0,0.2,0,0.3
				c-0.1,0.6-0.2,1.2-0.4,1.9c-0.1,0.4-0.2,0.9-0.3,1.3C134.5,64.3,131.1,73.3,124.5,77.7C124.6,77.7,124.5,77.7,124.5,77.7z
				 M67.8,77.7C67.7,77.7,67.7,77.7,67.8,77.7c-6.6-4.5-10-13.5-11.6-19.9c-0.1-0.4-0.1-0.7-0.2-1c-0.1-0.4-0.2-0.8-0.3-1.2
				c-0.1-0.5-0.2-1.1-0.3-1.6c0-0.1,0-0.2-0.1-0.3c-0.1-0.3-0.1-0.6-0.1-0.9c-0.1-0.6,0.5-0.9,1-0.6h0c1.1,0.8,2.7,1.9,4.6,3.2
				c0.6,0.4,1.2,0.8,1.9,1.3c2.9,2,6.3,4.3,10.2,6.8c3.4,2.2,6.1,4.2,8.1,5.9c0.4,0.3,0.7,0.5,1,0.8c0.3,0.2,0.6,0.5,0.9,0.7
				c0.8,0.7,0.7,2-0.1,2.5c-0.7,0.5-1.4,1-2,1.4c-0.5,0.4-0.9,0.7-1.4,1.1c-0.5,0.5-1,0.9-1.4,1.3c-0.1,0.1-0.2,0.2-0.3,0.3
				c-0.5,0.5-0.8,0.9-1.2,1.3c0,0,0,0,0,0.1c-0.3,0.3-0.5,0.6-0.7,0.9c-0.2,0.3-0.5,0.6-0.7,0.8c-0.3,0.4-0.7,0.6-1.2,0.6
				c-0.4,0-0.7-0.1-1-0.3c-0.6-0.5-1.3-0.9-2-1.4C69.7,79.2,68.7,78.5,67.8,77.7z M84.3,150C84.2,150,84.3,150,84.3,150
				c-0.3-0.4-0.6-0.7-0.8-1c-2.6-4-4.9-7.7-6.3-9.9c-0.2-0.3-0.4-0.7-0.6-0.9c-0.1-0.1-0.2-0.2-0.2-0.4c-0.4-0.7-0.7-1.3-1-1.9
				c-0.3-0.6-0.5-1.3-0.6-1.9c-0.6-2.2-0.5-4.2-0.2-5.7c0.3-1.7,0.8-2.7,0.8-2.7l0.9-1.7c0.5-1.1,2-1.2,2.7-0.2c0.5,0.6,1,1.3,1.6,2
				l7.9,10.8l0.4-0.5c0-0.1,3.6-4.7,6.8-4.7h1.3c3.2,0,6.8,4.6,6.8,4.7l0.4,0.5l7.9-10.8c0.5-0.7,1.1-1.4,1.5-2
				c0.7-1,2.2-0.8,2.7,0.2l0.9,1.7c0,0,0.5,1.1,0.8,2.7c0.2,1.5,0.4,3.5-0.2,5.7c-0.1,0.6-0.4,1.2-0.6,1.9c-0.3,0.6-0.6,1.3-1,1.9
				c-0.2,0.3-0.4,0.6-0.6,0.9c0,0,0,0,0,0c-0.2,0.3-0.5,0.7-0.7,1.1c-1.5,2.4-3.6,5.7-5.9,9.2c-0.2,0.3-0.5,0.7-0.7,1l0,0
				C102.1,157.8,90.2,157.8,84.3,150z M112.8,117.4c-0.3,0.6-0.6,1.2-1,1.8c-0.5,0.9-1,1.7-1.4,2.3c-0.2,0.4-0.5,0.7-0.6,0.9
				c-0.3,0.4-0.5,0.7-0.5,0.7l-4.8,5.5c-0.5,0.5-1.2,0.7-1.8,0.4h0c-0.1,0-0.1,0-0.1-0.1l-2.2-1.3c-0.4-0.2-0.7-0.6-0.8-1.1
				c-0.6-2.8-1.2-8.1,0.4-9.9c0-0.1,0.1-0.1,0.1-0.1c0.6-0.5,1.3-0.7,2.4-0.5l0.1,0l0.1-0.1c2.9-1.6,4-2.9,4.4-3.6
				c0.2-0.3,0.2-0.5,0.2-0.6v0c0-0.1,0.1-1.3-0.8-2.1c-0.6-0.5-1.4-0.7-2.4-0.5c-1.7,0.2-3.3,1.8-4.6,3.6c0,0,0,0.1,0,0.1
				c-0.9,1.3-1.7,2.7-2.3,3.8c-0.6,1.2-1,2.1-1,2.2l0,0.1l0-0.1c0-0.1-0.4-1-1-2.2c-0.6-1.1-1.4-2.6-2.3-3.9h0v0
				c-1.3-1.8-2.9-3.3-4.5-3.5c-1-0.2-1.8-0.1-2.4,0.5c-0.7,0.6-0.8,1.4-0.8,1.9v0c0,0.1,0,0.2,0,0.2v0c0,0.2,0.4,1.9,4.6,4.2
				l0.1,0.1l0.2,0c1-0.2,1.8-0.1,2.3,0.5c0,0,0.1,0.1,0.1,0.1c1.7,1.9,1,7.2,0.4,9.9c-0.1,0.5-0.4,0.8-0.7,1.1l-1.4,0.8l-0.7,0.5
				c0,0,0,0-0.1,0c0,0,0,0-0.1,0h0c-0.6,0.3-1.2,0.2-1.7-0.3c0,0,0,0-0.1,0c0,0-0.1-0.1-0.1-0.1l-4.8-5.4c0,0-0.1-0.1-0.1-0.1
				c-0.1-0.2-0.6-0.9-1.3-1.9c-0.2-0.4-0.5-0.7-0.7-1.2c-0.5-0.8-1-1.7-1.4-2.6c-0.1-0.2-0.2-0.5-0.3-0.7h0
				c-0.1-0.3-0.3-0.6-0.4-0.9c-0.1-0.1-0.1-0.2-0.1-0.3c-0.1-0.3-0.2-0.6-0.3-0.9c-0.2-0.5-0.3-0.9-0.5-1.4
				c-0.1-0.3-0.1-0.5-0.2-0.8c-0.1-0.3,0-0.7,0.1-1c1.9-3.9,5.8-6.8,8.4-8.6c1.6-1,2.7-1.6,2.8-1.6c3.9-1.7,4.4-4,4.4-4.2l0.1-0.2
				c0-0.1,0.1-0.3,0.1-0.4l0,0c0.1-0.3,0.1-0.7,0.1-1.1l0-0.8l-0.7,0.4c-0.1,0.1-3.8,2.2-6.1-0.3c-0.7-0.8-1.4-2.1-2-3.4
				c-1.4-2.8-3.1-6-6.3-5.3c0,0-0.3,0-0.7,0.1C83.2,74.7,95,74.5,95.6,74.5h0.9c0,0,0,0,0.1,0c0.6,0,12.4,0.2,17.9,11.6
				c-0.4-0.1-0.7-0.1-0.7-0.1c-3.3-0.6-4.9,2.5-6.3,5.3c-0.7,1.3-1.3,2.5-2.1,3.4c-2.2,2.5-5.9,0.4-6.1,0.3l-0.7-0.4v0.8
				c0,0.4,0.1,0.8,0.1,1.1v0c0,0.1,0.1,0.2,0.1,0.3l0.1,0.2c0,0.1,0.6,2.5,4.4,4.2c0,0,1.2,0.6,2.8,1.6c2.6,1.7,6.5,4.7,8.4,8.6
				c0.1,0.1,0.1,0.2,0.1,0.3c0.1,0.1,0.1,0.2,0.1,0.3v0.1c0,0.1,0,0.2,0,0.3c0,0.1,0,0.2-0.1,0.4c-0.1,0.7-0.4,1.5-0.7,2.3
				c-0.1,0.2-0.1,0.4-0.2,0.5c-0.1,0.2-0.2,0.5-0.3,0.7c-0.1,0.1-0.1,0.3-0.2,0.5C113,116.9,112.9,117.1,112.8,117.4z"/>
			<path class="st1" d="M110.7,99c-0.3,0-0.8-0.1-0.9-0.1c-1-0.2-2.3-0.7-3.9-1.7c3.7-3.1,9.3-4.4,13-5c-2.1,1-2.9,1.8-2.9,1.9
				l-0.1,0.1l0,0.1c0,0-0.3,1.2-1.1,2.3C113.6,98.2,112.3,98.9,110.7,99L110.7,99z"/>
			<path d="M119.8,91.7c-0.2,0-0.5,0.1-0.7,0.1c-3.7,0.5-9.8,1.9-13.6,5.3l-0.2,0.3c1.6,1,3.1,1.8,4.4,2c0.1,0,0.1,0,0.1,0
				c0,0,0.6,0.1,1,0.1c0,0,0.1,0,0.1,0c0.5,0,1-0.1,1.4-0.3c0,0,0.1,0,0.1,0c1.2-0.5,2.1-1.3,2.7-2.2c0.8-1.2,1.2-2.5,1.2-2.5
				s0.9-0.9,3.1-1.9c0.2-0.1,0.5-0.2,0.7-0.3C119.9,92.1,119.8,91.9,119.8,91.7z M115.4,94l-0.1,0.2c0,0-0.3,1.1-1.1,2.2
				c-1,1.4-2.1,2.1-3.5,2.2h0c-0.2,0-0.7-0.1-0.8-0.1c-0.9-0.1-2-0.6-3.2-1.3c2.8-2.2,6.6-3.4,9.8-4c-0.6,0.4-0.8,0.7-0.8,0.7
				L115.4,94z"/>
			<path class="st1" d="M81.5,99c-1.5,0-2.8-0.8-3.9-2.3c-0.8-1.2-1.1-2.3-1.1-2.3l0-0.1l-0.1-0.1c0,0-0.9-0.9-2.9-1.9
				c3.6,0.5,9.3,1.8,13,5c-1.6,1-2.9,1.5-3.9,1.7l0,0C82.5,98.9,81.9,99,81.5,99L81.5,99z"/>
			<path d="M86.9,97c-3.8-3.4-9.9-4.7-13.6-5.3c-0.3,0-0.5-0.1-0.8-0.1c-0.1,0.2-0.1,0.4-0.2,0.5c0.2,0.1,0.5,0.2,0.7,0.3
				c2.2,1,3.1,1.9,3.1,1.9s0.3,1.2,1.2,2.5c0.6,0.9,1.4,1.7,2.6,2.2c0.1,0,0.1,0,0.2,0.1c0.4,0.2,0.9,0.2,1.4,0.3c0,0,0.1,0,0.1,0
				c0.4,0,1-0.1,1-0.1c0,0,0.1,0,0.1,0c1.3-0.2,2.8-1,4.4-2L86.9,97z M82.4,98.5c-0.2,0-0.6,0.1-0.9,0.1h0c-1.4-0.1-2.6-0.8-3.5-2.2
				c-0.7-1.1-1.1-2.2-1.1-2.2L76.9,94l-0.1-0.2c0,0-0.3-0.3-0.8-0.7c3.2,0.7,6.9,1.9,9.8,4C84.3,97.9,83.3,98.4,82.4,98.5z"/>
			<path class="st2" d="M76.8,97c0,0,1.3,2.7,6.3,2.3c0,0-4.9,2.3-5.9,5.2C77.1,104.5,75.5,101.1,76.8,97z"/>
			<path class="st2" d="M115.5,97c0,0-1.3,2.7-6.3,2.3c0,0,4.9,2.3,5.9,5.2C115.1,104.5,116.8,101.1,115.5,97z"/>
			<path class="st7" d="M52.2,91v11.3c0,0,9.9,5.4,10.2,14.4c0,0,8.4-2.1,7.4-11.6c0,0-9.8-3.9-15.1-14.7
				C54.1,89.2,52.2,89.6,52.2,91z"/>
			<path class="st7" d="M138.9,91v11.3c0,0-9.9,5.4-10.2,14.4c0,0-8.4-2.1-7.4-11.6c0,0,9.8-3.9,15.1-14.7
				C137,89.2,138.9,89.6,138.9,91z"/>
			<path class="st8" d="M63.4,53l10.4,8.1c14.5-3.4,29.6-3.2,45,0l9.8-8.1c0,0-14.7-4.9-33.4-4.9C77,48.1,63.4,53,63.4,53z"/>
			<g>
				<path class="st9" d="M114.6,21.9h-6.3v3.1l0,0v19.4c1.8,0.2,3.5,0.4,5.3,0.6V27.2c2.7,0,4.8,2.2,4.8,4.8v13.6
					c1.8,0.3,3.5,0.7,5.3,1.1V31C123.7,26,119.6,21.9,114.6,21.9z"/>
				<g>
					<path class="st9" d="M77.5,21.4c-5.2,0-9.5,4.3-9.5,9.5v16.4l0.6-0.1c4.9-1.1,9.8-1.9,14.8-2.4l0.5-0.1V21.4H77.5z M77.6,27.7
						v9.2c0,1.9-1.4,3.5-3.3,3.7V31C74.3,29.2,75.8,27.7,77.6,27.7z"/>
					<path class="st10" d="M77.6,27.2c-2.1,0-3.8,1.7-3.8,3.8v10.2c2.4,0,4.3-1.9,4.3-4.3v-9.7H77.6z M77.1,36.9
						c0,1.5-1,2.7-2.3,3.1v-9c0-1.3,1-2.5,2.3-2.7V36.9z M77.6,27.2c-2.1,0-3.8,1.7-3.8,3.8v10.2c2.4,0,4.3-1.9,4.3-4.3v-9.7H77.6z
						 M77.1,36.9c0,1.5-1,2.7-2.3,3.1v-9c0-1.3,1-2.5,2.3-2.7V36.9z M77.6,27.2c-2.1,0-3.8,1.7-3.8,3.8v10.2c2.4,0,4.3-1.9,4.3-4.3
						v-9.7H77.6z M77.1,36.9c0,1.5-1,2.7-2.3,3.1v-9c0-1.3,1-2.5,2.3-2.7V36.9z M77.6,27.2c-2.1,0-3.8,1.7-3.8,3.8v10.2
						c2.4,0,4.3-1.9,4.3-4.3v-9.7H77.6z M77.1,36.9c0,1.5-1,2.7-2.3,3.1v-9c0-1.3,1-2.5,2.3-2.7V36.9z M77.6,27.2
						c-2.1,0-3.8,1.7-3.8,3.8v10.2c2.4,0,4.3-1.9,4.3-4.3v-9.7H77.6z M77.1,36.9c0,1.5-1,2.7-2.3,3.1v-9c0-1.3,1-2.5,2.3-2.7V36.9z
						 M77.6,27.2c-2.1,0-3.8,1.7-3.8,3.8v10.2c2.4,0,4.3-1.9,4.3-4.3v-9.7H77.6z M77.1,36.9c0,1.5-1,2.7-2.3,3.1v-9
						c0-1.3,1-2.5,2.3-2.7V36.9z M77.6,27.2c-2.1,0-3.8,1.7-3.8,3.8v10.2c2.4,0,4.3-1.9,4.3-4.3v-9.7H77.6z M77.1,36.9
						c0,1.5-1,2.7-2.3,3.1v-9c0-1.3,1-2.5,2.3-2.7V36.9z M77.6,27.2c-2.1,0-3.8,1.7-3.8,3.8v10.2c2.4,0,4.3-1.9,4.3-4.3v-9.7H77.6z
						 M77.1,36.9c0,1.5-1,2.7-2.3,3.1v-9c0-1.3,1-2.5,2.3-2.7V36.9z M77.6,27.2c-2.1,0-3.8,1.7-3.8,3.8v10.2c2.4,0,4.3-1.9,4.3-4.3
						v-9.7H77.6z M77.1,36.9c0,1.5-1,2.7-2.3,3.1v-9c0-1.3,1-2.5,2.3-2.7V36.9z M77.6,27.2c-2.1,0-3.8,1.7-3.8,3.8v10.2
						c2.4,0,4.3-1.9,4.3-4.3v-9.7H77.6z M77.1,36.9c0,1.5-1,2.7-2.3,3.1v-9c0-1.3,1-2.5,2.3-2.7V36.9z M77.5,21
						c-2.7,0-5.2,1.1-7.1,2.9c-1.2,1.2-2,2.6-2.5,4.1c-0.3,1-0.5,2-0.5,3v17l0.5-0.1l0.7-0.2c4.9-1.1,9.8-1.9,14.8-2.4l0.5-0.1
						l0.4,0V21H77.5z M83.3,44.4c-5,0.5-10,1.3-14.8,2.4V30.9c0-5,4-9,9-9h5.8V44.4z M73.8,31v10.2c2.4,0,4.3-1.9,4.3-4.3v-9.7h-0.5
						C75.5,27.2,73.8,28.9,73.8,31z M77.1,28.3v8.7c0,1.5-1,2.7-2.3,3.1v-9C74.8,29.6,75.8,28.5,77.1,28.3z M77.6,27.2
						c-2.1,0-3.8,1.7-3.8,3.8v10.2c2.4,0,4.3-1.9,4.3-4.3v-9.7H77.6z M77.1,36.9c0,1.5-1,2.7-2.3,3.1v-9c0-1.3,1-2.5,2.3-2.7V36.9z
						 M77.6,27.2c-2.1,0-3.8,1.7-3.8,3.8v10.2c2.4,0,4.3-1.9,4.3-4.3v-9.7H77.6z M77.1,36.9c0,1.5-1,2.7-2.3,3.1v-9
						c0-1.3,1-2.5,2.3-2.7V36.9z M77.6,27.2c-2.1,0-3.8,1.7-3.8,3.8v10.2c2.4,0,4.3-1.9,4.3-4.3v-9.7H77.6z M77.1,36.9
						c0,1.5-1,2.7-2.3,3.1v-9c0-1.3,1-2.5,2.3-2.7V36.9z M77.6,27.2c-2.1,0-3.8,1.7-3.8,3.8v10.2c2.4,0,4.3-1.9,4.3-4.3v-9.7H77.6z
						 M77.1,36.9c0,1.5-1,2.7-2.3,3.1v-9c0-1.3,1-2.5,2.3-2.7V36.9z M77.6,27.2c-2.1,0-3.8,1.7-3.8,3.8v10.2c2.4,0,4.3-1.9,4.3-4.3
						v-9.7H77.6z M77.1,36.9c0,1.5-1,2.7-2.3,3.1v-9c0-1.3,1-2.5,2.3-2.7V36.9z M77.6,27.2c-2.1,0-3.8,1.7-3.8,3.8v10.2
						c2.4,0,4.3-1.9,4.3-4.3v-9.7H77.6z M77.1,36.9c0,1.5-1,2.7-2.3,3.1v-9c0-1.3,1-2.5,2.3-2.7V36.9z"/>
				</g>
				<g>
					<path class="st9" d="M106.6,44.7c-1.7-0.2-3.5-0.3-5.3-0.4l-0.5,0V21.4h6.3v23.4L106.6,44.7z"/>
					<path class="st10" d="M100.4,21v23.8l0.9,0.1c1.8,0.1,3.5,0.2,5.2,0.4l0.7,0.1l0.4,0V21H100.4z M106.7,44.3
						c-1.8-0.2-3.5-0.3-5.3-0.5V22h5.3V44.3z"/>
				</g>
				<g>
					<path class="st9" d="M123.6,47.2c-1.9-0.4-3.6-0.8-5.3-1.1l-0.4-0.1V32c0-2.2-1.7-4.1-3.8-4.3v17.9l-0.6-0.1
						c-1.8-0.2-3.5-0.5-5.3-0.6l-0.4,0V21.4h6.8c2.6,0,5,1,6.8,2.8c1.8,1.8,2.8,4.2,2.8,6.8v16.3L123.6,47.2z"/>
					<path class="st10" d="M124.5,28.9c-0.4-1.9-1.3-3.6-2.8-5c-1.9-1.9-4.4-2.9-7.1-2.9h-7.3v24.4l0.4,0l0.5,0.1
						c1.7,0.2,3.5,0.4,5.2,0.6l1.1,0.1V28.3c1.7,0.5,2.9,1.9,2.9,3.7v14.5l0.8,0.1c1.7,0.3,3.4,0.6,5.3,1.1l0.8,0.2l0.4,0.1V31
						C124.7,30.3,124.6,29.6,124.5,28.9z M123.7,46.7c-1.7-0.4-3.5-0.7-5.3-1.1V32c0-2.7-2.2-4.8-4.8-4.8v17.8
						c-1.8-0.2-3.5-0.5-5.3-0.6V22h6.3c5,0,9.1,4.1,9.1,9.1V46.7z"/>
				</g>
				<g>
					<path class="st9" d="M84.4,21.5v23.3l0.5-0.1c1.8-0.1,3.6-0.3,5.3-0.4l0.5,0v-5.5H93c2.2,0,4.1-0.8,5.4-2.5
						c1.2-1.5,1.9-3.6,1.9-5.9v-9H84.4z M94.1,30.7c0,1.1-1,2.1-2.1,2.1h-1.4v-5.1h3.5C94.1,27.7,94.1,30.7,94.1,30.7z"/>
					<path class="st10" d="M90.1,27.2v6.1h1.9c1.4,0,2.6-1.1,2.6-2.6v-3.5H90.1z M93.5,30.7c0,0.9-0.7,1.6-1.6,1.6h-0.9v-4.1h2.5
						V30.7z M90.1,27.2v6.1h1.9c1.4,0,2.6-1.1,2.6-2.6v-3.5H90.1z M93.5,30.7c0,0.9-0.7,1.6-1.6,1.6h-0.9v-4.1h2.5V30.7z M90.1,27.2
						v6.1h1.9c1.4,0,2.6-1.1,2.6-2.6v-3.5H90.1z M93.5,30.7c0,0.9-0.7,1.6-1.6,1.6h-0.9v-4.1h2.5V30.7z M90.1,27.2v6.1h1.9
						c1.4,0,2.6-1.1,2.6-2.6v-3.5H90.1z M93.5,30.7c0,0.9-0.7,1.6-1.6,1.6h-0.9v-4.1h2.5V30.7z M90.1,27.2v6.1h1.9
						c1.4,0,2.6-1.1,2.6-2.6v-3.5H90.1z M93.5,30.7c0,0.9-0.7,1.6-1.6,1.6h-0.9v-4.1h2.5V30.7z M90.1,27.2v6.1h1.9
						c1.4,0,2.6-1.1,2.6-2.6v-3.5H90.1z M93.5,30.7c0,0.9-0.7,1.6-1.6,1.6h-0.9v-4.1h2.5V30.7z M90.1,27.2v6.1h1.9
						c1.4,0,2.6-1.1,2.6-2.6v-3.5H90.1z M93.5,30.7c0,0.9-0.7,1.6-1.6,1.6h-0.9v-4.1h2.5V30.7z M90.1,27.2v6.1h1.9
						c1.4,0,2.6-1.1,2.6-2.6v-3.5H90.1z M93.5,30.7c0,0.9-0.7,1.6-1.6,1.6h-0.9v-4.1h2.5V30.7z M90.1,27.2v6.1h1.9
						c1.4,0,2.6-1.1,2.6-2.6v-3.5H90.1z M93.5,30.7c0,0.9-0.7,1.6-1.6,1.6h-0.9v-4.1h2.5V30.7z M90.1,27.2v6.1h1.9
						c1.4,0,2.6-1.1,2.6-2.6v-3.5H90.1z M93.5,30.7c0,0.9-0.7,1.6-1.6,1.6h-0.9v-4.1h2.5V30.7z M84,21v24.3l1.1-0.1
						c1.9-0.2,3.6-0.3,5.3-0.4l0.9,0v-5.5H93c1.2,0,2.3-0.2,3.3-0.7c1-0.5,1.8-1.1,2.5-2c0.7-0.9,1.3-2.1,1.6-3.4
						c0.2-0.9,0.4-1.8,0.4-2.8V21H84z M99.8,30.5c0,4.4-2.5,7.9-6.8,7.9h-2.8v5.5c-1.8,0.1-3.5,0.2-5.3,0.4V22h14.9V30.5z
						 M94.5,30.7v-3.5h-4.4v6.1h1.9C93.4,33.3,94.5,32.2,94.5,30.7z M91.1,28.2h2.5v2.6c0,0.9-0.7,1.6-1.6,1.6h-0.9V28.2z
						 M90.1,27.2v6.1h1.9c1.4,0,2.6-1.1,2.6-2.6v-3.5H90.1z M93.5,30.7c0,0.9-0.7,1.6-1.6,1.6h-0.9v-4.1h2.5V30.7z M90.1,27.2v6.1
						h1.9c1.4,0,2.6-1.1,2.6-2.6v-3.5H90.1z M93.5,30.7c0,0.9-0.7,1.6-1.6,1.6h-0.9v-4.1h2.5V30.7z M90.1,27.2v6.1h1.9
						c1.4,0,2.6-1.1,2.6-2.6v-3.5H90.1z M93.5,30.7c0,0.9-0.7,1.6-1.6,1.6h-0.9v-4.1h2.5V30.7z M90.1,27.2v6.1h1.9
						c1.4,0,2.6-1.1,2.6-2.6v-3.5H90.1z M93.5,30.7c0,0.9-0.7,1.6-1.6,1.6h-0.9v-4.1h2.5V30.7z M90.1,27.2v6.1h1.9
						c1.4,0,2.6-1.1,2.6-2.6v-3.5H90.1z M93.5,30.7c0,0.9-0.7,1.6-1.6,1.6h-0.9v-4.1h2.5V30.7z M90.1,27.2v6.1h1.9
						c1.4,0,2.6-1.1,2.6-2.6v-3.5H90.1z M93.5,30.7c0,0.9-0.7,1.6-1.6,1.6h-0.9v-4.1h2.5V30.7z"/>
				</g>
				<g>
					<path class="st9" d="M145.3,55.6c-1.7-0.7-3.4-1.4-5.3-2.1l-0.3-0.1V52c-2.9-1.3-6-2.4-9.3-3.3c-3.1-0.8-5.2-1.2-5.2-1.2
						l-0.4-0.1V30.9c0-5.2,4.2-9.5,9.5-9.5H152l-6,6v5.9h-6.3v-5.6h-4.4c-2.4,0-4.4,2-4.4,4.4V43c3,0.8,5.9,1.7,8.7,2.7v-3.3
						l-4.6-4.6H146v18L145.3,55.6z"/>
					<path class="st10" d="M134.2,21c-2.6,0-5.1,1-7,2.9c-1.4,1.4-2.3,3.2-2.7,5.1c-0.1,0.6-0.2,1.3-0.2,2v17l0.4,0.1l0.5,0.1
						c0,0,2.1,0.3,5.2,1.1c0.4,0.1,0.9,0.2,1.3,0.4c0.3,0.1,0.6,0.1,0.9,0.3c1.7,0.5,3.2,1.1,4.8,1.7c0,0,0,0,0.1,0
						c0.6,0.2,1.3,0.5,1.9,0.8v1.4l0.6,0.2c0.5,0.2,1,0.4,1.4,0.5c0.3,0.1,0.5,0.2,0.7,0.3c1.1,0.4,2.1,0.8,3.1,1.2l1.3,0.6V37.3
						h-12.5l1.7,1.7l3.6,3.6V45c-0.1-0.1-0.3-0.1-0.5-0.2c-2.3-0.8-4.8-1.6-7.2-2.3V32.1c0-2.1,1.7-3.9,3.8-3.9h3.9v5.6h7.2v-6.2
						l5-5l1.7-1.7L134.2,21L134.2,21z M145.6,32.9h-5.3v-5.6h-4.9c-2.7,0-4.8,2.2-4.8,4.8v11.3c2.7,0.7,5.1,1.4,7.2,2.1
						c0.3,0.1,0.6,0.2,0.9,0.3c0.6,0.2,1.1,0.4,1.6,0.6v-4.3l-3.9-3.8h9.2v16.8c-1.1-0.5-2.3-0.9-3.4-1.3c-0.2-0.1-0.5-0.2-0.7-0.3
						c-0.4-0.1-0.7-0.3-1.1-0.5v-1.3c-2.3-1.1-4.6-1.9-6.7-2.5c-0.3-0.1-0.6-0.2-0.9-0.3c-0.7-0.2-1.5-0.4-2.1-0.6
						c-3.2-0.9-5.3-1.2-5.3-1.2V30.9c0-5,4-9,9-9h16.6l-5.3,5.3L145.6,32.9L145.6,32.9z"/>
				</g>
				<g>
					<path class="st9" d="M46.2,27.4l-6-6h12l9,12.9v-8.6l-4.3-4.3h10.5v26l-0.4,0.1c-1.1,0.3-2.1,0.5-3.2,0.8
						c-0.7,0.2-1.4,0.4-2.1,0.6l-0.6,0.2v-0.6c0-2.2-0.7-4.3-2-6.1l-6.8-9.4v20.4l-0.3,0.1c-1.9,0.7-3.6,1.4-5.3,2.1l-0.7,0.3
						L46.2,27.4L46.2,27.4z"/>
					<path class="st10" d="M55.8,21l1.7,1.7l3.3,3.3v6.8l-7.9-11.4L52.5,21H39.1l1.7,1.7l5,5v29l1.3-0.6c1-0.4,2-0.8,3.1-1.3
						c0.2-0.1,0.5-0.2,0.7-0.3c0.5-0.2,0.9-0.4,1.4-0.5l0.6-0.2V34.5l5.9,8.2c1.2,1.7,1.9,3.7,1.9,5.8v1.3l0.1,0l1.1-0.3
						c0.7-0.2,1.4-0.4,2.1-0.5c1-0.3,2.1-0.5,3.1-0.8l0.3-0.1l0.5-0.1V21H55.8z M67,47.1c-1.1,0.2-2.1,0.5-3.2,0.8
						c-0.7,0.2-1.4,0.4-2.1,0.6c0-2.3-0.7-4.5-2-6.4L52,31.4V53c-0.4,0.1-0.7,0.3-1.1,0.4c-0.3,0.1-0.5,0.2-0.8,0.3
						c-1.1,0.4-2.3,0.9-3.4,1.3V27.2l-5.3-5.3H52l9.7,13.9V25.5l-3.6-3.5H67L67,47.1L67,47.1z"/>
				</g>
				<polygon class="st11" points="62.7,46.5 65.6,45.7 66.5,46.6 62.2,47.7 				"/>
				<polygon class="st11" points="47.7,52.9 50.4,51.9 51.5,52.6 47.1,54.4 				"/>
				<path class="st11" d="M69,46.1c0,0,7.5-1.7,13.9-2.1L81.8,43c-4.3,0.4-8,0.9-12.3,1.8L69,46.1z"/>
				<path class="st11" d="M85.5,43.7c0,0,2.1-0.2,4.2-0.3l-0.5-1l-3.4,0.2L85.5,43.7z"/>
				<polygon class="st11" points="101.7,43.3 106.3,43.7 105.5,42.5 102.4,42.3 				"/>
				<polygon class="st11" points="108.7,44 113.2,44.5 112.4,43.2 109.3,43 				"/>
				<polygon class="st11" points="118.8,45.3 123.3,46.1 122.7,45 119.7,44.5 				"/>
				<polygon class="st11" points="140.8,52.8 145,54.3 144.8,53 140.8,51.6 				"/>
				<path class="st11" d="M125.6,46.7c0,0,7.6,1.1,14.6,4.5L140,50c0,0-8.1-3.3-13.3-4.1L125.6,46.7z"/>
				<polygon class="st11" points="94.5,25.8 90.1,25.8 90.5,26.8 94.1,26.8 				"/>
				<path class="st11" d="M76.8,25.9c-0.7,0-1.4,0.3-1.9,0.7c-0.6,0.5-1.2,1.4-1,2.8c0,0,0-0.1,0-0.1c0,0,0-0.1,0-0.1
					c0.4-1.4,1.6-2.3,3-2.4l1.2,0l0.4-1.1L76.8,25.9z"/>
				<path class="st11" d="M114.8,26c3.6,0,4.2,3.9,4,5.3c0,0,0-0.1,0-0.1c0,0,0-0.1,0-0.1c-0.3-1-1.5-3.7-4.2-4l-0.6,0l-0.4-1.1
					C113.6,26,114.8,26,114.8,26z"/>
				<path class="st11" d="M134.3,25.8c-3.6,0-4.4,4.3-4.2,5.7c0,0,0-0.1,0-0.1c0,0,0-0.1,0-0.1c0.4-1.9,1.8-4.4,4.4-4.4l5.3,0
					l0.4-1.1C140.3,25.8,134.3,25.8,134.3,25.8z"/>
				<polygon class="st11" points="144.3,31.5 141.5,31.5 140.6,32.5 145.2,32.5 				"/>
				<polygon class="st11" points="61.8,25.1 59,22.3 60.7,22.3 61.7,23.4 				"/>
				<polygon class="st11" points="46.8,26.6 42.5,22.3 44.2,22.4 46.7,24.9 				"/>
				<polygon class="st11" points="145.5,26.6 149.7,22.3 148.1,22.4 145.6,24.9 				"/>
				<polygon class="st11" points="137,38.6 140.2,41.8 140.2,40.1 138.7,38.7 				"/>
			</g>
		</g>
		<text transform="matrix(1 0 0 1 87.6135 56.1663)" class="st12 st13">VPN</text>
	</g>
</g>
</svg>
