<?xml version="1.0" encoding="utf-8"?>
<!-- Generator: Adobe Illustrator 24.1.1, SVG Export Plug-In . SVG Version: 6.00 Build 0)  -->
<svg version="1.1" id="Layer_1" xmlns="http://www.w3.org/2000/svg" xmlns:xlink="http://www.w3.org/1999/xlink" x="0px" y="0px"
	 viewBox="0 0 600 600" style="enable-background:new 0 0 600 600;" xml:space="preserve">
<style type="text/css">
	.st0{fill:url(#SVGID_1_);}
	.st1{fill:url(#SVGID_2_);}
	.st2{fill:url(#SVGID_3_);}
	.st3{fill:url(#SVGID_4_);}
	.st4{fill:url(#SVGID_5_);}
	.st5{fill:url(#SVGID_6_);}
	.st6{fill:url(#SVGID_7_);}
	.st7{fill:url(#SVGID_8_);}
	.st8{fill:url(#SVGID_9_);}
	.st9{fill:url(#SVGID_10_);}
	.st10{fill:url(#SVGID_11_);}
	.st11{fill:url(#SVGID_12_);}
	.st12{fill:url(#SVGID_13_);}
	.st13{fill:url(#SVGID_14_);}
	.st14{fill:url(#SVGID_15_);}
	.st15{fill:url(#SVGID_16_);}
	.st16{fill:url(#SVGID_17_);}
	.st17{fill:url(#SVGID_18_);}
	.st18{fill:url(#SVGID_19_);}
	.st19{fill:url(#SVGID_20_);}
	.st20{fill:url(#SVGID_21_);}
	.st21{fill:url(#SVGID_22_);}
	.st22{fill:url(#SVGID_23_);}
	.st23{fill:url(#SVGID_24_);}
	.st24{fill:url(#SVGID_25_);}
</style>
<g>
	<g>
		<linearGradient id="SVGID_1_" gradientUnits="userSpaceOnUse" x1="390.5322" y1="53.3112" x2="389.7635" y2="336.2202">
			<stop  offset="0.1341" style="stop-color:#FFEEC0"/>
			<stop  offset="0.4022" style="stop-color:#E3BC5D"/>
			<stop  offset="1" style="stop-color:#BB9847"/>
		</linearGradient>
		<path class="st0" d="M282.4,118.6c51-6.5,132.9-21.9,169,39.5c9.7,16.5,13.6,45.2-30.1,61c20.6-0.8,48.1-7.6,76.7,9
			C488.9,164.3,453.5,71.9,282.4,118.6z"/>
		<linearGradient id="SVGID_2_" gradientUnits="userSpaceOnUse" x1="488.4351" y1="53.5772" x2="487.6663" y2="336.4863">
			<stop  offset="0.1341" style="stop-color:#FFEEC0"/>
			<stop  offset="0.4022" style="stop-color:#E3BC5D"/>
			<stop  offset="1" style="stop-color:#BB9847"/>
		</linearGradient>
		<path class="st1" d="M501.2,292.8c0,0-3.2,18.4-16.7,30.7c-3.2,2.9-6.5,5-18.7,9.4c12.7,1.6,25.5,3.1,43.7,5.9
			C502.2,313.2,501.2,292.8,501.2,292.8z"/>
		<linearGradient id="SVGID_3_" gradientUnits="userSpaceOnUse" x1="307.9048" y1="53.0866" x2="307.1361" y2="335.9957">
			<stop  offset="0.1341" style="stop-color:#FFEEC0"/>
			<stop  offset="0.4022" style="stop-color:#E3BC5D"/>
			<stop  offset="1" style="stop-color:#BB9847"/>
		</linearGradient>
		<path class="st2" d="M244.5,106.1c-23.5-15.9-48-28.1-70.9-37.3c22.1,14.2,43.6,32.2,64.2,53.6c31.2,32.5,55.7,65.3,76.2,105.2
			c18.5,1.1,32.7,1.2,43.1-0.4c22.5-3.5,70.2-11.8,84.7-31.2C381,233.9,323.5,159.5,244.5,106.1z"/>
		<linearGradient id="SVGID_4_" gradientUnits="userSpaceOnUse" x1="387.0918" y1="53.3018" x2="386.323" y2="336.2109">
			<stop  offset="0.1341" style="stop-color:#FFEEC0"/>
			<stop  offset="0.4022" style="stop-color:#E3BC5D"/>
			<stop  offset="1" style="stop-color:#BB9847"/>
		</linearGradient>
		<path class="st3" d="M403.4,302.1c-6.5-14.8-8.5-36.2-0.8-59.9c-11.8-1.4-21.8-0.4-32.9,1.9C373.9,258.6,381.9,290.4,403.4,302.1z
			"/>
		<linearGradient id="SVGID_5_" gradientUnits="userSpaceOnUse" x1="388.5149" y1="53.3057" x2="387.7461" y2="336.2148">
			<stop  offset="0.1341" style="stop-color:#FFEEC0"/>
			<stop  offset="0.4022" style="stop-color:#E3BC5D"/>
			<stop  offset="1" style="stop-color:#BB9847"/>
		</linearGradient>
		<path class="st4" d="M353.7,235.9c-13,1.3-25.5,1.4-34.8,1.3c7,13.6,11.5,24,16.6,37.5c17.6,46.4,41.8,49.1,107.9,56
			c1.9,0.2,13.3,1.3,13.3,1.3c-35.8-7.6-52-10.4-74.7-33.5C368.2,284.2,363.3,260.4,353.7,235.9z"/>
		<linearGradient id="SVGID_6_" gradientUnits="userSpaceOnUse" x1="299.7596" y1="53.0645" x2="298.9908" y2="335.9736">
			<stop  offset="0.1341" style="stop-color:#FFEEC0"/>
			<stop  offset="0.4022" style="stop-color:#E3BC5D"/>
			<stop  offset="1" style="stop-color:#BB9847"/>
		</linearGradient>
		<path class="st5" d="M70.6,41.2c0,0,5.5,2.8,18.8,9.5c93,45.7,176.8,153.5,196.3,207.9c19.5,54.4,25.1,81.9,47.7,95.5
			c22.6,13.6,108.2,33.6,194.7,42.7c0,0-11.1-27-15.7-46.7c-117.7-18.2-160.9-3.2-186.9-71.6C289.9,184.8,191.6,54.8,70.6,41.2z"/>
		<linearGradient id="SVGID_7_" gradientUnits="userSpaceOnUse" x1="212.3725" y1="52.827" x2="211.6037" y2="335.7361">
			<stop  offset="0.1341" style="stop-color:#FFEEC0"/>
			<stop  offset="0.4022" style="stop-color:#E3BC5D"/>
			<stop  offset="1" style="stop-color:#BB9847"/>
		</linearGradient>
		<path class="st6" d="M285.5,288c-2.7-7.8-5.7-16.6-9.1-26c-9.8-27.5-36.2-67.3-68.7-104c-5.3-5.9-10.6-11.7-16-17.3
			c-27.5-18.6-55.5-30.3-78.5-39.1c127.8,101.4,109.1,199,197.4,244.5C300.8,332.5,294.3,313.7,285.5,288z"/>
		<linearGradient id="SVGID_8_" gradientUnits="userSpaceOnUse" x1="270.5685" y1="52.9852" x2="269.7997" y2="335.8943">
			<stop  offset="0.1341" style="stop-color:#FFEEC0"/>
			<stop  offset="0.4022" style="stop-color:#E3BC5D"/>
			<stop  offset="1" style="stop-color:#BB9847"/>
		</linearGradient>
		<path class="st7" d="M306.1,354.8c-28.9-14.6-46.9-34.5-61.7-57.7c-15.4-5.2-44.9-25.3-63.6-65.1c0,0,22.4,72.7,63.8,100.3
			c19.4,12.7,57.4,30.8,114.2,42.9C347.7,372.1,326.9,365.3,306.1,354.8z"/>
	</g>
	<g>
		<linearGradient id="SVGID_9_" gradientUnits="userSpaceOnUse" x1="623.9678" y1="328.6041" x2="139.5475" y2="-54.5473">
			<stop  offset="0" style="stop-color:#FFEEC0"/>
			<stop  offset="0.4022" style="stop-color:#E3BC5D"/>
			<stop  offset="1" style="stop-color:#BB9847"/>
		</linearGradient>
		<path class="st8" d="M292.7,118.2c52.5-7,124.3-16.5,157.8,40.4c3.6,6.2,9.1,18.6,4.3,31.8c-4.3,11.8-15.7,21.2-33.9,27.8
			l-5.9,2.1l6.3-0.2c3.9-0.1,8-0.5,12.4-0.9c18.2-1.6,40.9-3.6,63.8,9.8l1.8,1l-0.3-2c-7-49.2-25.2-82.8-55.6-102.8
			c-36.8-24.2-91.1-26.7-161.3-7.6l0.4,1.9C285.7,119.1,289.2,118.7,292.7,118.2z M442.3,126.8c29.5,19.4,47.3,51.9,54.4,99.4
			c-14.8-8.1-29.4-10.2-42.7-10.2c-7.3,0-14.1,0.6-20.5,1.2c-2.1,0.2-4.2,0.4-6.2,0.5c15.5-6.7,25.3-15.6,29.3-26.7
			c3.7-10.2,2-22.4-4.5-33.4c-15.1-25.7-39.2-40.4-73.6-45c-26.8-3.6-55.6-0.3-79.8,2.8C360.6,101,408.8,104.9,442.3,126.8z"/>
		<linearGradient id="SVGID_10_" gradientUnits="userSpaceOnUse" x1="578.8651" y1="385.6278" x2="94.4447" y2="2.4763">
			<stop  offset="0" style="stop-color:#FFEEC0"/>
			<stop  offset="0.4022" style="stop-color:#E3BC5D"/>
			<stop  offset="1" style="stop-color:#BB9847"/>
		</linearGradient>
		<path class="st9" d="M483.7,322.8c-3.1,2.9-6.5,4.9-18.3,9.2l-3.8,1.4l10.2,1.3c10.9,1.4,22.3,2.8,37.6,5.1l1.5,0.2l-0.4-1.5
			c-7.2-25.1-8.3-45.6-8.3-45.8l-0.5-8.7l-1.5,8.5C500.1,292.8,496.8,310.8,483.7,322.8z M500.6,298.6c0.8,7.7,2.8,22.2,7.5,38.9
			c-14.6-2.2-25.5-3.5-36.1-4.9l-2.1-0.3c9.1-3.5,12.3-5.5,15.2-8.2C494.1,315.9,498.6,305.1,500.6,298.6z"/>
		<linearGradient id="SVGID_11_" gradientUnits="userSpaceOnUse" x1="587.3977" y1="374.84" x2="102.9773" y2="-8.3115">
			<stop  offset="0" style="stop-color:#FFEEC0"/>
			<stop  offset="0.4022" style="stop-color:#E3BC5D"/>
			<stop  offset="1" style="stop-color:#BB9847"/>
		</linearGradient>
		<path class="st10" d="M237,123c32.8,34.1,56.2,66.5,76,105l0.3,0.5l0.6,0c9,0.5,16.7,0.8,23.3,0.8c8.2,0,14.7-0.4,20-1.2
			c17.3-2.7,69.8-10.9,85.4-31.5l3.2-4.2l-4.5,2.8c-20.6,12.9-42.1,13.6-67.5,2.2c-23.1-10.3-47.5-29.7-73.3-50.3
			c-17.6-14-35.7-28.4-55.4-41.8c-21.2-14.3-45.1-26.9-71.1-37.4l-0.9,1.7C195.1,83.8,216.6,101.8,237,123z M182.5,73.5
			c22.2,9.6,42.8,20.8,61.3,33.3c19.6,13.3,37.8,27.7,55.3,41.7c49.8,39.7,93.1,74.2,137.4,51.4c-18.9,16.6-64,23.7-79.7,26.1
			c-9.4,1.5-22.4,1.6-42.3,0.5c-19.5-37.9-43.7-71.3-76.1-104.9C220.5,103,201.8,86.9,182.5,73.5z"/>
		<linearGradient id="SVGID_12_" gradientUnits="userSpaceOnUse" x1="566.3407" y1="401.4624" x2="81.9203" y2="18.311">
			<stop  offset="0" style="stop-color:#FFEEC0"/>
			<stop  offset="0.4022" style="stop-color:#E3BC5D"/>
			<stop  offset="1" style="stop-color:#BB9847"/>
		</linearGradient>
		<path class="st11" d="M403.8,241.3l-1.2-0.1c-10.7-1.3-20.3-0.7-33.2,1.9l-1,0.2l0.3,1c0.3,1,0.6,2,0.9,3.1
			c4.5,15.5,12.9,44.5,33.3,55.5l2.5,1.4l-1.2-2.6c-7.3-16.7-7.6-38.3-0.8-59.2L403.8,241.3z M401.3,299.7
			c-17.9-11.6-25.6-38.3-29.9-52.9c-0.2-0.7-0.4-1.4-0.6-2.1c11.7-2.3,20.7-2.9,30.4-1.8C394.9,262.9,395,283.3,401.3,299.7z"/>
		<linearGradient id="SVGID_13_" gradientUnits="userSpaceOnUse" x1="548.0632" y1="424.5707" x2="63.6429" y2="41.4193">
			<stop  offset="0" style="stop-color:#FFEEC0"/>
			<stop  offset="0.4022" style="stop-color:#E3BC5D"/>
			<stop  offset="1" style="stop-color:#BB9847"/>
		</linearGradient>
		<path class="st12" d="M354.6,235.5l-0.3-0.7l-0.7,0.1c-10.5,1-22.2,1.4-34.7,1.3l-1.6,0l0.7,1.5c6.5,12.7,11,22.8,16.5,37.4
			c17.9,47.1,42.6,49.7,108.7,56.6c1.9,0.2,13.3,1.3,13.3,1.3l0.3-1.9l-3.7-0.8c-33.5-7.1-48.8-10.3-70.5-32.4
			c-10.1-10.3-15.3-25.4-21.2-42.9C359.4,248.6,357.1,242.1,354.6,235.5z M439.5,329.2c-62.2-6.5-86-9.9-103.1-54.9
			c-5.4-14.1-9.7-24.1-15.9-36.2c11.6,0.1,22.5-0.3,32.5-1.2c2.4,6.3,4.6,12.5,6.6,18.6c5.8,17,11.3,33,21.7,43.6
			C400.2,318.4,415.1,323.7,439.5,329.2z"/>
		<linearGradient id="SVGID_14_" gradientUnits="userSpaceOnUse" x1="535.3558" y1="440.6368" x2="50.9355" y2="57.4853">
			<stop  offset="0" style="stop-color:#FFEEC0"/>
			<stop  offset="0.4022" style="stop-color:#E3BC5D"/>
			<stop  offset="1" style="stop-color:#BB9847"/>
		</linearGradient>
		<path class="st13" d="M528.9,396.5c-0.1-0.3-11.1-27.2-15.7-46.6l-0.2-0.6l-0.7-0.1c-27-4.2-49.9-6.6-70-8.7
			c-66.1-7-96.3-10.2-116.1-62.2c-19.5-51.3-55.2-107-95.6-149c-34.9-36.3-91-81.1-160.1-88.9l-5.4-0.6l23.7,12
			c41.5,20.4,86,56,125.4,100.4c33.2,37.4,60.2,78.4,70.4,106.9c3.4,9.5,6.4,18.3,9.1,26.1c12.9,37.7,20.1,58.5,39,69.8
			c21.7,13,105.3,33.4,195.1,42.9l1.6,0.2L528.9,396.5z M333.8,353.2c-18.3-11-25.4-31.5-38.1-68.8c-2.7-7.8-5.7-16.6-9.1-26.2
			c-10.3-28.7-37.4-69.9-70.8-107.5c-39.6-44.6-84.3-80.4-126-100.9l-13.8-7C198.2,60.3,293,196,324.5,278.8
			c20.2,53.2,50.8,56.4,117.7,63.5c20,2.1,42.6,4.5,69.3,8.6c4.1,16.8,12.7,38.8,15,44.7C437.5,386.1,355.1,366.1,333.8,353.2z"/>
		<linearGradient id="SVGID_15_" gradientUnits="userSpaceOnUse" x1="521.098" y1="458.6629" x2="36.6777" y2="75.5115">
			<stop  offset="0" style="stop-color:#FFEEC0"/>
			<stop  offset="0.4022" style="stop-color:#E3BC5D"/>
			<stop  offset="1" style="stop-color:#BB9847"/>
		</linearGradient>
		<path class="st14" d="M310.1,347l3.7,1.9l-2.4-3.3c-9.8-13.5-16.2-32.1-25-57.9c-2.7-7.7-5.7-16.5-9.1-26
			C267.4,234,241,194,208.4,157.3c-5.2-5.8-10.6-11.7-16.1-17.3l-0.2-0.1c-27.3-18.5-55.1-30.2-78.7-39.2l-6-2.3l5,4
			c66.1,52.4,92.5,103,115.7,147.6C249.2,290.2,267.3,324.9,310.1,347z M118.6,104.8c22.1,8.7,47.5,19.9,72.4,36.7
			c5.5,5.6,10.8,11.4,15.9,17.2c32.4,36.6,58.7,76.3,68.5,103.7c3.4,9.5,6.4,18.3,9.1,26c8.2,23.9,14.3,41.7,23,55.1
			c-39.8-21.9-57.3-55.5-77.5-94.3C207.2,205.4,181.5,156,118.6,104.8z"/>
		<linearGradient id="SVGID_16_" gradientUnits="userSpaceOnUse" x1="488.1674" y1="500.2973" x2="3.747" y2="117.1459">
			<stop  offset="0" style="stop-color:#FFEEC0"/>
			<stop  offset="0.4022" style="stop-color:#E3BC5D"/>
			<stop  offset="1" style="stop-color:#BB9847"/>
		</linearGradient>
		<path class="st15" d="M245.2,296.6l-0.2-0.3l-0.3-0.1c-14.4-4.8-43.8-23.9-63-64.6l-1.8,0.7c0.2,0.7,23,73.3,64.2,100.9
			c12.6,8.3,48.8,29,114.5,43.1l0.5-1.9c-8.3-2.3-30.2-9-52.6-20.4C281.3,341.2,262.4,323.5,245.2,296.6z M245.2,331.5
			c-29.9-20-50.1-64.4-58.7-86.6c18.9,32.5,44,48.4,57.2,53c17.4,27.1,36.5,44.9,61.9,57.8c10.6,5.4,21.1,9.7,30.2,13
			C285,355.3,256,338.7,245.2,331.5z"/>
	</g>
	<g>
		<linearGradient id="SVGID_17_" gradientUnits="userSpaceOnUse" x1="118.6393" y1="490.2292" x2="535.7072" y2="490.2292">
			<stop  offset="0" style="stop-color:#FFEEC0"/>
			<stop  offset="0.4022" style="stop-color:#E3BC5D"/>
			<stop  offset="1" style="stop-color:#BB9847"/>
		</linearGradient>
		<path class="st16" d="M535.7,420.5c0,0-12.9,1.8-26.1,29.9c0,0-3.7-13.7-17.8-13.7c-21.3,0-286.8,0-302.3,0l9.2,5.2l-27.3,57.4
			h47.2l-27.8,16.1h-38.4l9,5.2c-0.1,0.4-5.2,11-5.4,11.5c-10.5,22.5-0.9,28-0.9,28c-5.1,0-31.3,0-36.5,0l58.5-123.4l-19.3-16.1
			H535.7z"/>
		<linearGradient id="SVGID_18_" gradientUnits="userSpaceOnUse" x1="185.4081" y1="507.3388" x2="330.8706" y2="507.3388">
			<stop  offset="0" style="stop-color:#FFEEC0"/>
			<stop  offset="0.4022" style="stop-color:#E3BC5D"/>
			<stop  offset="1" style="stop-color:#BB9847"/>
		</linearGradient>
		<path class="st17" d="M330.9,454.7c0,0-12.9,1.8-26.1,29.9c0,0-3.7-13.7-17.8-13.7c-21.2,0-19.5,0-34.9,0l9.1,5.2l-10.9,23.2h38.9
			l-27.7,16.1h-30.3l9,5.2l-11,23.2h26.7l7.1-15h21.7L283,532c-10.5,22.5-0.9,28-0.9,28h-96.7c0,0,12.9-1.8,26.1-29.8
			c1.5-3.4,26.5-56,28.1-59.3l-19.3-16.1H330.9z"/>
		<linearGradient id="SVGID_19_" gradientUnits="userSpaceOnUse" x1="292.205" y1="507.3388" x2="399.0512" y2="507.3388">
			<stop  offset="0" style="stop-color:#FFEEC0"/>
			<stop  offset="0.4022" style="stop-color:#E3BC5D"/>
			<stop  offset="1" style="stop-color:#BB9847"/>
		</linearGradient>
		<path class="st18" d="M392.5,532c-10.7,22.5-1.1,28-1.1,28c-4.5,0-94.1,0-99.3,0c0,0,14.6-5.4,25.2-28l29-61.2l-19.2-16.1
			c7.6,0,43.5,0,51.1,0c-0.9,2-40.4,85.2-42.3,89.1h26.7l12.2-25.6h24.2C397.5,521.5,395.1,526.5,392.5,532z"/>
		<linearGradient id="SVGID_20_" gradientUnits="userSpaceOnUse" x1="384.3359" y1="507.3388" x2="498.0294" y2="507.3388">
			<stop  offset="0" style="stop-color:#FFEEC0"/>
			<stop  offset="0.4022" style="stop-color:#E3BC5D"/>
			<stop  offset="1" style="stop-color:#BB9847"/>
		</linearGradient>
		<path class="st19" d="M498,454.7L498,454.7c-4.6,9.8-14.5,16.1-25.4,16.1h-6.4c-3.7,7.6-25.9,54.6-29,61.2
			c-10.7,22.5-1.1,28-1.1,28H412c0,0-9.6-5.4,1.1-28c3.2-6.9,22.4-47.4,25.5-53.9l23-7.3h-56.4l-20.8-16.1H498z"/>
	</g>
	<g>
		<linearGradient id="SVGID_21_" gradientUnits="userSpaceOnUse" x1="324.5172" y1="594.5451" x2="324.5172" y2="398.8697">
			<stop  offset="9.217878e-02" style="stop-color:#FFFFFF"/>
			<stop  offset="0.5419" style="stop-color:#E3BC5D"/>
			<stop  offset="1" style="stop-color:#BB9847"/>
		</linearGradient>
		<path class="st20" d="M163.8,422.6l14.7,12.3l1.3,1.1l-0.7,1.5l-57.1,120.3h28.6c-2.1-4.2-3.2-12.3,3.5-26.7
			c0.2-0.5,3.2-6.6,4.6-9.7l-7.3-4.2l-7-4h8.1h37.8l20.4-11.8h-39.1h-3.4l1.5-3.1l26.4-55.6l-7.5-4.2l-7.2-4.1h8.2h302.3
			c9.3,0,15,5.6,17.9,10.7c6.3-12.2,12.5-18.9,17.2-22.5H163.8z"/>
		<linearGradient id="SVGID_22_" gradientUnits="userSpaceOnUse" x1="258.138" y1="594.5451" x2="258.138" y2="398.8697">
			<stop  offset="9.217878e-02" style="stop-color:#FFFFFF"/>
			<stop  offset="0.5419" style="stop-color:#E3BC5D"/>
			<stop  offset="1" style="stop-color:#BB9847"/>
		</linearGradient>
		<path class="st21" d="M226.2,456.9l14.7,12.3l1.3,1.1l-0.7,1.5c-0.6,1.3-4.5,9.5-9.4,19.8c-7.9,16.7-17.7,37.4-18.7,39.5
			c-7,15-14.1,22.8-19.3,26.8h83.4c-2.1-4.2-3.2-12.3,3.5-26.7l0.1-0.2h-16.9l-6.5,13.8l-0.6,1.2h-1.4h-26.7h-3.4l1.5-3.1l10.2-21.4
			l-7.3-4.2l-7-4h8.1h29.7l20.3-11.8h-30.8h-3.4l1.4-3.1l10-21.4l-7.4-4.2l-7.1-4h8.2H287c9.3,0,15,5.6,17.9,10.7
			c6.3-12.2,12.5-18.9,17.2-22.5H226.2z"/>
		<linearGradient id="SVGID_23_" gradientUnits="userSpaceOnUse" x1="347.8615" y1="594.5451" x2="347.8615" y2="398.8697">
			<stop  offset="9.217878e-02" style="stop-color:#FFFFFF"/>
			<stop  offset="0.5419" style="stop-color:#E3BC5D"/>
			<stop  offset="1" style="stop-color:#BB9847"/>
		</linearGradient>
		<path class="st22" d="M395.6,520.3h-19.4l-11.6,24.4l-0.6,1.2h-1.4H336h-3.5l1.5-3.1c1.8-3.7,33.6-70.7,40.8-86h-41.7l14.6,12.3
			l1.3,1.1l-0.7,1.5l-29,61.2c-6.3,13.3-13.9,20.8-19.3,24.9H387c-2.1-4.2-3.2-12.3,3.6-26.7c1.2-2.6,2.4-5.1,3.5-7.4
			C394.6,522.5,395.2,521.4,395.6,520.3z"/>
		<g>
			<linearGradient id="SVGID_24_" gradientUnits="userSpaceOnUse" x1="436.6329" y1="594.5451" x2="436.6329" y2="398.8697">
				<stop  offset="9.217878e-02" style="stop-color:#FFFFFF"/>
				<stop  offset="0.5419" style="stop-color:#E3BC5D"/>
				<stop  offset="1" style="stop-color:#BB9847"/>
			</linearGradient>
			<path class="st23" d="M462.2,472.9l-22.1,7.1l-3.3,6.9c-6.7,14.2-19.3,40.7-21.8,46.1c-8.2,17.4-3.7,23.5-2.3,24.9h18.9
				c-2.1-4.2-3.2-12.3,3.6-26.7c2.8-6.1,21.7-46,27.7-58.5L462.2,472.9z"/>
			<linearGradient id="SVGID_25_" gradientUnits="userSpaceOnUse" x1="442.5133" y1="594.5451" x2="442.5133" y2="398.8697">
				<stop  offset="9.217878e-02" style="stop-color:#FFFFFF"/>
				<stop  offset="0.5419" style="stop-color:#E3BC5D"/>
				<stop  offset="1" style="stop-color:#BB9847"/>
			</linearGradient>
			<path class="st24" d="M461.5,468.6h3.4h1.4h6.4c8.8,0,17-4.5,21.7-11.8H390.7l15.2,11.8H461.5z"/>
		</g>
	</g>
</g>
</svg>
