<svg xmlns="http://www.w3.org/2000/svg" viewBox="0 0 675.43 882.11"><defs><style>.cls-1,.cls-5{fill:#fff;}.cls-2,.cls-6{fill:#d6162f;}.cls-3,.cls-4{fill:#c4ac80;}.cls-4,.cls-5,.cls-6{fill-rule:evenodd;}</style></defs><title>Asset 1</title><g id="Layer_2" data-name="Layer 2"><g id="Layer_1-2" data-name="Layer 1"><path class="cls-1" d="M631.64,537.87c-4.65-1.19-9.46-2.39-14.4-3.59a42.31,42.31,0,0,0,.76-12.11V522c-.13-3.09,1.48-5.5,11.81-14.53,6-5.27,12.35-11.18,17.7-18.69,5.15-7.21,9.47-21.05,4.7-36.31-2.68-8.56-9.09-19.93-24.41-27.73v-46c1.4-.68,2.72-1.4,4-2.13,13.32-7.86,21.12-21.4,21-36a68.54,68.54,0,0,0,15-25.66c7.14-23.5-.57-74-40-95.46V156.72L593.13,145c-3-1-73.81-24.75-167.45-35.41-12-7.78-28.79-13.06-46.26-14.59a124.9,124.9,0,0,1-2.37-14.43c-2-15.8-4.47-35.46-21.55-55.75C342.43,9.27,319.8,0,294.94,0c-31.89,0-63.63,14.65-89.37,41.26l-11.13,11.5L208.71,60a111.79,111.79,0,0,1,30.47,22.07c-.52.58-1,1.15-1.44,1.7-7.71,3.23-13.85,9.6-18.26,19a31.85,31.85,0,0,1-4.48,5.85c-.31.34-.63.71-.95,1.08-1.3.27-2.53.59-3.67.94a33,33,0,0,0-4.75,1.92c-4.07-11.91-14.39-21.64-14.39-21.64-2.64,4.84-8,10-8,10-7.86-10.51-22.31-18-22.31-18,1.81,21.89-12.82,27.34-22.54,35.13C123.3,98.55,98.05,98.75,98.05,98.75s2.41,9.53,1.08,14.18A66.89,66.89,0,0,0,61.5,143.18c-7.33,12.71-10.28,25.48-8.49,36.43A116,116,0,0,0,34.75,230.7a34.08,34.08,0,0,0,2.46,16.6c-1.63,6.59-2.76,13.92-3.76,20.94a35.66,35.66,0,0,0-6.29,16l-.05.36c-.06.44-.16,1.09-.25,1.92-6.74,8.28-9.16,18.74-6.83,29.8,1.46,6.95,4.45,12.66,7.09,17.7.71,1.37,1.39,2.67,2,3.93a37.5,37.5,0,0,0,18.52,17.9v68.94c-15.31,7.8-21.72,19.17-24.4,27.73-4.78,15.25-.46,29.09,4.69,36.31,5.36,7.51,11.68,13.42,17.71,18.69,10.13,8.86,11.9,11.41,11.82,14.32l0,.17a42.62,42.62,0,0,0,.73,12.3c-5,1.22-9.81,2.4-14.38,3.57L0,549.12l35.38,48.55V776l14.68-3.71c1.63-.41,39.58-9.9,94.65-19.21,44.61,51.55,103,92.27,173.55,121.07l19.45,7.94,19.45-7.94c70.58-28.8,129-69.52,173.56-121.07,55,9.31,93,18.8,94.63,19.21l14.7,3.71V597.67l35.38-48.55Z"/><path d="M617.06,227.36c-.35-.15-.71-.27-1.07-.4V165.18l-14.32-4.85-12.33-4.17c-3.75-1.27-74.31-24.87-167.9-35.19-11.7-8.52-31-14.27-50.48-14.64-9.37-19.71-1-46-24.49-73.93C324.21,6,263.33-1.47,214.05,49.46c23.64,12,36.34,26.57,41.78,34.13a30.86,30.86,0,0,0-10.78,10.14c-6.19,1.52-11.2,6.18-14.9,14-1.47,3.14-3.82,5.81-6.31,8.63-1.19,1.35-2.4,2.74-3.54,4.22a35.11,35.11,0,0,0-6.41,1.27c-5.54,1.72-12.31,7.09-14.49,11.66.15-12.26-8.9-22.46-8.9-22.46s-4.68,9.18-9.25,10.72C179.82,109,169,102,169,102c-3.78,17.86-19.22,19.48-34.12,34.12,0,0-5-18.19-23.4-22.3,2.46,24.17-14,33.81-14,33.81s-2.66-5.29-1.63-21.81c-17.25,6.34-37.08,36.94-30.14,56-6.78,9.51-16.92,27.13-19.23,50a21.75,21.75,0,0,0,3.34,14c-2,6.55-3.37,14.64-4.73,24.17l-.3,2-.13,1a23.34,23.34,0,0,0-5.82,12.8l-.06.4a27.47,27.47,0,0,0-.37,5.08c-6.24,5.81-8.68,13.79-6.84,22.51,1.12,5.35,3.6,10.08,6,14.65.8,1.52,1.55,3,2.19,4.33,3.53,7.41,10.61,12.53,19.67,14.54v85.11c-31.06,11.15-29.3,39.07-21.9,49.45,4.57,6.4,10.19,11.7,15.86,16.66,10.37,9.07,16.22,14.65,15.83,23.91l0,.31c-.21,3-.86,12.07,5.87,19.59-9.5,2.19-19,4.45-28.35,6.86l-26.94,6.92,27.4,37.61v167S89,750.3,149.36,740.37c44,52.57,102,93.75,173.35,122.87l6.86,2.8,8.14,3.32,8.14-3.32,6.86-2.8c71.36-29.12,129.4-70.3,173.35-122.87,60.38,9.93,102.19,20.5,102.19,20.5v-167l27.4-37.61-26.94-6.92q-14.09-3.62-28.34-6.88c6.71-7.52,6.07-16.56,5.85-19.57l0-.31c-.39-9.26,5.46-14.84,15.83-23.91,5.67-5,11.3-10.26,15.87-16.66,7.4-10.38,9.16-38.3-21.91-49.45V370.93a57.84,57.84,0,0,0,9.78-4.49c11.06-6.53,16.74-18.58,14.82-30.2,7.55-7.29,13.19-15.83,15.89-24.72C662.76,290.85,654.76,243.73,617.06,227.36Z"/><path class="cls-1" d="M282.61,150.56c-4.91-3.45-7.61-9.55-5.81-15.25l-.13-.24c-3.44,6.44-2,13,2,18.62l4,20.56,1.65,1Z"/><path class="cls-2" d="M616.86,454.13c-4.88-.49-7.86,3.93-3.47,8.59,4.15,4.41,1.31,13.72-20.19,11.89-52.84-4.48-103.11-56.64-172.62-47.37-12.86,1.72-10.63,5.36.09,6.9,55.28,7.94,58.85,28.77,40.45,22.83-32-10.32-78.79-14.73-123.41-14.73h-.37a586.63,586.63,0,0,0-75,4.54c-7.06,9.62-20.56,12.56-25.67,13.22-4.27.56-7.35,1-10.9,3.78l-2,1.6c-8.56,6.88-18.26,14.69-28.86,14.69a19.9,19.9,0,0,1-5.68-.81c-9.3-2.12-16.76-9-21.26-15.67a16.54,16.54,0,0,1-3.46.76,20.74,20.74,0,0,1-2.36.13c-7.51,0-12.57-3.72-15.92-6.18-2.29-1.68-2.86-2-3.57-2.05a21.21,21.21,0,0,1-2.8-.37c-19.71,9.06-38.71,17.09-58,18.73-21.5,1.83-24.34-7.48-20.19-11.89,4.39-4.66,1.41-9.08-3.48-8.59-7.66.75-13,9.36-5.74,20.41,9.5,14.51,35.31,24.3,34.22,50.31-.16,3.83-2.63,15.65,24.11,11.27,21.91-3.59,51.82-13,71.83-22.73C201.87,504,207.28,496,206.5,487c8.41,17-2,28.87,4.18,34.66,8.85,8.26,36.86-11.6,126.66-11.6h.37c89.81,0,117.82,19.86,126.67,11.6,6.2-5.79-4.23-17.7,4.17-34.66-.78,9,4.63,17,23.9,26.4,20,9.76,49.91,19.14,71.83,22.73,26.73,4.38,24.26-7.44,24.1-11.27-1.08-26,24.73-35.8,34.23-50.31C629.85,463.49,624.52,454.88,616.86,454.13Z"/><path class="cls-1" d="M442.72,467.16q-3.87-.8-7.77-1.52l-2-.37q-6.24,12.86-12.5,25.86-6.25-15-12.53-29.85l-2-.26c-2.61-.34-5.22-.67-7.83-1l-1.83-.21V498.7q4.83.56,9.66,1.18v-21.4q4.8,11.32,9.58,22.75h.09c3.24.48,6.47,1,9.7,1.54l.09,0q4.77-9.9,9.53-19.7v21.4c3.2.6,6.4,1.23,9.58,1.89V467.53Z"/><path class="cls-1" d="M285.29,459.06v38.86c4-.39,7.94-.73,11.91-1q13.32-1,26.68-1.34v-9.22q-13.35.33-26.68,1.34v-5.61q8.74-.65,17.52-1,2.94-4.72,5.9-9.43-11.73.36-23.42,1.25v-5.61q13.32-1,26.68-1.33,3-4.7,5.9-9.34-16.3.23-32.58,1.45C293.23,458.32,289.25,458.67,285.29,459.06Z"/><path class="cls-1" d="M229.63,476.75q6.57-1.37,13.16-2.55v29.64q5.91-1.06,11.83-2V472.2q6.61-1.05,13.25-1.92,2.92-5,5.86-10-22.16,2.67-44.1,7.21Z"/><path class="cls-1" d="M379.07,458.19q-17.22-1.38-34.5-1.62L340.45,463V495.4q6,0,11.94.21V483.15q7.38.21,14.75.63v12.46q6,.33,11.93.81V484.34q2.87-4.26,5.73-8.48-2.87-.27-5.73-.49Zm-11.93,16.37q-7.36-.42-14.75-.64v-8q7.38.21,14.75.63Z"/><path class="cls-1" d="M186.13,604.4l21.56,65.83q11.26-1.29,22.54-2.34L251,601.34v64.79q13.05-1,26.11-1.67V533q-17,.9-34,2.3L220.27,629l-25.1-88.75q-16.75,2.1-33.48,4.67V676.39c7.56-1.16,16.86-2.55,24.44-3.57Z"/><path class="cls-1" d="M320.91,632.8q17-.25,34.08,0a17.24,17.24,0,0,0,7.88-1.67,20.18,20.18,0,0,0,5.95-4.31,18.35,18.35,0,0,0,3.76-5.92,17.3,17.3,0,0,0,1.33-6.58V549.88a16.39,16.39,0,0,0-1.42-6.58,19.71,19.71,0,0,0-3.86-5.81,19.36,19.36,0,0,0-5.91-4.22,18.49,18.49,0,0,0-7.73-1.72q-30.63-.45-61.25.71V663.7q13.58-.53,27.17-.72ZM304,555.26c8.55-.13,34-.3,42.54-.23v54.1q-12.82-.09-25.67.09V565.49Z"/><path class="cls-1" d="M529.2,547.45V720.39q40.29,6.79,80.17,16.47V649.33l-26.83,7.58v49.57q-11.71-2.54-23.47-4.85V631.69q14.56,2.85,29.07,6.07V615.19q-14.5-3.23-29.07-6.07V587.75l-16.44-14.07c7.82,1.54,32.1,6.15,39.91,7.85v14.31s18.53,4.24,26.83,6.25V587.68L624,567.59Q576.94,555.5,529.2,547.45Z"/><path class="cls-1" d="M417.7,534.2q-13.54-.94-27.14-1.57V664.07q13.59.63,27.14,1.58Z"/><path class="cls-1" d="M461.46,639.35q4.83.51,9.64,1.08,5.91,15.78,11.82,31.63,14.15,1.79,28.22,3.94-6-16.25-12-32.41a14.93,14.93,0,0,0,4.05-.78,16.88,16.88,0,0,0,5.9-3.59,15.56,15.56,0,0,0,3.72-5.45,16.37,16.37,0,0,0,1.33-6.42V562.91a17.72,17.72,0,0,0-1.42-6.76A23.31,23.31,0,0,0,503,544.92a20.13,20.13,0,0,0-7.67-2.66q-30.4-4.21-61-6.78V666.93q13.56,1.14,27.1,2.6ZM445,559.69c8.52.93,33.49,3.91,42,5v54.1q-12.75-1.68-25.53-3.06V571.87Z"/><path class="cls-1" d="M161.7,692.66v25.23a1151.13,1151.13,0,0,1,352.43.06V692.72A1151.13,1151.13,0,0,0,161.7,692.66Z"/><path class="cls-1" d="M66.06,587.68V736.86q39.84-9.69,80.16-16.47V640L119.4,654.19V701q-11.76,2.26-23.47,4.8v-70q14.41-3.11,28.89-5.83V607.48q-14.47,2.73-28.89,5.84V591.51l-18.26-7c7.82-1.68,33.89-7,41.73-8.47v14.5l26.82-5h0V547.45q-47.71,8.06-94.8,20.14Z"/><path class="cls-2" d="M115.19,413.78c-1.3-8-10.92-21-18.78-26.69-5-3.6-12.24-8.11-15.74-17.67v87c12.27-1.21,23.94-5.31,36.3-10.67V425.25A21.91,21.91,0,0,1,115.19,413.78ZM337.71,781.66q-53-21.93-94.17-53.64c-24.35,2.32-47.83,5.29-69.56,8.5C214.7,782,267.18,818,330.86,844l6.85,2.8,18.45-37.87Z"/><path class="cls-3" d="M582.43,175.9c-3-1-51.09-17.08-119.6-28.22a115.57,115.57,0,0,1,24.71,24.52A120.68,120.68,0,0,1,498.73,191c26.58,5.5,47.44,11,59.73,14.55v55.3c1.85.1,3.67.17,5.43.17,9.63,0,17.88-1.53,24.51-4.55a29.55,29.55,0,0,0,6.36-4V180.08Zm-24,229.44v40.4c12.36,5.36,24,9.46,36.3,10.67V379.6C590.59,393.55,578.38,404.24,558.46,405.34ZM337.71,781.66v65.09l6.86-2.8c63.68-26,116.16-62,156.88-107.43-21.74-3.21-45.22-6.18-69.57-8.5Q390.8,759.66,337.71,781.66Z"/><path class="cls-3" d="M128.48,351.05s8-6.27,11.39-14.11c-14,8.61-31.32,4.49-38.81,8.05-5,2.36-6.85,8.71-6.33,13.84.51,5,7,15.87,22.78,16.52-2.84,2.8-9.91,3.47-9.91,3.47,11,9.35,20,19.81,21.77,34.08.29,2.3-1.63,6.36,2.8,8.45,10.4,4.88,2.37,20.21,11.39,20.76,9.7.59,12.67,8.9,19.47,8.17s6.9-28-1.55-30.35c-1.7-.48-2.79,15.48-12.32,14.53,5.16-7.93,2.44-15.75,1.78-16.13-1.25-.74-14.76-13.47-20.54-44.45C137.33,365.27,132.91,355.11,128.48,351.05Z"/><path class="cls-1" d="M117.26,350.25c4.63-1.65,19.23-5.47,22.61-13.31-14,8.61-31.32,4.49-38.81,8.05-5,2.36-6.85,8.71-6.33,13.84.51,5,9.74,13.28,21.2,9.48C125.63,365.09,121.84,354.5,117.26,350.25Z"/><path class="cls-1" d="M149.23,331.27s11.65.26,21.08-.53a38.58,38.58,0,0,0,3.87,42.49S147.4,363.1,149.23,331.27Z"/><path class="cls-4" d="M207.75,238c15.31.76,29.24,5.12,37,9.27,4.73,2.53,17.6,8.61,4.1,20.88-7.26,6.61-32.69,21.08-50.56,25.69.4-14.32-1.72-35.83-12-50a37.21,37.21,0,0,1,19,18.32c-1.14-23.89-19.08-65.26-50.26-78.47,23.64-.66,66.38,23.32,79.71,50.22C226.82,232.43,212.27,235.05,207.75,238Z"/><path class="cls-4" d="M292.73,389.91c19.11-17.25,21.16-42.56,3-48.69-5.29-1.79.82-25.11-14.7-31.9-7.84-3.43-21.54-3.71-39.65,12.17,0,0,26.26,4.35,35.53,15-14.79-4.53-23.44-.1-54.4-4.24-8.24-1.11-19.35-1.36-23.68.74-4.53,2.19-15.45,12.66-15.68,22.8-.21,8.87,12.07,22.51,14.33,21.5-5.66,2.54-11.65.38-11.65.38,1.34,15-2.24,46.87-9.26,66.49-2.27,6.37,6.9,19.67,16.32,21.44,6.07,2.27,16.87-7.13,24.09-12.87,14-11.12,26-2.35,29.78-14.28,2.82-9-10.66-30.89-32.51-23.79,0,0,13.7,2,12.86,19.9,0,0-5.58-7.47-14.13-10,2.85,14.55-2.37,22.65-2.37,22.65.74-10.84-8.39-17.84-8.43-18.65,1-12.85,1.65-32.21,9.91-46.5,10.64-4.08,19.09-15.09,18-17.87,2.55,6.47,3.35,10.42-2.85,20.68,37,4.13,58.52,34.89,73.52,24.82,5.25-3.53,10.44-14.52,14.24-29.57C315,380.08,306.24,390.42,292.73,389.91Z"/><path class="cls-5" d="M290.36,343.61c-17.92-14.7-36.87-7.26-67.83-11.4-8.24-1.11-19.35-1.36-23.68.74-4.53,2.19-15.45,12.66-15.68,22.8-.21,8.87,8.38,13.68,14.39,14.93,10.3,2.15,23.83-12.61,15.81-27.15C248,345.39,270.22,335.86,290.36,343.61Z"/><path class="cls-2" d="M251.35,289.2c5.7-3.88,14.85-8.68,25.38-23,3.34-4.55,3.13-12.37-6.46-3h0C243.17,289.08,192,322,111.82,308.11c-14.33-2.49-5.95,6.8,4.14,9.35,53.5,13.57,142-8.19,174.82-48.54C281.31,275.38,265.71,285,251.35,289.2Z"/><path class="cls-5" d="M154.45,301.64a61.94,61.94,0,0,0,19.83-1.73c8-34.54-14.42-61.9-14.42-61.9,11.9,25.69,4.91,48.34,4.91,48.34-2.45-8.49-7.34-12.28-7.34-12.28C158.45,277.68,158.32,292.39,154.45,301.64Z"/><path class="cls-5" d="M89,158.73A35.32,35.32,0,0,1,87.56,146s-14.15,14.74-8.65,30.72A74,74,0,0,1,89,158.73Z"/><path class="cls-5" d="M51.61,313.47a18.54,18.54,0,0,1-3.5-11.78c-7,6.46,0,15.74,4.44,25.1,3.81,8,17.53,8.59,23.58,6.13,3.49-1.41,11.56-13.56,9.45-19-1,5-6,10.52-8.85,9.47-5.6-2-.3-16.48,2.38-16.7,4.68-.37,10.21,5,10.61,6-4.4-12.31-20.1-16.16-33.65-13.2C52.55,300.2,51.18,307.79,51.61,313.47Z"/><path class="cls-4" d="M98.17,317.34c-1,4-1.93,7.87-5.07,10.73-1.46,1.32-3.6,7.22,4.39,3.45,3.85-1.82,4.6-6.68,4.69-11.72A29.3,29.3,0,0,1,98.17,317.34Z"/><path class="cls-6" d="M55.5,293.57c10.19-1.46,22.31-.22,31.58,6.5,3.08,2.23,6,6.34,6.86,5.65s-1.11-6.5-1.22-9.61c-.14-4.12,8.52,4.66,7.06,0-3.37-10.84-23-18.13-38.63-16.26-2.21.26-7.38,1.42-8.27,8C52.6,289.86,51.6,294.13,55.5,293.57Z"/><path class="cls-4" d="M133.41,215.72c-4.47.46-11.4,5.94-18.6,19.49-3,12-10.48,15.31-19.55,13.31-3.39,4.22-8.87,11.32-15.29,20.71A101.76,101.76,0,0,1,88.15,246c-.92-.42-1.85-.88-2.78-1.38A9.22,9.22,0,0,1,77.21,242c-3.56,10.48-7.74,20.82-8.54,31.92,18.45.72,23,8.63,27.78,1.83,7-9.87,14.58-18.55,22.69-22.09-9.66,12.8,3.07,21.56,12.4,14.67C152.88,252.57,143.41,222.47,133.41,215.72Z"/><path class="cls-5" d="M95.26,248.51c-1.53,1.91-3.48,4.4-5.76,7.44,8.23,3.07,24,.89,25.31-20.74C111.78,247.2,104.33,250.52,95.26,248.51Zm24.92-58.76c3.34-12.86,12.39-23.79,13.67-33.42a25,25,0,0,1,1.43,23.26c10.32-15,4.13-27.69-5.22-31.94-.27,13-14.15,26.47-20.61,41.73,0,0,.41-14.47-8.71-6.77-11.48,9.7-19.3,23.56-23.92,33.21a93.22,93.22,0,0,1-.39-24.55,88.34,88.34,0,0,0-15.86,42.06c-.49,4.82,2.52,7.12,7.73,8.47-5.6,3.32-7.76,20.48-9.48,32.37a66.25,66.25,0,0,1,18.89.74L80,269.23a102.39,102.39,0,0,1,8.17-23.18,56.32,56.32,0,0,1-5.21-2.77c17.79,3.5,19.34-17.07,30.5-28.76a38,38,0,0,0-1.14,13c4.65-10.81,18.15-35.82,32-32.6A27,27,0,0,0,120.18,189.75Z"/><path class="cls-2" d="M83.34,193.68c5.34-17.48,27.7-29.87,27.7-29.87a21.39,21.39,0,0,0-.25,8.64c2.76-7.57,21.28-27.32,7.41-45.32C126.76,146,87.11,161.36,83.34,193.68Z"/><path class="cls-2" d="M226.75,182.85s13.53,3,15.21-8c-6.88,6.54-25.84-6.92-42.92-14a26.79,26.79,0,0,1,9.39-1.14c-11.71-9.65-27.45-8.55-27.45-8.55,4.5-2.2,10.43-10.24,6.3-18.39-.72,12.73-35.32,11.44-39.14,26.08a70.9,70.9,0,0,1,40.32.54,25.09,25.09,0,0,0-11.23,3.72c33.55,8.42,67,40.17,80.79,67.94C246.87,198.32,226.75,182.85,226.75,182.85Z"/><path class="cls-2" d="M172.16,119.11c.84,10.75-25.2,12-29.63,31.23C149.74,135.6,177.79,136.6,172.16,119.11Z"/><path class="cls-2" d="M305.19,24.73C326,26.16,342.42,40.54,348.43,63.9c5.91,22.94,2,41.37,10.85,48.62-10.6-5.84-11.8-26.64-16.46-43.15-6.11-21.64-15.92-25.31-19-19-2.63,5.48-4.47,17.27-4.76,18.08.11-2.24-1.12-21.46-4.42-29.32a203.69,203.69,0,0,1-4.83,37.29,11.38,11.38,0,0,0-6.23.34c-4.33-15.5-10.28-29.18-17.89-38.79,4.57,9.73,8.44,27.06,10.81,40.81-5.94,2.44-10,8-10,8-4.83-19.49-12.88-35.89-21.88-47.36,0,0,12.55-13.08,32.06-14.6,2.13,2.87,7.07,15.28,7.06,17C304.45,40.94,305,32,305.19,24.73Z"/><path class="cls-2" d="M257.87,43.46a118.13,118.13,0,0,1,23.24,47.41l-8.18,1.25c-4.66-14.06-19.16-30.71-38.33-44.21Z"/><path class="cls-2" d="M276.79,23.7A82.54,82.54,0,0,0,257,36l-16,3.11C248.29,34.73,261.93,27.16,276.79,23.7Z"/><path class="cls-2" d="M610.48,242.51c12.2,11.55-3.58,26-15.23,31.32-13.19,6-30.35,7.59-50.54,4.5-6.49-1-4.29,2.17-1.87,4.05,6.59,5.11,26,10.8,36.92,7.26-6.78,6.9-18.4,6.46-14.45,9.7,4.47,3.67,31.5,5.07,38.81-7.36-4.25,14.39-34.14,25.12-59.23,9.26-34.22-21.62-50.23-82.84-73.63-118.92-8.3-12.78-36.05-43.8-89-37.81,14.51-8.44,30.77-8.31,30.77-8.31-8.34-9.26-25.48-12.91-46.52-12.93-15.69,0,11.2,2.62,2.65,21.65-4.24,9.42-19.52,31-50.4,49.69-.4.24-.76.49-1.09.73,1.92,1.2,3.37,2.14,4.15,2.7a18.53,18.53,0,0,1,3.07,2.86c5.44-.75,12.88-3.16,21.51-8,9.75-19.5,21-35.09,40.09-38.38,13.42-2.31,44.34-2.07,72.71,33.41-14.49-12.77-33.56-15.79-26.47-9.53a52.28,52.28,0,0,1,9.93,13.72,99.63,99.63,0,0,1,24,20A56,56,0,0,0,464,197.4c36.78,43,34.22,135.13,106,134-15.08,5.39-49.92,1.25-70.71-23.77A136.09,136.09,0,0,1,495,331.89c-.6,2.18-1.27,4.32-2,6.45C501.34,360.78,518,371.86,527.9,376c-19.68-1.84-35-16.56-40.85-23.08a119.62,119.62,0,0,1-9.75,16.65c9.9,30.51,37,43.17,48.78,41.48,8.2-1.18,5.48-8.47,2.94-6.32-2.11,1.78-5.06.57-5.74-2.43-1-4.18,2.36-8.21,5.5-10.33,7.68-5.17,16.44-3.31,24.74-3,23.05.73,28.15-15.38,17.84-16.57-6-.69-44.4-4.13-61.21-27.14,19.32,18.42,84.77,20.25,107.22,7,5.82-3.43,8.56-9.8,6.29-15.55,0,0-10.86,5.16-23,3.52,18.21-4.56,35.46-18.42,40-33.47C644.64,293.67,639.79,255.24,610.48,242.51Z"/><path class="cls-4" d="M484.62,322.46C470.25,372,425.68,402.33,381.52,398a90.64,90.64,0,0,1-31.15-9.06,84.74,84.74,0,0,0,36.78,13c41.62,4.17,83.65-25.48,97.19-73.77a122,122,0,0,0,4.29-26A121.11,121.11,0,0,1,484.62,322.46Z"/><path class="cls-1" d="M228.57,143.37s20.34-10,26.51-13.62c4.95-2.89,7.18,1.33,9.7.3,3.14-1.29,1.68-7.63.65-10.28a20,20,0,0,0-12.66-11.9c-3.71-1-6.31-1.5-9.81,5.92s-9.29,12.27-12.22,16.5c-1.07,1.54,2.71,4,3.46,6.31-4.64-3.21-13.36-2.07-16.1-1.21-4.56,1.42-1.24,4-4,5.25-5.09,2.29-.54,15.81,1,14.62C217,153.7,228.57,143.37,228.57,143.37Z"/><path class="cls-1" d="M350,130.59c2.19.9,3.92,3.84,2.1,9.14-2.43,7-16.38,23.68-32.46,33.37,7.78-6.52,20.16-20,25.94-33.34,2.1-4.87.21-5.75-1.36-7.32-3.74-3.73-4.69-6.71-6.69-13.17-4.12-13.3-8.25-27.87-24.82-27.61-8.61.13-17.52,7-19.79,20.6-9.84-1.12-15.64,2-15.64,2-1.2,7-.43,12.86,2.5,18.49l6.1,3,.75,13.82,2.95,3.58,3.44-3.35-.9-10.31-.56-4.14,1.2-.58c.12-.05,10.54-5,24.14-18.47l2.29-2.25,1,3.21c.06.2,5.77,20.18-19,33.19l-2.27,33.43,7.27,4.38c15-7.48,40.95-23.91,51-44.67C362.87,131.73,353.17,129.37,350,130.59Zm-51.61,61.19.88-.34-.82-.5Z"/><path class="cls-3" d="M238.72,138.3c5.45-2.72,12.75-6.43,16.36-8.55,4.95-2.89,7.18,1.33,9.7.3,3.14-1.29,1.68-7.63.65-10.28a20,20,0,0,0-12.66-11.9s8.63,4.63,1,11.76c-9.44,8.77-17,15.27-17,15.27A7.72,7.72,0,0,1,238.72,138.3Z"/><path class="cls-3" d="M345.55,139.75c2.09-4.87.21-5.75-1.36-7.31-3.75-3.74-4.7-6.72-6.7-13.18-4.11-13.3-8.24-27.86-24.81-27.61-7,.1-15.22,11.1-9.53,36.52a125.28,125.28,0,0,0,13.72-11.86l5.49-5.6s15.81,22.22-13,42.17L307,180.5c2.72-1,8.55-4.87,12.63-7.4C327.38,166.58,339.76,153.11,345.55,139.75Z"/><path class="cls-3" d="M350,130.58c12.79,5.51-2.32,29.74-26.11,47.36,20.36-13.87,28.9-25.29,33.27-34.35C362.87,131.72,353.17,129.36,350,130.58Z"/><path class="cls-1" d="M303.87,221.51c-1.39-6-3.83-13.38-6.47-15.61-5-4.24-37.61-29.52-51.76-40.49l58,56.06Zm14.36-18.28c-5.61-4-47.7-29-67.44-40.72,16.19,12.48,45.27,35,50.22,39.1,6.21,5.22,9.15,21.29,9.46,23.1l.62,3.57-3.6-.4c-1.88-.21-18.56-2.19-25-9-3.48-3.7-10.69-12.35-18.5-21.9v0s-18.15-19.52-5.56,7.22h0c6.88,12.94,13.24,24.58,15.8,28.31,4.53,6.65,37.09,15.11,61.84,19.7C332.46,234.14,325.23,208.24,318.23,203.23Z"/><path class="cls-3" d="M318.23,203.23c-5.61-4-47.7-29-67.44-40.72,16.19,12.48,45.27,35,50.22,39.1,6.21,5.22,9.15,21.29,9.46,23.1l.62,3.57h0l24.4,23.81.61.11C332.46,234.14,325.23,208.24,318.23,203.23Z"/><path class="cls-3" d="M269,113.79c-.64-2.43-5.89-10.32-12.79-11.11.86-1.78,4.35-6.25,7.2-7C266.14,99.42,269.92,108.41,269,113.79Z"/><path class="cls-3" d="M230.33,164a18.47,18.47,0,0,1-.92-2.51c-.51-2.82,1.63-6.13,5-8.15,3.53-2.13,7.65-3,12-.47l1.43.83,14.78-13.52c2-1.85,0-5.14-3.06-3.72-1.76.81-27.71,13.65-27.71,13.65L221.12,161C225.21,163.1,228.18,164,230.33,164Z"/><path class="cls-1" d="M272.12,98.65l14.95-2.19c8.41-14.69,26.28-17.85,37.22-7.37-11-7.27-29.8-3.09-35.27,15.49-6.7-.47-14.35,1.93-14.35,1.93Z"/><path class="cls-3" d="M287.07,96.46c8.41-14.69,26.28-17.85,37.22-7.37-11-7.27-29.8-3.09-35.27,15.49Z"/><path class="cls-1" d="M394.48,178.82a95.18,95.18,0,0,1,17.2,1.6,94.19,94.19,0,0,1,16.75,4.76c-7.71-14.55-26-17.41-36.26-6.3C392.94,178.86,393.71,178.82,394.48,178.82Z"/><path class="cls-3" d="M417,181.57a95.27,95.27,0,0,1,11.42,3.61c-4.62-8.71-13-13.25-21.25-13.11C412.87,172.91,416.13,177.81,417,181.57Z"/><path class="cls-1" d="M380.21,180c7.06-12.42,18.3-15.88,28-14.51-12.88-8.88-36.46-2-45.77,19.42A88,88,0,0,1,380.21,180Z"/><path class="cls-5" d="M445.87,339.71a66.49,66.49,0,0,0,12.21-24c5.5-20,2.5-42-8-58.78-5.95-9.5-17-21.54-35.62-25a50.85,50.85,0,0,0-9.29-.87c-13.6,0-26,5.61-35.86,16.21-12.66,13.61-19.06,33.2-17.56,53.76,2.21,30.28,22.81,55.12,48.23,58.67-11.85-4.21-22.32-15-28.35-29.7a183.12,183.12,0,0,0,53.86-34.72l5.67,20.49,2-28.2c7.53-8.19,12.58-15.85,14.14-21.63,8.47,15.22,11.19,35.52,6.66,54.29A65.81,65.81,0,0,1,445.87,339.71Z"/><path class="cls-1" d="M447.45,206.76a85.5,85.5,0,0,0-53-18.5c-22.42,0-43.7,9.6-59.92,27.05-.35.37-.66.78-1,1.16,7.63,19.58,11.08,46,11.08,46s-16.07-2.43-33.56-6.34a123.84,123.84,0,0,0-3.82,15.35c-8.84,65.28,51.21,112.25,103.07,98.6-1.42.11-2.84.2-4.28.2-1.81,0-3.63-.09-5.42-.27-31-3.14-56.41-32.5-59-68.29-1.7-23.36,5.68-45.74,20.25-61.41,14.29-15.37,34.21-22.15,54.42-18.41,17.39,3.21,32.44,13.72,42.38,29.58,9.36,14.93,13.49,33.4,11.92,51.56C475.92,285,478.76,233.89,447.45,206.76Z"/><path class="cls-4" d="M371.6,330a183.12,183.12,0,0,0,53.86-34.72l5.67,20.49,2-28.2c7.53-8.19,12.58-15.85,14.14-21.63,8.47,15.22,11.19,35.52,6.66,54.29a65.81,65.81,0,0,1-8.08,19.51,66.49,66.49,0,0,0,12.21-24,76,76,0,0,0,2.66-22c-2.54-25.91-18.13-49.18-42.92-54C383,233,356.2,267.18,358.93,306.42c1.4,20.12,10.6,36.85,23.21,46.92A48.08,48.08,0,0,0,400,359.67C388.1,355.46,377.63,344.71,371.6,330Z"/><path class="cls-4" d="M468.06,238.34C456.21,217,436.65,200.73,411,196c-30.43-5.56-57,7-74.4,29.15a260,260,0,0,1,8.06,37.3s-11.06-1.67-24.8-4.47a110.21,110.21,0,0,0-4.17,39.42,101.89,101.89,0,0,0,17.1,49.88c20.59,20.3,50.17,29.95,77.51,22.78-1.41.11-2.81.2-4.23.2-1.81,0-3.63-.09-5.42-.27-31-3.14-56.41-32.5-59-68.29-1.7-23.36,5.68-45.74,20.25-61.41,14.29-15.37,34.21-22.15,54.42-18.41,17.39,3.21,32.44,13.72,42.38,29.58,9.35,14.92,13.48,33.37,11.92,51.52C474.2,290.75,476.66,263.25,468.06,238.34Z"/></g></g></svg>