<?xml version="1.0" encoding="utf-8"?>
<!-- Generator: Adobe Illustrator 25.1.0, SVG Export Plug-In . SVG Version: 6.00 Build 0)  -->
<svg version="1.1" id="Layer_1" xmlns="http://www.w3.org/2000/svg" xmlns:xlink="http://www.w3.org/1999/xlink" x="0px" y="0px"
	 viewBox="0 0 192 192" style="enable-background:new 0 0 192 192;" xml:space="preserve">
<style type="text/css">
	.st0{fill:url(#bg_1_);}
	.st1{fill:url(#reflection_front_1_);}
	.st2{fill:url(#emboss_1_);}
	.st3{fill:url(#emboss_2_);}
	.st4{fill:url(#emboss_3_);}
	.st5{fill:url(#emboss_4_);}
	.st6{fill:url(#emboss_5_);}
	.st7{fill:url(#emboss_6_);}
	.st8{fill:url(#emboss_7_);}
	.st9{fill:url(#SVGID_1_);}
	.st10{fill:url(#emboss_8_);}
	.st11{fill:url(#emboss_9_);}
	.st12{fill:url(#emboss_10_);}
	.st13{fill:#09783F;}
	.st14{fill:url(#grad_1_);}
	.st15{fill:url(#grad_2_);}
	.st16{fill:url(#grad_3_);}
	.st17{fill:#342C3A;}
</style>
<g id="Alliance_Logo_Full_Color_2_">
	<g id="core_2_">
		
			<linearGradient id="bg_1_" gradientUnits="userSpaceOnUse" x1="17.646" y1="107.2217" x2="174.5275" y2="107.2217" gradientTransform="matrix(1 0 0 -1 0 194)">
			<stop  offset="0.2849" style="stop-color:#D3D3D3"/>
			<stop  offset="1" style="stop-color:#9E99A7"/>
		</linearGradient>
		<polygon id="bg_11_" class="st0" points="171.7,118 119.6,9.1 105.4,7.1 86,11.7 69.5,20 17.6,122.1 36.5,166.4 69.5,146.9 
			125.8,146.9 153.4,166.4 170.1,141.2 174.5,127.3 		"/>
		
			<linearGradient id="reflection_front_1_" gradientUnits="userSpaceOnUse" x1="33.7644" y1="142.1566" x2="150.9485" y2="142.1566" gradientTransform="matrix(1 0 0 -1 0 194)">
			<stop  offset="0.2849" style="stop-color:#DDDCDF"/>
			<stop  offset="1" style="stop-color:#C5C2C8"/>
		</linearGradient>
		<polygon id="reflection_front_2_" class="st1" points="150.9,72.3 119.6,9.1 105.4,7.1 86,11.7 69.5,20 33.8,96.5 		"/>
		
			<linearGradient id="emboss_1_" gradientUnits="userSpaceOnUse" x1="21.8794" y1="54.1904" x2="38.5704" y2="54.1904" gradientTransform="matrix(1 0 0 -1 0 194)">
			<stop  offset="0" style="stop-color:#E3E1E7"/>
			<stop  offset="0.1852" style="stop-color:#DCDAE1"/>
			<stop  offset="0.462" style="stop-color:#CBC5D0"/>
			<stop  offset="0.7946" style="stop-color:#ADA4B6"/>
			<stop  offset="1" style="stop-color:#988CA2"/>
		</linearGradient>
		<path id="emboss_29_" class="st2" d="M32,125.2l-2.3-7.3l-5.9,1.9l-1.9,4c2.7,13.7,8.4,26.6,16.7,37.8
			C29.9,136.5,32,125.2,32,125.2z"/>
		
			<linearGradient id="emboss_2_" gradientUnits="userSpaceOnUse" x1="21.8521" y1="120.144" x2="74.7979" y2="120.144" gradientTransform="matrix(1 0 0 -1 0 194)">
			<stop  offset="0" style="stop-color:#FFFFFF"/>
			<stop  offset="0.1265" style="stop-color:#F8F7F8"/>
			<stop  offset="0.3217" style="stop-color:#E4E1E6"/>
			<stop  offset="0.5612" style="stop-color:#C3BEC7"/>
			<stop  offset="0.8332" style="stop-color:#968D9D"/>
			<stop  offset="1" style="stop-color:#776C80"/>
		</linearGradient>
		<path id="emboss_28_" class="st3" d="M74.8,28.3l-4.4-5.8c-0.1,0,0.1,0,0,0L21.9,123.9c0,0.1,0-0.1,0,0l10.1,1.4L74.8,28.3z"/>
		
			<linearGradient id="emboss_3_" gradientUnits="userSpaceOnUse" x1="82.1892" y1="32.3464" x2="82.1892" y2="61.894" gradientTransform="matrix(1 0 0 -1 0 194)">
			<stop  offset="0" style="stop-color:#E3E1E7"/>
			<stop  offset="0.1852" style="stop-color:#DCDAE1"/>
			<stop  offset="0.462" style="stop-color:#CBC5D0"/>
			<stop  offset="0.7946" style="stop-color:#ADA4B6"/>
			<stop  offset="1" style="stop-color:#988CA2"/>
		</linearGradient>
		<polygon id="emboss_27_" class="st4" points="38.6,161.7 66.2,141.2 125.8,141.2 63.7,132.1 		"/>
		
			<linearGradient id="emboss_4_" gradientUnits="userSpaceOnUse" x1="5404.6074" y1="32.3117" x2="5404.6074" y2="61.894" gradientTransform="matrix(-1 0 0 -1 5544.2173 194)">
			<stop  offset="0" style="stop-color:#FFFFFF"/>
			<stop  offset="1" style="stop-color:#776C80"/>
		</linearGradient>
		<polygon id="emboss_26_" class="st5" points="153.4,161.7 125.8,141.2 125.8,141.2 128.3,132.1 		"/>
		
			<linearGradient id="emboss_5_" gradientUnits="userSpaceOnUse" x1="63.7284" y1="57.3482" x2="128.2716" y2="57.3482" gradientTransform="matrix(1 0 0 -1 0 194)">
			<stop  offset="0" style="stop-color:#DDDDDC"/>
			<stop  offset="1" style="stop-color:#776C80"/>
		</linearGradient>
		<polygon id="emboss_25_" class="st6" points="128.3,132.1 125.8,141.2 66.2,141.2 63.7,132.1 		"/>
		
			<linearGradient id="emboss_6_" gradientUnits="userSpaceOnUse" x1="153.4296" y1="51.2409" x2="170.1206" y2="51.2409" gradientTransform="matrix(1 0 0 -1 0 194)">
			<stop  offset="0" style="stop-color:#E5E2E7"/>
			<stop  offset="3.783214e-02" style="stop-color:#D9D5DC"/>
			<stop  offset="0.1476" style="stop-color:#BBB5C0"/>
			<stop  offset="0.2666" style="stop-color:#A29AA8"/>
			<stop  offset="0.3963" style="stop-color:#8F8696"/>
			<stop  offset="0.5421" style="stop-color:#81778A"/>
			<stop  offset="0.7172" style="stop-color:#796F82"/>
			<stop  offset="1" style="stop-color:#776C80"/>
		</linearGradient>
		<path id="emboss_24_" class="st7" d="M160,125.2c0,0,2,11.3-6.6,36.5c8.3-11.2,14-24.2,16.7-37.8l0,0L160,125.2z"/>
		
			<linearGradient id="emboss_7_" gradientUnits="userSpaceOnUse" x1="70.3562" y1="174.0378" x2="116.5081" y2="174.0378" gradientTransform="matrix(1 0 0 -1 0 194)">
			<stop  offset="0" style="stop-color:#E3E1E7"/>
			<stop  offset="0.1852" style="stop-color:#DCDAE1"/>
			<stop  offset="0.462" style="stop-color:#CBC5D0"/>
			<stop  offset="0.7946" style="stop-color:#ADA4B6"/>
			<stop  offset="1" style="stop-color:#988CA2"/>
		</linearGradient>
		<path id="emboss_23_" class="st8" d="M116.5,11.7L116.5,11.7c-0.8,0-1.6,0-2.4,0c-15.3,0-30.4,3.7-43.8,10.8l4.4,5.8
			c9.7-6.9,25.7-10.3,37.9-10.3l0,0L116.5,11.7z"/>
		
			<linearGradient id="SVGID_1_" gradientUnits="userSpaceOnUse" x1="39.3165" y1="142.7465" x2="152.4579" y2="29.6051" gradientTransform="matrix(1 0 0 -1 0 194)">
			<stop  offset="0.1075" style="stop-color:#FFFFFF"/>
			<stop  offset="1" style="stop-color:#C0C0C0"/>
		</linearGradient>
		<path class="st9" d="M114.1,11.7c0.8,0,1.6,0,2.4,0l0,0l53.6,112.1l0,0c-2.7,13.7-8.4,26.6-16.7,37.8l0,0l0,0l0,0l0,0l-27.6-20.4
			H66.3l0.2,0h-0.2l-27.6,20.5l25.1-29.5l0,0h64.5l25.2,29.6c8.6-25.2,6.6-36.5,6.6-36.5l0,0L112.7,18l0,0c-0.1,0-0.2,0-0.2,0
			c-12.1,0-28,3.5-37.6,10.3l0,0l-42.8,97c0,0-2,11.3,6.6,36.5c-8.3-11.2-14-24.2-16.7-37.8L70.4,22.5l3.4,4.4l-3.4-4.4c0,0,0,0,0,0
			s0,0,0,0c0,0,0,0,0,0c0,0,0,0,0,0l0,0C83.8,15.4,98.9,11.7,114.1,11.7 M170.1,123.9L170.1,123.9L170.1,123.9L170.1,123.9
			 M114.1,10.6C99,10.6,84,14.2,70.7,21.1l-0.5-0.7L69.4,22L20.9,123.4l-0.2,0.3l0.1,0.3c2.6,13.5,8.3,26.4,16.4,37.6l-2.1,3.9
			l3.2-2.4l3.5,4.7l-2-5.8l26.7-19.8h58.9l27.3,20.2l0.9,0.6l0.6-0.9c8.4-11.3,14.2-24.5,16.9-38.3l0.1-0.3l-0.2-0.3L117.5,11.2
			l-0.3-0.6l-0.7,0C115.7,10.6,114.9,10.6,114.1,10.6L114.1,10.6z M75.6,29c9.7-6.7,25.1-9.8,36.3-9.9l47,106.5c0.2,1.2,1.3,12-6,34
			l-23.9-28.1l-0.3-0.4h-0.5H63.7h-0.5l-0.3,0.4L39,159.6c-7.3-22-6.1-32.8-6-34L75.6,29L75.6,29z"/>
		
			<linearGradient id="emboss_8_" gradientUnits="userSpaceOnUse" x1="39.5941" y1="135.7283" x2="74.7979" y2="135.7283" gradientTransform="matrix(1 0 0 -1 0 194)">
			<stop  offset="0" style="stop-color:#F1EFF3"/>
			<stop  offset="0.1667" style="stop-color:#EAE8ED"/>
			<stop  offset="0.416" style="stop-color:#D8D3DC"/>
			<stop  offset="0.7153" style="stop-color:#BAB2C1"/>
			<stop  offset="1" style="stop-color:#988CA2"/>
		</linearGradient>
		<polygon id="emboss_22_" class="st10" points="45.7,94.1 74.8,28.3 70.4,22.5 39.6,86.8 		"/>
		
			<linearGradient id="emboss_9_" gradientUnits="userSpaceOnUse" x1="112.6737" y1="125.535" x2="170.168" y2="125.535" gradientTransform="matrix(1 0 0 -1 0 194)">
			<stop  offset="0" style="stop-color:#FFFFFF"/>
			<stop  offset="1" style="stop-color:#9890A0"/>
		</linearGradient>
		<path id="emboss_21_" class="st11" d="M112.7,18l3.8-6.3l53.6,112.1c-0.1,0.2,0.1-0.2,0,0l-10.1,1.4L112.7,18z"/>
		
			<linearGradient id="emboss_10_" gradientUnits="userSpaceOnUse" x1="112.6737" y1="150.6582" x2="143.1929" y2="150.6582" gradientTransform="matrix(1 0 0 -1 0 194)">
			<stop  offset="0" style="stop-color:#E3E1E7"/>
			<stop  offset="0.1852" style="stop-color:#DCDAE1"/>
			<stop  offset="0.462" style="stop-color:#CBC5D0"/>
			<stop  offset="0.7946" style="stop-color:#ADA4B6"/>
			<stop  offset="1" style="stop-color:#988CA2"/>
		</linearGradient>
		<polygon id="emboss_20_" class="st12" points="143.2,67.5 116.5,11.7 112.7,18 137.8,75 		"/>
		<g id="triangle_hole_3_">
			<polygon class="st13" points="96,81.6 83.9,106.9 108.1,106.9 			"/>
		</g>
	</g>
	<g id="shield_2_">
		<g id="right_wing_2_">
			<path id="bg_10_" class="st13" d="M171.2,37c-1.6,0.1-3.1,0.2-4.4,0.3c1.9-7.5,3.1-12.2,3.1-12.2c-9.7,2.6-24.8,7.3-38.2,7.3
				l31.6,65.5c0.7-2.6,1.3-5.2,2-7.7l2.2,3.6C166.5,65.7,171.2,37,171.2,37z"/>
			
				<linearGradient id="grad_1_" gradientUnits="userSpaceOnUse" x1="153.6725" y1="134.5051" x2="153.6725" y2="173.1095" gradientTransform="matrix(1 0 0 -1 0 194)">
				<stop  offset="0.2742" style="stop-color:#279145"/>
				<stop  offset="1" style="stop-color:#288943"/>
			</linearGradient>
			<path id="grad_8_" class="st14" d="M133.5,31.5c13.5,0,31.3-7.3,40.4-10.6c0,0-1,0.3-3.8,3.6c-0.4,0.5-0.3,10-0.5,10.7
				c-1,6.5-11.8,16.7-23.4,24.2L133.5,31.5z"/>
			<path id="seam_8_" class="st13" d="M165.3,29.7c-8.1,2.2-18.6,5-28.7,5.8l23.5,48.8l1.1-4.3l4.2,4.1c-0.1-18.8,1.4-36.1,2.1-43.6
				c-0.2,0-0.4,0-0.6,0l-4.4,0.2l1.1-4.3C164.3,33.8,164.8,31.5,165.3,29.7 M138.3,36.4c8.6-0.8,17.3-3,25.5-5.2
				c-0.4,1.5-0.8,3.2-1.3,5l-1.1,4.3l-0.4,1.4l1.5-0.1l3.8-0.2c-0.7,7.2-1.9,22.8-2,39.9l-2.3-2.3l-1.3-1.3l-0.5,1.8l-0.4,1.5
				L138.3,36.4L138.3,36.4z"/>
		</g>
		<g id="left_wing_2_">
			<path id="bg_9_" class="st13" d="M20.8,37c1.6,0.1,3.1,0.2,4.4,0.3c-1.9-7.5-3.1-12.2-3.1-12.2c9.7,2.6,24.8,7.3,38.2,7.3
				L28.8,97.9c-0.7-2.6-1.3-5.2-2-7.7l-2.2,3.6C25.5,65.7,20.8,37,20.8,37z"/>
			
				<linearGradient id="grad_2_" gradientUnits="userSpaceOnUse" x1="38.8134" y1="134.5224" x2="38.8134" y2="172.2871" gradientTransform="matrix(1 0 0 -1 0 194)">
				<stop  offset="0.2742" style="stop-color:#279145"/>
				<stop  offset="1" style="stop-color:#288943"/>
			</linearGradient>
			<path id="grad_7_" class="st15" d="M58.7,31.5c-13.5,0-30.7-6.5-39.7-9.8c0,0,0.4-0.5,3.2,2.8c0.4,0.5,0.3,10,0.5,10.7
				c1,6.5,11.8,16.7,23.4,24.2L58.7,31.5z"/>
			<path id="seam_7_" class="st13" d="M26.7,29.7c8.1,2.2,18.6,5,28.7,5.8L31.8,84.3L30.7,80l-4.2,4.1c0.1-18.8-1.4-36.1-2.1-43.6
				c0.2,0,0.4,0,0.6,0l4.4,0.2l-1.1-4.3C27.7,33.8,27.2,31.5,26.7,29.7 M53.7,36.4c-8.6-0.8-17.3-3-25.5-5.2c0.4,1.5,0.8,3.2,1.3,5
				l1.1,4.3l0.4,1.4l-1.5-0.1l-3.8-0.2c0.7,7.2,1.9,22.8,2,39.9l2.3-2.3l1.3-1.3l0.5,1.8l0.4,1.5L53.7,36.4L53.7,36.4z"/>
		</g>
		<g id="shield_tip_2_">
			<path id="bg_8_" class="st13" d="M73.2,146.1h-1.1h-2.9l-10,7.4c10.2,12.6,22.3,23.4,36.8,31.1c14.5-7.7,26.6-18.5,36.8-31.1
				l-10-7.4H73.2z"/>
			
				<linearGradient id="grad_3_" gradientUnits="userSpaceOnUse" x1="96.0868" y1="28.6508" x2="59.3388" y2="28.6508" gradientTransform="matrix(1 0 0 -1 0 194)">
				<stop  offset="0.2742" style="stop-color:#279145"/>
				<stop  offset="1" style="stop-color:#288943"/>
			</linearGradient>
			<path id="grad_6_" class="st16" d="M96.1,146.1H73.3h-1.1h-2.9l-10,7.4c10.2,12.6,22.3,23.4,36.7,31.1V146.1z"/>
			<path id="seam_6_" class="st13" d="M96,180.9c11.7-6.5,22.4-15.5,32.1-26.8l-6.4-4.7H70.3l-6.4,4.7
				C73.6,165.4,84.3,174.4,96,180.9 M70.6,150.4h50.8l5.1,3.8c-9.2,10.7-19.5,19.2-30.5,25.4c-11-6.2-21.3-14.7-30.5-25.4
				L70.6,150.4L70.6,150.4z"/>
		</g>
	</g>
	<g id="outline_2_">
		<path class="st17" d="M75.2,108.7h41.6L96,65.2L75.2,108.7z M85.9,104.9L96,83.7l10.1,21.2H85.9z"/>
		<path class="st17" d="M177.8,121.6l-11.5-24c-0.1-1.5-0.2-2.8-0.3-3.9c0,0,0,0,0,0l6.2,6.1l-0.2-8c-0.8-27.4,2.3-54.2,2.3-54.4
			l0.5-3.9l-3.9,0.3c1.2-4.9,2-7.8,2-7.8l1.3-5.3L169,22c-1.4,0.4-2.8,0.8-4.4,1.2c-8.7,2.4-20.4,5.6-31,6l-7.4-15.4l0,0L121.6,4
			l-2.4-0.1c-1.7-0.1-3.4-0.1-5.1-0.1c-17,0-33.9,4.3-48.7,12.4l-1.1,0.6l-5.9,12.4c-10.6-0.4-22.3-3.6-31-6c-1.6-0.4-3-0.8-4.4-1.2
			l-5.3-1.4l1.3,5.3c0,0,0.7,2.9,2,7.8l-3.9-0.3l0.5,3.9c0,0.3,3.1,27,2.3,54.5l-0.2,8l6.2-6.1l0,0c-0.1,1.1-0.2,2.4-0.3,3.9
			l-11.5,24l-0.6,1.2l0.2,1.3c3,16.6,10.2,32.4,20.9,45.6l2.4,2.9L58,157.1c10.8,13,23.1,23.2,36.5,30.3l1.5,0.8l1.5-0.8
			c13.4-7.1,25.6-17.3,36.5-30.3l21,15.5l2.4-2.9c10.6-13.2,17.9-29,20.9-45.6l0.2-1.3L177.8,121.6z M165.3,29.7
			c-0.5,1.9-1,4.2-1.7,6.8l-1.1,4.3l4.4-0.2c0.2,0,0.4,0,0.6,0c-0.7,7.5-2.2,24.8-2.1,43.6l-4.2-4.1l-1.1,4.3l-23.6-48.8
			C146.7,34.7,157.2,31.9,165.3,29.7z M24.5,40.5c0.2,0,0.4,0,0.6,0l4.4,0.2l-1.1-4.3c-0.7-2.6-1.2-4.9-1.7-6.8
			c8.1,2.2,18.6,5,28.7,5.8l0,0L31.8,84.3L30.7,80l-4.2,4.1C26.7,65.2,25.2,47.9,24.5,40.5z M96,180.9
			c-11.7-6.5-22.5-15.5-32.1-26.8l6.4-4.7h51.5l6.4,4.7C118.5,165.4,107.7,174.4,96,180.9z M153.4,161.7l-27.7-20.5H75.7h-0.2h-9.2
			l-27.7,20.5c-8.3-11.2-14-24.2-16.7-37.8L70.4,22.5c13.4-7.1,28.5-10.8,43.8-10.8c0.8,0,1.6,0,2.4,0l5.1,10.7c0,0,0,0,0,0
			l48.5,101.4C167.5,137.5,161.7,150.5,153.4,161.7z"/>
	</g>
</g>
</svg>
