<?xml version="1.0" encoding="utf-8"?>
<!-- Generator: Adobe Illustrator 23.0.3, SVG Export Plug-In . SVG Version: 6.00 Build 0)  -->
<svg version="1.1" id="Layer_1" xmlns="http://www.w3.org/2000/svg" xmlns:xlink="http://www.w3.org/1999/xlink" x="0px" y="0px"
	 viewBox="0 0 192 192" style="enable-background:new 0 0 192 192;" xml:space="preserve">
<style type="text/css">
	.st0{fill:#090909;}
	.st1{fill-rule:evenodd;clip-rule:evenodd;fill:#FFFFFF;}
	.st2{fill:#F05929;}
</style>
<path class="st0" d="M165.04,87.13c8.29,47.06-19.25,73.61-68.86,103.22C46.57,160.74,19.03,134.2,27.32,87.13
	c10.98-62.32-11.78-69.56-12.3-69.46C15.64,17.44,55.61,2.2,96.18,2.2c40.57,0,80.54,15.24,81.16,15.48
	C176.81,17.58,154.05,24.81,165.04,87.13"/>
<path class="st1" d="M95.33,25.89v19.83l-2.96,3l-2.52,6.37l0-15.69l-2.86-4.51v4.95l1.58,1.62l0,4.71l-5.35-5.34v-19.1l3.2,7.84
	l5.62,5.66L95.33,25.89z M96.66,25.89v19.83l2.96,3l2.52,6.37V39.39l2.86-4.51v4.95l-1.58,1.62l0,4.71l5.35-5.34v-19.1l-3.2,7.84
	l-5.62,5.66L96.66,25.89z"/>
<path class="st1" d="M120.87,64.56l2.31-1.15v-4.22h2.4c0.08,0,0.15,0.05,0.18,0.12c0.03,0.07,0.01,0.16-0.05,0.21l-2.21,2.13
	l6.42,4.68l-3.5-4.31l2.65-2.8l-1.51-1.87h-6.69V64.56z M114.71,59.19h2.68v3.31h-2.68V59.19z M112.96,64.35h6.21l0.55-1.02v-5
	l-0.56-0.98h-6.2l-1.08,1.83h0.5v4.16L112.96,64.35z M109.13,63.43v-4.24h1.66l1-1.83h-6.5l-1,1.83h2.52v5.39L109.13,63.43z
	 M99.04,59.19l2.49,0v0.82h-2.49V59.19z M96.25,59.19h0.47v5.35l2.31-1.15v-1.51h2.49v2.67l2.32-1.15v-4.95l-0.62-1.09h-5.94
	L96.25,59.19z M90.38,59.19h2.69v3.31h-2.69V59.19z M88.06,64.35l6.79,0l0.56-0.98v-5.02l-0.57-1h-6.21l-1.03,1.83h0.46L88.06,64.35
	z M80.58,64.35h5.04l1.06-1.85h-3.77v-0.62h2.71l1.07-1.87h-3.78v-0.82h3.36l1.05-1.83h-6.73V64.35z M71.66,64.57v-7.21h6.72
	l1.54,1.83l-2.73,2.87l3.47,4.19l-6.37-4.62l2.19-2.11c0.06-0.06,0.08-0.14,0.05-0.21c-0.03-0.07-0.1-0.12-0.18-0.12h-2.37v4.22
	L71.66,64.57z M65.19,59.19h2.33c0.09,0,0.16,0.05,0.18,0.13c0.03,0.08,0,0.17-0.07,0.22l-2.45,1.74V59.19z M69.58,57.36l-6.14,0
	l-1.01,1.83h0.44v5.35l2.32-1.15v-1.79l1.65,0.76l4.32-3.16L69.58,57.36z"/>
<path class="st2" d="M166.75,19.45c-13.85-4.42-42.1-12.14-70.57-12.14c-28.47,0-56.71,7.72-70.57,12.14
	c7.13,8.76,13.94,27.74,6.75,68.57c-3.73,21.15,0.01,38.38,11.78,54.22c10.06,13.54,25.7,26.23,52.04,42.15
	c26.34-15.93,41.99-28.62,52.04-42.15c11.77-15.84,15.51-33.07,11.79-54.22C152.8,47.19,159.62,28.2,166.75,19.45 M96.18,178.86
	c-0.2-0.12-0.39-0.24-0.59-0.36c0.3,0.06,0.61,0.11,0.91,0.16C96.39,178.73,96.28,178.8,96.18,178.86 M144.43,139.42
	c-7.69,10.35-18.78,20.17-35.88,31.56c-0.11-0.05-0.22-0.09-0.33-0.14c-9.66-4.26-16.4-13.93-16.4-25.16
	c0-11.67,7.27-21.65,17.54-25.64c-9.12,2.65-17.08,7.99-22.98,15.12c2.12-8.08,7.39-14.87,14.41-18.99c-3.33,1.09-6.52,2.5-9.52,4.2
	c-13.41,7.55-23.22,20.75-26.21,36.37c-0.02,0.11-0.04,0.22-0.06,0.33c0.02,0.02,0.03,0.05,0.05,0.07
	c-7.16-6-12.7-11.77-17.12-17.72C36.99,124.7,33.52,108.62,37,88.84c3.33-18.89,4.01-34.99,2.01-47.85
	c-1.14-7.36-3.15-13.68-5.99-18.88c14.99-4.4,39-10.08,63.15-10.08s48.16,5.68,63.15,10.08c-2.84,5.2-4.84,11.52-5.99,18.88
	c-1.99,12.87-1.32,28.97,2.01,47.86C158.84,108.62,155.37,124.7,144.43,139.42"/>
<path class="st2" d="M144.23,109.3c-0.82-0.16-1.61-0.39-2.37-0.69v0c-0.06-0.02-0.11-0.04-0.17-0.07
	c-0.02-0.01-0.04-0.02-0.06-0.03c-0.06-0.02-0.11-0.05-0.17-0.07c-0.12-0.05-0.24-0.11-0.37-0.16c-0.2-0.1-0.4-0.2-0.59-0.3
	c-0.2-0.1-0.39-0.21-0.57-0.33c-0.06-0.03-0.11-0.07-0.16-0.1c-0.01-0.01-0.02-0.02-0.04-0.02c-0.06-0.04-0.11-0.07-0.17-0.11
	c-0.11-0.07-0.22-0.14-0.33-0.22c0,0-0.01,0-0.02-0.01c0,0-0.01,0-0.01-0.01c-0.01,0-0.02-0.01-0.02-0.02
	c-0.05-0.03-0.1-0.07-0.15-0.1c-0.03-0.02-0.06-0.04-0.08-0.06c-0.03-0.02-0.06-0.04-0.09-0.07c-0.04-0.03-0.08-0.06-0.11-0.09
	c-0.04-0.03-0.08-0.06-0.12-0.09c-0.04-0.03-0.07-0.06-0.11-0.09c-0.04-0.02-0.07-0.05-0.1-0.08c-0.03-0.02-0.06-0.05-0.09-0.07
	c-0.04-0.04-0.09-0.07-0.14-0.12c-0.07-0.06-0.15-0.13-0.23-0.2c-0.02-0.01-0.03-0.03-0.05-0.04c-0.08-0.07-0.16-0.15-0.25-0.22
	c-0.03-0.03-0.06-0.06-0.09-0.09c-0.09-0.08-0.18-0.17-0.26-0.26c-0.04-0.04-0.08-0.08-0.13-0.13c-0.06-0.06-0.11-0.12-0.17-0.18
	c-0.03-0.03-0.06-0.07-0.09-0.11c-0.09-0.1-0.18-0.2-0.27-0.3c-0.07-0.09-0.15-0.18-0.22-0.26c-0.08-0.09-0.15-0.19-0.23-0.29
	c-0.04-0.05-0.08-0.11-0.12-0.16c-0.03-0.04-0.06-0.08-0.09-0.11c-0.11-0.16-0.23-0.33-0.34-0.49c-0.25-0.38-0.48-0.77-0.69-1.17
	c-0.05-0.09-0.09-0.17-0.13-0.26c-0.09-0.18-0.17-0.36-0.26-0.55c-0.04-0.09-0.08-0.18-0.11-0.27c-0.02-0.06-0.05-0.11-0.07-0.18
	c-0.09-0.24-0.18-0.5-0.27-0.75c-0.05-0.14-0.09-0.28-0.13-0.42c-0.04-0.13-0.07-0.26-0.1-0.38c-0.01-0.02-0.01-0.04-0.02-0.06
	c-0.04-0.14-0.07-0.28-0.1-0.41c-0.03-0.15-0.06-0.29-0.09-0.44c-0.02-0.13-0.04-0.26-0.06-0.38l-0.01-0.06
	c-0.06-0.39-0.1-0.78-0.12-1.18c-6.83-5.48-15.24-9.06-24.45-9.95c-0.01,0-0.02,0-0.03,0c-0.21-0.02-0.42-0.04-0.63-0.06
	c-0.02,0-0.05-0.01-0.07-0.01c-0.05,0-0.1-0.01-0.15-0.01c-0.21-0.02-0.42-0.03-0.63-0.05c-0.42-0.03-0.85-0.05-1.27-0.06
	c-0.23-0.01-0.46-0.02-0.69-0.02c-1.06,0-2.1,0.04-3.14,0.1c-0.47,0.02-0.94,0.03-1.41,0.03c-0.21,0-0.42,0-0.64-0.01
	c-0.15,0-0.3,0-0.45-0.01c-0.2,0-0.4-0.02-0.6-0.02c-0.15-0.01-0.29-0.01-0.44-0.02c-0.21-0.01-0.42-0.03-0.62-0.05
	c-0.14-0.01-0.27-0.02-0.41-0.03c-0.22-0.02-0.43-0.04-0.64-0.06c-0.13-0.02-0.25-0.02-0.38-0.04c-0.22-0.02-0.44-0.06-0.67-0.09
	c-0.11-0.01-0.23-0.03-0.34-0.04c-0.24-0.03-0.47-0.07-0.7-0.11c-0.1-0.02-0.2-0.03-0.3-0.05c-0.25-0.04-0.49-0.09-0.74-0.13
	c-0.08-0.02-0.17-0.03-0.25-0.05c-0.26-0.05-0.52-0.11-0.78-0.17c-0.07-0.02-0.14-0.03-0.2-0.04c-0.28-0.06-0.55-0.13-0.83-0.2
	c-0.05-0.01-0.1-0.02-0.15-0.04c-0.29-0.07-0.58-0.16-0.87-0.24c-0.03-0.01-0.06-0.02-0.09-0.02c-0.31-0.09-0.62-0.18-0.93-0.28
	c0,0-0.01,0-0.02,0c-6.65-2.12-12.48-6.08-16.87-11.3c0.03,0.46,0.07,0.91,0.13,1.36c0.01,0.11,0.03,0.23,0.04,0.35
	c0.04,0.33,0.08,0.67,0.13,1c0.02,0.15,0.05,0.31,0.07,0.46c0.05,0.29,0.09,0.58,0.15,0.87c0.03,0.17,0.07,0.35,0.11,0.52
	c0.06,0.26,0.11,0.53,0.16,0.79c0.04,0.19,0.09,0.38,0.14,0.57c0.06,0.24,0.11,0.48,0.18,0.73c0.05,0.2,0.11,0.4,0.17,0.6
	c0.07,0.22,0.13,0.45,0.19,0.67c0.06,0.21,0.13,0.42,0.2,0.63c0.07,0.21,0.13,0.42,0.2,0.63c0.07,0.22,0.15,0.43,0.23,0.64
	c0.07,0.2,0.14,0.39,0.22,0.59c0.08,0.22,0.18,0.44,0.26,0.66c0.07,0.19,0.15,0.37,0.23,0.55c0.09,0.22,0.2,0.44,0.29,0.66
	c0.08,0.18,0.15,0.35,0.24,0.52c0.11,0.23,0.22,0.45,0.33,0.67c0.08,0.16,0.16,0.33,0.25,0.5c0.11,0.22,0.24,0.44,0.35,0.67
	c0.09,0.16,0.17,0.32,0.26,0.48c0.13,0.22,0.26,0.44,0.39,0.66c0.09,0.15,0.18,0.31,0.27,0.46c0.03,0.04,0.05,0.08,0.08,0.13
	c-16.67,6.57-28.92,21.9-31.07,40.32c3.76-7.35,9.28-13.67,15.99-18.38c-0.07,0.15-0.15,0.29-0.22,0.43
	c-2.65,5.39-4.28,11.36-4.65,17.68c-0.01,0.19-0.02,0.39-0.03,0.57c0,0.03,0,0.06,0,0.08c0,0.03,0,0.06,0,0.09
	c-0.01,0.2-0.02,0.41-0.02,0.61c-0.01,0.23-0.01,0.45-0.02,0.68c0,0.23,0,0.45,0,0.68c0,0.36,0,0.72,0.01,1.08
	c0,0.17,0.01,0.34,0.02,0.51c0,0.13,0.01,0.26,0.01,0.39c0.01,0.13,0.01,0.27,0.02,0.4c0.01,0.19,0.02,0.39,0.04,0.59
	c0,0.12,0.01,0.25,0.02,0.37c0.01,0.11,0.02,0.23,0.03,0.34c0,0.03,0,0.05,0,0.08c0.01,0.13,0.02,0.25,0.03,0.38
	c0,0.02,0,0.04,0,0.06c0.02,0.15,0.03,0.29,0.04,0.44c0.03,0.31,0.06,0.61,0.1,0.92c0.04,0.31,0.07,0.61,0.12,0.91
	c0.02,0.19,0.06,0.39,0.08,0.57c0.02,0.14,0.05,0.29,0.07,0.43c0.02,0.11,0.04,0.22,0.05,0.32c0.03,0.17,0.06,0.34,0.09,0.51
	c0.12,0.67,0.26,1.34,0.41,2c0.07,0.33,0.15,0.66,0.24,0.99c0.08,0.33,0.17,0.66,0.26,0.98c0.09,0.33,0.18,0.65,0.28,0.98
	c0.09,0.32,0.2,0.64,0.3,0.96c0.01,0.03,0.02,0.05,0.02,0.08c0.09,0.28,0.18,0.56,0.28,0.84c0.03,0.08,0.06,0.16,0.09,0.24
	c0.09,0.25,0.18,0.5,0.27,0.75c0.64-2.43,1.44-4.79,2.39-7.06c6.65-15.82,20.72-27.75,37.85-31.44c2.83-0.61,5.73-1,8.71-1.14
	c0.85-0.04,1.71-0.06,2.57-0.06c1.48,0,2.95,0.06,4.4,0.18c-2.73,1.49-5.32,3.21-7.74,5.12c3.1-1.51,6.58-2.35,10.26-2.35
	c19.58,0,25.36,11.68,22.74,17.49c1.91-3.01,3.12-6.5,3.44-10.24c0-0.02,0-0.03,0-0.04c0.05-0.62,0.07-1.24,0.07-1.88
	c0-2.91-0.54-5.69-1.54-8.25C144.33,109.48,144.28,109.39,144.23,109.3 M122.31,99.24c-1.75-0.22-3.54-0.34-5.35-0.34
	c-0.21,0-0.42,0-0.62,0c-0.66-1.09-1.36-2.15-2.11-3.19c-3.11-0.97-6.37-1.58-9.74-1.8c0.87-0.05,1.74-0.08,2.62-0.08
	c2.04,0,4.05,0.15,6.01,0.43c6.47,0.94,12.46,3.39,17.59,6.97C128.03,100.29,125.22,99.61,122.31,99.24"/>
</svg>
