<?xml version="1.0" encoding="utf-8"?>
<!-- Generator: Adobe Illustrator 24.0.2, SVG Export Plug-In . SVG Version: 6.00 Build 0)  -->
<svg version="1.1" id="Capa_1" xmlns="http://www.w3.org/2000/svg" xmlns:xlink="http://www.w3.org/1999/xlink" x="0px" y="0px"
	 viewBox="0 0 192 192" style="enable-background:new 0 0 192 192;" xml:space="preserve">
<style type="text/css">
	.st0{fill:#1B1B1B;}
	.st1{fill:#DC0C21;}
	.st2{fill:#FFFFFF;}
</style>
<g>
	<path class="st0" d="M182.74,7.9c-0.91-0.12-1.82-0.24-2.73-0.35c-2.88-0.36-5.77-0.69-8.66-1.01c-0.75-0.08-1.5-0.16-2.24-0.24
		c-2.88-0.31-5.77-0.6-8.67-0.87c-7.93-0.75-15.88-1.36-23.86-1.83c-2.89-0.17-5.8-0.32-8.69-0.46c-9.15-0.42-18.33-0.66-27.54-0.72
		l0,0l0,0c-0.01,0-0.02,0-0.02,0l0,0l0,0c-1.44-0.01-2.88-0.03-4.32-0.03c-1.45,0-2.9,0.02-4.35,0.03l0,0l0,0c-0.01,0-0.01,0-0.02,0
		l0,0l0,0c-9.21,0.06-18.39,0.3-27.54,0.72c-2.9,0.13-5.8,0.28-8.69,0.46c-7.98,0.47-15.93,1.08-23.86,1.83
		c-2.89,0.27-5.78,0.56-8.67,0.87c-0.75,0.08-1.5,0.16-2.24,0.24c-2.89,0.32-5.78,0.66-8.66,1.01c-0.91,0.11-1.82,0.24-2.73,0.35
		C6.37,8.27,3.48,8.66,0.6,9.07l1.94,8.58l4.38,19.37l1.91,8.47l0.03,0.11c1.82-0.24,3.65-0.47,5.48-0.7
		c1.07-0.13,2.13-0.26,3.2-0.39c1.82-0.21,3.64-0.42,5.46-0.62c0.75-0.08,1.49-0.16,2.24-0.24l0.54,8.67l1.27,20.27l0.55,8.74
		l0.67,10.75l1.86,29.58l0.51,8.2l0.24,3.91l5.04,4.31l3.4,2.91l0.79,0.67l20.4,17.49l8.96,7.68l22.17,19l0,0l0,0l0.02,0.02l0,0l0,0
		l0.98,0.84l3.36,2.88l3.37-2.88l0.95-0.82l0,0l0,0l0.02-0.02l0,0l0,0l22.17-18.96l8.96-7.66l20.4-17.45l0.76-0.65l3.56-3.04
		l4.89-4.19l0.25-4.06l0.51-8.05l1.86-29.73l0.67-10.75c0.57,0.07,1.14,0.14,1.7,0.2c0.18,0.02,0.36,0.04,0.53,0.06
		c2.72,0.33,5.44,0.67,8.14,1.03l0.71-3.15l1.22-5.43l4.5-19.95l1.91-8.47l0.03-0.11l1.91-8.47l4.39-19.42l1.94-8.58
		C188.52,8.66,185.63,8.27,182.74,7.9z"/>
	<g>
		<path class="st1" d="M132.25,136.16c-0.82-0.05-1.65-0.09-2.47-0.14l-6.6,11l-9.71,16.18l9.44-8.07l8.96-7.66l12.23-10.46
			C140.17,136.69,136.21,136.41,132.25,136.16z"/>
		<path class="st1" d="M68.8,147.01l-6.59-10.98c-0.83,0.05-1.65,0.09-2.48,0.14C55.81,136.4,51.9,136.69,48,137l12.1,10.37
			l8.96,7.68l9.4,8.06L68.8,147.01z"/>
		<path class="st1" d="M100.36,139.91L100.36,139.91L100.36,139.91l-0.03,0.05v0v0l-4.32,7.21l-4.35-7.25v0v0l-0.02-0.04v0v0
			l-2.85-4.74c-5.58,0.07-11.16,0.19-16.7,0.42l19.55,32.58v0v0l0.02,0.04v0v0l4.35,7.25l4.32-7.21v0v0l0.02-0.04v0v0l19.56-32.62
			c-5.54-0.22-11.11-0.35-16.69-0.41L100.36,139.91z"/>
	</g>
	<g>
		<path class="st2" d="M179.47,15.31c-2.88-0.36-5.77-0.71-8.66-1.03c-0.75-0.08-1.49-0.16-2.24-0.24
			c-2.88-0.32-5.77-0.61-8.67-0.89c-7.82-0.75-15.69-1.36-23.59-1.84l-0.66,20.07l-0.28,8.71v0.01l-0.28,8.71l-0.66,20.08
			l-0.28,8.72l-1.6,48.83c6.74,0.4,13.46,0.92,20.16,1.55l3.05-48.6l0.55-8.73c2.89,0.29,5.78,0.6,8.66,0.93
			c0.75,0.08,1.49,0.18,2.24,0.27c0.28,0.04,0.57,0.07,0.86,0.1l4.5-19.91c-1.36-0.16-2.72-0.3-4.08-0.45
			c-0.75-0.08-1.49-0.16-2.24-0.24c-2.88-0.31-5.77-0.59-8.67-0.86l0.55-8.67l0-0.05l0.55-8.68c2.89,0.27,5.78,0.55,8.67,0.85
			c0.75,0.08,1.5,0.16,2.24,0.24c2.29,0.25,4.57,0.51,6.85,0.78l2.53-11.2l1.87-8.3C180.36,15.42,179.91,15.36,179.47,15.31z"/>
		<path class="st2" d="M57.85,77.61l-0.28-8.72l-0.66-20.1l-0.28-8.71v-0.01l-0.28-8.71l-0.66-20.05
			c-7.9,0.47-15.77,1.09-23.59,1.84c-2.89,0.28-5.78,0.57-8.67,0.89c-0.75,0.08-1.5,0.16-2.24,0.24c-2.89,0.32-5.78,0.67-8.66,1.03
			c-0.45,0.06-0.9,0.11-1.34,0.17l1.87,8.29l2.52,11.17c2.28-0.27,4.57-0.53,6.85-0.78c0.75-0.08,1.49-0.16,2.24-0.24
			c2.88-0.3,5.78-0.59,8.67-0.85l0.55,8.67l0,0.05l0.55,8.67l1.26,20.19l0.55,8.73l3.05,48.6c6.7-0.63,13.42-1.15,20.16-1.55
			L57.85,77.61z"/>
		<path class="st2" d="M104.45,10.17v0.2l-0.48,44.07L92.71,10.12c-0.35,0-0.7,0-1.05,0.01l0,0l0,0c-0.01,0-0.02,0-0.02,0l0,0l0,0
			c-9.13,0.06-18.21,0.3-27.25,0.72l0.66,20.07l0.28,8.71l0.28,8.71l0.66,20.06l0.28,8.72l1.6,48.87c7.4-0.34,13.1-0.53,20.54-0.6
			v-0.04l-1.22-56.58l14.83,56.64c7.44,0.07,14.15,0.24,21.55,0.58l1.6-48.87l0.28-8.71l0.66-20.04l0.28-8.71
			c-0.1,0-0.2-0.01-0.3-0.01c0.1,0,0.2,0.01,0.3,0.01l0.28-8.71l0.66-20.09C119.75,10.48,112.38,10.26,104.45,10.17z"/>
	</g>
</g>
</svg>
