<?xml version="1.0" encoding="iso-8859-1"?>
<!-- Generator: Adobe Illustrator 25.0.0, SVG Export Plug-In . SVG Version: 6.00 Build 0)  -->
<svg version="1.1" id="&#x56FE;&#x5C42;_1" xmlns="http://www.w3.org/2000/svg" xmlns:xlink="http://www.w3.org/1999/xlink" x="0px"
	 y="0px" viewBox="0 0 192 192" style="enable-background:new 0 0 192 192;" xml:space="preserve">
<g>
	<g>
		<path style="fill:#FFFFFF;" d="M98.423,126.782c-7.382,0-14.545-1.446-21.289-4.299c-6.513-2.755-12.362-6.698-17.384-11.72
			c-5.022-5.022-8.965-10.871-11.72-17.384c-2.853-6.744-4.299-13.907-4.299-21.289s1.446-14.545,4.299-21.289
			c2.755-6.513,6.698-12.361,11.72-17.384c5.022-5.022,10.87-8.965,17.384-11.72c6.744-2.853,13.907-4.299,21.289-4.299
			c7.382,0,14.545,1.446,21.289,4.299c6.513,2.755,12.361,6.698,17.383,11.72c5.022,5.022,8.966,10.871,11.72,17.384
			c2.853,6.744,4.299,13.907,4.299,21.289s-1.446,14.545-4.299,21.289c-2.754,6.513-6.698,12.361-11.72,17.384
			c-5.022,5.021-10.87,8.965-17.383,11.72C112.968,125.336,105.805,126.782,98.423,126.782z M98.423,22.765
			c-27.199,0-49.326,22.128-49.326,49.326c0,27.199,22.128,49.327,49.326,49.327c27.199,0,49.327-22.128,49.327-49.327
			C147.75,44.892,125.622,22.765,98.423,22.765z"/>
	</g>
	<g>
		<path style="fill:#FFFFFF;" d="M109.678,35.429c0,5.563-4.509,10.072-10.072,10.072c-5.563,0-10.072-4.509-10.072-10.072
			c0-5.563,4.509-10.072,10.072-10.072C105.169,25.357,109.678,29.867,109.678,35.429z"/>
		<path style="fill:#FFFFFF;" d="M109.593,84.703c0,0-1.497,2.816-0.536,2.37c5.267-2.45,3.944-4.563,7.79-9.489l0,0
			c-2.214,3.472-1.878,6.304-1.46,11.013c0.359,4.055,6.196,26.285-14.628,28.068c-17.829,1.527-24.54-11.322-19.577-28.33
			l-0.035,0.122c2.8-9.699,4.772-13.72,5.763-16.959c3.06-10.011-8.969-10.935-12.59-1.727l0,0c0-9.685,12.769-21.459,23.912-21.459
			c7.449,0,13.351,3.353,15.564,7.175c4.627,8.584,2.386,13.262-0.402,20.319C110.532,82.289,113.156,76.707,109.593,84.703z"/>
		<g>
			<path style="fill:#FFFFFF;" d="M98.924,45.409c10.511,0,19.565,6.494,23.484,15.567c9.717-20.457-1.727-26.795-1.727-26.795
				c-3.059-1.805-6.355-3.253-9.828-4.288c0.824,1.496,1.277,3.403,1.277,5.733c0,4.689-4.637,9.82-10.052,9.82
				c-0.787,0-1.404-0.064-2.253-0.022"/>
			<path style="fill:#FFFFFF;" d="M122.434,61.037c-0.009-0.021-0.018-0.041-0.027-0.062c-0.01,0.02-0.019,0.041-0.029,0.062
				H122.434z"/>
			<path style="fill:#FFFFFF;" d="M101.022,115.751c-17.477,3.844-27.06-7.935-23.113-25.529l-0.019,0.125
				c0.222-1.473,0.684-2.618,0.9-3.856c-3.237-4.28-5.398-9.813-5.398-15.592l-0.007,0c0.025-13.623,10.715-24.742,24.166-25.455
				c-0.014,0-0.029,0.001-0.043,0.001c-5.415,0-10.052-5.131-10.052-9.82c0-2.867,0.684-5.097,1.905-6.703
				c-20.304,4.081-35.598,22.015-35.598,43.521l0.008,0c0.024,22.518,16.814,41.11,38.559,43.965
				c1.909,0.251,3.856,0.381,5.834,0.381"/>
		</g>
		<g>
			<path style="fill:#FFFFFF;" d="M101.781,116.787"/>
			<path style="fill:#FFFFFF;" d="M133.71,45.21l-0.055-0.071c0,0,2.86,9.612-4.224,19.537c0,0-3.154,4.265-6.497,7.218
				c-5.454,5.011-4.567,12.213-4.499,12.714c0.001,0.003,0.001,0.008,0.002,0.011c0.002,0.011,0.002,0.017,0.002,0.017v0
				c0.956,6.854,4.42,30.093-16.588,32.146c23.045-1.619,41.237-20.825,41.237-44.281C143.088,62.211,139.587,52.738,133.71,45.21z"
				/>
		</g>
	</g>
</g>
<path style="fill:#FFFFFF;" d="M92.659,165.016l-0.006-0.008c-0.875-1.152-2.063-1.736-3.533-1.736h-5.698l-0.04,4.074h5.46
	c0.36,0,0.616,0.086,0.784,0.264c0.23,0.244,0.332,0.71,0.295,1.343c-0.122,1.74-0.856,1.74-1.133,1.74c-0.01,0-0.022,0-0.032,0
	l-6.456-0.165c-0.516-0.017-0.911-0.218-1.206-0.616c-0.324-0.435-0.481-0.961-0.481-1.609v-4.866c0-0.673,0.17-1.24,0.519-1.733
	c0.317-0.448,0.703-0.656,1.215-0.656h10.744v-4.074H82.37c-1.646,0-2.991,0.61-3.998,1.814c-0.987,1.179-1.488,2.687-1.488,4.482
	v5.134c0,1.796,0.49,3.287,1.458,4.434c0.987,1.17,2.322,1.764,3.967,1.764h6.811c1.546,0,2.732-0.497,3.524-1.477
	c0.768-0.95,1.157-2.365,1.157-4.204C93.801,167.375,93.417,166.061,92.659,165.016z"/>
<path style="fill:#FFFFFF;" d="M176.593,164.296l-0.006-0.008c-0.875-1.152-2.063-1.736-3.532-1.736h-5.698l-0.04,4.074h5.46
	c0.36,0,0.616,0.086,0.784,0.264c0.23,0.244,0.332,0.71,0.295,1.343c-0.122,1.74-0.856,1.74-1.133,1.74c-0.01,0-0.022,0-0.032,0
	l-6.456-0.165c-0.516-0.017-0.911-0.218-1.206-0.616c-0.324-0.435-0.481-0.961-0.481-1.609v-4.866c0-0.673,0.17-1.24,0.519-1.733
	c0.317-0.448,0.703-0.656,1.214-0.656h10.744v-4.074h-10.719c-1.646,0-2.991,0.61-3.999,1.814c-0.987,1.179-1.488,2.687-1.488,4.482
	v5.134c0,1.796,0.49,3.288,1.458,4.434c0.987,1.17,2.321,1.763,3.967,1.763h6.811c1.546,0,2.732-0.497,3.524-1.477
	c0.768-0.95,1.157-2.365,1.157-4.204C177.735,166.655,177.351,165.341,176.593,164.296z"/>
<g>
	<path style="fill:#FFFFFF;" d="M104.236,156.158c4.916,0.32,7.631,2.023,8.142,5.105v12.431h-4.032v-5.494h-8.12v5.494H96.13
		v-12.431C96.592,158.18,99.294,156.478,104.236,156.158z M108.345,165.109V161.4c-0.195-1.206-2.187-1.869-4.109-1.992
		c-1.923,0.122-3.84,0.786-4.01,1.992v3.709H108.345z"/>
</g>
<g>
	<path style="fill:#FFFFFF;" d="M139.823,156.227v17.636h-4.061v-17.636H139.823z"/>
</g>
<g>
	<path style="fill:#FFFFFF;" d="M146.083,147.391c0,1.418-0.502,2.628-1.505,3.631c-1.003,1.003-2.214,1.505-3.631,1.505h-10.391
		v-3.822h10.391c0.366,0,0.677-0.127,0.931-0.382c0.255-0.255,0.382-0.565,0.382-0.932c0-0.366-0.128-0.677-0.382-0.932
		c-0.255-0.254-0.565-0.382-0.931-0.382h-5.255c-1.418,0-2.628-0.502-3.631-1.505c-1.003-1.003-1.505-2.213-1.505-3.631
		c0-1.417,0.502-2.628,1.505-3.631c1.003-1.003,2.213-1.505,3.631-1.505h10.391v3.822h-10.391c-0.367,0-0.677,0.128-0.932,0.382
		c-0.255,0.255-0.382,0.565-0.382,0.932c0,0.367,0.127,0.677,0.382,0.932c0.255,0.255,0.565,0.382,0.932,0.382h5.255
		c1.417,0,2.628,0.502,3.631,1.505C145.581,144.763,146.083,145.973,146.083,147.391z"/>
</g>
<path style="fill:#FFFFFF;" d="M104.644,148.733c-0.124,0-0.272-0.02-0.446-0.265c-0.194-0.271-0.288-0.59-0.288-0.974v-4.591h5.481
	v-4.062h-5.481v-3.152h-3.794v11.92c0,1.423,0.416,2.644,1.238,3.629c0.861,1.033,1.968,1.557,3.29,1.557h4.82v-4.062H104.644z"/>
<path style="fill:#FFFFFF;" d="M53.943,138.113c-1.633-1.507-3.529-2.271-5.635-2.271c-2.037,0-3.923,0.772-5.605,2.293
	c-1.85,1.67-2.787,3.782-2.787,6.278v8.672h4.062v-8.672c0-1.516,0.522-2.722,1.551-3.584c0.852-0.715,1.804-1.078,2.831-1.078
	c0.883,0,1.762,0.393,2.613,1.167c1.005,0.914,1.515,2.089,1.515,3.495v8.672h4.164v-8.647
	C56.65,141.911,55.739,139.784,53.943,138.113z"/>
<path style="fill:#FFFFFF;" d="M124.091,135.841v8.672c0,1.516-0.522,2.721-1.551,3.584c-0.852,0.715-1.804,1.078-2.831,1.078
	c-0.883,0-1.762-0.392-2.613-1.167c-1.005-0.914-1.515-2.09-1.515-3.495v-8.672h-4.163v8.647c0,2.526,0.911,4.654,2.707,6.325
	c1.633,1.507,3.529,2.271,5.635,2.271c2.037,0,3.923-0.772,5.605-2.293c1.85-1.67,2.787-3.782,2.787-6.278v-8.672H124.091z"/>
<path style="fill:#FFFFFF;" d="M70.937,135.892v8.37c0,1.412-0.54,2.552-1.651,3.483c-0.096,0.081-0.192,0.163-0.289,0.245
	c-0.769,0.657-1.565,1.337-2.442,1.337c-0.72,0-1.415-0.65-2.152-1.338c-0.119-0.111-0.239-0.223-0.36-0.333
	c-1.102-1.002-1.615-2.08-1.615-3.394v-8.37h-4.163v8.345c0,2.332,0.924,4.277,2.909,6.123c1.577,1.455,3.295,2.876,5.433,2.876
	c2.034,0,3.651-1.312,5.404-2.898c2.039-1.841,2.989-3.772,2.989-6.076v-8.37H70.937z"/>
<path style="fill:#FFFFFF;" d="M91.104,140.005h6.958v-4.163H91.13c-2.526,0-4.654,0.91-6.325,2.707
	c-1.507,1.633-2.271,3.529-2.271,5.635c0,2.037,0.771,3.923,2.293,5.605c1.67,1.849,3.782,2.787,6.278,2.787h6.958v-4.062h-6.958
	c-1.516,0-2.721-0.522-3.584-1.551c-0.715-0.852-1.078-1.804-1.078-2.831c0-0.883,0.392-1.763,1.167-2.613
	C88.523,140.514,89.699,140.005,91.104,140.005z"/>
<g>
	<rect x="76.85" y="136.376" style="fill:#FFFFFF;" width="4.062" height="26.155"/>
	<rect x="76.85" y="131.356" style="fill:#FFFFFF;" width="4.062" height="4.266"/>
</g>
<g>
	<rect x="17.401" y="142.533" style="fill:#FFFFFF;" width="14.056" height="4.062"/>
</g>
<g>
	<rect x="34.03" y="135.892" style="fill:#FFFFFF;" width="4.062" height="17.344"/>
	<rect x="34.03" y="131.356" style="fill:#FFFFFF;" width="4.062" height="3.855"/>
</g>
<g>
	<path style="fill:#FFFFFF;" d="M158.074,152.737c-1.855,0-3.801-0.048-5.838-0.145l-0.01-3.826
		c13.24,0.631,20.277-1.068,23.688-2.548c1.628-0.706,3.193-1.517,3.697-2.01c-1.567-1.805-6.16-3.076-11.777-3.873
		c-5.404-0.766-10.495-0.689-10.546-0.688l-0.033,0h-14.157v-3.831h14.142c0.4-0.006,5.538-0.067,11.131,0.726
		c3.414,0.484,6.292,1.124,8.555,2.034c3.133,1.26,6.086,2.84,6.999,4.934l0.3,0.687l-0.246,0.708
		c-0.154,0.444-2.054,2.88-6.54,4.826C172.935,151.685,166.437,152.737,158.074,152.737z"/>
</g>
<path style="fill:#FFFFFF;" d="M19.269,144.342c0,3.155-2.557,5.712-5.712,5.712c-3.155,0-5.712-2.557-5.712-5.712
	c0-3.155,2.557-5.712,5.712-5.712C16.711,138.629,19.269,141.187,19.269,144.342z"/>
<path style="fill:#FFFFFF;" d="M130.536,156.434c-0.713,0-1.857,0.246-3.059,1.653c-0.495,0.552-0.993,1.114-1.516,1.643
	c-0.065,0.062-0.128,0.125-0.191,0.188c-1.129,1.133-1.835,0.999-3.24-0.352c-0.639-0.614-1.239-1.266-1.83-1.925
	c-1.202-1.407-2.346-1.653-3.059-1.653c-1.557,0-2.386,1.585-2.386,2.408v15.021h4.043v-11.065c1.003,1.136,2.238,2.294,3.432,3.399
	c0.644,0.597,1.725,0.8,2.669,0.356v0c0,0,0,0,0.001,0c0.231-0.109,0.454-0.255,0.661-0.445c0.632-0.582,1.479-1.471,2.188-2.211
	c0.255-0.25,0.467-0.468,0.63-0.653v11.065h4.044v-15.021C132.922,158.019,132.092,156.434,130.536,156.434z"/>
<path style="fill:#FFFFFF;" d="M158.254,156.307l-3.895,0.015v11.074c-1.363-2.212-3.656-5.322-5.566-8.088h-0.003l-0.733-1.056
	c0,0-1.087-1.761-2.512-1.979c-1.425-0.218-2.819,0.322-2.819,2.206c0,0.363,0,0.697,0,0.999v1.989v12.377h3.91V162.88
	c0.938,1.544,2.417,3.558,3.901,5.577l-0.013,0l2.379,3.425c0,0,1.087,1.761,2.512,1.98c1.425,0.218,2.819-0.322,2.819-2.206
	c0-0.2,0-0.391,0-0.573l0.019-0.018V156.307z"/>
</svg>
