<?xml version="1.0" encoding="utf-8"?>
<!-- Generator: Adobe Illustrator 23.1.0, SVG Export Plug-In . SVG Version: 6.00 Build 0)  -->
<svg version="1.1" id="Layer_1" xmlns="http://www.w3.org/2000/svg" xmlns:xlink="http://www.w3.org/1999/xlink" x="0px" y="0px"
	 width="192px" height="192px" viewBox="0 0 192 192" enable-background="new 0 0 192 192" xml:space="preserve">
<g>
	<polygon fill="#FFFFFF" points="110.8,146.8 125.4,140.7 133.3,115.9 112.6,125 	"/>
	<path fill="#E93373" d="M192,61.5l-41.8,8.6l9-14.2l-40.9-40.9l4.4,33.5l-4.5,6.9L96,3.1l0,0L73.9,55.4l-4.5-6.9l4.4-33.5
		L32.9,55.8l9,14.2L0,61.5l25,50.4l-6.8,76.3l27.9-36l5.6,17.9L96,188.9l44.3-18.8l5.6-17.9l27.9,36l-6.8-76.3L192,61.5z M142,130.5
		l-10,32L100.2,176l0,0l-4.2,1.8l-5.6-2.4l0,0L60,162.6l-10-32.1l-18.6,24l3.4-37.5l14.1-12.8l-16.8-0.8L18.4,75.6l44.8,9.2
		L45.8,57.3l14-14l-1,7.6l17,26.1L96,29.2l0,0l20.2,47.7l17-26.1l-1-7.6l14,14l-17.3,27.5l44.8-9.2l-13.8,27.8l-16.8,0.8l14.1,12.8
		l3.4,37.5L142,130.5z"/>
	<polygon fill="#FFFFFF" points="58.7,115.9 66.6,140.7 81.2,146.8 79.4,125 	"/>
</g>
</svg>
