<?xml version="1.0" encoding="utf-8"?>
<!-- Generator: Adobe Illustrator 25.0.1, SVG Export Plug-In . SVG Version: 6.00 Build 0)  -->
<svg version="1.1" id="GXR_LOGO_-_Icon" xmlns="http://www.w3.org/2000/svg" xmlns:xlink="http://www.w3.org/1999/xlink" x="0px"
	 y="0px" viewBox="0 0 389.57 265.1" style="enable-background:new 0 0 389.57 265.1;" xml:space="preserve">
<style type="text/css">
	.st0{fill:#161436;}
	.st1{fill:#FFFFFF;}
	.st2{fill:#163850;}
	.st3{fill:#FEC00F;}
</style>
<g>
	<g id="XMLID_226_">
		<path class="st0" d="M186.79,253.91c-18.34,0-35.73-2.65-51.68-7.86c-14.75-4.83-28.39-13.86-42.6-28.26
			c6.89,14.8,21.11,32.11,21.27,32.3l1.49,1.81l-2.34-0.17c-34.57-2.58-65.97-36.63-69.92-64.21c-1.33-9.29-0.76-17.1,0.44-23.2
			c-12.87,29.7-14.51,62.64-14.53,63.02l-0.14,3.01l-1.69-2.5c-0.35-0.51-8.56-12.84-11.18-34.5c-2.41-19.92-0.25-51.76,23.74-90.29
			c21.46-34.46,63.78-64.07,110.46-77.29c22.2-6.28,43.33-9.47,62.82-9.47c34.18,0,62.08,9.8,81.04,28.39
			c-6.26-16.01-24.07-31.57-24.26-31.73l-2.35-2.04l3.1,0.28c0.53,0.05,52.86,5.36,70.5,50.69c7.78,19.98,3.45,38.74-0.69,49.69
			c14.43-23.52,27.64-66.76,27.79-67.26l1.04-3.44l0.88,3.49c0.05,0.19,4.79,19.23,4.42,44.51c-0.34,23.37-5.25,57.03-26.66,84.68
			c-28.43,36.71-63,60.44-105.68,72.52c-4.58,1.3-9.24,2.45-13.86,3.43C214.36,252.42,200.43,253.91,186.79,253.91z"/>
		<path class="st1" d="M270.37,12.19c0,0,52.04,4.78,69.66,50.06c12.07,31-5.22,58.66-5.22,58.66
			c16.95-19.37,34.21-76.31,34.21-76.31s19.06,75.23-22.06,128.34c-18.18,23.48-49.69,56.46-105.16,72.17
			c-4.59,1.3-9.19,2.44-13.8,3.41c-13.84,2.93-27.69,4.39-41.21,4.39c-18.03,0-35.44-2.61-51.37-7.81
			c-19.29-6.31-34.36-19.51-45.87-31.84c5.66,15.9,23.45,37.47,23.45,37.47c-33.32-2.49-64.98-35.27-69.01-63.35
			c-2.92-20.35,3.39-33.42,5.33-36.85c0.18-0.3,0.36-0.6,0.54-0.9c0,0-0.2,0.3-0.54,0.9c-19.42,32.74-21.4,76.76-21.4,76.76
			s-33.57-49.58,12.58-123.7c21.7-34.85,64.8-64.09,109.89-76.86c22.32-6.32,43.36-9.43,62.55-9.43c35.35,0,64.38,10.58,83.33,31.19
			C291.68,30.64,270.37,12.19,270.37,12.19 M264.36,9.63l4.7,4.07c0.17,0.15,14.63,12.79,21.94,26.87
			c-18.99-16.57-45.76-25.28-78.06-25.28c-19.58,0-40.8,3.2-63.09,9.51c-22.59,6.4-44.83,16.92-64.31,30.43
			c-19.9,13.8-36.06,30.16-46.73,47.3c-10.65,17.1-17.94,34.33-21.69,51.22c-3.01,13.56-3.74,26.92-2.19,39.72
			c2.65,21.89,10.99,34.41,11.35,34.94l3.38,4.99l0.27-6.03c0.02-0.35,1.39-27.94,11.49-55.28c-0.33,4.59-0.22,9.8,0.6,15.57
			c2.05,14.29,10.84,29.75,24.12,42.43c14.02,13.39,30.61,21.42,46.72,22.63l4.68,0.35l-2.98-3.62
			c-0.14-0.17-11.07-13.49-18.36-26.66c12.77,12.05,25.23,19.83,38.61,24.21c16.06,5.25,33.55,7.91,52,7.91
			c13.71,0,27.71-1.49,41.62-4.43c4.65-0.98,9.33-2.14,13.93-3.44c42.9-12.15,77.63-35.98,106.2-72.87
			c21.58-27.87,26.52-61.75,26.87-85.28c0.38-25.42-4.25-44-4.45-44.78l-1.77-6.97l-2.09,6.88c-0.13,0.44-10.56,34.57-22.94,58.56
			c2.48-10.14,3.92-25.15-2.27-41.06c-5.16-13.26-16.72-31.49-42.48-43.1c-15.34-6.91-28.32-8.17-28.86-8.22L264.36,9.63
			L264.36,9.63z"/>
	</g>
	<path id="XMLID_225_" class="st2" d="M74.91,177.86c16.2,50.27,89.08,74.1,162.78,53.24C329.8,205.02,373.4,125.91,367.68,67.6
		c0,0,0,0,0,0c-6.86,49.13-55.6,111.73-121.87,131.18c-55.84,16.39-124.37,0.6-131.17-44.77c-4.11-27.42,16-54.04,64-64.43
		c35.16-7.61,56.4,6.07,61.5,22.09c5.25,16.5-4.55,36.48-28.7,43.32c-19.32,5.47-42.87-1.36-42.9-15.36
		c-0.05-19.38,27.63-24.1,29.12-15.36c-4.03-2.52-14.2-0.2-12.53,10.87c1.59,10.51,19.17,9.02,26.17,2.36
		c6.49-6.17,7.03-15.02,4.91-19.79c-7.04-15.78-29.21-16.19-43.33-11.22c-17.08,6-35.15,21.09-31.59,41.88
		c4.62,26.98,36.32,47.51,84.13,37.39c7.65-1.62,22.54-6.41,28.53-8.93c44.11-18.56,86.51-60.73,79.38-97.2
		c-4.42-22.58-15.08-41.72-42.25-53.73c0,0,26.38,24.54,24.42,69.07c0,0,0,0-0.01,0l-2.69-8.42
		c-16.2-50.27-85.05-68.54-158.74-47.68C61.94,64.96,15.33,136.52,24.27,203.36c0,0,0,0,0,0c0.98-68.93,63.15-124.5,118.56-140.17
		c62.18-17.6,126.81-5.38,137.17,27.55c18.05,57.36-65.74,77.39-65.74,77.39c37.48-9.24,56.29-38.69,47.99-64.42
		c-10.37-32.17-56.1-44.87-103.68-33.48c-68.13,16.3-111.12,70.4-103.41,115.34c3.89,22.7,15.08,41.71,42.24,53.72
		c0,0-27.05-25.37-24.32-70.83C73.08,168.45,73.94,174.86,74.91,177.86z"/>
	<path id="XMLID_224_" class="st3" d="M74.91,177.86c14.65,50.86,87.91,67.26,161.61,46.39c92.12-26.08,136.89-98.35,131.16-156.66
		c0,0,0,0,0,0c-6.86,49.13-53.96,118.78-120.22,138.23c-55.84,16.39-135.73,1.42-145.73-50.08c-5.28-27.17,15.35-62.96,63.31-73.58
		c49.66-11,76.84,4.21,82.3,20.08c7.9,23-11.75,45.9-35.9,52.74c-19.32,5.47-42.87-1.36-42.9-15.36
		c-0.05-19.38,27.63-24.1,29.12-15.36c-4.03-2.52-14.2-0.2-12.53,10.87c1.59,10.51,19.17,9.02,26.17,2.36
		c6.49-6.17,7.03-15.02,4.91-19.79c-7.04-15.78-29.21-16.19-43.33-11.22c-17.08,6-35.15,21.09-31.59,41.88
		c4.62,26.98,36.32,47.51,84.13,37.39c7.65-1.62,22.54-6.41,28.53-8.93c44.11-18.56,86.51-60.73,79.38-97.2
		c-4.42-22.58-15.08-41.72-42.25-53.73c0,0,26.38,24.54,24.42,69.07c0,0,0,0-0.01,0l-2.69-8.42
		c-16.2-50.27-85.05-68.54-158.74-47.68C61.94,64.96,15.33,136.52,24.27,203.36c0,0-14.04-108.5,129.95-153.44
		c61.78-19.28,127.13,0.8,137.5,33.73c18.05,57.36-77.45,84.47-77.45,84.47c37.48-9.24,56.29-38.69,47.99-64.42
		c-10.37-32.17-55.2-42.05-102.6-29.77C76.56,95.46,68.17,154.46,74.91,177.86z"/>
	<path id="XMLID_223_" class="st1" d="M333.32,79.63c6.28,36.66-35.27,78.64-79.38,97.2c-5.99,2.52-20.88,7.31-28.53,8.93
		c-47.81,10.12-79.51-10.41-84.13-37.39c-3.56-20.79,14.51-35.88,31.59-41.88c14.13-4.96,36.3-4.55,43.33,11.22
		c2.12,4.76,1.58,13.62-4.91,19.79c-7.01,6.66-24.58,8.16-26.17-2.36c-1.68-11.07,8.5-13.39,12.53-10.87
		c-1.5-8.74-32.8-4.88-36.66,14.01c-5.27,25.78,29.72,47.49,83.5,29.7C338.32,129.37,333.24,79.14,333.32,79.63z"/>
	<path id="XMLID_222_" class="st1" d="M74.91,177.86c16.2,50.27,89.08,74.1,162.78,53.24C329.8,205.02,373.4,125.91,367.68,67.6
		c0,0-8.16,113.53-115.27,150.01C113.61,264.87,74.91,177.86,74.91,177.86z"/>
	<g id="XMLID_111_">
		<path id="XMLID_178_" class="st0" d="M300.6,164.16l-0.67-16.05c10.28-4.76,16.26-17.07,16.26-29.47
			c0-16.83-13.2-31.48-29.48-31.48c-1.46,0-155.32,0-155.92,0c-35.79,0-56.12,22.13-63.32,40.83c-11.09,28.8,0.43,62.17,41.08,62.17
			l148.28,0.44L300.6,164.16z"/>
		<g id="XMLID_120_">
			<g id="XMLID_166_">
				<polygon id="XMLID_177_" class="st1" points="174.5,166.61 176.68,164.16 155.61,164.16 153.39,166.61 				"/>
				<polygon id="XMLID_176_" class="st1" points="178.88,161.69 187.65,151.85 166.74,151.85 157.84,161.69 				"/>
				<polygon id="XMLID_175_" class="st1" points="170.11,171.53 172.29,169.08 151.16,169.08 148.95,171.53 				"/>
				<polygon id="XMLID_174_" class="st1" points="166.74,151.85 187.65,151.85 188.02,151.43 188.15,151.85 207.71,151.85 
					201.53,135.96 232.27,101.04 210.6,101.04 194.64,120.38 190.18,101.04 168.51,101.04 181.11,135.96 				"/>
				<polygon id="XMLID_173_" class="st1" points="157.84,161.69 145.05,175.84 166.27,175.84 178.88,161.69 				"/>
				<polygon id="XMLID_172_" class="st1" points="213.45,166.61 192.76,166.61 194.29,171.53 215.36,171.53 				"/>
				<polygon id="XMLID_171_" class="st1" points="194.29,171.53 195.64,175.84 217.04,175.84 215.36,171.53 				"/>
				<polygon id="XMLID_170_" class="st1" points="188.15,151.85 191.22,161.69 211.54,161.69 207.71,151.85 				"/>
				<polygon id="XMLID_169_" class="st1" points="191.22,161.69 192.76,166.61 213.45,166.61 211.54,161.69 				"/>
			</g>
			<g id="XMLID_160_">
				<path id="XMLID_165_" class="st1" d="M127.88,151.85c-0.02,0-4.56,6.01-10.28,7.4c-1.71,0.42-3.44,0.56-5.17,0.61
					c-9.29,0.29-11.19-4.86-12.61-8.01H80.38c-0.07,3.87,1.16,12.31,7.6,17.23h43.07c0.74-0.79,9.13-5.24,16.2-17.23H127.88z"/>
				<path id="XMLID_164_" class="st1" d="M87.97,169.08c0.96,0.89,6.62,4.92,9.16,5.25h21.81c2.71,0,9.65-3.8,10.65-4.37
					c0.49-0.28,0.97-0.59,1.45-0.88H87.97z"/>
				<path id="XMLID_163_" class="st1" d="M115.16,148.49h14.42c-0.49,1.24-1.06,2.34-1.69,3.35h19.37c1.28-2.31,2.4-4.76,3.33-7.4
					c1.08-3.07,2.1-6.48,3.06-10.24H118.8L115.16,148.49z"/>
				<path id="XMLID_162_" class="st1" d="M99.83,151.85c-0.45-1.38-0.73-2.9-0.79-4.58c-0.09-2.57,0.25-5.36,1.02-8.36
					c0.85-3.32,2.05-6.33,3.6-9.02c1.55-2.69,3.33-5,5.35-6.91c2.01-1.91,4.22-3.38,6.63-4.42c2.41-1.04,4.93-1.55,7.56-1.55
					c3.16,0,5.77,0.85,7.81,2.54c2.04,1.69,3.35,4.48,3.91,8.36l18.5-7.24c-1.39-6.7-4.34-11.65-8.83-14.85
					c-4.5-3.2-10.27-4.79-17.31-4.79c-5.43,0-10.59,0.91-15.47,2.72c-4.88,1.82-9.31,4.36-13.27,7.61
					c-3.96,3.26-7.39,7.19-10.26,11.79c-2.88,4.61-5.02,9.66-6.43,15.17c-1.24,4.87-1.73,9.37-1.47,13.5H99.83z"/>
				<path id="XMLID_161_" class="st1" d="M96.13,174c3.37,1.22,7.2,1.84,11.51,1.84c3.82,0,7.59-0.5,11.31-1.5
					c0.37-0.1,0.74-0.23,1.1-0.33H96.13z"/>
			</g>
			<g id="XMLID_125_">
				<polygon id="XMLID_159_" class="st1" points="253.87,166.61 254.46,164.16 236.91,164.16 236.32,166.61 				"/>
				<polyline id="XMLID_157_" class="st1" points="239.29,154.32 238.7,156.77 256.25,156.77 256.84,154.32 				"/>
				<polygon id="XMLID_156_" class="st1" points="255.06,161.69 255.65,159.24 238.1,159.24 237.51,161.69 				"/>
				<path id="XMLID_153_" class="st1" d="M257.44,151.85l1.16-4.78l1.63,4.78h19.2l-3-6.66c5.14-1.25,9.38-3.65,12.71-7.19
					c3.33-3.54,5.69-8.15,7.06-13.84c0.77-3.17,1.02-6.15,0.77-8.93c-0.25-2.78-1.04-5.22-2.34-7.34c-1.31-2.12-3.22-3.79-5.73-5.01
					c-2.51-1.22-5.65-1.83-9.41-1.83h-27.31l-12.29,50.8H257.44z M266.1,116.02h3.31c3.46,0,6.06,0.9,7.53,2.48
					c1.46,1.59,1.7,3.77,0.98,6.74c-0.72,2.98-2.2,5.26-4.43,6.85c-2.24,1.59-5.08,2.38-8.54,2.38h-3.31L266.1,116.02z"/>
				<polygon id="XMLID_152_" class="st1" points="252.68,171.53 253.27,169.08 235.72,169.08 235.13,171.53 				"/>
				<polygon id="XMLID_151_" class="st1" points="264.41,164.16 265.24,166.61 286.07,166.61 284.97,164.16 				"/>
				<polygon id="XMLID_150_" class="st1" points="239.89,151.85 234.08,175.84 251.63,175.84 257.44,151.85 				"/>
				<polygon id="XMLID_149_" class="st1" points="260.22,151.85 268.38,175.84 290.23,175.84 279.42,151.85 				"/>
				<polygon id="XMLID_148_" class="st1" points="261.06,154.32 261.89,156.77 281.64,156.77 280.53,154.32 				"/>
				<polygon id="XMLID_138_" class="st1" points="262.73,159.24 263.56,161.69 283.85,161.69 282.75,159.24 				"/>
				<polygon id="XMLID_134_" class="st1" points="287.18,169.08 266.08,169.08 266.91,171.53 288.28,171.53 				"/>
			</g>
		</g>
	</g>
	<g>
		<rect id="XMLID_228_" x="76.72" y="150.72" class="st0" width="220.85" height="4.82"/>
		<rect id="XMLID_181_" x="76.09" y="158.85" class="st0" width="220.85" height="4.82"/>
		<rect id="XMLID_180_" x="80.84" y="166.89" class="st0" width="216.1" height="4.82"/>
	</g>
</g>
</svg>
