<svg width="24" height="24" viewBox="0 0 24 24" fill="none" xmlns="http://www.w3.org/2000/svg">
<path fill-rule="evenodd" clip-rule="evenodd" d="M3.14062 6.14489V6.14519V18.1839V18.1842C3.14062 20.8438 6.91366 22.9998 11.5679 22.9998C16.2222 22.9998 19.9952 20.8438 19.9952 18.1842V18.1839V6.14519V6.14489C19.9949 3.48545 16.222 1.32959 11.5679 1.32959C6.91383 1.32959 3.14091 3.48545 3.14062 6.14489ZM18.2486 6.63644C16.879 7.92045 14.4055 8.77777 11.5815 8.77777C8.73894 8.77777 6.25141 7.90911 4.88754 6.61099C4.85018 6.77506 4.83092 6.94239 4.83092 7.11228C4.83092 9.23757 7.84597 10.9605 11.5652 10.9605C15.2845 10.9605 18.2996 9.23757 18.2996 7.11228C18.2996 6.95116 18.2822 6.79236 18.2486 6.63644ZM11.5815 13.5936C14.4055 13.5936 16.879 12.7362 18.2486 11.4522C18.2822 11.6081 18.2996 11.767 18.2996 11.9281C18.2996 14.0534 15.2845 15.7763 11.5652 15.7763C7.84597 15.7763 4.83092 14.0534 4.83092 11.9281C4.83092 11.7582 4.85018 11.5909 4.88754 11.4268C6.25141 12.7249 8.73894 13.5936 11.5815 13.5936ZM11.5815 18.4087C14.4054 18.4087 16.8788 17.5514 18.2484 16.2675C18.2822 16.4237 18.2996 16.5827 18.2996 16.7441C18.2996 18.8694 15.2845 20.5923 11.5652 20.5923C7.84597 20.5923 4.83092 18.8694 4.83092 16.7441C4.83092 16.574 4.85024 16.4064 4.88771 16.2421C6.25162 17.5401 8.73906 18.4087 11.5815 18.4087Z" fill="white"/>
</svg>
