<svg width="24" height="24" viewBox="0 0 24 24" fill="none" xmlns="http://www.w3.org/2000/svg">
<g clip-path="url(#clip0_3897_61294)">
<path fill-rule="evenodd" clip-rule="evenodd" d="M6.14259 1.01297C6.49834 0.674156 7.04751 0.643939 7.43829 0.941673L7.58248 1.05153C8.04379 1.40301 8.70638 1.28962 9.02457 0.804755L9.27572 0.422047C9.67065 -0.179745 10.5529 -0.179745 10.9478 0.422046L11.199 0.804755C11.5172 1.28962 12.1797 1.40301 12.6411 1.05153L12.7852 0.941673C13.176 0.643939 13.7252 0.674156 14.0809 1.01297L15.1394 2.02097L13.417 2.95051C12.9128 3.22263 12.5461 3.69414 12.4066 4.24987C12.3685 4.40162 12.2629 4.52751 12.1201 4.59142L12.0794 4.60962C10.8275 5.1699 9.39606 5.1699 8.14413 4.60962L8.10346 4.59142C7.96065 4.52751 7.85505 4.40162 7.81695 4.24987C7.67744 3.69414 7.31079 3.22263 6.80656 2.95051L5.08418 2.02097L6.14259 1.01297ZM7.87713 6.09254C9.29885 6.7288 10.9244 6.7288 12.3461 6.09254L14.1753 7.76473C14.443 8.00942 14.6963 8.26579 14.935 8.53258C13.3071 9.13088 12.2289 10.1752 12.2289 11.3634L12.229 11.3893V13.6371C11.7001 13.5488 11.1407 13.5015 10.5619 13.5015C7.28386 13.5015 4.62652 15.0199 4.62652 16.8931L4.62663 16.9133V20.2326C3.78675 19.9465 3.12086 19.2535 2.89116 18.3572C1.90637 14.5142 3.12025 10.4414 6.04819 7.7646L7.87713 6.09254ZM22.5199 12.2412L22.5199 12.2291C22.5199 10.8386 20.5473 9.71146 18.1141 9.71146C15.6808 9.71146 13.7083 10.8386 13.7083 12.2291H13.7082V14.1645C14.7882 14.5512 15.6348 15.1311 16.0998 15.8194C16.6941 16.0126 17.3815 16.123 18.1142 16.123C19.5952 16.123 20.8919 15.6719 21.6065 14.9971C21.6251 15.0807 21.6346 15.1659 21.6346 15.2524C21.6346 16.3636 20.0583 17.2643 18.1139 17.2643C17.5306 17.2643 16.9805 17.1832 16.4961 17.0398L16.4961 17.0405V17.0407H16.4962V18.4499C16.9923 18.5726 17.5393 18.6405 18.1142 18.6405C19.5952 18.6405 20.8919 18.1895 21.6065 17.5146C21.6251 17.5983 21.6346 17.6836 21.6346 17.7702C21.6346 18.8813 20.0583 19.7821 18.1139 19.7821C17.5307 19.7821 16.9806 19.701 16.4962 19.5576V20.8656C16.9971 20.9786 17.5429 21.0407 18.114 21.0407C20.5473 21.0407 22.5199 19.9136 22.5199 18.5231V18.5231V12.2412ZM18.1142 13.6054C19.5953 13.6054 20.892 13.1543 21.6066 12.4795C21.6251 12.5631 21.6347 12.6484 21.6347 12.7349C21.6347 13.846 20.0584 14.7467 18.1139 14.7467C16.1695 14.7467 14.5932 13.846 14.5932 12.7349C14.5932 12.6482 14.6028 12.5628 14.6214 12.4791C15.3359 13.1542 16.6328 13.6054 18.1142 13.6054ZM6.1553 21.4824V21.4827C6.1553 22.8732 8.12786 24.0003 10.5611 24.0003C12.9944 24.0003 14.967 22.8732 14.967 21.4827V21.4824V17.7059H14.9669C14.9668 16.3156 12.9943 15.1884 10.5611 15.1884C8.12784 15.1884 6.15529 16.3156 6.15529 17.706L6.1553 17.7127V21.4824ZM10.5613 19.0818C12.0425 19.0818 13.3393 18.6306 14.0538 17.9557C14.0724 18.0395 14.082 18.1249 14.082 18.2115C14.082 19.3226 12.5057 20.2233 10.5613 20.2233C8.61686 20.2233 7.04058 19.3226 7.04058 18.2115C7.04058 18.1248 7.05017 18.0395 7.06877 17.9557C7.78332 18.6306 9.08011 19.0818 10.5613 19.0818ZM10.5613 21.5996C12.0426 21.5996 13.3394 21.1484 14.0539 20.4735C14.0725 20.5572 14.0821 20.6425 14.0821 20.729C14.0821 21.8402 12.5058 22.7409 10.5613 22.7409C8.6169 22.7409 7.04062 21.8402 7.04062 20.729C7.04062 20.6425 7.05019 20.5572 7.06876 20.4735C7.7833 21.1484 9.08012 21.5996 10.5613 21.5996Z" fill="white"/>
</g>
<defs>
<clipPath id="clip0_3897_61294">
<rect width="24" height="24" fill="white"/>
</clipPath>
</defs>
</svg>
