<?xml version="1.0" encoding="utf-8"?>
<!-- Generator: Adobe Illustrator 25.4.1, SVG Export Plug-In . SVG Version: 6.00 Build 0)  -->
<svg version="1.1" id="Layer_1" xmlns="http://www.w3.org/2000/svg" xmlns:xlink="http://www.w3.org/1999/xlink" x="0px" y="0px"
	 width="192px" height="192px" viewBox="0 0 192 192" enable-background="new 0 0 192 192" xml:space="preserve">
<g>
	<linearGradient id="SVGID_1_" gradientUnits="userSpaceOnUse" x1="39.0478" y1="118.1814" x2="39.0478" y2="45.652">
		<stop  offset="1.565004e-07" style="stop-color:#66CEF6"/>
		<stop  offset="1" style="stop-color:#C3E8F3"/>
	</linearGradient>
	<polygon fill="url(#SVGID_1_)" points="6.8,49.1 78.1,47.5 3.5,45.7 0,45.7 2.1,48.5 55.1,118.2 	"/>
	
		<linearGradient id="SVGID_00000035490708667145435380000001760747129110222725_" gradientUnits="userSpaceOnUse" x1="152.9638" y1="118.1594" x2="152.9638" y2="45.652">
		<stop  offset="1.565004e-07" style="stop-color:#66CEF6"/>
		<stop  offset="1" style="stop-color:#C3E8F3"/>
	</linearGradient>
	<polygon fill="url(#SVGID_00000035490708667145435380000001760747129110222725_)" points="188.5,45.7 113.9,47.5 185.2,49.1 
		136.9,118.2 189.9,48.5 192,45.7 	"/>
	
		<linearGradient id="SVGID_00000046336619499578275810000006365670786955137468_" gradientUnits="userSpaceOnUse" x1="95.7072" y1="177.4027" x2="95.7072" y2="148.9803">
		<stop  offset="1.565004e-07" style="stop-color:#66CEF6"/>
		<stop  offset="1" style="stop-color:#C3E8F3"/>
	</linearGradient>
	<polygon fill="url(#SVGID_00000046336619499578275810000006365670786955137468_)" points="77.6,149 94.6,175.3 96,177.4 
		97.4,175.3 113.8,149.8 96,171.5 	"/>
	<g>
		
			<linearGradient id="SVGID_00000157303612650622580520000007334314889264494770_" gradientUnits="userSpaceOnUse" x1="96" y1="161.8348" x2="96" y2="14.5973">
			<stop  offset="1.565004e-07" style="stop-color:#66CEF6"/>
			<stop  offset="1" style="stop-color:#C3E8F3"/>
		</linearGradient>
		<polygon fill="url(#SVGID_00000157303612650622580520000007334314889264494770_)" points="96.4,15.9 96,14.6 95.6,15.9 
			48.6,160.5 48.2,161.8 49.3,161 84,135.8 62.4,143.2 96,34 128.8,139.3 79.9,117.4 75.8,115.7 79.4,118.2 142.7,161 143.8,161.8 
			143.4,160.5 		"/>
		
			<linearGradient id="SVGID_00000073702346477175353450000016828855785190758308_" gradientUnits="userSpaceOnUse" x1="96.0001" y1="112.2462" x2="96.0001" y2="72.0735">
			<stop  offset="1.565004e-07" style="stop-color:#66CEF6"/>
			<stop  offset="1" style="stop-color:#C3E8F3"/>
		</linearGradient>
		<polygon fill="url(#SVGID_00000073702346477175353450000016828855785190758308_)" points="100.2,95.7 110,92.2 100.2,88.6 
			96,72.1 91.8,88.6 82,92.2 91.8,95.7 96,112.2 		"/>
	</g>
</g>
</svg>
