<?xml version="1.0" encoding="utf-8"?>
<!-- Generator: Adobe Illustrator 24.3.0, SVG Export Plug-In . SVG Version: 6.00 Build 0)  -->
<svg version="1.1" id="Layer_1" xmlns="http://www.w3.org/2000/svg" xmlns:xlink="http://www.w3.org/1999/xlink" x="0px" y="0px"
	 viewBox="0 0 192 192" style="enable-background:new 0 0 192 192;" xml:space="preserve">
<style type="text/css">
	.st0{fill:#50B748;}
	.st1{fill:#125B46;}
	.st2{fill:#080509;}
	.st3{fill:#808080;}
	.st4{fill:#009A4C;}
	.st5{fill:#16664D;}
	.st6{fill:#191919;}
	.st7{fill:#52AE32;}
	.st8{fill:#FFFFFF;}
	.st9{fill:#232323;}
	.st10{fill:#D3D0CF;}
</style>
<g>
	<g>
		<path d="M57.38,168.56c-6.8-3.5-12.5-8.8-16.48-15.33c-3.98-6.53-6.09-14.02-6.09-21.67v-4.75h3.22c5.35,0,9.7-4.35,9.7-9.7
			c0-5.35-4.35-9.7-9.7-9.7h-3.22V59.17c-0.84,0.34-1.29,0.54-1.3,0.55l-4.52,1.98l0-4.93v-36.6l-7.06-6.94V3.22h148.16v10.04
			l-7.26,6.94v41.46l-4.49-1.93c-0.01,0-0.49-0.21-1.38-0.57v48.24h-3.22c-5.35,0-9.7,4.35-9.7,9.7c0,5.35,4.35,9.7,9.7,9.7h3.22
			v4.75c0,7.65-2.11,15.14-6.09,21.67c-3.98,6.53-9.68,11.83-16.48,15.33l-38.5,19.81L57.38,168.56z"/>
		<path d="M18.68,0v14.59l1.94,1.87l5.13,5.06v45.1l5.82-2.53v46.55h6.45c3.57,0,6.48,2.88,6.48,6.48c0,0.97-0.21,1.87-0.62,2.7
			c-1.01,2.22-3.26,3.74-5.86,3.74h-6.45v7.97c0,8.25,2.29,16.33,6.55,23.36c4.3,7.04,10.43,12.76,17.78,16.53l37.02,19.03
			l2.95,1.53l2.95-1.53l37.02-19.03c7.35-3.78,13.48-9.5,17.78-16.53c4.3-7.04,6.55-15.11,6.55-23.36v-7.97h-6.45
			c-2.6,0-4.85-1.53-5.86-3.74c-0.42-0.83-0.62-1.73-0.62-2.7c0-3.61,2.91-6.48,6.48-6.48h6.45V64.02l5.86,2.53V21.56l5.27-5.03
			l2.01-1.91V0H18.68z M159.59,18.82v37.96c0,0-2.15-0.94-5.86-2.32v49.74c-7.14,0-12.93,5.79-12.93,12.93c0,0.94,0.1,1.84,0.31,2.7
			c1.21,5.82,6.41,10.19,12.62,10.19v1.53c0,14.39-8.04,27.56-20.83,34.14l-37.02,19.06l-37.02-19.06
			c-12.79-6.59-20.83-19.76-20.83-34.14v-1.53c6.2,0,11.4-4.37,12.62-10.19c0.21-0.87,0.31-1.77,0.31-2.7
			c0-7.14-5.79-12.93-12.93-12.93V54.46c-3.67,1.39-5.82,2.32-5.82,2.32V18.82l-7.07-6.93V6.45h141.74v5.44L159.59,18.82z"/>
	</g>
	<path d="M58.12,167.13c-6.54-3.36-12.02-8.46-15.85-14.74c-3.83-6.28-5.85-13.48-5.85-20.83v-3.14h1.61
		c6.24,0,11.31-5.08,11.31-11.31c0-6.24-5.08-11.31-11.31-11.31h-1.61V56.79c-2.26,0.88-3.55,1.45-3.56,1.45l-2.26,0.99l0-39.74
		l-7.06-6.94V4.83h144.94v7.74l-7.26,6.94v39.7l-2.25-0.96c-0.02-0.01-1.33-0.57-3.62-1.45v48.99h-1.61
		c-6.24,0-11.31,5.08-11.31,11.31c0,6.24,5.08,11.31,11.31,11.31h1.61v3.14c0,7.35-2.02,14.56-5.85,20.83
		c-3.83,6.28-9.31,11.37-15.85,14.74l-37.76,19.43L58.12,167.13z"/>
	<path class="st0" d="M21.91,3.22v10.02l0.97,0.94l6.1,6V61.7l4.54-1.98c0,0,0.45-0.21,1.28-0.55v48.25h3.22
		c5.37,0,9.71,4.33,9.71,9.71c0,0.49-0.03,0.94-0.1,1.39c-0.07,0.45-0.17,0.9-0.28,1.32c-0.1,0.38-0.24,0.73-0.38,1.07
		c-0.03,0.1-0.07,0.17-0.1,0.24c-0.38,0.8-0.83,1.53-1.42,2.18c-0.17,0.24-0.35,0.45-0.55,0.62c-0.21,0.24-0.45,0.45-0.69,0.62
		c-0.17,0.14-0.35,0.28-0.52,0.38c-0.35,0.28-0.69,0.49-1.07,0.69c-0.45,0.24-0.9,0.45-1.42,0.62c-0.38,0.14-0.76,0.24-1.18,0.31
		c-0.14,0.03-0.28,0.07-0.42,0.07c-0.1,0.03-0.24,0.03-0.38,0.07c-0.14,0.03-0.28,0.03-0.42,0.03c-0.24,0.03-0.49,0.03-0.76,0.03
		H34.8v4.75c0,7.66,2.11,15.15,6.1,21.7c3.99,6.52,9.67,11.82,16.47,15.32l37.02,19.06l1.49,0.76l1.49-0.76l37.02-19.06
		c6.79-3.5,12.48-8.8,16.47-15.32c3.99-6.55,6.1-14.04,6.1-21.7v-4.75h-3.22c-0.28,0-0.52,0-0.76-0.03c-0.14,0-0.24,0-0.38-0.03
		c-0.1-0.03-0.24-0.03-0.38-0.07c-0.14,0-0.28-0.03-0.42-0.07c-0.38-0.07-0.8-0.17-1.18-0.31c-0.03,0-0.03,0-0.07-0.03
		c-0.38-0.1-0.76-0.28-1.11-0.45c-0.1-0.03-0.21-0.1-0.31-0.17c-0.28-0.14-0.55-0.28-0.8-0.49c-0.62-0.42-1.21-0.9-1.7-1.46
		c-0.31-0.35-0.62-0.69-0.87-1.07c-0.14-0.21-0.28-0.42-0.42-0.66c-0.14-0.21-0.24-0.45-0.35-0.66c-0.14-0.21-0.21-0.49-0.31-0.73
		c-0.1-0.24-0.17-0.49-0.24-0.73c-0.14-0.38-0.21-0.76-0.28-1.14c-0.03-0.03-0.03-0.1-0.03-0.14s0-0.03,0-0.03
		c-0.07-0.45-0.1-0.9-0.1-1.39c0-5.37,4.37-9.71,9.71-9.71h3.22V59.17c0.9,0.35,1.35,0.55,1.39,0.55l4.47,1.94V20.21l6.27-6
		l1.01-0.97V3.22H21.91z M166.87,11.89l-7.28,6.93v37.96c0,0-2.15-0.94-5.86-2.32v49.74c-7.14,0-12.93,5.79-12.93,12.93
		c0,0.94,0.1,1.84,0.31,2.7c1.21,5.82,6.41,10.19,12.62,10.19v1.53c0,14.39-8.04,27.56-20.83,34.14l-37.02,19.06l-37.02-19.06
		c-12.79-6.59-20.83-19.76-20.83-34.14v-1.53c6.2,0,11.4-4.37,12.62-10.19c0.21-0.87,0.31-1.77,0.31-2.7
		c0-7.14-5.79-12.93-12.93-12.93V54.46c-3.67,1.39-5.82,2.32-5.82,2.32V18.82l-7.07-6.93V6.45h141.74V11.89z"/>
	<path class="st1" d="M69.12,146.09c-7.73-8.51-20.57-5.37-20.57-5.37l1.42,6.37c1.33,6,5.89,10.75,11.82,12.35
		c9.09,2.44,21.35,5.72,21.59,5.74C83.11,164.94,70.58,147.4,69.12,146.09z"/>
	<path class="st1" d="M96.17,161.82c-9.81,0-18.7-5.01-23.77-13.41l-0.02-0.03c-5.08-7.92-15.17-8.84-19.41-8.85l13.46-6.69
		l0.14-0.23c1.75-3,4.37-7.09,5.77-9.26c0.5-0.77,0.49-1.78-0.02-2.55c-1.63-2.45-2.28-3.69-2.45-4.03l1.89-14.88l-0.5-0.3
		c-3.16-1.9-4.55-5.18-4.91-6.17c4.54-2.82,4.1-7.44,3.1-9.77l-0.03-0.06l-0.04-0.06c-2.21-3.52-4.84-4.51-7.88-5.64
		c-2.05-0.77-4.37-1.63-6.88-3.47c-6.57-5.31-9.18-16.1-10.2-24.22c-0.82-6.46-0.55-13.16-0.38-15.97
		c7.3,4.17,38.54,26.21,44.95,30.74l0.33,0.23l0.4-0.09c1.93-0.46,3.93-0.7,5.93-0.7h1.02c2.01,0,4,0.23,5.93,0.7l0.4,0.09
		l0.33-0.23c6.42-4.54,37.66-26.58,44.95-30.74c0.17,2.8,0.44,9.51-0.38,15.96c-1.03,8.12-3.63,18.92-10.2,24.22
		c-2.52,1.84-4.83,2.71-6.88,3.47c-3.04,1.14-5.66,2.12-7.88,5.64l-0.04,0.06l-0.03,0.06c-1,2.33-1.44,6.95,3.1,9.77
		c-0.36,0.99-1.75,4.27-4.91,6.17l-0.5,0.3l1.89,14.88c-0.17,0.34-0.82,1.56-2.43,3.99c-0.53,0.8-0.54,1.83-0.02,2.62
		c1.39,2.16,4,6.23,5.75,9.22l0.14,0.23l13.46,6.69c-4.23,0.02-14.32,0.94-19.41,8.85C114.87,156.8,105.98,161.82,96.17,161.82z"/>
	<g>
		<path class="st0" d="M112.98,99.46c-0.3,0-0.88-0.06-1.08-0.08c-1.17-0.19-2.7-0.85-4.51-1.96c4.24-3.6,10.76-5.1,14.95-5.72
			c-2.37,1.14-3.35,2.11-3.39,2.16l-0.09,0.09l-0.04,0.12c0,0.01-0.4,1.35-1.32,2.67c-1.21,1.75-2.71,2.66-4.47,2.71L112.98,99.46z"
			/>
		<path class="st2" d="M123.44,91.03c-0.28,0.03-0.55,0.07-0.87,0.1c-4.23,0.62-11.27,2.18-15.7,6.07l-0.24,0.35
			c1.8,1.18,3.57,2.05,5.1,2.32c0.07,0.03,0.1,0.03,0.14,0.03c0,0,0.73,0.07,1.11,0.07c0.03,0,0.07,0,0.07,0
			c0.59-0.03,1.14-0.14,1.63-0.31c0.03,0,0.07-0.03,0.1-0.03c1.42-0.52,2.43-1.53,3.15-2.57c0.97-1.42,1.39-2.84,1.39-2.84
			s1.01-1.04,3.57-2.22c0.24-0.1,0.52-0.24,0.8-0.35C123.57,91.44,123.51,91.23,123.44,91.03z M118.41,93.69l-0.1,0.24
			c0,0-0.35,1.25-1.25,2.53c-1.11,1.59-2.46,2.43-4.06,2.5h-0.03c-0.24,0-0.76-0.07-0.97-0.1c-1.01-0.14-2.25-0.66-3.71-1.49
			c3.22-2.5,7.63-3.88,11.27-4.64c-0.66,0.45-0.94,0.76-0.97,0.76L118.41,93.69z"/>
	</g>
	<path class="st3" d="M87.07,95.9c0,0,2.75,4.3-2.2,7.65c-0.1,0.07-3.63,3.24-6.95,10.68c0.26,2.2,1.4,4.81,2.64,7.12
		c1.6,2.97,3.57,5.73,5.79,8.27l3.36,3.84l-2.16,1.24l-6.52-7.46c-0.04-0.05-5.73-7.74-6.35-13.02c3.32-7.44,6.84-10.62,6.95-10.68
		c4.44-1.94,5.05-4.65,5.09-4.79l0.06-0.2c0.05-0.15,0.09-0.3,0.13-0.46l0.01-0.03c0.06-0.26,0.11-0.52,0.13-0.81
		C86.65,97.08,87.07,95.9,87.07,95.9z"/>
	<path class="st4" d="M87.07,95.9c0,0,2.75,4.3-2.2,7.65c-0.1,0.07-3.63,3.24-6.95,10.68c0.26,2.2,1.4,4.81,2.64,7.12
		c1.6,2.97,3.57,5.73,5.79,8.27l3.36,3.84l-2.16,1.24l-6.52-7.46c-0.04-0.05-5.73-7.74-6.35-13.02c3.32-7.44,6.84-10.62,6.95-10.68
		c4.44-1.94,5.05-4.65,5.09-4.79l0.06-0.2c0.05-0.15,0.09-0.3,0.13-0.46l0.01-0.03c0.06-0.26,0.11-0.52,0.13-0.81
		C86.65,97.08,87.07,95.9,87.07,95.9z"/>
	<path class="st4" d="M105.26,95.9c0,0-2.75,4.3,2.2,7.65c0.1,0.07,3.63,3.24,6.95,10.68c-0.26,2.2-1.4,4.81-2.64,7.12
		c-1.6,2.97-3.57,5.73-5.79,8.27l-3.36,3.84l2.16,1.24l6.52-7.46c0.04-0.05,5.73-7.74,6.35-13.02c-3.32-7.44-6.84-10.62-6.95-10.68
		c-4.44-1.94-5.05-4.65-5.09-4.79l-0.06-0.2c-0.05-0.15-0.09-0.3-0.13-0.46l-0.01-0.03c-0.06-0.26-0.11-0.52-0.13-0.81
		C105.69,97.08,105.26,95.9,105.26,95.9z"/>
	<path class="st4" d="M99.34,84.68l-0.68-0.39l0.02,0.78c0,0.39,0.05,0.76,0.13,1.09l0.01,0.03c0.03,0.11,0.05,0.21,0.09,0.31
		l0.07,0.24c0.04,0.11,0.56,2.44,4.36,4.1c0.03,0.01,0.84,0.41,2.03,1.15c-0.01,0.02-0.03,0.04-0.04,0.05
		c-2.19,2.45-5.83,0.38-5.98,0.29l-0.66,0.39c0,0.2-1.31,1.16-2.58,1.16c-1.26,0-2.48-0.97-2.47-1.16l-0.66-0.39
		c-0.15,0.09-3.8,2.16-5.99-0.29c-0.01-0.01-0.03-0.03-0.04-0.05c1.19-0.73,2-1.13,2.03-1.15c3.8-1.66,4.33-3.98,4.36-4.1l0.05-0.17
		c0.04-0.13,0.08-0.26,0.11-0.39l0-0.02c0.08-0.33,0.13-0.7,0.14-1.09l0.01-0.78l-0.67,0.39c-0.15,0.09-3.8,2.16-5.99-0.29
		c-0.75-0.84-1.38-2.06-2.04-3.35c-0.67-1.3-1.38-2.68-2.28-3.71c5.79-5.22,12.96-5.22,13.05-5.23l0.44,0l0.44,0
		c0.08,0.01,7.25,0.01,13.05,5.23c-0.91,1.03-1.62,2.41-2.29,3.71c-0.66,1.29-1.29,2.51-2.04,3.35
		C103.14,86.84,99.5,84.77,99.34,84.68z"/>
	<path class="st5" d="M118.96,138.86c-2.46,3.95-12.63,21.3-22.8,21.3c-10.17,0-20.33-17.35-22.8-21.3
		c-1.22-1.96-1.88-3.87-2.19-5.63c-0.46,2.66-0.46,6.7,2.19,10.93c1.63,2.61,4.63,7.55,7.92,13.08c6.72,11.26,23.04,11.26,29.76,0
		c3.29-5.53,6.29-10.47,7.92-13.08c2.64-4.24,2.65-8.28,2.19-10.93C120.84,134.99,120.18,136.9,118.96,138.86z"/>
	<path class="st4" d="M82.67,68.91c-6.04,3.32-10.11,8.29-12.15,11.21c-6.2-16.85-17.12-25.71-19.84-27.71
		c-0.22-0.15-0.43-0.31-0.63-0.45c-0.07-0.29-0.14-0.57-0.21-0.85c-0.05-0.22-0.1-0.44-0.15-0.65c-0.26-1.14-0.48-2.18-0.65-3.09
		c-0.04-0.22-0.08-0.44-0.12-0.64c-0.15-0.85-0.26-1.56-0.34-2.1c2.65,1.9,10.52,7.5,20.6,14.13
		C75.97,63.23,80.38,66.88,82.67,68.91z"/>
	<path class="st4" d="M109.65,68.91c6.04,3.32,10.11,8.29,12.15,11.21c6.2-16.85,17.12-25.71,19.84-27.71
		c0.22-0.15,0.43-0.31,0.63-0.45c0.07-0.29,0.14-0.57,0.21-0.85c0.05-0.22,0.1-0.44,0.15-0.65c0.26-1.14,0.48-2.18,0.65-3.09
		c0.04-0.22,0.08-0.44,0.12-0.64c0.15-0.85,0.26-1.56,0.34-2.1c-2.65,1.9-10.52,7.5-20.6,14.13
		C116.35,63.23,111.94,66.88,109.65,68.91z"/>
	<path class="st4" d="M100.02,115.47c0,0,1.54-5.99,6.6-6.31c5.06-0.32,2.19,5.84,2.19,5.84s-0.46-3.45-2.19-2.69
		C104.89,113.07,100.02,115.47,100.02,115.47z"/>
	<path class="st4" d="M92.44,115.47c0,0-1.54-5.99-6.6-6.31c-5.06-0.32-2.19,5.84-2.19,5.84s0.46-3.45,2.19-2.69
		C87.57,113.07,92.44,115.47,92.44,115.47z"/>
	<path class="st4" d="M96.16,102.4c0,2.21-3.73,2.58-3.73,2.58s3.34,3.07,3.73,7.26c0.39-4.19,3.73-7.26,3.73-7.26
		S96.16,104.61,96.16,102.4z"/>
	<path class="st1" d="M123.19,146.09c7.73-8.51,20.57-5.37,20.57-5.37l-1.42,6.37c-1.33,6-5.89,10.75-11.82,12.35
		c-9.09,2.44-21.35,5.72-21.59,5.74C109.2,164.94,121.73,147.4,123.19,146.09z"/>
	<path class="st4" d="M125.29,147.86c5.87-5.13,13.46-4.67,17.74-3.84l0.73-3.3c0,0-12.84-3.14-20.57,5.37
		c-1.46,1.31-13.99,18.85-14.25,19.08C109.23,164.97,123.69,148.99,125.29,147.86z"/>
	<path class="st5" d="M125.29,147.86c5.87-5.13,13.46-4.67,17.74-3.84l0.73-3.3c0,0-12.84-3.14-20.57,5.37
		c-1.46,1.31-13.99,18.85-14.25,19.08C109.23,164.97,123.69,148.99,125.29,147.86z"/>
	<path class="st5" d="M67.02,147.86c-5.87-5.13-13.46-4.67-17.74-3.84l-0.73-3.3c0,0,12.84-3.14,20.57,5.37
		c1.46,1.31,13.99,18.85,14.25,19.08C83.08,164.97,68.62,148.99,67.02,147.86z"/>
	<path d="M149.09,34.8l-0.42,0.21c-0.38,0.21-0.94,0.52-1.59,0.9c-0.17,0.1-0.38,0.24-0.59,0.38c-0.17,0.1-0.35,0.21-0.55,0.35
		c-0.17,0.1-0.35,0.21-0.55,0.35c-0.21,0.1-0.42,0.24-0.62,0.38c-0.17,0.14-0.38,0.24-0.59,0.38c-1.21,0.8-2.63,1.7-4.16,2.74
		c-0.35,0.24-0.73,0.49-1.11,0.73c-0.17,0.14-0.35,0.24-0.55,0.42c-0.21,0.1-0.42,0.24-0.66,0.42c-0.17,0.14-0.38,0.24-0.59,0.42
		c-1.59,1.07-3.29,2.22-5.06,3.43H132c-4.3,2.95-8.91,6.14-13.17,9.12c-6.59,4.61-12.44,8.74-15.36,10.78
		c-0.42,0.28-0.94,0.38-1.46,0.28c-1.66-0.35-3.47-0.55-5.34-0.55h-1.04c-1.87,0-3.64,0.21-5.34,0.55c-0.52,0.1-1.04,0-1.46-0.28
		c-2.91-2.05-8.74-6.17-15.32-10.75c-4.33-3.05-8.98-6.27-13.31-9.22c-1.63-1.11-3.22-2.22-4.75-3.22c-0.07-0.03-0.1-0.07-0.17-0.1
		c-3.57-2.43-6.69-4.51-8.91-5.86c-0.17-0.14-0.38-0.24-0.55-0.35c-0.21-0.14-0.42-0.28-0.59-0.38c-0.66-0.38-1.21-0.69-1.59-0.9
		l-0.42-0.21c0,0-0.42,4.64-0.21,10.47c0,0.45,0,0.87,0.03,1.32c0,0.24,0.03,0.49,0.03,0.69c0,0.21,0.03,0.35,0.07,0.55v0.03
		c-0.03,0.17,0,0.35,0.03,0.55c0.07,1.28,0.17,2.57,0.35,3.88c1.04,8.28,3.71,19.34,10.54,24.82c2.63,1.91,4.99,2.81,7.11,3.61
		c2.95,1.11,5.3,1.98,7.35,5.13c0.07,0.1,0.1,0.24,0.17,0.35c0.24,0.69,0.87,2.7,0.17,4.82c-0.07,0.21-0.14,0.42-0.24,0.62
		c-0.52,1.11-1.42,2.25-3.02,3.15l-0.35,0.21l0.1,0.38c0.07,0.17,1.25,3.92,4.54,6.38c0.52,0.38,0.8,1.04,0.73,1.7l-1.7,13.45
		l0.07,0.14c0.03,0.07,0.42,0.9,1.63,2.77c0.21,0.38,0.49,0.8,0.8,1.25c0.38,0.62,0.38,1.39,0,2.01c-1.39,2.15-3.71,5.75-5.37,8.6
		c-0.17,0.31-0.45,0.55-0.76,0.69l-16.53,8.28l-0.03,0.03l2.53-0.24c0.14,0,12.89-1.18,19.03,8.39l11.44,14.56l1.35,1.7v0.03
		l13.1,16.67l13.07-16.71l1.49-1.87l0.14-0.14l11.13-14.25c6.14-9.57,18.89-8.39,19.03-8.39l2.7,0.28l-0.1-0.03l-3.12-1.59
		c-0.42-0.21-0.83-0.38-1.25-0.59l-1.28-0.66c-0.07-0.03-0.1-0.07-0.17-0.1l-1.84-0.9l-6.14-3.05l-2.32-1.18
		c-0.03,0.03-0.03,0-0.07-0.03l-0.45-0.21c-0.24-0.1-0.45-0.28-0.62-0.52c0,0-0.03,0-0.03-0.03c-0.03-0.03-0.07-0.07-0.1-0.14
		c-0.1-0.21-0.24-0.38-0.35-0.59c-0.1-0.17-0.21-0.35-0.31-0.52c-0.69-1.21-1.49-2.46-2.29-3.67c-0.42-0.66-0.8-1.32-1.21-1.98
		c-0.45-0.66-0.87-1.28-1.21-1.84c-0.38-0.62-0.38-1.39,0.03-2.01c0.31-0.45,0.55-0.87,0.8-1.25c1.18-1.87,1.59-2.7,1.63-2.77
		l0.07-0.14l-1.73-13.45c-0.07-0.66,0.21-1.32,0.76-1.7c3.26-2.46,4.47-6.2,4.51-6.38l0.14-0.38l-0.38-0.21
		c-1.56-0.9-2.5-2.01-3.02-3.15c-0.1-0.21-0.17-0.42-0.24-0.62c-0.69-2.11-0.07-4.12,0.21-4.82c0.03-0.14,0.1-0.24,0.17-0.38
		c2.05-3.12,4.37-3.99,7.31-5.1c2.11-0.8,4.51-1.7,7.11-3.61c6.83-5.48,9.53-16.53,10.57-24.82c0.14-1.28,0.28-2.57,0.35-3.85
		c0.03-0.21,0.03-0.42,0.03-0.62c0.03-0.17,0.03-0.38,0.03-0.55c0.03-0.17,0.03-0.38,0-0.55c0.07-0.49,0.07-0.94,0.07-1.39
		C149.5,39.48,149.09,34.8,149.09,34.8z M128.88,74.94c-1.11,0.9-2.29,1.7-3.4,2.46c-0.76,0.52-1.53,1.04-2.25,1.59
		c-0.35,0.24-0.73,0.35-1.11,0.35c-0.52,0-1.04-0.24-1.42-0.73c-0.59-0.76-1.25-1.59-2.05-2.46c-0.45-0.49-0.9-0.97-1.42-1.49
		c-0.52-0.52-1.04-1.01-1.63-1.53c-0.49-0.45-1.01-0.87-1.56-1.32c-0.07-0.07-0.17-0.1-0.24-0.17c-0.59-0.45-1.25-0.94-1.91-1.39
		c-0.07-0.03-0.1-0.07-0.17-0.1c-1.01-0.66-1.07-2.11-0.14-2.91c2.53-2.11,6.34-5.06,11.54-8.49c4.4-2.91,8.39-5.58,11.72-7.87
		c0.76-0.52,1.46-1.01,2.15-1.49c0.38-0.24,0.73-0.52,1.07-0.73c0.62-0.45,1.21-0.87,1.77-1.25c0.07-0.07,0.1-0.07,0.14-0.1
		c0.66-0.49,1.25-0.9,1.77-1.25c0.1-0.07,0.21-0.14,0.28-0.21c0.1-0.07,0.21-0.14,0.28-0.21c0.03-0.03,0.1-0.07,0.14-0.07
		c0.03-0.03,0.03-0.03,0.07-0.03c0.49-0.14,0.97,0.21,0.97,0.69v0.14c-0.03,0.1-0.03,0.21-0.07,0.35c-0.07,0.38-0.14,0.76-0.24,1.21
		c0,0.1,0,0.21-0.03,0.31c-0.14,0.69-0.28,1.42-0.49,2.22c-0.1,0.49-0.24,1.01-0.38,1.49c-1.87,7.45-5.75,17.82-13.28,22.91
		C128.95,74.91,128.91,74.91,128.88,74.94z M63.43,74.94c-0.03-0.03-0.07-0.03-0.07-0.07c-7.56-5.1-11.44-15.53-13.31-22.91
		c-0.1-0.42-0.17-0.76-0.28-1.11c-0.1-0.49-0.21-0.9-0.31-1.35c-0.1-0.62-0.24-1.25-0.35-1.8c-0.03-0.1-0.03-0.21-0.07-0.31
		c-0.07-0.35-0.1-0.69-0.17-1.01c-0.14-0.66,0.55-1.07,1.11-0.73h0.03c1.32,0.94,3.09,2.22,5.3,3.74c0.69,0.49,1.39,0.97,2.15,1.49
		c3.33,2.29,7.31,4.96,11.72,7.87c3.92,2.57,7.04,4.89,9.39,6.76c0.42,0.31,0.8,0.62,1.14,0.9c0.35,0.28,0.69,0.55,1.01,0.83
		c0.94,0.8,0.87,2.25-0.14,2.91c-0.8,0.52-1.59,1.11-2.29,1.66c-0.55,0.45-1.07,0.87-1.59,1.32c-0.55,0.52-1.11,1.01-1.59,1.53
		c-0.14,0.14-0.28,0.24-0.38,0.38c-0.52,0.52-0.97,1.01-1.42,1.49c0,0.03,0,0.03-0.03,0.07c-0.31,0.38-0.59,0.73-0.87,1.04
		c-0.28,0.35-0.55,0.66-0.8,0.97c-0.35,0.45-0.87,0.69-1.39,0.73c-0.42,0-0.8-0.1-1.14-0.35c-0.73-0.55-1.46-1.07-2.25-1.59
		C65.72,76.64,64.54,75.84,63.43,74.94z M82.5,158.27c-0.1,0-0.03-0.03-0.03-0.03c-0.35-0.38-0.62-0.76-0.87-1.14
		c-2.98-4.64-5.68-8.91-7.31-11.44c-0.24-0.38-0.49-0.76-0.66-1.07c-0.1-0.14-0.21-0.28-0.28-0.42c-0.45-0.76-0.87-1.49-1.18-2.22
		c-0.31-0.73-0.55-1.46-0.73-2.15c-0.69-2.57-0.55-4.85-0.28-6.55c0.31-1.94,0.9-3.12,0.94-3.15l1.04-1.98
		c0.62-1.21,2.29-1.35,3.09-0.24c0.55,0.73,1.14,1.53,1.8,2.36l9.08,12.48l0.45-0.55c0.03-0.07,4.12-5.37,7.87-5.37h1.49
		c3.74,0,7.83,5.3,7.87,5.37l0.42,0.55l9.12-12.48c0.62-0.83,1.21-1.63,1.77-2.36c0.83-1.11,2.5-0.97,3.12,0.24l1.01,1.98
		c0.03,0.03,0.59,1.21,0.94,3.12c0.28,1.73,0.42,4.02-0.28,6.59c-0.17,0.69-0.42,1.42-0.73,2.15c-0.31,0.73-0.73,1.46-1.18,2.22
		c-0.21,0.31-0.42,0.69-0.66,1.07c-0.03,0-0.03,0.03-0.03,0.03c-0.24,0.38-0.52,0.8-0.76,1.25c-1.77,2.77-4.19,6.55-6.79,10.57
		c-0.24,0.38-0.52,0.76-0.83,1.11l-0.03,0.03C103.05,167.32,89.29,167.32,82.5,158.27z M115.36,120.66
		c-0.35,0.69-0.73,1.39-1.11,2.05c-0.59,1.04-1.18,1.94-1.66,2.7c-0.28,0.42-0.52,0.8-0.73,1.07c-0.35,0.49-0.55,0.76-0.55,0.76
		l-5.55,6.34c-0.52,0.62-1.35,0.76-2.08,0.45h-0.03c-0.07,0-0.1-0.03-0.17-0.07l-2.5-1.46c-0.45-0.28-0.8-0.69-0.9-1.21
		c-0.66-3.19-1.39-9.32,0.49-11.47c0.03-0.07,0.07-0.1,0.1-0.14c0.66-0.62,1.53-0.8,2.74-0.52l0.17,0.03l0.17-0.07
		c3.4-1.84,4.61-3.36,5.06-4.16c0.21-0.38,0.28-0.62,0.28-0.69v-0.03c0.03-0.07,0.07-1.56-0.97-2.46c-0.66-0.59-1.59-0.76-2.77-0.52
		c-1.91,0.24-3.78,2.05-5.27,4.12c-0.03,0.03-0.03,0.07-0.03,0.07c-1.07,1.49-1.98,3.09-2.67,4.37c-0.69,1.39-1.14,2.39-1.18,2.53
		l-0.03,0.1l-0.03-0.1c-0.03-0.14-0.49-1.14-1.18-2.53c-0.69-1.32-1.63-2.95-2.7-4.47H92.2v-0.03c-1.53-2.08-3.33-3.81-5.23-4.06
		c-1.14-0.24-2.11-0.07-2.77,0.52c-0.76,0.69-0.94,1.66-0.97,2.15v0.03c0,0.14,0,0.28,0,0.28v0.03c0.03,0.24,0.49,2.22,5.34,4.85
		l0.17,0.07l0.21-0.03c1.18-0.28,2.05-0.1,2.7,0.52c0.03,0.03,0.07,0.07,0.1,0.14c1.91,2.15,1.14,8.28,0.49,11.47
		c-0.1,0.52-0.42,0.94-0.87,1.21l-1.66,0.94l-0.87,0.52c-0.03,0-0.03,0.03-0.07,0.03s-0.03,0.03-0.07,0.03h-0.03
		c-0.66,0.31-1.42,0.21-1.94-0.31c-0.03,0-0.03-0.03-0.07-0.03c-0.03-0.03-0.07-0.07-0.1-0.1l-5.48-6.27
		c-0.03-0.03-0.07-0.1-0.1-0.14c-0.17-0.24-0.73-1.04-1.49-2.18c-0.28-0.42-0.55-0.87-0.87-1.35c-0.52-0.9-1.11-1.91-1.66-2.98
		c-0.14-0.28-0.28-0.55-0.38-0.83h-0.03c-0.17-0.38-0.35-0.73-0.49-1.07c-0.07-0.14-0.1-0.24-0.17-0.38
		c-0.14-0.35-0.28-0.66-0.38-1.01c-0.21-0.55-0.38-1.07-0.52-1.63c-0.1-0.31-0.14-0.62-0.21-0.94c-0.07-0.38-0.03-0.76,0.14-1.11
		c2.22-4.47,6.66-7.9,9.67-9.88c1.84-1.18,3.15-1.8,3.19-1.84c4.47-1.94,5.06-4.64,5.1-4.78l0.07-0.21c0.03-0.14,0.07-0.31,0.1-0.45
		l0.03-0.03c0.07-0.38,0.14-0.8,0.14-1.28l0.03-0.9l-0.8,0.45c-0.17,0.1-4.44,2.53-7-0.35c-0.87-0.97-1.59-2.39-2.36-3.88
		c-1.66-3.22-3.54-6.86-7.31-6.14c-0.03,0-0.35,0.03-0.76,0.17c6.24-13.14,19.9-13.41,20.59-13.41h1.04c0,0,0.03,0,0.07,0
		c0.69,0,14.35,0.28,20.62,13.41c-0.45-0.14-0.76-0.17-0.8-0.17c-3.78-0.73-5.65,2.91-7.28,6.14c-0.8,1.49-1.53,2.91-2.39,3.88
		c-2.57,2.88-6.79,0.45-7,0.35l-0.76-0.45v0.9c0,0.49,0.07,0.9,0.17,1.28v0.03c0.03,0.14,0.07,0.24,0.1,0.38l0.07,0.28
		c0.03,0.14,0.66,2.84,5.1,4.78c0.03,0.03,1.35,0.66,3.19,1.84c3.02,1.98,7.45,5.41,9.67,9.88c0.07,0.1,0.14,0.24,0.14,0.35
		c0.07,0.1,0.07,0.24,0.07,0.38v0.07c0,0.1,0,0.21-0.03,0.31c-0.03,0.14-0.03,0.28-0.1,0.42c-0.17,0.83-0.45,1.77-0.83,2.67
		c-0.07,0.21-0.14,0.42-0.24,0.59c-0.1,0.28-0.24,0.55-0.35,0.83c-0.1,0.17-0.17,0.35-0.28,0.52
		C115.67,120.11,115.53,120.39,115.36,120.66z"/>
	<path class="st0" d="M112.98,99.46c-0.3,0-0.88-0.06-1.08-0.08c-1.17-0.19-2.7-0.85-4.51-1.96c4.24-3.6,10.76-5.1,14.95-5.72
		c-2.37,1.14-3.35,2.11-3.39,2.16l-0.09,0.09l-0.04,0.12c0,0.01-0.4,1.35-1.32,2.67c-1.21,1.75-2.71,2.66-4.47,2.71L112.98,99.46z"
		/>
	<path d="M123.44,91.03c-0.28,0.03-0.55,0.07-0.87,0.1c-4.23,0.62-11.27,2.18-15.7,6.07l-0.24,0.35c1.8,1.18,3.57,2.05,5.1,2.32
		c0.07,0.03,0.1,0.03,0.14,0.03c0,0,0.73,0.07,1.11,0.07c0.03,0,0.07,0,0.07,0c0.59-0.03,1.14-0.14,1.63-0.31
		c0.03,0,0.07-0.03,0.1-0.03c1.42-0.52,2.43-1.53,3.15-2.57c0.97-1.42,1.39-2.84,1.39-2.84s1.01-1.04,3.57-2.22
		c0.24-0.1,0.52-0.24,0.8-0.35C123.57,91.44,123.51,91.23,123.44,91.03z M118.41,93.69l-0.1,0.24c0,0-0.35,1.25-1.25,2.53
		c-1.11,1.59-2.46,2.43-4.06,2.5h-0.03c-0.24,0-0.76-0.07-0.97-0.1c-1.01-0.14-2.25-0.66-3.71-1.49c3.22-2.5,7.63-3.88,11.27-4.64
		c-0.66,0.45-0.94,0.76-0.97,0.76L118.41,93.69z"/>
	<path class="st0" d="M79.3,99.46c-1.76-0.05-3.26-0.97-4.47-2.71c-0.93-1.34-1.32-2.66-1.32-2.67l-0.04-0.12l-0.09-0.09
		c-0.05-0.05-1.02-1.02-3.39-2.16c4.19,0.62,10.71,2.13,14.95,5.72c-1.82,1.11-3.34,1.77-4.54,1.96l0,0c-0.01,0-0.69,0.08-1.05,0.08
		L79.3,99.46z"/>
	<path d="M85.48,97.2c-4.44-3.88-11.47-5.44-15.7-6.07c-0.31-0.03-0.62-0.07-0.9-0.1c-0.07,0.21-0.14,0.42-0.24,0.62
		c0.28,0.1,0.55,0.24,0.8,0.35c2.57,1.18,3.61,2.22,3.61,2.22s0.38,1.42,1.39,2.84c0.69,1.01,1.66,2.01,3.05,2.53
		c0.07,0.03,0.14,0.03,0.21,0.07c0.49,0.21,1.01,0.28,1.59,0.31c0.03,0,0.07,0,0.07,0c0.42,0,1.14-0.07,1.14-0.07
		c0.03,0,0.07,0,0.14-0.03c1.49-0.28,3.26-1.18,5.1-2.32L85.48,97.2z M80.35,98.86c-0.21,0.03-0.73,0.1-1.01,0.1h-0.03
		c-1.59-0.07-2.95-0.9-4.06-2.5c-0.87-1.25-1.25-2.53-1.25-2.53l-0.07-0.24l-0.17-0.21c-0.03,0-0.35-0.31-0.97-0.76
		c3.64,0.76,8.01,2.15,11.27,4.64C82.57,98.2,81.32,98.72,80.35,98.86z"/>
	<path class="st1" d="M73.84,97.19c0,0,1.44,3.06,7.23,2.68c0,0-5.61,2.62-6.83,5.96C74.24,105.83,72.37,101.89,73.84,97.19z"/>
	<path class="st1" d="M118.48,97.19c0,0-1.44,3.06-7.23,2.68c0,0,5.61,2.62,6.83,5.96C118.08,105.83,119.96,101.89,118.48,97.19z"/>
	<path class="st6" d="M45.47,90.26v13.08c0,0,11.39,6.27,11.82,16.56c0,0,9.72-2.38,8.54-13.41c0,0-11.33-4.48-17.42-16.91
		C47.68,88.1,45.47,88.61,45.47,90.26z"/>
	<path class="st6" d="M145.52,90.26v13.08c0,0-11.39,6.27-11.82,16.56c0,0-9.72-2.38-8.54-13.41c0,0,11.33-4.48,17.42-16.91
		C143.31,88.1,145.52,88.61,145.52,90.26z"/>
	<path class="st7" d="M58.38,46.4l12.03,9.31c16.78-3.9,34.13-3.67,51.95,0l11.35-9.31c0,0-17-5.61-38.49-5.61
		C74.06,40.79,58.38,46.4,58.38,46.4z"/>
	<g>
		<g>
			<path d="M79.07,49.98c-0.38,0.03-0.55,0.07-0.94,0.1c0.03,0.17,0.07,0.24,0.1,0.42c0,0.1,0,0.17-0.03,0.24
				c0,0.03-0.07,0.07-0.17,0.1c-0.59,0.07-0.87,0.14-1.42,0.24c-0.14-0.66-0.21-0.97-0.31-1.63c0.83-0.14,1.25-0.21,2.08-0.35
				c-0.07-0.38-0.1-0.55-0.17-0.9c-0.83,0.14-1.25,0.21-2.08,0.38c-0.1-0.59-0.17-0.9-0.28-1.49c0.52-0.1,0.8-0.14,1.35-0.24
				c0.1-0.03,0.21-0.03,0.24,0c0.03,0.03,0.07,0.1,0.07,0.21c0.03,0.14,0.03,0.21,0.07,0.35c0.35-0.07,0.55-0.14,0.9-0.21
				c-0.07-0.59-0.14-0.87-0.21-1.46c-1.42,0.24-2.84,0.52-4.26,0.8c0.07,0.28,0.1,0.45,0.14,0.73c0.24-0.03,0.35-0.03,0.55-0.07
				c0.28,1.35,0.52,2.67,0.8,4.02c0.03,0.14-0.03,0.24-0.21,0.28c-0.1,0.03-0.17,0.07-0.28,0.1c0.07,0.28,0.07,0.42,0.14,0.69
				c1.39-0.28,2.77-0.52,4.16-0.76C79.21,50.92,79.17,50.61,79.07,49.98z"/>
			<path d="M82.36,48.11c-0.8,0.1-1.59,0.21-2.39,0.35c0.03,0.31,0.07,0.49,0.14,0.8c0.76-0.14,1.56-0.24,2.36-0.35
				C82.39,48.6,82.39,48.42,82.36,48.11z"/>
			<path d="M87.21,47.63c-0.21-0.1-0.38-0.21-0.55-0.24c-0.17-0.07-0.38-0.14-0.59-0.17c-0.24-0.03-0.45-0.1-0.62-0.14
				c-0.21-0.03-0.38-0.1-0.49-0.17c-0.14-0.14-0.24-0.28-0.28-0.49c0-0.24,0.07-0.45,0.21-0.59c0.17-0.14,0.45-0.24,0.8-0.28
				c0.38-0.03,0.59,0,0.69,0.1c0,0.07,0.03,0.1,0.03,0.21c0.03,0.21,0.03,0.31,0.07,0.52c0.35-0.07,0.55-0.1,0.9-0.14
				c-0.03-0.55-0.03-0.8-0.1-1.35c-0.55-0.17-1.14-0.24-1.8-0.17c-0.62,0.03-1.14,0.28-1.49,0.62c-0.38,0.35-0.52,0.8-0.45,1.32
				s0.28,0.9,0.69,1.14c0.17,0.1,0.38,0.17,0.55,0.24c0.17,0.03,0.42,0.07,0.69,0.14c0.28,0.03,0.52,0.1,0.69,0.14
				c0.31,0.14,0.49,0.31,0.52,0.62c0.07,0.55-0.28,0.87-0.97,0.94c-0.28,0.03-0.49,0.03-0.59,0c-0.14,0-0.21-0.03-0.24-0.07
				c-0.03-0.07-0.03-0.1-0.07-0.21c0-0.21-0.03-0.31-0.03-0.52c-0.38,0.07-0.55,0.07-0.9,0.14c0.03,0.55,0.07,0.83,0.14,1.39
				c0.55,0.21,1.14,0.24,1.8,0.17c0.66-0.07,1.18-0.28,1.53-0.62c0.38-0.35,0.55-0.8,0.52-1.35C87.8,48.25,87.59,47.87,87.21,47.63z
				"/>
			<path d="M93.21,47.63c0.42-0.35,0.62-0.83,0.62-1.46c-0.03-0.62-0.24-1.07-0.62-1.39c-0.42-0.28-0.94-0.42-1.66-0.42
				c-0.87,0.07-1.77,0.1-2.67,0.17c0.03,0.28,0.03,0.45,0.03,0.73h0.55c0.07,1.35,0.17,2.74,0.24,4.09c0,0.14-0.07,0.24-0.24,0.28
				c-0.1,0-0.17,0.03-0.28,0.03c0,0.28,0,0.42,0.03,0.73c0.83-0.07,1.66-0.1,2.5-0.14c-0.03-0.31-0.03-0.45-0.03-0.76
				c-0.35,0-0.52,0-0.87,0.03c-0.03-0.52-0.03-0.8-0.07-1.28c0.31-0.03,0.45-0.03,0.76-0.03C92.24,48.18,92.79,47.97,93.21,47.63z
				 M90.71,47.38c-0.03-0.83-0.07-1.25-0.1-2.11h0.55c0.52-0.03,0.87,0.03,1.11,0.14c0.24,0.14,0.38,0.42,0.38,0.83
				c0.03,0.69-0.42,1.07-1.28,1.11C91.1,47.35,90.96,47.38,90.71,47.38z"/>
			<path d="M99.87,44.99c-0.49-0.52-1.11-0.8-1.84-0.8c-0.76,0-1.42,0.21-1.98,0.66c-0.28,0.24-0.49,0.55-0.66,0.97
				c-0.14,0.38-0.24,0.9-0.21,1.42c0.03,0.76,0.14,1.63,0.69,2.25c0.45,0.52,1.07,0.76,1.87,0.8c0.83,0,1.46-0.24,1.94-0.76
				c0.62-0.59,0.8-1.53,0.8-2.25C100.52,46.55,100.45,45.62,99.87,44.99z M99.03,48.74c-0.24,0.45-0.62,0.66-1.18,0.66
				c-1.21-0.03-1.56-1.18-1.56-2.22c0.03-0.35,0.07-0.69,0.14-1.01c0.1-0.28,0.28-0.55,0.52-0.76c0.24-0.21,0.55-0.31,0.9-0.31
				c0.31,0,0.59,0.07,0.83,0.24c0.21,0.14,0.35,0.31,0.45,0.55c0.17,0.42,0.24,0.9,0.24,1.42C99.34,47.87,99.24,48.36,99.03,48.74z"
				/>
			<path d="M106.42,49.88c-0.17-0.55-0.28-0.87-0.49-1.42c-0.1-0.31-0.28-0.49-0.49-0.59c0.31-0.1,0.59-0.24,0.83-0.49
				s0.38-0.55,0.42-0.97c0.07-0.55-0.1-1.01-0.45-1.28c-0.38-0.28-0.9-0.45-1.63-0.52c-0.87-0.07-1.7-0.1-2.57-0.17
				c-0.03,0.31-0.03,0.45-0.03,0.76c0.21,0,0.31,0.03,0.52,0.03c-0.07,1.39-0.17,2.74-0.24,4.12c0,0.14-0.1,0.21-0.28,0.21
				c-0.1,0-0.17,0.03-0.28,0.03c-0.03,0.28-0.03,0.42-0.03,0.69c0.87,0.07,1.32,0.07,2.18,0.14c0.03-0.28,0.03-0.45,0.07-0.73
				c-0.24-0.03-0.35-0.03-0.59-0.07c0.03-0.62,0.07-0.94,0.1-1.53c0.35,0,0.52,0.03,0.83,0.03c0.14,0.03,0.28,0.07,0.35,0.14
				c0.07,0.07,0.14,0.17,0.21,0.31c0.14,0.38,0.21,0.55,0.35,0.94v0.1c0,0.1-0.07,0.14-0.21,0.14c-0.1,0-0.17,0-0.28,0.03
				c0,0.28-0.03,0.42-0.03,0.69c0.87,0.07,1.32,0.1,2.18,0.21c0.03-0.31,0.03-0.45,0.07-0.76
				C106.73,49.95,106.62,49.92,106.42,49.88z M104.34,47.32c-0.31-0.03-0.49-0.03-0.8-0.07c0.03-0.73,0.07-1.11,0.14-1.84
				c0.24,0,0.38,0.03,0.66,0.03c0.45,0.03,0.76,0.14,0.97,0.24c0.17,0.14,0.28,0.38,0.24,0.76
				C105.48,47.07,105.06,47.38,104.34,47.32z"/>
			<path d="M108.11,44.96c-0.07,0.59-0.1,0.87-0.17,1.49c0.38,0.03,0.59,0.07,0.94,0.14c0.03-0.14,0.03-0.24,0.07-0.38
				c0-0.21,0.1-0.28,0.24-0.28c0.28,0.03,0.42,0.07,0.73,0.1c-0.17,1.32-0.35,2.63-0.52,3.99c0,0.14-0.1,0.21-0.28,0.21
				c-0.21-0.03-0.28-0.03-0.49-0.03c-0.03,0.28-0.03,0.42-0.07,0.69c0.83,0.1,1.63,0.21,2.46,0.35c0.07-0.31,0.07-0.45,0.1-0.76
				c-0.28-0.03-0.42-0.07-0.69-0.1c0.21-1.39,0.38-2.81,0.59-4.19c0.24,0.03,0.38,0.07,0.62,0.1c0.1,0,0.21,0.03,0.21,0.1
				c0.03,0.03,0.03,0.1,0.03,0.21c-0.03,0.17-0.03,0.24-0.07,0.42c0.38,0.03,0.55,0.03,0.94,0.07c0.1-0.59,0.14-0.9,0.24-1.49
				C111.37,45.34,109.74,45.13,108.11,44.96z"/>
			<path d="M116.88,47.94c0.35,0.03,0.55,0.07,0.94,0.1c0.1-0.52,0.14-0.76,0.24-1.28c-0.49-0.35-1.04-0.59-1.66-0.69
				c-0.66-0.14-1.18-0.07-1.63,0.17c-0.45,0.24-0.73,0.62-0.8,1.14c-0.1,0.55,0.03,0.97,0.31,1.28c0.17,0.14,0.35,0.28,0.49,0.38
				c0.17,0.1,0.38,0.21,0.66,0.35c0.24,0.1,0.45,0.24,0.59,0.35c0.28,0.21,0.42,0.45,0.35,0.73c-0.1,0.55-0.52,0.76-1.21,0.62
				c-0.28-0.03-0.45-0.1-0.55-0.14c-0.14-0.07-0.17-0.14-0.21-0.17v-0.21c0.03-0.21,0.07-0.31,0.1-0.52
				c-0.38-0.03-0.55-0.07-0.94-0.1c-0.07,0.55-0.14,0.83-0.21,1.39c0.45,0.31,1.01,0.55,1.66,0.66c0.66,0.14,1.18,0.07,1.66-0.17
				c0.45-0.21,0.73-0.59,0.83-1.14c0.14-0.55,0.03-0.97-0.28-1.32c-0.17-0.17-0.31-0.31-0.45-0.42c-0.17-0.1-0.35-0.21-0.55-0.31
				c-0.17-0.1-0.38-0.21-0.55-0.31c-0.17-0.1-0.31-0.17-0.38-0.31c-0.14-0.14-0.17-0.31-0.14-0.52c0.03-0.24,0.17-0.42,0.35-0.52
				c0.21-0.07,0.49-0.1,0.87-0.03c0.35,0.07,0.55,0.17,0.59,0.31c0.03,0.03,0.03,0.1,0,0.17C116.92,47.63,116.92,47.73,116.88,47.94
				z"/>
		</g>
	</g>
	<g>
		<path class="st8" d="M117.45,10.56h-7.26v3.63h0v22.34c2.05,0.2,4.08,0.43,6.1,0.71V16.66c3.07,0,5.56,2.49,5.56,5.56v15.73
			c2.05,0.36,4.08,0.78,6.1,1.23l0-18.12C127.95,15.26,123.24,10.56,117.45,10.56z"/>
		<g>
			<path class="st8" d="M74.66,9.98c-6.03,0-10.95,4.92-10.95,10.95v18.93l0.69-0.14c5.62-1.25,11.33-2.18,17.05-2.74l0.52-0.07
				V9.98H74.66z M74.73,17.23v10.61c0,2.22-1.66,4.02-3.78,4.3V21.01C70.96,18.93,72.65,17.23,74.73,17.23z"/>
			<path class="st9" d="M74.73,16.67c-2.39,0-4.37,1.94-4.37,4.33v11.75c2.74,0,4.92-2.22,4.92-4.92V16.67H74.73z M74.18,27.83
				c0,1.7-1.14,3.12-2.67,3.6V21.01c0-1.56,1.14-2.91,2.67-3.15V27.83z M74.73,16.67c-2.39,0-4.37,1.94-4.37,4.33v11.75
				c2.74,0,4.92-2.22,4.92-4.92V16.67H74.73z M74.18,27.83c0,1.7-1.14,3.12-2.67,3.6V21.01c0-1.56,1.14-2.91,2.67-3.15V27.83z
				 M74.73,16.67c-2.39,0-4.37,1.94-4.37,4.33v11.75c2.74,0,4.92-2.22,4.92-4.92V16.67H74.73z M74.18,27.83
				c0,1.7-1.14,3.12-2.67,3.6V21.01c0-1.56,1.14-2.91,2.67-3.15V27.83z M74.73,16.67c-2.39,0-4.37,1.94-4.37,4.33v11.75
				c2.74,0,4.92-2.22,4.92-4.92V16.67H74.73z M74.18,27.83c0,1.7-1.14,3.12-2.67,3.6V21.01c0-1.56,1.14-2.91,2.67-3.15V27.83z
				 M74.73,16.67c-2.39,0-4.37,1.94-4.37,4.33v11.75c2.74,0,4.92-2.22,4.92-4.92V16.67H74.73z M74.18,27.83
				c0,1.7-1.14,3.12-2.67,3.6V21.01c0-1.56,1.14-2.91,2.67-3.15V27.83z M74.73,16.67c-2.39,0-4.37,1.94-4.37,4.33v11.75
				c2.74,0,4.92-2.22,4.92-4.92V16.67H74.73z M74.18,27.83c0,1.7-1.14,3.12-2.67,3.6V21.01c0-1.56,1.14-2.91,2.67-3.15V27.83z
				 M74.73,16.67c-2.39,0-4.37,1.94-4.37,4.33v11.75c2.74,0,4.92-2.22,4.92-4.92V16.67H74.73z M74.18,27.83
				c0,1.7-1.14,3.12-2.67,3.6V21.01c0-1.56,1.14-2.91,2.67-3.15V27.83z M74.73,16.67c-2.39,0-4.37,1.94-4.37,4.33v11.75
				c2.74,0,4.92-2.22,4.92-4.92V16.67H74.73z M74.18,27.83c0,1.7-1.14,3.12-2.67,3.6V21.01c0-1.56,1.14-2.91,2.67-3.15V27.83z
				 M74.73,16.67c-2.39,0-4.37,1.94-4.37,4.33v11.75c2.74,0,4.92-2.22,4.92-4.92V16.67H74.73z M74.18,27.83
				c0,1.7-1.14,3.12-2.67,3.6V21.01c0-1.56,1.14-2.91,2.67-3.15V27.83z M74.73,16.67c-2.39,0-4.37,1.94-4.37,4.33v11.75
				c2.74,0,4.92-2.22,4.92-4.92V16.67H74.73z M74.18,27.83c0,1.7-1.14,3.12-2.67,3.6V21.01c0-1.56,1.14-2.91,2.67-3.15V27.83z
				 M74.66,9.43c-3.09,0-5.96,1.21-8.15,3.36c-1.35,1.35-2.29,2.95-2.84,4.68c-0.35,1.11-0.52,2.29-0.52,3.47v19.65l0.52-0.1
				l0.83-0.21c5.62-1.25,11.33-2.18,17.02-2.74l0.59-0.07l0.42-0.03V9.43H74.66z M81.39,36.43c-5.79,0.55-11.51,1.49-17.12,2.74
				V20.94c0-5.72,4.64-10.36,10.4-10.36h6.72V36.43z M70.37,21.01v11.75c2.74,0,4.92-2.22,4.92-4.92V16.67h-0.55
				C72.34,16.67,70.37,18.61,70.37,21.01z M74.18,17.85v9.98c0,1.7-1.14,3.12-2.67,3.6V21.01C71.51,19.45,72.65,18.09,74.18,17.85z
				 M74.73,16.67c-2.39,0-4.37,1.94-4.37,4.33v11.75c2.74,0,4.92-2.22,4.92-4.92V16.67H74.73z M74.18,27.83
				c0,1.7-1.14,3.12-2.67,3.6V21.01c0-1.56,1.14-2.91,2.67-3.15V27.83z M74.73,16.67c-2.39,0-4.37,1.94-4.37,4.33v11.75
				c2.74,0,4.92-2.22,4.92-4.92V16.67H74.73z M74.18,27.83c0,1.7-1.14,3.12-2.67,3.6V21.01c0-1.56,1.14-2.91,2.67-3.15V27.83z
				 M74.73,16.67c-2.39,0-4.37,1.94-4.37,4.33v11.75c2.74,0,4.92-2.22,4.92-4.92V16.67H74.73z M74.18,27.83
				c0,1.7-1.14,3.12-2.67,3.6V21.01c0-1.56,1.14-2.91,2.67-3.15V27.83z M74.73,16.67c-2.39,0-4.37,1.94-4.37,4.33v11.75
				c2.74,0,4.92-2.22,4.92-4.92V16.67H74.73z M74.18,27.83c0,1.7-1.14,3.12-2.67,3.6V21.01c0-1.56,1.14-2.91,2.67-3.15V27.83z
				 M74.73,16.67c-2.39,0-4.37,1.94-4.37,4.33v11.75c2.74,0,4.92-2.22,4.92-4.92V16.67H74.73z M74.18,27.83
				c0,1.7-1.14,3.12-2.67,3.6V21.01c0-1.56,1.14-2.91,2.67-3.15V27.83z M74.73,16.67c-2.39,0-4.37,1.94-4.37,4.33v11.75
				c2.74,0,4.92-2.22,4.92-4.92V16.67H74.73z M74.18,27.83c0,1.7-1.14,3.12-2.67,3.6V21.01c0-1.56,1.14-2.91,2.67-3.15V27.83z"/>
		</g>
		<g>
			<path class="st8" d="M108.29,36.87c-1.98-0.21-4.02-0.38-6.07-0.49l-0.53-0.03V9.99h7.23v26.95L108.29,36.87z"/>
			<path class="st9" d="M101.11,9.43v27.45l1.07,0.07c2.05,0.1,4.09,0.28,6.03,0.49l0.83,0.1l0.42,0.03V9.43H101.11z M108.36,36.33
				c-2.05-0.24-4.06-0.38-6.1-0.52V10.57h6.1V36.33z"/>
		</g>
		<g>
			<path class="st8" d="M127.82,39.73c-2.16-0.48-4.15-0.88-6.08-1.22l-0.47-0.08V22.22c0-2.56-1.94-4.68-4.43-4.96v20.63
				l-0.64-0.09c-2.05-0.28-4.1-0.52-6.08-0.71l-0.51-0.05l0-27.05h7.83c2.96,0,5.73,1.15,7.82,3.24c2.09,2.09,3.24,4.87,3.24,7.82
				v18.82L127.82,39.73z"/>
			<path class="st9" d="M128.84,18.65c-0.45-2.18-1.56-4.19-3.19-5.82c-2.18-2.18-5.1-3.4-8.22-3.4h-8.39v28.11l0.42,0.03l0.62,0.07
				c1.98,0.21,3.99,0.42,6.03,0.73l1.28,0.17V17.92c1.91,0.52,3.29,2.25,3.29,4.3v16.67l0.94,0.17c1.94,0.35,3.92,0.73,6.07,1.21
				l0.94,0.21l0.45,0.1V21.04C129.09,20.24,129.02,19.45,128.84,18.65z M127.94,39.17c-2.01-0.45-4.06-0.87-6.1-1.21V22.22
				c0-3.09-2.5-5.55-5.55-5.55v20.56c-2.05-0.28-4.06-0.52-6.1-0.69V10.57h7.24c5.79,0,10.5,4.68,10.5,10.47V39.17z"/>
		</g>
		<g>
			<path class="st8" d="M82.67,10.05v26.83l0.62-0.07c2.11-0.17,4.12-0.31,6.07-0.42l0.52-0.03v-6.34h2.67
				c2.57,0,4.71-0.97,6.24-2.84c1.42-1.73,2.18-4.16,2.18-6.79V10.05H82.67z M93.76,20.73c-0.03,1.32-1.11,2.39-2.43,2.39h-1.59
				v-5.89h4.02V20.73z"/>
			<path class="st9" d="M89.19,16.67v7h2.15c1.63,0,2.95-1.32,2.98-2.95v-4.06H89.19z M93.18,20.73c0,1.01-0.83,1.8-1.84,1.8h-1.01
				v-4.75h2.84V20.73z M89.19,16.67v7h2.15c1.63,0,2.95-1.32,2.98-2.95v-4.06H89.19z M93.18,20.73c0,1.01-0.83,1.8-1.84,1.8h-1.01
				v-4.75h2.84V20.73z M89.19,16.67v7h2.15c1.63,0,2.95-1.32,2.98-2.95v-4.06H89.19z M93.18,20.73c0,1.01-0.83,1.8-1.84,1.8h-1.01
				v-4.75h2.84V20.73z M89.19,16.67v7h2.15c1.63,0,2.95-1.32,2.98-2.95v-4.06H89.19z M93.18,20.73c0,1.01-0.83,1.8-1.84,1.8h-1.01
				v-4.75h2.84V20.73z M89.19,16.67v7h2.15c1.63,0,2.95-1.32,2.98-2.95v-4.06H89.19z M93.18,20.73c0,1.01-0.83,1.8-1.84,1.8h-1.01
				v-4.75h2.84V20.73z M89.19,16.67v7h2.15c1.63,0,2.95-1.32,2.98-2.95v-4.06H89.19z M93.18,20.73c0,1.01-0.83,1.8-1.84,1.8h-1.01
				v-4.75h2.84V20.73z M89.19,16.67v7h2.15c1.63,0,2.95-1.32,2.98-2.95v-4.06H89.19z M93.18,20.73c0,1.01-0.83,1.8-1.84,1.8h-1.01
				v-4.75h2.84V20.73z M89.19,16.67v7h2.15c1.63,0,2.95-1.32,2.98-2.95v-4.06H89.19z M93.18,20.73c0,1.01-0.83,1.8-1.84,1.8h-1.01
				v-4.75h2.84V20.73z M89.19,16.67v7h2.15c1.63,0,2.95-1.32,2.98-2.95v-4.06H89.19z M93.18,20.73c0,1.01-0.83,1.8-1.84,1.8h-1.01
				v-4.75h2.84V20.73z M89.19,16.67v7h2.15c1.63,0,2.95-1.32,2.98-2.95v-4.06H89.19z M93.18,20.73c0,1.01-0.83,1.8-1.84,1.8h-1.01
				v-4.75h2.84V20.73z M82.12,9.46v28.04l1.21-0.1c2.15-0.21,4.12-0.35,6.07-0.45l1.07-0.03v-6.31h2.08c1.39,0,2.67-0.28,3.85-0.83
				c1.11-0.52,2.05-1.28,2.84-2.25c0.87-1.07,1.53-2.39,1.87-3.88c0.28-1.01,0.42-2.11,0.42-3.26V9.46H82.12z M100.42,20.38
				c0,5.03-2.84,9.08-7.87,9.08h-3.22v6.38c-2.05,0.1-4.06,0.24-6.1,0.42V10.61h17.19V20.38z M94.32,20.73v-4.06h-5.13v7h2.15
				C92.97,23.68,94.28,22.36,94.32,20.73z M90.33,17.78h2.84v2.95c0,1.01-0.83,1.8-1.84,1.8h-1.01V17.78z M89.19,16.67v7h2.15
				c1.63,0,2.95-1.32,2.98-2.95v-4.06H89.19z M93.18,20.73c0,1.01-0.83,1.8-1.84,1.8h-1.01v-4.75h2.84V20.73z M89.19,16.67v7h2.15
				c1.63,0,2.95-1.32,2.98-2.95v-4.06H89.19z M93.18,20.73c0,1.01-0.83,1.8-1.84,1.8h-1.01v-4.75h2.84V20.73z M89.19,16.67v7h2.15
				c1.63,0,2.95-1.32,2.98-2.95v-4.06H89.19z M93.18,20.73c0,1.01-0.83,1.8-1.84,1.8h-1.01v-4.75h2.84V20.73z M89.19,16.67v7h2.15
				c1.63,0,2.95-1.32,2.98-2.95v-4.06H89.19z M93.18,20.73c0,1.01-0.83,1.8-1.84,1.8h-1.01v-4.75h2.84V20.73z M89.19,16.67v7h2.15
				c1.63,0,2.95-1.32,2.98-2.95v-4.06H89.19z M93.18,20.73c0,1.01-0.83,1.8-1.84,1.8h-1.01v-4.75h2.84V20.73z M89.19,16.67v7h2.15
				c1.63,0,2.95-1.32,2.98-2.95v-4.06H89.19z M93.18,20.73c0,1.01-0.83,1.8-1.84,1.8h-1.01v-4.75h2.84V20.73z"/>
		</g>
		<g>
			<path class="st8" d="M152.94,49.37c-1.91-0.81-3.9-1.6-6.08-2.41l-0.37-0.14v-1.56c-3.32-1.49-6.94-2.76-10.76-3.79
				c-3.57-0.96-6.02-1.34-6.04-1.35l-0.48-0.07l0-19.16c0-6.01,4.89-10.9,10.9-10.9h20.53l-6.92,6.9v6.83h-7.22v-6.5h-5.03
				c-2.77,0-5.03,2.25-5.03,5.03v12.59c3.48,0.89,6.86,1.95,10.05,3.17v-3.86l-5.25-5.25h12.48v20.8L152.94,49.37z"/>
			<path class="st9" d="M140.11,9.43c-3.05,0-5.93,1.18-8.11,3.36c-1.63,1.59-2.7,3.64-3.15,5.86c-0.14,0.73-0.21,1.49-0.21,2.25
				v19.62l0.45,0.07l0.52,0.1c0.03,0,2.46,0.38,6,1.32c0.49,0.14,1.01,0.28,1.49,0.45c0.35,0.07,0.73,0.17,1.07,0.31
				c1.91,0.59,3.74,1.21,5.51,1.91c0.03,0.03,0.03,0.03,0.07,0.03c0.73,0.28,1.46,0.59,2.18,0.9v1.59l0.73,0.28
				c0.55,0.21,1.11,0.42,1.63,0.59c0.31,0.14,0.59,0.24,0.87,0.38c1.25,0.45,2.43,0.94,3.57,1.42l1.56,0.66V28.32H139.9l1.91,1.94
				l4.12,4.12v2.81c-0.17-0.07-0.35-0.14-0.55-0.21c-2.67-0.97-5.51-1.84-8.35-2.6V22.25c0-2.46,1.98-4.47,4.44-4.47h4.47v6.52h8.35
				v-7.18l5.79-5.75l1.94-1.94H140.11z M153.18,23.16h-6.1v-6.48h-5.62c-3.09,0-5.58,2.5-5.58,5.58v13.03
				c3.15,0.8,5.93,1.66,8.28,2.46c0.35,0.14,0.69,0.24,1.04,0.38c0.66,0.24,1.28,0.45,1.87,0.69V33.9l-4.47-4.44h10.57v19.38
				c-1.32-0.55-2.63-1.07-3.95-1.56c-0.28-0.14-0.55-0.24-0.87-0.35c-0.42-0.17-0.87-0.35-1.28-0.52v-1.53
				c-2.7-1.21-5.34-2.18-7.7-2.91c-0.38-0.14-0.69-0.24-1.04-0.35c-0.87-0.24-1.7-0.49-2.46-0.69c-3.64-1.01-6.1-1.35-6.1-1.35V20.9
				c0-5.72,4.64-10.33,10.33-10.33h19.17l-6.1,6.1V23.16z"/>
		</g>
		<g>
			<path class="st8" d="M38.58,16.89l-6.9-6.9h13.86l10.32,14.83v-9.92l-4.92-4.92H63.1v30.03l-0.44,0.1
				c-1.25,0.29-2.48,0.6-3.65,0.91c-0.8,0.21-1.61,0.43-2.43,0.66l-0.72,0.2v-0.74c0-2.53-0.78-4.96-2.26-7.02l-7.8-10.88v23.57
				l-0.37,0.14c-2.21,0.82-4.2,1.61-6.08,2.41l-0.79,0.33V16.89z"/>
			<path class="st9" d="M49.6,9.43l1.91,1.94l3.78,3.78v7.87l-9.12-13.1l-0.35-0.49H30.33l1.91,1.94l5.79,5.75v33.42l1.56-0.66
				c1.14-0.49,2.32-0.97,3.6-1.46c0.28-0.1,0.59-0.21,0.87-0.31c0.52-0.21,1.04-0.42,1.59-0.62l0.73-0.28V25.03l6.76,9.43
				c1.42,1.98,2.15,4.26,2.15,6.69v1.49l0.17-0.03l1.28-0.38c0.8-0.21,1.63-0.42,2.43-0.62c1.14-0.31,2.39-0.62,3.6-0.94l0.38-0.07
				l0.52-0.1V9.43H49.6z M62.53,39.59c-1.21,0.28-2.46,0.59-3.67,0.9c-0.8,0.21-1.63,0.45-2.43,0.66c0-2.63-0.83-5.2-2.36-7.35
				l-8.84-12.31v24.96c-0.42,0.17-0.83,0.31-1.25,0.49c-0.31,0.1-0.62,0.21-0.9,0.35c-1.32,0.49-2.63,1.01-3.95,1.56V16.67l-6.1-6.1
				h12.2l11.2,16.05V14.66l-4.12-4.09h10.23V39.59z"/>
		</g>
		<polygon class="st10" points="57.56,38.93 60.97,37.97 61.96,39.03 57.03,40.32 		"/>
		<polygon class="st10" points="40.24,46.33 43.43,45.09 44.67,45.92 39.65,47.96 		"/>
		<path class="st10" d="M64.85,38.38c0,0,8.7-2,15.98-2.4l-1.22-1.09c-4.99,0.43-9.2,1.06-14.15,2.12L64.85,38.38z"/>
		<path class="st10" d="M83.89,35.67c0,0,2.47-0.24,4.89-0.33l-0.52-1.12l-3.97,0.28L83.89,35.67z"/>
		<polygon class="st10" points="102.64,35.23 107.87,35.69 106.98,34.31 103.36,34.04 		"/>
		<polygon class="st10" points="110.63,36.05 115.86,36.61 114.98,35.14 111.35,34.87 		"/>
		<polygon class="st10" points="122.36,37.47 127.52,38.46 126.76,37.11 123.38,36.54 		"/>
		<polygon class="st10" points="147.69,46.18 152.53,47.93 152.31,46.36 147.69,44.79 		"/>
		<path class="st10" d="M130.11,39.18c0,0,8.72,1.21,16.86,5.2l-0.23-1.45c0,0-9.29-3.76-15.36-4.68L130.11,39.18z"/>
		<polygon class="st10" points="94.31,14.97 89.19,14.97 89.66,16.19 93.84,16.19 		"/>
		<path class="st10" d="M73.86,15.14c-0.81,0.04-1.6,0.33-2.23,0.85c-0.74,0.61-1.42,1.63-1.16,3.26c0.01-0.04,0.01-0.08,0.02-0.11
			c0.01-0.03,0.02-0.07,0.03-0.1c0.44-1.56,1.85-2.65,3.47-2.72l1.39-0.04l0.42-1.24L73.86,15.14z"/>
		<path class="st10" d="M117.74,15.2c4.17,0,4.83,4.48,4.58,6.11c-0.01-0.04-0.01-0.08-0.02-0.11c-0.01-0.03-0.02-0.07-0.03-0.1
			c-0.33-1.2-1.72-4.33-4.83-4.63l-0.69-0.02l-0.42-1.24H117.74z"/>
		<path class="st10" d="M140.2,15.06c-4.17,0-5.13,4.92-4.87,6.55c0.01-0.04,0.01-0.08,0.02-0.11c0.01-0.03,0.02-0.07,0.03-0.1
			c0.47-2.17,2.13-5.05,5.12-5.08l6.16-0.02l0.42-1.24H140.2z"/>
		<polygon class="st10" points="151.73,21.56 148.45,21.56 147.41,22.71 152.77,22.71 		"/>
		<polygon class="st10" points="56.55,14.22 53.29,10.95 55.24,10.98 56.49,12.27 		"/>
		<polygon class="st10" points="39.21,15.97 34.34,11 36.29,11.03 39.15,14.02 		"/>
		<polygon class="st10" points="153.13,15.97 158.01,11 156.05,11.03 153.2,14.02 		"/>
		<polygon class="st10" points="143.31,29.76 146.95,33.46 146.95,31.51 145.26,29.86 		"/>
	</g>
</g>
</svg>
