<?xml version="1.0" encoding="utf-8"?>
<!-- Generator: Adobe Illustrator 25.2.3, SVG Export Plug-In . SVG Version: 6.00 Build 0)  -->
<svg version="1.1" id="Layer_1" xmlns="http://www.w3.org/2000/svg" xmlns:xlink="http://www.w3.org/1999/xlink" x="0px" y="0px"
	 width="192px" height="192px" viewBox="0 0 192 192" enable-background="new 0 0 192 192" xml:space="preserve">
<g>
	<path fill="#FFFFFF" d="M35.7,58.3c-13.7,25.5-14.3,51,0.8,76c12.6,21,33.7,31.1,49.7,33.3c0-0.6,0-1.2,0-1.8c0-32.3,0-64.6,0-96.9
		c0-1.5-0.5-2-1.8-2.5C58,58.3,31.5,50,5.1,41.7c-0.4-0.1-0.7-0.3-1.1-0.6c61.2,0,122.3,0,184,0c-0.8,0.3-1.2,0.5-1.6,0.6
		c-25.3,7.9-50.6,15.8-76,23.6c-1.3,0.4-1.8,0.9-1.8,2.3c0,32.8,0,65.6,0,98.4c0,0.6,0,1.1,0,2c21-3.5,37.9-13.4,49.6-31
		c17.4-26.1,17.1-53,1.9-80.3c3.3-1,6.7-2.1,10.3-3.2c0.3,0.5,0.6,0.9,0.9,1.4c28.1,50.7-1.7,113.4-58.7,123.4
		c-45.6,8-88.4-22.2-96.7-67.7c-3.4-19-0.5-37.2,8.6-54.3c0.6-1.1,1.1-1.5,2.4-1c2.8,1,5.6,1.8,8.5,2.7
		C35.5,58.2,35.7,58.3,35.7,58.3z"/>
	<path fill="#FFFFFF" d="M105.5,60.9c0,0.8,0.1,1.4,0.1,1.9c0,21.3,0,42.6,0,63.9c0,1.2-0.3,2-1.2,2.8c-5.6,5-11.1,10.1-16.7,15.2
		c-0.4,0.3-0.7,0.6-1.4,1.1c0-0.8,0-1.3,0-1.8c0-17.9,0-35.9,0-53.8c0-0.8,0.2-1.7,0.6-2.4c5.9-8.7,11.9-17.4,17.8-26.1
		C105,61.5,105.2,61.3,105.5,60.9z"/>
	<path fill="#FFFFFF" d="M105.5,145.9c-6.4-5.8-12.4-11.3-18.5-16.8c-0.4-0.3-0.7-1-0.7-1.4c0-22,0-44.1,0-66.1c0,0,0-0.1,0.1-0.3
		c0.3,0.4,0.6,0.7,0.8,1c5.8,8.5,11.6,16.9,17.4,25.4c0.4,0.6,0.8,1.4,0.8,2.2c0.1,18.3,0.1,36.6,0.2,54.9
		C105.6,144.9,105.6,145.2,105.5,145.9z"/>
	<path fill="#FFFFFF" d="M153.4,35.4c-2.7,0-5.2-0.2-7.6,0c-5.8,0.5-11.3-0.1-16-4c-24.9-12.3-49.3-11.2-73.1,3.1
		c-0.6,0.4-1.4,0.7-2.2,0.8c-5.1,0.1-10.1,0-15.2,0c-0.2,0-0.4-0.1-0.7-0.1C68.9,5,122,4.3,153.4,35.4z"/>
</g>
</svg>
