<?xml version="1.0" encoding="utf-8"?>
<!-- Generator: Adobe Illustrator 25.2.1, SVG Export Plug-In . SVG Version: 6.00 Build 0)  -->
<svg version="1.0" id="Capa_1" xmlns="http://www.w3.org/2000/svg" xmlns:xlink="http://www.w3.org/1999/xlink" x="0px" y="0px"
	 viewBox="0 0 192 192" style="enable-background:new 0 0 192 192;" xml:space="preserve">
<style type="text/css">
	.st0{fill:#FFFFFF;}
</style>
<path class="st0" d="M142.24,17.1l47.67,74.29c2.59,4.04,2.59,9.22,0,13.27l-47.9,74.67c-2.26,3.53-6.17,5.67-10.37,5.67H0
	l33.47-52.18H9.61l13.21-20.58c2.26-3.53,6.17-5.66,10.37-5.66h94.31l-13.2,20.57c-2.26,3.53-6.17,5.67-10.37,5.67h-36.6
	L50.8,158.61h64.35c4.19,0,8.09-2.12,10.36-5.64l31.1-48.23c2.61-4.05,2.61-9.24,0.02-13.29l-30.87-48.12
	c-2.26-3.53-6.17-5.67-10.37-5.67H50.62l16.73,26.08h37.24c4.2,0,8.11,2.14,10.37,5.67l13.05,20.35H33.31
	c-4.2,0-8.11-2.14-10.37-5.67L9.89,63.73h23.86L0,11.44h131.87C136.06,11.44,139.97,13.58,142.24,17.1z"/>
</svg>
