<?xml version="1.0" encoding="utf-8"?>
<!-- Generator: Adobe Illustrator 23.1.0, SVG Export Plug-In . SVG Version: 6.00 Build 0)  -->
<svg version="1.1" id="Слой_1" xmlns="http://www.w3.org/2000/svg" xmlns:xlink="http://www.w3.org/1999/xlink" x="0px" y="0px"
	 viewBox="0 0 192 192" style="enable-background:new 0 0 192 192;" xml:space="preserve">
<style type="text/css">
	.st0{fill:#FFFFFF;}
</style>
<path class="st0" d="M173.94,134.46c-3.86-0.38-17.42-5.92-13.56-22.17c2.44,0.42,4.16,0.84,4.16,0.84l7.14-8.27l-24.69-83.21
	l-3.48,44.13L124.69,2l-2.85,52.27c0,0-31.66-38.37-80.95,3.53c5.04-2.18,14.19-3.19,25.69,2.35c-28.68,5.25-60.54,24.02-48.2,83.13
	c0,0,1.51-15.7,13.86-21.33c0,28.21,24.44,67.6,71.38,66C44.75,171.49,43.83,98.61,90.35,92.9c6.38-0.5,9.49,0.25,12.43,1.26
	c-6.3,0-16.51-0.31-24.07,12.23c-2.35-0.28-5.99-0.84-5.99-0.84l5.21,3.25c0,0-4.42,13.27,0.84,23.74c-10.13,1.79-13.1,2.3-13.1,2.3
	l21.66,3.75c0,0,4.31,8.57,9.12,13.38c-5.26,3.19-14.72,8.68-14.72,8.68l23.57-4.09c0,0,5.09,15.45,20.43,26.76
	c2.24-0.9,8.01-3.25,11.25-5.71c-6.33-3.92-17.98-12.19-27.37-33.03c-1.4,0.9-6.1,3.47-6.1,3.47s-7.39-6.38-12.09-17.69
	c-2.41,0.45-7.22,1.46-7.22,1.46s-5.21-12.09-0.39-24.3l-1.09-0.25c0,0,6.89-12.68,23.39-11.25c1.26,0-1.22,7.43-11.71,7.18
	c0,0-0.71,6.55,11.34,8.1c0,1.01-4.74,5-11.13,4.32c4.87,17.51,31.57,9.49,39.89,24.14c8.13,14.34-0.8,16.33,9.61,32.45
	c1.51-4.79,7.14-13.9,20.7-12.09c0-1.47,0.8-12.22,11.8-15.66C176.08,143.49,173.23,138.33,173.94,134.46z M147.37,114.06
	c-0.97,0-5.25-1.18-5.25-4.28c-0.25-5.5,3.36-4.87,2.85-14.15c5.84,3.02,4.85,16.56,7.91,23.95
	C149.17,118.38,147.37,114.06,147.37,114.06z"/>
</svg>
