<?xml version="1.0" encoding="utf-8"?>
<!-- Generator: Adobe Illustrator 25.2.3, SVG Export Plug-In . SVG Version: 6.00 Build 0)  -->
<svg version="1.1" id="Camada_1" xmlns="http://www.w3.org/2000/svg" xmlns:xlink="http://www.w3.org/1999/xlink" x="0px" y="0px"
	 viewBox="0 0 192 192" style="enable-background:new 0 0 192 192;" xml:space="preserve">
<style type="text/css">
	.st0{display:none;fill-rule:evenodd;clip-rule:evenodd;}
	.st1{fill-rule:evenodd;clip-rule:evenodd;fill:#FFFFFF;}
	.st2{fill-rule:evenodd;clip-rule:evenodd;fill:#12100C;}
	.st3{fill:#FFFFFF;}
</style>
<g>
	<path class="st1" d="M150.61,139.51c-7.9,8.67-20.14,17.23-29.75,23.56c-6.36,4.18-13.06,8.15-19.95,11.4L96,176.79l-4.91-2.32
		c-6.89-3.25-13.58-7.21-19.95-11.4c-9.62-6.33-21.85-14.89-29.75-23.56H25.57c-11.7,0-21.04-10.03-21.04-21.58
		c0-3.18,0-6.36,0-9.55v-6.42C2.8,98.9,1.88,95.48,1.88,91.94V35.9h32.3V15.21h124.16V35.9h31.77v11.5c0,4.07,0,8.13,0,12.2
		c0,4.63-1.51,9.14-4.24,12.86v46c0,11.69-10.01,21.05-21.57,21.05H150.61L150.61,139.51z"/>
	<path class="st2" d="M149.2,136.36c-7.52,8.66-21.63,18.53-30.07,24.08c-6.1,4.01-12.94,8.06-19.56,11.18L96,173.31l-3.57-1.69
		c-6.62-3.13-13.46-7.17-19.56-11.18c-8.44-5.55-22.55-15.41-30.07-24.08H25.57c-9.95,0-17.89-8.62-17.89-18.44
		c0-3.18,0-6.36,0-9.55v-7.28c-1.67-2.67-2.65-5.8-2.65-9.15v-52.9h32.3V18.36H155.2v20.68h31.77v8.36c0,4.07,0,8.13,0,12.2
		c0,4.39-1.59,8.54-4.24,11.79v47.07c0,9.97-8.62,17.91-18.42,17.91H149.2L149.2,136.36z"/>
	<polygon class="st3" points="45.69,26.72 45.69,51.64 61.05,51.64 61.05,43.16 131.48,43.16 131.48,51.64 146.84,51.64 
		146.84,26.72 45.69,26.72 	"/>
	<path class="st3" d="M72.78,69.67c1.45,3.71,5.31,6.36,9.46,6.36c5.26,0,9.53,0,9.53,0V47.4H13.39v44.54
		c0,5.27,4.8,9.54,10.06,9.54h48.72v6.89H16.04c0,0,0,4.27,0,9.54c0,5.27,4.27,10.08,9.53,10.08h46.6c0,0,2.16,0,5.3,0h4.24
		c5.26,0,10.06-4.27,10.06-9.55V79.22H32.98v-9.54H72.78L72.78,69.67z"/>
	<path class="st3" d="M100.24,47.4v71.06c0,5.27,4.8,9.55,10.06,9.55h54.02c5.26,0,10.06-4.27,10.06-9.55V79.22h-48.19v22.27h28.6
		v6.89h-34.95V69.67h49.25c5.26,0,9.53-4.8,9.53-10.08c0-5.27,0-12.2,0-12.2H100.24L100.24,47.4z"/>
	<path class="st3" d="M130.95,104.67c0,0,0,14.05,0,16.44c0,2.39-8.1,8.41-16.95,14.85c-8.63,6.28-18,10.61-18,10.61
		s-9.38-4.32-18.01-10.61c-8.84-6.44-16.95-12.46-16.95-14.85c0-2.39,0-16.44,0-16.44H45.69c0,0,0,10.74,0,20.15
		c0,5.56,17.41,19.19,31.77,28.64C87.44,160.02,96,164.06,96,164.06s8.56-4.05,18.54-10.61c14.36-9.45,31.77-23.08,31.77-28.64
		c0-9.41,0-20.15,0-20.15H130.95L130.95,104.67z"/>
</g>
</svg>
