<svg width="25" height="24" viewBox="0 0 25 24" fill="none" xmlns="http://www.w3.org/2000/svg">
<g clip-path="url(#clip0_2238_3042)">
<path fill-rule="evenodd" clip-rule="evenodd" d="M1.23008 14.683C0.684001 16.1285 0.507329 16.53 0.0576172 17.4937H2.81808L3.36416 15.8233H6.09455L6.64063 17.4937H9.59587C9.58055 17.4635 9.56552 17.434 9.55076 17.405C9.10149 16.5217 8.90598 16.1373 8.43947 14.94L5.21119 6.52393H4.34594L1.23008 14.683ZM5.46817 13.6872H3.99054L4.71329 11.278L5.46817 13.6872ZM18.8055 17.4937C18.8376 16.6906 18.8697 15.7591 18.8697 14.683V11.0693C18.8697 10.2983 18.8537 9.60769 18.8215 9.02949H18.6127C17.7294 9.02949 16.9745 9.06161 16.316 9.1098V6.66851C16.8139 6.70063 17.5688 6.70063 18.6127 6.70063H21.6965C22.7726 6.70063 23.5917 6.68457 24.0575 6.66851V9.1098C23.4311 9.06161 22.6441 9.02949 21.7286 9.02949H21.5359C21.5359 9.19688 21.5307 9.40813 21.5245 9.66119L21.5245 9.66155C21.5153 10.0397 21.5037 10.5113 21.5037 11.0693V14.683C21.5037 16 21.5198 16.9316 21.568 17.4937H18.8055ZM10.6035 17.4937C10.6428 16.669 10.6394 15.7695 10.6368 15.0824C10.6362 14.9265 10.6357 14.7816 10.6357 14.6509V9.54345C10.6357 9.28331 10.6364 9.03596 10.637 8.80141C10.6396 7.92088 10.6416 7.22062 10.6035 6.70063H13.3179C13.2697 7.32702 13.2697 8.17825 13.2697 9.28647V15.1006H14.2655C15.4058 15.1006 16.1607 15.1006 16.5461 15.0685V17.5419C16.0322 17.4937 15.2613 17.4937 14.2655 17.4937H10.6035Z" fill="white"/>
</g>
<defs>
<clipPath id="clip0_2238_3042">
<rect width="24" height="24" fill="white" transform="translate(0.0576172)"/>
</clipPath>
</defs>
</svg>
