<svg width="24" height="24" viewBox="0 0 24 24" fill="none" xmlns="http://www.w3.org/2000/svg">
<g clip-path="url(#clip0_1460_4515)">
<path fill-rule="evenodd" clip-rule="evenodd" d="M7 9C7 11.1088 8.30549 12.9127 10.1524 13.6475L12 21.5L13.8476 13.6475C15.6945 12.9127 17 11.1088 17 9C17 6.94968 15.7659 5.1876 14 4.41604V0L16.7538 2.75384C17.2368 3.23678 17.5405 3.87005 17.6147 4.54898L19.0904 18.0407C19.1934 18.9828 19.6277 19.8578 20.3157 20.5096L24 24H12H0L3.6843 20.5096C4.37233 19.8578 4.80656 18.9828 4.90961 18.0407L6.38527 4.54898C6.45953 3.87005 6.76322 3.23678 7.24616 2.75384L10 0V4.41604C8.2341 5.1876 7 6.94968 7 9ZM12 12C13.6569 12 15 10.6569 15 9C15 7.34315 13.6569 6 12 6C10.3431 6 9 7.34315 9 9C9 10.6569 10.3431 12 12 12Z" fill="white"/>
</g>
<defs>
<clipPath id="clip0_1460_4515">
<rect width="24" height="24" fill="white"/>
</clipPath>
</defs>
</svg>
