<svg width="24" height="24" viewBox="0 0 24 24" fill="none" xmlns="http://www.w3.org/2000/svg">
<path fill-rule="evenodd" clip-rule="evenodd" d="M15 7V9H18V10C18 13.309 15.309 16 12 16C8.691 16 6 13.309 6 10V9H9V7H6V6C6 2.691 8.691 0 12 0C15.309 0 18 2.691 18 6V7H15ZM21 9C21.552 9 22 9.447 22 10C22 15.176 18.046 19.446 13 19.949V22H17C17.552 22 18 22.447 18 23C18 23.553 17.552 24 17 24H7C6.448 24 6 23.553 6 23C6 22.447 6.448 22 7 22H11V19.949C5.954 19.446 2 15.176 2 10C2 9.447 2.448 9 3 9C3.552 9 4 9.447 4 10C4 14.411 7.589 18 12 18C16.411 18 20 14.411 20 10C20 9.447 20.448 9 21 9Z" fill="white"/>
</svg>
