<svg width="24" height="24" viewBox="0 0 24 24" fill="none" xmlns="http://www.w3.org/2000/svg">
<path fill-rule="evenodd" clip-rule="evenodd" d="M18.0247 0.75H19.3311V4.66937H20.6377H21.944V5.97582H20.6377V17.7339L18.678 20.6734L16.7184 17.7339V5.97582H15.4118V4.66937H16.7184H18.0247V0.75ZM13.4521 3.36291H13.3034C12.9447 4.12404 11.9769 4.66935 10.8392 4.66935C9.70157 4.66935 8.73372 4.12404 8.37502 3.36291H8.22634V21L13.4521 16.2516V3.36291ZM3.00049 3.36291H3.14917C3.50787 4.12404 4.47572 4.66935 5.61339 4.66935C6.75106 4.66935 7.71891 4.12404 8.07761 3.36291H8.22629V21L3.00049 16.2516V3.36291Z" fill="white"/>
</svg>
