<svg width="24" height="24" viewBox="0 0 24 24" fill="none" xmlns="http://www.w3.org/2000/svg">
<path fill-rule="evenodd" clip-rule="evenodd" d="M2 5C5.2484 4.67516 8.30845 3.3224 10.735 1.13849L12 0L13.265 1.13849C15.6916 3.3224 18.7516 4.67516 22 5V11.5836C22 16.1289 19.432 20.284 15.3666 22.3167L12 24L8.63344 22.3167C4.56803 20.284 2 16.1289 2 11.5836V5ZM4 6.40002C6.61676 6.13835 9.11211 5.16594 11.216 3.58804L12 3L12.784 3.58804C14.8879 5.16594 17.3832 6.13835 20 6.40002V11.4579C20 14.1101 18.9464 16.6536 17.0711 18.529L16 19.6L16.7305 18.4411C17.9234 16.5487 18.5636 14.3605 18.5788 12.1236L18.6094 7.61508C16.3288 7.22745 14.1579 6.35473 12.2436 5.05593L12 4.89062L11.7564 5.05593C9.84206 6.35473 7.67124 7.22745 5.39062 7.61508L5.42124 12.1236C5.43643 14.3605 6.07659 16.5487 7.26948 18.4411L8 19.6L6.92893 18.529C5.05357 16.6536 4 14.1101 4 11.4579V6.40002Z" fill="white"/>
</svg>
