<svg width="25" height="24" viewBox="0 0 25 24" fill="none" xmlns="http://www.w3.org/2000/svg">
<path fill-rule="evenodd" clip-rule="evenodd" d="M24.1976 15.4212C24.5195 14.337 24.6924 13.1887 24.6924 12C24.6924 5.37258 19.3198 0 12.6924 0C10.9353 0 9.26645 0.377633 7.76252 1.05617C7.74208 1.3824 7.73169 1.7117 7.73169 2.0437C7.73169 2.46279 7.74825 2.87759 7.78068 3.28734C9.23142 2.46774 10.9073 2 12.6924 2C18.2152 2 22.6924 6.47715 22.6924 12C22.6924 13.4132 22.3992 14.7579 21.8705 15.9767C22.6715 15.872 23.4496 15.6841 24.1976 15.4212Z" fill="#26E030"/>
<path fill-rule="evenodd" clip-rule="evenodd" d="M22.5745 13.5378C21.8348 18.3306 17.6919 21.9999 12.6921 21.9999C9.58167 21.9999 6.80294 20.5799 4.96886 18.3527C4.55539 18.9261 4.18843 19.5212 3.86816 20.1326C6.06086 22.5105 9.20252 23.9999 12.6921 23.9999C18.4119 23.9999 23.1971 19.998 24.4004 14.6414C23.8188 14.2184 23.2079 13.8506 22.5745 13.5378Z" fill="#EC3D06"/>
<path fill-rule="evenodd" clip-rule="evenodd" d="M8.48366 2.92617C5.06371 4.51513 2.69238 7.98064 2.69238 12C2.69238 14.6971 3.76008 17.1447 5.49586 18.9434C5.03983 19.4411 4.55268 19.8994 4.0389 20.3137C1.96639 18.157 0.692383 15.2273 0.692383 12C0.692383 7.17001 3.54596 3.00649 7.65919 1.10339C7.97198 1.68359 8.24789 2.29272 8.48366 2.92617Z" fill="#00D9EC"/>
<path fill-rule="evenodd" clip-rule="evenodd" d="M0.920305 9.66553C1.59584 10.4181 2.39993 11.0783 3.32324 11.6114C6.35967 13.3645 9.94271 13.3132 12.8308 11.7903L12.8472 11.7411L12.8505 11.7799C12.8989 11.7542 12.9471 11.7281 12.9952 11.7016C12.9485 11.7432 12.9015 11.7844 12.8542 11.825C13.0055 13.7336 12.6003 15.7062 11.5706 17.4896C10.2845 19.7172 8.25574 21.2487 5.97764 21.9519C4.60995 21.0268 3.44324 19.8271 2.5567 18.4319C6.27182 18.8034 10.0345 17.0233 12.0226 13.5798C12.3431 13.0248 12.6031 12.4514 12.8046 11.8673C9.73794 14.4635 5.25284 14.9973 1.57304 12.8728C1.26749 12.6964 0.975028 12.506 0.696008 12.3029C0.693596 12.2039 0.692383 12.1046 0.692383 12.005C0.692383 11.2045 0.770776 10.4222 0.920305 9.66553ZM1.11985 15.1908C1.26019 15.7017 1.43347 16.1991 1.63726 16.6803C5.37538 17.3695 9.28106 16.0002 11.7562 13.0006C8.92092 15.6165 4.81511 16.4967 1.11985 15.1908ZM0.891104 14.1915C0.828772 13.8529 0.780653 13.5093 0.747387 13.1614C0.97322 13.3216 1.20851 13.4726 1.45305 13.6138C3.92426 15.0406 6.79584 15.1457 9.24932 14.1485C6.75691 15.6084 3.57455 15.7289 0.891104 14.1915Z" fill="#00D9EC"/>
<path fill-rule="evenodd" clip-rule="evenodd" d="M20.3969 2.80456C19.4396 3.01636 18.498 3.37615 17.6038 3.89241C14.5674 5.6455 12.8203 8.77413 12.6951 12.0367L12.7295 12.0755L12.6943 12.059C12.6923 12.1138 12.6908 12.1686 12.6897 12.2234C12.677 12.1622 12.6649 12.101 12.6534 12.0396C10.9248 11.2164 9.41913 9.87915 8.38947 8.09572C7.15488 5.95736 6.81798 3.54706 7.26184 1.30118C8.67979 0.580354 10.2601 0.132998 11.9334 0.0285645C9.88674 3.03979 9.60692 7.07753 11.5494 10.4421C11.8699 10.9971 12.2365 11.509 12.6416 11.9756C11.9265 8.02164 13.7068 3.87054 17.3866 1.74601C17.6486 1.59474 17.9146 1.45696 18.184 1.33243C18.9772 1.7414 19.7189 2.2362 20.3969 2.80456ZM15.4563 0.324787C14.9543 0.206467 14.4402 0.119665 13.9162 0.0665834C11.5623 2.94735 10.8503 6.92792 12.1842 10.501C11.3508 6.80112 12.5841 2.87662 15.4563 0.324787ZM16.4197 0.595076C16.7506 0.703099 17.0751 0.825118 17.3927 0.960428C17.1945 1.0561 16.9984 1.15978 16.8048 1.27158C14.3336 2.69833 12.8068 5.13262 12.4436 7.756C12.4259 4.92784 13.8509 2.16887 16.4197 0.595076Z" fill="#26E030"/>
<path fill-rule="evenodd" clip-rule="evenodd" d="M16.598 23.3551C16.9306 22.3686 17.1108 21.312 17.1108 20.2134C17.1108 16.7072 15.2749 13.6298 12.512 11.8901L12.4612 11.9005L12.4931 11.8783C12.4467 11.8492 12.4 11.8205 12.353 11.7921C12.4124 11.8117 12.4715 11.8318 12.5304 11.8525C14.1076 10.7672 16.0185 10.1318 18.0779 10.1318C20.6181 10.1318 22.9326 11.0986 24.6734 12.6842C24.5782 14.391 24.1263 16.0025 23.3911 17.4454C21.8506 14.0538 18.4337 11.6953 14.4659 11.6953C13.8249 11.6953 13.1984 11.7568 12.5917 11.8743C16.3735 13.232 19.0783 16.8493 19.0783 21.0984C19.0783 21.4726 19.0573 21.8419 19.0165 22.2052C18.2621 22.6739 17.4518 23.0613 16.598 23.3551ZM21.3157 20.3499C20.6045 16.4884 17.7863 13.3649 14.0975 12.2156C17.9324 12.8593 21.0708 15.5565 22.3433 19.1379C22.0275 19.5644 21.6841 19.9693 21.3157 20.3499ZM20.5614 21.0649C20.2963 21.2954 20.0209 21.5144 19.7361 21.7212C19.7652 21.4287 19.7801 21.132 19.7801 20.8318C19.7801 17.9783 18.4353 15.4389 16.345 13.8127C18.8632 15.2456 20.5614 17.9534 20.5614 21.0579C20.5614 21.0602 20.5614 21.0626 20.5614 21.0649Z" fill="#EC3D06"/>
</svg>
