<svg width="25" height="24" viewBox="0 0 25 24" fill="none" xmlns="http://www.w3.org/2000/svg">
<path fill-rule="evenodd" clip-rule="evenodd" d="M19.5627 19.2663C17.7711 20.9609 15.3531 22 12.6924 22C7.16954 22 2.69238 17.5228 2.69238 12C2.69238 9.27252 3.78432 6.80008 5.55489 4.99598C3.53832 8.01933 3.12112 11.2256 4.76267 12.8672C5.01498 13.1195 5.30426 13.3231 5.62415 13.4799C5.87714 13.6038 6.14928 13.6983 6.43743 13.7643C6.47111 13.7721 6.50501 13.7794 6.53912 13.7863C6.74527 13.8282 6.95922 13.8559 7.17987 13.8698L7.17988 13.8698C7.75357 13.9057 8.37255 13.8476 9.01737 13.7006L9.01735 13.7006C9.60702 13.5662 10.2183 13.3574 10.8363 13.0783L10.8364 13.0783C12.2158 12.4552 13.6288 11.4813 14.9102 10.2C16.9128 8.19729 18.1646 5.87291 18.4995 3.85796C19.6124 4.65314 20.5555 5.67081 21.2636 6.846C20.84 7.82333 20.3119 8.78735 19.6781 9.71812C19.1839 10.4438 18.6474 11.117 18.0776 11.735C18.728 11.2627 19.3654 10.7451 19.9838 10.1832C20.6902 9.54128 21.3413 8.86905 21.935 8.1755C22.0786 8.52223 22.2033 8.87879 22.3078 9.2439C21.4187 10.4472 20.3426 11.608 19.0958 12.6723C14.7366 16.3936 9.53903 17.8695 5.89735 16.7715C10.0945 19.0825 16.8323 17.6861 22.2883 13.0215C22.4169 12.9115 22.5438 12.8006 22.669 12.6888C22.5838 13.9414 22.2679 15.1307 21.7635 16.2145C21.0824 16.7305 20.3495 17.2114 19.5689 17.6485C16.579 19.3227 13.4063 20.0649 10.591 19.9341C13.3955 20.4361 16.4942 20.2508 19.5627 19.2663ZM8.83873 2.76953C8.60171 2.9773 8.36742 3.19646 8.13701 3.42686C7.51588 4.048 6.97644 4.6974 6.52181 5.35244C5.12081 7.71572 4.70424 10.2209 5.50351 12.193C5.8403 12.5147 6.30396 12.7391 6.88351 12.8326C6.17361 9.97019 6.42519 7.34839 7.62474 5.73906C7.08989 7.84485 7.34362 10.3751 8.50477 12.7588L8.5168 12.7835C8.68273 12.7526 8.85375 12.7143 9.02976 12.668C9.4248 12.5642 9.83344 12.4226 10.2495 12.244C8.68753 9.53645 9.26089 5.48105 11.8976 2.2926C11.9754 2.19855 12.0543 2.10612 12.1341 2.01532C10.9717 2.07928 9.86207 2.3418 8.83873 2.76953ZM24.6924 12C24.6924 18.6274 19.3198 24 12.6924 24C6.06497 24 0.692383 18.6274 0.692383 12C0.692383 5.37258 6.06497 0 12.6924 0C19.3198 0 24.6924 5.37258 24.6924 12Z" fill="#26E030"/>
</svg>
