<svg width="25" height="24" viewBox="0 0 25 24" fill="none" xmlns="http://www.w3.org/2000/svg">
<path fill-rule="evenodd" clip-rule="evenodd" d="M22.6924 12C22.6924 17.5228 18.2152 22 12.6924 22C7.16954 22 2.69238 17.5228 2.69238 12C2.69238 11.0056 2.83753 10.0451 3.1078 9.13847L4.92 10.9507C5.04898 11.0796 5.14022 11.2414 5.18386 11.4185L5.7684 13.7911C5.83386 14.0568 5.97072 14.2995 6.16419 14.493L8.60298 16.9317C8.88692 17.2157 9.37284 17.066 9.44776 16.6715L9.52061 16.2878C9.62158 15.7561 9.96628 15.3025 10.4516 15.0629C10.7059 14.9373 10.8822 14.6946 10.9232 14.4139L11.0115 13.8083C11.1095 13.1362 11.5483 12.5626 12.1714 12.2922C12.2959 12.2382 12.4004 12.1467 12.4706 12.0306L13.5248 10.286C13.606 10.1518 13.508 9.98066 13.3512 9.9826L11.7947 10.0019C11.6599 10.0035 11.5302 9.95075 11.4349 9.85547L10.4737 8.89428C10.2785 8.69902 10.2785 8.38244 10.4737 8.18717C10.669 7.99191 10.9856 7.99191 11.1808 8.18717L11.695 8.70131C11.8855 8.89188 12.145 8.99746 12.4144 8.99412L14.5954 8.96711C14.7767 8.96487 14.945 9.06096 15.0353 9.21824C15.1255 9.37551 15.1235 9.56932 15.0301 9.72472L14.3295 10.8899C14.3258 10.8961 14.3339 10.9024 14.339 10.8974C14.3441 10.8923 14.3522 10.8987 14.3484 10.9048L13.5923 12.1291C13.5076 12.2663 13.5282 12.4436 13.6422 12.5576L14.3259 13.2413C14.6806 13.596 15.2724 13.5314 15.5423 13.1087L17.9666 9.31169C18.3761 8.67032 18.2404 7.82396 17.6511 7.34266L15.1877 5.33107C14.9539 5.14011 14.6679 5.02416 14.3671 4.99837L10.552 4.67137C10.3172 4.65124 10.097 4.5488 9.93034 4.38213L8.47732 2.92911C9.75821 2.33289 11.1864 2 12.6924 2C18.2152 2 22.6924 6.47715 22.6924 12ZM24.6924 12C24.6924 18.6274 19.3198 24 12.6924 24C6.06497 24 0.692383 18.6274 0.692383 12C0.692383 5.37258 6.06497 0 12.6924 0C19.3198 0 24.6924 5.37258 24.6924 12ZM18.9278 14.7054C19.3671 15.1447 19.3671 15.857 18.9278 16.2964C18.4884 16.7357 17.7761 16.7357 17.3368 16.2964L15.9447 14.9043C15.5053 14.4649 15.5053 13.7526 15.9447 13.3133C16.384 12.8739 17.0963 12.8739 17.5357 13.3133L18.9278 14.7054ZM20.4526 12.2526C20.8919 12.692 20.8919 13.4043 20.4526 13.8436C20.0132 14.283 19.3009 14.283 18.8616 13.8436L17.4695 12.4515C17.0301 12.0122 17.0301 11.2999 17.4695 10.8605C17.9088 10.4212 18.6211 10.4212 19.0604 10.8605L20.4526 12.2526ZM16.5192 17.9095C16.9586 17.4702 16.9586 16.7579 16.5192 16.3185L13.6466 13.4459C13.2073 13.0066 12.495 13.0066 12.0556 13.4459C11.6163 13.8852 11.6163 14.5975 12.0556 15.0369L14.9282 17.9095C15.3676 18.3488 16.0799 18.3488 16.5192 17.9095ZM13.7571 17.578C14.1964 18.0174 14.1964 18.7297 13.7571 19.169C13.3178 19.6084 12.6054 19.6084 12.1661 19.169L10.553 17.556C10.1137 17.1166 10.1137 16.4043 10.553 15.965C10.9924 15.5256 11.7047 15.5256 12.144 15.965L13.7571 17.578Z" fill="#EC3D06"/>
</svg>
