<svg width="25" height="24" viewBox="0 0 25 24" fill="none" xmlns="http://www.w3.org/2000/svg">
<path fill-rule="evenodd" clip-rule="evenodd" d="M12.6924 22C18.2152 22 22.6924 17.5228 22.6924 12C22.6924 10.4481 22.3389 8.97868 21.7079 7.66802L18.0795 9.96958L22.1499 13.1339L17.2157 12.3351L18.4165 17.2484L15.09 13.6196L12.3523 21.1433L12.3523 12.97L6.45789 14.7168L10.3169 11.156L4.16925 9.97929L10.6068 8.4692L7.30042 3.65282L12.6291 6.66621L13.1154 2.28478L15.1041 6.40043L18.4066 3.80029L17.2429 7.63561L21.6923 7.63561C20.0715 4.29958 16.6505 2 12.6924 2C7.16954 2 2.69238 6.47715 2.69238 12C2.69238 14.8696 3.90107 17.4569 5.83711 19.2805L8.4367 15.5679L10.9741 14.8159L10.9741 16.9638L8.19434 20.9337C9.54645 21.6158 11.0746 22 12.6924 22ZM12.6924 24C19.3198 24 24.6924 18.6274 24.6924 12C24.6924 5.37258 19.3198 0 12.6924 0C6.06497 0 0.692383 5.37258 0.692383 12C0.692383 18.6274 6.06497 24 12.6924 24ZM13.6212 8.60583L13.8483 6.55977L14.6732 8.26694L16.1502 7.10411L15.6248 8.83561H17.6269L15.9961 9.86998L17.7054 11.1988L15.6201 10.8612L16.1403 12.9895L14.6384 11.3512L13.5523 14.3361L13.5523 11.3627L11.0629 12.1005L12.8791 10.4246L9.93089 9.86032L12.5892 9.23674L11.2265 7.25158L13.6212 8.60583Z" fill="#00D9EC"/>
</svg>
