<svg width="24" height="24" viewBox="0 0 24 24" fill="none" xmlns="http://www.w3.org/2000/svg">
<path fill-rule="evenodd" clip-rule="evenodd" d="M3.00049 1.36364L12.0005 0L21.0005 1.36364V16.8654C21.0005 17.5386 20.7581 18.1893 20.3176 18.6984C18.4694 20.8347 16.1125 22.4707 13.4649 23.4554L12.3142 23.8833C12.1118 23.9586 11.8891 23.9586 11.6867 23.8833L10.5361 23.4554C7.88843 22.4707 5.53161 20.8347 3.68337 18.6984C3.2429 18.1893 3.00049 17.5386 3.00049 16.8654V1.36364ZM15.9695 4.21757C15.8922 4.24035 15.8067 4.26554 15.7102 4.29183L13.715 4.83374L16.2708 6.94482C16.2749 6.92547 16.2916 6.91058 16.329 6.91058C16.3314 6.94475 16.3384 6.97835 16.3499 7.01033L16.7758 7.36317C16.7804 7.35936 16.7849 7.35573 16.7892 7.35222C16.8339 7.316 16.8631 7.29236 16.7758 7.20685C16.7406 7.2522 16.7143 7.2238 16.6871 7.19433C16.6714 7.17736 16.6553 7.16004 16.6371 7.15623C16.6806 7.02365 16.7345 7.08957 16.7987 7.16817C16.8369 7.21491 16.8788 7.26612 16.9243 7.28278C16.9013 7.30192 16.8846 7.32832 16.8764 7.35823C16.8681 7.38815 16.8689 7.42008 16.8785 7.44952L17.0297 7.57458C17.0297 7.53289 16.9923 7.4912 16.9479 7.44952C17.053 7.44402 17.1155 7.54654 17.1758 7.64554C17.1808 7.65369 17.1857 7.66182 17.1907 7.66986C17.2143 7.63859 17.2365 7.60733 17.1907 7.57458C17.2296 7.54331 17.2684 7.55969 17.3073 7.60584C17.4118 6.97658 17.5154 6.34683 17.6181 5.71658C17.6297 5.64742 17.6409 5.58389 17.6512 5.52528C17.6812 5.3543 17.7038 5.2253 17.711 5.12108C17.6859 5.12161 17.6609 5.1241 17.6361 5.12852C17.6655 5.11112 17.6889 5.08396 17.7027 5.05111L17.7124 5.05855C17.711 4.7995 17.5764 4.70273 17.1213 4.38413C16.6136 4.0278 16.4484 4.07647 15.9695 4.21757ZM17.4648 11.8816L17.4751 11.8846L17.1976 11.6851C17.1886 11.6878 17.179 11.6878 17.1699 11.6851C17.1531 11.6847 17.137 11.6774 17.1251 11.6646C17.1132 11.6518 17.1064 11.6346 17.1061 11.6166L17.0228 11.5556C17.0211 11.5598 17.0189 11.5643 17.0166 11.5689C17.0061 11.5903 16.9937 11.6156 17.0131 11.6449C17.0984 11.7756 17.325 11.8412 17.4648 11.8816ZM17.2856 7.75369C17.2914 7.71566 17.2969 7.6801 17.3031 7.64455V7.64306C17.2282 7.68623 17.2282 7.71452 17.2587 7.77556L17.2795 7.79343C17.2816 7.77983 17.2836 7.76662 17.2856 7.75369ZM7.49059 16.9792C7.52944 16.9702 7.56968 16.9598 7.60991 16.9464L10.088 16.0904L6.4555 12.3059C6.15025 13.09 5.84407 13.8741 5.53697 14.6582C5.34579 15.1485 5.24444 15.3633 5.29323 15.5356C5.34148 15.7059 5.53649 15.8346 5.93657 16.1469C6.13082 16.3047 6.29871 16.4536 6.46105 16.6025L6.47215 16.5876C6.47697 16.5967 6.47982 16.6069 6.48047 16.6174C6.557 16.6842 6.63666 16.7468 6.71913 16.805L6.74411 16.8273C6.82493 16.8802 6.91103 16.9231 7.00079 16.9553C6.99463 16.9458 6.98813 16.9362 6.98167 16.9266C6.93575 16.8587 6.8917 16.7935 6.98414 16.7752C7.00034 16.8544 7.03914 16.9262 7.09514 16.9806C7.14997 16.9926 7.20571 16.999 7.26165 17C7.26593 16.9933 7.27057 16.9868 7.27553 16.9806L7.29633 16.9985H7.36016C7.34869 16.9882 7.33475 16.9815 7.31992 16.9792C7.35034 16.8443 7.4085 16.9003 7.47997 16.969C7.48348 16.9723 7.48702 16.9757 7.49059 16.9792ZM16.0369 16.5991C16.6275 16.679 17.2397 16.7618 17.8345 16.6799L17.8276 16.6918C18.1953 16.6412 19.2803 13.1947 18.932 12.9386L17.5154 11.9084L17.0686 11.8488C17.1029 11.7727 17.0354 11.7364 16.9679 11.7C16.9179 11.6731 16.8679 11.6462 16.8591 11.6032C16.9107 11.6469 16.9261 11.6021 16.9419 11.5562C16.9482 11.5379 16.9545 11.5195 16.9632 11.5064L16.7953 11.3843L9.59407 6.15131C9.54599 6.13285 9.50714 6.13201 9.46837 6.13118C9.40083 6.12972 9.33352 6.12827 9.21805 6.03369C9.25273 5.99052 9.2222 5.92948 9.16115 5.861C9.10971 5.87544 9.05516 5.8701 9.00701 5.8459C8.95885 5.82169 8.92012 5.78016 8.89753 5.7285L8.8226 5.8342C8.69687 5.74169 8.72553 5.737 8.76449 5.73063C8.80077 5.7247 8.84597 5.71731 8.78375 5.63619C8.72384 5.57952 8.68457 5.56327 8.6458 5.54724C8.60106 5.52873 8.55699 5.5105 8.48266 5.43074C8.45209 5.45656 8.49499 5.50234 8.53792 5.54813C8.58657 5.60003 8.63524 5.65196 8.57701 5.6749C8.49791 5.61252 8.46493 5.56286 8.43216 5.51353C8.39768 5.46161 8.36343 5.41004 8.27592 5.34439C8.40079 5.36672 8.38415 5.29675 8.30784 5.21785L8.14688 5.10023L8.10665 5.07939V5.07195L6.89673 4.19208C6.42295 3.84709 5.97205 4.03241 5.47131 4.23822C5.31946 4.30063 5.16304 4.36493 5 4.41689L9.50248 9.50552C9.58335 9.50909 9.6625 9.53159 9.73441 9.57145C9.80631 9.61132 9.86923 9.66757 9.91874 9.73627C9.89738 9.79949 9.84905 9.74695 9.80072 9.69441C9.758 9.64796 9.71527 9.60151 9.69118 9.63504C9.69118 9.67393 9.73406 9.73031 9.77214 9.78039C9.80257 9.8204 9.82994 9.85638 9.82994 9.87622L10.1671 10.2261C10.1758 10.233 10.1857 10.2377 10.1962 10.2401C10.2068 10.2424 10.2177 10.2422 10.2282 10.2395C10.2449 10.2689 10.2571 10.3011 10.2642 10.3348L10.489 10.5879C10.4828 10.5674 10.4772 10.5523 10.4797 10.5509C10.4839 10.5484 10.5113 10.5853 10.5986 10.7025C10.767 10.894 10.9358 11.0851 11.1051 11.2757C11.1058 11.2658 11.1058 11.2558 11.1051 11.2459C11.1217 11.2712 11.1415 11.2991 11.1613 11.327C11.181 11.3549 11.2008 11.3829 11.2175 11.4082C11.282 11.4826 11.3469 11.5571 11.4118 11.6315C11.4766 11.706 11.5415 11.7804 11.606 11.8548C11.5884 11.821 11.568 11.7842 11.5474 11.7473C11.4574 11.5855 11.3659 11.4209 11.5116 11.496C11.6075 11.7698 11.7532 12.0203 11.9403 12.2329L12.3427 12.687C12.3548 12.6683 12.3726 12.6592 12.3887 12.651C12.4355 12.6271 12.4676 12.6107 12.3025 12.3893C12.272 12.437 12.2239 12.3695 12.1725 12.2973C12.1421 12.2545 12.1104 12.21 12.0805 12.1868C12.0944 11.9997 12.2016 12.1578 12.3298 12.3469C12.4067 12.4603 12.4911 12.5847 12.5675 12.6528C12.487 12.7213 12.5273 12.8404 12.6147 12.9982C12.6651 13.0563 12.7162 13.1137 12.7671 13.1709C12.7931 13.2002 12.8191 13.2295 12.845 13.2587C12.8064 13.147 12.7458 13.0454 12.6674 12.961C12.8322 13.0465 12.9773 13.2957 13.1129 13.5287L13.1239 13.5475C13.1489 13.5178 13.1697 13.482 13.0864 13.3867C13.1405 13.3659 13.2169 13.4403 13.3084 13.5892C13.2058 13.5922 13.1919 13.622 13.2266 13.6979L14.8513 15.5336C14.9097 15.6009 14.9768 15.6893 15.0505 15.7863C15.3008 16.1158 15.6265 16.5447 15.9406 16.5861C15.9726 16.5904 16.0047 16.5948 16.0369 16.5991Z" fill="white"/>
</svg>
