<svg width="24" height="24" viewBox="0 0 24 24" fill="none" xmlns="http://www.w3.org/2000/svg">
<path fill-rule="evenodd" clip-rule="evenodd" d="M22.6685 14.6907C22.885 13.8296 23 12.9282 23 12C23 5.92487 18.0751 1 12 1C5.92487 1 1 5.92487 1 12C1 12.9129 1.1112 13.7998 1.3208 14.6479C3.77362 14.9422 5.67488 17.0303 5.67488 19.5624C5.67488 20.0166 5.6137 20.4566 5.49914 20.8744C7.32031 22.2108 9.56799 23 12 23C14.5357 23 16.871 22.142 18.7315 20.7005C18.6455 20.3351 18.6 19.9541 18.6 19.5624C18.6 17.1295 20.3553 15.1065 22.6685 14.6907ZM4 10.8638C4 9.63551 4.58745 8.28972 5.06809 7.51001L6.32844 8.01201C6.08278 8.6315 5.81575 9.50734 5.81575 10.3832C5.81575 10.6929 5.8478 11.0027 5.92256 11.3017L4.08545 11.5901C4.03204 11.3551 4 11.1095 4 10.8638ZM7.48957 15.51V14.1642C8.64311 13.4272 9.87141 12.0708 9.87141 11.0347C9.87141 10.4793 9.46554 10.0948 8.91013 10.0948C8.11974 10.0948 7.81 10.255 7.53229 10.6502V8.63151C8.05566 8.36448 8.77128 8.26835 9.51894 8.26835C11.3347 8.26835 12.1358 9.27236 12.1358 10.7143C12.1358 11.9533 11.3881 12.9893 10.3093 13.7797H11.2386C11.6872 13.7797 11.8794 13.769 12.3173 13.7263V15.51H7.48957ZM13.5184 14.1642V15.51H18.3462V13.7263C17.9083 13.769 17.716 13.7797 17.2674 13.7797H16.3382C17.417 12.9893 18.1646 11.9533 18.1646 10.7143C18.1646 9.27236 17.3636 8.26835 15.5478 8.26835C14.8002 8.26835 14.0845 8.36448 13.5612 8.63151V10.6502C13.8389 10.255 14.1486 10.0948 14.939 10.0948C15.4944 10.0948 15.9003 10.4793 15.9003 11.0347C15.9003 12.0708 14.672 13.4272 13.5184 14.1642Z" fill="white"/>
</svg>
