<svg width="24" height="24" viewBox="0 0 24 24" fill="none" xmlns="http://www.w3.org/2000/svg">
<g clip-path="url(#clip0_1229_1138)">
<path fill-rule="evenodd" clip-rule="evenodd" d="M8 2C8.55228 2 9 1.55228 9 1C9 0.447715 8.55228 0 8 0C7.44772 0 7 0.447715 7 1C7 1.55228 7.44772 2 8 2ZM10 8C10 9.10457 9.10457 10 8 10C6.89543 10 6 9.10457 6 8C6 6.89543 6.89543 6 8 6C9.10457 6 10 6.89543 10 8ZM18 8C18 9.10457 17.1046 10 16 10C14.8954 10 14 9.10457 14 8C14 6.89543 14.8954 6 16 6C17.1046 6 18 6.89543 18 8ZM8 18C9.10457 18 10 17.1046 10 16C10 14.8954 9.10457 14 8 14C6.89543 14 6 14.8954 6 16C6 17.1046 6.89543 18 8 18ZM18 16C18 17.1046 17.1046 18 16 18C14.8954 18 14 17.1046 14 16C14 14.8954 14.8954 14 16 14C17.1046 14 18 14.8954 18 16ZM1 9C1.55228 9 2 8.55228 2 8C2 7.44772 1.55228 7 1 7C0.447716 7 0 7.44772 0 8C0 8.55228 0.447716 9 1 9ZM2 16C2 16.5523 1.55228 17 1 17C0.447716 17 0 16.5523 0 16C0 15.4477 0.447716 15 1 15C1.55228 15 2 15.4477 2 16ZM23 9C23.5523 9 24 8.55228 24 8C24 7.44772 23.5523 7 23 7C22.4477 7 22 7.44772 22 8C22 8.55228 22.4477 9 23 9ZM24 16C24 16.5523 23.5523 17 23 17C22.4477 17 22 16.5523 22 16C22 15.4477 22.4477 15 23 15C23.5523 15 24 15.4477 24 16ZM17 1C17 1.55228 16.5523 2 16 2C15.4477 2 15 1.55228 15 1C15 0.447715 15.4477 0 16 0C16.5523 0 17 0.447715 17 1ZM8 24C8.55228 24 9 23.5523 9 23C9 22.4477 8.55228 22 8 22C7.44772 22 7 22.4477 7 23C7 23.5523 7.44772 24 8 24ZM17 23C17 23.5523 16.5523 24 16 24C15.4477 24 15 23.5523 15 23C15 22.4477 15.4477 22 16 22C16.5523 22 17 22.4477 17 23Z" fill="white"/>
</g>
<defs>
<clipPath id="clip0_1229_1138">
<rect width="24" height="24" fill="white" transform="translate(0.000488281)"/>
</clipPath>
</defs>
</svg>
