<svg width="24" height="24" viewBox="0 0 24 24" fill="none" xmlns="http://www.w3.org/2000/svg">
<g clip-path="url(#clip0_1390_1184)">
<path fill-rule="evenodd" clip-rule="evenodd" d="M21 1.5H3C2.17157 1.5 1.5 2.17157 1.5 3V21C1.5 21.8284 2.17157 22.5 3 22.5H21C21.8284 22.5 22.5 21.8284 22.5 21V3C22.5 2.17157 21.8284 1.5 21 1.5ZM3 0C1.34315 0 0 1.34315 0 3V21C0 22.6569 1.34315 24 3 24H21C22.6569 24 24 22.6569 24 21V3C24 1.34315 22.6569 0 21 0H3Z" fill="white"/>
<path fill-rule="evenodd" clip-rule="evenodd" d="M13.5 5.5H10.5V10.5H5.5V13.5H10.5V18.5H13.5V13.5H18.5V10.5H13.5V5.5Z" fill="white"/>
</g>
<defs>
<clipPath id="clip0_1390_1184">
<rect width="24" height="24" fill="white"/>
</clipPath>
</defs>
</svg>
