<svg width="24" height="24" viewBox="0 0 24 24" fill="none" xmlns="http://www.w3.org/2000/svg">
<g clip-path="url(#clip0_1230_1198)">
<path fill-rule="evenodd" clip-rule="evenodd" d="M13 0H11V3H13V0ZM11 21V24H13V21H11ZM19 12C19 15.866 15.866 19 12 19C8.13401 19 5 15.866 5 12C5 8.13401 8.13401 5 12 5C15.866 5 19 8.13401 19 12ZM12 7C9.23858 7 7 9.23858 7 12C7 14.7614 9.23858 17 12 17V7ZM2.80762 4.2218L4.22183 2.80759L6.34315 4.92891L4.92894 6.34312L2.80762 4.2218ZM17.6569 19.071L19.0711 17.6568L21.1924 19.7782L19.7782 21.1924L17.6569 19.071ZM21.1924 4.22183L19.7782 2.80762L17.6569 4.92894L19.0711 6.34315L21.1924 4.22183ZM6.34317 19.0711L4.92896 17.6569L2.80764 19.7782L4.22185 21.1924L6.34317 19.0711ZM21 11H24V13H21V11ZM3 11V13H0L8.74279e-08 11H3Z" fill="white"/>
</g>
<defs>
<clipPath id="clip0_1230_1198">
<rect width="24" height="24" fill="white" transform="translate(0.000488281)"/>
</clipPath>
</defs>
</svg>
