<svg width="24" height="24" viewBox="0 0 24 24" fill="none" xmlns="http://www.w3.org/2000/svg">
<path fill-rule="evenodd" clip-rule="evenodd" d="M1.99951 2C1.44723 2 0.999512 2.44772 0.999512 3V10C0.999512 10.5523 1.44723 11 1.99951 11H6.99951V9C6.99951 7.89543 7.89494 7 8.99951 7H14.9995C16.1041 7 16.9995 7.89543 16.9995 9V11H21.9995C22.5518 11 22.9995 10.5523 22.9995 10V3C22.9995 2.44772 22.5518 2 21.9995 2H1.99951ZM6.99951 13H1.99951V20C1.99951 21.1046 2.89494 22 3.99951 22H19.9995C21.1041 22 21.9995 21.1046 21.9995 20V13H16.9995V15C16.9995 16.1046 16.1041 17 14.9995 17H8.99951C7.89494 17 6.99951 16.1046 6.99951 15V13ZM8.99951 10C8.99951 9.44772 9.44723 9 9.99951 9H13.9995C14.5518 9 14.9995 9.44772 14.9995 10V14C14.9995 14.5523 14.5518 15 13.9995 15H9.99951C9.44723 15 8.99951 14.5523 8.99951 14V10ZM10.9995 13H12.9995V11H10.9995V13Z" fill="white"/>
</svg>
