<svg width="24" height="24" viewBox="0 0 24 24" fill="none" xmlns="http://www.w3.org/2000/svg">
<path fill-rule="evenodd" clip-rule="evenodd" d="M2 2C1.44772 2 1 2.44772 1 3V10C1 10.5523 1.44772 11 2 11H7V9C7 7.89543 7.89543 7 9 7H15C16.1046 7 17 7.89543 17 9V11H22C22.5523 11 23 10.5523 23 10V3C23 2.44772 22.5523 2 22 2H2ZM7 13H2V20C2 21.1046 2.89543 22 4 22H20C21.1046 22 22 21.1046 22 20V13H17V15C17 16.1046 16.1046 17 15 17H9C7.89543 17 7 16.1046 7 15V13ZM9 10C9 9.44772 9.44772 9 10 9H14C14.5523 9 15 9.44772 15 10V14C15 14.5523 14.5523 15 14 15H10C9.44772 15 9 14.5523 9 14V10ZM11 13H13V11H11V13Z" fill="white"/>
</svg>
