<svg width="24" height="24" viewBox="0 0 24 24" fill="none" xmlns="http://www.w3.org/2000/svg">
<path fill-rule="evenodd" clip-rule="evenodd" d="M7 1.5C7 2.32843 6.32843 3 5.5 3C4.67157 3 4 2.32843 4 1.5C4 0.671573 4.67157 0 5.5 0C6.32843 0 7 0.671573 7 1.5ZM12.3536 0.353553C12.1583 0.158291 11.8417 0.158291 11.6464 0.353553L4.35355 7.64645C4.15829 7.84171 4.15829 8.15829 4.35355 8.35355L11 15V17.126C9.27477 17.5701 8 19.1362 8 21V24H16V21C16 19.1362 14.7252 17.5701 13 17.126V15L19.6464 8.35355C19.8417 8.15829 19.8417 7.84171 19.6464 7.64645L12.3536 0.353553ZM11.8668 10.8284C10.3047 10.8284 9.03837 9.5621 9.03837 8C9.03837 6.4379 10.3047 5.17157 11.8668 5.17157C13.4289 5.17157 14.6952 6.4379 14.6952 8C14.6952 9.5621 13.4289 10.8284 11.8668 10.8284ZM5.5 16C6.32843 16 7 15.3284 7 14.5C7 13.6716 6.32843 13 5.5 13C4.67157 13 4 13.6716 4 14.5C4 15.3284 4.67157 16 5.5 16ZM20 1.5C20 2.32843 19.3284 3 18.5 3C17.6716 3 17 2.32843 17 1.5C17 0.671573 17.6716 0 18.5 0C19.3284 0 20 0.671573 20 1.5ZM18.5 16C19.3284 16 20 15.3284 20 14.5C20 13.6716 19.3284 13 18.5 13C17.6716 13 17 13.6716 17 14.5C17 15.3284 17.6716 16 18.5 16Z" fill="white"/>
</svg>
