<svg width="24" height="24" viewBox="0 0 24 24" fill="none" xmlns="http://www.w3.org/2000/svg">
<path fill-rule="evenodd" clip-rule="evenodd" d="M14.5651 4.42007L12 1L9.43495 4.42007C9.09752 4.53422 8.77019 4.67026 8.45464 4.82651L4.22178 4.22182L4.82648 8.45471C4.67024 8.77023 4.53421 9.09754 4.42007 9.43495L1 12L4.42007 14.5651C4.53421 14.9025 4.67024 15.2298 4.82648 15.5453L4.22178 19.7782L8.45464 19.1735C8.77019 19.3297 9.09752 19.4658 9.43495 19.5799L12 23L14.5651 19.5799C14.9025 19.4658 15.2298 19.3298 15.5453 19.1735L19.7782 19.7782L19.1735 15.5454C19.3297 15.2298 19.4658 14.9025 19.5799 14.5651L23 12L19.5799 9.43495C19.4658 9.09752 19.3297 8.77019 19.1735 8.45464L19.7782 4.22178L15.5453 4.82648C15.2298 4.67024 14.9025 4.53421 14.5651 4.42007ZM12 17C14.7614 17 17 14.7614 17 12C17 9.23858 14.7614 7 12 7C9.23858 7 7 9.23858 7 12C7 14.7614 9.23858 17 12 17Z" fill="white"/>
</svg>
