<svg width="25" height="24" viewBox="0 0 25 24" fill="none" xmlns="http://www.w3.org/2000/svg">
<path fill-rule="evenodd" clip-rule="evenodd" d="M13 24C19.6274 24 25 18.6274 25 12C25 5.37258 19.6274 0 13 0C6.37258 0 1 5.37258 1 12C1 18.6274 6.37258 24 13 24ZM8.78339 16.6233L8.78341 16.6233L5.32874 13.1686L7.57646 10.9209L11.0311 14.3755L18.7523 6.65442L21 8.90214L13.2789 16.6233L13.2789 16.6233L11.0312 18.871L11.0311 18.871L11.0311 18.871L8.78339 16.6233Z" fill="white" fill-opacity="0.06"/>
<path fill-rule="evenodd" clip-rule="evenodd" d="M21.4853 20.4853C19.3137 22.6569 16.3137 24.0001 13 24.0001C6.37258 24.0001 1 18.6275 1 12.0001C1 8.68634 2.34315 5.68634 4.51472 3.51477L13.2033 12.2034L11.0311 14.3756L7.57646 10.9209L5.32874 13.1686L8.78341 16.6233L8.78339 16.6233L11.0311 18.8711L11.0311 18.871L11.0312 18.8711L13.2789 16.6233L13.2789 16.6233L15.4511 14.4511L21.4853 20.4853Z" fill="white"/>
</svg>
