<svg width="25" height="24" viewBox="0 0 25 24" fill="none" xmlns="http://www.w3.org/2000/svg">
<g clip-path="url(#clip0_2274_3039)">
<path fill-rule="evenodd" clip-rule="evenodd" d="M21.8043 6.09331C21.8043 6.09331 19.0576 3.33331 12.0576 3.33331C5.05762 3.33331 2.31095 6.09331 2.31095 6.09331C2.31095 6.09331 0.0576172 13.7066 0.0576172 16.8C0.0576172 19.12 3.39095 20.6666 3.39095 20.6666L7.39095 16.6666H16.7243L20.7243 20.6666C20.7243 20.6666 24.0576 19.12 24.0576 16.8C24.0576 13.7066 21.8043 6.09331 21.8043 6.09331ZM10.0576 11.3333H8.05762V13.3333H6.05762V11.3333H4.05762V9.33331H6.05762V7.33331H8.05762V9.33331H10.0576V11.3333ZM14.391 13.3333C14.0613 13.3333 13.7391 13.2356 13.465 13.0524C13.1909 12.8693 12.9773 12.609 12.8512 12.3045C12.725 11.9999 12.692 11.6648 12.7563 11.3415C12.8206 11.0182 12.9794 10.7212 13.2124 10.4881C13.4455 10.255 13.7425 10.0963 14.0658 10.032C14.3891 9.96769 14.7242 10.0007 15.0288 10.1268C15.3333 10.253 15.5936 10.4666 15.7767 10.7407C15.9599 11.0148 16.0576 11.337 16.0576 11.6666C16.0576 11.8855 16.0145 12.1022 15.9307 12.3045C15.847 12.5067 15.7242 12.6904 15.5695 12.8452C15.4147 12.9999 15.231 13.1227 15.0288 13.2064C14.8265 13.2902 14.6098 13.3333 14.391 13.3333ZM18.391 10.6666C18.0613 10.6666 17.7391 10.5689 17.465 10.3858C17.1909 10.2026 16.9773 9.94233 16.8512 9.63779C16.725 9.33324 16.692 8.99813 16.7563 8.67483C16.8206 8.35153 16.9794 8.05456 17.2124 7.82147C17.4455 7.58838 17.7425 7.42965 18.0658 7.36534C18.3891 7.30103 18.7242 7.33403 19.0288 7.46018C19.3333 7.58633 19.5936 7.79995 19.7767 8.07403C19.9599 8.34811 20.0576 8.67034 20.0576 8.99998C20.0576 9.44201 19.882 9.86593 19.5695 10.1785C19.2569 10.4911 18.833 10.6666 18.391 10.6666Z" fill="white"/>
</g>
<defs>
<clipPath id="clip0_2274_3039">
<rect width="24" height="24" fill="white" transform="translate(0.0576172)"/>
</clipPath>
</defs>
</svg>
