<svg width="24" height="24" viewBox="0 0 24 24" fill="none" xmlns="http://www.w3.org/2000/svg">
<path d="M4.79799 12.1841L5.35472 12.7994C8.25905 16.0094 9.42594 18.7019 10.6116 23L10.6567 22.7067C11.3223 18.38 10.9829 15.2978 9.66465 11.1234C8.90782 8.72675 7.38061 6.64719 5.32031 5.2078L2.06862 2.93607C4.5478 3.23759 5.2802 3.75293 6.65 4.38856C9.97708 2.95662 13.3537 2.95481 16.68 4.38856C18.0498 3.75293 18.7822 3.23759 21.2614 2.93607L18.0097 5.2078C15.9494 6.64719 14.4222 8.72675 13.6653 11.1234C12.3471 15.2978 12.0077 18.38 12.6733 22.7067L12.7184 23C13.9041 18.7019 15.0709 16.0094 17.9753 12.7994L18.532 12.1841L20.1175 15.3551L20.485 12.7827C20.9424 9.58126 21.8539 6.46141 23.1921 3.51734L23.2533 3.3828C23.5093 2.81952 23.0845 2.27276 22.5709 2.23507L19.6017 1.63407C14.3662 0.57435 8.97152 0.573975 3.73589 1.63297L0.759156 2.23506C0.245571 2.2727 -0.179324 2.81949 0.0767285 3.3828L0.137883 3.51734C1.47609 6.46141 2.38764 9.58126 2.84498 12.7827L3.21247 15.3551L4.79799 12.1841Z" fill="white"/>
</svg>
