<svg width="24" height="24" viewBox="0 0 24 24" fill="none" xmlns="http://www.w3.org/2000/svg">
<g clip-path="url(#clip0_1143_1130)">
<path fill-rule="evenodd" clip-rule="evenodd" d="M6.87935 3.74304C8.03903 1.61687 9.80551 0 12 0C14.1945 0 15.961 1.61687 17.1207 3.74304C17.4829 4.4072 17.7998 5.1427 18.0651 5.93487C18.8573 6.20017 19.5928 6.51709 20.257 6.87935C22.3831 8.03903 24 9.80551 24 12C24 14.1945 22.3831 15.961 20.257 17.1207C18.093 18.301 15.1718 19 12 19C10.7222 19 9.48502 18.8865 8.32168 18.6739C8.42172 18.8911 8.52635 19.0998 8.63515 19.2993C9.63717 21.1364 10.8566 21.9835 11.9674 21.9998C12.4895 21.9595 12.9958 21.8017 13.4486 21.5381C13.9113 21.2687 14.3055 20.896 14.6004 20.4492L15.1512 19.6146L16.8204 20.7162L16.2696 21.5508C15.805 22.2549 15.1839 22.842 14.4549 23.2665C13.7259 23.691 12.9087 23.9412 12.067 23.9978L12.0335 24H12C9.80551 24 8.03903 22.3831 6.87935 20.257C6.51709 19.5928 6.20016 18.8573 5.93487 18.0651C5.1427 17.7998 4.4072 17.4829 3.74304 17.1207C1.61687 15.961 0 14.1945 0 12V11.9665L0.00224859 11.933C0.0587873 11.0913 0.309048 10.2741 0.733501 9.54509C1.15795 8.81609 1.74512 8.19503 2.44918 7.73038L3.2838 7.17955L4.38545 8.8488L3.55082 9.39962C3.10396 9.69454 2.73128 10.0887 2.46188 10.5514C2.19827 11.0042 2.04052 11.5105 2.00024 12.0326C2.01648 13.1434 2.86361 14.3628 4.70071 15.3648C4.9002 15.4737 5.10887 15.5783 5.32613 15.6783C5.11346 14.515 5 13.2778 5 12C5 8.82817 5.69905 5.90701 6.87935 3.74304ZM17 12C17 10.3899 16.8019 8.87958 16.4564 7.54359C15.1204 7.19807 13.6101 7 12 7C11.6817 7 11.3661 7.00942 11.0516 7.02567L10.0529 7.07727L9.94973 5.07994L10.9484 5.02833C11.2919 5.01058 11.6423 5 12 5C13.2778 5 14.515 5.11346 15.6783 5.32613C15.5783 5.10887 15.4737 4.9002 15.3648 4.70071C14.353 2.84563 13.1195 2 12 2C10.8805 2 9.64697 2.84563 8.63515 4.70071C7.64395 6.51799 7 9.09683 7 12C7 13.6101 7.19807 15.1204 7.54358 16.4564C8.87958 16.8019 10.3899 17 12 17C14.9032 17 17.482 16.356 19.2993 15.3648C21.1544 14.353 22 13.1195 22 12C22 10.8805 21.1544 9.64697 19.2993 8.63515C19.0998 8.52635 18.8911 8.42172 18.6739 8.32168C18.8865 9.48502 19 10.7222 19 12C19 12.3577 18.9894 12.7081 18.9717 13.0516L18.9201 14.0503L16.9227 13.9471L16.9743 12.9484C16.9906 12.6339 17 12.3183 17 12ZM12 10C10.8954 10 10 10.8954 10 12C10 13.1046 10.8954 14 12 14C13.1046 14 14 13.1046 14 12C14 10.8954 13.1046 10 12 10Z" fill="white"/>
</g>
<defs>
<clipPath id="clip0_1143_1130">
<rect width="24" height="24" fill="white" transform="translate(0.000488281)"/>
</clipPath>
</defs>
</svg>
