<svg width="24" height="24" viewBox="0 0 24 24" fill="none" xmlns="http://www.w3.org/2000/svg">
<g clip-path="url(#clip0_1202_1114)">
<path fill-rule="evenodd" clip-rule="evenodd" d="M12 0C5.383 0 0 5.383 0 12C0 18.617 5.383 24 12 24C18.617 24 24 18.617 24 12C24 5.383 18.617 0 12 0ZM4.71735 6.71735C3.63754 8.20191 3 10.0279 3 12C3 16.9627 7.03725 21 12 21C13.9721 21 15.7981 20.3625 17.2826 19.2826L4.71735 6.71735ZM6.85902 4.61638L19.3836 17.141C20.4021 15.6826 21 13.9098 21 12C21 7.03725 16.9627 3 12 3C10.0902 3 8.31738 3.59791 6.85902 4.61638Z" fill="white"/>
</g>
<defs>
<clipPath id="clip0_1202_1114">
<rect width="24" height="24" fill="white" transform="translate(0.000488281)"/>
</clipPath>
</defs>
</svg>
