<svg width="24" height="24" viewBox="0 0 24 24" fill="none" xmlns="http://www.w3.org/2000/svg">
<g clip-path="url(#clip0_1504_1807)">
<path fill-rule="evenodd" clip-rule="evenodd" d="M0 4H5C5.55228 4 6 3.55228 6 3V1L7.63576 2.09051C8.42901 2.61934 9.48525 2.51475 10.1594 1.84062L12 0L13.8406 1.84062C14.5148 2.51475 15.571 2.61934 16.3642 2.09051L18 1V3C18 3.55228 18.4477 4 19 4H24L23 6L20.8906 7.40627C20.3342 7.7772 20 8.40166 20 9.07037V11.0316C20 11.3284 19.8682 11.6099 19.6402 11.7998L17.7196 13.4003C17.2636 13.7803 17 14.3432 17 14.9367V17.6168C17 18.4428 16.4714 19.1762 15.6878 19.4374C14.6534 19.7822 13.513 19.513 12.742 18.742L12 18L11.258 18.742C10.487 19.513 9.3466 19.7822 8.31221 19.4374C7.52857 19.1762 7 18.4428 7 17.6168V14.9367C7 14.3432 6.73635 13.7803 6.28037 13.4003L4.35982 11.7998C4.13182 11.6099 4 11.3284 4 11.0316V9.07037C4 8.40166 3.6658 7.7772 3.1094 7.40627L1 6L0 4ZM6 6L7.65576 7.65576C7.88376 7.88376 8.07352 8.14703 8.21772 8.43544L10 12L7.51493 11.3787C6.62459 11.1561 6 10.3562 6 9.43845V6ZM16.3442 7.65576L18 6V9.43845C18 10.3562 17.3754 11.1561 16.4851 11.3787L14 12L15.7823 8.43544C15.9265 8.14703 16.1162 7.88376 16.3442 7.65576ZM10 14L11.1679 15.7519C11.5638 16.3457 12.4362 16.3457 12.8321 15.7519L14 14V16.382C14 16.7607 13.786 17.107 13.4472 17.2764L12.8944 17.5528C12.3314 17.8343 11.6686 17.8343 11.1056 17.5528L10.5528 17.2764C10.214 17.107 10 16.7607 10 16.382V14ZM7 21.1404C7 20.8151 7.30569 20.5764 7.62127 20.6553L8.31168 20.8279C8.64712 20.9118 8.79823 21.3026 8.60644 21.5903L7 24V21.1404ZM17 21.1404C17 20.8151 16.6943 20.5764 16.3787 20.6553L15.6883 20.8279C15.3529 20.9118 15.2018 21.3026 15.3936 21.5903L17 24V21.1404Z" fill="white"/>
</g>
<defs>
<clipPath id="clip0_1504_1807">
<rect width="24" height="24" fill="white"/>
</clipPath>
</defs>
</svg>
