<svg width="24" height="24" viewBox="0 0 24 24" fill="none" xmlns="http://www.w3.org/2000/svg">
<path fill-rule="evenodd" clip-rule="evenodd" d="M23 1.5C23 1.22386 22.7761 1 22.5 1H1.5C1.22386 1 1 1.22386 1 1.5V16.5C1 16.7761 1.22386 17 1.5 17H22.5C22.7761 17 23 16.7761 23 16.5V1.5ZM21 3.5C21 3.22386 20.7761 3 20.5 3H3.5C3.22386 3 3 3.22386 3 3.5V11.5C3 11.7761 3.22386 12 3.5 12H20.5C20.7761 12 21 11.7761 21 11.5V3.5ZM3 18.5C3 18.2239 3.22386 18 3.5 18H20.5C20.7761 18 21 18.2239 21 18.5V19.5C21 19.7761 20.7761 20 20.5 20H3.5C3.22386 20 3 19.7761 3 19.5V18.5ZM19 21.5C19 21.2239 18.7761 21 18.5 21H5.5C5.22386 21 5 21.2239 5 21.5V22.5C5 22.7761 5.22386 23 5.5 23H18.5C18.7761 23 19 22.7761 19 22.5V21.5Z" fill="white"/>
</svg>
