<svg width="24" height="24" viewBox="0 0 24 24" fill="none" xmlns="http://www.w3.org/2000/svg">
<path fill-rule="evenodd" clip-rule="evenodd" d="M18.414 7.999L20.414 5.999C20.792 5.621 21 5.119 21 4.585C21 4.051 20.792 3.548 20.414 3.171L18.828 1.585C18.049 0.805 16.779 0.805 16 1.585L14 3.585L18.414 7.999ZM22 22.999H2C1.447 22.999 1 22.551 1 21.999C1 21.447 1.447 20.999 2 20.999H22C22.553 20.999 23 21.447 23 21.999C23 22.551 22.553 22.999 22 22.999ZM5.29302 12.292L12.586 4.99902L17 9.41302L9.70702 16.706C9.61102 16.802 9.49702 16.878 9.37102 16.928L4.37102 18.928C4.25102 18.976 4.12502 18.999 4.00002 18.999C3.74002 18.999 3.48402 18.897 3.29302 18.706C3.00902 18.423 2.92302 17.999 3.07102 17.627L5.07102 12.627C5.12202 12.502 5.19702 12.388 5.29302 12.292Z" fill="white"/>
</svg>
