<svg width="24" height="24" viewBox="0 0 24 24" fill="none" xmlns="http://www.w3.org/2000/svg">
<g clip-path="url(#clip0_1038_1800)">
<path d="M17 21H6.99999C6.86658 20.992 6.73298 21.0123 6.60802 21.0598C6.48306 21.1072 6.36958 21.1806 6.27507 21.2751C6.18057 21.3696 6.10718 21.4831 6.05976 21.608C6.01235 21.733 5.99197 21.8666 5.99999 22C5.99197 22.1334 6.01235 22.267 6.05976 22.392C6.10718 22.5169 6.18057 22.6304 6.27507 22.7249C6.36958 22.8194 6.48306 22.8928 6.60802 22.9402C6.73298 22.9876 6.86658 23.008 6.99999 23H17C17.1334 23.008 17.267 22.9876 17.392 22.9402C17.5169 22.8928 17.6304 22.8194 17.7249 22.7249C17.8194 22.6304 17.8928 22.5169 17.9402 22.392C17.9876 22.267 18.008 22.1334 18 22C18.008 21.8666 17.9876 21.733 17.9402 21.608C17.8928 21.4831 17.8194 21.3696 17.7249 21.2751C17.6304 21.1806 17.5169 21.1072 17.392 21.0598C17.267 21.0123 17.1334 20.992 17 21Z" fill="white"/>
<path d="M0 5H10L9.58835 2.94174C9.28398 1.41988 10.448 0 12 0C13.552 0 14.716 1.41988 14.4117 2.94174L14 5H24L22.5528 7.89443C22.214 8.572 21.5215 9 20.7639 9H18L19.5 10.5L19.4558 10.6325C19.1836 11.4491 18.4193 12 17.5585 12H16L17 19H7L8 12.1208L6.3801 12.0556C5.54945 12.0221 4.82611 11.4783 4.56322 10.6897L4.5 10.5L6 9H3.23607C2.47852 9 1.786 8.572 1.44721 7.89443L0 5Z" fill="white"/>
</g>
<defs>
<clipPath id="clip0_1038_1800">
<rect width="24" height="24" fill="white"/>
</clipPath>
</defs>
</svg>
