<svg width="24" height="24" viewBox="0 0 24 24" fill="none" xmlns="http://www.w3.org/2000/svg">
<path fill-rule="evenodd" clip-rule="evenodd" d="M22.6685 14.6907C22.885 13.8296 23 12.9282 23 12C23 5.92487 18.0751 1 12 1C5.92487 1 1 5.92487 1 12C1 12.9129 1.1112 13.7998 1.3208 14.6479C3.77362 14.9422 5.67488 17.0303 5.67488 19.5624C5.67488 20.0166 5.6137 20.4566 5.49914 20.8744C7.32031 22.2108 9.56799 23 12 23C14.5357 23 16.871 22.142 18.7315 20.7005C18.6455 20.3351 18.6 19.9541 18.6 19.5624C18.6 17.1295 20.3553 15.1065 22.6685 14.6907ZM8.57293 5.95248C8.57286 7.32753 9.65806 7.87751 11.489 7.87751C13.32 7.87751 16.1684 8.84006 16.1684 11.7276C16.1684 11.7276 14.6086 12.2776 14.6764 13.6527C14.7079 14.293 15.166 14.7842 15.6533 15.3068C16.2125 15.9065 16.8103 16.5476 16.8466 17.5027C19.6949 15.6464 19.6949 11.7276 19.6949 11.7276C19.8982 5.95248 14.3374 3.9587 12.1672 3.95869C9.99701 3.95868 8.573 4.57742 8.57293 5.95248ZM15.4279 17.3649C15.428 15.9898 14.3428 15.4399 12.5118 15.4399C10.6808 15.4399 7.83244 14.4773 7.83244 11.5898C7.83244 11.5898 9.39222 11.0398 9.32447 9.66471C9.29292 9.02439 8.83486 8.53316 8.34751 8.01052C7.78831 7.41083 7.19054 6.76978 7.15427 5.81466C4.30597 7.67092 4.30597 11.5898 4.30597 11.5898C4.10259 17.3649 9.66342 19.3587 11.8336 19.3587C14.0038 19.3587 15.4278 18.7399 15.4279 17.3649ZM13.8338 11.7092C13.8338 12.7218 13.013 13.5426 12.0005 13.5426C10.9879 13.5426 10.1671 12.7218 10.1671 11.7092C10.1671 10.6967 10.9879 9.8759 12.0005 9.8759C13.013 9.8759 13.8338 10.6967 13.8338 11.7092Z" fill="white"/>
</svg>
