<svg width="24" height="24" viewBox="0 0 24 24" fill="none" xmlns="http://www.w3.org/2000/svg">
<path fill-rule="evenodd" clip-rule="evenodd" d="M22.9995 5.00006H20.6045C20.8455 4.52365 20.9803 4.00062 20.9995 3.46706C20.9648 2.52382 20.5611 1.63193 19.8752 0.983469C19.1893 0.335009 18.2762 -0.0181445 17.3325 6.0086e-05C16.2084 0.0484749 15.1186 0.401217 14.1794 1.02063C13.2401 1.64005 12.4867 2.50289 11.9995 3.51706C11.5175 2.50573 10.7698 1.64434 9.83636 1.02489C8.90288 0.405447 7.81866 0.051223 6.69951 6.0086e-05H6.58551C5.65531 0.00154975 4.76192 0.36364 4.09316 1.0102C3.4244 1.65677 3.03238 2.53744 2.99951 3.46706V3.53306C3.01902 4.0436 3.14829 4.54395 3.37851 5.00006H0.999512C0.734295 5.00006 0.479941 5.10542 0.292405 5.29295C0.104869 5.48049 -0.000488281 5.73484 -0.000488281 6.00006V8.00006C-0.000488281 8.26528 0.104869 8.51963 0.292405 8.70717C0.479941 8.8947 0.734295 9.00006 0.999512 9.00006H22.9995C23.2647 9.00006 23.5191 8.8947 23.7066 8.70717C23.8942 8.51963 23.9995 8.26528 23.9995 8.00006V6.00006C23.9995 5.73484 23.8942 5.48049 23.7066 5.29295C23.5191 5.10542 23.2647 5.00006 22.9995 5.00006ZM17.3635 2.00006C17.772 1.98946 18.169 2.13553 18.4732 2.4083C18.7774 2.68107 18.9657 3.05988 18.9995 3.46706C18.9853 3.87638 18.8136 4.2644 18.5201 4.55006C18.2266 4.83573 17.8341 4.99695 17.4245 5.00006H13.4775C14.0995 3.74106 15.3365 2.00006 17.3635 2.00006ZM4.99951 3.50006C5.02511 3.09085 5.20683 2.70708 5.50717 2.42796C5.8075 2.14884 6.20353 1.99567 6.61351 2.00006C8.68251 2.00806 9.89451 3.73106 10.5235 5.00006H6.62351C6.2129 5.00315 5.81652 4.84982 5.51488 4.57121C5.21324 4.2926 5.02898 3.90962 4.99951 3.50006ZM12.9995 11V22H18.9995C19.7952 22 20.5582 21.6839 21.1208 21.1213C21.6834 20.5587 21.9995 19.7957 21.9995 19V11H12.9995ZM1.99951 11H10.9995V22H4.99951C4.20386 22 3.4408 21.6839 2.87819 21.1213C2.31558 20.5587 1.99951 19.7957 1.99951 19V11Z" fill="white"/>
</svg>
