<svg width="24" height="24" viewBox="0 0 24 24" fill="none" xmlns="http://www.w3.org/2000/svg">
<path fill-rule="evenodd" clip-rule="evenodd" d="M15.0128 7.57982L21.3058 1.28682C21.4944 1.10466 21.747 1.00386 22.0092 1.00614C22.2714 1.00842 22.5222 1.11359 22.7076 1.299C22.893 1.4844 22.9982 1.73522 23.0005 1.99741C23.0027 2.25961 22.9019 2.51221 22.7198 2.70082L15.7198 9.70082C15.5322 9.88829 15.2779 9.9936 15.0128 9.9936C14.7476 9.9936 14.4933 9.88829 14.3058 9.70082L9.01278 4.40782L2.71978 10.7008C2.62753 10.7963 2.51719 10.8725 2.39518 10.9249C2.27318 10.9773 2.14196 11.0049 2.00918 11.0061C1.8764 11.0072 1.74472 10.9819 1.62182 10.9316C1.49893 10.8814 1.38727 10.8071 1.29338 10.7132C1.19949 10.6193 1.12524 10.5077 1.07495 10.3848C1.02467 10.2619 0.999372 10.1302 1.00053 9.99741C1.00168 9.86464 1.02927 9.73341 1.08168 9.61141C1.13408 9.48941 1.21027 9.37906 1.30578 9.28682L8.30578 2.28682C8.4933 2.09934 8.74761 1.99403 9.01278 1.99403C9.27794 1.99403 9.53225 2.09934 9.71978 2.28682L15.0128 7.57982ZM11.0128 10.9939H7.01282V22.9939H11.0128V10.9939ZM1.01282 17.9939H5.01282V22.9939H1.01282V17.9939ZM13.0128 17.9939H17.0128V22.9939H13.0128V17.9939ZM19.0128 10.9939H23.0128V22.9939H19.0128V10.9939Z" fill="white"/>
</svg>
