<svg width="24" height="24" viewBox="0 0 24 24" fill="none" xmlns="http://www.w3.org/2000/svg">
<path fill-rule="evenodd" clip-rule="evenodd" d="M3.5 5C3.22386 5 3 5.22386 3 5.5V10.5C3 10.7761 3.22386 11 3.5 11H7.5C7.77614 11 8 10.7761 8 10.5V5.5C8 5.22386 7.77614 5 7.5 5H3.5ZM3.5 13C3.22386 13 3 13.2239 3 13.5V18.5C3 18.7761 3.22386 19 3.5 19H7.5C7.77614 19 8 18.7761 8 18.5V13.5C8 13.2239 7.77614 13 7.5 13H3.5ZM10 5.5C10 5.22386 10.2239 5 10.5 5H14.5C14.7761 5 15 5.22386 15 5.5V10.5C15 10.7761 14.7761 11 14.5 11H10.5C10.2239 11 10 10.7761 10 10.5V5.5ZM10.5 13C10.2239 13 10 13.2239 10 13.5V18.5C10 18.7761 10.2239 19 10.5 19H14.5C14.7761 19 15 18.7761 15 18.5V13.5C15 13.2239 14.7761 13 14.5 13H10.5ZM17 5.5C17 5.22386 17.2239 5 17.5 5H21.5C21.7761 5 22 5.22386 22 5.5V10.5C22 10.7761 21.7761 11 21.5 11H17.5C17.2239 11 17 10.7761 17 10.5V5.5ZM17.5 13C17.2239 13 17 13.2239 17 13.5V18.5C17 18.7761 17.2239 19 17.5 19H21.5C21.7761 19 22 18.7761 22 18.5V13.5C22 13.2239 21.7761 13 21.5 13H17.5Z" fill="white"/>
</svg>
