<svg width="25" height="24" viewBox="0 0 25 24" fill="none" xmlns="http://www.w3.org/2000/svg">
<path fill-rule="evenodd" clip-rule="evenodd" d="M14.4142 1.41422C13.6331 0.633168 12.3668 0.633168 11.5857 1.41422L2.41416 10.5858C1.63311 11.3668 1.63311 12.6332 2.41416 13.4142L11.5857 22.5858C12.3668 23.3668 13.6331 23.3668 14.4142 22.5858L23.5857 13.4142C24.3668 12.6332 24.3668 11.3668 23.5857 10.5858L14.4142 1.41422ZM12.7337 6.02847C13.8673 5.94596 15.0357 6.14223 15.8882 6.8362C17.1642 7.87587 17.1563 9.67165 16.504 10.7159C16.2157 11.1777 15.6968 11.6576 14.9936 12.1597C14.4297 12.5768 14.2303 12.782 14.1462 12.9366C14.0726 13.0718 14.0701 13.1892 14.0701 13.596V13.9951H11.3107V13.596L11.3106 13.5137C11.3097 12.9683 11.3088 12.4358 11.6674 11.8153C11.9094 11.3956 12.3303 10.9838 12.8875 10.5754L12.8914 10.5725C13.2237 10.3351 13.5024 10.1347 13.7047 9.90844C13.8957 9.69487 13.9975 9.48095 13.9975 9.21706C13.9975 8.99106 13.9123 8.87245 13.7823 8.79031C13.6264 8.69189 13.3762 8.63198 13.05 8.63198C12.3947 8.63198 11.6146 8.84718 10.7004 9.3139L10.3413 9.49719L9.1852 7.17577L9.51676 6.98993C10.4274 6.47953 11.5936 6.11145 12.7337 6.02847ZM11.1279 16.3898C11.1279 15.5084 11.843 14.7934 12.7243 14.7934C13.6057 14.7934 14.3208 15.5084 14.3208 16.3898C14.3208 17.2711 13.6057 17.9862 12.7243 17.9862C11.843 17.9862 11.1279 17.2711 11.1279 16.3898Z" fill="white"/>
</svg>
