<svg width="24" height="24" viewBox="0 0 24 24" fill="none" xmlns="http://www.w3.org/2000/svg">
<path fill-rule="evenodd" clip-rule="evenodd" d="M12 23C18.0751 23 23 18.0751 23 12C23 5.92487 18.0751 1 12 1C5.92487 1 1 5.92487 1 12C1 18.0751 5.92487 23 12 23ZM10.0004 17.5C10.0004 18.328 10.6724 19 11.5004 19C12.3284 19 13.0004 18.328 13.0004 17.5C13.0004 16.672 12.3284 16 11.5004 16C10.6724 16 10.0004 16.672 10.0004 17.5ZM14.0494 11.796C14.9154 11.178 15.5024 10.622 15.8114 10.127C16.5224 8.989 16.5144 7.032 15.1484 5.919C13.2874 4.404 9.88344 4.951 7.72644 6.16L8.73744 8.19C9.92444 7.584 10.9814 7.281 11.9084 7.281C12.8174 7.281 13.5954 7.605 13.5954 8.514C13.5954 9.47948 12.8168 10.0358 12.0118 10.6109L12.0004 10.619C11.3264 11.113 10.8624 11.58 10.6094 12.019C10.2284 12.6782 10.2288 13.2244 10.2294 13.9178C10.2294 13.945 10.2294 13.9724 10.2294 14H12.6864C12.6864 13.9754 12.6864 13.9513 12.6864 13.9277C12.6854 13.0494 12.6852 12.8048 14.0494 11.796Z" fill="white"/>
</svg>
