<svg width="24" height="24" viewBox="0 0 24 24" fill="none" xmlns="http://www.w3.org/2000/svg">
<path fill-rule="evenodd" clip-rule="evenodd" d="M1 3C0.447715 3 0 3.44772 0 4V20C0 20.5523 0.447716 21 1 21H23C23.5523 21 24 20.5523 24 20V4C24 3.44772 23.5523 3 23 3H1ZM5 5.5C5 5.22386 5.22386 5 5.5 5H18.5C18.7761 5 19 5.22386 19 5.5V18.5C19 18.7761 18.7761 19 18.5 19H5.5C5.22386 19 5 18.7761 5 18.5V5.5ZM15.1802 7.22449C15.2629 7.20426 15.3362 7.18489 15.4024 7.16736C15.8129 7.05883 15.9545 7.02138 16.3897 7.29549C16.7798 7.54056 16.8952 7.615 16.8964 7.81427L16.888 7.80854C16.8762 7.83381 16.8561 7.85471 16.8309 7.86809C16.8522 7.86469 16.8736 7.86277 16.8952 7.86237C16.889 7.94254 16.8696 8.04177 16.8439 8.1733C16.835 8.21838 16.8255 8.26725 16.8155 8.32045C16.7275 8.80526 16.6387 9.28968 16.5491 9.77372C16.5158 9.73822 16.4825 9.72562 16.4492 9.74967C16.4884 9.77487 16.4694 9.79892 16.4492 9.82297L16.4364 9.80426C16.3847 9.72811 16.3312 9.64924 16.2411 9.65348C16.2791 9.68554 16.3112 9.71761 16.3112 9.74967L16.1816 9.65348C16.1733 9.63083 16.1727 9.60627 16.1797 9.58326C16.1868 9.56024 16.2012 9.53994 16.2208 9.52521C16.1818 9.5124 16.1459 9.47301 16.1132 9.43706L16.1132 9.43705C16.0581 9.37659 16.0119 9.32588 15.9746 9.42787C15.9903 9.4308 16.004 9.44412 16.0175 9.45717C16.0409 9.47984 16.0634 9.50169 16.0936 9.46681C16.1684 9.53258 16.1434 9.55077 16.105 9.57863L16.0936 9.58706L15.7285 9.31564C15.7186 9.29104 15.7126 9.26519 15.7106 9.23891C15.6785 9.23891 15.6642 9.25036 15.6607 9.26525L13.47 7.64134L15.1802 7.22449ZM16.693 13.0651L16.6842 13.0628C16.5643 13.0317 16.37 12.9812 16.2969 12.8807C16.2804 12.8581 16.291 12.8387 16.2999 12.8223L16.3 12.8222C16.3019 12.8186 16.3038 12.8152 16.3053 12.812L16.3766 12.8589C16.3769 12.8728 16.3828 12.886 16.393 12.8958C16.4032 12.9057 16.4169 12.9113 16.4313 12.9116C16.4391 12.9137 16.4473 12.9137 16.4551 12.9116L16.693 13.0651ZM16.5455 9.8035C16.5402 9.83085 16.5355 9.85819 16.5305 9.88745L16.5253 9.91802L16.5075 9.90428C16.4813 9.85732 16.4813 9.83556 16.5455 9.80235V9.8035ZM8.23707 16.9588C8.20258 16.9691 8.16809 16.9771 8.13479 16.984L8.12569 16.9761C8.06443 16.9233 8.01458 16.8803 7.9885 16.984C8.00121 16.9857 8.01316 16.9909 8.023 16.9989H7.96829L7.95045 16.9851C7.9462 16.9899 7.94223 16.9948 7.93855 17C7.89061 16.9993 7.84283 16.9943 7.79584 16.9851C7.74784 16.9432 7.71458 16.888 7.70069 16.8271C7.62146 16.8411 7.65921 16.8913 7.69857 16.9435L7.69858 16.9436C7.70411 16.9509 7.70969 16.9583 7.71497 16.9656C7.63802 16.9409 7.56422 16.9078 7.49495 16.8672L7.47354 16.85C7.40285 16.8053 7.33457 16.7571 7.26898 16.7057C7.26841 16.6976 7.26598 16.6898 7.26184 16.6828L7.25233 16.6942C7.11318 16.5797 6.96928 16.4652 6.80278 16.3438C6.75455 16.31 6.70979 16.279 6.66838 16.2503C6.41022 16.0715 6.28175 15.9825 6.24931 15.8667C6.21717 15.7519 6.27924 15.6108 6.4028 15.3298C6.42069 15.2891 6.43988 15.2455 6.46026 15.1986C6.72349 14.5954 6.98593 13.9923 7.24757 13.3892L10.3612 16.3003L8.23707 16.9588ZM17.001 16.7538C16.4912 16.8168 15.9665 16.7531 15.4602 16.6916L15.3776 16.6816C15.1084 16.6498 14.8292 16.3199 14.6147 16.0664L14.6147 16.0664C14.5516 15.9918 14.494 15.9238 14.444 15.872L13.0513 14.4599C13.0216 14.4015 13.0335 14.3786 13.1215 14.3763C13.043 14.2618 12.9776 14.2045 12.9312 14.2206C13.0026 14.2939 12.9847 14.3214 12.9633 14.3443L12.9539 14.3297C12.8377 14.1506 12.7133 13.9588 12.5721 13.893C12.6392 13.958 12.6912 14.0361 12.7243 14.1221L12.6575 14.0545L12.6573 14.0543C12.6137 14.0104 12.57 13.9663 12.5269 13.9217C12.4519 13.8003 12.4174 13.7087 12.4864 13.656C12.4209 13.6036 12.3486 13.5079 12.2827 13.4207L12.2827 13.4207C12.1728 13.2752 12.0809 13.1536 12.069 13.2975C12.0946 13.3154 12.1218 13.3496 12.1479 13.3825C12.192 13.4381 12.2331 13.49 12.2593 13.4533C12.4008 13.6236 12.3733 13.6362 12.3332 13.6546C12.3194 13.6609 12.3041 13.6679 12.2938 13.6823L11.9489 13.333C11.7885 13.1695 11.6635 12.9768 11.5814 12.7662C11.4565 12.7084 11.5349 12.835 11.6121 12.9595C11.6297 12.9879 11.6472 13.0162 11.6623 13.0422C11.6069 12.9849 11.5513 12.9276 11.4957 12.8704C11.4401 12.8131 11.3845 12.7558 11.3292 12.6986C11.315 12.6791 11.298 12.6576 11.2811 12.6362C11.2641 12.6147 11.2472 12.5932 11.2329 12.5738C11.2336 12.5814 11.2336 12.589 11.2329 12.5967C11.0878 12.4501 10.9431 12.3031 10.7988 12.1558L10.7949 12.151C10.7228 12.0642 10.7002 12.037 10.6968 12.0392C10.6953 12.0402 10.6978 12.0473 10.7014 12.0576C10.7025 12.0607 10.7037 12.064 10.7049 12.0676L10.5122 11.8729C10.5061 11.847 10.4956 11.8223 10.4813 11.7996C10.4723 11.8017 10.463 11.8018 10.4539 11.8C10.4449 11.7983 10.4364 11.7946 10.429 11.7893L10.1399 11.5202C10.1399 11.5049 10.1165 11.4772 10.0904 11.4465L10.0904 11.4464C10.0578 11.4079 10.021 11.3646 10.021 11.3346C10.0417 11.3089 10.0783 11.3446 10.1149 11.3803C10.1563 11.4207 10.1978 11.4611 10.2161 11.4125C10.1736 11.3597 10.1197 11.3164 10.0581 11.2857C9.99643 11.2551 9.92859 11.2378 9.85927 11.235L6 7.32068C6.13974 7.28071 6.27381 7.23126 6.40396 7.18326L6.40398 7.18325C6.83319 7.02493 7.21967 6.88237 7.62577 7.14775L8.66284 7.82457V7.8303L8.69733 7.84633L8.83529 7.93681C8.9007 7.9975 8.91497 8.05132 8.80793 8.03415C8.88294 8.08465 8.9123 8.12431 8.94186 8.16425C8.96994 8.2022 8.99821 8.2404 9.06601 8.28838C9.11592 8.27074 9.0742 8.2308 9.0325 8.19087C8.99571 8.15564 8.95893 8.12043 8.98513 8.10057C9.04885 8.16192 9.08662 8.17595 9.12497 8.19018C9.15821 8.20252 9.19187 8.21501 9.24322 8.25861C9.29655 8.32101 9.2578 8.32669 9.22671 8.33126C9.19331 8.33616 9.16874 8.33976 9.27651 8.41092L9.34074 8.32961C9.3601 8.36935 9.3933 8.4013 9.43458 8.41992C9.47586 8.43854 9.52261 8.44265 9.5667 8.43154C9.61903 8.48421 9.6452 8.53117 9.61547 8.56438C9.71444 8.63713 9.77214 8.63825 9.83003 8.63937C9.86327 8.64001 9.89656 8.64065 9.93777 8.65485L16.1102 12.6803L16.2541 12.7742C16.2467 12.7843 16.2413 12.7984 16.2359 12.8124C16.2224 12.8478 16.2092 12.8822 16.1649 12.8486C16.1725 12.8817 16.2154 12.9024 16.2582 12.9231C16.3161 12.951 16.3739 12.979 16.3445 13.0376L16.7275 13.0834L17.9417 13.8759C18.2403 14.0728 17.3102 16.724 16.9951 16.7629L17.001 16.7538Z" fill="white"/>
</svg>
