<svg width="24" height="24" viewBox="0 0 24 24" fill="none" xmlns="http://www.w3.org/2000/svg">
<path fill-rule="evenodd" clip-rule="evenodd" d="M11.7176 8C12.8222 8 13.7176 7.10457 13.7176 6C13.7176 4.89543 12.8222 4 11.7176 4C10.613 4 9.71762 4.89543 9.71762 6C9.71762 7.10457 10.613 8 11.7176 8ZM8.2004 10C8.02222 10 7.93299 10.2154 8.05898 10.3414L9.42467 11.7071C9.6122 11.8946 9.71756 12.149 9.71756 12.4142V18.5858C9.71756 18.851 9.6122 19.1054 9.42467 19.2929L8.05898 20.6586C7.93299 20.7846 8.02222 21 8.2004 21H15.2347C15.4129 21 15.5021 20.7846 15.3761 20.6586L14.0105 19.2929C13.8229 19.1054 13.7176 18.851 13.7176 18.5858V10.2C13.7176 10.0895 13.628 10 13.5176 10H8.2004Z" fill="white"/>
</svg>
