<svg width="24" height="24" viewBox="0 0 24 24" fill="none" xmlns="http://www.w3.org/2000/svg">
<path fill-rule="evenodd" clip-rule="evenodd" d="M0 12C0 5.383 5.383 0 12 0C18.617 0 24 5.383 24 12C24 18.617 18.617 24 12 24C5.383 24 0 18.617 0 12ZM13.7176 6C13.7176 7.10457 12.8222 8 11.7176 8C10.6131 8 9.71762 7.10457 9.71762 6C9.71762 4.89543 10.6131 4 11.7176 4C12.8222 4 13.7176 4.89543 13.7176 6ZM8.05898 10.3414C7.93299 10.2154 8.02222 10 8.2004 10H13.5176C13.628 10 13.7176 10.0895 13.7176 10.2V17.5858C13.7176 17.851 13.8229 18.1054 14.0105 18.2929L15.3761 19.6586C15.5021 19.7846 15.4129 20 15.2347 20H8.2004C8.02222 20 7.93299 19.7846 8.05898 19.6586L9.42467 18.2929C9.6122 18.1054 9.71756 17.851 9.71756 17.5858V12.4142C9.71756 12.149 9.6122 11.8946 9.42467 11.7071L8.05898 10.3414Z" fill="white"/>
</svg>
