<svg width="24" height="24" viewBox="0 0 24 24" fill="none" xmlns="http://www.w3.org/2000/svg">
<g clip-path="url(#clip0_1063_1867)">
<path fill-rule="evenodd" clip-rule="evenodd" d="M6.7072 6.7072C6.31668 6.31668 5.68351 6.31668 5.29299 6.7072L0.7072 11.293C0.316676 11.6835 0.316676 12.3167 0.7072 12.7072L5.29299 17.293C5.68351 17.6835 6.31668 17.6835 6.7072 17.293L11.0002 13H16.0001V17.0001H19.0001V14.0001H21.0001V17.0001H24.0001V11.0001H24V10.5C24 10.2239 23.7761 10 23.5 10H10L6.7072 6.7072ZM21.0001 13.0001V13H19.0001V13.0001H21.0001ZM8 12L6 10L4 12L6 14L8 12Z" fill="white"/>
</g>
<defs>
<clipPath id="clip0_1063_1867">
<rect width="24" height="24" fill="white"/>
</clipPath>
</defs>
</svg>
