<svg width="24" height="24" viewBox="0 0 24 24" fill="none" xmlns="http://www.w3.org/2000/svg">
<path fill-rule="evenodd" clip-rule="evenodd" d="M6 4C6 3.44772 6.44772 3 7 3H17C17.5523 3 18 3.44772 18 4V20C18 20.5523 17.5523 21 17 21H7C6.44771 21 6 20.5523 6 20V4ZM8.96154 8.76923L12.1923 6L15.4231 8.76923L14.0385 11.0769L15.8846 15.2308L12.1923 18L8.5 15.2308L10.3462 11.0769L8.96154 8.76923ZM0 7C0 6.44772 0.447715 6 1 6H4V20H1C0.447715 20 0 19.5523 0 19V7ZM24 7C24 6.44772 23.5523 6 23 6H20V20H23C23.5523 20 24 19.5523 24 19V7Z" fill="white"/>
</svg>
