<svg width="24" height="24" viewBox="0 0 24 24" fill="none" xmlns="http://www.w3.org/2000/svg">
<path fill-rule="evenodd" clip-rule="evenodd" d="M4 2.5C4 2.22386 4.22386 2 4.5 2H19.5C19.7761 2 20 2.22386 20 2.5V4H4V2.5ZM1 6.5C1 6.22386 1.22386 6 1.5 6H22.5C22.7761 6 23 6.22386 23 6.5V21.5C23 21.7761 22.7761 22 22.5 22H1.5C1.22386 22 1 21.7761 1 21.5V6.5ZM9 11C9 12.1046 8.10457 13 7 13C5.89543 13 5 12.1046 5 11C5 9.89543 5.89543 9 7 9C8.10457 9 9 9.89543 9 11ZM15.5287 11.3142C15.779 11.1474 16.1188 11.2376 16.2533 11.5066L19.6382 18.2764C19.8044 18.6088 19.5627 19 19.191 19H5.65139C5.15668 19 4.96242 18.3584 5.37404 18.084L15.5287 11.3142Z" fill="white"/>
</svg>
