<svg width="24" height="24" viewBox="0 0 24 24" fill="none" xmlns="http://www.w3.org/2000/svg">
<g clip-path="url(#clip0_1096_2052)">
<path fill-rule="evenodd" clip-rule="evenodd" d="M13.4146 1C13.1494 1 12.8951 1.10535 12.7076 1.29288L0.707091 13.2929C0.316554 13.6834 0.316548 14.3166 0.707078 14.7071L9.29285 23.2929C9.68338 23.6834 10.3165 23.6834 10.7071 23.2929L22.7071 11.2929C22.8946 11.1054 23 10.851 23 10.5858V2C23 1.44772 22.5522 1 22 1H13.4146ZM19 7C20.1045 7 21 6.10457 21 5C21 3.89543 20.1045 3 19 3C17.8954 3 17 3.89543 17 5C17 6.10457 17.8954 7 19 7Z" fill="white"/>
</g>
<defs>
<clipPath id="clip0_1096_2052">
<rect width="24" height="24" fill="white" transform="translate(0.000488281)"/>
</clipPath>
</defs>
</svg>
