<svg width="24" height="24" viewBox="0 0 24 24" fill="none" xmlns="http://www.w3.org/2000/svg">
<path fill-rule="evenodd" clip-rule="evenodd" d="M12.5 5H23C23.2652 5 23.5196 5.10536 23.7071 5.29289C23.8946 5.48043 24 5.73478 24 6V20C24 20.7956 23.6839 21.5587 23.1213 22.1213C22.5587 22.6839 21.7956 23 21 23H3C2.20435 23 1.44129 22.6839 0.87868 22.1213C0.31607 21.5587 0 20.7956 0 20V2C0 1.73478 0.105357 1.48043 0.292893 1.29289C0.48043 1.10536 0.734784 1 1 1H9.5L12.5 5ZM18.8315 7.18241C18.7611 7.11222 18.6749 7.05984 18.5802 7.02961C18.4855 6.99937 18.3849 6.99217 18.2869 7.00858L14.5214 7.63387C14.3734 7.65829 14.2391 7.73507 14.1431 7.85022L9.14512 13.8618L10.2081 14.9248L11.091 15.8077L12.154 16.8707L18.1599 11.9034C18.2762 11.8068 18.3539 11.6716 18.3788 11.5226L19.0041 7.72391C19.0201 7.62644 19.0129 7.52654 18.9829 7.43242C18.9529 7.3383 18.901 7.25262 18.8315 7.18241ZM7.57622 14.0613C7.45829 13.9474 7.30034 13.8844 7.13639 13.8858C6.97244 13.8872 6.81561 13.953 6.69967 14.0689C6.58374 14.1848 6.51798 14.3417 6.51655 14.5056C6.51513 14.6696 6.57815 14.8275 6.69206 14.9454L7.94264 16.196L5.70035 18.4383L5.07505 17.813C5.01737 17.7533 4.94838 17.7057 4.87209 17.6729C4.7958 17.6401 4.71375 17.6229 4.63072 17.6222C4.5477 17.6214 4.46536 17.6373 4.38851 17.6687C4.31167 17.7001 4.24185 17.7466 4.18314 17.8053C4.12443 17.864 4.078 17.9338 4.04656 18.0106C4.01512 18.0875 3.9993 18.1698 4.00002 18.2529C4.00075 18.3359 4.01799 18.4179 4.05077 18.4942C4.08354 18.5705 4.13117 18.6395 4.19089 18.6972L7.31735 21.8236C7.37503 21.8834 7.44403 21.931 7.52031 21.9638C7.5966 21.9965 7.67865 22.0138 7.76168 22.0145C7.8447 22.0152 7.92704 21.9994 8.00389 21.968C8.08073 21.9365 8.15055 21.8901 8.20926 21.8314C8.26797 21.7727 8.3144 21.7029 8.34584 21.626C8.37728 21.5492 8.3931 21.4668 8.39238 21.3838C8.39166 21.3008 8.37441 21.2187 8.34164 21.1424C8.30887 21.0662 8.26123 20.9972 8.20151 20.9395L7.57622 20.3142L9.81851 18.0719L11.0691 19.3225C11.187 19.4364 11.345 19.4994 11.5089 19.498C11.6729 19.4966 11.8297 19.4308 11.9456 19.3149C12.0616 19.1989 12.1273 19.0421 12.1288 18.8781C12.1302 18.7142 12.0672 18.5562 11.9533 18.4383L7.57622 14.0613Z" fill="white"/>
</svg>
