<svg width="24" height="24" viewBox="0 0 24 24" fill="none" xmlns="http://www.w3.org/2000/svg">
<path d="M22.3125 6.1875H19.5V12.75C19.5 13.4959 19.2037 14.2113 18.6762 14.7387C18.1488 15.2662 17.4334 15.5625 16.6875 15.5625H11.4375L8.0625 18.375H14.3569L18.7266 22.0163C18.8118 22.0879 18.9199 22.1266 19.0312 22.125C19.0999 22.1248 19.1677 22.1098 19.23 22.0809C19.3107 22.0431 19.379 21.9831 19.4268 21.9079C19.4746 21.8327 19.5 21.7454 19.5 21.6563V18.375H22.3125C22.5611 18.375 22.7996 18.2762 22.9754 18.1004C23.1512 17.9246 23.25 17.6861 23.25 17.4375V7.125C23.25 6.87636 23.1512 6.6379 22.9754 6.46209C22.7996 6.28627 22.5611 6.1875 22.3125 6.1875Z" fill="white"/>
<path d="M16.6875 1.5H1.6875C1.43886 1.5 1.2004 1.59877 1.02459 1.77459C0.848772 1.9504 0.75 2.18886 0.75 2.4375V12.75C0.75 12.9986 0.848772 13.2371 1.02459 13.4129C1.2004 13.5887 1.43886 13.6875 1.6875 13.6875H4.5V17.9063C4.49997 17.9954 4.52535 18.0827 4.57318 18.1579C4.621 18.2331 4.68927 18.2931 4.77 18.3309C4.83229 18.3598 4.9001 18.3748 4.96875 18.375C5.07847 18.3754 5.18479 18.3369 5.26875 18.2663L10.7634 13.6875H16.6875C16.9361 13.6875 17.1746 13.5887 17.3504 13.4129C17.5262 13.2371 17.625 12.9986 17.625 12.75V2.4375C17.625 2.18886 17.5262 1.9504 17.3504 1.77459C17.1746 1.59877 16.9361 1.5 16.6875 1.5Z" fill="white"/>
</svg>
