<svg width="24" height="24" viewBox="0 0 24 24" fill="none" xmlns="http://www.w3.org/2000/svg">
<g clip-path="url(#clip0_1212_1112)">
<path fill-rule="evenodd" clip-rule="evenodd" d="M0.5 4C0.223858 4 0 4.22386 0 4.5V19V22L6 19H18L24 22V19V4.5C24 4.22386 23.7761 4 23.5 4H0.5ZM12.0005 6L13.2748 8.24605L15.8047 8.76393L14.0624 10.6699L14.3517 13.2361L12.0005 12.168L9.64937 13.2361L9.93862 10.6699L8.19629 8.76393L10.7262 8.24605L12.0005 6ZM6.27483 11.2461L5.00051 9L3.7262 11.2461L1.19629 11.7639L2.93862 13.6699L2.64937 16.2361L5.00051 15.168L7.35166 16.2361L7.06241 13.6699L8.80474 11.7639L6.27483 11.2461ZM20.2748 11.2461L19.0005 9L17.7262 11.2461L15.1963 11.7639L16.9386 13.6699L16.6494 16.2361L19.0005 15.168L21.3517 16.2361L21.0624 13.6699L22.8047 11.7639L20.2748 11.2461Z" fill="white"/>
</g>
<defs>
<clipPath id="clip0_1212_1112">
<rect width="24" height="24" fill="white" transform="translate(0.000488281)"/>
</clipPath>
</defs>
</svg>
