<svg width="24" height="24" viewBox="0 0 24 24" fill="none" xmlns="http://www.w3.org/2000/svg">
<g clip-path="url(#clip0_1038_1803)">
<path fill-rule="evenodd" clip-rule="evenodd" d="M14.8787 3.12132C15.4413 3.68393 16.2044 4 17 4C18.8565 4 20.637 4.7375 21.9497 6.05025C23.2625 7.36301 24 9.14348 24 11V11.1C23.349 10.4339 22.5712 9.90484 21.7125 9.54417C20.8537 9.18349 19.9314 8.99846 19 9C18.0095 9.00033 17.0344 8.75517 16.1619 8.28644C15.2893 7.81771 14.5466 7.14003 14 6.314V20C14 20.7911 13.7654 21.5645 13.3259 22.2223C12.8864 22.8801 12.2616 23.3928 11.5307 23.6955C10.7998 23.9983 9.99556 24.0775 9.21964 23.9231C8.44372 23.7688 7.73098 23.3878 7.17157 22.8284C6.61216 22.269 6.2312 21.5563 6.07686 20.7804C5.92252 20.0044 6.00173 19.2002 6.30448 18.4693C6.60723 17.7384 7.11992 17.1136 7.77772 16.6741C8.43552 16.2346 9.20888 16 10 16C10.7042 16.0036 11.3946 16.1952 12 16.555V1C12 0.734784 12.1054 0.48043 12.2929 0.292893C12.4804 0.105357 12.7348 0 13 0C13.2652 0 13.5196 0.105357 13.7071 0.292893C13.8946 0.48043 14 0.734784 14 1C14 1.79565 14.3161 2.55871 14.8787 3.12132ZM0 3H10V5H0V3ZM0 7H10V9H0V7ZM10 11H0V13H10V11Z" fill="white"/>
</g>
<defs>
<clipPath id="clip0_1038_1803">
<rect width="24" height="24" fill="white"/>
</clipPath>
</defs>
</svg>
