<svg width="24" height="24" viewBox="0 0 24 24" fill="none" xmlns="http://www.w3.org/2000/svg">
<path d="M18.3675 7.43693L12 1L5.6325 7.43693C3.95269 9.14346 3.00653 11.4529 3 13.8625C3 16.141 3.8775 18.5449 5.6325 20.3222C6.4676 21.1709 7.45996 21.8444 8.55264 22.3039C9.64533 22.7635 10.8168 23 12 23C13.1832 23 14.3547 22.7635 15.4474 22.3039C16.54 21.8444 17.5324 21.1709 18.3675 20.3222C20.1225 18.5449 21 16.141 21 13.8625C21 11.5839 20.1225 9.2142 18.3675 7.43693ZM5.25 14.2726C5.26125 11.994 5.9475 10.5472 7.23 9.25978L12 4.3267L16.77 9.31674C18.0525 10.5927 18.7388 11.994 18.75 14.2726H5.25Z" fill="white"/>
</svg>
