<svg width="24" height="24" viewBox="0 0 24 24" fill="none" xmlns="http://www.w3.org/2000/svg">
<g clip-path="url(#clip0_1064_2156)">
<path fill-rule="evenodd" clip-rule="evenodd" d="M11.8422 0.12833C11.9341 0.0535774 12.0659 0.0535773 12.1578 0.12833L14.5531 2.07689C14.6083 2.12184 14.6802 2.14109 14.7505 2.12979L17.7992 1.63995C17.9162 1.62116 18.0302 1.68703 18.0725 1.79771L19.1726 4.68288C19.198 4.74944 19.2505 4.80202 19.3171 4.8274L22.2023 5.92754C22.313 5.96974 22.3788 6.08383 22.36 6.20079L21.8702 9.24948C21.8589 9.31982 21.8781 9.39164 21.9231 9.4469L23.8717 11.8422C23.9464 11.9341 23.9464 12.0659 23.8717 12.1578L21.9231 14.5531C21.8781 14.6083 21.8589 14.6802 21.8702 14.7505L22.36 17.7992C22.3788 17.9162 22.313 18.0302 22.2023 18.0725L19.3171 19.1726C19.2505 19.198 19.198 19.2505 19.1726 19.3171L18.0725 22.2023C18.0302 22.313 17.9162 22.3788 17.7992 22.36L14.7655 21.8726L14.2441 22.1745L12.1578 23.8717C12.0659 23.9464 11.9341 23.9464 11.8422 23.8717L9.7559 22.1745L9.23451 21.8726L6.20079 22.36C6.08383 22.3788 5.96974 22.313 5.92754 22.2023L4.8274 19.3171C4.80202 19.2505 4.74944 19.198 4.68288 19.1726L1.79771 18.0725C1.68703 18.0302 1.62116 17.9162 1.63995 17.7992L2.12979 14.7505C2.14109 14.6802 2.12184 14.6083 2.07689 14.5531L0.12833 12.1578C0.0535774 12.0659 0.0535773 11.9341 0.12833 11.8422L2.07689 9.4469C2.12184 9.39164 2.14109 9.31982 2.12979 9.24948L1.63995 6.20079C1.62116 6.08383 1.68703 5.96974 1.79771 5.92754L4.68288 4.8274C4.74944 4.80202 4.80202 4.74944 4.8274 4.68288L5.92753 1.79771C5.96974 1.68703 6.08383 1.62116 6.20079 1.63995L9.24948 2.12979C9.31982 2.14109 9.39164 2.12184 9.4469 2.07689L11.8422 0.12833ZM17.5822 19.0601L15 13.25L17.25 9.49999L12 4.99999L6.74999 9.49999L8.99999 13.25L6.41772 19.0601C4.33569 17.4117 2.99996 14.8618 2.99996 12C2.99996 7.02943 7.0294 2.99999 12 2.99999C16.9705 2.99999 21 7.02943 21 12C21 14.8618 19.6643 17.4116 17.5822 19.0601ZM12 14L13.115 15.9653L15.3287 16.4184L13.8041 18.0862L14.0572 20.3316L12 19.397L9.94275 20.3316L10.1958 18.0862L8.6713 16.4184L10.885 15.9653L12 14Z" fill="white"/>
</g>
<defs>
<clipPath id="clip0_1064_2156">
<rect width="24" height="24" fill="white"/>
</clipPath>
</defs>
</svg>
