<svg width="24" height="24" viewBox="0 0 24 24" fill="none" xmlns="http://www.w3.org/2000/svg">
<path d="M3 6.64987C3 6.25468 3.23273 5.89656 3.59386 5.73606L11.1877 2.36101C11.7049 2.13118 12.2951 2.13118 12.8123 2.36101L20.4061 5.73606C20.7673 5.89656 21 6.25468 21 6.64987V17.3501C21 17.7453 20.7673 18.1034 20.4061 18.2639L12.8123 21.639C12.2951 21.8688 11.7049 21.8688 11.1877 21.639L3.59386 18.2639C3.23273 18.1034 3 17.7453 3 17.3501V6.64987Z" stroke="white" stroke-width="2" stroke-miterlimit="10" stroke-linecap="square"/>
<path d="M3 6L12 10L21 6" stroke="white" stroke-width="2" stroke-miterlimit="10"/>
<path d="M12 10V22" stroke="white" stroke-width="2" stroke-miterlimit="10"/>
<path d="M16.501 15.25C17.0533 15.25 17.501 14.6904 17.501 14C17.501 13.3096 17.0533 12.75 16.501 12.75C15.9487 12.75 15.501 13.3096 15.501 14C15.501 14.6904 15.9487 15.25 16.501 15.25Z" fill="white"/>
<path d="M6.00098 12.75C6.55326 12.75 7.00098 12.1904 7.00098 11.5C7.00098 10.8096 6.55326 10.25 6.00098 10.25C5.44869 10.25 5.00098 10.8096 5.00098 11.5C5.00098 12.1904 5.44869 12.75 6.00098 12.75Z" fill="white"/>
<path d="M9.00098 17.75C9.55326 17.75 10.001 17.1904 10.001 16.5C10.001 15.8096 9.55326 15.25 9.00098 15.25C8.44869 15.25 8.00098 15.8096 8.00098 16.5C8.00098 17.1904 8.44869 17.75 9.00098 17.75Z" fill="white"/>
</svg>
