<svg width="24" height="24" viewBox="0 0 24 24" fill="none" xmlns="http://www.w3.org/2000/svg">
<path d="M14.3318 7.50579C13.6157 6.92289 12.6343 6.75803 11.6821 6.82734C10.7246 6.89704 9.74494 7.2062 8.98006 7.63492L8.70157 7.79102L9.67268 9.74091L9.97424 9.58695C10.7421 9.19492 11.3974 9.01417 11.9478 9.01417C12.2218 9.01417 12.432 9.06449 12.5629 9.14716C12.6721 9.21615 12.7437 9.31578 12.7437 9.50561C12.7437 9.72726 12.6582 9.90695 12.4978 10.0863C12.3278 10.2763 12.0938 10.4447 11.8146 10.6441L11.8113 10.6466C11.3433 10.9896 10.9898 11.3355 10.7865 11.688C10.4853 12.2092 10.4861 12.6565 10.4868 13.1146L10.4869 13.1838V13.519H12.8047V13.1838C12.8047 12.8421 12.8067 12.7434 12.8686 12.6298C12.9392 12.5 13.1067 12.3277 13.5804 11.9773C14.171 11.5555 14.6069 11.1525 14.849 10.7646C15.397 9.88744 15.4036 8.37907 14.3318 7.50579Z" fill="white"/>
<path d="M11.6743 14.3244C10.934 14.3244 10.3334 14.9251 10.3334 15.6653C10.3334 16.4056 10.934 17.0063 11.6743 17.0063C12.4146 17.0063 13.0152 16.4056 13.0152 15.6653C13.0152 14.9251 12.4146 14.3244 11.6743 14.3244Z" fill="white"/>
<path fill-rule="evenodd" clip-rule="evenodd" d="M4.00001 12C4.00001 7.5817 7.58173 3.99998 12 3.99998C14.6771 3.99998 17.0471 5.31496 18.4993 7.33426L19.7448 5.67354C17.911 3.43124 15.1227 1.99998 12 1.99998C6.47716 1.99998 2.00001 6.47713 2.00001 12H4.00001ZM5.50072 16.6657L4.25518 18.3264C6.08901 20.5687 8.87736 22 12 22C17.5228 22 22 17.5228 22 12H24L21 8L18 12H20C20 16.4183 16.4183 20 12 20C9.32289 20 6.9529 18.685 5.50072 16.6657ZM6 12L3 16L0 12H6Z" fill="white"/>
</svg>
