<svg width="24" height="24" viewBox="0 0 24 24" fill="none" xmlns="http://www.w3.org/2000/svg">
<g clip-path="url(#clip0_1390_1220)">
<path fill-rule="evenodd" clip-rule="evenodd" d="M0 1C0 0.447715 0.447715 0 1 0H23C23.5523 0 24 0.447715 24 1V3C24 3.55228 23.5523 4 23 4H1C0.447716 4 0 3.55228 0 3V1ZM2 7C2 6.44772 2.44772 6 3 6H21C21.5523 6 22 6.44772 22 7V23C22 23.5523 21.5523 24 21 24H3C2.44772 24 2 23.5523 2 23V7ZM15.4024 10.1674C15.3362 10.1849 15.2629 10.2043 15.1802 10.2245L13.47 10.6413L15.6607 12.2652C15.6642 12.2504 15.6785 12.2389 15.7106 12.2389C15.7126 12.2652 15.7186 12.291 15.7285 12.3156L16.0936 12.5871C16.0975 12.5841 16.1013 12.5813 16.105 12.5786C16.1434 12.5508 16.1684 12.5326 16.0936 12.4668C16.0634 12.5017 16.0409 12.4798 16.0175 12.4572C16.004 12.4441 15.9903 12.4308 15.9746 12.4279C16.0119 12.3259 16.0581 12.3766 16.1132 12.4371C16.1459 12.473 16.1818 12.5124 16.2208 12.5252C16.2012 12.5399 16.1868 12.5602 16.1797 12.5833C16.1727 12.6063 16.1733 12.6308 16.1816 12.6535L16.3112 12.7497C16.3112 12.7176 16.2791 12.6855 16.241 12.6535C16.3312 12.6492 16.3847 12.7281 16.4364 12.8043C16.4407 12.8105 16.4449 12.8168 16.4492 12.823C16.4694 12.7989 16.4884 12.7749 16.4492 12.7497C16.4825 12.7256 16.5158 12.7382 16.5491 12.7737C16.6387 12.2897 16.7275 11.8053 16.8155 11.3204C16.8255 11.2673 16.835 11.2184 16.8439 11.1733C16.8696 11.0418 16.889 10.9425 16.8952 10.8624C16.8736 10.8628 16.8522 10.8647 16.8309 10.8681C16.8561 10.8547 16.8762 10.8338 16.888 10.8085L16.8964 10.8143C16.8952 10.615 16.7798 10.5406 16.3897 10.2955C15.9545 10.0214 15.8129 10.0588 15.4024 10.1674ZM16.6841 16.0628L16.693 16.0651L16.4551 15.9116C16.4473 15.9137 16.4391 15.9137 16.4313 15.9116C16.4169 15.9113 16.4032 15.9057 16.393 15.8958C16.3828 15.886 16.3769 15.8728 16.3766 15.8589L16.3053 15.812C16.3038 15.8153 16.3019 15.8187 16.2999 15.8223C16.291 15.8387 16.2804 15.8581 16.2969 15.8807C16.37 15.9812 16.5643 16.0317 16.6841 16.0628ZM16.5305 12.8874C16.5355 12.8582 16.5402 12.8308 16.5455 12.8035V12.8024C16.4813 12.8356 16.4813 12.8573 16.5075 12.9043L16.5253 12.918C16.5271 12.9076 16.5288 12.8974 16.5305 12.8874ZM8.13479 19.984C8.16809 19.9771 8.20258 19.9691 8.23707 19.9588L10.3612 19.3003L7.24757 16.3892C6.98593 16.9923 6.72349 17.5954 6.46026 18.1986C6.2992 18.5693 6.21252 18.7353 6.24931 18.8667C6.28696 19.0011 6.4539 19.0994 6.80278 19.3438C6.96928 19.4652 7.11318 19.5797 7.25233 19.6942L7.26184 19.6828C7.26598 19.6898 7.26841 19.6976 7.26898 19.7057C7.33457 19.7571 7.40285 19.8053 7.47354 19.85L7.49495 19.8672C7.56422 19.9078 7.63802 19.9409 7.71497 19.9656C7.70969 19.9583 7.70412 19.9509 7.69858 19.9436C7.65921 19.8913 7.62146 19.8411 7.70069 19.8271C7.71458 19.888 7.74783 19.9432 7.79584 19.9851C7.84283 19.9943 7.89061 19.9993 7.93855 20C7.9404 19.9974 7.94233 19.9948 7.94433 19.9923C7.9463 19.9899 7.94834 19.9875 7.95045 19.9851L7.96829 19.9989H8.023C8.01316 19.9909 8.00121 19.9857 7.9885 19.984C8.01458 19.8803 8.06442 19.9233 8.12568 19.9761C8.12869 19.9787 8.13173 19.9813 8.13479 19.984ZM15.4602 19.6916C15.9665 19.7531 16.4912 19.8168 17.001 19.7538L16.9951 19.7629C17.3102 19.724 18.2403 17.0728 17.9417 16.8759L16.7275 16.0834L16.3445 16.0376C16.3739 15.979 16.3161 15.951 16.2582 15.9231C16.2154 15.9024 16.1725 15.8817 16.1649 15.8486C16.2092 15.8822 16.2224 15.8478 16.2359 15.8124C16.2413 15.7984 16.2467 15.7843 16.2541 15.7742L16.1102 15.6803L9.93777 11.6549C9.89656 11.6407 9.86327 11.64 9.83003 11.6394C9.77214 11.6382 9.71444 11.6371 9.61547 11.5644C9.6452 11.5312 9.61903 11.4842 9.5667 11.4315C9.5226 11.4426 9.47586 11.4385 9.43458 11.4199C9.3933 11.4013 9.3601 11.3694 9.34074 11.3296L9.27651 11.4109C9.16874 11.3398 9.19331 11.3362 9.22671 11.3313C9.2578 11.3267 9.29655 11.321 9.24322 11.2586C9.19187 11.215 9.1582 11.2025 9.12497 11.1902C9.08662 11.1759 9.04885 11.1619 8.98514 11.1006C8.95893 11.1204 8.99571 11.1556 9.0325 11.1909C9.0742 11.2308 9.11592 11.2707 9.06601 11.2884C8.99821 11.2404 8.96994 11.2022 8.94185 11.1643C8.9123 11.1243 8.88294 11.0847 8.80793 11.0341C8.91497 11.0513 8.9007 10.9975 8.83529 10.9368L8.69733 10.8463L8.66284 10.8303V10.8246L7.62577 10.1478C7.21967 9.88237 6.83319 10.0249 6.40398 10.1832C6.27383 10.2313 6.13975 10.2807 6 10.3207L9.85927 14.235C9.92859 14.2378 9.99643 14.2551 10.0581 14.2857C10.1197 14.3164 10.1736 14.3597 10.2161 14.4125C10.1978 14.4611 10.1563 14.4207 10.1149 14.3803C10.0783 14.3446 10.0417 14.3089 10.021 14.3346C10.021 14.3646 10.0578 14.4079 10.0904 14.4465C10.1165 14.4772 10.1399 14.5049 10.1399 14.5202L10.429 14.7893C10.4364 14.7946 10.4449 14.7983 10.4539 14.8C10.463 14.8018 10.4723 14.8017 10.4813 14.7996C10.4956 14.8223 10.5061 14.847 10.5122 14.8729L10.7049 15.0676C10.6996 15.052 10.6949 15.0405 10.6968 15.0392C10.7002 15.037 10.7236 15.0652 10.7988 15.1558C10.9431 15.3031 11.0878 15.4501 11.2329 15.5967C11.2336 15.589 11.2336 15.5814 11.2329 15.5738C11.2472 15.5932 11.2641 15.6147 11.2811 15.6362C11.298 15.6576 11.315 15.6791 11.3292 15.6986C11.3845 15.7559 11.4401 15.8131 11.4957 15.8704C11.5513 15.9276 11.607 15.9849 11.6623 16.0422C11.6472 16.0162 11.6297 15.9879 11.6121 15.9595C11.5349 15.835 11.4565 15.7084 11.5814 15.7662C11.6635 15.9768 11.7885 16.1695 11.9489 16.333L12.2938 16.6823C12.3041 16.6679 12.3194 16.6609 12.3332 16.6546C12.3733 16.6362 12.4008 16.6236 12.2593 16.4533C12.2331 16.49 12.192 16.4381 12.1479 16.3825C12.1218 16.3496 12.0946 16.3154 12.069 16.2975C12.0809 16.1536 12.1728 16.2752 12.2827 16.4207C12.3486 16.5079 12.4209 16.6036 12.4864 16.656C12.4174 16.7087 12.4519 16.8003 12.5269 16.9217C12.5701 16.9664 12.6139 17.0105 12.6575 17.0545C12.6798 17.0771 12.7021 17.0996 12.7243 17.1221C12.6912 17.0361 12.6392 16.958 12.5721 16.893C12.7133 16.9588 12.8377 17.1506 12.9539 17.3297L12.9633 17.3443C12.9847 17.3214 13.0026 17.2939 12.9312 17.2206C12.9776 17.2045 13.043 17.2618 13.1215 17.3763C13.0335 17.3786 13.0216 17.4015 13.0513 17.4599L14.444 18.872C14.494 18.9238 14.5516 18.9918 14.6147 19.0664C14.8292 19.3199 15.1084 19.6498 15.3776 19.6816C15.4051 19.6849 15.4326 19.6883 15.4602 19.6916Z" fill="white"/>
</g>
<defs>
<clipPath id="clip0_1390_1220">
<rect width="24" height="24" fill="white"/>
</clipPath>
</defs>
</svg>
