<svg width="24" height="24" viewBox="0 0 24 24" fill="none" xmlns="http://www.w3.org/2000/svg">
<g clip-path="url(#clip0_1304_1262)">
<path fill-rule="evenodd" clip-rule="evenodd" d="M4 3H8L8.72361 1.55279C8.893 1.214 9.23926 1 9.61803 1H14.382C14.7607 1 15.107 1.214 15.2764 1.55279L16 3H20V15H4V3ZM15 9C15 10.6569 13.6569 12 12 12C10.3431 12 9 10.6569 9 9C9 7.34315 10.3431 6 12 6C13.6569 6 15 7.34315 15 9ZM14.707 19.293L11.707 16.293C11.5184 16.1109 11.2658 16.0101 11.0036 16.0124C10.7414 16.0147 10.4906 16.1198 10.3052 16.3052C10.1198 16.4906 10.0146 16.7414 10.0123 17.0036C10.01 17.2658 10.1108 17.5184 10.293 17.707L11.578 18.992C5.806 18.909 2 17.166 2 16C2 15.759 2.211 15.45 2.623 15.123C2.623 15.123 2.64382 13.7094 2.623 13C2.06568 13.2622 0.975711 13.7888 0.62273 14.2935C0.269749 14.7982 0.055055 15.3866 0 16C0 19.208 5.765 20.916 11.593 20.993L10.293 22.293C10.1975 22.3853 10.1213 22.4956 10.0689 22.6176C10.0165 22.7396 9.9889 22.8709 9.98775 23.0036C9.9866 23.1364 10.0119 23.2681 10.0622 23.391C10.1125 23.5139 10.1867 23.6255 10.2806 23.7194C10.3745 23.8133 10.4861 23.8876 10.609 23.9379C10.7319 23.9881 10.8636 24.0135 10.9964 24.0123C11.1292 24.0111 11.2604 23.9836 11.3824 23.9311C11.5044 23.8787 11.6148 23.8026 11.707 23.707L14.707 20.707C14.8945 20.5195 14.9998 20.2652 14.9998 20C14.9998 19.7349 14.8945 19.4806 14.707 19.293ZM21.377 13C21.3562 13.7094 21.377 15.119 21.377 15.119C21.789 15.446 22 15.755 22 15.996C22 16.565 20.912 17.49 18.522 18.176C18.2905 18.2426 18.0908 18.3906 17.9597 18.5927C17.8285 18.7947 17.7748 19.0373 17.8082 19.2759C17.8417 19.5145 17.9601 19.7329 18.1418 19.8911C18.3234 20.0493 18.5561 20.1366 18.797 20.137C18.8903 20.1368 18.9832 20.1237 19.073 20.098C22.25 19.191 24 17.734 24 16C23.9456 15.3859 23.7312 14.7967 23.3782 14.2912C23.0252 13.7857 21.9349 13.2625 21.377 13Z" fill="white"/>
</g>
<defs>
<clipPath id="clip0_1304_1262">
<rect width="24" height="24" fill="white" transform="translate(0.000488281)"/>
</clipPath>
</defs>
</svg>
