<svg width="24" height="24" viewBox="0 0 24 24" fill="none" xmlns="http://www.w3.org/2000/svg">
<path fill-rule="evenodd" clip-rule="evenodd" d="M16.0756 13.2552C17.6597 10.4407 17.2539 6.80878 14.8582 4.41314C11.974 1.52895 7.29782 1.52895 4.41363 4.41314C1.52944 7.29734 1.52944 11.9735 4.41363 14.8577C6.80927 17.2534 10.4412 17.6592 13.2557 16.0751L18.9306 21.75L21.7505 18.9301L16.0756 13.2552ZM13.434 5.8374C15.5315 7.935 15.5315 11.3359 13.434 13.4335C11.3364 15.5311 7.93549 15.5311 5.83789 13.4335C3.7403 11.3359 3.7403 7.935 5.83789 5.83741C7.93549 3.73981 11.3364 3.73981 13.434 5.8374Z" fill="white"/>
</svg>
