<svg width="24" height="24" viewBox="0 0 24 24" fill="none" xmlns="http://www.w3.org/2000/svg">
<path d="M22.7755 16.1837L21.2905 15.3449L13.1319 19.954C12.7881 20.1483 12.3998 20.2503 12.0049 20.2503C11.6099 20.2503 11.2217 20.1483 10.8778 19.954L2.71926 15.344L1.23423 16.1828C1.16325 16.2226 1.10416 16.2806 1.06304 16.3509C1.02192 16.4211 1.00024 16.501 1.00024 16.5824C1.00024 16.6638 1.02192 16.7438 1.06304 16.814C1.10416 16.8842 1.16325 16.9423 1.23423 16.9821L11.7762 22.9406C11.845 22.9795 11.9226 22.9999 12.0017 22.9999C12.0807 22.9999 12.1584 22.9795 12.2272 22.9406L22.7691 16.9821C22.8401 16.9423 22.8992 16.8842 22.9403 16.814C22.9814 16.7438 23.0031 16.6638 23.0031 16.5824C23.0031 16.501 22.9814 16.4211 22.9403 16.3509C22.8992 16.2806 22.8401 16.2226 22.7691 16.1828L22.7755 16.1837Z" fill="white" fill-opacity="0.2"/>
<path d="M22.7755 11.6003L21.2905 10.7615L13.1319 15.3707C12.7881 15.5649 12.3998 15.667 12.0049 15.667C11.6099 15.667 11.2217 15.5649 10.8778 15.3707L2.71926 10.7606L1.23423 11.5994C1.16325 11.6392 1.10416 11.6973 1.06304 11.7675C1.02192 11.8377 1.00024 11.9177 1.00024 11.9991C1.00024 12.0805 1.02192 12.1604 1.06304 12.2306C1.10416 12.3009 1.16325 12.3589 1.23423 12.3987L11.7762 18.3572C11.845 18.3961 11.9226 18.4165 12.0017 18.4165C12.0807 18.4165 12.1584 18.3961 12.2272 18.3572L22.7691 12.3987C22.8401 12.3589 22.8992 12.3009 22.9403 12.2306C22.9814 12.1604 23.0031 12.0805 23.0031 11.9991C23.0031 11.9177 22.9814 11.8377 22.9403 11.7675C22.8992 11.6973 22.8401 11.6392 22.7691 11.5994L22.7755 11.6003Z" fill="white" fill-opacity="0.6"/>
<path d="M22.7756 7.01686L12.2336 1.05837C12.1646 1.02009 12.087 1 12.0081 1C11.9292 1 11.8516 1.02009 11.7826 1.05837L1.2407 7.01686C1.16972 7.0567 1.11063 7.11472 1.06951 7.18497C1.02839 7.25521 1.00671 7.33514 1.00671 7.41653C1.00671 7.49793 1.02839 7.57785 1.06951 7.6481C1.11063 7.71834 1.16972 7.77636 1.2407 7.81621L11.7826 13.7747C11.8514 13.8136 11.9291 13.834 12.0081 13.834C12.0872 13.834 12.1648 13.8136 12.2336 13.7747L22.7756 7.81621C22.8465 7.77636 22.9056 7.71834 22.9467 7.6481C22.9879 7.57785 23.0095 7.49793 23.0095 7.41653C23.0095 7.33514 22.9879 7.25521 22.9467 7.18497C22.9056 7.11472 22.8465 7.0567 22.7756 7.01686Z" fill="white"/>
</svg>
