<svg width="24" height="24" viewBox="0 0 24 24" fill="none" xmlns="http://www.w3.org/2000/svg">
<path d="M22.8907 14.1108L21.3898 13.2631L13.144 17.9215C12.7965 18.1178 12.4041 18.221 12.0049 18.221C11.6057 18.221 11.2133 18.1178 10.8658 17.9215L2.61997 13.2621L1.11905 14.1099C1.04732 14.1502 0.9876 14.2088 0.946037 14.2798C0.904475 14.3508 0.882568 14.4316 0.882568 14.5138C0.882568 14.5961 0.904475 14.6769 0.946037 14.7479C0.9876 14.8189 1.04732 14.8775 1.11905 14.9178L11.7737 20.94C11.8433 20.9793 11.9218 20.9999 12.0016 20.9999C12.0815 20.9999 12.16 20.9793 12.2296 20.94L22.8842 14.9178C22.956 14.8775 23.0157 14.8189 23.0573 14.7479C23.0988 14.6769 23.1207 14.5961 23.1207 14.5138C23.1207 14.4316 23.0988 14.3508 23.0573 14.2798C23.0157 14.2088 22.956 14.1502 22.8842 14.1099L22.8907 14.1108Z" fill="white"/>
<path d="M22.8908 9.08121L12.2362 3.059C12.1664 3.0203 12.088 3 12.0082 3C11.9285 3 11.8501 3.0203 11.7803 3.059L1.12564 9.08121C1.05391 9.12148 0.994191 9.18012 0.952629 9.25112C0.911067 9.32211 0.88916 9.40289 0.88916 9.48516C0.88916 9.56742 0.911067 9.64821 0.952629 9.7192C0.994191 9.79019 1.05391 9.84884 1.12564 9.88911L11.7803 15.9113C11.8499 15.9506 11.9284 15.9713 12.0082 15.9713C12.0881 15.9713 12.1666 15.9506 12.2362 15.9113L22.8908 9.88911C22.9626 9.84884 23.0223 9.79019 23.0638 9.7192C23.1054 9.64821 23.1273 9.56742 23.1273 9.48516C23.1273 9.40289 23.1054 9.32211 23.0638 9.25112C23.0223 9.18012 22.9626 9.12148 22.8908 9.08121Z" fill="white" fill-opacity="0.2"/>
</svg>
