<svg width="24" height="24" viewBox="0 0 24 24" fill="none" xmlns="http://www.w3.org/2000/svg">
<path d="M22.7662 16.1801L21.2825 15.3421L13.131 19.9472C12.7874 20.1413 12.3995 20.2433 12.0049 20.2433C11.6103 20.2433 11.2224 20.1413 10.8789 19.9472L2.72741 15.3412L1.24367 16.1792C1.17275 16.219 1.11372 16.277 1.07263 16.3472C1.03154 16.4174 1.00989 16.4972 1.00989 16.5786C1.00989 16.6599 1.03154 16.7397 1.07263 16.8099C1.11372 16.8801 1.17275 16.9381 1.24367 16.9779L11.7764 22.9312C11.8452 22.97 11.9228 22.9904 12.0017 22.9904C12.0807 22.9904 12.1583 22.97 12.227 22.9312L22.7598 16.9779C22.8307 16.9381 22.8898 16.8801 22.9308 16.8099C22.9719 16.7397 22.9936 16.6599 22.9936 16.5786C22.9936 16.4972 22.9719 16.4174 22.9308 16.3472C22.8898 16.277 22.8307 16.219 22.7598 16.1792L22.7662 16.1801Z" fill="white"/>
<path d="M22.7662 11.6007L21.2825 10.7626L13.131 15.3677C12.7874 15.5618 12.3995 15.6638 12.0049 15.6638C11.6103 15.6638 11.2224 15.5618 10.8789 15.3677L2.72741 10.7617L1.24367 11.5998C1.17275 11.6396 1.11372 11.6975 1.07263 11.7677C1.03154 11.8379 1.00989 11.9178 1.00989 11.9991C1.00989 12.0804 1.03154 12.1603 1.07263 12.2305C1.11372 12.3006 1.17275 12.3586 1.24367 12.3984L11.7764 18.3517C11.8452 18.3906 11.9228 18.411 12.0017 18.411C12.0807 18.411 12.1583 18.3906 12.227 18.3517L22.7598 12.3984C22.8307 12.3586 22.8898 12.3006 22.9308 12.2305C22.9719 12.1603 22.9936 12.0804 22.9936 11.9991C22.9936 11.9178 22.9719 11.8379 22.9308 11.7677C22.8898 11.6975 22.8307 11.6396 22.7598 11.5998L22.7662 11.6007Z" fill="white" fill-opacity="0.6"/>
<path d="M22.7663 7.02121L12.2335 1.06791C12.1646 1.02965 12.087 1.00958 12.0082 1.00958C11.9294 1.00958 11.8518 1.02965 11.7829 1.06791L1.25014 7.02121C1.17922 7.06101 1.12019 7.11899 1.0791 7.18917C1.03801 7.25935 1.01636 7.33921 1.01636 7.42053C1.01636 7.50186 1.03801 7.58172 1.0791 7.6519C1.12019 7.72208 1.17922 7.78005 1.25014 7.81986L11.7829 13.7732C11.8516 13.812 11.9292 13.8324 12.0082 13.8324C12.0872 13.8324 12.1648 13.812 12.2335 13.7732L22.7663 7.81986C22.8372 7.78005 22.8962 7.72208 22.9373 7.6519C22.9784 7.58172 23.0001 7.50186 23.0001 7.42053C23.0001 7.33921 22.9784 7.25935 22.9373 7.18917C22.8962 7.11899 22.8372 7.06101 22.7663 7.02121Z" fill="white" fill-opacity="0.2"/>
</svg>
