<svg width="24" height="24" viewBox="0 0 24 24" fill="none" xmlns="http://www.w3.org/2000/svg">
<path fill-rule="evenodd" clip-rule="evenodd" d="M14 1.5C14 1.22386 13.7761 1 13.5 1H10.5C10.2239 1 10 1.22386 10 1.5V3.86443C10 4.09257 9.84503 4.29019 9.62713 4.35778C9.15614 4.50385 8.70378 4.69227 8.27449 4.91858C8.07264 5.025 7.82328 4.99485 7.66193 4.8335L5.98959 3.16116C5.79433 2.96589 5.47774 2.96589 5.28248 3.16116L3.16116 5.28248C2.9659 5.47774 2.9659 5.79432 3.16116 5.98958L4.8335 7.66192C4.99485 7.82327 5.025 8.07264 4.91859 8.27449C4.69227 8.70377 4.50385 9.15614 4.35778 9.62713C4.29019 9.84503 4.09257 10 3.86443 10H1.5C1.22386 10 1 10.2239 1 10.5V13.5C1 13.7761 1.22386 14 1.5 14H3.86443C4.09257 14 4.29019 14.155 4.35777 14.3729C4.50385 14.8439 4.69227 15.2962 4.91858 15.7255C5.025 15.9274 4.99485 16.1767 4.8335 16.3381L3.16116 18.0104C2.96589 18.2057 2.96589 18.5223 3.16116 18.7175L5.28248 20.8388C5.47774 21.0341 5.79432 21.0341 5.98958 20.8388L7.66192 19.1665C7.82327 19.0052 8.07264 18.975 8.27449 19.0814C8.70377 19.3077 9.15614 19.4961 9.62713 19.6422C9.84503 19.7098 10 19.9074 10 20.1356V22.5C10 22.7761 10.2239 23 10.5 23H13.5C13.7761 23 14 22.7761 14 22.5V20.1356C14 19.9074 14.155 19.7098 14.3729 19.6422C14.8439 19.4961 15.2962 19.3077 15.7255 19.0814C15.9274 18.975 16.1767 19.0052 16.3381 19.1665L18.0104 20.8388C18.2057 21.0341 18.5222 21.0341 18.7175 20.8388L20.8388 18.7175C21.0341 18.5222 21.0341 18.2057 20.8388 18.0104L19.1665 16.3381C19.0052 16.1767 18.975 15.9274 19.0814 15.7255C19.3077 15.2962 19.4961 14.8439 19.6422 14.3729C19.7098 14.155 19.9074 14 20.1356 14H22.5C22.7761 14 23 13.7761 23 13.5V10.5C23 10.2239 22.7761 10 22.5 10H20.1356C19.9074 10 19.7098 9.84503 19.6422 9.62713C19.4961 9.15614 19.3077 8.70377 19.0814 8.27449C18.975 8.07264 19.0052 7.82327 19.1665 7.66192L20.8388 5.9896C21.0341 5.79434 21.0341 5.47775 20.8388 5.28249L18.7175 3.16117C18.5222 2.96591 18.2057 2.96591 18.0104 3.16117L16.3381 4.8335C16.1767 4.99485 15.9274 5.025 15.7255 4.91858C15.2962 4.69227 14.8439 4.50385 14.3729 4.35778C14.155 4.29019 14 4.09257 14 3.86443V1.5ZM12 17C14.7614 17 17 14.7614 17 12C17 9.23858 14.7614 7 12 7C9.23858 7 7 9.23858 7 12C7 14.7614 9.23858 17 12 17Z" fill="white"/>
</svg>
