<svg width="24" height="24" viewBox="0 0 24 24" fill="none" xmlns="http://www.w3.org/2000/svg">
<path d="M23.787 16.5906L18.787 13.0906C18.7031 13.0311 18.6028 12.9993 18.5 12.9996C18.3674 12.9996 18.2402 13.0523 18.1464 13.146C18.0527 13.2398 18 13.367 18 13.4996V15.9996H16.8C16.3695 15.996 15.9442 15.9049 15.55 15.7318C15.1558 15.5587 14.8009 15.3072 14.507 14.9926L13.178 13.4996L11.84 14.9996L13.054 16.3606C13.5354 16.8725 14.1155 17.2816 14.7593 17.5633C15.4031 17.845 16.0973 17.9934 16.8 17.9996H18V20.4996C18.0001 20.591 18.0252 20.6807 18.0727 20.7589C18.1202 20.837 18.1883 20.9006 18.2694 20.9428C18.3506 20.985 18.4417 21.0041 18.533 20.9981C18.6243 20.992 18.7121 20.9611 18.787 20.9086L23.787 17.4086C23.8526 17.3624 23.9062 17.3012 23.9431 17.23C23.9801 17.1588 23.9994 17.0798 23.9994 16.9996C23.9994 16.9194 23.9801 16.8403 23.9431 16.7691C23.9062 16.698 23.8526 16.6367 23.787 16.5906Z" fill="white"/>
<path d="M4.2 5.99957H1C0.734784 5.99957 0.48043 6.10493 0.292893 6.29247C0.105357 6.48 0 6.73436 0 6.99957C0 7.26479 0.105357 7.51914 0.292893 7.70668C0.48043 7.89422 0.734784 7.99957 1 7.99957H4.2C5.06575 8.02628 5.88754 8.38717 6.493 9.00657L7.822 10.4996L9.16 8.99957L7.946 7.63357C6.96334 6.61382 5.61591 6.02608 4.2 5.99957Z" fill="white"/>
<path d="M23.787 6.59057L18.787 3.09057C18.7121 3.03808 18.6243 3.00713 18.533 3.00109C18.4417 2.99505 18.3506 3.01416 18.2694 3.05634C18.1883 3.09851 18.1202 3.16213 18.0727 3.24028C18.0252 3.31843 18.0001 3.40812 18 3.49957V5.99957H16.8C16.0977 6.0051 15.4037 6.15272 14.7599 6.43354C14.1161 6.71435 13.5358 7.12256 13.054 7.63357L6.493 14.9926C5.88754 15.612 5.06575 15.9729 4.2 15.9996H1C0.734784 15.9996 0.48043 16.1049 0.292893 16.2925C0.105357 16.48 0 16.7344 0 16.9996C0 17.2648 0.105357 17.5191 0.292893 17.7067C0.48043 17.8942 0.734784 17.9996 1 17.9996H4.2C5.61591 17.9731 6.96334 17.3853 7.946 16.3656L14.507 9.00657C14.8009 8.69198 15.1558 8.44047 15.55 8.26736C15.9442 8.09424 16.3695 8.00313 16.8 7.99957H18V10.4996C18 10.6322 18.0527 10.7594 18.1464 10.8531C18.2402 10.9469 18.3674 10.9996 18.5 10.9996C18.6028 10.9998 18.7031 10.968 18.787 10.9086L23.787 7.40857C23.8526 7.36243 23.9062 7.30119 23.9431 7.23C23.9801 7.15882 23.9994 7.07978 23.9994 6.99957C23.9994 6.91936 23.9801 6.84033 23.9431 6.76914C23.9062 6.69796 23.8526 6.63671 23.787 6.59057Z" fill="white"/>
</svg>
