<svg width="24" height="24" viewBox="0 0 24 24" fill="none" xmlns="http://www.w3.org/2000/svg">
<g clip-path="url(#clip0_1145_1158)">
<path fill-rule="evenodd" clip-rule="evenodd" d="M11.9436 0L12.4581 0.308697L22.4581 6.3087L23.8873 7.16619L22.4581 8.02368L12.4581 14.0237L11.9436 14.3324L11.4292 14.0237L1.42915 8.02368L0 7.16619L1.42915 6.3087L11.4292 0.308697L11.9436 0ZM3.8873 7.16619L11.9436 12L20 7.16619L11.9436 2.33238L3.8873 7.16619ZM1.60065 10.7942L2.45815 11.3087L11.9436 17L21.4292 11.3087L22.2866 10.7942L23.3156 12.5092L22.4581 13.0237L12.4581 19.0237L11.9436 19.3324L11.4292 19.0237L1.42915 13.0237L0.571661 12.5092L1.60065 10.7942ZM2.45815 16.3087L1.60065 15.7942L0.571661 17.5092L1.42915 18.0237L11.4292 24.0237L11.9436 24.3324L12.4581 24.0237L22.4581 18.0237L23.3156 17.5092L22.2866 15.7942L21.4292 16.3087L11.9436 22L2.45815 16.3087Z" fill="white"/>
</g>
<defs>
<clipPath id="clip0_1145_1158">
<rect width="24" height="24" fill="white" transform="translate(0.000488281)"/>
</clipPath>
</defs>
</svg>
