<svg width="24" height="24" viewBox="0 0 24 24" fill="none" xmlns="http://www.w3.org/2000/svg">
<path fill-rule="evenodd" clip-rule="evenodd" d="M4.00049 1C2.34363 1 1.00049 2.34315 1.00049 4V20C1.00049 21.6569 2.34363 23 4.00049 23H11.3436C12.4045 23 13.4219 22.5786 14.1721 21.8284L21.8289 14.1716C22.5791 13.4214 23.0005 12.404 23.0005 11.3431V4C23.0005 2.34315 21.6573 1 20.0005 1H4.00049ZM20.2929 12.7071C20.9229 12.0771 20.4767 11 19.5858 11H14C12.3431 11 11 12.3431 11 14V19.5858C11 20.4767 12.0771 20.9229 12.7071 20.2929L20.2929 12.7071Z" fill="white"/>
</svg>
