<svg width="24" height="24" viewBox="0 0 24 24" fill="none" xmlns="http://www.w3.org/2000/svg">
<path fill-rule="evenodd" clip-rule="evenodd" d="M12 0C7.02944 0 3 4.02944 3 9V11H5V9C5 5.13401 8.13401 2 12 2C15.866 2 19 5.13401 19 9V11H21V9C21 4.02944 16.9706 0 12 0ZM21.5422 17C20.2679 21.0571 16.4776 24 12 24C7.52236 24 3.73207 21.0571 2.4578 17H2C1.44772 17 1 16.5523 1 16V14C1 13.4477 1.44772 13 2 13H6C6 16.3137 8.68629 19 12 19C15.3137 19 18 16.3137 18 13H22C22.5523 13 23 13.4477 23 14V16C23 16.5523 22.5523 17 22 17H21.5422ZM12 17C14.2091 17 16 15.2091 16 13C16 10.7909 14.2091 9 12 9C9.79086 9 8 10.7909 8 13C8 15.2091 9.79086 17 12 17Z" fill="white"/>
</svg>
