<svg width="24" height="24" viewBox="0 0 24 24" fill="none" xmlns="http://www.w3.org/2000/svg">
<g clip-path="url(#clip0_1064_2199)">
<path fill-rule="evenodd" clip-rule="evenodd" d="M18.9498 0.807646C19.7308 0.0265973 20.9972 0.0265976 21.7782 0.807646L23.1924 2.22186C23.9735 3.00291 23.9735 4.26924 23.1924 5.05029L20.7388 7.50391C20.2997 7.943 19.7644 8.27384 19.1753 8.47021L18.8456 8.58011C18.2565 8.77648 17.7212 9.10732 17.2821 9.54641L17.2427 9.58582C17.6332 9.97634 17.6332 10.6095 17.2427 11C16.8522 11.3906 16.219 11.3906 15.8285 11L13.0001 8.17161C12.6095 7.78108 12.6095 7.14792 13.0001 6.75739C13.3906 6.36687 14.0237 6.36687 14.4143 6.75739L14.4537 6.71799C14.8928 6.27889 15.2236 5.74359 15.42 5.15447L15.5299 4.82478C15.7262 4.23567 16.0571 3.70036 16.4962 3.26127L18.9498 0.807646ZM12.0858 10.5001L13.5 11.9143L13.2178 12.1965C12.2287 13.1856 11.7629 14.5828 11.9608 15.9677C11.9855 16.1408 11.9273 16.3154 11.8036 16.4391L4.63609 23.6066L0.393451 19.364L7.56099 12.1965C7.68464 12.0728 7.85929 12.0146 8.0324 12.0393C9.41726 12.2372 10.8144 11.7714 11.8036 10.7822L12.0858 10.5001Z" fill="white"/>
</g>
<defs>
<clipPath id="clip0_1064_2199">
<rect width="24" height="24" fill="white"/>
</clipPath>
</defs>
</svg>
