<svg width="24" height="24" viewBox="0 0 24 24" fill="none" xmlns="http://www.w3.org/2000/svg">
<path fill-rule="evenodd" clip-rule="evenodd" d="M0.356902 7.21554C0.730841 5.34584 2.3725 4 4.27922 4H19.7208C21.6275 4 23.2692 5.34584 23.6431 7.21554L23.8804 8.40194C23.9423 8.71134 23.7056 9 23.3901 9H0.609911C0.294387 9 0.0577416 8.71134 0.119621 8.40194L0.356902 7.21554ZM9.00001 11H1.27934C1.13033 11 1.01441 11.1295 1.03086 11.2776L1.80234 18.2209C1.91488 19.2337 2.77101 20 3.7901 20H20.2099C21.229 20 22.0852 19.2337 22.1977 18.2209L22.9692 11.2776C22.9856 11.1295 22.8697 11 22.7207 11H15V13C15 14.1046 14.1046 15 13 15H11C9.89544 15 9.00001 14.1046 9.00001 13V11ZM11.5 11C11.2239 11 11 11.2239 11 11.5V12.5C11 12.7761 11.2239 13 11.5 13H12.5C12.7762 13 13 12.7761 13 12.5V11.5C13 11.2239 12.7762 11 12.5 11H11.5Z" fill="white"/>
</svg>
