<svg width="24" height="24" viewBox="0 0 24 24" fill="none" xmlns="http://www.w3.org/2000/svg">
<g clip-path="url(#clip0_1408_1187)">
<path fill-rule="evenodd" clip-rule="evenodd" d="M5.59368 3.44965L4.52661 0.104248L3.45954 3.44965L0.114136 4.51672L3.45954 5.5838L4.52661 8.9292L5.59368 5.5838L8.93909 4.51672L5.59368 3.44965ZM20.6452 6.61657L22.4145 1.57545L17.3734 3.34476L13.1258 0.104248L13.2507 5.44539L8.85618 8.48378L13.9745 10.0155L15.5062 15.1338L18.5446 10.7393L23.8857 10.8642L20.6452 6.61657ZM11.2882 11.3891L12.3672 11.7241L12.7022 12.8031L2.74424 22.7611C2.54924 22.9561 2.29324 23.0541 2.03724 23.0541C1.78124 23.0541 1.52524 22.9561 1.33024 22.7611C0.939237 22.3701 0.939237 21.7381 1.33024 21.347L11.2882 11.3891ZM19.4734 15.0708L20.5405 18.4162L23.8859 19.4833L20.5405 20.5503L19.4734 23.8958L18.4063 20.5503L15.0609 19.4833L18.4063 18.4162L19.4734 15.0708Z" fill="url(#paint0_linear_1408_1187)"/>
</g>
<defs>
<linearGradient id="paint0_linear_1408_1187" x1="22.7443" y1="1.51726" x2="1.12506" y2="22.876" gradientUnits="userSpaceOnUse">
<stop offset="0.548611" stop-color="white"/>
<stop offset="0.975694" stop-color="white" stop-opacity="0"/>
</linearGradient>
<clipPath id="clip0_1408_1187">
<rect width="24" height="24" fill="white"/>
</clipPath>
</defs>
</svg>
