<svg width="24" height="24" viewBox="0 0 24 24" fill="none" xmlns="http://www.w3.org/2000/svg">
<path fill-rule="evenodd" clip-rule="evenodd" d="M20 3H4V16H20V3ZM2 8H0V21H4L7 18H2V8ZM24 8H22V18H17L20 21H24V8ZM13.8803 11.19L13.4503 12.71C13.8003 12.91 14.5603 13.16 15.4103 13.16C17.0603 13.16 18.0703 12.21 18.0703 11C18.0703 9.92 17.2703 9.21001 16.6203 8.78C16.5473 8.73132 16.4734 8.68445 16.401 8.6386L16.4009 8.63855C16.0574 8.42075 15.7503 8.22608 15.7503 7.97001C15.7503 7.77001 15.9503 7.58 16.4203 7.58C16.7803 7.58 17.2403 7.69 17.7403 7.95001V6.46C17.2903 6.25001 16.7603 6.13 16.2003 6.13C14.6903 6.13 13.7703 7.01 13.7703 8.25001C13.7703 9.39001 14.5403 9.94 15.1803 10.35C15.6503 10.65 16.0303 10.9 16.0303 11.21C16.0303 11.49 15.7003 11.67 15.2103 11.67C14.7403 11.67 14.2703 11.5 13.8803 11.19ZM8.15 6.28H6C6.2 6.57001 6.45 7.06 6.79 7.76L9.39 13.13H9.69L12.29 7.76C12.59 7.14 12.85 6.65 13.07 6.28H11.1L9.62 9.63001L8.15 6.28Z" fill="white"/>
</svg>
