<svg width="24" height="24" viewBox="0 0 24 24" fill="none" xmlns="http://www.w3.org/2000/svg">
<g clip-path="url(#clip0_1213_1138)">
<path d="M0 7H4.5L13 0V24L4.5 17H0V7Z" fill="white"/>
<path d="M18.2429 7.75803L17.5359 7.05103L16.1219 8.46503L16.8289 9.17203C18.3889 10.732 18.3889 13.269 16.8289 14.828L16.1219 15.535L17.5359 16.949L18.2429 16.242C20.5819 13.903 20.5819 10.097 18.2429 7.75803Z" fill="white"/>
<path d="M20.364 4.22205L18.95 5.63605L19.6569 6.34305C22.7759 9.46205 22.7759 14.538 19.6569 17.657L18.95 18.364L20.364 19.778L21.0709 19.071C24.9699 15.172 24.9699 8.82805 21.0709 4.92805L20.364 4.22205Z" fill="white"/>
</g>
<defs>
<clipPath id="clip0_1213_1138">
<rect width="24" height="24" fill="white" transform="translate(0.000488281)"/>
</clipPath>
</defs>
</svg>
