<svg width="24" height="24" viewBox="0 0 24 24" fill="none" xmlns="http://www.w3.org/2000/svg">
<g clip-path="url(#clip0_1858_3066)">
<path d="M23.638 18.4857L14.729 1.64368C13.928 0.134677 12.056 -0.439323 10.547 0.361677C10.001 0.651677 9.55503 1.09768 9.26503 1.64368L0.356026 18.4857C-0.436974 19.9897 0.139026 21.8527 1.64403 22.6457C2.08903 22.8807 2.58603 23.0027 3.08903 23.0007H20.905C22.605 23.0057 23.988 21.6317 23.993 19.9307C23.995 19.4267 23.873 18.9307 23.638 18.4857ZM11.997 20.0007C11.169 20.0007 10.497 19.3287 10.497 18.5007C10.497 17.6727 11.169 17.0007 11.997 17.0007C12.825 17.0007 13.497 17.6727 13.497 18.5007C13.497 19.3287 12.825 20.0007 11.997 20.0007ZM12.527 15.0007H11.466C11.202 15.0007 10.983 14.7957 10.967 14.5317L10.529 7.53168C10.511 7.24368 10.74 7.00068 11.028 7.00068H12.964C13.252 7.00068 13.481 7.24368 13.463 7.53168L13.025 14.5317C13.009 14.7957 12.791 15.0007 12.527 15.0007Z" fill="white"/>
</g>
<defs>
<clipPath id="clip0_1858_3066">
<rect width="24" height="24" fill="white" transform="translate(0.000488281)"/>
</clipPath>
</defs>
</svg>
