<svg width="24" height="24" viewBox="0 0 24 24" fill="none" xmlns="http://www.w3.org/2000/svg">
<path fill-rule="evenodd" clip-rule="evenodd" d="M12 23C18.0751 23 23 18.0751 23 12C23 5.92487 18.0751 1 12 1C5.92487 1 1 5.92487 1 12C1 18.0751 5.92487 23 12 23ZM17.6468 7.95294C17.8419 8.14808 17.842 8.46443 17.6471 8.65974L14.3127 12L17.6471 15.3403C17.842 15.5356 17.8419 15.8519 17.6468 16.0471L16.0471 17.6468C15.8519 17.8419 15.5356 17.842 15.3403 17.6471L12 14.3127L8.65974 17.6471C8.46443 17.842 8.14808 17.8419 7.95294 17.6468L6.35324 16.0471C6.1581 15.8519 6.15796 15.5356 6.35293 15.3403L9.68728 12L6.35293 8.65974C6.15796 8.46443 6.1581 8.14808 6.35324 7.95294L7.95294 6.35324C8.14808 6.1581 8.46443 6.15796 8.65974 6.35293L12 9.68728L15.3403 6.35293C15.5356 6.15796 15.8519 6.1581 16.0471 6.35324L17.6468 7.95294Z" fill="white"/>
</svg>
