<svg width="24" height="24" viewBox="0 0 24 24" fill="none" xmlns="http://www.w3.org/2000/svg">
<path fill-rule="evenodd" clip-rule="evenodd" d="M14.9823 17.4962C13.5558 18.4463 11.8425 19 10 19C5.02944 19 1 14.9706 1 10C1 5.02944 5.02944 1 10 1C14.9706 1 19 5.02944 19 10C19 11.8427 18.4462 13.556 17.4961 14.9826L22.9755 20.462L20.4618 22.9757L14.9823 17.4962ZM17 10C17 13.866 13.866 17 10 17C6.13401 17 3 13.866 3 10C3 6.13401 6.13401 3 10 3C13.866 3 17 6.13401 17 10Z" fill="white"/>
<path fill-rule="evenodd" clip-rule="evenodd" d="M11 9V6H9L9 9H6V11H9L9 14H11V11H14V9H11Z" fill="white"/>
</svg>
