<?xml version="1.0" encoding="utf-8"?>
<!-- Generator: Adobe Illustrator 24.3.0, SVG Export Plug-In . SVG Version: 6.00 Build 0)  -->
<svg version="1.1" id="Layer_1" xmlns="http://www.w3.org/2000/svg" xmlns:xlink="http://www.w3.org/1999/xlink" x="0px" y="0px"
	 width="749px" height="738px" viewBox="0 0 749 738" style="enable-background:new 0 0 749 738;" xml:space="preserve">
<style type="text/css">
	.st0{fill:#2ED9C3;}
	.st1{fill:none;}
</style>
<g>
	<g>
		<path class="st0" d="M161.4,503c1.2,0.4,21.1,11.9,57.8,22.1c44.3,12.4,109.7,9.7,109.7,9.7S222,501.1,157.5,420.6
			c-35.5-44.4-62.3-124.5-51.7-200.5c9.1-65.6,38.4-112.9,38.4-112.9s-6.6,6.7-9.2,9.2C68.3,180,25.8,270.1,25.8,369.3
			c0,41.2,7.2,80.8,20.3,117.5c1.3,3.5,6.6,15.4,7.3,16.9c26.9,57.4,87.3,105.5,148.3,117.5c41,8,94.5,7.3,125.2,3.7
			c56.9-6.7,104.5-35.2,104.7-35.4c-0.1,0-90.3-1.3-160.3-23.7C206.6,545,161.5,503.1,161.4,503"/>
		<path class="st0" d="M723.2,369.1c0-14.9-2.6-52.6-9.1-79.7c-0.5-1.9-7.3-22.2-17.2-39c-11-18.6-25.2-33.9-26.2-35.1
			c-16.2-19.2-72.3-57.7-120.7-74.6c-40-13.9-78.8-12.5-100.7-7.2c-48.5,11.8-79.1,39.5-83.8,45.9c-2.7,3.8-4-6.3-2.8-12.6
			c0.7-3.6,2.6-6.9,3.4-10.5c0.5-2.4,0.9-6-0.4-7.2c-1.4-1.4-5.3-1.6-7.2-0.6c-4.9,2.7-10.3,5.5-13.6,9.8
			c-11.6,15.1-19.5,32-20.8,51.6c-1,14.6,2.6,28.1,9.4,40.8c2,3.7,2,3.5-2.9,5.8c-16.1,7.6-32-3.4-39-13.8c-2.9-4.3-4-26.1-0.2-50.8
			c2.9-18.8,7.7-29.9,9.1-33.1c3.4-7.7,7.2-13.7,9.8-17.2c0.8-1.1-0.4-2.5-1.6-1.9c-5.9,2.6-16.1,8.3-21.5,17.8
			c-7.7,13.7-18.8,32.9-19.8,34.6c-2.8,4.6-5.5,9.3-8.6,13.6c-3.7,5.1-7.9,12.3-14.7,9.3c-6.5-2.8-5.2-10.6-4.3-17.2
			c0.2-1.6,0.9-8.3-2.6-7.1c-3.4,1.1-11,9.9-13.2,15.3c-2.3,5.4-7.6,17.5-5.5,29.3c2.8,16.2,13.5,32.1,9.4,31
			c-2.9-0.7-14.5-2.9-31.1-19.8c-8.3-8.5-25.6-35.7-28.6-63.7c-3.1-28,9.1-56,19.6-70.5c17.9-24.9,49.4-46.4,81.6-60.1
			c26.2-11.1,55.9-13.3,56.2-13.3c-1,1.2-34,24.9-46.7,38.3c-16.5,17.4-25.5,34.9-25.5,34.9s37.2-24.5,80.9-34.5
			c36.6-8.4,79.5-2.9,93-1c12.1,1.7,38.3,8,39.3,8.7c-0.4,0.4-10.5,3.1-19.3,7.5c-10.6,5.4-20.1,12.6-20.1,12.6s38-2.5,76.9,5.6
			c10.6,2.2,60.3,11.9,102.1,35.9c43.5,25,68.4,44.4,68.4,44.4s-23.9-49-93.1-102.8c-23.8-18.5-88.8-56.6-160.2-64.9
			c-37.7-4.4-65.9-4.5-100.1,1c-18.6,3-50,10.6-78,24.2c-23.4,11.3-43.9,27.5-57.8,41.3c-30.6,30.2-37.3,67.5-35.4,91.5
			c4.5,55.6,35.5,85.4,54.1,94.7c36.6,18.3,63.9,5,64.3,4.7c7.2-4.9,14.5-9.7,17.9-18.3c2.1-5.2,4.5-4.9,7.8-1.1
			c7,8,16,10.5,26.1,9.4c4.9-0.5,9.8-1.3,14.7-2.3c3.6-0.8,5.8-0.3,8.1,3.4c3.9,6.1,8.7,11.8,13.7,17.1
			c14.6,15.7,31.6,18.7,50.4,8.4c4-2.2,7.1-1.2,11.1,0.5c6.9,3,14.3,4.7,21.4,7.2c2.6,0.9,6.8,2.5,6.9,4.1c0.2,2.5,9.9,21.5,8,42.4
			c-2.2,25.1-16.8,53.4-27,66.8c-20.2,26.3-52.7,37.3-60.3,40.2c-32.8,12.4-72,7.8-87.4,5.9c-31.6-4-66.9-20.2-68.2-20.4
			c0.1,0.4,46.3,45.8,102.5,62.8c15.6,4.7,58.2,27.7,117.8,7.9c59.6-19.8,76.2-63,76.2-63s8.1,4.8,17.9,7.5
			c9.9,2.7,21.6,3.2,22.5,3.5c-0.5,0.8-24.8,37.9-62.3,59.7c-43.2,25-106.8,35.2-107.1,35.4c0.1,0.1,41.9,6.5,84.6,2
			c44.8-4.7,90.6-20.3,90.6-20.3s-63.8,86.4-205,111.2c-141.2,24.8-209.7-24.2-209.7-24.2s4.4,4,8.4,7.5c3,2.6,5.9,4.9,6.1,5.1
			c60.1,49.1,136.9,78.6,220.6,78.6c46,0,89.9-8.9,130.2-25.1c0.1-0.1,0.3-0.1,0.5-0.2c37.2-13.7,70.3-36.5,95.1-57.6
			c0.5-0.4,1-0.9,1.5-1.3c1.9-1.6,3.7-3.2,5.5-4.8c0.5-0.4,1-0.9,1.4-1.3c13.7-12.4,24.3-23.8,30.9-31.8c0.1-0.2,0.3-0.3,0.4-0.5
			c0.1-0.1,0.2-0.3,0.3-0.4c0,0,0,0,0-0.1c10.2-14.4,42.2-94.4,12.6-157.6c-19.9-42.7-57-59.6-81.2-63.3
			c-12.6-1.9-21.8,2.1-23.2,2.8c-9.3,4.8-15.5,14.3-15.5,14.3s14.1,2.2,23.6,10.4c3.3,2.8,12.3,15.4,10.8,27.1
			c-1.4,11.1-13,21.4-19,23.4c-10.5,3.6-25.9-4.1-29.7-5.7c-3.4-1.5-6.5-3.3-9-5c0,0-6.5-5.9-10.6-12.3c-2.8-4.4-4.6-9-5.4-11.4
			c-0.3-1-1.4-1.4-2.3-1.1c-1.3,0.5-2.9,1.2-3.8,2c-4.6,3.8-6.4,11.1-5.9,17.9c0.1,1.8,1.6,9.1-1.1,13.7c-1.4,2.4-4.2,3.9-6.8,4.8
			c-1.8,0.5-3.5,0.9-5.3,1.1c-10,1.2-21.2-7.2-24.3-15.1c-8.4-21.1,5.4-45.6,26.7-68.1c10-10.6,38.3-33.4,70.3-34.6
			c40.6-1.4,87.5,23.6,113.7,58.4c7.7,10.3,14,21.6,18.4,33.8c22.8,63.1,0.8,117.2,0.8,117.2s4.6-7.9,8.2-14.5
			c2.4-4.4,4.3-8.4,4.4-8.6C710.1,477.5,723.2,424.8,723.2,369.1 M590.3,279.7c11.8,18.7,17.5,40,19.6,48.1c0.6,2.2,0.5,4.7,0.5,7
			c0.1,5.1-2.3,6.9-6.9,4.9c-18.6-8.2-38.4-11-58.4-13.5c-9.5-1.2-19.1,0.3-28.2,3.3c-2.4,0.8-7.5-6-11.6-13.7
			c-4.3-8-7.6-17-5.8-19.6c4.9-7.2,6.1-15.4,6.5-16.4c0.4-0.9-0.5-1.7-1.4-1.3c-5.1,2.6-10.9,11.6-29.8,15.3
			c-18.9,3.8-38,2-57.2-11.3c-17.2-12-21-38-21.2-38.3c-1.7-2.5-5.9-0.5-9.1,2.1c-1.8,1.5-8.1,8.6-8.2,17.3
			c-0.1,9.8,5.2,19.3,9,23.5c3.8,4.2,12.7,7.5-1.1,7.4c-4.3,0-10.1-3-15.9-7.9c-12.7-10.7-25.3-30.8-22.6-50.5
			c1.5-11,13.4-37.7,39.2-57.3c26.8-20.4,67.8-33.5,87.1-35.9c33.2-4.2,69.3,7.8,83.1,12.5c28.2,9.6,49.8,24.9,49.8,24.9
			s-21.7-8.5-42.9-12c-21.3-3.6-42.1-2.2-42.2-2.2c0.7,0.7,51.8,15.1,79.1,43c26,26.6,34.7,63.2,34.7,64c-0.7-0.2-20.7-17-42.6-26.4
			c-23-10-47.8-12.6-47.8-12.6S576.4,257.7,590.3,279.7"/>
		<line class="st1" x1="505.3" y1="301.1" x2="503.3" y2="304.3"/>
	</g>
</g>
</svg>
