<?xml version="1.0" encoding="utf-8"?>
<!-- Generator: Adobe Illustrator 25.1.0, SVG Export Plug-In . SVG Version: 6.00 Build 0)  -->
<svg version="1.1" id="Layer_1" xmlns="http://www.w3.org/2000/svg" xmlns:xlink="http://www.w3.org/1999/xlink" x="0px" y="0px"
	 width="192px" height="192px" viewBox="0 0 192 192" enable-background="new 0 0 192 192" xml:space="preserve">
<g>
	<g>
		<g>
			<path fill="#FFFFFF" d="M59.44,103.11c5.74,7.81,12.86,8.19,12.86,8.19h12.48l5.63-8.19H59.44z"/>
		</g>
		<g>
			<path fill="#FFFFFF" d="M43.91,90.82c5.74,7.81,12.86,8.19,12.86,8.19h36.45l5.63-8.19H43.91z"/>
		</g>
		<g>
			<path fill="#FFFFFF" d="M28.39,78.53c5.74,7.81,12.86,8.19,12.86,8.19h60.43l5.63-8.19H28.39z"/>
		</g>
		<g>
			<path fill="#FFFFFF" d="M0,58.05c11.48,15.62,25.72,16.39,25.72,16.39h89.35l-29.65,43.13c-5.91,8.59,8.61,16.39,8.61,16.39
				l40.92-59.51l0,0c0,0,14.24-0.77,25.72-16.39H0z"/>
		</g>
		<g>
			<path fill="#FFFFFF" d="M192,58.05h-19.88c-11.48,15.62-25.72,16.39-25.72,16.39h14.46l-29.65,43.13
				c-5.91,8.59,8.61,16.39,8.61,16.39L192,58.05z"/>
		</g>
	</g>
</g>
</svg>
