<?xml version="1.0" encoding="utf-8"?>
<!-- Generator: Adobe Illustrator 25.0.1, SVG Export Plug-In . SVG Version: 6.00 Build 0)  -->
<svg version="1.1" id="Layer_1" xmlns="http://www.w3.org/2000/svg" xmlns:xlink="http://www.w3.org/1999/xlink" x="0px" y="0px"
	 width="324px" height="110px" viewBox="0 0 324 110" enable-background="new 0 0 324 110" xml:space="preserve">
<path fill="#FAF8F9" d="M156.9,88c22.4,0,39.3-12.1,39.3-33.2c0-19.4-14.9-32.7-42.3-32.7c-5,0-11.4,0.3-16,0.6
	c2.5,5.7,3.4,10.6,3.4,18.6v27.9c0,8-0.8,13-3,18.8H156.9z M157.2,78.2c-0.4-3.1-0.6-7.2-0.6-12.7V43.6c0-5.4,0.2-8.6,0.5-11.8
	c14,0.7,23.8,9.8,23.8,23.7C180.9,70.2,170.5,77.5,157.2,78.2z M230.8,88c-2.2-5.8-3-10.8-3-18.8V63c0.8,0.2,2.6,0.3,4.6,0.3
	c13.6,0,22.7-8.2,22.7-20.3c0-13-10.6-20.5-25.5-20.5h-20.1c2.2,5.8,3,10.8,3,18.8v27.9c0,8-0.8,13-3,18.8H230.8z M229.2,56.5
	c-0.3,0-1.1-0.2-1.4-0.2V31.1c8.4,0.5,12,5.8,12,12.9S236.2,56.5,229.2,56.5z M300.2,88.8c6.6,0,12.8-1.4,17.4-4.1l4.1-15l-0.2-0.1
	c-4,4.2-11.8,7.6-19.3,7.6c-12.4,0-20.4-9.5-20.4-22.4c0-13.4,8.6-22.4,19.4-22.4c6,0,12.2,2.9,16.2,7.4l0.2-0.1l3.6-14
	c-5.8-2.8-11.4-4-17.6-4c-20.3,0-37.1,13.2-37.1,34.6C266.5,74.7,279.4,88.8,300.2,88.8z"/>
<radialGradient id="SVGID_1_" cx="-518.3806" cy="442.4346" r="0.6707" gradientTransform="matrix(1.240200e-14 202.54 202.54 -1.240200e-14 -89555.5938 104992.7969)" gradientUnits="userSpaceOnUse">
	<stop  offset="0" style="stop-color:#D72D1D"/>
	<stop  offset="1" style="stop-color:#F65F23"/>
</radialGradient>
<path fill-rule="evenodd" clip-rule="evenodd" fill="url(#SVGID_1_)" d="M108.4,68.5c1.1-4.3,1.7-8.8,1.7-13.5c0-30.4-24.6-55-55-55
	c-30.4,0-55,24.6-55,55c0,4.6,0.6,9,1.6,13.2C14,69.7,23.5,80.2,23.5,92.8c0,2.3-0.3,4.5-0.9,6.6c9.1,6.7,20.3,10.6,32.5,10.6
	c12.7,0,24.4-4.3,33.7-11.5c-0.4-1.8-0.7-3.7-0.7-5.7C88.1,80.6,96.9,70.5,108.4,68.5z M38,24.8c0,6.9,5.4,9.6,14.6,9.6
	c9.2,0,23.4,4.8,23.4,19.3c0,0-7.8,2.8-7.5,9.6c0.2,3.2,2.4,5.7,4.9,8.3c2.8,3,5.8,6.2,6,11c14.2-9.3,14.2-28.9,14.2-28.9
	c1-28.9-26.8-38.8-37.6-38.8C45.1,14.8,38,17.9,38,24.8z M72.2,81.8c0-6.9-5.4-9.6-14.6-9.6c-9.2,0-23.4-4.8-23.4-19.3
	c0,0,7.8-2.7,7.5-9.6c-0.2-3.2-2.4-5.7-4.9-8.3c-2.8-3-5.8-6.2-6-11c-14.2,9.3-14.2,28.9-14.2,28.9c-1,28.9,26.8,38.8,37.6,38.8
	C65.1,91.8,72.2,88.7,72.2,81.8z M64.3,53.5c0,5.1-4.1,9.2-9.2,9.2s-9.2-4.1-9.2-9.2c0-5.1,4.1-9.2,9.2-9.2S64.3,48.5,64.3,53.5z"/>
</svg>
