<svg width="164" height="164" viewBox="0 0 164 164" fill="none" xmlns="http://www.w3.org/2000/svg">
<path fill-rule="evenodd" clip-rule="evenodd" d="M161.529 102.058C163.143 95.639 164 88.9196 164 82C164 36.7127 127.287 0 82 0C36.7127 0 0 36.7127 0 82C0 88.8052 0.828969 95.4167 2.39144 101.739C20.6761 103.933 34.8491 119.499 34.8491 138.374C34.8491 141.76 34.393 145.04 33.539 148.155C47.1151 158.117 63.8704 164 82 164C100.903 164 118.311 157.604 132.18 146.858C131.539 144.134 131.2 141.294 131.2 138.374C131.2 120.238 144.285 105.157 161.529 102.058ZM56.4507 36.9184C56.4502 47.1688 64.5399 51.2687 78.189 51.2687C91.8382 51.2687 113.071 58.4441 113.071 79.9693C113.071 79.9693 101.444 84.0693 101.949 94.3197C102.184 99.0931 105.599 102.755 109.232 106.651C113.4 111.121 117.856 115.9 118.127 123.02C139.36 109.183 139.36 79.9693 139.36 79.9693C140.876 36.9184 99.4223 22.0558 83.2444 22.0557C67.0666 22.0555 56.4512 26.668 56.4507 36.9184ZM107.549 121.993C107.55 111.742 99.4602 107.643 85.811 107.643C72.1619 107.643 50.9286 100.467 50.9286 78.942C50.9286 78.942 62.5561 74.842 62.051 64.5916C61.8158 59.8182 58.4012 56.1563 54.7682 52.2603C50.5996 47.7899 46.1436 43.0111 45.8732 35.8912C24.6404 49.7287 24.6404 78.942 24.6404 78.942C23.1243 121.993 64.5777 136.856 80.7556 136.856C96.9334 136.856 107.549 132.243 107.549 121.993ZM95.6667 79.8326C95.6667 87.3804 89.5479 93.4992 82 93.4992C74.4521 93.4992 68.3333 87.3804 68.3333 79.8326C68.3333 72.2847 74.4521 66.1659 82 66.1659C89.5479 66.1659 95.6667 72.2847 95.6667 79.8326Z" fill="url(#paint0_radial)"/>
<defs>
<radialGradient id="paint0_radial" cx="0" cy="0" r="1" gradientUnits="userSpaceOnUse" gradientTransform="translate(82) rotate(90) scale(202.54)">
<stop stop-color="#D72D1D"/>
<stop offset="1" stop-color="#F65F23"/>
</radialGradient>
</defs>
</svg>
