<svg width="24" height="24" viewBox="0 0 24 24" fill="none" xmlns="http://www.w3.org/2000/svg">
<path fill-rule="evenodd" clip-rule="evenodd" d="M24 12C24 13.0126 23.8746 13.9959 23.6384 14.9353C21.1149 15.3889 19.2 17.5958 19.2 20.2499C19.2 20.6772 19.2497 21.0928 19.3434 21.4914C17.3139 23.064 14.7662 24 12 24C9.3469 24 6.89489 23.139 4.90815 21.6812C5.03313 21.2253 5.09987 20.7454 5.09987 20.2499C5.09987 17.4876 3.02577 15.2097 0.349966 14.8887C0.121313 13.9634 0 12.9959 0 12C0 5.37258 5.37258 0 12 0C18.6274 0 24 5.37258 24 12ZM8.41046 5.433C8.41038 6.93885 9.59884 7.54115 11.604 7.54115C13.6092 7.54115 16.7286 8.59526 16.7286 11.7575C16.7286 11.7575 15.0204 12.3598 15.0946 13.8656C15.1292 14.5669 15.6308 15.1048 16.1645 15.6772C16.7769 16.3339 17.4316 17.036 17.4713 18.0819C20.5906 16.0491 20.5906 11.7575 20.5906 11.7575C20.8134 5.433 14.7234 3.24956 12.3467 3.24955C9.97004 3.24953 8.41053 3.92714 8.41046 5.433ZM15.9177 17.9321C15.9177 16.4262 14.7293 15.8239 12.7241 15.8239C10.7189 15.8239 7.59951 14.7698 7.59951 11.6076C7.59951 11.6076 9.3077 11.0053 9.2335 9.49944C9.19895 8.7982 8.69731 8.26025 8.16359 7.68789L8.16359 7.68789C7.55118 7.03115 6.89654 6.32912 6.85682 5.28316C3.7375 7.31599 3.7375 11.6076 3.7375 11.6076C3.51477 17.9321 9.60471 20.1155 11.9814 20.1155C14.3581 20.1156 15.9176 19.4379 15.9177 17.9321ZM12.1647 13.6185C13.2394 13.6185 14.1106 12.7472 14.1106 11.6725C14.1106 10.5978 13.2394 9.72656 12.1647 9.72656C11.09 9.72656 10.2188 10.5978 10.2188 11.6725C10.2188 12.7472 11.09 13.6185 12.1647 13.6185Z" fill="white"/>
</svg>
