<?xml version="1.0" encoding="utf-8"?>
<!-- Generator: Adobe Illustrator 25.0.1, SVG Export Plug-In . SVG Version: 6.00 Build 0)  -->
<svg version="1.1" id="Layer_1" xmlns="http://www.w3.org/2000/svg" xmlns:xlink="http://www.w3.org/1999/xlink" x="0px" y="0px"
	 viewBox="0 0 30 30" style="enable-background:new 0 0 30 30;" xml:space="preserve">
<style type="text/css">
	.st0{fill-rule:evenodd;clip-rule:evenodd;fill:#FFFFFF;}
</style>
<path class="st0" d="M30,15c0,1.3-0.2,2.5-0.5,3.7C26.4,19.2,24,22,24,25.3c0,0.5,0.1,1.1,0.2,1.6c-2.5,2-5.7,3.1-9.2,3.1
	c-3.3,0-6.4-1.1-8.9-2.9c0.2-0.6,0.2-1.2,0.2-1.8c0-3.5-2.6-6.3-5.9-6.7C0.2,17.5,0,16.2,0,15C0,6.7,6.7,0,15,0C23.3,0,30,6.7,30,15
	z M10.5,6.8c0,1.9,1.5,2.6,4,2.6s6.4,1.3,6.4,5.3c0,0-2.1,0.8-2,2.6c0,0.9,0.7,1.5,1.3,2.3c0.8,0.8,1.6,1.7,1.6,3
	c3.9-2.5,3.9-7.9,3.9-7.9C26,6.8,18.4,4.1,15.4,4.1C12.5,4.1,10.5,4.9,10.5,6.8z M19.9,22.4c0-1.9-1.5-2.6-4-2.6s-6.4-1.3-6.4-5.3
	c0,0,2.1-0.8,2-2.6c0-0.9-0.7-1.5-1.3-2.3c-0.8-0.8-1.6-1.7-1.6-3c-3.9,2.5-3.9,7.9-3.9,7.9C4.4,22.4,12,25.1,15,25.1
	C17.9,25.1,19.9,24.3,19.9,22.4z M15.2,17c1.3,0,2.4-1.1,2.4-2.4s-1.1-2.4-2.4-2.4s-2.4,1.1-2.4,2.4S13.9,17,15.2,17z"/>
</svg>
