<?xml version="1.0" encoding="utf-8"?>
<!-- Generator: Adobe Illustrator 23.0.1, SVG Export Plug-In . SVG Version: 6.00 Build 0)  -->
<svg version="1.1" id="Layer_1" xmlns="http://www.w3.org/2000/svg" xmlns:xlink="http://www.w3.org/1999/xlink" x="0px" y="0px"
	 width="192px" height="192px" viewBox="0 0 192 192" enable-background="new 0 0 192 192" xml:space="preserve">
<g id="Layer_8">
	<g transform="matrix( 1, 0, 0, 1, 0,0) ">
		<g>
			<g>
				<path fill="#FFFFFF" d="M103.9,116c-1.8,2-4.4,3.3-7.8,3.7c0,0-0.1,0-0.1,0c0,0-0.1,0-0.1,0c-3.4-0.5-6-1.7-7.8-3.7l0,76l0,0
					c4.5-2.1,8.8-4.8,12.8-8.1c1-0.8,1.9-1.6,2.8-2.4c0,0,0,0,0.1,0c0.8-0.7,1.6-1.5,2.4-2.2h-2.4L103.9,116 M97.6,106L97.6,106
					c-1.2,0.3-2.3,0.3-3.4,0c-1.9-0.5-3-0.3-3.4,0.5c0.9,2.6,2.6,4.5,5.2,5.8c2.7-1.3,4.4-3.3,5.2-5.8
					C100.8,105.6,99.6,105.5,97.6,106 M50.8,10.5c0.1,0.1,0.2,0.2,0.3,0.3c1.9,1.9,3,4.3,3.1,7c0,0.2,0,0.3,0,0.5s0,0.3,0,0.5
					l0,58.4c-0.4,0.2-0.9,0.5-1.3,0.7c-1.4,0.8-3.7,2.2-6.9,4.3c-0.1,0.1-0.3,0.2-0.4,0.3c-0.5,0.3-1.1,0.4-1.7,0.4
					c-1,0-1.8-0.4-2.6-1.1c-0.3-0.3-0.5-0.5-0.6-0.8c1.5,4.6,4.1,8.5,7.8,11.8c1.8,1.6,3.6,2.9,5.6,4.1V130c-6-2.7-12.3-4.5-19-5.6
					c-1.4-0.2-2.9-0.4-4.4-0.6c-0.2,0-0.3,0-0.5-0.1c-0.6-0.1-1.1-0.4-1.5-0.8c-0.6-0.6-0.9-1.3-0.9-2.1c0-0.2,0-0.4,0.1-0.5
					l2.6-11.8l-1.5-1.5L8.8,142c0.4-0.2,0.8-0.4,1.2-0.6c0.8-0.4,1.5-0.7,2.3-1c1.5-0.5,3-0.9,4.6-1.2c0.5-0.1,1.1-0.2,1.6-0.2
					c0.1,0,0.2,0,0.3,0c0.1,0,0.2,0,0.3,0c0.2,0,0.4,0,0.6,0c0.1,0,0.3,0,0.4,0c0.4,0,0.7,0,1.1,0h0.2c0.1,0,0.1,0,0.2,0
					c0.1,0,0.3,0,0.4,0h0.2c0.1,0,0.2,0,0.2,0c0,0,0.1,0,0.1,0c0,0,0,0,0.1,0h0.3c0.6,0,1.2,0,1.9,0.1c0.3,0,0.6,0,0.9,0.1
					c3.9,0.2,7.7,0.8,11.4,1.7c4.1,1,8,2.3,11.7,4c0.2,0.1,0.3,0.1,0.5,0.2c0.1,0.1,0.3,0.1,0.4,0.2c0,0,0.1,0,0.1,0.1
					c0.1,0,0.2,0.1,0.3,0.1c0.2,0.1,0.4,0.2,0.5,0.3c1.1,0.5,2.1,1.1,3.2,1.7c0.1,0.1,0.3,0.2,0.4,0.2c5,2.9,9.8,6.6,14.2,11
					c0.5,0.5,1,1,1.5,1.5v-57.8l-5.9-1.8c1.9-1.2,3.9-2.4,5.9-3.5c2.9-1.6,6.3-3.1,10.2-4.7l0,0c0.3-0.1,0.6-0.2,0.9-0.2
					c0.3,0,0.5,0,0.8,0.1c0.3,0.1,0.6,0.3,0.8,0.5c0.5,0.5,0.7,1,0.7,1.6c0,0.1,0,0.1,0,0.2l0,0.1c0,0,0,0.1,0,0.1l-0.5,4.8
					l8.5-19.8c-0.2,0.3-0.4,0.6-0.6,0.8c-0.7,0.7-1.6,1.1-2.6,1.2c-0.1,0-0.1,0-0.2,0c-1.1,0-2-0.4-2.7-1.1c0,0,0,0,0,0c0,0,0,0,0,0
					L85,80.5c-0.1-0.1-0.2-0.2-0.2-0.2c-1.9-1.9-3.7-3.4-5.5-4.6c-0.5-0.3-0.9-0.6-1.3-0.8c-1.5-0.8-2.9-1.4-4.2-1.7
					c-1.2-0.3-2.5-0.4-3.8-0.4c-1.1,0-2.2,0.1-3.4,0.2c-2.2,0.3-4.4,0.9-6.7,1.7c3.8-2.2,7.1-3.7,10.1-4.3V34.2
					c0-0.6,0.2-1.1,0.6-1.5c0.4-0.4,1-0.6,1.6-0.6c0.2,0,0.4,0,0.5,0.1c0,0,0,0,0,0h0c0.1,0,0.2,0.1,0.3,0.1
					c0.2,0.1,0.5,0.2,0.7,0.3l0-2.2L52.4,9L50.8,10.5 M71.7,81.4c0-1.2,0.3-2.2,0.8-3.1c0.8,0.3,1.5,0.6,2.3,1c1,0.5,2,1,3,1.6h-3.5
					c0,0.2,0,0.3,0,0.5c0,1.1,0.4,2.1,1.2,2.9c0.8,0.8,1.8,1.2,2.9,1.2c0.9,0,1.7-0.2,2.4-0.7c0.2-0.1,0.4-0.3,0.5-0.5
					c0.2-0.2,0.3-0.3,0.5-0.5c0.6,0.5,1.2,1.1,1.8,1.7c-0.2,0.2-0.3,0.4-0.5,0.6c-0.6,0.6-1.2,1-1.9,1.3c-0.8,0.4-1.8,0.6-2.8,0.6
					c-1.8,0-3.4-0.6-4.7-1.9C72.3,84.8,71.7,83.2,71.7,81.4 M105.9,3.1c0.6-0.4,1.3-0.8,2.1-1.1c0.5-0.2,0.9-0.3,1.4-0.4L107.8,0
					H84.2l-1.6,1.5c1.3,0.3,2.5,0.9,3.6,1.6C87.4,4,88.1,5.6,88.1,8v57.3l7.9,8.8l7.7-8.8V8c0-2.1,0.6-3.7,1.6-4.6
					c0.1-0.1,0.2-0.2,0.3-0.2C105.8,3.1,105.8,3.1,105.9,3.1 M175,139.2c1.6,0.2,3.2,0.6,4.6,1.2c0.8,0.3,1.6,0.6,2.3,1c0,0,0,0,0,0
					c0.4,0.2,0.8,0.4,1.2,0.6l-20.3-35.2l-1.5,1.5l2.6,11.8c0,0.2,0.1,0.4,0.1,0.5c0,0.8-0.3,1.5-0.9,2.1c-0.4,0.4-0.9,0.7-1.5,0.8
					c0,0,0,0,0,0l0,0c0,0,0,0,0,0c-0.1,0-0.1,0-0.2,0l-0.2,0c-0.1,0-0.1,0-0.2,0c0,0,0,0-0.1,0l-3.4,0.4c-0.3,0-0.6,0.1-0.9,0.1
					c-6.6,1.1-12.9,3-19,5.6V96.8c2-1.1,3.9-2.5,5.6-4.1c3.7-3.3,6.3-7.3,7.8-11.8c-0.2,0.3-0.4,0.6-0.6,0.8
					c-0.7,0.7-1.6,1.1-2.6,1.1c-0.6,0-1.2-0.1-1.7-0.4c-0.1-0.1-0.3-0.2-0.4-0.3c-3.2-2.1-5.5-3.5-6.9-4.3c-0.4-0.2-0.9-0.5-1.3-0.7
					l0-58.4c0-0.2,0-0.3,0-0.5s0-0.3,0-0.5c0.1-2.7,1.1-5,3.1-7c0.1-0.1,0.2-0.2,0.3-0.3L139.6,9l-21.3,21.3l0,2.2l0.4-0.2
					c0.1,0,0.1,0,0.2-0.1c0.1,0,0.1,0,0.2-0.1l0.1,0c0,0,0,0,0.1,0c0,0,0,0,0.1,0h0h0c0,0,0,0,0,0c0.2,0,0.3-0.1,0.5-0.1
					c0.6,0,1.1,0.2,1.6,0.6c0.4,0.4,0.6,0.9,0.6,1.5v36.1c3,0.6,6.3,2.1,10.1,4.3c-2.3-0.8-4.5-1.4-6.7-1.7
					c-1.2-0.1-2.3-0.2-3.4-0.2c-1.3,0-2.6,0.1-3.8,0.4c-1.4,0.3-2.8,0.9-4.2,1.7c-0.4,0.3-0.9,0.5-1.3,0.8c-1.8,1.2-3.6,2.7-5.5,4.6
					c-0.1,0.1-0.1,0.2-0.2,0.2l-0.1,0.1c0,0,0,0,0,0c0,0,0,0,0,0c-0.5,0.4-1,0.8-1.5,0.9c-0.4,0.1-0.8,0.2-1.2,0.2
					c-0.1,0-0.1,0-0.2,0c0,0,0,0-0.1,0c-1-0.1-1.8-0.5-2.5-1.2c-0.3-0.3-0.5-0.5-0.7-0.8l8.5,19.8l-0.5-4.8l0-0.2c0-0.1,0-0.1,0-0.2
					c0-0.6,0.2-1.2,0.7-1.6c0.3-0.3,0.5-0.4,0.9-0.5c0.3-0.1,0.5-0.1,0.8-0.1c0.3,0,0.6,0.1,0.9,0.2l0,0c1.4,0.6,2.8,1.1,4.1,1.7
					c2.2,1,4.3,2,6.1,3c2,1.1,3.9,2.2,5.9,3.5l-5.9,1.8v57.8h0c0.4-0.4,0.7-0.8,1.1-1.1c0.1-0.1,0.3-0.3,0.4-0.4
					c4.4-4.4,9.2-8.1,14.2-11c0.1-0.1,0.3-0.2,0.4-0.2c1-0.6,2.1-1.2,3.2-1.7c0.2-0.1,0.4-0.2,0.5-0.3c0.1-0.1,0.2-0.1,0.3-0.1
					c0,0,0.1,0,0.1-0.1c0.1-0.1,0.3-0.1,0.4-0.2c0.2-0.1,0.3-0.2,0.5-0.2c3.8-1.7,7.7-3.1,11.7-4c3.7-0.9,7.5-1.4,11.4-1.7
					c0.1,0,0.1,0,0.2,0l0.6,0c0,0,0.1,0,0.1,0c0.1,0,0.2,0,0.2,0l1.9-0.1c0,0,0,0,0.1,0c0,0,0.1,0,0.1,0c0.1,0,0.1,0,0.2,0h0.9
					c0.4,0,0.7,0,1.1,0h0.1c0.1,0,0.2,0,0.3,0c0.2,0,0.4,0,0.6,0c0.1,0,0.2,0,0.3,0s0.2,0,0.3,0C173.9,139.1,174.4,139.1,175,139.2
					 M119.5,78.3c0.5,0.9,0.8,2,0.8,3.1c0,1.8-0.6,3.4-1.9,4.7c-1.3,1.3-2.9,1.9-4.7,1.9c-1,0-1.9-0.2-2.8-0.6c0,0-0.1,0-0.1,0
					c-0.6-0.3-1.2-0.8-1.8-1.3c-0.2-0.2-0.4-0.4-0.5-0.6c0.1-0.1,0.2-0.2,0.3-0.3c0.5-0.5,1-0.9,1.5-1.3c0.1,0.2,0.3,0.4,0.5,0.5
					c0.2,0.2,0.4,0.3,0.5,0.5c0.7,0.5,1.5,0.7,2.4,0.7c1.1,0,2.1-0.4,2.9-1.2c0.8-0.8,1.2-1.8,1.2-2.9c0-0.2,0-0.4,0-0.5h-3.5
					c1-0.6,2-1.1,3-1.6C118,78.9,118.8,78.6,119.5,78.3z"/>
			</g>
		</g>
	</g>
</g>
</svg>
