<svg id="Layer_1" data-name="Layer 1" xmlns="http://www.w3.org/2000/svg" xmlns:xlink="http://www.w3.org/1999/xlink" viewBox="0 0 163.57 184.62"><defs><style>.cls-1{fill:none;}.cls-2{clip-path:url(#clip-path);}.cls-3{fill:url(#linear-gradient);}</style><clipPath id="clip-path" transform="translate(-16.55 -2.46)"><path class="cls-1" d="M136.76,52.1c0,14.31.07,28.62.06,42.93,0,7.22-.13,14.44-.18,21.67a1.69,1.69,0,0,1-1,1.67c-2.82,1.57-5.61,3.2-8.4,4.81-.32.18-.61.4-1,.67a8.43,8.43,0,0,0,.86.65c5.55,3.21,11.1,6.4,16.65,9.63a1.6,1.6,0,0,0,1.82,0q4.42-2.61,8.89-5.12a1.86,1.86,0,0,0,1.05-1.86q0-32.43,0-64.86a1.91,1.91,0,0,0-1.11-1.93c-5-2.84-10-5.74-15-8.62-.79-.45-1.6-.87-2.6-1.41C136.81,51.06,136.76,51.58,136.76,52.1Zm-70.53,13Q58,60.36,49.7,55.56a1.59,1.59,0,0,0-1.83,0c-2.71,1.59-5.42,3.18-8.18,4.7a1.91,1.91,0,0,0-1.11,1.93q0,32.48,0,64.94A1.84,1.84,0,0,0,39.65,129c4.39,2.5,8.75,5,13.12,7.57,1.43.82,2.88,1.62,4.45,2.51.05-.51.1-.81.1-1.1,0-6.81-.06-13.61-.06-20.41q0-22.5.09-45a2.1,2.1,0,0,1,.87-1.43c1.22-.82,2.54-1.5,3.82-2.23l5.27-3C66.79,65.52,66.53,65.31,66.23,65.14ZM56.75,51.78C62.16,54.91,67.59,58,73,61.17a2,2,0,0,0,2.34,0c6.81-4,13.66-7.88,20.48-11.83a2,2,0,0,1,2.34-.1Q111.43,57,124.74,64.71c1.63,1,3.28,1.86,5,2.84a6.77,6.77,0,0,0,.18-1c0-6.49,0-13,0-19.47a1.91,1.91,0,0,0-.84-1.34C118.84,39.84,108.57,33.94,98.32,28a2.21,2.21,0,0,0-2.55,0Q78.84,37.79,61.86,47.55c-2,1.14-3.94,2.3-6.07,3.54A10.55,10.55,0,0,0,56.75,51.78Zm7.35,72c0,5.91,0,11.82,0,17.73a2.39,2.39,0,0,0,1.37,2.4q15.38,8.81,30.71,17.69a1.51,1.51,0,0,0,1.71,0q19.38-11.2,38.76-22.37a10.6,10.6,0,0,0,1-.71c-.39-.28-.62-.48-.88-.63-5.48-3.18-11-6.34-16.43-9.54a1.86,1.86,0,0,0-2.14.15c-6.63,3.82-13.28,7.61-19.89,11.45a2,2,0,0,1-2.34,0q-15.09-8.61-30.21-17.15c-.42-.24-.87-.43-1.6-.78Zm34.25,7v-1.54q0-17.21,0-34.4a1.82,1.82,0,0,1,1-1.86q15-8.57,30-17.22c.23-.13.48-.23.95-.46v1.34q0,17.08,0,34.16a2,2,0,0,1-1.1,1.94q-14.88,8.72-29.73,17.48C99.22,130.36,98.91,130.48,98.35,130.75Zm8.58-31.12c0,.12.14,1.07.8,1.34.14,0,.47.2,1.32-.2.56-.27,1.08-.6,1.62-.91,3.27-1.93,6.53-3.9,9.84-5.78a1.8,1.8,0,0,0,1-1.17,1.21,1.21,0,0,0-.12-.94,1.48,1.48,0,0,0-1.26-.48,3.18,3.18,0,0,0-1.81.58c-3.22,2.16-6.71,3.89-10,5.92a3.33,3.33,0,0,0-.93.84A2.89,2.89,0,0,0,106.93,99.63Zm.19,13.36a1.15,1.15,0,0,0,1.8,1.13,16.49,16.49,0,0,0,2.44-1.33q4.69-2.79,9.38-5.62a2,2,0,0,0,1-1.17,1.32,1.32,0,0,0-.29-1.08,1.51,1.51,0,0,0-1-.29,2.24,2.24,0,0,0-1,.15,1.43,1.43,0,0,0-.31.15c-3.69,2.13-7.28,4.45-11,6.51a1.94,1.94,0,0,0-.85.82A1.59,1.59,0,0,0,107.12,113ZM64.21,75c.64.35,1.18.62,1.7.92C75.26,81.35,84.57,86.82,94,92.08a3.52,3.52,0,0,1,2,3.7c-.07,11,0,22.08,0,33.11,0,.49,0,1-.07,1.69a11.5,11.5,0,0,1-1.16-.57q-13.09-7.74-26.17-15.5c-1.23-.73-2.5-1.41-3.69-2.22a2,2,0,0,1-.79-1.33c0-11.66,0-23.32,0-35C64.1,75.72,64.16,75.46,64.21,75ZM86.7,115a9.74,9.74,0,0,0,.16-1.2c0-4.7,0-9.4,0-14.1A1.71,1.71,0,0,0,85.79,98c-3.34-1.9-6.67-3.83-10-5.74-.85-.49-1.72-1-2.69-1.49a4.94,4.94,0,0,0-.17.85c0,4.85,0,9.71,0,14.57a1.88,1.88,0,0,0,.82,1.34c2.79,1.68,5.64,3.28,8.47,4.9C83.65,113.27,85.07,114.05,86.7,115Zm2.42-33.22A51.81,51.81,0,0,1,104,81.59a10.58,10.58,0,0,1,3.12.87c.91.42,1.21.18,1.5-.66,1.6-4.63,3.25-9.23,4.84-13.85a1.82,1.82,0,0,1,1.2-1.4,1.08,1.08,0,0,0,.79-1.54,1.21,1.21,0,0,0-1.74-.67,1.27,1.27,0,0,0-.75.87,1.48,1.48,0,0,0,.25.87c.15.32.21.34.23.5s-.18.54-.47.87l-.93,1a23.17,23.17,0,0,1-6,5c-2.09,1.07-3.48.74-4.8-1.17a10.64,10.64,0,0,1-.9-1.62C98.61,67,98,63,97.28,59.1a2,2,0,0,1,.41-1.32c.44-.61.53-1.2,0-1.65a1.41,1.41,0,0,0-1.26-.19c-.64.37-.72,1-.35,1.72a2.63,2.63,0,0,1,.37,1.49,68,68,0,0,1-1.62,7.39,30.64,30.64,0,0,1-2.66,6c-.9,1.6-2.34,1.84-4.05,1.1a6.27,6.27,0,0,1-1.62-.91q-3-2.68-5.84-5.47a1.32,1.32,0,0,1-.14-1.19c.3-.79.21-1.41-.54-1.78a1.13,1.13,0,0,0-1.65.6c-.35.79.06,1.31.76,1.7a2,2,0,0,1,1,.88c1.26,3.46,2.45,6.95,3.68,10.43.58,1.67,1.19,3.32,1.76,4.93A29.69,29.69,0,0,1,89.12,81.74Zm2.3-10.31c.18-1.59-1.45-3.12-2.06-4.93a1.74,1.74,0,0,1-.11-1.28,2.48,2.48,0,0,0,.31-.71,1,1,0,0,0,0-.68.88.88,0,0,0-1.61,0,1.29,1.29,0,0,0,0,.55,2,2,0,0,0,.41.87,3.08,3.08,0,0,1,.29,1.35c.16,1.8-1.11,3.5-.5,5.13.31.83,1.1,1.64,1.84,1.57S91.32,72.34,91.42,71.43ZM104,73.34c.74.07,1.53-.74,1.84-1.57.6-1.63-.66-3.33-.51-5.13a2.93,2.93,0,0,1,.3-1.35,2.2,2.2,0,0,0,.41-.87,1.48,1.48,0,0,0,0-.55.9.9,0,0,0-.84-.55.93.93,0,0,0-.78.51,1,1,0,0,0,0,.68,2.79,2.79,0,0,0,.31.71,1.71,1.71,0,0,1-.1,1.28c-.62,1.81-2.24,3.34-2.07,4.93C102.55,72.34,103.24,73.28,104,73.34ZM97.66,5.86,20.38,50.44v89.33l77.28,44.58,77.28-44.58V50.44ZM162.8,132.8,97.66,170.51,32.52,132.8V57.41L97.66,19.7,162.8,57.41Z"/></clipPath><linearGradient id="linear-gradient" x1="-1402.54" y1="1596" x2="-1402.46" y2="1596" gradientTransform="matrix(0, -2496.67, -2496.67, 0, 3984771.49, -3501491.16)" gradientUnits="userSpaceOnUse"><stop offset="0" stop-color="#f05523"/><stop offset="1" stop-color="#fee800"/></linearGradient></defs><title>ob.neon logo</title><g class="cls-2"><rect class="cls-3" width="163.57" height="184.62"/></g></svg>