<?xml version="1.0" encoding="utf-8"?>
<!-- Generator: Adobe Illustrator 24.0.1, SVG Export Plug-In . SVG Version: 6.00 Build 0)  -->
<svg version="1.1" id="Layer_1" xmlns="http://www.w3.org/2000/svg" xmlns:xlink="http://www.w3.org/1999/xlink" x="0px" y="0px"
	 width="192px" height="192px" viewBox="0 0 192 192" style="enable-background:new 0 0 192 192;" xml:space="preserve">
<style type="text/css">
	.st0{fill:#080D33;}
	.st1{fill:#F9F9F9;}
	.st2{fill:#0FF288;}
	.st3{fill:none;}
	.st4{fill:#0C154A;}
	.st5{fill:#111E6B;}
	.st6{fill:#192DA0;}
	.st7{fill:#FFFFFF;}
</style>
<path class="st0" d="M90.707,187.8c-0.393-0.228-1.486-0.871-3.068-1.878c-2.269-1.44-4.637-3.047-7.042-4.774
	c-3.261-2.343-6.473-4.832-9.545-7.396c-1.557-1.299-3.13-2.667-4.677-4.065l-0.252-0.228l-54.661-4.406l-0.065-0.017
	c-0.919-0.231-1.715-0.748-2.3-1.492c-0.635-0.771-1.007-1.718-1.118-2.83c-0.076-0.604-0.07-1.234,0.016-1.898l3.498-27.146
	c0.221-1.46,0.781-2.776,1.669-3.93c0.141-0.187,0.283-0.361,0.427-0.526c1.38-1.576,3.189-2.445,5.094-2.445l17.602,0.011
	L36,123.551c-0.15-0.646-0.289-1.291-0.414-1.929c-0.534-2.711-0.868-5.451-0.994-8.146c-0.124-2.673-0.046-5.359,0.23-7.983
	l6.871-65.244h40.615l0.096-0.894c0.279-2.609,0.636-5.17,1.06-7.613l0.067-0.498l0.651-3.242
	C88.109,9.422,95.143,2.157,95.44,1.857l0.566-0.57l0.566,0.571c0.304,0.306,7.488,7.729,11.39,26.775l0.309,1.509l0.431,2.473
	l0.045,0.301c0.485,2.985,0.868,6.132,1.141,9.353l0.05,0.598l15.471,6.65l24.095-11.161l6.631,63.352h0.036l0.399,3.785
	c0.275,2.62,0.353,5.294,0.227,7.948c-0.125,2.676-0.459,5.405-0.993,8.113c-0.134,0.682-0.283,1.371-0.448,2.064l-0.29,1.229
	l18.262,0.012c1.852,0,3.64,0.846,5.038,2.382l0.087,0.097c0.115,0.139,0.195,0.237,0.286,0.356
	c0.939,1.198,1.526,2.563,1.753,4.064l3.515,27.276c0.078,0.603,0.091,1.181,0.04,1.719c-0.085,1.205-0.454,2.209-1.101,3.011
	c-0.521,0.649-1.176,1.114-1.945,1.383l-0.092,0.032l-56.837,5.329l-0.244,0.218c-1.128,1.002-2.263,1.983-3.38,2.923
	c-3.066,2.577-6.267,5.077-9.514,7.431c-2.388,1.73-4.749,3.347-7.018,4.803c-1.879,1.207-3.015,1.864-3.063,1.892l-5.063,2.939
	L90.707,187.8z"/>
<g>
	<g>
		<g>
			<polygon class="st1" points="89.89,90.286 90.129,92.206 90.369,94.126 90.587,94.169 90.239,92.228 90.065,91.257 89.89,90.286 
							"/>
			<path class="st1" d="M90.539,90.548L90.539,90.548l0.158,0.898l0.158,0.898l0.315,1.797l-0.204-0.037l-0.002-0.003l-0.043-0.244
				l-0.175-1.529l0-0.003l-0.103-0.889L90.539,90.548 M90.849,92.013l-0.038,0.432l0.073-0.011L90.849,92.013L90.849,92.013z"/>
			<path class="st1" d="M91.188,90.809L91.188,90.809l0.141,0.826l0.141,0.826l0.283,1.652l-0.19-0.03l-0.004-0.002l-0.051-0.211
				l-0.146-1.418l0-0.004l-0.087-0.819L91.188,90.809 M91.46,91.799l-0.075,0.863l0.146-0.022L91.46,91.799L91.46,91.799z"/>
			<path class="st1" d="M91.837,91.071L91.837,91.071l0.125,0.753l0.125,0.753l0.25,1.507L92.16,94.06l-0.006-0.001l-0.06-0.179
				l-0.117-1.308l0-0.005l-0.07-0.748L91.837,91.071 M92.07,91.584l-0.113,1.295l0.219-0.033L92.07,91.584L92.07,91.584z"/>
			<path class="st1" d="M92.486,91.332L92.486,91.332l0.109,0.681l0.109,0.681l0.217,1.362l-0.162-0.018l-0.008-0.001l-0.068-0.146
				l-0.088-1.197l0-0.006l-0.054-0.678L92.486,91.332 M92.681,91.37l-0.151,1.727l0.292-0.044L92.681,91.37L92.681,91.37z"/>
			<path class="st1" d="M93.15,91.813L93.15,91.813l0.092,0.609l0.092,0.609l0.184,1.217l-0.149-0.011l-0.01,0l-0.077-0.114
				l-0.06-1.086l0-0.007l-0.037-0.608L93.15,91.813 M93.307,91.375l-0.189,2.159l0.365-0.054L93.307,91.375L93.307,91.375z"/>
			<path class="st1" d="M93.823,92.313L93.823,92.313l0.076,0.536l0.076,0.536l0.152,1.072l-0.135-0.005l-0.012,0.001l-0.085-0.081
				l-0.031-0.975l0.001-0.008l-0.021-0.538L93.823,92.313 M93.942,91.398l-0.226,2.59l0.438-0.065L93.942,91.398L93.942,91.398z"/>
			<path class="st1" d="M94.479,92.811L94.479,92.811l0.059,0.464l0.059,0.464l0.119,0.927l-0.121,0.001l-0.014,0.001l-0.094-0.049
				l-0.002-0.864l0.001-0.009l-0.004-0.467L94.479,92.811 M94.559,91.421l-0.264,3.022l0.511-0.076L94.559,91.421L94.559,91.421z"/>
			<path class="st1" d="M95.134,93.301L95.134,93.301l0.043,0.391l0.043,0.391l0.086,0.782L95.2,94.873l-0.016,0.002l-0.102-0.016
				l0.027-0.753l0.001-0.01l0.012-0.397L95.134,93.301 M95.177,91.434l-0.302,3.454l0.584-0.087L95.177,91.434L95.177,91.434z"/>
			<path class="st1" d="M95.79,93.677l0.053,0.637l0.053,0.637l-0.111,0.016l-0.111,0.016l0.057-0.654l0.029-0.327L95.79,93.677
				 M95.794,91.335l-0.34,3.885l0.657-0.098L95.794,91.335L95.794,91.335z"/>
		</g>
		<g>
			<polygon class="st1" points="102.024,90.331 101.676,92.273 101.501,93.244 101.327,94.215 101.546,94.171 101.785,92.251 
				102.024,90.331 			"/>
			<path class="st1" d="M101.336,90.588L101.336,90.588l-0.088,0.767l-0.094,0.82l-0.023,0.2l-0.167,1.451l-0.048,0.287
				l-0.005,0.031l-0.206,0.037l0.158-0.898l0.158-0.898L101.336,90.588 M101.026,92.054l-0.035,0.421l0.073,0.011L101.026,92.054
				L101.026,92.054z"/>
			<path class="st1" d="M100.649,90.844L100.649,90.844l-0.073,0.712l-0.079,0.759l-0.02,0.183l-0.14,1.343l-0.056,0.249
				l-0.005,0.027l-0.193,0.03l0.141-0.826l0.141-0.826L100.649,90.844 M100.377,91.834l-0.071,0.842l0.146,0.022L100.377,91.834
				L100.377,91.834z"/>
			<path class="st1" d="M99.961,91.101L99.961,91.101l-0.059,0.657l-0.064,0.697l-0.016,0.166l-0.112,1.235l-0.064,0.211
				l-0.005,0.023l-0.18,0.024l0.125-0.753l0.125-0.753L99.961,91.101 M99.728,91.615l-0.106,1.262l0.219,0.033L99.728,91.615
				L99.728,91.615z"/>
			<path class="st1" d="M99.274,91.358L99.274,91.358l-0.044,0.602l-0.048,0.635l-0.012,0.15l-0.085,1.127l-0.072,0.173
				l-0.005,0.019l-0.168,0.017l0.109-0.681l0.109-0.681L99.274,91.358 M99.079,91.395l-0.141,1.683l0.292,0.044L99.079,91.395
				L99.079,91.395z"/>
			<path class="st1" d="M98.57,91.833L98.57,91.833l-0.03,0.547l-0.033,0.574l-0.009,0.133l-0.058,1.019l-0.079,0.135l-0.005,0.015
				l-0.155,0.011l0.092-0.609l0.092-0.609L98.57,91.833 M98.413,91.395l-0.176,2.104l0.365,0.054L98.413,91.395L98.413,91.395z"/>
			<path class="st1" d="M97.859,92.328L97.859,92.328l-0.015,0.492l-0.018,0.512l-0.005,0.116l-0.03,0.911l-0.087,0.097
				l-0.005,0.011l-0.143,0.004l0.076-0.536l0.076-0.536L97.859,92.328 M97.74,91.413l-0.212,2.525l0.438,0.065L97.74,91.413
				L97.74,91.413z"/>
			<path class="st1" d="M97.164,92.821L97.164,92.821l0,0.437l-0.002,0.45l-0.001,0.1l-0.003,0.803l-0.095,0.059l-0.005,0.007
				l-0.13-0.003l0.059-0.464l0.059-0.464L97.164,92.821 M97.084,91.431l-0.247,2.946l0.511,0.076L97.084,91.431L97.084,91.431z"/>
			<path class="st1" d="M96.47,93.306L96.47,93.306l0.014,0.382l0.013,0.389l0.002,0.083l0.024,0.695l-0.103,0.021l-0.006,0.003
				l-0.117-0.009l0.043-0.391l0.043-0.391L96.47,93.306 M96.428,91.439l-0.282,3.367l0.584,0.087L96.428,91.439L96.428,91.439z"/>
			<path class="st1" d="M95.776,93.677l0.029,0.327l0.029,0.327l0.057,0.654l-0.111-0.016l-0.111-0.016l0.053-0.637L95.776,93.677
				 M95.772,91.335l-0.318,3.787l0.657,0.098L95.772,91.335L95.772,91.335z"/>
		</g>
	</g>
	<g>
		<g>
			<polygon class="st2" points="90.369,94.925 90.129,93.005 89.89,91.085 90.065,92.056 90.239,93.027 90.413,93.998 
				90.587,94.968 			"/>
			<polygon class="st2" points="91.201,95.074 90.976,95.041 90.97,95.038 90.903,94.798 90.81,93.868 90.738,93.144 90.724,92.997 
				90.546,91.202 90.71,92.17 90.873,93.138 91.037,94.106 			"/>
			<polygon class="st2" points="91.814,95.18 91.583,95.156 91.571,95.155 91.472,94.951 91.401,94.016 91.347,93.282 
				91.337,93.132 91.202,91.318 91.355,92.284 91.508,93.249 91.661,94.215 			"/>
			<polygon class="st2" points="92.372,95.302 92.134,95.287 92.116,95.288 91.984,95.12 91.936,94.18 91.899,93.437 91.893,93.283 
				91.802,91.451 91.944,92.414 92.087,93.377 92.229,94.34 			"/>
			<polygon class="st2" points="92.967,95.414 92.723,95.408 92.699,95.41 92.534,95.278 92.508,94.333 92.489,93.581 
				92.486,93.424 92.439,91.573 92.571,92.533 92.703,93.494 92.835,94.454 			"/>
			<polygon class="st2" points="93.562,95.522 93.311,95.526 93.282,95.528 93.084,95.433 93.08,94.482 93.079,93.722 93.08,93.561 
				93.076,91.692 93.197,92.65 93.319,93.607 93.44,94.564 			"/>
			<polygon class="st2" points="94.196,95.628 93.939,95.641 93.904,95.645 93.674,95.586 93.692,94.63 93.709,93.86 93.713,93.696 
				93.752,91.809 93.863,92.764 93.974,93.718 94.085,94.673 			"/>
			<polygon class="st2" points="94.884,95.71 94.621,95.732 94.58,95.738 94.316,95.714 94.357,94.753 94.391,93.975 94.399,93.807 
				94.482,91.901 94.583,92.853 94.683,93.805 94.783,94.758 			"/>
			<polygon class="st2" points="95.498,95.816 95.228,95.847 95.181,95.854 94.885,95.867 94.948,94.901 95,94.113 95.012,93.942 
				95.138,92.018 95.228,92.967 95.318,93.917 95.408,94.866 			"/>
			<polygon class="st2" points="95.454,96.02 95.539,95.048 95.624,94.077 95.794,92.134 95.953,94.028 96.112,95.922 
				95.783,95.971 			"/>
		</g>
		<g>
			<polygon class="st2" points="101.546,94.971 101.785,93.051 102.024,91.131 101.676,93.072 101.501,94.043 101.327,95.014 			"/>
			<polygon class="st2" points="100.675,95.115 100.899,95.081 100.906,95.079 100.973,94.839 101.137,93.18 101.147,93.072 
				101.329,91.242 101.002,93.178 100.838,94.147 			"/>
			<polygon class="st2" points="100.022,95.216 100.253,95.191 100.265,95.19 100.365,94.986 100.489,93.309 100.496,93.197 
				100.634,91.354 100.328,93.285 100.175,94.25 			"/>
			<polygon class="st2" points="99.426,95.333 99.664,95.318 99.682,95.318 99.814,95.15 99.898,93.454 99.902,93.339 
				99.996,91.482 99.711,93.407 99.569,94.37 			"/>
			<polygon class="st2" points="98.793,95.439 99.037,95.433 99.06,95.435 99.225,95.303 99.269,93.589 99.27,93.47 99.321,91.598 
				99.057,93.519 98.925,94.479 			"/>
			<polygon class="st2" points="98.159,95.542 98.409,95.546 98.439,95.549 98.636,95.453 98.639,93.72 98.639,93.598 
				98.645,91.712 98.402,93.627 98.28,94.585 			"/>
			<polygon class="st2" points="97.486,95.643 97.743,95.656 97.778,95.66 98.008,95.601 97.971,93.849 97.968,93.724 97.93,91.824 
				97.708,93.733 97.597,94.688 			"/>
			<polygon class="st2" points="96.76,95.72 97.023,95.742 97.064,95.748 97.327,95.724 97.249,93.954 97.243,93.826 97.161,91.911 
				96.96,93.816 96.86,94.768 			"/>
			<polygon class="st2" points="96.107,95.821 96.377,95.853 96.423,95.859 96.719,95.872 96.601,94.083 96.592,93.951 
				96.467,92.023 96.287,93.922 96.197,94.871 			"/>
			<polygon class="st2" points="96.112,96.02 95.942,94.077 95.772,92.134 95.613,94.028 95.454,95.922 95.783,95.971 			"/>
		</g>
	</g>
	<g>
		<polygon class="st3" points="62.625,122.456 62.633,122.457 62.625,122.456 		"/>
		<path class="st3" d="M61.979,121.74c-0.064,0.006-0.128,0.013-0.192,0.021c-0.07,0.009-0.141,0.02-0.211,0.033
			c0.07-0.012,0.141-0.023,0.211-0.033C61.851,121.753,61.915,121.746,61.979,121.74z"/>
		<path class="st3" d="M62.022,122.498c0.041-0.005,0.083-0.012,0.123-0.016c0.081-0.009,0.162-0.015,0.242-0.019
			c-0.08,0.004-0.16,0.011-0.242,0.019C62.105,122.486,62.064,122.493,62.022,122.498z"/>
		<path class="st3" d="M94.504,125.743L94.504,125.743c0.105-0.01,0.21-0.023,0.315-0.03
			C94.715,125.72,94.609,125.732,94.504,125.743z"/>
		<path class="st3" d="M60.864,121.99c-0.233,0.087-0.459,0.196-0.678,0.322c-0.067,0.039-0.132,0.083-0.197,0.125
			c0.065-0.042,0.13-0.086,0.197-0.125C60.405,122.186,60.632,122.077,60.864,121.99z"/>
		<path class="st3" d="M101.337,125.579L101.337,125.579c-0.079-0.106-0.158-0.211-0.236-0.317
			C101.18,125.368,101.259,125.473,101.337,125.579z"/>
		<path class="st3" d="M61.08,122.716c-0.143,0.048-0.283,0.099-0.417,0.159C60.797,122.815,60.937,122.764,61.08,122.716z"/>
		<path class="st3" d="M66.126,123.755c0.105,0.184,0.196,0.378,0.271,0.583C66.322,124.134,66.231,123.939,66.126,123.755z"/>
		<path class="st3" d="M52.97,103.106c-0.02-0.027-0.039-0.054-0.06-0.08c-0.079-0.101-0.159-0.2-0.241-0.297
			c0.082,0.097,0.162,0.196,0.241,0.297C52.931,103.052,52.95,103.08,52.97,103.106z"/>
		<path class="st3" d="M54.73,108.91c0.007-0.277,0.004-0.551-0.008-0.821C54.734,108.359,54.737,108.633,54.73,108.91z"/>
		<path class="st3" d="M54.576,111.137c-0.022,0.251-0.044,0.504-0.063,0.759l0,0C54.532,111.641,54.553,111.388,54.576,111.137
			c0.022-0.251,0.045-0.501,0.065-0.749c0.021-0.248,0.04-0.495,0.056-0.742c-0.016,0.246-0.035,0.493-0.056,0.742
			C54.62,110.636,54.598,110.886,54.576,111.137z"/>
		<path class="st3" d="M73.161,119.268c0.041-0.058,0.079-0.123,0.11-0.189c0.004-0.01,0.008-0.019,0.012-0.029
			c-0.004,0.01-0.007,0.019-0.012,0.029C73.24,119.145,73.202,119.21,73.161,119.268z"/>
		<path class="st3" d="M99.696,123.379c0.136,0.182,0.272,0.365,0.408,0.547C99.968,123.744,99.832,123.561,99.696,123.379
			L99.696,123.379z"/>
		<path class="st3" d="M65.769,123.238c0.132,0.161,0.252,0.334,0.357,0.518C66.02,123.572,65.901,123.399,65.769,123.238z"/>
		<path class="st3" d="M51.635,101.668c-0.091-0.08-0.183-0.158-0.276-0.234c-0.093-0.076-0.187-0.15-0.283-0.222
			c0.095,0.072,0.19,0.146,0.283,0.222C51.453,101.51,51.545,101.588,51.635,101.668z"/>
		<path class="st3" d="M63.667,122.588c-0.097-0.025-0.195-0.046-0.294-0.064C63.472,122.543,63.57,122.563,63.667,122.588z"/>
		<path class="st3" d="M124.002,122.597c0.087-0.4,0.199-0.794,0.336-1.181c0.046-0.129,0.095-0.257,0.146-0.384
			c-0.052,0.127-0.1,0.255-0.146,0.384C124.201,121.803,124.089,122.197,124.002,122.597z"/>
		<path class="st3" d="M101.374,125.575c0.096-0.013,0.191-0.026,0.285-0.036c0.106-0.012,0.21-0.021,0.313-0.029
			c-0.103,0.008-0.207,0.017-0.313,0.029C101.565,125.549,101.47,125.561,101.374,125.575z"/>
		<path class="st3" d="M125.132,119.553c-0.002,0.041-0.008,0.082-0.017,0.123C125.125,119.636,125.13,119.594,125.132,119.553
			c0.002-0.041,0-0.081-0.007-0.118c-0.031-0.17-0.063-0.34-0.097-0.51c0.034,0.17,0.067,0.34,0.097,0.51
			C125.132,119.473,125.134,119.512,125.132,119.553z"/>
		<path class="st3" d="M106.312,122.639c0.222,0.072,0.442,0.155,0.661,0.243C106.754,122.794,106.534,122.711,106.312,122.639z"/>
		<path class="st3" d="M120.517,118.519c0.098-0.177,0.212-0.347,0.344-0.51c0.066-0.081,0.137-0.161,0.212-0.238
			c-0.075,0.077-0.146,0.157-0.212,0.238C120.729,118.172,120.615,118.342,120.517,118.519z"/>
		<path class="st3" d="M110.549,125.455c-0.114-0.137-0.233-0.271-0.354-0.399C110.317,125.184,110.435,125.318,110.549,125.455
			C110.549,125.455,110.549,125.455,110.549,125.455z"/>
		<path class="st3" d="M120.106,116.675c0.149,0.025,0.298,0.053,0.447,0.084C120.404,116.727,120.255,116.699,120.106,116.675
			c-0.298-0.049-0.597-0.086-0.896-0.11c-0.149-0.012-0.299-0.021-0.448-0.027c0.149,0.006,0.299,0.015,0.448,0.027
			C119.509,116.589,119.808,116.625,120.106,116.675z"/>
		<path class="st3" d="M121.221,118.752c-0.163,0.221-0.298,0.459-0.413,0.71c-0.038,0.084-0.074,0.169-0.109,0.255
			c0.034-0.086,0.07-0.172,0.109-0.255C120.923,119.211,121.058,118.972,121.221,118.752z"/>
		<path class="st3" d="M110.133,124.481c-0.109-0.141-0.248-0.3-0.427-0.49C109.886,124.182,110.025,124.341,110.133,124.481z"/>
		<path class="st3" d="M123.771,124.654c0.005-0.295,0.021-0.588,0.049-0.877C123.792,124.066,123.776,124.358,123.771,124.654
			L123.771,124.654z"/>
		<path class="st3" d="M110.431,124.975c-0.046-0.114-0.109-0.229-0.199-0.359C110.322,124.746,110.385,124.861,110.431,124.975z"/>
		<path class="st3" d="M108.433,122.715c0.17,0.166,0.322,0.315,0.465,0.456C108.755,123.03,108.603,122.881,108.433,122.715
			L108.433,122.715z"/>
		<path class="st3" d="M124.178,117.346c-0.083,0-0.166,0.003-0.248,0.008C124.012,117.349,124.094,117.346,124.178,117.346
			L124.178,117.346z"/>
		<path class="st3" d="M121.88,117.128L121.88,117.128c-0.313,0.196-0.581,0.411-0.806,0.644
			C121.299,117.539,121.567,117.324,121.88,117.128z"/>
		<path class="st3" d="M118.315,116.528L118.315,116.528c0.149,0,0.298,0.003,0.447,0.009
			C118.613,116.531,118.463,116.528,118.315,116.528z"/>
		<path class="st3" d="M120.515,120.248c-0.028,0.091-0.054,0.182-0.079,0.274c-0.038,0.138-0.072,0.278-0.106,0.418
			c0.034-0.14,0.068-0.281,0.106-0.418C120.461,120.43,120.488,120.339,120.515,120.248z"/>
		<path class="st3" d="M125.775,118.768c0.142-0.172,0.288-0.337,0.437-0.495C126.063,118.43,125.917,118.595,125.775,118.768z"/>
		<path class="st3" d="M134.682,115.837c0.158,0.006,0.316,0.014,0.476,0.025c0.159,0.011,0.319,0.024,0.479,0.04
			c-0.16-0.016-0.32-0.03-0.479-0.04C134.999,115.851,134.84,115.843,134.682,115.837z"/>
		<polygon class="st3" points="145.913,44.81 125.472,54.279 125.472,54.279 		"/>
		<path class="st3" d="M152.132,118.045c0.221-1.564,0.368-3.121,0.44-4.67c0.029-0.614,0.046-1.227,0.052-1.839
			c-0.006,0.612-0.023,1.225-0.052,1.839C152.5,114.924,152.353,116.481,152.132,118.045z"/>
		<path class="st3" d="M124.119,124.904c0.047-0.572,0.135-1.129,0.267-1.671c0.034-0.138,0.07-0.276,0.11-0.412
			c-0.039,0.136-0.076,0.274-0.11,0.412C124.254,123.776,124.166,124.333,124.119,124.904z"/>
		<path class="st3" d="M138.094,116.318c-0.335-0.077-0.667-0.146-0.996-0.206C137.427,116.172,137.759,116.241,138.094,116.318z"/>
		<path class="st3" d="M137.386,115.995c0.252,0.1,0.489,0.208,0.708,0.322C137.875,116.203,137.638,116.095,137.386,115.995z"/>
		<path class="st3" d="M125.019,117.608c0.018,0.448,0.084,0.882,0.203,1.295C125.103,118.49,125.037,118.056,125.019,117.608z"/>
		<path class="st3" d="M152.132,118.045c-0.088,0.626-0.189,1.252-0.301,1.88C151.944,119.297,152.044,118.67,152.132,118.045z"/>
		<path class="st3" d="M40.897,125.711L40.897,125.711c-0.39-1.342-0.724-2.68-1.007-4.015
			C40.173,123.031,40.508,124.369,40.897,125.711z"/>
		<path class="st3" d="M39.277,118.245c-0.052-0.361-0.101-0.722-0.145-1.083C39.176,117.523,39.225,117.884,39.277,118.245z"/>
		<path class="st3" d="M39.132,117.162c-0.042-0.343-0.079-0.686-0.114-1.028C39.052,116.476,39.09,116.819,39.132,117.162z"/>
		<path class="st3" d="M152.364,106.067L152.364,106.067c0.064,0.603,0.116,1.208,0.156,1.815
			C152.48,107.275,152.428,106.67,152.364,106.067z"/>
		<polygon class="st3" points="45.499,44.609 42.263,75.338 45.499,44.609 		"/>
		<path class="st3" d="M55.239,105.033c0.068,0.294,0.124,0.587,0.168,0.878C55.364,105.62,55.308,105.327,55.239,105.033
			L55.239,105.033z"/>
		<path class="st3" d="M61.064,109.691c0.142,0.414,0.258,0.841,0.356,1.276C61.322,110.532,61.207,110.105,61.064,109.691z"/>
		<path class="st3" d="M74.654,119.558c-0.123,0.039-0.246,0.082-0.368,0.127c-0.049,0.018-0.098,0.04-0.147,0.059
			c0.049-0.02,0.098-0.041,0.147-0.059C74.409,119.639,74.531,119.597,74.654,119.558z"/>
		<path class="st3" d="M137.386,115.995c-0.084-0.033-0.17-0.066-0.257-0.097c-0.174-0.063-0.355-0.122-0.541-0.176
			c0.186,0.055,0.367,0.114,0.541,0.176C137.216,115.93,137.302,115.962,137.386,115.995z"/>
		<polygon class="st3" points="140.694,100.59 140.591,99.371 140.591,99.371 		"/>
		<path class="st3" d="M72.569,119.838c-0.11,0.106-0.216,0.217-0.318,0.333C72.354,120.055,72.459,119.944,72.569,119.838z"/>
		<path class="st3" d="M83.551,124.638c-0.143,0.217-0.277,0.44-0.401,0.669C83.274,125.078,83.408,124.855,83.551,124.638z"/>
		<path class="st3" d="M77.318,119.165c-0.272,0-0.542,0.011-0.811,0.033C76.775,119.176,77.045,119.165,77.318,119.165
			L77.318,119.165z"/>
		<path class="st3" d="M134.933,104.447c0.167-0.237,0.338-0.467,0.518-0.684c0.113-0.137,0.229-0.269,0.348-0.398
			c-0.119,0.129-0.235,0.261-0.348,0.398C135.271,103.979,135.099,104.209,134.933,104.447z"/>
		<path class="st3" d="M129.169,116.17c0.176-0.079,0.352-0.152,0.53-0.219C129.521,116.019,129.344,116.092,129.169,116.17
			c-0.703,0.315-1.385,0.724-2.027,1.241c-0.241,0.194-0.476,0.404-0.704,0.63c0.228-0.226,0.463-0.435,0.704-0.63
			C127.784,116.895,128.466,116.486,129.169,116.17z"/>
		<path class="st3" d="M125.019,117.608c-0.012-0.299-0.003-0.604,0.025-0.912C125.016,117.004,125.007,117.309,125.019,117.608z"/>
		<path class="st3" d="M135.094,115.404c-0.105-0.015-0.208-0.033-0.315-0.045c-0.214-0.025-0.431-0.044-0.651-0.056
			c0.22,0.013,0.437,0.032,0.651,0.056C134.886,115.371,134.989,115.389,135.094,115.404z"/>
		<path class="st3" d="M128.644,109.852c0.238-0.213,0.482-0.411,0.732-0.591c0.125-0.09,0.251-0.176,0.378-0.257
			c-0.127,0.081-0.253,0.167-0.378,0.257C129.127,109.442,128.882,109.639,128.644,109.852z"/>
		<path class="st3" d="M127.954,110.534c0.222-0.241,0.453-0.469,0.691-0.682C128.407,110.065,128.176,110.293,127.954,110.534z"/>
		<path class="st3" d="M132.537,108.075c0.038,0.271,0.076,0.541,0.113,0.812C132.612,108.616,132.575,108.345,132.537,108.075
			L132.537,108.075z"/>
		<polygon class="st3" points="50.788,101.002 50.838,100.398 50.788,101.002 		"/>
		<path class="st3" d="M92.492,184.078c-0.142-0.084-0.324-0.192-0.548-0.327C92.168,183.886,92.35,183.994,92.492,184.078z"/>
		<path class="st3" d="M95.776,185.964l-2.96-1.697L95.776,185.964l2.951-1.713c0.015-0.009,0.042-0.024,0.075-0.044
			c-0.033,0.019-0.059,0.035-0.075,0.044L95.776,185.964z"/>
		<path class="st3" d="M101.518,182.529c0.038-0.024,0.074-0.047,0.112-0.072c0.318-0.204,0.66-0.426,1.022-0.664
			c-0.363,0.238-0.704,0.459-1.022,0.664C101.591,182.482,101.555,182.505,101.518,182.529z"/>
		<path class="st3" d="M82.621,177.525c-1.256-0.909-2.588-1.898-3.984-2.975C80.034,175.627,81.365,176.616,82.621,177.525z"/>
		<path class="st3" d="M78.638,174.55c-1.56-1.203-3.194-2.509-4.876-3.912C75.443,172.042,77.078,173.347,78.638,174.55z"/>
		<path class="st3" d="M68.824,166.334L68.824,166.334c0.428,0.39,0.855,0.774,1.281,1.153
			C69.679,167.108,69.252,166.723,68.824,166.334z"/>
		<path class="st3" d="M102.573,125.486c-0.097,0-0.196,0.002-0.296,0.006C102.377,125.488,102.476,125.486,102.573,125.486
			c0.527,0,1.011,0.057,1.449,0.169c0.108,0.028,0.213,0.059,0.316,0.094h0c-0.103-0.035-0.208-0.066-0.316-0.094
			C103.584,125.543,103.1,125.486,102.573,125.486z"/>
		<path class="st3" d="M105.982,179.542c0.777-0.541,1.603-1.126,2.469-1.754c1.033-0.749,2.125-1.558,3.262-2.426
			c-1.137,0.868-2.228,1.677-3.262,2.426C107.585,178.416,106.759,179.001,105.982,179.542z"/>
		<path class="st3" d="M114.045,173.548c1.193-0.945,2.424-1.947,3.681-3.003c1.333-1.121,2.695-2.305,4.069-3.544l0,0
			c-1.375,1.239-2.736,2.424-4.069,3.544C116.469,171.602,115.238,172.604,114.045,173.548z"/>
		<path class="st3" d="M101.13,182.776c-0.072,0.046-0.142,0.09-0.211,0.134C100.988,182.867,101.058,182.822,101.13,182.776z"/>
		<path class="st3" d="M105.382,179.957c-0.164,0.113-0.326,0.224-0.486,0.333C105.056,180.182,105.218,180.071,105.382,179.957z"/>
		<path class="st3" d="M150.448,125.776L150.448,125.776c0.201-0.683,0.389-1.366,0.561-2.047
			C150.836,124.41,150.648,125.092,150.448,125.776z"/>
		<path class="st3" d="M104.385,180.639c-0.479,0.325-0.935,0.629-1.363,0.912C103.45,181.268,103.906,180.963,104.385,180.639z"/>
		<path class="st3" d="M99.127,184.015c-0.059,0.035-0.11,0.065-0.157,0.093C99.017,184.081,99.068,184.051,99.127,184.015z"/>
		<polygon class="st4" points="140.591,99.371 140.591,99.371 140.578,99.214 137.247,59.793 140.578,99.214 		"/>
		<polygon class="st4" points="77.104,88.184 78.736,90.076 78.736,90.076 77.104,88.184 		"/>
		<polygon class="st4" points="113.923,59.837 114.991,88.329 113.934,59.842 		"/>
		<polygon class="st4" points="78.344,53.5 78.344,53.5 77.724,70.842 		"/>
		<polygon class="st4" points="87.633,100.392 87.633,100.392 87.717,100.49 		"/>
		<path class="st5" d="M90.225,118.308c0.048-0.38,0.096-0.764,0.143-1.152c0.047-0.387,0.092-0.779,0.137-1.174
			c-0.08,0.405-0.163,0.805-0.247,1.201c-0.085,0.397-0.171,0.789-0.26,1.178c-0.089,0.389-0.18,0.774-0.273,1.155
			c-0.093,0.381-0.189,0.758-0.287,1.131c0.04-0.009,0.081-0.019,0.121-0.028c0.04-0.009,0.081-0.018,0.121-0.026
			c0.041-0.009,0.081-0.017,0.122-0.025c0.041-0.008,0.081-0.016,0.122-0.024c0.052-0.365,0.103-0.734,0.153-1.107
			C90.127,119.065,90.177,118.688,90.225,118.308z"/>
		<path class="st5" d="M103.041,106.096c0.316,2.788,0.703,5.425,1.159,7.903c0.461,2.5,0.992,4.835,1.594,6.995
			c0.134,0.031,0.268,0.064,0.401,0.1c0.133,0.036,0.266,0.074,0.397,0.115c0.132,0.041,0.263,0.084,0.393,0.13
			c0.13,0.046,0.26,0.094,0.388,0.144c0.213-0.446,0.463-0.878,0.747-1.294c0.284-0.415,0.602-0.813,0.951-1.192
			c0.348-0.378,0.728-0.735,1.135-1.069c0.407-0.333,0.841-0.643,1.301-0.925c0.5-0.308,1.025-0.58,1.568-0.817
			c0.542-0.236,1.102-0.435,1.674-0.596c0.571-0.161,1.153-0.283,1.74-0.366c0.587-0.082,1.178-0.124,1.768-0.124
			c0.348,0,0.694,0.015,1.037,0.043c0.343,0.029,0.684,0.071,1.021,0.128c0.337,0.057,0.672,0.127,1.002,0.212
			c0.33,0.085,0.657,0.184,0.98,0.296l0.711,0.248c0.056-0.012,0.112-0.023,0.168-0.033c0.056-0.01,0.112-0.019,0.169-0.027
			c0.056-0.008,0.113-0.016,0.17-0.022c0.057-0.006,0.114-0.012,0.171-0.017c0.059-0.383,0.143-0.771,0.252-1.161
			c0.108-0.389,0.24-0.781,0.396-1.172c0.156-0.391,0.335-0.781,0.538-1.169c0.202-0.387,0.428-0.772,0.676-1.151
			c0.45-0.689,0.942-1.311,1.464-1.858c0.521-0.546,1.072-1.019,1.641-1.409c0.569-0.39,1.156-0.7,1.75-0.92
			c0.594-0.22,1.195-0.352,1.792-0.388c0.049-0.157,0.103-0.313,0.16-0.467c0.057-0.154,0.118-0.307,0.182-0.458
			c0.065-0.151,0.133-0.301,0.205-0.449c0.072-0.148,0.148-0.295,0.227-0.44c0.432-0.787,0.915-1.496,1.45-2.125
			c0.533-0.628,1.118-1.178,1.753-1.651c0.634-0.471,1.319-0.865,2.054-1.182c0.734-0.316,1.518-0.555,2.353-0.716l-3.331-39.422
			l-11.112,5.311l-12.201-5.262l1.056,28.487l-1.599,1.858l1.258,1.222l-3.81,20.819l-1.769,0.953l-2.858-2.858l0.272-10.75
			l-1.86,0.953l-0.09-0.049l-0.142,0.165l-0.004-0.244l-0.762-0.416l0.091-6.35l-0.907-0.544l-0.363,2.086
			c0,0-0.069,0.085-0.244,0.214c0.032,0.675,0.066,1.345,0.104,2.008C102.483,100.433,102.727,103.337,103.041,106.096z"/>
		<path class="st5" d="M102.08,118.673c-0.081-0.355-0.161-0.714-0.239-1.076c-0.078-0.362-0.154-0.727-0.228-1.095
			c0.043,0.374,0.088,0.744,0.133,1.11c0.045,0.367,0.091,0.73,0.138,1.089c0.047,0.36,0.094,0.716,0.143,1.068
			c0.048,0.353,0.098,0.702,0.147,1.047c0.034-0.005,0.069-0.01,0.103-0.014c0.035-0.005,0.069-0.009,0.104-0.013
			c0.035-0.004,0.07-0.008,0.105-0.012c0.035-0.004,0.07-0.007,0.105-0.011c-0.089-0.342-0.175-0.688-0.26-1.038
			C102.245,119.381,102.162,119.029,102.08,118.673z"/>
		<path class="st5" d="M77.104,88.184L77.104,88.184l0.62-17.342l0.62-17.342H54.79l-3.869,45.917
			c0.296,0.171,0.583,0.356,0.861,0.555c0.278,0.199,0.548,0.413,0.808,0.64c0.261,0.228,0.512,0.47,0.755,0.726
			c0.243,0.256,0.477,0.527,0.701,0.812c0.091,0.116,0.18,0.234,0.265,0.354c0.086,0.12,0.168,0.241,0.248,0.364
			c0.08,0.123,0.157,0.247,0.23,0.373c0.074,0.126,0.145,0.254,0.213,0.383l0.488,0.05c0.567,0.059,1.107,0.162,1.618,0.309
			c0.512,0.147,0.995,0.338,1.45,0.573c0.455,0.235,0.881,0.513,1.278,0.835c0.397,0.322,0.765,0.688,1.103,1.098
			c0.064,0.078,0.126,0.156,0.186,0.235c0.06,0.079,0.118,0.158,0.174,0.238c0.056,0.08,0.111,0.161,0.164,0.242
			c0.053,0.081,0.104,0.163,0.154,0.246l0.477,0.042c0.044,0.004,0.09,0.007,0.136,0.011c0.046,0.003,0.093,0.007,0.141,0.01
			c0.048,0.003,0.096,0.006,0.146,0.009c0.049,0.003,0.099,0.006,0.15,0.009c0.123,0.008,0.25,0.015,0.38,0.025
			c0.13,0.009,0.263,0.019,0.398,0.032s0.273,0.027,0.412,0.045c0.139,0.018,0.279,0.039,0.42,0.064
			c0.729,0.128,1.424,0.301,2.084,0.517c0.661,0.216,1.287,0.477,1.878,0.781c0.591,0.304,1.147,0.652,1.667,1.043
			c0.52,0.392,1.004,0.827,1.451,1.306c0.395,0.423,0.76,0.881,1.097,1.372c0.337,0.492,0.645,1.019,0.923,1.578
			c0.278,0.561,0.527,1.155,0.745,1.782c0.219,0.628,0.407,1.29,0.564,1.983c0.21-0.056,0.424-0.104,0.641-0.146
			c0.217-0.042,0.437-0.076,0.66-0.104c0.223-0.028,0.45-0.049,0.68-0.062c0.23-0.014,0.463-0.021,0.699-0.021
			c0.158,0,0.318,0.003,0.481,0.01c0.162,0.006,0.327,0.016,0.493,0.029c0.166,0.013,0.335,0.029,0.505,0.048
			c0.17,0.019,0.342,0.041,0.515,0.066c0.642,0.094,1.263,0.243,1.862,0.448c0.599,0.205,1.176,0.465,1.73,0.78
			c0.555,0.315,1.086,0.686,1.595,1.112c0.509,0.426,0.995,0.908,1.456,1.445c0.008-0.028,0.016-0.055,0.025-0.083
			c0.008-0.028,0.016-0.055,0.025-0.083c0.008-0.028,0.016-0.055,0.025-0.083c0.008-0.028,0.017-0.055,0.025-0.083
			c0.63-2.151,1.179-4.451,1.65-6.918c0.467-2.445,0.857-5.052,1.173-7.838c0.313-2.758,0.554-5.688,0.726-8.807
			c0.044-0.792,0.083-1.595,0.117-2.411c-0.144-0.111-0.201-0.182-0.201-0.182l-0.363-2.086l-0.907,0.544l0.091,6.35l-0.668,0.364
			l-0.002,0.144l-0.084-0.097l-0.244,0.133l-1.86-0.953l0.272,10.75l-2.858,2.858l-1.769-0.953l-3.81-20.819l1.372-1.332
			L77.104,88.184L77.104,88.184z"/>
		<path class="st2" d="M91.104,109.793c-0.176,2.164-0.377,4.226-0.599,6.189c-0.045,0.395-0.091,0.787-0.137,1.174
			c-0.047,0.388-0.094,0.772-0.143,1.152c-0.048,0.38-0.098,0.757-0.148,1.129c-0.05,0.373-0.101,0.742-0.153,1.107
			c0.188-0.036,0.376-0.067,0.566-0.094c0.19-0.027,0.38-0.05,0.571-0.068c0.191-0.018,0.383-0.032,0.576-0.041
			c0.193-0.009,0.386-0.014,0.579-0.014h0.001c0.579,0,1.153,0.041,1.722,0.121c0.569,0.08,1.131,0.2,1.684,0.357
			c0.554,0.158,1.099,0.354,1.633,0.588c0.534,0.234,1.057,0.505,1.566,0.812c0.221-0.181,0.459-0.347,0.713-0.496
			c0.253-0.149,0.522-0.283,0.804-0.399c0.282-0.116,0.577-0.216,0.883-0.298c0.306-0.082,0.624-0.147,0.951-0.194
			c-0.05-0.345-0.099-0.695-0.147-1.047c-0.048-0.352-0.096-0.709-0.143-1.068c-0.047-0.359-0.093-0.722-0.138-1.089
			c-0.045-0.366-0.089-0.736-0.133-1.11c-0.232-1.984-0.441-4.073-0.625-6.269c-0.183-2.178-0.342-4.461-0.475-6.85
			c-0.128-2.29-0.231-4.679-0.309-7.164c-0.969,0.241-2.323,0.428-4.197,0.428c-1.854,0-3.199-0.183-4.166-0.42
			c-0.072,2.362-0.167,4.638-0.284,6.824C91.43,105.399,91.279,107.646,91.104,109.793z"/>
		<path class="st0" d="M59.311,123.785c0.08-0.075,0.161-0.148,0.245-0.218c0.251-0.209,0.52-0.393,0.81-0.547
			c0.097-0.052,0.196-0.1,0.297-0.145c0.134-0.06,0.274-0.111,0.417-0.159c0.182-0.061,0.37-0.114,0.567-0.156
			c0.085-0.018,0.169-0.033,0.252-0.046c0.042-0.007,0.082-0.011,0.123-0.016c0.041-0.005,0.083-0.012,0.123-0.016
			c0.081-0.009,0.162-0.015,0.242-0.019c0.08-0.004,0.159-0.006,0.237-0.006l0,0h0c0.003,0,0.006,0,0.008,0
			c0.255,0.001,0.501,0.024,0.74,0.068c0.099,0.018,0.197,0.039,0.294,0.064c0.167,0.043,0.33,0.096,0.49,0.159
			c0.16,0.063,0.318,0.135,0.473,0.217c0.078,0.041,0.154,0.084,0.231,0.129c0.229,0.136,0.453,0.291,0.673,0.464
			c0.294,0.231,0.581,0.493,0.864,0.781c-0.075-0.205-0.166-0.399-0.271-0.583c-0.105-0.184-0.225-0.356-0.357-0.518
			c-0.264-0.322-0.577-0.598-0.927-0.823c-0.35-0.225-0.736-0.399-1.144-0.516c-0.204-0.059-0.414-0.104-0.628-0.134
			c-0.214-0.03-0.432-0.045-0.652-0.045c-0.069,0-0.139,0.002-0.209,0.005c-0.07,0.003-0.14,0.008-0.21,0.014
			c-0.006,0.001-0.013,0.002-0.019,0.002c-0.064,0.006-0.128,0.013-0.192,0.021c-0.07,0.009-0.141,0.02-0.211,0.033
			c-0.241,0.043-0.479,0.109-0.712,0.197c-0.233,0.087-0.459,0.196-0.678,0.323c-0.067,0.039-0.132,0.083-0.197,0.125
			c-0.148,0.096-0.294,0.197-0.433,0.309c-0.1,0.081-0.197,0.166-0.291,0.254c-0.094,0.089-0.185,0.181-0.273,0.277
			c-0.176,0.192-0.338,0.397-0.485,0.614c-0.146,0.217-0.277,0.445-0.388,0.681c-0.167,0.356-0.292,0.731-0.366,1.118
			c-0.002,0.01-0.003,0.02-0.004,0.03l0.137,0c0.174-0.32,0.356-0.622,0.551-0.903C58.703,124.434,58.992,124.087,59.311,123.785z"
			/>
		<path class="st0" d="M133.333,107.978c0.026-0.118,0.053-0.236,0.083-0.353c0.06-0.234,0.13-0.465,0.21-0.694
			c0.04-0.114,0.082-0.227,0.126-0.34c0.044-0.113,0.091-0.224,0.141-0.336c0.098-0.222,0.207-0.442,0.325-0.658
			c0.222-0.408,0.462-0.79,0.716-1.151c0.167-0.237,0.338-0.467,0.518-0.684c0.113-0.137,0.229-0.269,0.348-0.398
			c0.237-0.257,0.485-0.498,0.744-0.723c0.129-0.112,0.262-0.221,0.396-0.325c0.269-0.209,0.549-0.401,0.841-0.577
			c0.291-0.176,0.593-0.336,0.906-0.48c0.625-0.288,1.294-0.511,2.008-0.668l-0.103-1.219l-0.013-0.157
			c-0.834,0.161-1.619,0.4-2.353,0.716c-0.735,0.316-1.42,0.71-2.054,1.182c-0.635,0.472-1.22,1.022-1.753,1.651
			c-0.535,0.63-1.018,1.338-1.45,2.125c-0.08,0.145-0.155,0.292-0.227,0.44s-0.14,0.298-0.205,0.449
			c-0.065,0.151-0.125,0.304-0.182,0.458s-0.11,0.31-0.16,0.467c-0.597,0.036-1.198,0.168-1.792,0.388
			c-0.594,0.22-1.181,0.53-1.75,0.92c-0.569,0.391-1.12,0.863-1.641,1.41c-0.522,0.547-1.014,1.169-1.464,1.858
			c-0.248,0.38-0.474,0.764-0.676,1.151c-0.203,0.388-0.382,0.778-0.538,1.169c-0.156,0.391-0.288,0.783-0.396,1.172
			c-0.108,0.39-0.192,0.778-0.252,1.161c-0.057,0.005-0.114,0.01-0.171,0.017s-0.113,0.014-0.17,0.022s-0.113,0.017-0.169,0.027
			c-0.056,0.01-0.112,0.021-0.168,0.033l-0.711-0.248c-0.323-0.113-0.649-0.212-0.98-0.296c-0.33-0.085-0.665-0.155-1.002-0.212
			c-0.337-0.057-0.678-0.099-1.021-0.128s-0.689-0.043-1.037-0.043c-0.589,0-1.181,0.042-1.768,0.124
			c-0.587,0.082-1.169,0.205-1.74,0.366c-0.571,0.161-1.132,0.36-1.674,0.596c-0.543,0.236-1.067,0.509-1.568,0.816
			c-0.459,0.283-0.894,0.592-1.301,0.926c-0.407,0.334-0.787,0.691-1.135,1.069c-0.349,0.378-0.667,0.776-0.951,1.192
			c-0.284,0.416-0.534,0.848-0.747,1.294c-0.128-0.051-0.258-0.099-0.388-0.144s-0.261-0.089-0.393-0.13s-0.264-0.079-0.397-0.115
			s-0.267-0.069-0.401-0.1c-0.602-2.16-1.133-4.494-1.594-6.995c-0.456-2.478-0.843-5.115-1.159-7.903
			c-0.313-2.759-0.557-5.663-0.733-8.701c-0.038-0.663-0.073-1.333-0.104-2.008c-0.296,0.217-0.899,0.559-2,0.832
			c0.078,2.486,0.181,4.874,0.309,7.164c0.133,2.39,0.292,4.672,0.475,6.85c0.185,2.196,0.394,4.284,0.625,6.269
			c0.074,0.369,0.15,0.734,0.228,1.095c0.078,0.362,0.157,0.721,0.239,1.076c0.081,0.356,0.165,0.708,0.25,1.057
			c0.085,0.349,0.172,0.695,0.26,1.038c-0.035,0.003-0.07,0.007-0.105,0.011c-0.035,0.004-0.07,0.008-0.104,0.012
			s-0.069,0.009-0.104,0.013c-0.035,0.005-0.069,0.009-0.103,0.014c-0.327,0.047-0.645,0.112-0.951,0.194
			c-0.306,0.082-0.602,0.182-0.883,0.298c-0.282,0.117-0.551,0.25-0.804,0.399c-0.253,0.15-0.492,0.315-0.713,0.496
			c-0.509-0.307-1.032-0.578-1.566-0.812c-0.534-0.234-1.079-0.43-1.633-0.588c-0.553-0.158-1.116-0.277-1.684-0.357
			c-0.568-0.08-1.143-0.121-1.722-0.121h-0.001c-0.194,0-0.387,0.005-0.579,0.014c-0.193,0.009-0.385,0.023-0.576,0.041
			c-0.191,0.018-0.382,0.041-0.571,0.068s-0.378,0.058-0.566,0.094c-0.041,0.008-0.081,0.016-0.122,0.024
			c-0.041,0.008-0.081,0.017-0.122,0.025c-0.041,0.009-0.081,0.017-0.121,0.026c-0.04,0.009-0.081,0.018-0.121,0.028
			c0.098-0.373,0.194-0.75,0.287-1.131c0.093-0.381,0.185-0.766,0.273-1.155c0.089-0.388,0.176-0.781,0.26-1.178
			c0.084-0.396,0.167-0.797,0.247-1.202c0.222-1.963,0.422-4.025,0.599-6.189c0.175-2.147,0.326-4.393,0.453-6.742
			c0.117-2.186,0.212-4.462,0.284-6.824c-1.176-0.288-1.792-0.656-2.074-0.872c-0.035,0.815-0.074,1.619-0.117,2.411
			c-0.172,3.119-0.412,6.049-0.726,8.807c-0.316,2.786-0.706,5.393-1.173,7.838c-0.471,2.467-1.02,4.766-1.65,6.918
			c-0.008,0.028-0.017,0.055-0.025,0.083c-0.008,0.028-0.017,0.055-0.025,0.083s-0.016,0.055-0.025,0.083
			c-0.008,0.028-0.016,0.055-0.025,0.083c-0.461-0.537-0.947-1.018-1.456-1.444c-0.508-0.426-1.04-0.796-1.595-1.112
			c-0.554-0.315-1.131-0.575-1.73-0.78c-0.599-0.205-1.219-0.354-1.862-0.448c-0.173-0.025-0.345-0.047-0.515-0.066
			c-0.17-0.019-0.338-0.035-0.505-0.048c-0.166-0.013-0.331-0.022-0.493-0.029c-0.162-0.006-0.323-0.01-0.481-0.01
			c-0.237,0-0.47,0.007-0.699,0.021c-0.23,0.014-0.456,0.035-0.68,0.062c-0.223,0.028-0.443,0.063-0.66,0.104
			c-0.217,0.042-0.43,0.091-0.641,0.146c-0.157-0.694-0.345-1.355-0.564-1.983c-0.218-0.627-0.467-1.221-0.745-1.782
			c-0.278-0.56-0.586-1.086-0.923-1.578c-0.336-0.491-0.702-0.949-1.097-1.373c-0.447-0.479-0.931-0.914-1.451-1.306
			c-0.52-0.391-1.076-0.739-1.667-1.043c-0.591-0.304-1.217-0.564-1.878-0.781c-0.66-0.216-1.355-0.389-2.084-0.517
			c-0.141-0.025-0.281-0.046-0.42-0.063c-0.139-0.018-0.276-0.032-0.412-0.045c-0.135-0.013-0.268-0.023-0.398-0.032
			c-0.13-0.009-0.257-0.017-0.38-0.025c-0.051-0.003-0.101-0.006-0.15-0.009c-0.049-0.003-0.098-0.006-0.146-0.009
			c-0.048-0.003-0.095-0.006-0.141-0.01c-0.046-0.003-0.091-0.007-0.136-0.011l-0.477-0.042c-0.05-0.083-0.101-0.165-0.154-0.246
			c-0.053-0.081-0.107-0.162-0.164-0.242c-0.056-0.08-0.115-0.16-0.174-0.239s-0.122-0.157-0.186-0.235
			c-0.338-0.409-0.706-0.775-1.103-1.097c-0.397-0.322-0.823-0.601-1.278-0.835c-0.455-0.235-0.938-0.426-1.45-0.573
			c-0.511-0.147-1.051-0.25-1.618-0.309l-0.488-0.05c-0.068-0.129-0.139-0.257-0.213-0.383s-0.151-0.25-0.23-0.373
			c-0.08-0.123-0.162-0.244-0.248-0.364c-0.085-0.119-0.174-0.237-0.265-0.354c-0.225-0.285-0.458-0.556-0.701-0.812
			c-0.243-0.256-0.494-0.498-0.755-0.726c-0.26-0.228-0.53-0.441-0.808-0.64c-0.278-0.199-0.565-0.384-0.861-0.555l-0.083,0.981
			l-0.051,0.604c0.098,0.068,0.194,0.138,0.289,0.21s0.19,0.146,0.283,0.222c0.093,0.076,0.185,0.154,0.276,0.234
			c0.091,0.08,0.18,0.162,0.269,0.247c0.177,0.168,0.349,0.345,0.517,0.53c0.084,0.093,0.167,0.187,0.248,0.284
			c0.081,0.097,0.162,0.196,0.241,0.297c0.021,0.026,0.04,0.054,0.06,0.08c0.141,0.184,0.275,0.372,0.398,0.563
			c0.141,0.219,0.271,0.443,0.389,0.671c0.237,0.457,0.428,0.932,0.577,1.424c0.074,0.246,0.138,0.497,0.191,0.751
			s0.096,0.513,0.129,0.775c0.033,0.263,0.055,0.529,0.068,0.799c0.013,0.27,0.015,0.544,0.008,0.821
			c-0.006,0.245-0.018,0.49-0.034,0.736c-0.016,0.246-0.035,0.494-0.056,0.742c-0.021,0.249-0.043,0.498-0.065,0.749
			c-0.022,0.251-0.044,0.504-0.063,0.759c0.255-0.564,0.462-1.128,0.621-1.694c0.119-0.424,0.211-0.848,0.275-1.275
			c0.021-0.142,0.04-0.285,0.055-0.427c0.031-0.284,0.049-0.57,0.055-0.856c0.006-0.286,0-0.574-0.019-0.863
			c-0.019-0.288-0.05-0.578-0.093-0.869c-0.043-0.291-0.099-0.584-0.168-0.878c0.121,0.013,0.24,0.028,0.357,0.045
			c0.352,0.051,0.69,0.123,1.013,0.215c0.323,0.092,0.632,0.205,0.927,0.338c0.098,0.044,0.195,0.091,0.29,0.14
			c0.286,0.147,0.558,0.315,0.816,0.504c0.086,0.063,0.171,0.128,0.254,0.196c0.249,0.203,0.485,0.428,0.708,0.673
			c0.074,0.082,0.147,0.166,0.218,0.253c0.142,0.173,0.273,0.351,0.394,0.534s0.232,0.37,0.334,0.562
			c0.204,0.384,0.373,0.784,0.515,1.198c0.142,0.414,0.258,0.841,0.356,1.276c0.049,0.218,0.094,0.439,0.135,0.661
			c0.041,0.222,0.079,0.446,0.115,0.671c0.017-0.277,0.035-0.554,0.052-0.832c0.017-0.278,0.035-0.558,0.053-0.841
			c0.018-0.283,0.036-0.569,0.054-0.861c0.018-0.291,0.037-0.588,0.056-0.891c0.159,0.014,0.324,0.025,0.492,0.035
			s0.342,0.021,0.516,0.033c0.175,0.012,0.352,0.027,0.529,0.046c0.177,0.019,0.354,0.043,0.53,0.074
			c0.171,0.03,0.339,0.063,0.505,0.098c0.332,0.07,0.653,0.151,0.965,0.241c0.156,0.045,0.309,0.093,0.46,0.142
			c0.302,0.1,0.593,0.209,0.875,0.328c0.282,0.119,0.554,0.247,0.817,0.384c1.053,0.549,1.955,1.244,2.719,2.066
			c0.575,0.619,1.072,1.311,1.497,2.068c0.142,0.253,0.275,0.512,0.401,0.779c0.126,0.268,0.245,0.543,0.356,0.825
			c0.222,0.563,0.413,1.155,0.575,1.771c0.081,0.308,0.155,0.623,0.222,0.943c0.011,0.051,0.008,0.111-0.006,0.175
			c-0.011,0.055-0.032,0.112-0.056,0.169c-0.004,0.01-0.007,0.019-0.012,0.029c-0.031,0.066-0.069,0.131-0.11,0.189
			c-0.041,0.058-0.086,0.11-0.131,0.15c-0.156,0.138-0.311,0.276-0.46,0.42c-0.11,0.106-0.216,0.218-0.318,0.333
			c-0.037,0.042-0.075,0.082-0.111,0.125c-0.135,0.163-0.261,0.339-0.374,0.533c-0.113,0.195-0.212,0.409-0.294,0.648
			c0.448-0.424,0.908-0.781,1.377-1.077c0.234-0.148,0.472-0.281,0.711-0.4c0.191-0.095,0.384-0.178,0.578-0.256
			c0.049-0.02,0.098-0.041,0.147-0.06c0.122-0.046,0.245-0.088,0.368-0.127c0.246-0.079,0.495-0.144,0.746-0.198
			c0.125-0.027,0.251-0.051,0.378-0.072c0.241-0.04,0.484-0.069,0.729-0.09c0.268-0.022,0.538-0.033,0.811-0.033
			c0.147,0,0.295,0.003,0.443,0.009c0.148,0.006,0.297,0.015,0.447,0.026c0.149,0.012,0.299,0.026,0.45,0.043
			s0.302,0.037,0.453,0.059c0.604,0.089,1.179,0.232,1.726,0.427c0.547,0.196,1.067,0.443,1.56,0.74
			c0.494,0.297,0.962,0.644,1.406,1.037c0.445,0.394,0.865,0.834,1.263,1.319c-0.381,0.378-0.737,0.768-1.058,1.179
			c-0.161,0.206-0.314,0.417-0.457,0.633c-0.143,0.217-0.277,0.44-0.401,0.669c-0.075,0.14-0.146,0.283-0.213,0.429l0.946,0.001
			c0.038-0.046,0.075-0.093,0.113-0.138c0.438-0.516,0.915-0.982,1.424-1.398c0.305-0.249,0.622-0.48,0.949-0.692
			c0.109-0.071,0.219-0.139,0.329-0.205c0.776-0.465,1.604-0.827,2.464-1.081c0.245-0.073,0.494-0.136,0.744-0.191
			c0.751-0.164,1.522-0.249,2.302-0.249c0.56,0,1.125,0.044,1.69,0.132c0.188,0.03,0.376,0.064,0.564,0.104
			c0.752,0.158,1.502,0.398,2.239,0.722c0.369,0.162,0.734,0.346,1.095,0.551c0.361,0.205,0.717,0.432,1.068,0.681
			c0.702,0.499,1.381,1.088,2.026,1.77c-0.003,0.002-0.005,0.004-0.008,0.006l3.456,0.002c-0.102-0.035-0.208-0.066-0.316-0.094
			c-0.438-0.112-0.922-0.169-1.449-0.169c-0.097,0-0.196,0.002-0.296,0.006s-0.202,0.01-0.305,0.017
			c-0.103,0.008-0.207,0.018-0.313,0.029c-0.094,0.01-0.189,0.023-0.285,0.036c-0.012,0.002-0.024,0.003-0.036,0.005
			c-0.079-0.106-0.158-0.211-0.236-0.317c-0.059-0.079-0.118-0.158-0.176-0.236c-0.137-0.184-0.274-0.367-0.411-0.551
			c-0.137-0.183-0.273-0.366-0.409-0.549c-0.136-0.183-0.272-0.365-0.408-0.547c0.235-0.199,0.497-0.374,0.78-0.523
			c0.283-0.149,0.588-0.274,0.91-0.374c0.322-0.099,0.661-0.174,1.013-0.224c0.352-0.05,0.716-0.075,1.088-0.075
			c0.458,0,0.928,0.038,1.402,0.114c0.158,0.025,0.316,0.055,0.474,0.089c0.317,0.067,0.634,0.152,0.948,0.253
			c0.222,0.072,0.442,0.155,0.661,0.243c0.091,0.037,0.183,0.072,0.274,0.112c0.616,0.271,1.212,0.612,1.769,1.021
			c0.279,0.205,0.548,0.427,0.804,0.667c0.128,0.12,0.253,0.244,0.375,0.373c0.122,0.129,0.24,0.262,0.354,0.399
			c-0.025-0.178-0.057-0.328-0.118-0.48c-0.046-0.114-0.109-0.229-0.199-0.359c-0.03-0.043-0.063-0.088-0.099-0.135
			c-0.109-0.141-0.248-0.3-0.427-0.49c-0.06-0.064-0.124-0.131-0.193-0.202c-0.172-0.177-0.378-0.383-0.616-0.618
			c-0.143-0.141-0.295-0.29-0.465-0.456c0.348-0.925,0.872-1.775,1.528-2.53c0.655-0.752,1.443-1.41,2.321-1.952
			c0.11-0.068,0.221-0.134,0.333-0.198c0.562-0.32,1.158-0.594,1.777-0.818c0.124-0.045,0.249-0.087,0.374-0.128
			c0.126-0.041,0.252-0.079,0.38-0.115c1.018-0.291,2.087-0.447,3.167-0.447c0.149,0,0.298,0.003,0.447,0.009
			s0.299,0.015,0.448,0.027c0.299,0.024,0.598,0.061,0.896,0.11c0.149,0.025,0.298,0.052,0.447,0.084
			c0.149,0.031,0.297,0.065,0.445,0.103c0.296,0.075,0.59,0.164,0.882,0.267c-0.313,0.197-0.581,0.412-0.806,0.644
			c-0.075,0.077-0.146,0.157-0.212,0.238c-0.132,0.163-0.247,0.333-0.345,0.51c-0.098,0.177-0.178,0.361-0.244,0.552
			c-0.131,0.382-0.199,0.789-0.214,1.22c-0.015,0.431,0.023,0.885,0.105,1.358c0.054-0.237,0.109-0.473,0.167-0.708
			c0.034-0.14,0.068-0.281,0.106-0.418c0.025-0.092,0.052-0.183,0.079-0.274c0.055-0.181,0.116-0.359,0.184-0.531
			c0.034-0.086,0.07-0.172,0.109-0.255c0.115-0.251,0.25-0.489,0.413-0.71c0.054-0.073,0.112-0.145,0.173-0.214
			c0.244-0.277,0.542-0.52,0.914-0.717c0.145-0.077,0.292-0.145,0.442-0.204c0.075-0.029,0.151-0.057,0.228-0.081
			s0.154-0.047,0.232-0.067c0.078-0.02,0.157-0.038,0.236-0.053c0.079-0.015,0.159-0.028,0.24-0.038
			c0.081-0.01,0.162-0.018,0.244-0.023s0.165-0.008,0.248-0.008c0.043,0,0.086,0.001,0.13,0.002
			c0.043,0.001,0.087,0.004,0.131,0.006c0.044,0.003,0.088,0.006,0.132,0.01c0.044,0.004,0.089,0.009,0.133,0.014
			c0.036,0.175,0.073,0.348,0.11,0.52c0.037,0.172,0.074,0.344,0.109,0.514c0.036,0.171,0.071,0.341,0.105,0.511
			s0.067,0.34,0.097,0.51c0.007,0.038,0.009,0.078,0.007,0.118c-0.002,0.041-0.008,0.082-0.017,0.123
			c-0.009,0.041-0.021,0.082-0.036,0.12c-0.015,0.039-0.032,0.075-0.05,0.109c-0.139,0.246-0.266,0.495-0.381,0.746
			c-0.057,0.126-0.112,0.253-0.164,0.38c-0.052,0.127-0.1,0.255-0.146,0.384c-0.138,0.387-0.25,0.781-0.336,1.181
			c-0.029,0.133-0.055,0.267-0.078,0.402c-0.045,0.256-0.079,0.516-0.104,0.777c-0.028,0.289-0.044,0.582-0.049,0.877
			c-0.006,0.364,0.008,0.733,0.036,1.106l0.273,0c0.001-0.125,0.003-0.25,0.008-0.374c0.006-0.149,0.015-0.296,0.026-0.443
			c0.001-0.013,0.003-0.026,0.004-0.039c0.047-0.572,0.135-1.129,0.267-1.671c0.034-0.138,0.07-0.276,0.11-0.412
			c0.118-0.409,0.262-0.81,0.432-1.202c0.227-0.521,0.5-1.027,0.821-1.517c0.162-0.246,0.332-0.481,0.51-0.705
			s0.364-0.437,0.558-0.639c0.387-0.404,0.807-0.765,1.256-1.085c0.337-0.239,0.69-0.456,1.06-0.649
			c0.123-0.064,0.249-0.126,0.376-0.186c0.508-0.238,1.044-0.436,1.609-0.595c0.127-0.036,0.255-0.069,0.382-0.1
			c0.127-0.031,0.255-0.059,0.383-0.086c0.256-0.052,0.512-0.095,0.769-0.129s0.516-0.059,0.775-0.075
			c0.13-0.008,0.26-0.014,0.39-0.018c0.13-0.004,0.261-0.006,0.392-0.006c0.157,0,0.314,0.003,0.472,0.008
			c0.158,0.005,0.316,0.014,0.476,0.025c0.159,0.011,0.319,0.024,0.479,0.041c0.16,0.016,0.321,0.034,0.483,0.055
			c0.323,0.042,0.649,0.093,0.978,0.154c0.329,0.06,0.661,0.129,0.996,0.206c-0.219-0.114-0.456-0.222-0.708-0.322
			c-0.084-0.033-0.17-0.066-0.257-0.097c-0.174-0.063-0.355-0.122-0.541-0.176s-0.378-0.105-0.575-0.151
			c-0.295-0.068-0.604-0.122-0.919-0.167c-0.105-0.015-0.208-0.033-0.315-0.045c-0.214-0.025-0.431-0.043-0.651-0.056
			c-0.22-0.013-0.443-0.019-0.668-0.019c-0.701,0-1.423,0.064-2.145,0.208c-0.181,0.036-0.361,0.076-0.541,0.122
			c-0.361,0.092-0.72,0.204-1.076,0.339c-0.178,0.067-0.355,0.14-0.53,0.219c-0.703,0.315-1.385,0.724-2.027,1.241
			c-0.241,0.194-0.476,0.404-0.704,0.629c-0.076,0.075-0.151,0.152-0.226,0.231c-0.149,0.158-0.295,0.323-0.437,0.495
			c-0.142,0.172-0.281,0.352-0.416,0.54c-0.052-0.132-0.097-0.267-0.137-0.405c-0.119-0.412-0.185-0.847-0.203-1.295
			c-0.012-0.299-0.003-0.604,0.025-0.912c0.029-0.309,0.077-0.621,0.143-0.934c0.263-1.248,0.812-2.515,1.545-3.649
			c0.365-0.565,0.776-1.097,1.221-1.579c0.222-0.241,0.453-0.469,0.691-0.682s0.482-0.411,0.732-0.591
			c0.125-0.09,0.251-0.176,0.378-0.257c0.382-0.243,0.774-0.445,1.172-0.598c0.531-0.204,1.071-0.32,1.61-0.331
			c0.038,0.271,0.076,0.542,0.113,0.813c0.038,0.271,0.076,0.543,0.113,0.815c0.038,0.272,0.076,0.544,0.113,0.817
			c0.038,0.273,0.076,0.546,0.114,0.82c0.018-0.001,0.035-0.001,0.053-0.002c0.018-0.001,0.035-0.001,0.053-0.002
			c0.018-0.001,0.035-0.001,0.053-0.002c0.018-0.001,0.035-0.001,0.053-0.002c-0.062-0.518-0.089-1.027-0.079-1.527
			c0.01-0.499,0.056-0.989,0.139-1.468C133.284,108.215,133.307,108.096,133.333,107.978z"/>
		<path class="st0" d="M94.819,125.713c-0.105,0.007-0.21,0.019-0.315,0.03l1.704,0.001c-0.282-0.029-0.566-0.048-0.852-0.048
			C95.178,125.696,94.999,125.702,94.819,125.713z"/>
		<path class="st2" d="M83.551,124.638c0.143-0.217,0.296-0.428,0.457-0.633c0.322-0.411,0.677-0.802,1.058-1.179
			c-0.398-0.485-0.818-0.925-1.263-1.319c-0.444-0.393-0.912-0.74-1.406-1.037c-0.493-0.297-1.013-0.545-1.56-0.74
			c-0.547-0.195-1.122-0.339-1.726-0.427c-0.152-0.022-0.303-0.042-0.453-0.059c-0.151-0.017-0.301-0.031-0.45-0.043
			c-0.149-0.012-0.298-0.021-0.447-0.027c-0.148-0.006-0.296-0.009-0.443-0.009h0c-0.272,0-0.542,0.011-0.811,0.033
			c-0.245,0.02-0.488,0.049-0.729,0.09c-0.126,0.021-0.252,0.045-0.378,0.072c-0.251,0.054-0.499,0.12-0.746,0.198
			c-0.123,0.039-0.246,0.082-0.368,0.127c-0.049,0.018-0.098,0.04-0.147,0.059c-0.194,0.077-0.387,0.161-0.578,0.256
			c-0.239,0.119-0.477,0.252-0.711,0.4c-0.47,0.296-0.929,0.653-1.377,1.077c0.082-0.239,0.181-0.453,0.294-0.648
			c0.113-0.195,0.238-0.37,0.374-0.534c0.036-0.043,0.074-0.084,0.111-0.125c0.103-0.115,0.208-0.227,0.318-0.333
			c0.15-0.144,0.304-0.282,0.46-0.42c0.045-0.04,0.09-0.091,0.131-0.15c0.041-0.058,0.079-0.123,0.11-0.189
			c0.004-0.01,0.008-0.019,0.012-0.029c0.025-0.057,0.045-0.114,0.056-0.169c0.013-0.064,0.016-0.124,0.006-0.175
			c-0.067-0.32-0.141-0.635-0.222-0.943c-0.162-0.616-0.353-1.207-0.575-1.771c-0.111-0.282-0.229-0.557-0.356-0.825
			c-0.126-0.267-0.26-0.527-0.401-0.779c-0.425-0.757-0.923-1.449-1.498-2.068c-0.764-0.823-1.666-1.517-2.719-2.066
			c-0.263-0.137-0.535-0.265-0.817-0.384c-0.282-0.119-0.574-0.228-0.875-0.328c-0.151-0.05-0.304-0.097-0.46-0.142
			c-0.312-0.09-0.633-0.17-0.965-0.241c-0.166-0.035-0.334-0.068-0.505-0.098c-0.176-0.031-0.353-0.055-0.53-0.074
			c-0.177-0.019-0.354-0.033-0.529-0.046c-0.175-0.012-0.348-0.022-0.516-0.033c-0.169-0.011-0.334-0.021-0.492-0.035
			c-0.019,0.303-0.038,0.6-0.056,0.891c-0.018,0.292-0.036,0.578-0.054,0.861c-0.018,0.283-0.035,0.563-0.053,0.841
			c-0.017,0.278-0.035,0.555-0.052,0.832c-0.036-0.225-0.074-0.449-0.115-0.671c-0.041-0.222-0.086-0.443-0.135-0.661
			c-0.098-0.436-0.213-0.862-0.356-1.276c-0.142-0.413-0.311-0.814-0.515-1.198c-0.102-0.192-0.213-0.379-0.334-0.562
			c-0.121-0.183-0.252-0.361-0.394-0.534c-0.071-0.087-0.144-0.171-0.218-0.253c-0.222-0.246-0.458-0.47-0.708-0.673
			c-0.083-0.068-0.168-0.133-0.254-0.196c-0.258-0.189-0.53-0.357-0.816-0.504c-0.095-0.049-0.192-0.096-0.29-0.14
			c-0.295-0.133-0.604-0.246-0.927-0.338c-0.323-0.092-0.661-0.164-1.013-0.215c-0.117-0.017-0.236-0.032-0.357-0.045l0,0
			c0.068,0.294,0.124,0.587,0.168,0.878c0.043,0.291,0.074,0.581,0.093,0.869c0.019,0.289,0.025,0.576,0.019,0.863
			c-0.006,0.287-0.024,0.572-0.055,0.857c-0.015,0.143-0.034,0.285-0.055,0.427c-0.064,0.426-0.156,0.851-0.275,1.275
			c-0.159,0.566-0.366,1.13-0.621,1.694l0,0c0.019-0.255,0.041-0.507,0.063-0.759c0.022-0.251,0.045-0.501,0.065-0.749
			c0.021-0.248,0.04-0.495,0.056-0.742c0.016-0.246,0.027-0.491,0.034-0.736c0.007-0.277,0.004-0.551-0.008-0.821
			c-0.013-0.27-0.035-0.536-0.068-0.799c-0.033-0.262-0.075-0.52-0.129-0.775c-0.053-0.254-0.117-0.505-0.191-0.751
			c-0.149-0.492-0.34-0.967-0.577-1.424c-0.118-0.228-0.248-0.452-0.389-0.671c-0.123-0.191-0.257-0.379-0.398-0.563
			c-0.02-0.027-0.039-0.054-0.06-0.08c-0.079-0.101-0.159-0.2-0.241-0.297c-0.082-0.097-0.164-0.191-0.248-0.284
			c-0.168-0.185-0.34-0.362-0.517-0.53c-0.088-0.084-0.178-0.166-0.269-0.247c-0.091-0.08-0.183-0.158-0.276-0.234
			c-0.093-0.076-0.187-0.15-0.283-0.222c-0.095-0.072-0.192-0.142-0.289-0.21l0,0l0.051-0.604l0.083-0.981L54.79,53.5h23.554l0,0
			l-0.62,17.342l-0.62,17.342l0,0l1.632,1.893l3.391-3.294l-0.953-6.123l2.613-2.352c-1.681-9.533-1.567-22.143-1.567-22.143
			c0.119,3.253,0.296,6.253,0.504,8.983c-0.441-7.647-0.378-14.472,0.035-20.538h-37.26l-3.236,30.729l-3.236,30.729
			c-0.256,2.427-0.327,4.877-0.212,7.345c0.042,0.905,0.11,1.812,0.202,2.722c0.035,0.342,0.072,0.685,0.114,1.028
			c0.044,0.361,0.093,0.722,0.145,1.083c0.129,0.895,0.28,1.793,0.457,2.692c0.05,0.253,0.103,0.506,0.157,0.759
			c0.283,1.335,0.617,2.673,1.007,4.015l16.852,0.01c0.002-0.01,0.002-0.02,0.004-0.03c0.074-0.387,0.199-0.762,0.366-1.118
			c0.111-0.237,0.242-0.465,0.388-0.681c0.146-0.217,0.309-0.422,0.485-0.614c0.088-0.096,0.179-0.188,0.273-0.277
			c0.094-0.089,0.191-0.173,0.291-0.254c0.139-0.112,0.284-0.213,0.433-0.309c0.065-0.042,0.13-0.086,0.197-0.125
			c0.219-0.127,0.446-0.235,0.678-0.322c0.233-0.087,0.471-0.154,0.712-0.197c0.07-0.012,0.141-0.023,0.211-0.033
			c0.064-0.008,0.128-0.015,0.192-0.021c0.006-0.001,0.013-0.002,0.019-0.002c0.07-0.006,0.14-0.011,0.21-0.014
			c0.07-0.003,0.139-0.005,0.209-0.005c0.22,0,0.438,0.015,0.652,0.045c0.214,0.03,0.424,0.075,0.628,0.134
			c0.409,0.118,0.795,0.291,1.144,0.516c0.35,0.225,0.664,0.501,0.927,0.823c0.132,0.161,0.252,0.334,0.357,0.518
			c0.105,0.184,0.196,0.378,0.271,0.583c-0.283-0.289-0.57-0.551-0.864-0.781c-0.22-0.173-0.444-0.328-0.673-0.464
			c-0.076-0.045-0.153-0.088-0.231-0.129c-0.155-0.081-0.312-0.154-0.473-0.217c-0.16-0.063-0.324-0.116-0.49-0.159
			c-0.097-0.025-0.195-0.046-0.294-0.064c-0.239-0.044-0.486-0.067-0.74-0.068c-0.003,0-0.006,0-0.008,0l0,0
			c-0.078,0-0.157,0.002-0.237,0.006c-0.08,0.004-0.16,0.011-0.242,0.019c-0.041,0.004-0.082,0.011-0.123,0.016
			c-0.041,0.005-0.082,0.01-0.123,0.016c-0.083,0.013-0.167,0.028-0.252,0.046c-0.197,0.041-0.385,0.095-0.567,0.156
			c-0.143,0.048-0.283,0.099-0.417,0.159c-0.102,0.045-0.201,0.093-0.297,0.145c-0.29,0.155-0.559,0.338-0.81,0.547
			c-0.084,0.07-0.165,0.142-0.245,0.218c-0.319,0.302-0.608,0.648-0.874,1.033c-0.195,0.281-0.377,0.584-0.551,0.903l25.051,0.015
			c0.068-0.145,0.138-0.289,0.213-0.429C83.274,125.078,83.408,124.855,83.551,124.638z"/>
		<path class="st2" d="M151.655,120.867c0.062-0.314,0.121-0.628,0.177-0.942c0.112-0.628,0.212-1.254,0.301-1.88
			c0.221-1.564,0.368-3.121,0.44-4.67c0.029-0.614,0.046-1.227,0.052-1.839c0.006-0.612,0-1.222-0.018-1.831
			c-0.017-0.609-0.046-1.217-0.087-1.823c-0.041-0.606-0.093-1.211-0.156-1.815h-0.039l-6.412-61.257l-20.441,9.469h0l-16.056-6.903
			c0.272,5.599,0.247,11.807-0.18,18.668c0.238-2.966,0.441-6.267,0.574-9.88c0,0,0.114,12.621-1.569,22.155l2.599,2.339
			l-0.953,6.123l3.505,3.405l1.599-1.858l-1.068-28.492l0.012,0.005l12.201,5.262l11.112-5.311l3.331,39.422l0.013,0.157l0.103,1.22
			c-0.714,0.158-1.383,0.381-2.008,0.668c-0.313,0.144-0.615,0.304-0.906,0.48c-0.291,0.176-0.571,0.369-0.841,0.577
			c-0.135,0.104-0.267,0.213-0.396,0.325c-0.259,0.225-0.507,0.466-0.744,0.723c-0.119,0.129-0.235,0.261-0.348,0.398
			c-0.18,0.217-0.351,0.447-0.518,0.684c-0.254,0.361-0.494,0.743-0.716,1.151c-0.118,0.216-0.226,0.436-0.325,0.658
			c-0.049,0.111-0.096,0.223-0.14,0.336c-0.044,0.113-0.086,0.226-0.126,0.34c-0.079,0.228-0.149,0.46-0.21,0.694
			c-0.03,0.117-0.058,0.235-0.084,0.353s-0.049,0.237-0.069,0.357c-0.083,0.479-0.13,0.969-0.139,1.468
			c-0.01,0.5,0.017,1.01,0.079,1.527c-0.018,0.001-0.035,0.001-0.053,0.002c-0.018,0.001-0.035,0.001-0.053,0.002
			c-0.018,0.001-0.035,0.001-0.053,0.002s-0.035,0.001-0.053,0.002c-0.038-0.274-0.076-0.547-0.114-0.82
			c-0.038-0.273-0.076-0.545-0.113-0.817c-0.038-0.272-0.076-0.543-0.113-0.815c-0.038-0.271-0.076-0.542-0.113-0.812l0,0
			c-0.539,0.011-1.08,0.128-1.61,0.331c-0.398,0.153-0.79,0.355-1.172,0.598c-0.127,0.081-0.253,0.167-0.378,0.257
			c-0.25,0.18-0.495,0.378-0.732,0.591c-0.238,0.213-0.469,0.441-0.691,0.682c-0.445,0.481-0.856,1.014-1.221,1.579
			c-0.733,1.135-1.282,2.402-1.545,3.649c-0.066,0.313-0.114,0.625-0.143,0.934c-0.029,0.308-0.038,0.613-0.025,0.912
			c0.018,0.448,0.084,0.882,0.203,1.295c0.04,0.137,0.085,0.273,0.137,0.405c0.135-0.188,0.274-0.368,0.416-0.54
			c0.142-0.172,0.288-0.337,0.437-0.495c0.075-0.079,0.15-0.156,0.226-0.231c0.228-0.226,0.463-0.435,0.704-0.63
			c0.641-0.517,1.324-0.926,2.027-1.241c0.176-0.079,0.352-0.152,0.53-0.219c0.356-0.135,0.715-0.247,1.075-0.339
			c0.18-0.046,0.361-0.087,0.541-0.122c0.722-0.143,1.444-0.208,2.145-0.208c0.225,0,0.448,0.007,0.668,0.019
			s0.437,0.032,0.651,0.056c0.107,0.012,0.21,0.03,0.315,0.045c0.315,0.045,0.624,0.099,0.919,0.167
			c0.197,0.046,0.389,0.096,0.575,0.151c0.186,0.055,0.367,0.114,0.541,0.176c0.087,0.031,0.173,0.064,0.257,0.097
			c0.252,0.1,0.489,0.208,0.708,0.322c-0.335-0.077-0.667-0.146-0.996-0.206c-0.329-0.06-0.655-0.112-0.978-0.154
			c-0.162-0.021-0.323-0.039-0.483-0.055c-0.16-0.016-0.32-0.03-0.479-0.04c-0.159-0.011-0.318-0.019-0.476-0.025
			c-0.158-0.006-0.315-0.008-0.472-0.008c-0.131,0-0.262,0.002-0.392,0.006c-0.13,0.004-0.26,0.01-0.39,0.018
			c-0.259,0.016-0.518,0.041-0.775,0.075c-0.257,0.034-0.514,0.077-0.769,0.129c-0.128,0.026-0.255,0.055-0.383,0.086
			c-0.127,0.031-0.255,0.064-0.382,0.1c-0.564,0.159-1.101,0.357-1.609,0.595c-0.127,0.059-0.252,0.121-0.376,0.186
			c-0.37,0.193-0.724,0.41-1.061,0.649c-0.449,0.32-0.868,0.681-1.256,1.085c-0.194,0.202-0.38,0.415-0.558,0.639
			c-0.178,0.224-0.348,0.459-0.51,0.705c-0.322,0.49-0.595,0.995-0.821,1.517c-0.17,0.392-0.314,0.792-0.432,1.202
			c-0.039,0.136-0.076,0.274-0.11,0.412c-0.132,0.542-0.22,1.1-0.267,1.671c-0.001,0.013-0.003,0.026-0.004,0.039
			c-0.012,0.147-0.02,0.294-0.026,0.443c-0.005,0.124-0.007,0.249-0.008,0.374l26.367,0.016c0.201-0.683,0.389-1.366,0.561-2.047
			C151.252,122.773,151.467,121.819,151.655,120.867z"/>
		<path class="st2" d="M123.771,124.654c0.005-0.295,0.021-0.588,0.049-0.877c0.025-0.262,0.059-0.521,0.104-0.778
			c0.023-0.135,0.05-0.269,0.079-0.402c0.087-0.4,0.199-0.794,0.336-1.181c0.046-0.129,0.095-0.257,0.146-0.384
			c0.052-0.127,0.106-0.254,0.164-0.38c0.115-0.252,0.242-0.501,0.381-0.746c0.019-0.033,0.036-0.07,0.05-0.109
			c0.015-0.039,0.027-0.079,0.036-0.12c0.009-0.041,0.015-0.083,0.017-0.123c0.002-0.041,0-0.081-0.007-0.118
			c-0.031-0.17-0.063-0.34-0.097-0.51c-0.034-0.17-0.069-0.34-0.105-0.511c-0.036-0.171-0.073-0.342-0.109-0.514
			c-0.037-0.172-0.074-0.346-0.11-0.52c-0.045-0.005-0.089-0.01-0.133-0.014c-0.044-0.004-0.088-0.008-0.132-0.01
			c-0.044-0.003-0.087-0.005-0.131-0.006c-0.043-0.001-0.087-0.002-0.13-0.002l0,0c-0.083,0-0.166,0.003-0.248,0.008
			c-0.082,0.005-0.163,0.013-0.244,0.023c-0.081,0.01-0.161,0.023-0.24,0.038c-0.079,0.015-0.158,0.033-0.236,0.053
			s-0.155,0.042-0.232,0.067c-0.077,0.025-0.152,0.052-0.228,0.081c-0.15,0.059-0.298,0.127-0.442,0.204
			c-0.372,0.197-0.671,0.44-0.914,0.717c-0.061,0.069-0.118,0.141-0.173,0.214c-0.163,0.221-0.298,0.459-0.413,0.71
			c-0.038,0.084-0.074,0.169-0.109,0.255c-0.068,0.173-0.129,0.35-0.184,0.532c-0.028,0.091-0.054,0.182-0.079,0.274
			c-0.038,0.138-0.072,0.278-0.106,0.418c-0.057,0.235-0.112,0.471-0.166,0.708c-0.082-0.473-0.12-0.927-0.105-1.358
			c0.015-0.431,0.083-0.838,0.214-1.22c0.065-0.191,0.146-0.375,0.244-0.552c0.098-0.177,0.212-0.347,0.344-0.51
			c0.066-0.081,0.137-0.161,0.212-0.238c0.226-0.232,0.493-0.447,0.806-0.644l0,0c-0.292-0.103-0.586-0.191-0.882-0.267
			c-0.148-0.038-0.296-0.072-0.445-0.103c-0.149-0.031-0.298-0.059-0.447-0.084c-0.298-0.049-0.597-0.086-0.896-0.11
			c-0.149-0.012-0.299-0.021-0.448-0.027c-0.149-0.006-0.298-0.009-0.447-0.009l0,0c-1.08,0-2.149,0.156-3.167,0.447
			c-0.127,0.036-0.254,0.075-0.38,0.115c-0.126,0.041-0.251,0.083-0.374,0.128c-0.62,0.223-1.215,0.498-1.777,0.818
			c-0.112,0.064-0.223,0.13-0.333,0.198c-0.879,0.542-1.667,1.2-2.321,1.952c-0.657,0.754-1.18,1.605-1.528,2.53l0,0
			c0.17,0.166,0.322,0.315,0.465,0.456c0.238,0.234,0.444,0.44,0.616,0.618c0.069,0.071,0.133,0.138,0.193,0.202
			c0.179,0.191,0.318,0.35,0.427,0.49c0.036,0.047,0.069,0.092,0.099,0.135c0.09,0.13,0.153,0.245,0.199,0.359
			c0.061,0.152,0.093,0.302,0.118,0.48c0,0,0,0,0,0c-0.114-0.137-0.233-0.271-0.354-0.399c-0.122-0.129-0.247-0.253-0.375-0.373
			c-0.256-0.24-0.525-0.462-0.804-0.667c-0.557-0.409-1.153-0.749-1.769-1.021c-0.091-0.04-0.183-0.075-0.274-0.112
			c-0.219-0.089-0.439-0.172-0.661-0.243c-0.315-0.102-0.632-0.186-0.948-0.254c-0.158-0.034-0.316-0.063-0.474-0.089
			c-0.474-0.076-0.944-0.114-1.402-0.114c-0.372,0-0.736,0.025-1.088,0.075c-0.352,0.05-0.691,0.125-1.013,0.224
			c-0.322,0.1-0.627,0.224-0.91,0.374c-0.283,0.15-0.545,0.324-0.78,0.523l0,0c0.136,0.182,0.272,0.365,0.408,0.547
			c0.136,0.183,0.273,0.366,0.409,0.549c0.137,0.183,0.274,0.367,0.411,0.551c0.059,0.079,0.117,0.158,0.176,0.236
			c0.079,0.106,0.157,0.211,0.236,0.317l0,0c0.012-0.002,0.024-0.003,0.036-0.005c0.096-0.013,0.191-0.026,0.285-0.036
			c0.106-0.012,0.21-0.021,0.313-0.029s0.205-0.014,0.305-0.017c0.1-0.004,0.199-0.006,0.296-0.006c0.527,0,1.011,0.057,1.449,0.169
			c0.108,0.028,0.214,0.059,0.316,0.094l19.469,0.012C123.779,125.387,123.766,125.018,123.771,124.654L123.771,124.654z"/>
		<path class="st2" d="M72.505,169.578c0.421,0.359,0.84,0.713,1.257,1.061c1.681,1.403,3.316,2.709,4.876,3.912
			c1.396,1.077,2.728,2.066,3.984,2.975c0.147,0.107,0.298,0.217,0.443,0.321c0.174,0.125,0.346,0.248,0.517,0.37
			c0.682,0.486,1.337,0.944,1.96,1.374c0.312,0.215,0.616,0.423,0.911,0.624c0.148,0.1,0.294,0.199,0.437,0.296
			c1.15,0.775,2.165,1.435,3.016,1.976c0.641,0.407,1.188,0.747,1.63,1.017c0.147,0.09,0.283,0.172,0.407,0.247
			c0.224,0.135,0.406,0.243,0.548,0.327c0.054,0.032,0.103,0.061,0.145,0.085c0.09,0.053,0.151,0.088,0.18,0.105l2.96,1.697
			l2.951-1.713c0.015-0.009,0.042-0.024,0.075-0.044c0.042-0.025,0.098-0.058,0.168-0.099c0.047-0.028,0.098-0.058,0.157-0.093
			c0.086-0.051,0.185-0.111,0.296-0.178c0.368-0.223,0.874-0.534,1.497-0.927c0.069-0.044,0.139-0.088,0.211-0.134
			c0.125-0.079,0.254-0.162,0.388-0.247c0.038-0.024,0.074-0.047,0.112-0.072c0.318-0.204,0.66-0.426,1.022-0.664
			c0.121-0.079,0.244-0.16,0.37-0.243c0.428-0.282,0.884-0.587,1.363-0.912c0.168-0.113,0.338-0.229,0.512-0.348
			c0.159-0.109,0.321-0.22,0.486-0.333c0.197-0.136,0.396-0.274,0.6-0.415c0.777-0.541,1.603-1.126,2.469-1.754
			c1.033-0.749,2.125-1.558,3.262-2.426c0.758-0.579,1.537-1.183,2.332-1.813c1.193-0.945,2.424-1.947,3.681-3.003
			c1.333-1.121,2.695-2.305,4.069-3.544c-2.406-3.4-8.905-8.555-26.196-8.555c-17.483,0-24.237,4.796-26.775,7.887
			c0.428,0.39,0.855,0.774,1.281,1.153C70.911,168.203,71.712,168.902,72.505,169.578z M93.679,168.558l1.954-5.891l1.954,5.891
			h6.266l-5.111,3.667l2.021,6.064l-5.13-3.725l-5.13,3.725l2.021-6.064l-5.111-3.667H93.679z"/>
		<polygon class="st2" points="104.535,100.476 104.389,100.397 104.393,100.641 		"/>
		<polygon class="st2" points="87.719,100.345 87.633,100.392 87.717,100.49 		"/>
		<path class="st2" d="M98.864,123.971c-0.35-0.249-0.707-0.476-1.068-0.681c-0.361-0.205-0.726-0.389-1.095-0.551
			c-0.737-0.324-1.486-0.563-2.239-0.722c-0.188-0.04-0.376-0.074-0.564-0.104c-0.565-0.089-1.129-0.132-1.69-0.132
			c-0.779,0-1.55,0.084-2.302,0.248c-0.25,0.055-0.499,0.119-0.744,0.191c-0.86,0.254-1.688,0.616-2.464,1.081
			c-0.111,0.066-0.221,0.135-0.329,0.205c-0.327,0.212-0.644,0.443-0.949,0.692c-0.509,0.416-0.986,0.882-1.424,1.398
			c-0.038,0.045-0.075,0.092-0.113,0.138l10.621,0.006c0.105-0.01,0.21-0.023,0.315-0.03c0.18-0.011,0.359-0.017,0.537-0.017
			c0.286,0,0.57,0.019,0.852,0.048l4.673,0.003c0.003-0.002,0.005-0.004,0.008-0.006C100.245,125.059,99.566,124.47,98.864,123.971z
			"/>
		<path class="st0" d="M107.715,31.734C103.986,10.59,96.007,2.553,96.007,2.553s-7.919,7.977-11.666,28.944
			c0.794,0.748,4.206,3.471,11.78,3.471C103.03,34.967,106.534,32.701,107.715,31.734z M96.078,32.725
			c-6.087,0.478-9.646-2.295-9.646-2.295c2.247-15.78,9.575-26.587,9.575-26.587C98.6,6.855,101.985,16.1,101.985,16.1
			c-2.712,1.769-5.908-9.946-5.908-9.946V32.725z"/>
		<path class="st0" d="M82.724,65.147c0.255,3.346,0.557,6.286,0.861,8.788c0.322,0.346,3.777,3.812,12.533,3.812
			c7.338,0,11.017-2.436,12.211-3.43l-0.011,0.522c-1.459,1.139-5.154,3.298-12.2,3.298c-7.687,0-11.323-2.57-12.457-3.582
			c0.766,6.118,1.518,9.438,1.518,9.438c-0.565-1.634-1.022-3.585-1.392-5.686l-2.613,2.352l0.953,6.123l-3.391,3.294h0
			l-1.372,1.332l3.81,20.819l1.769,0.953l2.858-2.858l-0.272-10.75l1.86,0.953l0.244-0.133l0,0l0.086-0.047l0.668-0.364l-0.091-6.35
			l0.907-0.544l0.363,2.086c0,0,0.057,0.071,0.201,0.182c0.281,0.216,0.898,0.584,2.074,0.872c0.967,0.237,2.312,0.42,4.166,0.42
			c1.873,0,3.227-0.187,4.197-0.428c1.101-0.273,1.704-0.615,2-0.832c0.175-0.129,0.244-0.214,0.244-0.214l0.363-2.086l0.907,0.544
			l-0.091,6.35l0.762,0.416l0.146,0.079l0.09,0.049l1.86-0.953l-0.272,10.75l2.858,2.858l1.769-0.953l3.81-20.819l-1.258-1.222
			l-3.505-3.405l0.953-6.123l-2.599-2.339c-0.37,2.095-0.826,4.043-1.39,5.673c0,0,1.462-6.452,2.386-17.949
			c0.427-6.86,0.452-13.068,0.18-18.668c-0.064-1.312-0.143-2.59-0.238-3.836c-0.315-4.141-0.793-7.92-1.385-11.357
			c-1.367,1.079-4.895,3.174-11.672,3.174c-7.286,0-10.757-2.421-11.861-3.399c-0.494,2.836-0.911,5.906-1.223,9.222
			c-0.105,1.115-0.198,2.258-0.278,3.43C82.346,50.675,82.283,57.5,82.724,65.147z M96.126,91.068c2.177,0,4.558-0.374,4.558-0.374
			s-1.361,0.782-4.558,0.782s-4.797-0.782-4.797-0.782S93.949,91.068,96.126,91.068z M83.152,112.003l1.539-1.812l-1.514,1.286
			l1.508-1.768l-1.483,1.242l1.477-1.724l-1.452,1.198l1.446-1.68l-1.422,1.155l1.416-1.637l-1.391,1.112l1.386-1.594l-1.361,1.069
			l1.356-1.552l-1.331,1.026l1.309-1.489l-1.276,0.964l1.295-1.464l-1.269,0.939l1.266-1.422l-1.24,0.897l1.236-1.381l-1.211,0.855
			l1.208-1.339l-1.182,0.814l1.179-1.298l-1.153,0.772l1.151-1.256l-1.125,0.731l1.122-1.215l-1.096,0.69l1.094-1.174l-1.068,0.649
			l1.066-1.134l-1.041,0.608l1.04-1.094l-1.015,0.569l1.014-1.056l-0.991,0.53l0.986-1.015l-0.963,0.489l0.959-0.974l-0.936,0.449
			l0.932-0.934l-0.909,0.409l0.905-0.894l-0.882,0.368l0.878-0.854l-0.855,0.328l0.852-0.813l-0.829,0.288l0.829-0.776l-0.813,0.251
			l0.799-0.732l-0.774,0.207l0.773-0.692l-0.749,0.167l0.748-0.652l-0.723,0.126l0.723-0.612l-0.698,0.086l0.698-0.571l-0.673,0.045
			l0.959-0.632l0.407,15.064L83.152,112.003z M87.426,100.321l-0.476-6.157l0.476-0.238V100.321z M79.481,92.497l3.13,19.935
			L78.8,92.293l11.09-11.43L79.481,92.497z M86.432,82.071c0,0-0.828-3.464-0.897-4.573c0,0,3.221,2.217,10.41,2.494v9.077
			c0,0-2.442,0-3.343,0l-1.272-8.523C91.329,80.546,88.645,79.715,86.432,82.071z M96.15,96.073c-3.855,0-5.782-1.147-5.782-1.147
			s3.157,0.655,5.782,0.655c2.624,0,5.495-0.655,5.495-0.655S100.005,96.073,96.15,96.073z M102.419,89.797l0.318-5.128l7.074,7.465
			l-1.299,1.792L102.419,89.797z M104.673,93.926l0.476,0.238l-0.476,6.157V93.926z M106.828,110.145l0.407-15.22l0.803,0.632
			l-0.674-0.045l0.689,0.568l-0.691-0.084l0.707,0.606l-0.709-0.121l0.725,0.644l-0.728-0.159l0.743,0.681l-0.746-0.197l0.761,0.719
			l-0.777-0.238l0.784,0.76l-0.786-0.273l0.8,0.795l-0.806-0.311l0.82,0.833l-0.826-0.348l0.84,0.871l-0.846-0.386l0.86,0.909
			l-0.866-0.424l0.88,0.947l-0.887-0.463l0.901,0.985l-0.908-0.501l0.921,1.023l-0.926-0.538l0.941,1.06l-0.945-0.575l0.961,1.097
			l-0.966-0.614l0.983,1.136l-0.988-0.653l1.004,1.175l-1.01-0.692l1.026,1.215l-1.032-0.732l1.048,1.254l-1.055-0.772l1.071,1.294
			l-1.077-0.812l1.094,1.334l-1.1-0.853l1.117,1.375l-1.124-0.893l1.14,1.416l-1.125-0.917l1.149,1.439l-1.174-0.979l1.19,1.501
			l-1.199-1.021l1.214,1.543l-1.223-1.063l1.238,1.585l-1.248-1.106l1.263,1.628l-1.273-1.149l1.288,1.671l-1.298-1.193l1.314,1.715
			l-1.324-1.237l1.339,1.759L106.828,110.145z M113.075,92.293l-3.81,20.139l3.13-19.935l-10.41-11.634L113.075,92.293z
			 M108.33,53.973c0,8.161-1.05,19.399-1.05,19.399l-0.431,0.287c0,0,0.74-7.938,0.74-19.654c0-11.716-0.74-17.374-0.74-17.374
			S108.33,45.812,108.33,53.973z M85.73,35.48c0,0,1.557,1.15,4.775,1.724c3.218,0.574,5.606,0.51,5.606,0.51v4.474
			c2.832,0.059,5.111,2.5,5.111,5.506c0,0.051-0.002,0.1-0.004,0.151c-0.075-2.779-2.323-5.015-5.107-5.07v0.071
			c2.832,0.056,5.111,2.367,5.111,5.212c0,2.845-2.279,5.157-5.111,5.212v3.514c2.832,0.059,5.111,2.5,5.111,5.506
			c0,0.051-0.002,0.1-0.004,0.151c-0.075-2.779-2.323-5.015-5.107-5.07v0.071c2.832,0.056,5.111,2.367,5.111,5.212
			c0,2.845-2.279,5.157-5.111,5.212V75.7c0,0-6.795,0-10.581-2.978C85.53,72.721,82.882,54.912,85.73,35.48z"/>
		<path class="st5" d="M85.53,72.721C89.317,75.7,96.111,75.7,96.111,75.7v-7.834c-0.035,0.001-0.069,0.003-0.104,0.003
			c-2.88,0-5.215-2.335-5.215-5.215c0-2.88,2.335-5.215,5.215-5.215c0.035,0,0.07,0.002,0.104,0.003v-0.071
			c-0.035-0.001-0.069-0.003-0.104-0.003c-2.832,0-5.136,2.258-5.211,5.072c-0.001-0.05-0.004-0.1-0.004-0.151
			c0-3.042,2.335-5.508,5.215-5.508c0.035,0,0.07,0.002,0.104,0.003V53.27c-0.035,0.001-0.069,0.003-0.104,0.003
			c-2.88,0-5.215-2.335-5.215-5.215c0-2.88,2.335-5.215,5.215-5.215c0.035,0,0.07,0.002,0.104,0.003v-0.071
			c-0.035-0.001-0.069-0.003-0.104-0.003c-2.832,0-5.136,2.258-5.211,5.072c-0.001-0.05-0.004-0.1-0.004-0.151
			c0-3.042,2.335-5.508,5.215-5.508c0.035,0,0.07,0.002,0.104,0.003v-4.474c0,0-2.388,0.064-5.606-0.51
			c-3.218-0.574-4.775-1.724-4.775-1.724C82.882,54.912,85.53,72.721,85.53,72.721z"/>
		<path class="st4" d="M90.792,48.058c0,2.88,2.335,5.215,5.215,5.215c0.035,0,0.07-0.002,0.104-0.003
			c2.832-0.056,5.111-2.367,5.111-5.212c0-2.845-2.279-5.157-5.111-5.212c-0.035-0.001-0.069-0.003-0.104-0.003
			C93.127,42.843,90.792,45.177,90.792,48.058z M99.967,46.898c0.095,0.347,0.147,0.711,0.147,1.088
			c0,2.268-1.839,4.107-4.107,4.107c-0.377,0-0.742-0.052-1.088-0.147L99.967,46.898z M99.225,45.438l-5.768,5.768
			c-0.19-0.151-0.367-0.318-0.528-0.5l5.796-5.796C98.907,45.071,99.074,45.247,99.225,45.438z M97.851,44.318l-5.513,5.513
			c-0.279-0.555-0.438-1.181-0.438-1.844c0-2.268,1.839-4.107,4.107-4.107C96.67,43.88,97.296,44.038,97.851,44.318z"/>
		<path class="st4" d="M90.792,62.654c0,2.88,2.335,5.215,5.215,5.215c0.035,0,0.07-0.002,0.104-0.003
			c2.832-0.056,5.111-2.367,5.111-5.212c0-2.845-2.279-5.157-5.111-5.212c-0.035-0.001-0.069-0.003-0.104-0.003
			C93.127,57.439,90.792,59.774,90.792,62.654z M99.967,61.494c0.095,0.347,0.147,0.711,0.147,1.088
			c0,2.268-1.839,4.107-4.107,4.107c-0.377,0-0.742-0.052-1.088-0.147L99.967,61.494z M99.225,60.034l-5.768,5.768
			c-0.19-0.151-0.367-0.318-0.528-0.5l5.796-5.796C98.907,59.667,99.074,59.843,99.225,60.034z M97.851,58.914l-5.513,5.513
			c-0.279-0.555-0.438-1.181-0.438-1.844c0-2.268,1.839-4.107,4.107-4.107C96.67,58.476,97.296,58.634,97.851,58.914z"/>
		<polygon class="st2" points="78.8,92.293 82.611,112.432 79.481,92.497 89.89,80.863 		"/>
		<polygon class="st2" points="101.985,80.863 112.395,92.497 109.265,112.432 113.075,92.293 		"/>
		<polygon class="st2" points="87.426,93.926 86.949,94.164 87.426,100.321 		"/>
		<polygon class="st2" points="105.149,94.164 104.673,93.926 104.673,100.321 		"/>
		<path class="st2" d="M91.329,90.694c0,0,1.599,0.782,4.797,0.782s4.558-0.782,4.558-0.782s-2.381,0.374-4.558,0.374
			C93.949,91.068,91.329,90.694,91.329,90.694z"/>
		<path class="st2" d="M83.788,78.307c0.37,2.1,0.827,4.052,1.392,5.686c0,0-0.752-3.32-1.518-9.438c0,0,0,0,0,0l-0.104-0.649
			c0.001,0.002,0.012,0.014,0.027,0.03c-0.304-2.502-0.607-5.442-0.861-8.788c-0.208-2.73-0.384-5.73-0.504-8.983
			C82.221,56.164,82.107,68.774,83.788,78.307z"/>
		<path class="st2" d="M109.809,56.164c-0.133,3.613-0.335,6.914-0.574,9.88c-0.924,11.497-2.386,17.949-2.386,17.949
			c0.564-1.63,1.02-3.577,1.39-5.673C109.923,68.785,109.809,56.164,109.809,56.164z"/>
		<path class="st5" d="M83.662,74.554C83.662,74.554,83.662,74.554,83.662,74.554c1.134,1.012,4.77,3.582,12.457,3.582
			c7.046,0,10.741-2.159,12.2-3.298l0.011-0.522c-1.195,0.994-4.874,3.43-12.211,3.43c-8.756,0-12.211-3.466-12.533-3.812
			c-0.015-0.016-0.026-0.028-0.027-0.03L83.662,74.554z"/>
		<path class="st5" d="M107.793,32.183C107.793,32.183,107.793,32.183,107.793,32.183l-0.078-0.45c0,0,0,0,0,0
			c-1.18,0.967-4.685,3.233-11.594,3.233c-7.574,0-10.986-2.723-11.78-3.471c-0.006-0.005-0.013-0.012-0.018-0.017l-0.063,0.478
			c0,0,0,0,0.001,0.001c1.105,0.978,4.576,3.399,11.861,3.399C102.898,35.357,106.426,33.262,107.793,32.183z"/>
		<path class="st6" d="M90.792,47.694c0,0.051,0.002,0.1,0.004,0.151c0.076-2.814,2.379-5.072,5.211-5.072
			c0.035,0,0.07,0.002,0.104,0.003c2.784,0.055,5.032,2.29,5.107,5.07c0.001-0.05,0.004-0.1,0.004-0.151
			c0-3.005-2.279-5.447-5.111-5.506c-0.035-0.001-0.069-0.003-0.104-0.003C93.127,42.185,90.792,44.651,90.792,47.694z"/>
		<path class="st2" d="M92.93,50.705c0.161,0.182,0.337,0.349,0.528,0.5l5.768-5.768c-0.151-0.19-0.318-0.367-0.5-0.528
			L92.93,50.705z"/>
		<path class="st2" d="M94.918,51.947c0.347,0.095,0.711,0.147,1.088,0.147c2.268,0,4.107-1.839,4.107-4.107
			c0-0.377-0.052-0.742-0.147-1.088L94.918,51.947z"/>
		<path class="st2" d="M91.9,47.987c0,0.663,0.158,1.289,0.438,1.844l5.513-5.513c-0.555-0.279-1.181-0.438-1.844-0.438
			C93.739,43.88,91.9,45.719,91.9,47.987z"/>
		<path class="st6" d="M90.792,62.29c0,0.051,0.002,0.1,0.004,0.151c0.076-2.814,2.379-5.072,5.211-5.072
			c0.035,0,0.07,0.002,0.104,0.003c2.784,0.055,5.032,2.29,5.107,5.07c0.001-0.05,0.004-0.1,0.004-0.151
			c0-3.005-2.279-5.447-5.111-5.506c-0.035-0.001-0.069-0.003-0.104-0.003C93.127,56.781,90.792,59.247,90.792,62.29z"/>
		<path class="st2" d="M92.93,65.301c0.161,0.182,0.337,0.349,0.528,0.5l5.768-5.768c-0.151-0.19-0.318-0.367-0.5-0.528
			L92.93,65.301z"/>
		<path class="st2" d="M94.918,66.543c0.347,0.095,0.711,0.147,1.088,0.147c2.268,0,4.107-1.839,4.107-4.107
			c0-0.377-0.052-0.742-0.147-1.088L94.918,66.543z"/>
		<path class="st2" d="M91.9,62.583c0,0.663,0.158,1.289,0.438,1.844l5.513-5.513c-0.555-0.279-1.181-0.438-1.844-0.438
			C93.739,58.476,91.9,60.315,91.9,62.583z"/>
		<path class="st2" d="M96.15,95.58c-2.624,0-5.782-0.655-5.782-0.655s1.927,1.147,5.782,1.147c3.855,0,5.495-1.147,5.495-1.147
			S98.775,95.58,96.15,95.58z"/>
		<path class="st5" d="M101.985,16.1c0,0-3.385-9.245-5.979-12.258c0,0-7.328,10.807-9.575,26.587c0,0,3.559,2.773,9.646,2.295
			V6.154C96.078,6.154,99.274,17.869,101.985,16.1z"/>
		<path class="st5" d="M107.59,54.005c0,11.716-0.74,19.654-0.74,19.654l0.431-0.287c0,0,1.05-11.237,1.05-19.399
			c0-8.161-1.481-17.342-1.481-17.342S107.59,42.289,107.59,54.005z"/>
		<polygon class="st2" points="84.878,95.081 83.919,95.714 84.592,95.668 83.894,96.239 84.592,96.153 83.87,96.765 84.593,96.638 
			83.845,97.29 84.593,97.123 83.82,97.815 84.594,97.609 83.795,98.341 84.608,98.09 83.779,98.866 84.608,98.579 83.756,99.392 
			84.611,99.064 83.732,99.917 84.614,99.549 83.709,100.443 84.618,100.034 83.686,100.968 84.622,100.519 83.662,101.494 
			84.626,101.004 83.639,102.019 84.63,101.489 83.616,102.545 84.631,101.976 83.591,103.07 84.632,102.462 83.565,103.596 
			84.634,102.947 83.539,104.121 84.636,103.431 83.514,104.647 84.638,103.916 83.488,105.172 84.641,104.4 83.462,105.698 
			84.644,104.884 83.436,106.223 84.647,105.368 83.41,106.749 84.65,105.852 83.384,107.274 84.653,106.335 83.358,107.8 
			84.634,106.836 83.325,108.325 84.656,107.299 83.3,108.851 84.661,107.782 83.275,109.376 84.667,108.264 83.251,109.902 
			84.672,108.747 83.226,110.427 84.678,109.229 83.201,110.952 84.684,109.71 83.176,111.478 84.69,110.192 83.152,112.003 
			85.285,110.145 		"/>
		<polygon class="st2" points="108.497,111.221 107.183,109.507 108.482,110.699 107.193,109.028 108.466,110.177 107.203,108.549 
			108.451,109.655 107.213,108.07 108.436,109.133 107.222,107.59 108.42,108.611 107.231,107.11 108.405,108.089 107.256,106.65 
			108.381,107.567 107.241,106.151 108.365,107.044 107.248,105.67 108.348,106.522 107.254,105.188 108.332,106 107.261,104.706 
			108.315,105.478 107.267,104.224 108.299,104.956 107.273,103.741 108.283,104.434 107.278,103.259 108.266,103.912 
			107.284,102.775 108.25,103.39 107.289,102.292 108.233,102.867 107.292,101.807 108.218,102.345 107.297,101.322 
			108.204,101.823 107.304,100.838 108.19,101.301 107.31,100.354 108.176,100.779 107.317,99.87 108.162,100.257 107.323,99.386 
			108.149,99.735 107.329,98.902 108.135,99.213 107.335,98.418 108.121,98.69 107.337,97.93 108.114,98.168 107.353,97.449 
			108.099,97.646 107.356,96.965 108.083,97.124 107.359,96.48 108.068,96.602 107.361,95.996 108.053,96.08 107.364,95.512 
			108.037,95.558 107.235,94.925 106.828,110.145 108.512,111.744 107.173,109.985 		"/>
		<path class="st5" d="M92.602,89.069c0.901,0,3.343,0,3.343,0v-9.077c-7.189-0.277-10.41-2.494-10.41-2.494
			c0.069,1.109,0.897,4.573,0.897,4.573c2.214-2.356,4.898-1.524,4.898-1.524L92.602,89.069z"/>
		<polygon class="st5" points="108.512,93.926 109.811,92.134 102.736,84.669 102.419,89.797 		"/>
		<polygon class="st0" points="90.502,178.289 95.633,174.564 100.763,178.289 98.742,172.225 103.853,168.558 97.587,168.558 
			95.633,162.667 93.679,168.558 87.413,168.558 92.524,172.225 		"/>
		<path class="st0" d="M183.213,159.269l-3.512-27.259c-0.206-1.362-0.741-2.607-1.59-3.688c-0.076-0.099-0.154-0.198-0.235-0.294
			c-0.016-0.019-0.033-0.039-0.049-0.058c-0.017-0.019-0.034-0.037-0.051-0.056c-1.26-1.385-2.838-2.125-4.451-2.124l-19.313-0.011
			c0.392-1.42,0.73-2.839,1.007-4.247c0.526-2.664,0.855-5.354,0.979-7.996c0.123-2.615,0.048-5.249-0.224-7.828l-0.323-3.071
			h-0.037l-6.09-58.184l-0.499-4.772l-4.353,2.017l-19.051,8.825l-16.242-6.983c0.095,1.246,0.174,2.524,0.238,3.836l16.056,6.903
			l20.441-9.469l6.412,61.257h0.039c0.064,0.604,0.116,1.208,0.156,1.815c0.041,0.606,0.07,1.214,0.087,1.823
			c0.017,0.609,0.023,1.219,0.018,1.831c-0.006,0.612-0.023,1.225-0.052,1.839c-0.073,1.549-0.22,3.107-0.44,4.671
			c-0.088,0.625-0.189,1.252-0.301,1.88c-0.056,0.314-0.115,0.628-0.177,0.942c-0.188,0.952-0.403,1.906-0.645,2.862
			c-0.173,0.681-0.361,1.364-0.561,2.047l-26.367-0.016l-0.273,0l-19.469-0.011h0l-3.456-0.002l-4.673-0.003l-1.704-0.001h0
			l-10.621-0.006l-0.946-0.001l-25.051-0.015l-0.137,0l-16.852-0.01c-0.39-1.342-0.724-2.68-1.007-4.015
			c-0.054-0.253-0.107-0.506-0.156-0.759c-0.177-0.899-0.329-1.797-0.457-2.692c-0.052-0.361-0.101-0.723-0.145-1.083
			c-0.042-0.343-0.079-0.686-0.114-1.028c-0.092-0.91-0.16-1.817-0.202-2.722c-0.115-2.468-0.044-4.918,0.212-7.345l3.236-30.729
			l3.236-30.729h0h37.26c0.08-1.172,0.173-2.314,0.278-3.43H45.499h-3.088l-0.323,3.071l-6.472,61.458
			c-0.273,2.592-0.349,5.238-0.227,7.864c0.124,2.653,0.453,5.354,0.979,8.028c0.268,1.363,0.591,2.736,0.966,4.11l-18.654-0.011
			c-1.659-0.001-3.252,0.757-4.493,2.174c-0.136,0.155-0.266,0.316-0.389,0.48c-0.808,1.047-1.318,2.245-1.516,3.55L8.785,159.05
			c-0.078,0.608-0.083,1.172-0.015,1.692c0.093,0.959,0.408,1.784,0.941,2.424c0.487,0.628,1.128,1.038,1.883,1.228l54.865,4.423
			c1.652,1.505,3.355,2.993,5.105,4.454c3.053,2.549,6.249,5.026,9.499,7.361c2.381,1.711,4.737,3.309,7.003,4.749
			c1.735,1.103,2.837,1.742,3.041,1.859l2.963,1.699l1.717,0.984l1.711-0.993l2.951-1.713c0.115-0.066,1.219-0.708,3.034-1.874
			c2.258-1.45,4.607-3.058,6.981-4.779c3.24-2.348,6.425-4.836,9.469-7.394c1.293-1.087,2.56-2.189,3.8-3.301l57.002-5.343
			c0.619-0.216,1.156-0.593,1.586-1.128c0.551-0.684,0.86-1.546,0.927-2.566C183.296,160.348,183.285,159.826,183.213,159.269z
			 M85.306,130.631c0.017-0.684,0.286-1.278,0.805-1.781c0.496-0.48,1.1-0.721,1.815-0.722c6.802-0.013,13.605-0.01,20.407,0.011
			c0.692,0.002,1.297,0.245,1.822,0.727c0.501,0.506,0.765,1.104,0.788,1.792c0.172,5.091,0.43,12.703,0.773,22.838
			c-1.195-0.046-2.987-0.112-5.377-0.173c-0.1-4.489-0.252-11.211-0.453-20.166c-1.143-0.008-2.869-0.02-5.178-0.028
			c0.049,4.473,0.12,11.169,0.216,20.092c-1.196-0.014-2.989-0.032-5.379-0.03c0.004-4.467,0.011-11.158,0.019-20.07
			c-1.143,0.001-2.869,0.002-5.178,0.011c-0.029,2.261-0.058,4.522-0.087,6.783c0,0-2.901,0.022-5.222,0.059
			C85.154,136.86,85.23,133.745,85.306,130.631z M27.802,155.786c-0.099,0.849-0.432,1.601-1.003,2.262
			c-0.598,0.694-1.257,1.108-1.977,1.235c-2.374,0.423-5.909,1.068-10.589,2.026c-0.74,0.152-1.32-0.043-1.738-0.596
			c-0.446-0.517-0.61-1.243-0.492-2.17c0.279-2.212,0.697-5.53,1.255-9.956c0.23-1.823,0.516-4.096,0.86-6.816
			c0.35-2.78,0.758-6.01,1.221-9.687c0.113-0.898,0.464-1.683,1.052-2.351c0.561-0.637,1.195-0.958,1.906-0.971
			c2.247-0.041,5.628-0.102,10.147-0.174c0.689-0.011,1.251,0.271,1.688,0.838c0.412,0.596,0.571,1.3,0.476,2.122
			c-0.158,1.37-0.393,3.396-0.704,6.08c-1.139,0.072-2.849,0.182-5.126,0.338c0.084-0.704,0.21-1.746,0.375-3.126
			c-1.134,0.058-2.846,0.146-5.135,0.273c-0.53,4.293-1.323,10.717-2.379,19.273c1.186-0.194,2.94-0.477,5.268-0.831
			c0.084-0.704,0.209-1.746,0.375-3.126c1.159-0.157,2.897-0.391,5.218-0.682C28.347,151.09,28.113,153.103,27.802,155.786z
			 M45.824,145.076c-0.239,2.477-0.599,6.202-1.08,11.178c-1.182,0.15-2.956,0.379-5.316,0.71c0.262-2.533,0.656-6.345,1.182-11.438
			c-1.159,0.105-2.907,0.266-5.244,0.498c-0.284,2.597-0.712,6.505-1.283,11.725c-1.179,0.182-2.946,0.458-5.299,0.851
			c0.306-2.666,0.765-6.677,1.379-12.036c0.152-1.333,0.381-3.332,0.687-5.998c0.153-1.333,0.344-3.005,0.575-5.018
			c0.231-2.013,0.499-4.352,0.804-7.018c4.232-0.064,8.465-0.121,12.699-0.172c0.689-0.008,1.258,0.252,1.712,0.777
			c0.428,0.55,0.607,1.202,0.534,1.959c-0.181,1.87-0.451,4.674-0.813,8.412c-0.074,0.757-0.383,1.43-0.931,2.021
			c-0.569,0.567-1.207,0.879-1.913,0.932c0.706-0.052,1.289,0.184,1.754,0.702C45.715,143.656,45.9,144.294,45.824,145.076z
			 M60.488,138.791c-0.174,2.347-0.305,4.108-0.392,5.281c-3.509,0.206-6.137,0.388-7.89,0.513c-0.21,2.414-0.37,4.235-0.477,5.466
			c4.713-0.429,8.247-0.687,10.596-0.85c-0.162,2.329-0.284,4.075-0.364,5.24c-4.746,0.4-8.312,0.776-10.705,1.04
			c-2.369,0.262-4.143,0.478-5.325,0.624c0.117-1.231,0.219-2.313,0.308-3.243c0.089-0.93,0.161-1.697,0.218-2.3
			c0.265-2.79,0.442-4.65,0.53-5.581c0.265-2.79,0.441-4.638,0.526-5.543c0.265-2.79,0.442-4.65,0.53-5.58
			c0.263-2.765,0.438-4.613,0.526-5.543c5.072-0.057,10.144-0.105,15.217-0.143c-0.182,2.614-0.304,4.361-0.364,5.24
			c-4.549,0.107-7.97,0.208-10.266,0.279c-0.211,2.413-0.37,4.235-0.477,5.466C56.149,138.979,58.752,138.865,60.488,138.791z
			 M65.997,154.123c-0.752,0.056-1.365-0.155-1.839-0.635c-0.5-0.455-0.723-1.05-0.674-1.785c0.174-2.604,0.394-5.87,0.658-9.799
			c0.264-3.929,0.571-8.509,0.922-13.741c1.125-0.008,2.811-0.02,5.062-0.034c-0.262,4.575-0.655,11.462-1.181,20.66
			c1.199-0.066,2.975-0.162,5.326-0.267c0.213-4.545,0.529-11.353,0.952-20.421c1.125-0.006,2.812-0.013,5.063-0.022
			c-0.16,4.482-0.401,11.227-0.722,20.236c1.201-0.04,2.976-0.097,5.331-0.15c0.028-1.164,0.038-1.574,0.042-1.7
			c-0.001,0.043,0.008-0.337,0.122-5.032c1.159-0.018,2.898-0.044,5.218-0.064c-0.039,3.061-0.078,6.121-0.117,9.182
			c-0.008,0.702-0.271,1.293-0.786,1.776c-0.541,0.507-1.176,0.767-1.905,0.782c-1.797,0.039-4.493,0.103-8.084,0.249
			C74.918,153.539,70.455,153.794,65.997,154.123z M117.726,170.545c-1.257,1.057-2.488,2.059-3.681,3.003
			c-0.795,0.63-1.574,1.234-2.332,1.813c-1.137,0.868-2.228,1.677-3.262,2.426c-0.867,0.628-1.692,1.214-2.469,1.754
			c-0.204,0.142-0.403,0.28-0.6,0.416c-0.164,0.113-0.326,0.224-0.486,0.333c-0.174,0.119-0.344,0.235-0.512,0.348
			c-0.479,0.324-0.935,0.629-1.363,0.912c-0.126,0.083-0.249,0.164-0.37,0.243c-0.363,0.238-0.704,0.459-1.022,0.664
			c-0.038,0.025-0.075,0.048-0.112,0.072c-0.133,0.085-0.263,0.168-0.388,0.247c-0.072,0.046-0.142,0.09-0.211,0.134
			c-0.623,0.394-1.128,0.704-1.497,0.927c-0.111,0.067-0.21,0.126-0.296,0.178c-0.059,0.035-0.11,0.065-0.157,0.093
			c-0.07,0.041-0.126,0.074-0.168,0.099c-0.033,0.019-0.059,0.035-0.075,0.044l-2.951,1.713l-2.96-1.697
			c-0.029-0.017-0.09-0.052-0.18-0.104c-0.041-0.024-0.091-0.053-0.145-0.085c-0.142-0.083-0.324-0.192-0.548-0.327
			c-0.124-0.074-0.259-0.157-0.407-0.247c-0.442-0.27-0.99-0.609-1.63-1.017c-0.851-0.541-1.866-1.202-3.016-1.977
			c-0.144-0.097-0.29-0.195-0.437-0.296c-0.296-0.201-0.6-0.409-0.911-0.624c-0.623-0.43-1.278-0.888-1.96-1.375
			c-0.171-0.121-0.343-0.245-0.517-0.37c-0.145-0.104-0.296-0.215-0.443-0.321c-1.256-0.909-2.588-1.898-3.984-2.975
			c-1.56-1.203-3.195-2.509-4.876-3.912c-0.416-0.348-0.835-0.701-1.257-1.061c-0.793-0.676-1.594-1.375-2.4-2.092
			c-0.426-0.379-0.853-0.763-1.281-1.153c2.538-3.092,9.292-7.887,26.775-7.887c17.291,0,23.79,5.155,26.196,8.555
			C120.421,168.24,119.059,169.424,117.726,170.545z M123.701,154.139c-0.133-2.299-0.333-5.76-0.601-10.381
			c-1.168-0.052-2.932-0.128-5.292-0.212c0.107,2.273,0.27,5.692,0.485,10.259c-1.194-0.066-2.985-0.16-5.374-0.261
			c-0.069-1.906-0.174-4.777-0.313-8.614c-0.058-1.584-0.129-3.56-0.215-5.926c-0.087-2.389-0.187-5.168-0.303-8.338
			c-0.025-0.689,0.208-1.284,0.697-1.788c0.466-0.48,1.056-0.72,1.771-0.717c2.259,0.01,5.66,0.027,10.202,0.059
			c0.692,0.004,1.307,0.258,1.848,0.761c0.519,0.527,0.805,1.149,0.853,1.863c0.359,5.282,0.894,13.182,1.608,23.698
			C127.875,154.446,126.087,154.303,123.701,154.139z M140.712,155.666c-2.694-0.298-4.493-0.475-5.392-0.562
			c-0.844-10.721-1.406-17.877-1.688-21.467c-2.563-0.07-4.276-0.11-5.138-0.132c-0.091-1.312-0.167-2.409-0.229-3.292
			c-0.061-0.882-0.107-1.539-0.137-1.968c7.654,0.061,12.746,0.119,15.282,0.148c0.235,2.474,0.412,4.329,0.529,5.566
			c-2.561-0.089-4.274-0.144-5.135-0.17C139.759,144.74,140.395,152.032,140.712,155.666z M152.752,157.187
			c-2.372-0.335-4.152-0.568-5.339-0.72c-0.12-1.243-0.226-2.335-0.317-3.274c-0.091-0.938-0.166-1.714-0.225-2.322
			c-0.272-2.818-0.455-4.695-0.546-5.635c-0.273-2.817-0.453-4.683-0.542-5.596c-0.273-2.817-0.455-4.695-0.546-5.635
			c-0.27-2.792-0.451-4.657-0.542-5.597c5.093,0.061,10.185,0.13,15.276,0.21c0.345,3.008,0.576,5.018,0.692,6.03
			c-4.557-0.215-7.99-0.356-10.293-0.448c0.264,2.546,0.463,4.468,0.597,5.766c3.478,0.23,6.085,0.423,7.823,0.554
			c0.297,2.645,0.52,4.628,0.668,5.95c-3.507-0.368-6.141-0.615-7.898-0.776c0.264,2.546,0.463,4.468,0.597,5.767
			c4.721,0.553,8.249,1.033,10.591,1.358c0.308,2.68,0.538,4.69,0.692,6.029C158.714,158.05,155.147,157.528,152.752,157.187z
			 M179.535,160.944c-0.444,0.55-1.027,0.744-1.746,0.596c-2.375-0.489-5.916-1.203-10.635-2.047
			c-0.748-0.133-1.41-0.549-1.985-1.242c-0.597-0.669-0.944-1.425-1.043-2.278c-0.156-1.347-0.39-3.367-0.702-6.061
			c1.165,0.147,2.913,0.371,5.241,0.689c0.081,0.679,0.207,1.725,0.377,3.138c1.193,0.183,2.958,0.456,5.291,0.84
			c-0.18-1.456-0.446-3.61-0.798-6.464c-1.747-0.225-4.358-0.555-7.837-0.957c-0.735-0.085-1.384-0.447-1.947-1.08
			c-0.591-0.663-0.935-1.416-1.033-2.269c-0.156-1.347-0.352-3.037-0.587-5.072c-0.235-2.034-0.509-4.398-0.821-7.092
			c-0.095-0.825,0.076-1.531,0.513-2.129c0.417-0.569,0.981-0.852,1.695-0.84c2.257,0.037,5.654,0.095,10.19,0.18
			c0.691,0.013,1.329,0.335,1.914,0.976c0.567,0.67,0.908,1.459,1.021,2.36c0.189,1.501,0.469,3.722,0.84,6.664
			c-1.142-0.091-2.855-0.225-5.14-0.395c-0.09-0.728-0.223-1.805-0.399-3.232c-1.138-0.063-2.856-0.158-5.157-0.277
			c0.167,1.385,0.416,3.477,0.753,6.276c1.735,0.15,4.336,0.378,7.801,0.71c0.702,0.067,1.35,0.438,1.944,1.119
			c0.575,0.708,0.92,1.517,1.033,2.418c0.375,2.972,0.933,7.401,1.675,13.283C180.112,159.69,179.959,160.42,179.535,160.944z"/>
		<path class="st0" d="M41.793,134.089c-1.136,0.044-2.85,0.113-5.144,0.211c-0.142,1.298-0.357,3.259-0.644,5.882
			c1.17-0.084,2.899-0.205,5.194-0.355c0.024-0.232,0.059-0.568,0.104-1.008C41.414,137.759,41.577,136.183,41.793,134.089z"/>
		<path class="st0" d="M84.936,146.434c0,0.004,0,0.007,0,0.011C84.936,146.441,84.936,146.437,84.936,146.434z"/>
		<path class="st0" d="M122.499,133.377c-1.142-0.022-2.868-0.054-5.176-0.09c0.054,1.136,0.135,2.852,0.244,5.147
			c1.179,0.03,2.923,0.078,5.234,0.152c-0.012-0.211-0.03-0.516-0.053-0.915C122.692,136.708,122.609,135.277,122.499,133.377z"/>
		<path class="st0" d="M84.937,146.418c0,0.001,0,0.003,0,0.005C84.937,146.421,84.937,146.42,84.937,146.418z"/>
		<path class="st7" d="M22.908,153.556c-2.329,0.355-4.083,0.638-5.269,0.831c1.056-8.556,1.849-14.981,2.379-19.273
			c2.289-0.126,4.001-0.214,5.135-0.273c-0.165,1.38-0.291,2.422-0.375,3.126c2.277-0.156,3.987-0.266,5.126-0.338
			c0.311-2.684,0.546-4.71,0.704-6.08c0.095-0.822-0.065-1.526-0.476-2.122c-0.438-0.567-1-0.849-1.688-0.838
			c-4.518,0.073-7.9,0.133-10.147,0.174c-0.711,0.012-1.345,0.334-1.906,0.971c-0.588,0.668-0.939,1.453-1.052,2.351
			c-0.464,3.677-0.871,6.907-1.222,9.687c-0.343,2.72-0.63,4.993-0.86,6.816c-0.559,4.426-0.977,7.744-1.255,9.956
			c-0.117,0.927,0.046,1.653,0.492,2.17c0.418,0.552,0.998,0.748,1.738,0.596c4.68-0.958,8.215-1.603,10.589-2.026
			c0.719-0.128,1.379-0.541,1.977-1.235c0.57-0.662,0.904-1.414,1.002-2.263c0.311-2.684,0.544-4.697,0.699-6.039
			c-2.322,0.291-4.059,0.525-5.218,0.682C23.118,151.81,22.993,152.852,22.908,153.556z"/>
		<path class="st7" d="M45.272,143.161c-0.464-0.518-1.048-0.754-1.754-0.702c0.706-0.053,1.344-0.365,1.913-0.932
			c0.548-0.59,0.857-1.263,0.931-2.02c0.361-3.738,0.632-6.542,0.813-8.412c0.073-0.758-0.106-1.409-0.534-1.959
			c-0.454-0.525-1.023-0.785-1.712-0.777c-4.234,0.051-8.467,0.109-12.699,0.172c-0.306,2.666-0.573,5.005-0.804,7.018
			c-0.231,2.013-0.422,3.686-0.575,5.018c-0.306,2.666-0.535,4.665-0.687,5.998c-0.614,5.359-1.074,9.371-1.379,12.036
			c2.354-0.393,4.12-0.669,5.299-0.851c0.571-5.22,0.999-9.128,1.283-11.725c2.337-0.232,4.085-0.393,5.244-0.498
			c-0.527,5.093-0.92,8.905-1.183,11.438c2.361-0.331,4.134-0.56,5.316-0.71c0.481-4.976,0.841-8.701,1.08-11.178
			C45.9,144.294,45.715,143.656,45.272,143.161z M41.2,139.827c-2.295,0.15-4.024,0.272-5.194,0.355
			c0.287-2.623,0.501-4.584,0.644-5.882c2.293-0.098,4.008-0.167,5.144-0.211c-0.217,2.094-0.38,3.67-0.489,4.73
			C41.259,139.258,41.224,139.595,41.2,139.827z"/>
		<path class="st7" d="M61.961,154.441c0.081-1.164,0.203-2.911,0.364-5.239c-2.348,0.164-5.883,0.422-10.596,0.85
			c0.107-1.231,0.267-3.052,0.477-5.466c1.752-0.125,4.381-0.307,7.89-0.513c0.087-1.173,0.218-2.934,0.392-5.282
			c-1.736,0.074-4.339,0.187-7.808,0.366c0.107-1.231,0.266-3.053,0.477-5.466c2.296-0.071,5.717-0.172,10.266-0.279
			c0.061-0.879,0.183-2.625,0.364-5.24c-5.073,0.039-10.146,0.086-15.217,0.143c-0.088,0.93-0.264,2.778-0.526,5.543
			c-0.088,0.93-0.265,2.79-0.53,5.58c-0.086,0.905-0.262,2.752-0.526,5.543c-0.088,0.931-0.265,2.79-0.53,5.581
			c-0.057,0.603-0.13,1.37-0.218,2.3c-0.089,0.93-0.191,2.012-0.308,3.243c1.182-0.146,2.956-0.362,5.325-0.624
			C53.649,155.218,57.215,154.841,61.961,154.441z"/>
		<path class="st7" d="M84.936,146.464c-0.003,0.127-0.013,0.536-0.041,1.7c-2.354,0.054-4.13,0.11-5.331,0.15
			c0.321-9.009,0.562-15.754,0.722-20.236c-2.25,0.009-3.938,0.016-5.063,0.022c-0.423,9.068-0.739,15.876-0.952,20.421
			c-2.352,0.105-4.127,0.2-5.326,0.267c0.526-9.198,0.92-16.085,1.181-20.66c-2.251,0.014-3.937,0.026-5.062,0.034
			c-0.351,5.232-0.659,9.812-0.922,13.741c-0.264,3.929-0.484,7.195-0.658,9.8c-0.049,0.734,0.175,1.329,0.674,1.785
			c0.474,0.481,1.087,0.691,1.839,0.636c4.459-0.329,8.922-0.585,13.387-0.767c3.591-0.146,6.286-0.211,8.084-0.249
			c0.728-0.015,1.364-0.275,1.905-0.782c0.516-0.483,0.778-1.074,0.786-1.776c0.039-3.061,0.078-6.121,0.117-9.182
			c-2.32,0.02-4.059,0.046-5.218,0.064C84.944,146.127,84.934,146.507,84.936,146.464z M84.936,146.445c0-0.004,0-0.007,0-0.011
			C84.936,146.437,84.936,146.441,84.936,146.445z M84.937,146.423c0-0.002,0-0.003,0-0.005
			C84.937,146.42,84.937,146.421,84.937,146.423z"/>
		<path class="st7" d="M110.155,128.866c-0.524-0.483-1.13-0.725-1.822-0.727c-6.802-0.021-13.605-0.024-20.407-0.011
			c-0.715,0.001-1.319,0.242-1.815,0.722c-0.52,0.503-0.789,1.097-0.805,1.781c-0.076,3.114-0.152,6.229-0.227,9.343
			c2.321-0.036,5.222-0.059,5.222-0.059c0.029-2.261,0.058-4.522,0.087-6.783c2.309-0.009,4.035-0.011,5.178-0.011
			c-0.009,8.912-0.015,15.603-0.019,20.07c2.39-0.002,4.183,0.015,5.379,0.03c-0.096-8.922-0.168-15.619-0.216-20.092
			c2.309,0.008,4.035,0.019,5.178,0.028c0.201,8.955,0.353,15.678,0.453,20.166c2.39,0.061,4.182,0.127,5.377,0.173
			c-0.342-10.135-0.601-17.747-0.773-22.838C110.92,129.969,110.656,129.372,110.155,128.866z"/>
		<path class="st7" d="M123.701,154.139c2.386,0.164,4.174,0.307,5.366,0.404c-0.714-10.516-1.249-18.417-1.608-23.698
			c-0.048-0.714-0.334-1.336-0.853-1.863c-0.541-0.503-1.156-0.757-1.848-0.761c-4.542-0.032-7.943-0.048-10.202-0.059
			c-0.715-0.003-1.305,0.236-1.771,0.717c-0.489,0.503-0.722,1.099-0.697,1.788c0.116,3.17,0.216,5.949,0.303,8.338
			c0.086,2.366,0.158,4.342,0.215,5.926c0.14,3.837,0.244,6.707,0.313,8.614c2.389,0.101,4.179,0.195,5.374,0.261
			c-0.216-4.567-0.378-7.987-0.485-10.259c2.36,0.084,4.124,0.16,5.292,0.212C123.368,148.38,123.568,151.84,123.701,154.139z
			 M117.567,138.433c-0.109-2.295-0.19-4.011-0.244-5.147c2.309,0.036,4.034,0.068,5.176,0.09c0.11,1.9,0.193,3.332,0.249,4.293
			c0.023,0.4,0.041,0.704,0.053,0.915C120.49,138.511,118.745,138.464,117.567,138.433z"/>
		<path class="st7" d="M138.804,133.789c0.861,0.027,2.574,0.081,5.135,0.17c-0.117-1.236-0.294-3.091-0.529-5.566
			c-2.536-0.029-7.628-0.087-15.282-0.148c0.03,0.429,0.075,1.086,0.137,1.968c0.061,0.883,0.138,1.98,0.229,3.292
			c0.862,0.021,2.575,0.062,5.138,0.132c0.283,3.59,0.845,10.746,1.688,21.467c0.899,0.088,2.697,0.264,5.392,0.562
			C140.395,152.032,139.759,144.741,138.804,133.789z"/>
		<path class="st7" d="M152.158,151.46c-0.134-1.298-0.334-3.221-0.597-5.767c1.756,0.161,4.39,0.409,7.898,0.776
			c-0.149-1.322-0.371-3.305-0.668-5.95c-1.737-0.131-4.344-0.324-7.822-0.554c-0.135-1.299-0.333-3.22-0.598-5.766
			c2.304,0.092,5.736,0.233,10.293,0.448c-0.116-1.011-0.347-3.021-0.692-6.03c-5.091-0.079-10.183-0.149-15.275-0.21
			c0.091,0.94,0.272,2.805,0.542,5.597c0.091,0.939,0.273,2.817,0.546,5.634c0.088,0.914,0.269,2.779,0.542,5.596
			c0.091,0.939,0.274,2.817,0.546,5.635c0.059,0.608,0.134,1.384,0.225,2.322c0.091,0.939,0.197,2.031,0.317,3.274
			c1.187,0.152,2.967,0.384,5.339,0.72c2.395,0.341,5.962,0.862,10.69,1.66c-0.154-1.339-0.385-3.349-0.692-6.029
			C160.407,152.492,156.88,152.013,152.158,151.46z"/>
		<path class="st7" d="M178.319,145.475c-0.113-0.901-0.459-1.71-1.033-2.418c-0.594-0.681-1.242-1.052-1.944-1.119
			c-3.465-0.332-6.066-0.56-7.801-0.71c-0.336-2.799-0.586-4.891-0.753-6.276c2.3,0.119,4.018,0.214,5.157,0.277
			c0.176,1.427,0.309,2.504,0.399,3.232c2.285,0.17,3.998,0.304,5.14,0.395c-0.371-2.942-0.651-5.163-0.84-6.664
			c-0.113-0.901-0.455-1.69-1.021-2.36c-0.585-0.641-1.223-0.963-1.914-0.976c-4.536-0.086-7.932-0.143-10.189-0.18
			c-0.714-0.012-1.278,0.271-1.695,0.84c-0.437,0.597-0.608,1.304-0.513,2.129c0.312,2.694,0.586,5.058,0.821,7.092
			c0.235,2.035,0.431,3.725,0.587,5.072c0.098,0.853,0.442,1.606,1.033,2.269c0.564,0.633,1.213,0.995,1.947,1.08
			c3.478,0.402,6.089,0.732,7.837,0.957c0.352,2.854,0.618,5.009,0.798,6.465c-2.334-0.384-4.099-0.657-5.292-0.84
			c-0.17-1.413-0.295-2.459-0.376-3.138c-2.328-0.318-4.076-0.542-5.241-0.689c0.312,2.694,0.546,4.715,0.701,6.061
			c0.099,0.852,0.445,1.609,1.043,2.278c0.576,0.693,1.238,1.109,1.985,1.242c4.72,0.845,8.261,1.558,10.636,2.047
			c0.719,0.149,1.302-0.046,1.746-0.596c0.424-0.524,0.576-1.254,0.459-2.186C179.252,152.875,178.694,148.447,178.319,145.475z"/>
	</g>
	<path class="st1" d="M96.007,2.553c0,0,7.979,8.037,11.708,29.181c0,0,0,0,0,0l0.078,0.449c0,0,0,0-0.001,0
		c0.591,3.437,1.07,7.216,1.385,11.357l16.242,6.983l19.051-8.825l4.353-2.017l0.499,4.772l6.09,58.184h0.037l0.323,3.071
		c0.272,2.579,0.347,5.212,0.224,7.828c-0.124,2.641-0.454,5.331-0.98,7.996c-0.278,1.408-0.615,2.827-1.007,4.247l19.313,0.011
		c0.001,0,0.001,0,0.002,0c1.611,0,3.189,0.74,4.449,2.124c0.017,0.019,0.034,0.037,0.051,0.056
		c0.016,0.019,0.032,0.039,0.049,0.058c0.081,0.097,0.159,0.195,0.235,0.294c0.85,1.081,1.384,2.326,1.59,3.687l3.512,27.259
		c0.072,0.558,0.082,1.079,0.034,1.564c-0.067,1.019-0.375,1.882-0.926,2.566c-0.429,0.535-0.967,0.911-1.586,1.128l-57.002,5.343
		c-1.241,1.112-2.507,2.214-3.8,3.301c-3.043,2.559-6.229,5.047-9.469,7.394c-2.375,1.721-4.723,3.329-6.981,4.779
		c-1.815,1.165-2.919,1.807-3.034,1.874l-2.951,1.713l-1.711,0.993l-1.717-0.984l-2.963-1.699c-0.203-0.117-1.305-0.756-3.041-1.859
		c-2.266-1.44-4.622-3.038-7.003-4.749c-3.25-2.335-6.446-4.812-9.499-7.361c-1.75-1.461-3.453-2.949-5.105-4.454l-54.865-4.423
		c-0.754-0.19-1.395-0.6-1.883-1.228c-0.533-0.64-0.848-1.465-0.941-2.424c-0.068-0.52-0.063-1.085,0.015-1.692l3.498-27.148
		c0.198-1.306,0.708-2.503,1.516-3.55c0.123-0.164,0.253-0.325,0.389-0.48c1.24-1.417,2.831-2.174,4.489-2.174
		c0.001,0,0.002,0,0.003,0l18.654,0.011c-0.375-1.374-0.698-2.747-0.966-4.11c-0.526-2.674-0.856-5.375-0.979-8.028
		c-0.122-2.627-0.046-5.273,0.227-7.864l6.472-61.458l0.323-3.071h3.088h37.538c0.312-3.316,0.729-6.386,1.223-9.222
		c0,0,0,0-0.001-0.001l0.063-0.478c0.006,0.005,0.013,0.012,0.018,0.017C88.088,10.53,96.007,2.553,96.007,2.553 M82.54,31.243
		l-0.061,0.46c-0.429,2.469-0.787,5.045-1.069,7.678H45.499h-3.088h-1.619l-0.17,1.61L40.3,44.062l-6.472,61.458
		c-0.282,2.682-0.361,5.419-0.235,8.136c0.128,2.741,0.468,5.531,1.011,8.291c0.128,0.649,0.269,1.305,0.421,1.963l-16.344-0.01
		c-2.199,0-4.274,0.99-5.847,2.788c-0.16,0.182-0.317,0.376-0.466,0.574c-0.992,1.289-1.619,2.759-1.863,4.371l-0.003,0.02
		l-0.003,0.02L7.002,158.82c-0.096,0.745-0.102,1.46-0.018,2.125c0.132,1.314,0.578,2.44,1.327,3.349
		c0.723,0.921,1.706,1.558,2.845,1.845l0.145,0.036l0.149,0.012l54.254,4.374c1.545,1.397,3.126,2.771,4.707,4.091
		c3.087,2.577,6.317,5.081,9.603,7.441c2.408,1.731,4.793,3.348,7.087,4.806c1.766,1.123,2.9,1.78,3.109,1.901l2.965,1.7
		l1.717,0.984l0.9,0.516l0.897-0.521l1.711-0.993l2.951-1.713c0.12-0.069,1.251-0.727,3.103-1.916
		c2.287-1.468,4.663-3.095,7.065-4.836c3.274-2.373,6.494-4.888,9.571-7.474c1.124-0.945,2.265-1.933,3.4-2.942l56.413-5.288
		l0.219-0.02l0.207-0.072c0.95-0.332,1.755-0.904,2.394-1.7c0.777-0.964,1.221-2.157,1.317-3.543
		c0.058-0.613,0.044-1.266-0.043-1.942l-3.512-27.259l-0.003-0.019l-0.003-0.019c-0.253-1.676-0.909-3.197-1.948-4.522
		c-0.102-0.132-0.19-0.243-0.279-0.348l-0.009-0.011l-0.038-0.045l-0.026-0.031l-0.027-0.03l-0.021-0.023l-0.028-0.031
		c-1.589-1.746-3.641-2.709-5.776-2.709l-17-0.01c0.167-0.707,0.319-1.409,0.456-2.102c0.543-2.751,0.883-5.53,1.012-8.259
		c0.127-2.706,0.049-5.432-0.232-8.101l-0.323-3.071l-0.17-1.61h-0.036l-5.922-56.573l-0.499-4.772l-0.262-2.502l-2.283,1.057
		l-4.353,2.017l-18.323,8.488l-14.509-6.237c-0.273-3.242-0.659-6.405-1.15-9.429l0.007-0.006l-0.176-1.008l-0.078-0.449
		l-0.504-2.89l-0.041,0.031C104.981,9.225,97.61,1.614,97.283,1.286L96.007,0l0,0l-1.276,1.286
		C94.409,1.61,87.193,9.06,83.202,27.938L82.54,31.243z"/>
</g>
</svg>
