<svg width="64" height="64" viewBox="0 0 64 64" fill="none" xmlns="http://www.w3.org/2000/svg">
<g clip-path="url(#clip0_943_1827)">
<path fill-rule="evenodd" clip-rule="evenodd" d="M55.364 8.60658H49.7071L19.2878 39.0259L15.7523 35.4903L15.753 38.318L25.6525 48.2175L28.4802 48.2183L24.9447 44.6827L55.364 14.2634L55.364 8.60658ZM13.6439 57.3977L6.57434 57.3962L6.57282 50.3267L13.6439 57.3977ZM11.5233 55.2756L20.7157 46.0832L17.8873 43.2548L8.69491 52.4472L11.5233 55.2756Z" fill="white"/>
<path fill-rule="evenodd" clip-rule="evenodd" d="M5.94346 13.1541L5.15941 8.60664L3.68213 11.3412C-0.15723 18.4481 2.19307 27.3154 9.0485 31.5876L10.4557 30.8668C14.2737 28.9113 18.5614 28.059 22.8371 28.4056L16.6499 22.2184L13.9688 22.5037C12.0935 22.7032 11.0095 20.4342 12.343 19.1007L14.3518 17.0919L33.4437 36.1838L36.2721 33.3554L17.1802 14.2635L23.1906 8.25309H17.5338L13.9982 11.7886L8.69494 8.60664L11.8769 13.9099L11.0212 14.7657C9.30115 16.4857 6.35675 15.5512 5.94346 13.1541ZM41.2356 48.2183L43.3569 46.097L34.8579 37.598L37.6863 34.7696L46.1853 43.2686L48.3066 41.1473L48.3059 43.9749L44.0632 48.2176L41.2356 48.2183ZM52.5363 55.2765L50.415 57.3978L57.4846 57.3963L57.4861 50.3267L55.3648 52.448L49 46.0833L46.1716 48.9117L52.5363 55.2765Z" fill="white"/>
</g>
<defs>
<clipPath id="clip0_943_1827">
<rect width="64" height="64" fill="white"/>
</clipPath>
</defs>
</svg>
