<?xml version="1.0" encoding="utf-8"?>
<!-- Generator: Adobe Illustrator 21.0.0, SVG Export Plug-In . SVG Version: 6.00 Build 0)  -->
<svg version="1.1" id="Layer_1" xmlns="http://www.w3.org/2000/svg" xmlns:xlink="http://www.w3.org/1999/xlink" x="0px" y="0px"
	 viewBox="0 0 192 192" style="enable-background:new 0 0 192 192;" xml:space="preserve">
<style type="text/css">
	.st0{fill:#FFFFFF;}
	.st1{fill:#FFF100;}
</style>
<g>
	<g>
		<path d="M186.9,24c3.3,2.7,3.7,6.7,3.7,9.9c0,0.9,0,1.6,0,2.3c0,3.5,0,13.3,0,13.3v15.6v10.2c0,0,0,11.8,0,16.1c0,2,0,4,0,6.5
			c0,3.5-0.6,7-2.1,9.8c-2,3.7-5.7,6.1-9.6,7.5c-54.7,18.6-104.6,35.9-159.3,54.5c-2.6,1-5.1,1.5-8.1,1c-2.4-0.5-4.6-1.6-6.1-3.5
			c-3.4-3.8-3.9-7.3-4-11.2c0-2.8,0-10.8,0-10.8l0-12.9l0-24.8c0,0,0-6.5,0-9.7c0-4.3,0.1-10.3,2.6-13.9c2.5-3.6,6.7-6,10.8-7.4
			c55.1-18,93.6-32.7,148.7-50.7c4.9-1.5,4.1-1.3,6.7-2.2C176.5,21.4,180.9,19.1,186.9,24z"/>
		<path class="st0" d="M13.9,172.3c-0.8,0-1.7-0.1-2.6-0.2c-2.9-0.6-5.3-2-6.9-3.9c-3.8-4.3-4.2-8.3-4.3-12.1c0-2.9,0-10.8,0-10.8
			l0-12.9l0-24.8c0,0,0-6.5,0-9.7C0,92.3,0.3,86.7,2.8,83c2.9-4.2,7.8-6.6,11.4-7.9c27.5-9,51.3-17.3,74.2-25.3
			c23-8.1,46.9-16.4,74.5-25.4c4.1-1.3,4.2-1.3,5.7-1.8l1-0.3c0.6-0.2,1.2-0.4,1.7-0.6c5.5-1.9,10.3-3.6,16.3,1.3l0,0
			c3.7,3,4.2,7.4,4.2,10.9c0,0.9,0,1.6,0,2.3c0,3.5,0,13.2,0,13.3v25.8c0,0.1,0,11.9,0,16.1l0,1.2c0,1.6,0,3.3,0,5.2
			c0,4.2-0.8,7.7-2.3,10.5c-2.4,4.5-7,6.9-10.3,8.1c-27.4,9.3-54.1,18.5-79.9,27.3C73.8,152.6,47.3,161.7,20,171
			C18.3,171.6,16.2,172.3,13.9,172.3z M179.5,22.5c-2.2,0-4.5,0.8-7.2,1.7c-0.6,0.2-1.1,0.4-1.7,0.6l-1,0.3
			c-1.6,0.5-1.6,0.5-5.8,1.8c-27.6,9-51.4,17.3-74.4,25.4c-23,8-46.7,16.3-74.3,25.3c-3.2,1.1-7.6,3.2-10.1,6.9
			c-2.4,3.5-2.4,10-2.3,13.1c0,3.3,0,9.7,0,9.7l0,24.8l0,12.9c0,0,0,8,0,10.8c0.1,4.1,0.7,7.1,3.6,10.3c1.3,1.5,3.1,2.6,5.4,3
			c2.9,0.5,5.2-0.1,7.4-0.9c27.3-9.3,53.8-18.4,79.5-27.2c25.8-8.8,52.4-18,79.9-27.3c2.9-1,6.8-3,8.8-6.8c1.3-2.3,1.9-5.4,2-9.2
			c0-1.9,0-3.6,0-5.2l0-1.3c0-4.3,0-16,0-16.1V49.6c0-0.1,0-9.8,0-13.3c0-0.7,0-1.4,0-2.3c0-3.1-0.4-6.5-3.2-8.9
			C183.7,23.2,181.6,22.5,179.5,22.5z"/>
	</g>
	<g>
		<path class="st1" d="M153.1,41c9.1-3.1,17.2-5.8,26.3-8.9c0.4-0.1,0.5,0,0.5,0.3c0,0.4,0,1.7,0,1.7V40v8.8v16.1c0,0,0,12.5,0,17.8
			c0,9.3,0,15.8,0,15.8s0,4.1,0,6.2c0,0.1-0.1,0.2-0.3,0.3c-8.7,2.9-17.4,5.9-26.2,8.8c-0.2,0.1-0.4-0.1-0.4-0.3
			c0-4.7,0-14.2,0-14.2V75.5V44.4C153.1,44.4,153.1,41.9,153.1,41z"/>
	</g>
	<g>
		<path class="st1" d="M148.5,42.4c0.3-0.1,0.8,0.2,0.8,0.5c0,2.6,0,8.5,0,8.5V99c0,0-0.1,4.8,0,8.2c0,1.1,0,2.1,0,2.9
			c0,0.3-0.3,0.4-0.4,0.1c-8.8-11.4-17.7-22.8-26.5-34.1c-0.1-0.2-0.4-0.4-0.4-0.7c0-8,0-15.9,0-23.9c0-0.1,0.1-0.2,0.2-0.3
			C130.9,48.3,139.8,45.4,148.5,42.4z"/>
	</g>
	<g>
		<path class="st1" d="M92.4,61.5c3.9-1.3,7.1-2.4,11-3.7c0.3-0.1,0.4,0.2,0.6,0.4c14.6,18.8,29.2,37.6,43.9,56.5
			c0.1,0.2,0.4,0.4,0.3,0.7c-8.8,3-17.6,6-26.5,9c-0.1,0.1-0.3,0.1-0.4-0.1c-2.6-3.4-5.1-6.8-7.7-10.2c-7.1,2.4-14.2,4.8-21.3,7.2
			c-0.2,0.1-0.4-0.1-0.4-0.3c0-4.6,0-9,0-13.5c0-0.4,0.1-0.5,0.5-0.6c4.3-1.5,8.1-2.8,12.4-4.3c-4.4-5.9-8.2-11-12.6-16.8
			c-0.3-0.5-0.3-0.5-0.3-0.6c0-0.3,0-1.4,0-1.4v-2.9v-7.4c0,0,0-2.3,0-3.4c0-2.3,0-4.1,0-6.4c0-0.4,0-1.1,0-1.5
			C92.1,61.6,92.2,61.6,92.4,61.5z"/>
	</g>
	<g>
		<path class="st1" d="M87.6,63.3c0.7-0.2,1.1,0.1,1.1,0.6c0,2.5,0,6.2,0,6.2s0,5.6,0,13.6c0,3.4,0,11.7,0,11.7s0,2.6,0,3.9
			c0,5.2,0,15.8,0,15.8s0,4.5,0,6.6c0,3.6,0,6.7,0,9.8c0,0.3-0.4,0.3-0.5,0.1c-8.7-11.1-17.4-22.2-26.1-33.3c0-0.6,0-2.1,0-2.1
			l0-7.6c0,0,0-5.4,0-8c0-1.3,0-4.7,0-4.7l0-1.1c0,0,0-1.3,0-1.9c0-0.8,0-0.8,0.3-1C71.1,68.8,79,66.2,87.6,63.3z"/>
	</g>
	<g>
		<path class="st1" d="M39.2,79.8c0.2-0.1,0.4,0.1,0.4,0.3c-0.1,23.9,0.1,47.4,0,71.3c0,0.3,0.1,1.1-0.5,1.3
			c-8.8,3-17.3,5.9-26.1,8.8c-0.6,0.2-0.6-0.2-0.6-0.5c0-1.7,0-5.1,0-5.1v-51.4l0-12.6c0,0,0-1.8,0-2.5c0-0.5,0.2-0.7,0.5-0.8
			C22,85.7,30.1,82.9,39.2,79.8z"/>
	</g>
	<g>
		<path class="st1" d="M43.1,80.4c0.1-0.1,0.3,0,0.4,0.1c14.5,18.5,29.1,37,43.6,55.4c0.2,0.1,0.1,0.4-0.1,0.5
			c-8.7,3-17.5,5.9-26.2,8.9c-0.3,0.1-0.4-0.2-0.6-0.4c-5.6-7.3-11.2-14.6-16.9-22c-0.1-0.2-0.3-0.3-0.3-0.5c0-13.9,0-27.9,0-41.8
			C43.1,80.6,43.1,80.5,43.1,80.4z"/>
	</g>
</g>
</svg>
