<?xml version="1.0" encoding="utf-8"?>
<!-- Generator: Adobe Illustrator 23.0.1, SVG Export Plug-In . SVG Version: 6.00 Build 0)  -->
<svg version="1.1" id="图层_1" xmlns="http://www.w3.org/2000/svg" xmlns:xlink="http://www.w3.org/1999/xlink" x="0px" y="0px"
	 viewBox="0 0 192 192" style="enable-background:new 0 0 192 192;" xml:space="preserve">
<style type="text/css">
	.st0{fill-rule:evenodd;clip-rule:evenodd;fill:#65C6E8;}
	.st1{fill-rule:evenodd;clip-rule:evenodd;fill:#1A1B1B;}
	.st2{fill:#4FC0E2;}
	.st3{fill:#303030;}
	.st4{fill:#1A1B1B;}
	.st5{fill:#040000;}
	.st6{fill:#596774;}
	.st7{fill:#AAAAAB;}
	.st8{clip-path:url(#SVGID_2_);}
	.st9{clip-path:url(#SVGID_4_);}
	.st10{clip-path:url(#SVGID_6_);}
	.st11{fill-rule:evenodd;clip-rule:evenodd;fill:#596774;}
	.st12{fill:#1A2232;}
	.st13{clip-path:url(#SVGID_8_);}
	.st14{clip-path:url(#SVGID_10_);}
	.st15{fill-rule:evenodd;clip-rule:evenodd;fill:#AAAAAB;}
	.st16{clip-path:url(#SVGID_12_);}
	.st17{fill:#FFFFFF;}
	.st18{fill:#1496B3;}
	.st19{fill:#FBFDFF;}
	.st20{fill-rule:evenodd;clip-rule:evenodd;fill:#EBBC47;}
	.st21{clip-path:url(#SVGID_14_);}
	.st22{fill-rule:evenodd;clip-rule:evenodd;fill:#FCEDCA;}
	.st23{clip-path:url(#SVGID_16_);}
	.st24{fill-rule:evenodd;clip-rule:evenodd;fill:#DE7A2B;}
	.st25{fill:#DE7A2B;}
	.st26{fill:#B42523;}
	.st27{clip-path:url(#SVGID_18_);}
	.st28{fill:#8B1E21;}
	.st29{fill:#FBDCDC;}
	.st30{fill:none;}
</style>
<g>
	<path class="st0" d="M49.2,43.17c0.03-0.9-0.57-2.2-1.54-1.65c-0.21,0.27-0.43,0.53-0.64,0.8c-0.04,0-0.07,0-0.11,0
		c-0.02-0.05-0.04-0.11-0.05-0.16c-0.72-1.04,0.11-2.75,1.54-2.39c1.02,0.25,1.8,1.22,2.23,2.08c1.14,2.28-0.27,8.07-2.77,5.21
		c0.02-1.05,0.74-1.35,1.01-2.13c0.24-0.7-0.31-1.03-0.21-1.65c0.05-0.02,0.11-0.04,0.16-0.05C48.95,43.21,49.07,43.19,49.2,43.17z
		 M113.6,31.81c0.52-0.01,0.78,0.35,1.12,0.54c0.82,0.45,1.19,0.55,1.68,1.37c0.83,1.41,0.39,3.44-0.4,4.5
		c-0.6,0.81-2.05,0.78-2.67,1.58c-0.2,0.25-0.46,0.64-0.37,1.16c0.03,0.2,0.11,0.37,0.1,0.57c0,0-0.01,0-0.01,0
		c-0.17-0.16-0.39-0.67-0.64-0.69c-0.41,0.27-0.08,0.78,0.06,1.09c0,0.01-0.01,0.03-0.01,0.04c-0.41-0.32-0.78-0.74-0.39-1.37
		c0.19-0.3,0.53-0.47,0.72-0.76c0.15-0.3,0.3-0.59,0.44-0.89c0.7-1.12,1.32-1.7,1.58-3.32c0.13-0.82-0.27-1.72-0.46-2.34
		c-0.09-0.3-0.16-0.74-0.46-0.83c-0.33-0.1-0.65,0.68-0.71,0.95c-0.05,0.29,0.09,0.48,0.15,0.66c0.31-0.05,0.33-0.42,0.47-0.65
		c0.04-0.06,0.15-0.11,0.14-0.21c-0.02-0.19-0.19-0.19-0.29-0.29c0.01-0.1,0.06-0.17,0.14-0.21c0.03,0,0.06-0.01,0.08-0.01
		c0.33,0.17,0.41,0.96,0.32,1.48c-0.09,0.49-0.3,0.94-0.73,1.08c-0.12,0.01-0.25,0.03-0.37,0.04c-0.31,0.09-0.69,0.05-0.91-0.1
		c-0.55-0.36-0.03-0.68,0.07-0.97c0.05-0.26,0.09-0.52,0.14-0.77c0.15-0.35,0.46-0.58,0.65-0.9
		C113.22,32.25,113.26,31.99,113.6,31.81z M97.05,20.09c2.09-0.05,4.07,2.51,3.35,5.05c-0.27,1.12-0.53,2.23-0.8,3.35
		c-0.44,1.15-0.89,2.31-1.33,3.46c-0.16,0.66-0.32,1.31-0.48,1.97c-0.35,0.86-1.08,1.37-1.28,2.39c-0.04,0.98-0.07,1.95-0.11,2.93
		c-0.23,0.78-0.46,1.56-0.69,2.34c-0.04,1.06-0.07,2.13-0.11,3.19c-0.4,1.98-1.31,4.03-2.77,4.95c0.04,0.05,0.07,0.11,0.11,0.16
		c0.05,0.02,0.11,0.04,0.16,0.05c0.84-0.24,2.58-0.83,3.03-1.38c0.73-0.89,3.05-14.36,4.05-14.98c0.75-0.46,1.32,6.51,2.55,6.52
		c0.43,0,0.85,0,1.28,0c0.55-0.18,0.51-0.77,0.9-1.06c0.67-0.21,1.35-0.43,2.02-0.64c0.64-0.41,1.61-1.2,1.6-2.23
		c-0.04-0.44-0.07-0.89-0.11-1.33c0.18-0.37,0.35-0.74,0.53-1.12c-0.05-0.02-0.11-0.04-0.16-0.05c-0.32-0.1-0.73,0.13-1.01,0.21
		c-1.64,0.51-2.72,0.65-3.62,1.86c-0.16-0.04-0.32-0.07-0.48-0.11c-0.02-0.14-0.04-0.28-0.05-0.43c0.45-0.91,1.52-1.05,2.02-1.86
		c0.5-0.81,0.23-2.54,0.69-3.3c0.02,0,0.04,0,0.05,0c0.07,0.05,0.14,0.11,0.21,0.16c0.15,0.88,0.17,2.15,0.59,2.82
		c1.29,0.06,1.96-1.03,3.4-0.69c0.15,0.21,0.23,0.28,0.27,0.64c-0.25,0.62-0.5,1.24-0.74,1.86c-0.2,0.92,0.51,1.49,0.27,2.5
		c-0.14,0.59-0.55,1.06-0.8,1.54c-0.37,0.98-0.74,1.95-1.12,2.93c-0.77,1.28-1.98,2.37-3.24,3.14c-0.86,0.52-1.66,0.76-2.23,1.54
		c-1.16,1.57-2.92-7.43-3.54-5.43c-0.6,1.92-0.78,5.03-0.32,7.34c0.19,0.97,0.75,2.48,1.81,2.02c1.2-5.02,12.15-5.91,14.84-9.36
		c0.88-1.12,1.93-2.65,3.35-3.19c0.07,0.04,0.14,0.07,0.21,0.11c-0.06,1.12-1.2,2.11-1.7,2.93c-0.98,1.6-1.45,3.08-1.86,5.37
		c-0.05,1.15-0.11,2.31-0.16,3.46c-1.05,6.47-8.08,7.65-5.66,11.06c1.03,1.38,2.06,2.77,3.08,4.15c0.09-0.04,0.18-0.07,0.27-0.11
		c0.43-2.25,19.41,11.77,20.3,9.73c0.51-1.18,1.42-2.32,1.12-4.15c-0.62-0.72-2.4-0.59-3.4-0.9c-2.37-0.73-8.55-21.87-8.55-25
		c0-0.89,0.03-1.71,0.37-2.23c0.07,0,0.14,0,0.21,0c0.97,0.72,7.27,22.29,8.66,21.97c0.11-0.14,0.21-0.28,0.32-0.43
		c0.2-1.16-6.68-21.37-7.38-21.92c-0.56-0.44-1.15-1.22-1.49-1.86c-0.35-0.67-0.45-2.12-1.01-2.61c-0.02,0-0.04,0-0.05,0
		c-0.21,0.78-0.43,1.56-0.64,2.34c-0.42,1.7-0.71,3.36-1.12,4.9c-0.05,0.98-0.11,1.95-0.16,2.93c-0.38-2.6,0.6-5.49,1.17-7.72
		c0.4-1.54,0.45-3.23,1.22-4.36c0.04,0.02,0.07,0.04,0.11,0.05c-0.02,4.28,6.52,25.25,9.14,26.87c0.69,0.43,1.36,1.28,0.69,2.18
		c-0.78,1.05-6.99-19.24-7.59-18.72c-0.05,0.05-0.11,0.11-0.16,0.16c0.05,1.24,6.12,21.29,7.65,21.01c1.91-0.34,3.04-1.11,3.94-2.45
		c0.37-0.55,0.63-1.28,1.28-1.54c1.1-0.43,14.63-3.38,15.11-2.76c0.34,0.44,0.63,1.33,1.17,1.54c0.3-0.42,0.94-1.09,1.49-1.22
		c0.92-0.22,3.99,12.55,4.47,12.98c-0.07,1.18-4.23,2.27-3.67,3.62c1.09,2.61,5.57,2.06,6.97,0.16c2.15-2.92-0.08-7.32-1.17-9.79
		c-0.04,0.02-0.07,0.04-0.11,0.05c-0.04,0.59-0.22,0.61-0.32,0.9c-0.02,0-0.04,0-0.05,0c-0.1-1.51,0.32-2.97,0.16-4.26
		c-0.11-0.04-0.21-0.07-0.32-0.11c-0.4,0.21-0.97,0.72-1.33,0.59c0.34-0.73,1.27-1.98,2.13-1.97c0.05,0.04,0.11,0.07,0.16,0.11
		c0.14,1.4,0.28,2.8,0.43,4.2c0.78,3.11,4.04,6.49,2.29,10.48c-0.37,0.85-0.67,1.69-1.44,2.13c0.3-0.72,0.85-1.16,1.01-2.08
		c-0.02,0-0.04,0-0.05,0c-1.08,0.98-1.81,2-3.35,2.55c-1.05,0.38-2.64,0.27-3.56,0.8c-0.33,1.77,1.64,2.24,2.13,3.46
		c-0.64,0.95-2.07,0.51-2.87,0c-1.67-1.05-2.88-3.79-4.68-0.85c-2.96,4.84-2.01,13.36-3.83,19.31c-0.73,2.4-1.77,4.69-3.08,6.54
		c-0.7,0.99-1.98,1.78-2.29,3.09c-0.11,2.11-0.21,4.22-0.32,6.33c-0.07,1.22-0.14,2.45-0.21,3.67c-0.37,2.38-0.74,4.75-1.12,7.13
		c-1.43,6.13-7.43,0-10.28,4.77c-1.15,1.92-2.57,3.7-3.94,5.43c-0.59,0.62-1.17,1.24-1.76,1.86c-0.9,1.2-8.75,4.52-11.68,4.82
		c-3.84,0.39-13.29,1.25-17.1,2.79c-1.12,0.45-4.89,1.3-6.6,0.96c-0.89-0.32-1.77-0.64-2.66-0.96c-0.73,0.28-1.45,0.57-2.18,0.85
		c-1.33,0.42-2.75,0.6-4.26,0.85c-1.97,0.33-3.88-1.56-5.4-1.9c-0.48,0.02-0.96,0.04-1.44,0.05c-1.03-0.07-2.06-0.14-3.08-0.21
		c-4.91-0.98-13.16-8.72-16.53-11.18c-2.27-1.66-4.25-3.79-5.69-6.28c-0.6-1.47-1.21-2.94-1.81-4.42c-0.48-0.34-0.96-0.67-1.44-1.01
		c-1.25-0.96-2.27-2.29-2.93-3.83c-1.09-2.56-1.83,0.85-2.92-1.82c-0.97-2.37-11-2.7-12.51-4.57c-0.43-0.34-0.85-0.67-1.28-1.01
		c0.09-0.14,0.02-0.07,0.16-0.16c1.64-0.65,13.24-2.47,14.45-2.05c0-0.5,1.18-3.4,1.18-3.9c-0.48-0.64,1.19-0.78,0.71-1.42
		c-1.1-1.86-3.05,2.22-2.48-1.18c0.23-1.83-1.56-1.28-1.33-3.11c0.33-1.64,1.06-4.87,0.59-6.81c-0.41-1.69-2.05-2.8-2.82-4.26
		c-0.56-1.06-1.54-2.93-1.22-4.63c0.1-0.52,0.37-0.97,0.48-1.38c0.15-0.54-0.27-0.43,0.21-0.69c2.19,0.79,0.48,2.23,0.8,3.99
		c0.13,0.73,0.52,1.53,0.9,2.08c1.66,2.36,4.41-4.68,5.73-2.18c0.24-0.04,0.22-0.07,0.37-0.16c0.58-2.22,0.15-3.49-0.21-5.59
		c-0.05-1.31-0.11-2.63-0.16-3.94c-0.2-1.1-0.62-2.29-0.37-3.62c0.63-3.37,3.75-11.44,4.88-14.3c0.83-2.09,0.32-3.31-1.12-4.36
		c-2.25-1.66-3.53,10.92-6.81,10.62c-0.86-0.08-1.53,0.71-2.29,0.43c-0.7-0.34-1.68-2.45-2.23-3.14c-0.8-0.78-1.6-1.56-2.39-2.34
		c-1.16-1.58-2.96-6.13-2.07-8.94c0.63-1.98,1.73-3.69,2.77-5.27c0.29-0.44,0.17-0.83,0.32-1.22c0.53-0.57,1.06-1.14,1.6-1.7
		c0.07,0,0.14,0,0.21,0c0.98,1.34,0.68,4.74-0.37,5.75c-0.07-0.02-0.14-0.04-0.21-0.05c-0.3-0.34-0.6-0.67-0.9-1.01
		c-0.28,0.11-0.38,0.22-0.59,0.37c-1.65,4.73,0.32,7.94,4.41,9.15c0.79,0.24,2.36,0.78,3.4,0.43c1.27-0.44,1.71-3.92,0.48-4.79
		c-0.61-0.43-1.7-0.45-2.29-0.85c0-0.02,0-0.04,0-0.05c0.02-0.02,0.04-0.04,0.05-0.05c1.18,0,2.79-0.7,3.67-0.11
		c1.54,1.03,0.49-6.4,1.81-4.72c0.73,0.67,1.45,1.35,2.18,2.02c0.79,0.89,1.54,1.94,2.5,2.66c0.71,0.43,1.42,0.85,2.13,1.28
		c1.98,1.31,4.13,3.33,5.43,5.32c0.68-0.11,1.06-0.68,1.44-1.12c-0.04-1.37-1.42-2-2.07-2.82c-1.27-1.6-2.27-3.31-2.71-5.75
		c-0.43-2.39,0.85-5.09,2.29-5.69c0.99-0.42,3.1-0.01,3.51,0.69c-0.05,0.04-0.11,0.07-0.16,0.11c-1.09,0.4-1.91-0.27-2.82,0.53
		c-0.44,0.39-0.76,0.91-1.01,1.49c-1.22,2.8,0.61,5.15,2.45,6.23c1.01,0.43,2.02,0.85,3.03,1.28c0.77,0.52,2.16,2.84,2.5,2.98
		c0.39-0.96,1.1-1.81,1.28-2.98c0.23-1.54,5.13,13.88,4.51,12.7c-0.44-1-0.87-2-1.31-3c-0.65-1.12-1.46-2.03-2.19-2.97
		c-0.63-0.98-1.27-1.96-1.9-2.94c-1.77-2.13-5.01-4.64-5.4-8.74c0.03-0.03,0.06-0.05,0.09-0.08c0.9,0.68,1.44,1.48,2.45,1.95
		c0.13-0.06,0.26-0.11,0.39-0.17c0.73-0.64,0.63-4.82-0.2-6.26c-1.46-2.54-3.75-3.02-2.33-6.53c0.13-0.39,0.26-0.78,0.38-1.16
		c0.02,0,0.03-0.01,0.05-0.01c0.01,0.03,0.02,0.07,0.03,0.1c0.55,0.9-0.56,1.97,0.1,3.24c0.75,1.43,2.17,2.06,3.08,3.21
		c0.59,0.74,0.81,1.89,1.28,2.9c0.16,0.64,0.33,1.27,0.49,1.91c0.2,1.62-1-6.69-0.44-5.29c0.16,0.4,0.22,1.05,0.52,1.4
		c0.03-0.03,0.06-0.05,0.09-0.08c-1.73-5.62,0.82-0.32,0.67-5.07c-0.06-1.86-0.76-4.49,0.76-5.42c0,0.02,0.01,0.03,0.01,0.05
		c-0.2,1.25-0.05,2.52,0.12,4.06c0.16,0.86,0.67,0.18,0.82,1.04c-0.17,1.84,0.96-1.99,0.79-0.15c-0.04,0.71,0.62,0.45,1.17,1.18
		c0.02,0,0.03-0.01,0.05-0.01c-0.18-1.37,0.77,1.91,0.89,0.64c0.37-3.86-0.97-0.65,0.09-4.01c0.41-1.41,0.56-4.5,0.97-5.91
		c0.65-0.9,1.53-0.69,2.55-1.37c1.28-0.85-0.56-1.2-0.03-2.47c0.2-0.48,0.76-0.9,0.73-1.49c-0.04-0.96-2.31-2.99-2.86-3.38
		c-0.42-0.19-0.85-0.38-1.27-0.57c-0.35-0.32-0.7-0.65-1.05-0.97c-0.46-0.16-1.31,0.2-1.69,0.49c-1.4,1.06-2.71,3.13-1.21,5.22
		c0.32,0.45,0.64,0.92,1.1,1.12c1.36,0.61,2-0.44,3.13-0.29c-0.04,0.07-0.07,0.13-0.11,0.2c-0.04,0.16,0,0.08-0.11,0.2
		c-0.48,0.46-1.3,0.48-1.78,0.35c-0.55-0.06-1.11-0.12-1.66-0.19c-1.1-0.29-2.18-1.91-2.25-3.56c-0.07-1.79,0.81-2.84,2.09-3.87
		c0.56-0.35,1.13-0.69,1.69-1.04c4.3-2.24,4.45,2.25,6.4,4.35c0.69,0.74,2.91,1.78,3.02,2.78c-0.56,0.54-1.65,0.69-2.41,1.25
		c-0.74,0.55-0.26,5.22,0.64,6.12c0.87-0.3,2.87-2.38,3.54-1.7c0.73,0.44,0.35,1.73,0.01,2.16c-0.04-0.01-0.08-0.01-0.12-0.02
		c-0.27-0.76-0.56-1.29-1.03-1.64c-0.14,0.04-0.27,0.08-0.41,0.12c-0.88,0.46-1.39,2.42-1.72,3.22c-0.82,1.98-3.28,2.88-1.79,5.97
		c0.59,1.22,4.81-3.23,4.96-2.24c0.13,0.88,4.26-0.24,4.37,0.83c0.16,1.52-3.48,16.67-2.68,17.29c1.04,0.81-0.6-12.81,1.22-13.27
		c0.4-0.1,0.99-0.44,1.54-0.32c0.67,0.15,0.77,0.76,1.17,1.17c0.02,0,0.04,0,0.05,0c0.37-1.01,0.62-2.29,1.06-3.35
		c0.55-0.9,3.81,0.2,4.36-0.71c0.34-0.8,0.48-1.83-0.21-2.34c-1.37,0.34-2.32,1.39-3.94,1.7c-2.63,0.51-5.46-1.74-3.88-3.99
		c0.21-0.05,0.43-0.11,0.64-0.16c0.83,0.44,1.22,1.25,2.29,1.44c1.55,0.27,3.21-2.03,2.34-3.41c-0.77-0.19-1.74,0-2.66-0.21
		c-2.12-0.5-3.88-1.18-4.79-2.87c-1.65-3.1,0.45-6.24,2.13-7.93c0.41-0.41,0.69-0.99,1.44-1.06c0.07,0.05,0.14,0.11,0.21,0.16
		c0.07,1.01,0.14,2.02,0.21,3.03c0.26,1.32,0.78,2.87,0.32,4.1c-0.27,0.13-0.42,0.21-0.85,0.21c-1.28-0.58-1.19-1.64-1.54-3.14
		c-0.04-0.02-0.07-0.04-0.11-0.05c-0.07,0-0.14,0-0.21,0c-2.64,3.53,2.2,7.15,5.48,4.68c2.09-1.57,1.12,2.64,2.07,1.12
		c0.42-0.67,1.5-0.76,1.53,0c0.14,3.07,2.21-2.43,2.48-1.65c0.41,1.15,2.42-1.04,2.24-0.24c0.04,0.02,1.03,0.22,1.06,0.24
		c0.7-0.19-3.77,14.41-3.44,13.86c2.12-3.51-2.15-4.72-1.12-8.14c0.56-1.85,2.42-2.64,3.51-3.99c1.23-1.53,2.44-3.76,3.03-5.85
		c0.63-2.22,1.46-5.48-0.21-7.13c-0.36-0.36-0.77-0.67-1.49-0.53c-0.02,0.04-0.04,0.07-0.05,0.11c0.2,0.93,1.37,1.42,1.65,2.66
		c0.19,0.82-0.03,1.74-0.21,2.34c-0.78,2.58-1.9,4.7-5.16,4.68c0-0.04,0-0.07,0-0.11c0.39-0.09,0.6-0.24,0.9-0.43
		c-1.09-0.51-2.26-0.14-2.82-1.17c0.07-0.14,0.09-0.18,0.21-0.27c0.8-0.14,1.6-0.28,2.39-0.43c1.82-0.49,5.43-2.76,3.67-5.48
		c-0.57-0.51-1.13-1.03-1.7-1.54c0-0.14,0-0.28,0-0.43C96.58,20.36,96.79,20.3,97.05,20.09z M134.33,28.91
		c0.18,1.47,0.35,2.94,0.53,4.42c0.54,2.39,1.74,4.8,3.3,6.23c1.12,1.03,2.26,2.51,3.94,2.93c0.52,0.13,1.98,0.25,2.34-0.11
		c0.05-0.32,0.11-0.64,0.16-0.96c0.43-2.21-0.74-3.13-1.65-4.26c0-0.02,0-0.04,0-0.05c1.95,0.29,2.96,2.27,3.3,4.26
		c-0.05,0.9-0.11,1.81-0.16,2.71c0.39,2.4,0.27,5.1-0.53,6.97c-0.28,0.5-0.57,0.99-0.85,1.49c-0.55,1.28-0.56,2.21-1.44,3.09
		c-1.28,1.28-3.81,1.76-4.68,3.41c-0.49,0.93,1.55,2.06,1.91,2.45c-0.4,0.68-1.49,0.37-2.13,0.11c-0.32-0.18-0.64-0.35-0.96-0.53
		c-0.87-0.04-1.74-0.07-2.61-0.11c-1.34-0.24-3.37-0.73-3.51-2.13c0.05-0.02,0.11-0.04,0.16-0.05c3.98,1.42,6.69-0.28,7.82-3.51
		c0.31-0.88,0.29-1.79,0.48-2.82c0.22-1.15,1.09-3.6,0.16-4.68c-0.02,0-0.04,0-0.05,0c-0.37,1.16-1.34,1.26-1.76,2.02
		c-0.36,0.66,0.2,1.91,0.11,2.71c-0.05-0.04-0.11-0.07-0.16-0.11c-0.46-1.13-1.36-2.11-2.07-3.03c-0.35-0.45-0.93-0.73-1.12-1.33
		c0.4,0.3,0.74,0.7,1.28,0.85c0.05-0.51,0.11-1.03,0.16-1.54c-0.37-1.03-0.74-2.06-1.12-3.09c-0.4-1.03-0.56-2.23-0.8-3.41
		c-0.46-2.28-0.92-6.06-0.48-8.73C134.04,31.04,134.19,29.98,134.33,28.91z M15.88,75.9c4.58-2.44-0.6-4.31,3.12-5.74
		c3.13-1.2,9.04-14.12,7.2-3.53c-0.32,0.05,0.08-1.71-0.17-1.8c-0.6-0.46-1.56,5.41-1.59,4.77c-0.06-1.2-0.11-0.73-1.11-1.66
		c-0.67-0.41-1.78,2.86-2.44,2.45c-0.95-0.26-0.57,3.81-2.19,5.08c-2.64,2.07,5.47,7.37,0.47,8.89c-1.1,0.23-2.2,0.46-3.29,0.69
		c-0.17,0.19-0.34,0.38-0.5,0.57c0.2,2.93,3.9,2.59,5.45,4.17c1.22,1.23,0.76,3.33,0.91,4.65c0.26,2.27,1.3,5.25,3.03,7.2
		c1.21,1.37,2.27,3.13,3.81,4.08c1.7,1.04,3.88,1.72,5.61,2.92c2.15,1.49,3.79,3.59,5.63,5.62c1.49,1.64,1.33,3.79,1.66,5.43
		c0.52,2.57,3.9,3.5,3.5,6.34c-0.24,1.67-2.56,3.6-1.99,5.21c0.66,0.3,1.59-0.02,2.13,0.37c-0.05,0.05-0.1,0.1-0.15,0.15
		c-1.52,1.02-4.07,1.2-4.37-0.3c-0.39-1.93,1.89-3.77,1.74-5.7c-0.2-2.57-3.86-2.79-5.39-3.81c-0.72-0.87-1.43-1.74-2.15-2.62
		c-0.64-0.52-5.99-3.34-6.62-3.33c-3.36,0.04-3.65,0.01-6.43-1.01c-8.49-3.1-7.36-10.31-9.6-17.2c-0.96-2.93-1.6-13.11,1.45-14.74
		c2.18-0.46,3.49,0.64,5.59,0.22C22.31,82.66,14.63,77.65,15.88,75.9z"/>
	<g>
		<g>
			<polygon class="st1" points="13.95,160 23.36,134.79 7.54,129.44 188.58,81.53 180,91.41 171.3,118.37 181.91,124.17 
				4.74,171.04 			"/>
			<path class="st2" d="M187.51,82.19l-7.84,9.04l-8.81,27.32l10.06,5.5L5.77,170.39l8.51-10.2l9.56-25.63l-15.01-5.07L187.51,82.19
				 M189.65,80.86l-2.33,0.62L8.64,128.77l-2.38,0.63l2.33,0.79l14.29,4.83l-9.25,24.79l-8.43,10.1l-1.49,1.79l2.25-0.6
				l175.15-46.34l1.8-0.48l-1.63-0.89l-9.52-5.21l8.58-26.59l7.74-8.92L189.65,80.86L189.65,80.86z"/>
		</g>
		<g>
			<g>
				<path class="st1" d="M37.74,123.33c-2.98,0-5.82-0.23-8.21-0.68c-6.25-1.16-11.87-3.76-15.41-7.13
					c-3.27-3.12-5.75-8.31-6.64-13.9C6.8,97.37,7.65,91.8,9.8,86.33c2.08-5.29,4.89-8.88,6.88-10.96c2.14-2.23,3.78-3.23,3.89-3.3
					l5.8-3.64c-0.67-1.1-1.71-1.87-1.73-1.88l-1.57-1.15l1.89,0.49c0.03,0.01,2.59,0.67,6.17,0.67c1.38,0,2.74-0.1,4.05-0.29
					c0.64-0.09,1.4-0.25,2.2-0.4c2.06-0.41,4.62-0.92,7.35-0.92c3.38,0,6.26,0.77,8.8,2.37c3.16,1.98,5.76,5.27,7.75,9.78
					c3.11,5.51,4.93,6.33,5.73,6.33c0.69,0,0.95-0.62,0.99-0.86c0-0.15-0.41-0.64-0.74-1.03c-1.43-1.72-4.09-4.91-2.33-10.5
					c0.53-3.54-0.5-5.95-1.34-7.89c-0.6-1.39-1.08-2.51-0.77-3.59c-4.68-5.68-11.59-8.03-17.73-9.59l-0.96-0.24l0.88-0.45
					c1.85-0.95,5.63-2.05,10.18-2.05c4.34,0,8.44,1.01,11.9,2.93c3.88-5.56,6.44-6.92,7.98-7.74c0.19-0.1,0.36-0.19,0.52-0.28
					l0.13-0.07l0.14,0.04c2.68,0.67,4.14,1.6,4.61,2.92c0.23,0.65,0.36,0.67,0.36,0.67c0.02,0,0.05-0.01,0.12-0.03
					c0-0.04,0.01-0.1,0.01-0.15c0.02-0.44,0.07-1.36,0.34-2.87c0.36-2.06,1.83-6.57,4.05-7.42l0.43-0.16l0.07,0.45
					c0.1,0.61,0.16,1.26,0.21,1.89c0.03,0.33,0.06,0.72,0.11,1.09c0.39-1.51,1.02-2.68,1.96-3.63c1.04-1.06,2.48-1.86,4.68-2.61
					l0.4-0.13l0.09,0.41c0.56,2.67,1.27,4.99,2.12,6.9c0.12,0.11,0.21,0.12,0.28,0.12c0.39,0,1.02-0.56,1.75-1.2
					c0.16-0.14,0.33-0.29,0.51-0.45l0.27-0.23l0.24,0.26c0.44,0.47,0.86,1.77,1.04,3.25c0.12,0.97,0.22,2.75-0.34,4.29
					c0.49,0.17,1.34,0.33,2.17,0.48c1.18,0.22,2.4,0.45,3.13,0.78c1.01,0.46,1.85,0.74,2.52,0.97c0.72,0.24,1.27,0.42,1.69,0.71
					c1.43-0.93,2.96-2.11,4.57-3.36c4.79-3.7,10.21-7.89,15.87-7.89c2.04,0,4,0.56,5.83,1.66c6.24,3.74,7.94,6.8,9.58,9.75
					c0.9,1.61,1.74,3.13,3.29,4.78c4.21,4.49,10.56,11.28,11.61,19.01l0.14,1.04l-0.76-0.72c-1.67-1.57-2.34-1.7-2.99-1.7
					c-0.13,0-0.26,0.01-0.4,0.01c-0.16,0.01-0.33,0.02-0.51,0.02c-0.17,0-0.33-0.01-0.5-0.02c0.19,0.53,0.28,1.21,0.32,1.79
					c0.12,1.54-0.02,3.36-0.37,4.99c-0.3,1.38-0.9,3.28-2.06,4.5l-0.4,0.42l-0.21-0.54c-0.2-0.51-0.35-0.91-0.46-1.24
					c-0.07-0.2-0.14-0.39-0.19-0.53c-0.02,0.02-0.04,0.05-0.06,0.07c-0.2,0.21-0.47,0.49-0.87,0.82c-0.17,0.14-0.35,0.24-0.53,0.34
					c-0.54,0.3-1.09,0.61-1.52,2.04l-0.24,0.79l-0.38-0.62c0.27,0.81,0.53,1.81,0.63,2.89c0.14,1.49-0.99,1.76-1.62,1.87
					c1.03,0.76,3.27,2.52,3.66,4.62c0.63,3.35,0.29,7.49-0.9,11.09c-1,3.03-3.05,7.01-7.12,8.76c-6.45,2.78-15.91,4.78-28.13,5.97
					c-10.02,0.97-19.7,1.17-26.06,1.17c-3.75,0-6.08-0.07-6.11-0.07l-0.16-0.01l-0.11-0.12c-0.25-0.29-5.97-6.95-5.76-11.11
					c-2.69,0.14-4.28,0.33-5.15,0.43c-0.46,0.05-0.73,0.09-0.93,0.09l-0.02,0c-0.11,0-0.21-0.01-0.3-0.02
					c-0.49,0.6-2.28,2.71-4.96,5.04c-2.91,2.53-7.5,5.83-12.81,7.22C47.28,122.74,42.5,123.33,37.74,123.33z M25.54,69.8
					c-0.06,0.08-5.79,7.62-7.74,15.73c-0.64,2.64-1.26,6.59-0.63,10.34c0.93,5.56,3.76,9.98,5.91,12.08c1.31,1.29,3.4,2.39,6.03,3.2
					c2.66,0.81,5.63,1.25,8.59,1.25c2.57,0,4.97-0.32,7.16-0.95c6.92-2,11.71-7.61,12.77-8.92c-1.08-0.9-4.88-4.38-7.63-10.66
					c-0.82-1.87-1-3.68-1.18-5.43c-0.33-3.25-0.67-6.62-5.13-10.7c-0.73-0.66-1.48-0.99-2.32-0.99c-1.49,0-3.04,1.03-4.55,2.02
					c-0.72,0.47-1.46,0.97-2.18,1.33c-1.86,0.94-3.47,1.3-3.54,1.31l-0.07,0.02l-0.07-0.01c-0.12-0.02-3.05-0.54-3.87-2.93
					c-0.46-1.34-0.35-2.8-0.24-4.22c0.05-0.72,0.11-1.45,0.09-2.16c-0.01-0.53-0.2-1.05-0.46-1.51L25.54,69.8z"/>
			</g>
			<path class="st2" d="M92.92,32.6c0.35,1.67,1,4.44,2.18,7.04c0.19,0.19,0.38,0.28,0.59,0.28c0.63,0,1.39-0.78,2.5-1.74
				c0.7,0.74,1.66,4.87,0.49,7.48c0.87,0.51,4.28,0.78,5.63,1.41c2.23,1.03,3.63,1.15,4.35,1.79c5.68-3.64,12.94-11.33,20.46-11.33
				c1.87,0,3.76,0.48,5.64,1.61c9.46,5.68,8.29,9.65,12.79,14.46c4.51,4.81,10.5,11.34,11.51,18.81c-1.69-1.59-2.46-1.8-3.24-1.8
				c-0.29,0-0.58,0.03-0.92,0.03c-0.34,0-0.73-0.03-1.21-0.15c1.15,0.89,1.09,8.65-1.66,11.51c-0.61-1.56-0.72-2.14-0.93-2.14
				c-0.19,0-0.46,0.47-1.25,1.12c-0.62,0.51-1.55,0.51-2.18,2.56c-1.12-1.84-0.83-1.27-1.28-1.54c-0.01-0.01-0.02-0.01-0.02-0.01
				c-0.16,0,1.06,2.19,1.3,4.74c0.18,1.91-2.15,1.23-1.92,1.79c0.05,0.13,3.5,2.24,3.97,4.73c1.14,6.13-0.92,16.48-7.8,19.45
				c-14.76,6.35-41.93,7.11-54.04,7.11c-3.78,0-6.09-0.07-6.09-0.07s-6.3-7.28-5.63-11.26c-4.31,0.21-5.93,0.54-6.5,0.54
				c-0.01,0-0.01,0-0.02,0c-0.23,0-0.46-0.04-0.46-0.04s-7.56,9.65-17.71,12.29c-4.63,1.21-9.45,1.69-13.73,1.69
				c-3.08,0-5.89-0.25-8.15-0.67c-6.51-1.2-11.9-3.87-15.23-7.04c-3.28-3.12-5.66-8.25-6.53-13.69c-0.73-4.6,0.39-10.23,2.3-15.1
				c3.98-10.13,10.62-14.07,10.62-14.07l4.48-2.81c0,0-5.81,7.59-7.8,15.86c-0.78,3.24-1.22,7.04-0.64,10.49
				c0.89,5.28,3.52,9.84,6.01,12.28c2.76,2.7,8.75,4.55,14.87,4.55c2.47,0,4.96-0.3,7.26-0.97c8.03-2.33,13.18-9.34,13.18-9.34
				s-4.64-3.52-7.8-10.75c-2.29-5.25,0.57-9.87-6.4-16.25c-0.85-0.78-1.71-1.08-2.57-1.08c-2.35,0-4.7,2.28-6.9,3.39
				C32.62,78.69,31,79.04,31,79.04s-2.82-0.47-3.58-2.69c-0.66-1.92-0.07-4.16-0.13-6.27c-0.06-2.11-2.43-3.84-2.43-3.84
				s2.59,0.68,6.26,0.68c1.26,0,2.65-0.08,4.1-0.29c2.29-0.34,5.73-1.32,9.5-1.32c5.61,0,11.93,2.18,16.22,11.94
				c2.93,5.19,4.89,6.53,6.06,6.53c0.84,0,1.27-0.7,1.36-1.16c0.2-1.1-5.4-4.13-3.07-11.51c0.96-6.33-2.97-9.25-2.05-11.64
				c-4.4-5.43-10.66-8-18.06-9.87c1.95-0.99,5.68-2.01,10.01-2.01c3.81,0,8.08,0.78,12.01,3.05c4.42-6.43,7.11-7.35,8.57-8.19
				c2.91,0.72,4,1.68,4.35,2.69c0.24,0.68,0.44,0.92,0.71,0.92c0.13,0,0.27-0.06,0.44-0.15c0.08-0.05-0.02-0.9,0.38-3.2
				c0.42-2.39,1.92-6.42,3.82-7.14c0.29,1.81,0.24,4.14,0.79,4.32C86.91,35.57,89.07,33.91,92.92,32.6 M93.48,31.63l-0.79,0.27
				c-2.94,1-5.11,2.26-6.31,4.88c-0.04-0.45-0.09-0.9-0.16-1.33l-0.14-0.9l-0.85,0.32c-1.04,0.4-2.01,1.51-2.87,3.32
				c-0.64,1.34-1.17,2.98-1.42,4.39c-0.14,0.8-0.22,1.44-0.27,1.93c-0.64-1.25-2.15-2.14-4.7-2.77l-0.29-0.07l-0.26,0.15
				c-0.15,0.09-0.32,0.18-0.51,0.27c-1.55,0.82-4.1,2.17-7.92,7.58c-1.75-0.94-3.65-1.65-5.66-2.12c-1.96-0.46-4.02-0.69-6.13-0.69
				c-2.03,0-4.13,0.22-6.06,0.65c-1.66,0.37-3.19,0.88-4.29,1.44l-1.75,0.9L45,50.32c6.04,1.52,12.8,3.83,17.42,9.32
				c-0.24,1.15,0.26,2.32,0.83,3.64c0.81,1.89,1.82,4.24,1.31,7.66c-0.77,2.48-0.78,4.8-0.01,6.91c0.65,1.78,1.72,3.06,2.42,3.91
				c0.24,0.29,0.53,0.64,0.63,0.82c-0.06,0.16-0.22,0.47-0.6,0.47c-0.45,0-2.18-0.44-5.4-6.12c-1.05-2.38-2.27-4.43-3.64-6.12
				c-1.27-1.56-2.69-2.84-4.24-3.81c-2.6-1.63-5.55-2.42-9-2.42c-2.77,0-5.35,0.51-7.42,0.93c-0.8,0.16-1.55,0.31-2.18,0.4
				c-1.29,0.19-2.63,0.29-3.99,0.29c-3.52,0-6.05-0.65-6.07-0.65l-3.77-0.98l3.14,2.3c0.01,0.01,0.81,0.61,1.43,1.47l-1,0.63
				l-4.47,2.81c-0.16,0.09-1.82,1.12-3.96,3.36c-1.28,1.34-2.48,2.84-3.55,4.47c-1.34,2.03-2.48,4.25-3.41,6.61
				c-1.01,2.57-1.77,5.27-2.18,7.8c-0.47,2.83-0.52,5.42-0.16,7.69c0.44,2.76,1.27,5.5,2.42,7.91c1.17,2.47,2.67,4.61,4.33,6.2
				c1.73,1.65,4.02,3.17,6.61,4.39c2.74,1.29,5.76,2.24,8.99,2.84c2.41,0.45,5.28,0.68,8.28,0.68c4.79,0,9.61-0.59,13.92-1.72
				c2.38-0.62,4.82-1.67,7.25-3.12c1.93-1.15,3.85-2.56,5.72-4.18c2.54-2.2,4.26-4.18,4.88-4.93c0.04,0,0.09,0,0.14,0l0.03,0
				c0.22,0,0.5-0.04,0.97-0.09c0.83-0.1,2.3-0.27,4.74-0.41c0.06,1.74,0.97,4,2.73,6.74c1.5,2.33,3.06,4.15,3.13,4.22l0.21,0.25
				l0.32,0.01c0.02,0,2.36,0.07,6.12,0.07c6.37,0,16.06-0.2,26.1-1.18c12.25-1.19,21.75-3.2,28.24-5.99
				c1.75-0.75,3.29-1.98,4.58-3.66c1.14-1.48,2.06-3.27,2.75-5.33c0.61-1.84,1.01-3.87,1.16-5.88c0.14-1.92,0.06-3.78-0.24-5.4
				c-0.35-1.87-2.04-3.46-3.21-4.39c0.14-0.06,0.29-0.13,0.42-0.23c0.39-0.28,0.84-0.82,0.75-1.84c-0.06-0.66-0.19-1.31-0.34-1.89
				l0.31-1.02c0.39-1.28,0.86-1.54,1.35-1.82c0.19-0.11,0.39-0.22,0.59-0.38c0.22-0.18,0.41-0.35,0.56-0.5
				c0.12,0.32,0.26,0.72,0.46,1.22l0.42,1.08l0.8-0.84c2.23-2.32,2.74-7.12,2.53-9.77c-0.04-0.52-0.1-0.98-0.19-1.37
				c0.19,0,0.37-0.01,0.53-0.02c0.14-0.01,0.27-0.01,0.39-0.01c0.57,0,1.16,0.12,2.74,1.6l1.52,1.43l-0.28-2.07
				c-0.47-3.44-1.96-6.94-4.57-10.72c-2.13-3.08-4.59-5.77-7.14-8.49c-1.51-1.62-2.35-3.12-3.24-4.7c-1.67-2.99-3.4-6.09-9.72-9.88
				c-1.89-1.14-3.92-1.71-6.02-1.71c-5.79,0-11.26,4.23-16.1,7.96c-1.53,1.19-2.99,2.31-4.35,3.22c-0.43-0.24-0.95-0.42-1.57-0.62
				c-0.67-0.22-1.5-0.5-2.48-0.95c-0.77-0.36-2.02-0.59-3.22-0.81c-0.59-0.11-1.28-0.24-1.77-0.36c0.45-1.52,0.35-3.17,0.24-4.09
				c-0.15-1.19-0.54-2.82-1.14-3.46l-0.49-0.52l-0.54,0.47c-0.18,0.16-0.35,0.31-0.52,0.45c-0.41,0.36-0.76,0.67-1.05,0.88
				c-0.26,0.19-0.39,0.22-0.43,0.23c-0.82-1.86-1.51-4.12-2.05-6.72L93.48,31.63L93.48,31.63z M37.68,112.02
				c-2.92,0-5.86-0.42-8.48-1.23c-2.54-0.78-4.62-1.88-5.88-3.11c-2.1-2.06-4.88-6.41-5.8-11.88c-0.62-3.7,0-7.58,0.63-10.2
				c1.01-4.19,3.04-8.21,4.57-10.84c1.66-2.86,3.09-4.73,3.1-4.75l0.55-0.72c0.1,0.26,0.15,0.53,0.16,0.81
				c0.02,0.69-0.04,1.42-0.09,2.12c-0.11,1.45-0.23,2.96,0.26,4.37c0.89,2.6,4.03,3.16,4.16,3.18l0.14,0.02l0.14-0.03
				c0.07-0.02,1.73-0.38,3.63-1.34c0.74-0.37,1.49-0.87,2.22-1.35c1.46-0.96,2.96-1.96,4.34-1.96c0.74,0,1.42,0.29,2.07,0.89
				c4.35,3.98,4.67,7.13,5.01,10.46c0.18,1.78,0.37,3.62,1.21,5.54c1.67,3.82,3.75,6.61,5.21,8.27c0.94,1.08,1.74,1.83,2.25,2.28
				c-0.55,0.66-1.6,1.86-3.07,3.16c-2.03,1.8-5.28,4.2-9.29,5.36C42.59,111.71,40.21,112.02,37.68,112.02L37.68,112.02z"/>
		</g>
		<g id="形状_11_3_">
			<g>
				<path class="st3" d="M31.04,77.56c-1.14,0-2.08-0.7-2.58-1.91c-0.36-0.89-0.24-1.75-0.12-2.57c0.07-0.47,0.13-0.91,0.11-1.36
					c-0.04-1.18-0.38-2.85-0.39-2.87l-0.05-0.23l0.23,0.06c1.07,0.29,2.81,0.74,3.02,0.76l0.02,0c0.1,0,0.15,0,1.95,2.1
					c0.87,1.01,1.74,2.04,1.74,2.05l0.03,0.04l0,0.05c0,0.03,0.16,2.68-3.04,3.73C31.66,77.51,31.35,77.56,31.04,77.56
					C31.04,77.56,31.04,77.56,31.04,77.56z"/>
			</g>
			<g>
				<path class="st4" d="M28.21,68.82c0,0,2.87,0.77,3.06,0.77c0,0,0.01,0,0.01,0c0,0,0,0,0,0c0.12,0,3.58,4.09,3.58,4.09
					s0.19,2.55-2.94,3.58c-0.3,0.1-0.59,0.15-0.88,0.15c-1.01,0-1.94-0.6-2.44-1.82c-0.54-1.34,0.05-2.59,0-3.88
					C28.55,70.51,28.21,68.82,28.21,68.82 M27.83,68.41l0.1,0.47c0,0.02,0.34,1.68,0.38,2.84c0.02,0.44-0.05,0.87-0.11,1.33
					c-0.12,0.84-0.25,1.72,0.13,2.65c0.52,1.28,1.51,2.01,2.71,2.01c0.32,0,0.65-0.05,0.98-0.16c1.72-0.57,2.49-1.59,2.82-2.34
					c0.37-0.83,0.32-1.52,0.32-1.55l-0.01-0.1l-0.06-0.07c-0.01-0.01-0.88-1.04-1.75-2.05c-0.51-0.6-0.93-1.07-1.23-1.41
					c-0.64-0.72-0.68-0.74-0.83-0.74h0c-0.22-0.03-1.69-0.41-2.99-0.76L27.83,68.41L27.83,68.41z"/>
			</g>
		</g>
		<g id="形状_39_3_">
			<path class="st5" d="M30.39,72.66c-0.49-0.77-1.44-2.21-1.44-2.21s0.47,1.04,0.24,2.09c-0.12,0.54-0.55,1.26-0.54,1.89
				c0.01,1.86,1.51,0.95,1.75-0.11C30.48,73.91,30.69,73.14,30.39,72.66z"/>
		</g>
		<g id="形状_40_3_">
			<path class="st5" d="M31.64,71.29c-0.76-0.16-1.54-0.12-2.03-0.38c0.35,1,1.82,1.26,1.69,2.66
				C31.17,74.96,33.52,72.03,31.64,71.29z"/>
		</g>
		<g id="身体_3_">
			<g>
				<path class="st6" d="M97.55,120.15c-0.02,0-1.89-0.09-3.74-0.39c-2.59-0.42-3.84-1.01-3.82-1.81
					c0.03-1.65-3.54-18.86-3.58-19.03l-0.02-0.08l24.52-21.7l13.41-4.25l0.06,0.04c0.07,0.05,6.86,4.82,13.78,11.1
					c4.06,3.69,7.37,7.18,9.83,10.36c3.09,3.99,4.85,7.52,5.24,10.5c0.17,1.31-0.25,2.57-1.24,3.74c-1.89,2.24-5.93,4.23-12.02,5.93
					c-4.85,1.36-11.01,2.53-18.31,3.49c-12.42,1.64-23.99,2.09-24.1,2.1H97.55L97.55,120.15z"/>
			</g>
			<g>
				<path class="st4" d="M124.3,73.04c0,0,27.11,18.95,28.79,31.86c1.68,12.91-55.53,15.1-55.53,15.1s-7.45-0.36-7.42-2.05
					c0.03-1.69-3.58-19.06-3.58-19.06l24.44-21.62L124.3,73.04 M124.35,72.72l-0.14,0.04l-13.31,4.22L110.84,77l-0.05,0.04
					L86.36,98.66l-0.13,0.11l0.03,0.17c1.25,6,3.6,17.69,3.58,19c-0.01,0.89,1.24,1.52,3.95,1.95c1.85,0.3,3.74,0.39,3.75,0.39
					l0.01,0l0.01,0c0.12,0,11.69-0.46,24.11-2.1c7.3-0.96,13.47-2.14,18.33-3.5c2.89-0.81,5.35-1.69,7.31-2.63
					c2.17-1.04,3.78-2.17,4.79-3.36c1.02-1.21,1.45-2.5,1.27-3.86c-0.39-3-2.16-6.55-5.27-10.57c-2.47-3.19-5.78-6.69-9.85-10.38
					c-6.92-6.29-13.72-11.06-13.79-11.11L124.35,72.72L124.35,72.72z"/>
			</g>
		</g>
		<g id="形状_53_3_">
			<path class="st1" d="M143.62,92.49c-0.44-1.06-1.23-2.06-2.09-2.92l2.99-1.17l-1.92-0.51l-1.65,1.13
				c-1.59-1.45-3.22-2.41-3.22-2.41l-21.24-5.76l-13.56,0.64l-11.64,26.74l-2.56,5.63c0,0,9.73-4.2,11.13-9.08
				c1.4-4.88,2.21-4.5,4.73-5.5c2.52-1,3.87-3.26,3.45,1.02c-0.18,1.87-1.79,6.53-1.79,6.53s4.51-4.47,4.99-7.16
				c0.49-2.74,1.15,3.71,1.15,3.71s1.93-1.71,2.18-3.58c1.46,2.36,3.51,3.11,4.61,3.2c0.35,0.03,7.42,4.08,8.57,3.71
				c0.99-0.31,6.23-10.83,7.53-14.12c0.1-0.66,0.19-1.06,0.28-0.97c0.05,0.06-0.06,0.41-0.28,0.97c-0.3,2.07-0.62,6.7-0.62,6.7
				s10.48-2.69,10.36-3.07C144.98,96.04,144.56,94.76,143.62,92.49z"/>
		</g>
		<polygon class="st1" points="168.17,127.42 62.28,155.45 72.23,144.08 72.02,116.78 68.89,113.61 171.28,86.51 163.44,95.55 
			163.64,124.18 		"/>
		<g id="左边牙齿_5_">
			<g>
				<path class="st7" d="M38.77,121.17c-3.82,0-7.79-0.46-11.49-1.33c-3.56-0.84-6.57-2.01-8.5-3.3
					c-4.88-3.28-11.64-12.74-9.02-24.21c2.43-10.61,8.12-16.24,10.56-18.64c0.29-0.29,0.55-0.54,0.74-0.75
					c0.29-0.31,0.55-0.41,0.56-0.42l0.49-0.2l-0.31,0.42c-0.02,0.02-1.62,2.2-3.32,5.48c-1.56,3.02-3.51,7.62-3.95,12.36
					c-0.35,3.82,0.41,8.09,2.15,12.04c1.58,3.58,3.81,6.56,6.1,8.17c3.23,2.26,9,3.73,14.7,3.73c3.62,0,7.03-0.59,9.85-1.7
					c4.57-1.8,8.24-4.99,10.51-7.35c2.46-2.56,3.86-4.72,3.87-4.74l0.07-0.11l7.17,3.59l-0.09,0.14c-0.02,0.03-1.76,2.8-5.01,6.05
					c-3,3-7.93,7.04-14.39,9.24C46.52,120.64,42.81,121.17,38.77,121.17C38.77,121.17,38.77,121.17,38.77,121.17z"/>
			</g>
			<g>
				<path class="st4" d="M21.69,72.66c0,0-6.44,8.69-7.29,17.91c-0.77,8.36,3.77,17.16,8.32,20.34c3.18,2.23,8.92,3.75,14.79,3.75
					c3.41,0,6.88-0.52,9.91-1.71c8.9-3.5,14.46-12.15,14.46-12.15l6.91,3.45c0,0-6.85,10.99-19.32,15.23
					c-3.17,1.08-6.9,1.54-10.68,1.54c-7.89,0-16.02-2.01-19.9-4.61c-4.82-3.24-11.57-12.63-8.96-24.05
					c2.71-11.84,9.43-17.38,11.26-19.32C21.44,72.76,21.69,72.66,21.69,72.66 M22.56,71.99l-0.98,0.4
					c-0.03,0.01-0.31,0.13-0.62,0.45c-0.19,0.2-0.44,0.45-0.74,0.74c-1.23,1.21-3.28,3.25-5.32,6.28
					c-2.45,3.67-4.23,7.85-5.28,12.43c-1.48,6.47,0.11,11.88,1.71,15.29c0.94,1.99,2.12,3.85,3.51,5.5c1.23,1.47,2.57,2.7,3.86,3.57
					c1.94,1.3,4.97,2.48,8.54,3.32c3.7,0.87,7.69,1.34,11.52,1.34c4.05,0,7.78-0.54,10.77-1.55c2.87-0.97,5.68-2.39,8.35-4.2
					c2.13-1.45,4.19-3.16,6.1-5.07c3.26-3.26,5.01-6.05,5.03-6.08l0.17-0.28L68.9,104l-6.91-3.45l-0.24-0.12l-0.14,0.22
					c-0.01,0.02-1.41,2.18-3.86,4.73c-2.26,2.35-5.91,5.52-10.45,7.31c-2.81,1.1-6.19,1.69-9.8,1.69c-5.67,0-11.41-1.45-14.62-3.7
					c-2.28-1.59-4.48-4.55-6.05-8.11c-1.73-3.92-2.49-8.17-2.14-11.96c0.44-4.72,2.38-9.3,3.93-12.31c1.69-3.27,3.28-5.43,3.3-5.46
					L22.56,71.99L22.56,71.99z"/>
			</g>
		</g>
		<g>
			<defs>
				<path id="SVGID_1_" d="M61.86,100.81c0,0-5.56,8.66-14.46,12.15c-8.24,3.24-19.65,1.48-24.69-2.05
					c-4.55-3.19-9.09-11.98-8.32-20.34c0.85-9.22,7.29-17.91,7.29-17.91s-0.24,0.1-0.51,0.38c-1.83,1.94-8.55,7.48-11.26,19.32
					c-2.62,11.42,4.13,20.82,8.96,24.05c5.74,3.85,20.79,6.39,30.58,3.07c12.47-4.23,19.32-15.23,19.32-15.23L61.86,100.81z"/>
			</defs>
			<clipPath id="SVGID_2_">
				<use xlink:href="#SVGID_1_"  style="overflow:visible;"/>
			</clipPath>
			<g id="左牙1_3_" class="st8">
				<path class="st6" d="M64.16,103.11c0,0-4.11,8.72-13.31,12.03c-4.85,1.75-11.61,2.94-17.14,2.56
					c-5.89-0.4-11.27-3.01-14.46-5.25c-5.22-3.66-8.77-12.9-6.78-22.65c1.62-7.93,8.83-18.04,8.83-18.04S3.85,83.35,5.05,101.06
					c0.57,8.43,14.83,26.34,27.64,27.51c23.36,2.14,54.38-20.09,54.38-20.09L64.16,103.11z"/>
			</g>
		</g>
		<g id="左耳_9_">
			<g>
				<path class="st7" d="M72.51,84.29c-0.18-0.16-4.42-3.87-5.42-7.75c-0.38-1.45-0.37-3.24-0.36-5.12c0.01-1.72,0.01-3.5-0.28-5.12
					c-0.19-1.05-0.5-2.06-0.81-3.04c-0.56-1.79-1.08-3.47-0.86-5.32c0.33-2.7,2.15-4.88,3.92-6.99l0.21-0.25
					c2.93-3.51,6.13-6.13,6.16-6.16l0.02-0.02l0.03-0.01c0.01,0,0.19-0.06,0.5-0.06c0.42,0,1.1,0.1,1.92,0.58
					c0.38,0.22,0.63,0.57,0.88,0.9c0.2,0.27,0.4,0.55,0.68,0.78c0.98,0.8,2.26,1.38,2.27,1.39l0.11,0.05L72.7,84.45L72.51,84.29z"/>
			</g>
			<g>
				<path class="st4" d="M75.62,44.59c0.4,0,1.05,0.1,1.85,0.56c0.65,0.38,0.89,1.13,1.54,1.66c1,0.83,2.3,1.41,2.3,1.41l-8.7,35.95
					c0,0-4.37-3.79-5.37-7.68c-0.71-2.76-0.03-6.82-0.64-10.24c-0.52-2.93-2.01-5.47-1.66-8.32c0.34-2.77,2.32-5.04,4.09-7.16
					c2.95-3.54,6.14-6.14,6.14-6.14S75.33,44.59,75.62,44.59 M75.62,44.29c-0.33,0-0.52,0.06-0.54,0.06l-0.05,0.02l-0.04,0.04
					c-0.03,0.03-3.24,2.66-6.18,6.18l-0.21,0.25c-1.7,2.03-3.62,4.32-3.95,7.07c-0.23,1.88,0.3,3.58,0.86,5.38
					c0.3,0.97,0.62,1.98,0.8,3.02c0.29,1.62,0.28,3.39,0.28,5.1c-0.01,1.9-0.01,3.69,0.37,5.16c0.43,1.65,1.48,3.47,3.12,5.41
					c1.22,1.43,2.3,2.37,2.34,2.41l0.37,0.32l0.11-0.47l8.7-35.95l0.06-0.24l-0.23-0.1c-0.01-0.01-1.27-0.57-2.24-1.37
					c-0.26-0.22-0.46-0.49-0.65-0.75c-0.25-0.34-0.51-0.7-0.92-0.94C76.76,44.4,76.06,44.29,75.62,44.29L75.62,44.29z"/>
			</g>
		</g>
		<g>
			<defs>
				<path id="SVGID_3_" d="M79.01,46.81c-0.65-0.53-0.88-1.28-1.54-1.66c-1.38-0.8-2.3-0.51-2.3-0.51s-3.19,2.6-6.14,6.14
					c-1.77,2.12-3.76,4.4-4.09,7.16c-0.35,2.84,1.14,5.38,1.66,8.32c0.61,3.42-0.07,7.47,0.64,10.24c1,3.88,5.37,7.68,5.37,7.68
					l8.7-35.95C81.31,48.22,80.01,47.64,79.01,46.81z"/>
			</defs>
			<clipPath id="SVGID_4_">
				<use xlink:href="#SVGID_3_"  style="overflow:visible;"/>
			</clipPath>
			<g id="左耳_4_" class="st9">
				<path class="st6" d="M76.32,46.56c-1.3-0.28-2.37,2.22-6.78,6.4c-4.41,4.18,0.63,12.08-0.38,17.4c-0.81,4.24,1.97,8.13,3.2,9.6
					c1.23,1.46,9.08-31.35,9.08-31.35S77.62,46.84,76.32,46.56z"/>
			</g>
		</g>
		<g id="脑袋_x2B_鼻子_5_">
			<g>
				<path class="st7" d="M70.12,106.11c-3.17,0-6.15-0.97-8.86-2.88c-4.7-3.32-7.73-6.81-9.26-10.69c-0.98-2.48-1.45-5.19-1.9-7.81
					c-0.43-2.53-0.85-4.92-1.68-6.77c-1.98-4.36-5.73-4.9-5.77-4.9c-0.01,0-0.43-0.06-1.1-0.06c-1.05,0-2.65,0.14-4.32,0.82
					c-0.9,0.36-1.64,1.06-2.36,1.73c-0.91,0.86-1.77,1.66-2.85,1.66c-0.17,0-0.35-0.02-0.52-0.06c-0.24-0.06-0.4-0.25-0.45-0.54
					c-0.14-0.69,0.31-1.83,1.3-2.54c0.87-0.63,1.11-1.48,0.72-2.51c-0.23-0.6-1.06-0.8-1.93-1c-0.51-0.12-1.04-0.24-1.46-0.46
					c-1.18-0.61-1.91-1.66-1.9-2.01c0-0.08,0.05-0.15,0.12-0.18c0.02-0.01,0.05-0.01,0.08-0.01c0.08,0,0.17,0.04,0.4,0.14
					c0.57,0.24,1.75,0.74,3.39,0.74c0.42,0,0.86-0.03,1.29-0.1c0.94-0.15,1.98-0.35,3.08-0.56c2.87-0.55,6.12-1.18,9.28-1.18
					c2.54,0,4.64,0.4,6.41,1.24c3.56,1.67,6.08,6.39,8.3,10.55c2.18,4.08,4.24,7.94,6.79,7.94c0.34,0,0.69-0.07,1.04-0.2
					c3.69-1.42,3.87-7.54,3.74-13.16c-0.01-0.56,0.34-1.37,0.68-2.16c0.3-0.69,0.61-1.41,0.59-1.8c-0.04-0.85-0.6-1.92-1.2-3.06
					c-0.78-1.48-1.58-3-1.23-4.16c1.97-6.45,4.63-10.68,8.12-12.91c3.07-1.96,6.28-2.14,9.38-2.31c0.59-0.03,1.14-0.06,1.69-0.11
					c0.7-0.05,1.39-0.08,2.06-0.08c4.18,0,7.06,1.06,9.6,2c0.5,0.18,0.97,0.36,1.45,0.52c3.65,1.26,6.85,4.38,9.01,8.79
					c2.23,4.54,3.16,10.11,2.6,15.68c-0.29,2.87-1.02,6.26-2.02,9.3c-1.21,3.69-2.73,6.69-4.41,8.69c-1.1,1.32-2.66,1.99-4.03,2.59
					c-0.31,0.13-0.6,0.26-0.88,0.39c-2.82,1.32-4.9,5.02-4.92,5.06l-0.02,0.03l-0.03,0.02c-0.02,0.01-0.43,0.28-0.8,0.28
					c0,0,0,0,0,0c-0.17,0-0.32-0.06-0.42-0.18c-0.26-0.3-0.39-0.71-0.54-1.14c-0.39-1.15-0.82-2.46-3.59-2.78
					c-0.31-0.04-0.61-0.05-0.9-0.05c-3.02,0-3.74,1.93-3.8,2.11c-0.02,0.17-0.24,1.69-0.91,2.98c-0.64,1.24-1.67,2.13-2.46,2.13
					c-0.04,0-0.08,0-0.12-0.01c-0.88-0.1-0.91-0.56-0.94-0.96c-0.02-0.23-0.03-0.44-0.18-0.63c-0.13-0.16-0.3-0.25-0.5-0.25
					c-0.1,0-0.17,0.02-0.21,0.03c-0.19,0.16-1.57,1.28-3.67,2.39C77.03,104.8,73.78,106.11,70.12,106.11z"/>
			</g>
			<g>
				<path class="st4" d="M91.8,46.86c4.95,0,8.07,1.5,11.01,2.51c7.29,2.51,12.68,12.62,11.51,24.31
					c-0.52,5.22-2.72,13.52-6.4,17.91c-1.32,1.58-3.3,2.21-4.86,2.94c-2.9,1.35-4.99,5.12-4.99,5.12s-0.39,0.25-0.72,0.25
					c-0.12,0-0.23-0.03-0.31-0.12c-0.87-1.02-0.29-3.52-4.22-3.97c-0.32-0.04-0.63-0.05-0.91-0.05c-3.26,0-3.95,2.23-3.95,2.23
					s-0.21,1.61-0.9,2.94c-0.59,1.14-1.57,2.05-2.33,2.05c-0.04,0-0.07,0-0.1-0.01c-1.21-0.14-0.55-0.94-1.02-1.54
					c-0.19-0.24-0.43-0.3-0.61-0.3c-0.16,0-0.28,0.05-0.28,0.05s-5.58,4.77-12.59,4.77c-2.78,0-5.8-0.75-8.77-2.85
					c-3.01-2.12-7.24-5.64-9.21-10.62c-1.93-4.88-1.88-10.83-3.58-14.59c-2.04-4.5-5.89-4.99-5.89-4.99s-0.43-0.06-1.12-0.06
					c-1.04,0-2.67,0.14-4.38,0.83c-2.08,0.84-3.31,3.39-5.15,3.39c-0.16,0-0.32-0.02-0.48-0.06c-0.68-0.16-0.42-1.87,0.9-2.81
					c1.41-1.01,0.89-2.36,0.77-2.69c-0.41-1.06-2.34-0.96-3.45-1.54c-1.31-0.67-1.96-1.85-1.79-1.92c0,0,0.01,0,0.02,0
					c0.21,0,1.6,0.87,3.79,0.87c0.41,0,0.85-0.03,1.31-0.1c3.38-0.53,7.98-1.74,12.33-1.74c2.25,0,4.43,0.32,6.35,1.22
					c7.03,3.3,9.88,18.51,15.15,18.51c0.35,0,0.72-0.07,1.1-0.21c3.77-1.45,3.96-7.65,3.84-13.31c-0.02-1.03,1.32-3.09,1.28-3.97
					c-0.1-2.03-3.02-5.22-2.43-7.16c4.81-15.75,12.64-14.72,19.06-15.23C90.47,46.89,91.15,46.86,91.8,46.86 M91.8,46.56
					c-0.67,0-1.37,0.03-2.07,0.08c-0.55,0.04-1.11,0.07-1.69,0.11c-1.53,0.09-3.1,0.17-4.69,0.49c-1.81,0.36-3.37,0.96-4.76,1.85
					c-1.68,1.07-3.13,2.56-4.43,4.53c-1.44,2.19-2.71,5.04-3.75,8.46c-0.37,1.21,0.45,2.77,1.24,4.27c0.56,1.07,1.14,2.17,1.18,2.99
					c0.02,0.36-0.29,1.06-0.58,1.73c-0.35,0.8-0.71,1.63-0.7,2.22c0.06,2.8,0.05,5.73-0.45,8.16c-0.55,2.65-1.59,4.24-3.2,4.86
					c-0.33,0.13-0.67,0.19-0.99,0.19c-2.46,0-4.5-3.82-6.66-7.86c-1.14-2.13-2.31-4.33-3.66-6.24c-1.55-2.19-3.09-3.62-4.71-4.38
					c-1.79-0.84-3.91-1.25-6.47-1.25c-3.17,0-6.43,0.63-9.31,1.18c-1.1,0.21-2.13,0.41-3.07,0.56c-0.42,0.07-0.85,0.1-1.26,0.1
					c-1.61,0-2.77-0.49-3.33-0.73c-0.24-0.1-0.35-0.15-0.46-0.15c-0.05,0-0.09,0.01-0.13,0.03c-0.12,0.05-0.2,0.17-0.21,0.31
					c-0.02,0.45,0.81,1.54,1.98,2.14c0.44,0.22,0.97,0.35,1.49,0.47c0.83,0.19,1.62,0.38,1.82,0.91c0.37,0.97,0.15,1.75-0.66,2.34
					c-1.03,0.75-1.5,1.95-1.36,2.69c0.07,0.35,0.27,0.59,0.56,0.66c0.18,0.04,0.37,0.07,0.55,0.07c1.13,0,2.01-0.83,2.95-1.7
					c0.71-0.66,1.44-1.35,2.31-1.7c1.65-0.67,3.23-0.81,4.27-0.81c0.66,0,1.08,0.06,1.08,0.06l0,0l0,0c0.01,0,0.94,0.13,2.09,0.79
					c1.06,0.6,2.54,1.79,3.56,4.03c0.83,1.83,1.24,4.21,1.67,6.74c0.45,2.63,0.92,5.35,1.9,7.84c0.89,2.25,2.33,4.42,4.28,6.47
					c1.4,1.48,3.05,2.88,5.04,4.28c2.73,1.93,5.74,2.91,8.94,2.91c1.63,0,3.31-0.26,5.01-0.76c1.35-0.4,2.72-0.96,4.05-1.66
					c2.07-1.09,3.4-2.16,3.67-2.38c0.03-0.01,0.08-0.02,0.14-0.02c0.16,0,0.28,0.06,0.38,0.19c0.12,0.15,0.13,0.34,0.15,0.55
					c0.03,0.41,0.07,0.98,1.07,1.1c0.05,0.01,0.09,0.01,0.14,0.01c1,0,2.04-1.15,2.59-2.21c0.66-1.28,0.89-2.77,0.92-3.01
					c0.04-0.1,0.22-0.55,0.69-0.99c0.71-0.67,1.71-1.01,2.97-1.01c0.28,0,0.58,0.02,0.88,0.05c2.67,0.3,3.1,1.56,3.47,2.67
					c0.15,0.45,0.29,0.87,0.56,1.19c0.09,0.1,0.25,0.23,0.53,0.23c0.4,0,0.83-0.27,0.88-0.3l0.06-0.04l0.04-0.07
					c0.02-0.04,2.08-3.7,4.86-4.99c0.28-0.13,0.57-0.26,0.88-0.39c1.39-0.6,2.96-1.29,4.08-2.63c2.13-2.54,3.59-6.16,4.44-8.74
					c1-3.05,1.74-6.45,2.03-9.33c0.29-2.87,0.19-5.71-0.28-8.46c-0.45-2.62-1.24-5.07-2.33-7.3c-1.07-2.19-2.4-4.06-3.95-5.58
					c-1.57-1.54-3.31-2.65-5.15-3.28c-0.47-0.16-0.95-0.34-1.45-0.52C98.9,47.63,96,46.56,91.8,46.56L91.8,46.56z"/>
			</g>
		</g>
		<g>
			<defs>
				<path id="SVGID_5_" d="M102.8,49.37c-3.32-1.15-6.87-2.91-13.05-2.43c-6.42,0.5-14.26-0.53-19.06,15.23
					c-0.59,1.95,2.33,5.13,2.43,7.16c0.04,0.87-1.3,2.94-1.28,3.97c0.13,5.66-0.07,11.85-3.84,13.31c-6,2.31-8.75-14.77-16.25-18.3
					c-5.65-2.65-13.55-0.29-18.68,0.51c-3.02,0.47-4.95-0.84-5.12-0.77c-0.17,0.07,0.48,1.25,1.79,1.92
					c1.11,0.57,3.05,0.47,3.45,1.54c0.13,0.33,0.64,1.67-0.77,2.69c-1.31,0.95-1.58,2.65-0.9,2.81c2.11,0.51,3.38-2.41,5.63-3.33
					c2.85-1.15,5.5-0.77,5.5-0.77s3.84,0.49,5.89,4.99c1.71,3.76,1.65,9.7,3.58,14.59c1.97,4.97,6.2,8.49,9.21,10.62
					c10.48,7.4,21.37-1.92,21.37-1.92s0.53-0.21,0.9,0.26c0.48,0.6-0.19,1.39,1.02,1.54c0.77,0.09,1.82-0.85,2.43-2.05
					c0.69-1.33,0.9-2.94,0.9-2.94s0.82-2.63,4.86-2.18c3.93,0.45,3.35,2.94,4.22,3.97c0.29,0.34,1.02-0.13,1.02-0.13
					s2.09-3.76,4.99-5.12c1.56-0.73,3.54-1.37,4.86-2.94c3.68-4.39,5.88-12.69,6.4-17.91C115.48,61.99,110.09,51.89,102.8,49.37z"/>
			</defs>
			<clipPath id="SVGID_6_">
				<use xlink:href="#SVGID_5_"  style="overflow:visible;"/>
			</clipPath>
			<g id="脑袋加鼻子_3_" class="st10">
				<path class="st11" d="M89.88,97.86c-7.09-3.59-8.72,3.56-20.85,2.69C59.89,99.89,55.51,82.2,53.03,78.8
					c-3.5-4.82-6.47-6.72-8.81-7.32c0.07-1.67-0.22-2.64-0.22-2.64s-0.28,1.23-0.96,2.44c-0.37-0.03-0.71-0.04-1.04-0.02
					c-0.19-1.06-0.46-1.63-0.46-1.63s-0.06,0.77-0.34,1.73c-0.22,0.04-0.43,0.08-0.63,0.14C40.39,69.95,40,69.11,40,69.11
					s-0.12,1.43-0.72,2.8c-1.93,0.77-3.3,1.88-4.03,1.9c-1.9,0.04-0.73-2.42-2.18-2.94c-2.77-0.99-5.12-2.94-5.12-2.94
					s-2.41,17-2.18,18.17c0.24,1.17,18.85,14.88,18.81,17.53c-0.04,2.65,27.04,10.62,30.58,10.11
					C78.71,113.22,102.32,104.16,89.88,97.86z M122.25,92.49c-0.24-0.54-5.29-20.01-11.26-24.31c-3.2-2.3-9.1,9.04-9.21,9.21
					c-0.16,0.25,0.85,6.62-2.18,12.03c-1.49,2.66-3.58,5.43-3.71,7.93c-0.12,2.26,1.89,4.31,2.81,5.89
					C102.56,109.78,122.61,93.33,122.25,92.49z M66.19,86.53c0,0.07-0.01,0.14-0.01,0.22c-0.14,2-1.13,3.41-1.13,3.41
					s1.43-0.09,1.91-2.47c0.1-0.48,0.12-0.98,0.1-1.44c0.05-0.02,0.11-0.05,0.17-0.08c0.1,0.28,0.2,0.58,0.28,0.89
					c0.51,1.94,0.03,3.59,0.03,3.59s1.32-0.55,1.01-2.95c-0.07-0.53-0.22-1.04-0.41-1.5c0.08-0.11,0.15-0.22,0.23-0.32
					c0.76,1.18,0.9,2.39,0.9,2.39s0.65-0.89,0.3-2.2c0.44,0.18,0.92,0.43,1.38,0.78c1.36,1.03,1.66,2.81,1.66,2.81s1-1.73-0.38-3.33
					c-0.35-0.41-0.81-0.69-1.25-0.88c1.84,0.28,3.57,1.83,3.57,1.83s-0.99-2.51-2.54-3.25c-0.27-0.13-0.55-0.22-0.83-0.28
					c0-0.02-0.01-0.04-0.01-0.07c1.34-0.44,2.33-0.02,2.33-0.02s-1.26-1.54-2.46-1.69c0.05-2.3,0.9-4.54,1.81-5.36
					c1.87-1.7,4.8-1.04,4.8-1.04s-2.65-1.47-5.09-1.24c-4.78,0.44-3.75,4.8-2.42,7.91c-0.34,0.29-0.71,0.81-1.06,1.43
					c-0.44,0.05-0.72,0.12-0.72,0.12l-0.16,0.24c-0.4-0.33-0.83-0.58-1.18-0.75c0.02-0.38,0-0.62,0-0.62s-0.65-1.25-0.59-0.93
					c0.02,0.1,0.01,0.58-0.09,1.27c-0.05-0.02-0.08-0.03-0.08-0.03s-1.46,0.29-1.14,0.33c0.09,0.01,0.42,0.15,0.87,0.41
					c0.03,0.16,0.07,0.34,0.1,0.56c-0.08,0.3-0.17,0.61-0.28,0.93c-0.67,1.89-2,2.98-2,2.98S65.11,88.47,66.19,86.53z M68.04,85.86
					c-0.01,0.02-0.01,0.03-0.02,0.05c-0.01-0.01-0.01-0.03-0.02-0.04C68.01,85.87,68.03,85.86,68.04,85.86z M67.59,84.95l-0.04,0.06
					c-0.05-0.08-0.1-0.16-0.14-0.23C67.47,84.83,67.53,84.89,67.59,84.95z M67.06,85.74l-0.03,0.05c-0.01-0.06-0.01-0.12-0.02-0.18
					C67.03,85.66,67.05,85.7,67.06,85.74z M98.58,56.54c4.35-1.53,3.73-3.56,4.48-5.02c1.5,0.05,3.24,0.26,5.12,0.8
					c5.82,1.66,1.28-2.43,1.28-2.43s-1.02-0.11-2.37-0.17c5.93-0.84-8.38-3.54-8.38-3.54l-15.86,4.48
					C82.84,50.65,91.77,58.94,98.58,56.54z M81.05,89.29l4.61-1.41l1.92-4.61c0,0-2.88-3.48-6.4-3.58
					C77.66,79.6,81.05,89.29,81.05,89.29z M75.55,66.13c-1.33-3.76-1.19-6.52-0.22-8.82c0.32,0.81,0.52,1.87,0.49,3.26
					c0.33-1.2,0.62-3.58,0.4-4.93c1.58-2.46,4.08-4.47,6.49-6.91c4.99-5.04,0-4.22,0-4.22s-11.98,4.65-12.03,5.12
					c-0.05,0.46,0.9,12.67,0.9,12.67S73.24,61.34,75.55,66.13z"/>
			</g>
		</g>
		<g id="形状_48_拷贝_3_">
			<path class="st12" d="M75.51,62.63c-1.86-13.03-4.68-2.63-4.68-2.63s1.89-5,4.58,6.42c0.66,2.8,2.96,0.51,3.26,0.19
				C78.39,66.89,76.38,68.7,75.51,62.63z M78.67,66.61c0.02-0.02,0.03-0.04,0.03-0.04S78.69,66.58,78.67,66.61z"/>
		</g>
		<g id="形状_17_拷贝_2_3_">
			<path class="st11" d="M105.62,52.57c0,0-5.72-2.74-10.75,5.76c-0.28,0.47-1.1,3.69-0.26,2.94c2.1-1.86,3.93-1.92,4.99-0.51
				c0.28,0.37,0.53,1,0.65,1.82c0-0.01-0.01-0.02-0.01-0.03c-0.8-2.51-4.99-1.97-8.32,2.05c-3.55,4.3-6.02,5.65-7.67,5.79
				c-0.9-0.5-2.63-2.01-2.05-6.05c-0.57,1.42-1.31,4.61-0.84,5.62c0.11,1.07,0.43,2.53,1.36,3.21c0.85,0.63,2.76,0.52,4.35-0.64
				c6.43-4.69,12.67-5.37,12.67-5.37s0.08-0.15,0.19-0.42c-0.05,0.2-0.11,0.4-0.17,0.6c-0.56,1.79-0.65,3.61-3.21,6.09
				c-2.17,2.09-3.84,1.54-3.84,1.54s6.18,4.09,7.98,9.72c-0.37-0.23-0.91-0.46-1.69-0.65c-1.8-0.44-4.14,0.49-4.14,0.49
				s1.84-0.16,3.47,0.39c1.66,0.56,2.26,2.51,2.26,2.51l0.49-1.04c0.09,0.66,0.12,1.33,0.07,2.02c-0.41,5.19,8.44-18.17,8.44-18.17
				L105.62,52.57z M95.9,90.81c1.55,0.81,1.84,2.83,1.84,2.83l1.17-1.73c0,0-0.02-0.95-2.22-1.87c-1.71-0.72-4.16-0.16-4.16-0.16
				S94.37,90.01,95.9,90.81z M97.72,94.2c-1.57-0.99-4.08-0.86-4.08-0.86s1.79,0.43,3.17,1.48c1.39,1.06,1.34,3.1,1.34,3.1l1.44-1.5
				C99.59,96.41,99.73,95.47,97.72,94.2z M88.02,94.34c-0.02,0.01-0.05,0.02-0.07,0.02c0.12-1.13,0.21-2.33,0.39-3.39l0.21,0.41
				c0,0,0.53-1.97,2.17-2.59c1.62-0.61,3.46-0.51,3.46-0.51s-2.36-0.85-4.15-0.34c-0.21,0.06-0.4,0.12-0.58,0.19
				c0.74-1.23,1.19-2.37,1.38-3.41c0.29-0.26,0.57-0.52,0.85-0.8l0.02,0.06c0,0,0.03-0.07,0.1-0.18c0.36-0.37,0.7-0.77,0.99-1.17
				c0.41-0.35,0.93-0.65,1.56-0.75c1.71-0.27,3.49,0.19,3.49,0.19s-2.15-1.31-4-1.17c-0.05,0-0.09,0.01-0.14,0.01
				c0.44-1.39,0.07-2.81-1.89-4.02c-2.09-1.29-5.12-1.15-5.12-1.15s2.92,0.72,3.84,3.07c0.25,0.64,0.29,1.66,0.1,2.8
				c-0.52-1.39-1.62-2.43-3.05-3.06c0.55,2.02,0.47,3.39,0.09,4.5c-0.44-0.57-1.2-1.18-2.52-1.81c1.44,0.9,1.6,2.54,1.51,3.7
				c-0.48,0.68-1,1.34-1.42,2.13c-0.4-0.52-1-1.22-1.81-1.88c-1.4-1.15-3.51-1.26-3.51-1.26s1.85,1.14,2.9,2.63
				c0.65,0.92,0.84,2.27,0.9,3c-1.91,2.78-4.33,5.05-6.78,6.13c-0.04-0.66-0.15-1.61-0.47-2.65c-0.53-1.73-2.22-2.99-2.22-2.99
				s0.91,1.98,0.96,3.8c0.02,0.72-0.22,1.49-0.48,2.11c0.02-0.21,0.03-0.42,0.04-0.65c0.06-1.81-1.13-3.55-1.13-3.55
				s0.22,2.16-0.32,3.9c-0.08,0.27-0.21,0.53-0.35,0.78c-0.76,0.02-1.52,0-2.26-0.06c0.52-1.64,0.01-3.51,0.01-3.51
				s-0.44,1.91-1.41,3.35c-3.08-0.45-5.88-1.55-8.06-3.06c0.46-0.42,1-0.99,1.51-1.7c1.05-1.47,1.02-3.58,1.02-3.58
				s-1.01,1.92-2.43,3.07c-0.48,0.39-1.1,0.65-1.68,0.82c-0.47-0.53-0.88-1.1-1.24-1.66c0.67-0.41,1.35-0.94,1.77-1.59
				c1.33-2.07,1.54-3.58,1.54-3.58s-1.15,1.49-2.69,2.3c-0.58,0.3-1.24,0.45-1.89,0.49c-0.1-0.23-0.16-0.37-0.16-0.37
				s0.02,0.13,0.07,0.37c-1.61,0.1-3.14-0.37-3.14-0.37l2.43,3.71c0,0,0.67-0.22,1.47-0.63c0.18,0.5,0.39,1.03,0.65,1.59
				c-0.35,0.05-0.58,0.07-0.58,0.07l1.04,0.86c2.97,5.71,10.26,12.8,27.5,5.66c0.78-0.32,1.13-1.43,1.34-2.82
				c0.31-0.28,0.7-0.53,1.17-0.72c1.93-0.76,4.19-0.85,4.19-0.85S90.16,93.67,88.02,94.34z M98.28,86.86
				c-1.77-0.57-4.16,0.19-4.16,0.19s1.84-0.03,3.44,0.64c1.62,0.68,2.07,2.67,2.07,2.67l1.02-1.82
				C100.65,88.54,100.55,87.59,98.28,86.86z"/>
		</g>
		<g id="右耳_7_">
			<g>
				<path class="st7" d="M118.81,101.79c-0.03-0.01-2.87-0.54-3.8-3.15c-0.34-0.94-0.32-1.78-0.31-2.67
					c0.01-0.69,0.02-1.39-0.12-2.21c-0.43-2.35-0.9-2.6-1.28-2.81c-0.37-0.2-0.62-0.4-0.74-1.34l0-0.01l0-0.01
					c0.01-4.27-1.42-6.92-2.63-8.4c-1.3-1.59-2.61-2.18-2.62-2.19l-0.07-0.03L102.5,52.1l0.16-0.02c0.05-0.01,4.89-0.58,9.21-3.35
					c1.16-0.74,2.34-1.59,3.48-2.41c3.88-2.8,7.9-5.7,12.78-5.7c0.88,0,1.78,0.1,2.67,0.29c5.02,1.08,7.69,4.91,10.52,8.97
					c0.82,1.17,1.66,2.38,2.56,3.51c1.41,1.77,3.07,3.38,4.54,4.81c0.77,0.75,1.51,1.46,2.16,2.15c3.17,3.33,4.59,7.35,4.6,7.39
					l0.1,0.3l-0.29-0.11c-0.02-0.01-1.54-0.56-3-0.68c-0.22-0.02-0.44-0.02-0.68-0.02c-0.84,0-1.6,0.11-2.02,0.18
					c0.63,0.49,2.17,1.81,2.76,3.39c1,2.69,0.56,6.03,0.56,6.06l-0.01,0.05l-0.04,0.04c-0.03,0.03-3.02,2.77-5.42,4.28
					c-0.1,0.07-0.22,0.1-0.33,0.1h0c-0.33,0-0.62-0.27-0.87-0.51c-0.19-0.18-0.38-0.36-0.52-0.36c-0.03,0-0.08,0.01-0.15,0.1
					c-0.44,0.57-0.1,1.65,0.23,2.7c0.23,0.71,0.44,1.38,0.44,1.94c0,1.48-1.39,2.05-1.52,2.1l-4.99,2.41l-0.07-0.1
					c-0.01-0.02-1.26-1.66-3.05-2.43c-0.58-0.25-1.06-0.69-1.45-1.15c0.34,0.93,0.71,2.14,0.89,3.4c0.43,2.94,0.06,6.18,0.06,6.21
					l-0.01,0.07l-0.06,0.04c-0.03,0.02-0.84,0.48-1.68,0.48c-0.05,0-0.1,0-0.15-0.01c-0.28-0.02-0.53-0.16-0.77-0.29
					c-0.22-0.12-0.43-0.24-0.64-0.24c-0.08,0-0.16,0.02-0.24,0.06c-0.31,0.16-0.4,0.66-0.48,1.14c-0.07,0.41-0.15,0.84-0.37,1.11
					c-0.68,0.85-2.34,2.34-2.41,2.4l-0.22,0.2l-0.03-0.3c0-0.04-0.32-3.56-1.83-4.76c-0.1-0.08-0.2-0.2-0.31-0.33
					c-0.15-0.18-0.34-0.41-0.49-0.44c-0.02,0-0.03,0-0.05,0c-0.11,0-0.24,0.06-0.36,0.12c-0.15,0.07-0.3,0.14-0.46,0.14
					c-0.05,0-0.1-0.01-0.15-0.02c-0.54-0.18-0.99-0.42-1.26-0.58c0.09,0.71,0.28,2.45,0.05,3.97c-0.26,1.77-1.18,3.1-1.22,3.16
					l-0.1,0.15l-0.13-0.13c0,0-0.32-0.32-0.79-0.52c-0.14-0.06-0.3-0.1-0.46-0.14c-0.3-0.07-0.63-0.16-0.91-0.37
					c-0.47-0.36-0.82-0.84-1.02-1.18l-0.3,2.44L118.81,101.79z"/>
			</g>
			<g>
				<path class="st4" d="M128.12,40.77c0.85,0,1.73,0.09,2.64,0.29c6.45,1.39,9.07,7.5,13,12.43c2.14,2.69,4.78,4.93,6.71,6.96
					c3.18,3.35,4.57,7.34,4.57,7.34s-1.54-0.57-3.04-0.69c-0.23-0.02-0.46-0.03-0.69-0.03c-1.28,0-2.38,0.24-2.38,0.24
					s2.25,1.57,2.98,3.53c1,2.69,0.55,5.99,0.55,5.99s-2.98,2.75-5.39,4.26c-0.09,0.05-0.17,0.08-0.25,0.08
					c-0.51,0-0.98-0.87-1.4-0.87c-0.09,0-0.18,0.05-0.27,0.16c-0.8,1.02,0.64,3.34,0.64,4.73c0,1.46-1.43,1.96-1.43,1.96l-4.88,2.36
					c0,0-1.26-1.68-3.11-2.48c-1.17-0.5-1.95-1.84-2.24-2.42c-0.08-0.17-0.13-0.27-0.13-0.27s0.04,0.1,0.13,0.27
					c0.32,0.7,1.16,2.69,1.48,4.82c0.44,2.95,0.06,6.17,0.06,6.17s-0.79,0.46-1.61,0.46c-0.05,0-0.09,0-0.14,0
					c-0.51-0.03-0.94-0.52-1.42-0.52c-0.1,0-0.2,0.02-0.31,0.08c-0.65,0.33-0.45,1.73-0.9,2.29c-0.68,0.85-2.39,2.38-2.39,2.38
					s-0.31-3.61-1.88-4.86c-0.25-0.2-0.55-0.74-0.86-0.8c-0.03-0.01-0.05-0.01-0.08-0.01c-0.28,0-0.56,0.27-0.82,0.27
					c-0.04,0-0.07-0.01-0.1-0.02c-0.88-0.3-1.5-0.73-1.5-0.73s0.38,2.33,0.09,4.24c-0.26,1.75-1.19,3.1-1.19,3.1
					s-0.33-0.34-0.83-0.55c-0.4-0.17-0.94-0.18-1.34-0.49c-0.77-0.59-1.2-1.54-1.2-1.54l-0.33,2.74c0,0-2.78-0.5-3.69-3.05
					c-0.59-1.64-0.08-2.96-0.42-4.85c-0.76-4.19-1.73-1.95-2.02-4.15c0.02-8.35-5.34-10.73-5.34-10.73l-4.7-26.64
					c0,0,4.87-0.55,9.27-3.37C117,45.63,121.84,40.77,128.12,40.77 M128.12,40.48L128.12,40.48c-4.93,0-8.96,2.91-12.86,5.72
					c-1.14,0.82-2.31,1.67-3.47,2.41c-4.3,2.75-9.1,3.32-9.15,3.33l-0.31,0.04l0.05,0.31l4.7,26.64l0.03,0.16l0.14,0.06
					c0.01,0.01,1.31,0.6,2.59,2.18c1.18,1.46,2.58,4.07,2.57,8.28l0,0.02l0,0.02c0.13,1.01,0.42,1.24,0.81,1.45
					c0.35,0.19,0.79,0.43,1.2,2.71c0.15,0.8,0.13,1.5,0.12,2.18c-0.02,0.9-0.03,1.75,0.32,2.72c0.4,1.11,1.2,2.03,2.32,2.64
					c0.84,0.46,1.56,0.59,1.59,0.6l0.31,0.06l0.04-0.31l0.23-1.88c0.21,0.29,0.49,0.62,0.83,0.88c0.31,0.23,0.66,0.32,0.97,0.4
					c0.16,0.04,0.31,0.08,0.44,0.13c0.44,0.19,0.74,0.48,0.74,0.49l0.25,0.25l0.2-0.29c0.04-0.06,0.97-1.42,1.24-3.22
					c0.2-1.35,0.08-2.88-0.01-3.72c0.27,0.14,0.62,0.31,1.03,0.45c0.06,0.02,0.13,0.03,0.2,0.03c0.19,0,0.37-0.08,0.52-0.16
					c0.11-0.05,0.22-0.11,0.3-0.11c0.01,0,0.01,0,0.02,0c0.1,0.02,0.3,0.26,0.4,0.39c0.11,0.14,0.22,0.26,0.33,0.35
					c1.45,1.16,1.77,4.62,1.77,4.65l0.05,0.59l0.44-0.39c0.07-0.06,1.74-1.56,2.42-2.42c0.24-0.3,0.32-0.74,0.4-1.17
					c0.08-0.45,0.17-0.92,0.41-1.04c0.06-0.03,0.11-0.04,0.17-0.04c0.16,0,0.36,0.11,0.57,0.22c0.24,0.13,0.52,0.28,0.83,0.3
					c0.05,0,0.11,0.01,0.16,0.01c0.89,0,1.72-0.48,1.76-0.5l0.13-0.07l0.02-0.15c0.02-0.13,0.38-3.29-0.06-6.25
					c-0.15-0.99-0.4-1.95-0.67-2.77c0.3,0.28,0.64,0.52,1.02,0.68c1.76,0.76,2.98,2.37,2.99,2.38l0.15,0.2l0.22-0.11l4.87-2.35
					c0.18-0.07,1.61-0.66,1.61-2.23c0-0.58-0.22-1.26-0.44-1.99c-0.32-1.01-0.65-2.06-0.26-2.57c0.02-0.03,0.04-0.04,0.04-0.04
					c0.08,0.01,0.3,0.21,0.42,0.32c0.28,0.26,0.59,0.55,0.98,0.55c0.14,0,0.28-0.04,0.41-0.12c2.41-1.51,5.41-4.27,5.44-4.3
					l0.08-0.07l0.01-0.11c0.02-0.14,0.44-3.41-0.57-6.13c-0.53-1.43-1.81-2.64-2.54-3.25c0.43-0.06,1.02-0.12,1.67-0.12
					c0.23,0,0.45,0.01,0.66,0.02c1.44,0.11,2.94,0.66,2.96,0.67l0.59,0.22l-0.21-0.59c-0.01-0.04-0.36-1.04-1.11-2.45
					c-0.69-1.31-1.86-3.24-3.52-4.99c-0.66-0.69-1.39-1.4-2.17-2.15c-1.47-1.42-3.13-3.03-4.53-4.79c-0.9-1.13-1.74-2.34-2.56-3.51
					c-1.36-1.95-2.77-3.97-4.43-5.59c-1.88-1.83-3.9-2.95-6.18-3.44C129.93,40.58,129.02,40.48,128.12,40.48L128.12,40.48z"/>
			</g>
		</g>
		<g>
			<defs>
				<path id="SVGID_7_" d="M148.94,67.33c0,0,1.51-0.34,3.07-0.22c1.5,0.11,3.04,0.69,3.04,0.69s-1.39-3.99-4.57-7.34
					c-1.93-2.03-4.57-4.28-6.71-6.96c-3.93-4.93-6.55-11.04-13-12.43c-7.61-1.64-13.08,4.13-18.82,7.8
					c-4.41,2.82-9.27,3.37-9.27,3.37l4.7,26.64c0,0,5.36,2.38,5.34,10.73c0.29,2.2,1.25-0.04,2.02,4.15
					c0.34,1.89-0.16,3.22,0.42,4.85c0.91,2.55,3.69,3.05,3.69,3.05l0.33-2.74c0,0,0.44,0.95,1.2,1.54c0.41,0.31,0.94,0.32,1.34,0.49
					c0.5,0.21,0.83,0.55,0.83,0.55s0.93-1.35,1.19-3.1c0.29-1.91-0.09-4.24-0.09-4.24s0.62,0.43,1.5,0.73c0.3,0.1,0.66-0.31,1-0.24
					c0.31,0.06,0.61,0.6,0.86,0.8c1.57,1.25,1.88,4.86,1.88,4.86s1.71-1.53,2.39-2.38c0.44-0.56,0.24-1.96,0.9-2.29
					c0.6-0.3,1.11,0.41,1.72,0.45c0.87,0.06,1.75-0.46,1.75-0.46s0.38-3.22-0.06-6.17c-0.32-2.17-1.18-4.18-1.49-4.86
					c-0.07-0.14-0.11-0.24-0.11-0.24s0.04,0.09,0.11,0.24c0.27,0.55,1.05,1.94,2.25,2.45c1.86,0.8,3.11,2.48,3.11,2.48l4.88-2.36
					c0,0,1.43-0.51,1.43-1.96c0-1.39-1.44-3.71-0.64-4.73c0.53-0.68,1.19,1.1,1.92,0.64c2.41-1.52,5.39-4.26,5.39-4.26
					s0.44-3.3-0.55-5.99C151.19,68.9,148.94,67.33,148.94,67.33z"/>
			</defs>
			<clipPath id="SVGID_8_">
				<use xlink:href="#SVGID_7_"  style="overflow:visible;"/>
			</clipPath>
			<g id="右耳1_3_" class="st13">
				<path class="st6" d="M151.29,65.49c-8.64-4.14-11.61-15.45-23.8-19.7c-5.39-1.88-11.38,3.33-15.86,5.12
					c-5.67,2.26-8.96,1.41-8.96,1.41L102.29,71l8.7,34.67c0,0,12.53,3.48,22.9-1.41c9.83-4.64,25.59-18.68,25.59-18.68
					S165.01,72.06,151.29,65.49z"/>
			</g>
		</g>
		<g>
			<defs>
				<path id="SVGID_9_" d="M148.94,67.33c0,0,1.51-0.34,3.07-0.22c1.5,0.11,3.04,0.69,3.04,0.69s-1.39-3.99-4.57-7.34
					c-1.93-2.03-4.57-4.28-6.71-6.96c-3.93-4.93-6.55-11.04-13-12.43c-7.61-1.64-13.08,4.13-18.82,7.8
					c-4.41,2.82-9.27,3.37-9.27,3.37l4.7,26.64c0,0,5.36,2.38,5.34,10.73c0.29,2.2,1.25-0.04,2.02,4.15
					c0.34,1.89-0.16,3.22,0.42,4.85c0.91,2.55,3.69,3.05,3.69,3.05l0.33-2.74c0,0,0.44,0.95,1.2,1.54c0.41,0.31,0.94,0.32,1.34,0.49
					c0.5,0.21,0.83,0.55,0.83,0.55s0.93-1.35,1.19-3.1c0.29-1.91-0.09-4.24-0.09-4.24s0.62,0.43,1.5,0.73c0.3,0.1,0.66-0.31,1-0.24
					c0.31,0.06,0.61,0.6,0.86,0.8c1.57,1.25,1.88,4.86,1.88,4.86s1.71-1.53,2.39-2.38c0.44-0.56,0.24-1.96,0.9-2.29
					c0.6-0.3,1.11,0.41,1.72,0.45c0.87,0.06,1.75-0.46,1.75-0.46s0.38-3.22-0.06-6.17c-0.32-2.17-1.18-4.18-1.49-4.86
					c-0.07-0.14-0.11-0.24-0.11-0.24s0.04,0.09,0.11,0.24c0.27,0.55,1.05,1.94,2.25,2.45c1.86,0.8,3.11,2.48,3.11,2.48l4.88-2.36
					c0,0,1.43-0.51,1.43-1.96c0-1.39-1.44-3.71-0.64-4.73c0.53-0.68,1.19,1.1,1.92,0.64c2.41-1.52,5.39-4.26,5.39-4.26
					s0.44-3.3-0.55-5.99C151.19,68.9,148.94,67.33,148.94,67.33z"/>
			</defs>
			<clipPath id="SVGID_10_">
				<use xlink:href="#SVGID_9_"  style="overflow:visible;"/>
			</clipPath>
			<g id="右耳2_3_" class="st14">
				<path class="st15" d="M144,86.09c-0.77,1.1-2.78,1.95-4.11,2.42c-2.37-2.71-5.49-3.44-5.49-3.44s0.6,2.64,0.77,5.12
					c0.15,2.26-0.13,4.37-0.13,4.61c0.01,0.49-1.49,0.36-2.56,0.13c-1.07-0.23-1.41,2.05-1.41,2.05l-1.87,2.26
					c0.15-0.86,0.18-1.97-0.44-2.64c-1.05-1.14-2.69-1.92-2.69-1.92l2.56,5.24l0,0l0.51,2.18l6.65-3.07l2.69-8.32l-1.96-2.7
					c1.67,1.69,3.75,3.46,3.75,3.46s0.87-0.1,0.77-0.95c0.96,0.15,2.17,0.32,2.56,0.31c0.67-0.01,4.09-4.09,4.09-4.09l-2.56-5.89
					C145.15,80.85,145.19,84.39,144,86.09z M122.89,98.89c-0.5,1.51-1.28,2.05-1.28,2.05l1.02,1.92l3.2-4.09l-2.05-4.48
					C123.79,94.28,123.47,97.1,122.89,98.89z M118.54,100.42c-0.26,0.71-0.38,1.41-0.38,1.41l1.41,0.38l-0.38-3.2
					C119.18,99.01,118.79,99.72,118.54,100.42z M154.24,76.62l-2.43-8.06l-2.81-1.15c0,0,1.84,2.13,2.56,4.86
					c0.68,2.58,0.26,5.76,0.26,5.76L154.24,76.62z"/>
			</g>
		</g>
		<g id="右边牙齿_5_">
			<g>
				<path class="st7" d="M85.5,113.39c-1.96,0-3.8-0.83-5.47-2.47c-3.7-3.63-4.09-11.04-4.54-19.64
					c-0.41-7.86-0.88-16.77-4.15-23.77c-3.15-6.74-8.58-11.09-12.58-13.56c-4.36-2.69-8.02-3.79-8.05-3.8l-2.27-0.67l2.33-0.41
					c0.04-0.01,1.1-0.19,2.82-0.19c4.24,0,12.32,1.11,18.81,8.56c4.07,4.67,6.89,10.05,8.63,16.43c1.5,5.49,1.95,10.79,2.35,15.47
					c0.36,4.22,0.67,7.86,1.66,10.49c0.55,1.45,0.91,1.67,0.98,1.7c0.07-0.04,0.49-0.35,0.96-2.17c0.29-1.12,0.44-2.21,0.45-2.23
					l0.03-0.23l0.18-0.14c0.09-0.07,2.28-1.71,4.62-1.71c0.27,0,0.54,0.02,0.8,0.07c2.14,0.38,3.33,1.55,3.96,2.47
					c0.67,1,0.84,1.91,0.85,1.95l0.02,0.11l-0.02,0.11c-0.06,0.26-1.44,6.41-5.53,10.39C91.08,111.37,88.54,113.39,85.5,113.39
					C85.5,113.39,85.5,113.39,85.5,113.39z"/>
			</g>
			<g>
				<path class="st4" d="M53.58,49.45c4.09,0,12.03,1.07,18.39,8.37c13.18,15.14,9.3,33.64,12.54,42.22c0.57,1.5,1.07,2.06,1.5,2.06
					c1.28,0,1.95-4.88,1.95-4.88s2.11-1.59,4.29-1.59c0.23,0,0.47,0.02,0.7,0.06c3.78,0.66,4.35,3.97,4.35,3.97
					s-1.36,6.2-5.37,10.11c-1.66,1.62-3.95,3.07-6.43,3.07c-1.65,0-3.38-0.64-5.08-2.31c-6.94-6.8-1.79-28.72-8.57-43.24
					c-6.22-13.3-20.98-17.66-20.98-17.66S51.89,49.45,53.58,49.45 M53.58,48.34c-1.76,0-2.87,0.19-2.91,0.2l-4.68,0.82l4.55,1.34
					c0.04,0.01,3.65,1.1,7.95,3.75c3.93,2.43,9.26,6.71,12.34,13.31c3.23,6.9,3.69,15.76,4.1,23.56c0.22,4.22,0.43,8.2,1.04,11.61
					c0.71,3.97,1.87,6.64,3.67,8.4c1.78,1.74,3.75,2.62,5.86,2.62c1.33,0,2.69-0.36,4.04-1.06c1.1-0.57,2.17-1.36,3.17-2.33
					c1.78-1.73,3.27-4.05,4.45-6.89c0.87-2.1,1.22-3.71,1.24-3.77l0.05-0.21l-0.04-0.21c-0.02-0.11-0.2-1.09-0.93-2.17
					c-0.68-1.01-1.99-2.29-4.32-2.7c-0.29-0.05-0.59-0.08-0.9-0.08c-2.52,0-4.86,1.75-4.96,1.82l-0.37,0.28l-0.06,0.46
					c0,0.01-0.13,0.92-0.37,1.91c-0.19,0.8-0.38,1.31-0.52,1.62c-0.11-0.21-0.26-0.52-0.42-0.96c-0.97-2.56-1.27-6.16-1.63-10.34
					c-0.4-4.7-0.85-10.03-2.36-15.57c-1.76-6.47-4.62-11.91-8.75-16.65C66.18,49.47,57.92,48.34,53.58,48.34L53.58,48.34z"/>
			</g>
		</g>
		<g>
			<defs>
				<path id="SVGID_11_" d="M92.95,95.69c-2.4-0.42-4.99,1.54-4.99,1.54s-1.22,8.74-3.45,2.81c-3.24-8.58,0.65-27.08-12.54-42.22
					c-8.98-10.32-21.11-8.19-21.11-8.19s14.77,4.35,20.98,17.66c6.79,14.52,1.63,36.45,8.57,43.24c4.26,4.17,8.75,1.92,11.51-0.77
					c4.02-3.91,5.37-10.11,5.37-10.11S96.73,96.35,92.95,95.69z"/>
			</defs>
			<clipPath id="SVGID_12_">
				<use xlink:href="#SVGID_11_"  style="overflow:visible;"/>
			</clipPath>
			<g id="左牙_3_" class="st16">
				<path class="st6" d="M94.49,93.77c0,0-3.01,13.66-8.57,12.54c-4.84-0.98-7.87-12.59-9.6-30.83
					c-2.24-23.62-28.15-26.36-28.15-26.36l19.96,22.9l4.09,34.42c0,0,16.95,14.23,17.91,13.69c0.96-0.54,11.77-23.93,11.77-23.93
					L94.49,93.77z"/>
			</g>
		</g>
		<g id="形状_97_3_">
			<path class="st12" d="M18.49,111.55c-3.31-2.78-5.12-6.91-5.12-6.91s1.39,4.4,4.99,7.42c3.56,2.99,9.34,4.61,9.34,4.61
				S22.31,114.76,18.49,111.55z"/>
		</g>
		<g id="形状_25_拷贝_3_">
			<path class="st6" d="M111.63,50.91c-5.67,2.26-9.24,1.24-9.24,1.24s-8.84,39.39,20.25,28.18
				C126.64,78.79,104.89,53.6,111.63,50.91z"/>
		</g>
		<g id="形状_49_3_">
			<path class="st4" d="M105.23,49.63c-0.99,1.45-4.48,2.81-4.48,2.81s1.47-0.08,2.94-0.38c1.33-0.27,2.69-0.77,2.69-0.77
				S106.3,48.08,105.23,49.63z"/>
		</g>
		<g id="形状_49_拷贝_3_">
			<path class="st4" d="M111.63,83.28c-0.97-1.5-2.05-2.18-2.05-2.18s2.16,2.43,0.64,7.04c-0.63,1.9,2.36-0.16,2.36-0.16
				S112.51,84.63,111.63,83.28z"/>
		</g>
		<g id="形状_8_3_">
			<g>
				<path class="st2" d="M91.56,74.24c-3.18,0-4.67-2.92-4.69-2.95l-0.06-0.12l0.11-0.07c0.03-0.02,3.07-2.07,5.41-4.69
					c1.58-1.77,4.41-3.05,4.53-3.11l0.12-0.05l0.07,0.11c0.07,0.11,1.66,2.62,1.01,5.53c-0.41,1.83-1.63,3.4-3.62,4.64l-0.01,0
					l-0.01,0C93.42,74.01,92.46,74.24,91.56,74.24C91.56,74.24,91.56,74.24,91.56,74.24z"/>
			</g>
			<g>
				<path class="st4" d="M96.92,63.45c0,0,3.84,5.96-2.57,9.96c-1.05,0.49-1.98,0.68-2.79,0.68c-3.12,0-4.56-2.87-4.56-2.87
					s3.06-2.05,5.44-4.71C94.02,64.75,96.92,63.45,96.92,63.45 M97.03,63.07l-0.23,0.1c-0.12,0.05-2.97,1.35-4.58,3.14
					c-2.33,2.6-5.35,4.64-5.38,4.66l-0.22,0.15l0.12,0.23c0.02,0.03,0.39,0.77,1.17,1.51c1.04,0.99,2.3,1.51,3.65,1.51
					c0.92,0,1.91-0.24,2.92-0.71l0.02-0.01l0.02-0.01c2.03-1.27,3.27-2.86,3.69-4.73c0.66-2.96-0.96-5.53-1.03-5.64L97.03,63.07
					L97.03,63.07z"/>
			</g>
		</g>
		<g id="形状_52_3_">
			<path class="st12" d="M98.2,65.24c-0.47-1.5-0.26,0.13-0.26,0.13s0.71,5.94-4.22,7.93c-4.33,1.75-6.53-1.54-6.53-1.54l-0.26,0.26
				c0,0,0.31,0.94,1.92,1.79c1.65,0.87,2.76,0.73,3.84,0.64c1.08-0.09,3.78-0.92,5.12-3.33C98.83,69.3,98.66,66.74,98.2,65.24z"/>
		</g>
		<g id="形状_48_3_">
			<path class="st12" d="M81.97,69.39c-0.01-0.04-0.02-0.06-0.02-0.06S81.96,69.35,81.97,69.39z M90.52,67.67
				c-6.53,6.18-8.34,2.26-8.55,1.72c0.22,0.58,2.07,5.19,5.48,2.5c13.8-10.88,12.41-4.22,12.41-4.22S104.44,54.49,90.52,67.67z"/>
		</g>
		<g id="形状_41_3_">
			<path class="st12" d="M145.79,68.44c-3.43-1.59-6.76-2.42-13.18-11.39c-8.4-11.74-23.8,1.15-23.8,1.15s6.45,3.7,4.22,9.98
				c-2.55,7.17-1.99,8.29-0.51,12.92c1.39,4.36,6.63-2.98,9.34,0.26c3.92,4.69,5.5,9.34,5.5,9.34s5.17-2.74,4.99-6.91
				c-0.15-3.32,4.22-5.26,4.09-7.55c4.61,0.48,5.53,1.42,6.4,1.66c2.26,0.63,3.45,1.28,3.45,1.28s3.93-1.81,4.73-2.56
				C148.86,69.12,147.46,69.21,145.79,68.44z"/>
		</g>
		<g id="形状_56_3_">
			<path class="st12" d="M54.06,88.78c0,0-1.25,1.38,0.13,1.92c0.76,0.26,2.5-0.6,3.2-1.92C55.56,90.04,54.06,88.78,54.06,88.78z"/>
		</g>
		<g id="形状_56_拷贝_3_">
			<path class="st12" d="M56.17,93.24c0,0-1.29,2.25,0.77,2.54c1.13,0.11,3.25-1.6,3.81-3.59C58.63,94.46,56.17,93.24,56.17,93.24z"
				/>
		</g>
		<g id="形状_56_拷贝_2_3_">
			<path class="st12" d="M64.4,98.99c0,0-1.04,3.16,1.63,3c1.45-0.15,3.68-2.86,3.86-5.51C67.81,99.89,64.4,98.99,64.4,98.99z"/>
		</g>
		<g id="形状_56_拷贝_3_3_">
			<path class="st12" d="M74.03,95.92c-1,3.87-4.53,4-4.53,4s-0.08,3.33,2.43,2.4C73.28,101.75,74.63,98.52,74.03,95.92z"/>
		</g>
		<g id="形状_57_3_">
			<path class="st12" d="M97.17,50.4l-10.11,2.3c0,0,3.2,2.06,6.53,1.66c3.32-0.4,8.59-2.84,10.36-4.48
				C102.06,48.51,97.17,50.4,97.17,50.4z"/>
		</g>
		<g id="形状_58_3_">
			<path class="st12" d="M117.39,78.42l-4.35,3.71c0,0,1.56,2.03,2.3,4.99c1.24,4.91,1.92,11.77,1.92,11.77s0.99-6.62,1.02-12.41
				C118.31,82.29,117.39,78.42,117.39,78.42z"/>
		</g>
		<g id="形状_42_3_">
			<path class="st12" d="M110.22,74.45c1.1-3.83,2.49-7.68,1.79-9.85c-0.81-2.53-2.56-2.3-2.56-2.3s-0.44-1.22-0.13,6.27
				c0.27,6.59-9.37-3.31-6.78,12.92c1.56,9.77-5.76,14.2-5.76,14.2s1.42,0.46,1.66,2.18c1.54-2.29,3.75-4.48,7.42-6.4
				c5.1-2.67,2.48-9.96,4.22-13.05C110.8,77.16,109.84,75.79,110.22,74.45z"/>
		</g>
		<g id="形状_43_3_">
			<path class="st12" d="M125.12,81.02c0,0-3.01,0.79-2,1.23c1.01,0.44,3.34,2.68,4.94,11.39
				C129.05,89.66,125.12,81.02,125.12,81.02z"/>
		</g>
		<g id="形状_45_3_">
			<path class="st12" d="M91.67,78.8c0.03,1.76,0.43,2.17-0.64,3.84c-0.75,1.17-1.92-1.15-1.92-1.15s-0.12,1.92-2.05,3.84
				c-2.2,2.19-2.94,4.73-2.94,4.73s0.33,4.35,0.77,6.65c0.52,2.72,1.15,3.45,1.15,3.45s0.08-0.39,0.38-1.41
				c0.3-3.45-0.74-10.17,3.07-13.56C93.31,81.8,92.49,80.48,91.67,78.8z"/>
		</g>
		<g id="形状_46_3_">
			<path class="st12" d="M75.66,101.41c-0.16-1.06-0.34-2.29-0.34-2.29s-14.13,4.79-21.65-12c-2.31-4.9-3.07-7.55-3.07-7.55
				s0.02,6.79,3.07,12.92c1.6,3.21,4.21,6.04,6.72,8.07c6.57,5.31,15.6,3.01,15.6,3.01S75.84,102.57,75.66,101.41z"/>
		</g>
		<g id="形状_55_3_">
			<path class="st12" d="M63.91,104.9c0,0-5.39,14.44-30.07,13.95c-18.18-0.37-22.65-12.92-22.65-12.92s1.41,6.5,9.21,10.75
				c5.35,2.92,12.86,3.92,19.32,3.97c6.69,0.04,12.32-2.05,17.91-5.89c5.31-3.65,8.7-8.83,8.7-8.83L63.91,104.9z"/>
		</g>
		<g id="形状_44_3_">
			<path class="st12" d="M130.82,53.08c-4.6-1.2-9.21-0.9-9.21-0.9s-0.49,5.44,7.8,3.45c2.79-0.67,11.77,2.3,11.77,2.3
				S135.74,54.37,130.82,53.08z"/>
		</g>
		<g id="形状_44_拷贝_3_">
			<path class="st12" d="M142.56,65.29c-4.19-2.25-8.74-3.04-8.74-3.04s-1.76,5.18,6.77,5.19c2.87,0.01,10.9,5,10.9,5
				S147.04,67.7,142.56,65.29z"/>
		</g>
		<g id="形状_44_拷贝_2_3_">
			<path class="st12" d="M136.06,56.92c-7.02-2.49-14.27-2.61-14.27-2.61s-2.66,10.39,10.57,8.37c4.45-0.68,19.25,3.2,19.25,3.2
				S143.58,59.58,136.06,56.92z"/>
		</g>
		<g id="形状_44_拷贝_3_3_">
			<path class="st12" d="M131.69,70.51c-6.87-2.89-12.4-7.53-12.4-7.53s-9.13,13.3,4.24,13.13c8.94-0.11,19.49,8.32,19.49,8.32
				S141.59,74.69,131.69,70.51z"/>
		</g>
		<g id="形状_44_拷贝_5_3_">
			<path class="st12" d="M129.46,76.4c-4.81-5.69-7.64-12.33-7.64-12.33s-14.17,7.71-2.17,13.63c8.02,3.95,13.6,16.25,13.6,16.25
				S136.39,84.61,129.46,76.4z"/>
		</g>
		<g id="形状_44_拷贝_4_3_">
			<path class="st12" d="M121.25,79.71c-2.29-2.85-3.09-5.9-3.09-5.9s-10.83,1.75-3.73,5.43c4.74,2.46,6.46,8.13,6.46,8.13
				S124.56,83.83,121.25,79.71z"/>
		</g>
		<g id="形状_47_3_">
			<path class="st12" d="M91.93,74.71c-2.42-0.88-5.63,0.51-5.63,0.51s2.85-0.49,5.25,0.38c2.82,1.03,5.25,3.07,5.25,3.07
				S94.73,75.73,91.93,74.71z"/>
		</g>
		<g id="形状_47_拷贝_3_">
			<path class="st12" d="M92.19,81.37c-1.6,0.67-2.2,3.4-2.2,3.4s0.97-1.82,2.57-2.42c1.87-0.71,4.15-0.74,4.15-0.75
				C96.72,81.6,94.05,80.6,92.19,81.37z"/>
		</g>
		<g id="形状_47_拷贝_2_3_">
			<path class="st12" d="M85.61,90.6c-1.15,1.95,0.47,6.75,0.47,6.75s-0.46-3.49,0.74-5.35c1.41-2.17,3.81-3.44,3.8-3.46
				C90.61,88.54,86.94,88.34,85.61,90.6z"/>
		</g>
		<g id="形状_47_拷贝_3_3_">
			<path class="st12" d="M87.35,86.61c-1.64,1.57-1.38,6.62-1.38,6.62s0.5-3.49,2.16-4.95c1.94-1.71,4.6-2.27,4.59-2.3
				C92.72,85.99,89.25,84.79,87.35,86.61z"/>
		</g>
		<g id="形状_47_拷贝_4_3_">
			<path class="st12" d="M103,87.75c-0.69-2.55-4.29-3.31-4.29-3.31c-0.02,0.02,1.97,1.87,2.75,4.35c0.67,2.11-0.71,5.38-0.71,5.38
				S103.6,89.95,103,87.75z"/>
		</g>
		<g id="形状_47_拷贝_5_3_">
			<path class="st12" d="M105.2,81.73c-1.38-4.42-8.54-5.74-8.54-5.74c-0.03,0.03,3.91,3.25,5.48,7.55c1.33,3.67-1.4,9.34-1.4,9.34
				S106.39,85.54,105.2,81.73z"/>
		</g>
		<g id="形状_47_拷贝_6_3_">
			<path class="st12" d="M111.85,64.07c-1.38-4.42-8.54-5.74-8.54-5.74c-0.03,0.03,3.91,3.25,5.48,7.55c1.33,3.67-1.4,9.34-1.4,9.34
				S113.04,67.88,111.85,64.07z"/>
		</g>
		<g id="形状_59_3_">
			<path class="st12" d="M61.73,104c0,0-1.38,2.14-3.33,4.09c-2.25,2.25-5.12,4.35-5.12,4.35s2.6-1.59,4.99-3.71
				c2.14-1.9,4.09-4.35,4.09-4.35L61.73,104z"/>
		</g>
		<g id="形状_60_3_">
			<path class="st12" d="M92.18,95.56c-0.34,0-0.38,0.13-0.38,0.13s-0.11,1.33-0.64,2.69c-0.94,2.42-2.05,3.97-2.05,3.97
				s1.1-1.08,2.43-3.45c0.86-1.53,1.02-3.2,1.02-3.2S92.54,95.56,92.18,95.56z"/>
		</g>
		<g id="形状_61_3_">
			<path class="st17" d="M69.41,55.26c-8.81-7.55-18.3-5.63-18.3-5.63s8.92-1.51,18.55,7.04c7.15,6.34,9.96,13.62,11.06,18.21
				C79.59,69.8,76.7,61.51,69.41,55.26z M80.73,74.87c0.62,2.76,0.71,4.57,0.71,4.57S81.39,77.65,80.73,74.87z"/>
		</g>
		<g id="形状_62_3_">
			<path class="st17" d="M96.53,60.5c-3.06,0.88-7.96,7.04-11.13,8.57c-2.28,1.11-3.2-1.92-3.2-1.92s0.61,4.22,3.2,2.94
				c0.43-0.21,1.65-0.6,3.07-1.92c2.19-2.03,4.95-5.31,6.65-6.27c3.84-2.16,4.86,0.13,4.86,0.13S99.07,59.78,96.53,60.5z"/>
		</g>
		<g id="形状_63_3_">
			<path class="st17" d="M92.82,95.69c-0.23-0.03-0.38,0-0.38,0s-0.17,1.49-1.02,3.33c-0.57,1.22-1.11,1.92-2.69,3.71
				c2.59-1.38,4.48-7.04,4.48-7.04S93.04,95.72,92.82,95.69z"/>
		</g>
		<g id="形状_64_3_">
			<path class="st17" d="M58.15,75.47c-1.97-3.4-4.24-6.47-7.8-7.68c-3.52-1.19-7.59-0.64-11.51,0c-2.29,0.37-4.42,1.09-6.53,1.15
				c-2.59,0.08-3.97-0.64-3.97-0.64s1.39,0.92,4.22,1.02c2.77,0.1,6.94-0.6,9.98-1.02c5.96-0.83,9.34,2.56,9.34,2.56
				s4.43,3.23,10.49,12.28C61.32,81.03,59.72,78.19,58.15,75.47z"/>
		</g>
		<g id="形状_65_3_">
			<path class="st17" d="M60.2,102.98c0,0-4.3,5.44-8.83,8.06c-5.43,3.15-11.26,3.58-11.26,3.58s5.88,0.39,12.03-2.81
				c3.86-2.01,9.08-8.19,9.08-8.19L60.2,102.98z"/>
		</g>
		<g id="形状_66_3_">
			<path class="st17" d="M87.96,97.22c0,0-0.06,1.1-0.38,2.18c-0.31,1.03-0.77,2.05-0.77,2.05s0.94-1.23,1.54-2.56
				c0.48-1.08,0.51-2.3,0.51-2.3L87.96,97.22z"/>
		</g>
		<g id="形状_67_3_">
			<path class="st17" d="M150.53,60.38c-1.52-1.83-4.23-3.78-6.78-6.91c-2.19-2.68-4.06-5.93-6.4-8.44
				c-1.68-1.8-3.65-3.22-5.89-3.84c-6.03-1.66-12.29,2.24-17.4,6.27c-4.97,3.92-10.75,4.73-10.75,4.73s4.14-0.23,10.49-3.2
				c5.01-2.34,9.33-8.46,17.02-6.65c5.76,1.36,8.89,8.33,13.18,13.05c1.72,1.89,3.98,3.65,5.5,5.25c3.1,3.25,4.86,5.63,4.86,5.63
				S153.79,64.32,150.53,60.38z"/>
		</g>
		<g id="形状_68_3_">
			<path class="st17" d="M78.75,46.56c-0.58-0.54-0.99-1.29-1.79-1.66c-0.96-0.44-1.71-0.32-1.92-0.13
				c-0.23,0.21-1.77,1.46-3.58,3.33c-1.9,1.96-3.71,4.22-3.71,4.22L68,52.57c0,0,1.67-1.85,3.45-3.84c1.27-1.42,2.45-2.88,3.84-3.45
				c1.34-0.55,2.12,0.75,3.07,1.41c0.93,0.64,1.79,1.02,1.79,1.02S79.49,47.25,78.75,46.56z"/>
		</g>
		<g id="形状_69_3_">
			<path class="st17" d="M15.98,84.43c2.29-6.78,5.7-11.77,5.7-11.77s-4.59,5.74-6.61,11.78c-3.96,11.85,0.98,17,0.98,17
				S12.25,95.5,15.98,84.43z"/>
		</g>
		<g id="形状_85_3_">
			<path class="st17" d="M97.43,85.45c-1.24-0.24-2.69,0-2.69,0s3.28-0.11,5.12,1.66C99.34,86.42,98.37,85.63,97.43,85.45z"/>
		</g>
		<g id="形状_70_3_">
			<path class="st17" d="M98.58,67.29c0,0-0.09,3.45-1.79,5.25c-1.69,1.79-4.99,2.05-4.99,2.05s3.01,0.25,4.99-1.66
				c1.85-1.79,2.43-5.63,2.43-5.63H98.58z"/>
		</g>
		<g id="形状_71_3_">
			<path class="st17" d="M88.35,73.55c-0.7-0.47-1.15-1.15-1.15-1.15s0.4,0.99,1.02,1.41c0.77,0.53,1.79,0.51,1.79,0.51
				S89.06,74.04,88.35,73.55z"/>
		</g>
		<g id="形状_72_3_">
			<path class="st17" d="M91.67,75.6c-2.45-0.84-5.12-0.38-5.12-0.38s2.62-0.04,4.99,0.77c2.67,0.91,5.25,2.69,5.25,2.69
				S94.27,76.49,91.67,75.6z"/>
		</g>
		<g id="形状_73_3_">
			<path class="st17" d="M95.38,81.74c-0.95,0-1.92,0.38-1.92,0.38l-2.69,2.69l-0.13,0.77c0,0,0.61,0.03,1.15,0.13
				c0.48,0.09,0.9,0.26,0.9,0.26s-0.61,0.13-1.28,0.38c-0.68,0.26-1.41,0.64-1.41,0.64l-0.51,1.15c0,0,1.32-0.42,2.43-0.38
				c1.13,0.03,2.05,0.51,2.05,0.51s-2.18-0.15-3.58,0.64c-1.34,0.75-1.92,2.43-1.92,2.43l-0.38,3.07c0,0,3.27-0.84,4.86-0.13
				c-1.55-0.79-4.22-0.38-4.22-0.38s-0.18-2.63,1.28-4.09c1.28-1.28,4.22-1.41,4.22-1.41s-0.45-0.79-1.28-1.02
				c-0.95-0.27-1.79-0.38-1.79-0.38s0.56-0.39,1.15-0.64c0.62-0.26,1.28-0.38,1.28-0.38s-0.55-0.41-1.15-0.64
				c-0.55-0.21-1.15-0.26-1.15-0.26s1.04-1.26,2.05-2.05c0.61-0.48,1.27-0.67,1.66-0.77c0.58-0.14,2.69-0.13,2.69-0.13
				S96.52,81.74,95.38,81.74z"/>
		</g>
		<g id="形状_74_3_">
			<path class="st17" d="M73.5,84.81c-0.31-0.45-1.15-0.9-1.15-0.9s0.47-0.03,0.9,0c0.4,0.03,0.77,0.13,0.77,0.13
				s-0.27-0.78-0.9-1.41c-0.51-0.51-1.41-0.9-1.41-0.9s0.25-0.88,0.38-1.79c0.13-0.88,0.13-1.79,0.13-1.79l1.15-1.54l-0.13-0.26
				c0,0-0.42,0.33-0.77,0.77c-0.36,0.46-0.64,1.02-0.64,1.02s0,0.95-0.13,1.92C71.59,81.03,71.33,82,71.33,82s0.57,0.22,1.15,0.64
				c0.57,0.41,1.02,1.02,1.02,1.02s-0.68-0.16-1.28-0.13c-0.55,0.03-1.02,0.26-1.02,0.26c0.01-0.01,1.04,0.26,1.79,1.02
				c0.77,0.79,1.41,1.92,1.41,1.92S74.07,85.64,73.5,84.81z"/>
		</g>
		<g id="形状_75_3_">
			<path class="st18" d="M97.94,65.62c0,0-0.87,0.19-1.66,0.51c-1.08,0.43-2.3,1.15-2.3,1.15s1.69,1.88,0.77,3.71
				c-0.38,0.76-1.5,2.1-2.81,2.3c-1.84,0.28-3.97-0.77-3.97-0.77c0,0,1.45,1.54,4.09,1.28c2.2-0.22,3.91-1.87,4.64-2.91
				C98.36,68.51,97.94,65.62,97.94,65.62z"/>
		</g>
		<g id="形状_76_3_">
			<path class="st18" d="M94.1,67.16c0,0-1.73,1.04-3.33,2.18c-1.73,1.23-3.33,2.56-3.33,2.56l0.51,0.64c0,0,1.57-1.76,3.2-2.94
				c2.87-2.08,3.71-0.9,3.71-0.9L94.1,67.16z"/>
		</g>
		<g id="形状_47_拷贝_7_3_">
			<path class="st12" d="M101.94,90.85c-0.23-1.91-3.4-3.18-3.4-3.18c-0.02,0.01,1.5,1.7,1.83,3.58c0.28,1.6-1.49,3.58-1.49,3.58
				S102.14,92.49,101.94,90.85z"/>
		</g>
		<g id="形状_54_3_">
			<path class="st12" d="M96.15,97.35C95.67,96.8,95,96.33,95,96.33s-3.1,11.62-7.8,11.77c-6.66,0.21-10.11-14.07-10.11-14.07
				s0.69,7.38,2.05,11.39c0.98,2.9,3.3,5.86,5.63,6.14c9.06,1.07,12.41-12.92,12.41-12.92C97.22,98.62,96.94,98.27,96.15,97.35z"/>
		</g>
		<g id="形状_77_3_">
			<path class="st12" d="M76.7,74.32c-0.49-3.34-1.66-6.27-1.66-6.27s0.91,2.98,1.41,6.4c0.58,4.02,0.77,8.57,0.77,8.57
				S77.29,78.39,76.7,74.32z"/>
		</g>
		<g id="形状_77_拷贝_3_">
			<path class="st12" d="M69.56,61.45c-1.52-2.21-3.38-3.87-3.38-3.87s1.69,1.8,3.25,4.05c1.82,2.65,3.56,5.82,3.56,5.82
				S71.41,64.14,69.56,61.45z"/>
		</g>
		<g id="形状_79_3_">
			<path class="st12" d="M67.62,55c-2.46-1.94-5.12-3.07-5.12-3.07s2.56,1.41,4.99,3.33c2.96,2.33,5.89,5.25,5.89,5.25
				S70.55,57.31,67.62,55z"/>
		</g>
		<g id="形状_79_拷贝_3_">
			<path class="st12" d="M46.07,116.98c-3.67,0.86-7.77,1.34-7.77,1.34s4.25-0.22,7.89-1.08c3.05-0.72,5.59-2.09,5.59-2.09
				S49.07,116.28,46.07,116.98z"/>
		</g>
		<g id="形状_79_拷贝_2_3_">
			<path class="st12" d="M15.55,81.23c0,0-2.28,3.73-3.26,7.33c-0.82,3.03-0.45,5.72-0.45,5.72s-0.08-2.72,0.73-5.7
				C13.56,84.94,15.55,81.23,15.55,81.23z"/>
		</g>
		<g id="形状_79_拷贝_4_3_">
			<path class="st12" d="M10.4,97.31c-0.08-3.77,0.77-7.89,0.77-7.89s-1.13,4.22-1.05,7.95c0.07,3.14,1.19,5.61,1.19,5.61
				S10.46,100.4,10.4,97.31z"/>
		</g>
		<g id="形状_79_拷贝_3_3_">
			<path class="st12" d="M59.18,109.73c-2.77,2.56-6.42,4.65-6.42,4.65s3.91-1.95,6.65-4.48c2.3-2.13,3.41-4.61,3.41-4.61
				S61.45,107.64,59.18,109.73z"/>
		</g>
		<g id="形状_80_3_">
			<path class="st12" d="M94.61,96.2l-0.38-0.13c0,0-0.03,0.62-0.51,1.79c-0.74,1.82-1.15,2.56-1.15,2.56s0.71-0.94,1.41-2.43
				C94.71,96.43,94.61,96.2,94.61,96.2z"/>
		</g>
		<g id="形状_81_3_">
			<path class="st12" d="M89.24,96.46l-0.38,0.13c0,0-0.03,0.96-0.26,1.66c-0.28,0.88-0.51,1.15-0.51,1.15s0.49-0.54,0.9-1.54
				C89.32,97.04,89.24,96.46,89.24,96.46z"/>
		</g>
		<g id="形状_82_3_">
			<path class="st12" d="M70.69,85.84c-0.3-0.28-0.9-0.51-0.9-0.51l-0.38,0.38c0,0,0.48,0.07,1.02,0.38
				c0.66,0.38,1.28,1.02,1.28,1.02S71.26,86.37,70.69,85.84z"/>
		</g>
		<g id="形状_86_3_">
			<path class="st2" d="M102.93,64.34c-0.47,0.03-0.45-0.11-0.77-0.26c-0.31-0.15-0.26-0.08-0.77,0s-0.75,0.33-0.77,0.51
				c-0.01,0.18,0.12,0.19-0.13,0.38c-0.25,0.19-0.57,0.34-0.51,0.51c0.06,0.17-0.06,0.22-0.13,0.38c-0.07,0.16-0.32,0.11-0.51,0
				c-0.19-0.11-0.36,0.02-0.64,0.13c-0.28,0.11-0.49,0.25-0.64,0.13c-0.15-0.12-0.03-0.24,0.51-0.51c0.54-0.27,0.76-1.24,0.77-1.41
				c0.01-0.17,0.49-0.32,0.26-0.38c-0.24-0.07-0.85,0.16-1.02,0.26c-0.17,0.1-0.15,0.13-0.26,0.26c-0.11,0.12-0.32,0.02-0.51,0
				c-0.19-0.02-0.27,0.11-0.38,0.38c-0.11,0.28-0.38,0.51-0.38,0.51l0.26,0.26l0.13,0.38c0,0-1.58,0.79-3.2,1.79
				c-1.88,1.16-3.84,2.56-3.84,2.56s0.39,0.74,0.77,1.15c0.5,0.53,1.02,0.77,1.02,0.77s-0.06-0.13,0-0.51
				c0.06-0.39,0.41-0.29,0.64-0.26c0.46,0.82,0.91,0.75,2.05,0.77c1.19-0.13,1.59-1.09,1.41-1.15c-0.18-0.07-0.09-0.24,0.13-0.38
				c0.34-0.05,0.59-0.27,0.64-0.38S97.4,70,97.69,70.1c0.28,0.1,0.63-0.22,0.64-0.38c0.01-0.16,0.08-0.12,0.51-0.38
				c-0.21,0.07-0.22-0.05-0.51-0.13c-0.29-0.08-0.88,0.37-1.15,0.51c-0.28,0.14-0.03-0.13-0.77-0.13c-0.74,0-0.88-0.04-1.02-0.26
				c-0.14-0.22,0.21-0.41,0.51-0.51s0.65-0.32,0.9-0.38c0.24-0.06,0.49-0.28,0.9-0.51c0.42-0.04,1.3-0.49,1.54-0.64
				c0.23-0.15,0.13,0.3,1.02,0.13c0.35-0.07,1.03-0.46,1.41-1.15c0.22-0.4,0.81-0.57,0.9-0.64c0.23-0.18,0.56-0.11,0.77-0.13
				c0.21-0.01,2-1.21,3.07-2.43C105.95,63.58,103.4,64.31,102.93,64.34z"/>
		</g>
		<g id="形状_87_3_">
			<path class="st19" d="M101.91,64.6c-0.36-0.11-0.34-0.2-0.77,0.13c-0.11,0.45-0.82,0.68-0.77,0.9c0.05,0.22-0.32,0.56-1.02,0.64
				c-0.7-0.08-0.31,0.35-2.69,0.77c-2.38,0.42-7.8,5.12-7.8,5.12c-0.04,0,1.09,0.65,2.3,0.64c1.06-0.01,2.08-0.78,2.18-0.9
				c0.2-0.24,1.02-0.13,1.66-0.13c0.64,0,0.95-0.64,0.77-0.77c-0.18-0.13-0.04-0.43,0.26-0.51s0.34-0.12,0.64-0.38
				c0.3-0.26,0.89-0.18,1.15-0.26c0.04-0.15,0.38-0.38,0.38-0.38s-0.24-0.03-0.38,0.13c-0.14,0.16-0.61,0.29-1.02,0.26
				c-0.42-0.03-0.81,0.01-1.28,0c-0.47-0.01-0.5-0.41-0.38-1.02c0.11-0.61,0.23-0.39,1.28-0.77c1.05-0.37,2.31-1.01,2.43-1.15
				c0.12-0.14,0.52-0.12,0.77,0.13c0.24,0.25,0.36-0.25,0.64-0.26c0.28,0,0.69-0.44,0.9-0.64c0.21-0.2,0.46-1.01,0.9-1.02
				c0.44-0.02,1.24-0.13,1.92-0.64C103.39,64.66,102.27,64.71,101.91,64.6z"/>
		</g>
		<g id="形状_88_3_">
			<path class="st19" d="M98.32,64.73c-0.18,0.28-0.18-0.11-0.38,0c-0.21,0.11-0.39,0.23-0.38,0.51c0.01,0.28,0.14,0.66,0,0.77
				c-0.14,0.11-0.53,0.7-0.9,0.9c-0.36,0.2-1.38,0.63-1.41,0.77c-0.03,0.14,1.74-0.58,1.92-0.64c0.18-0.06,0.67-0.28,0.64-0.38
				c-0.03-0.1,0.07-0.55,0-0.64c-0.07-0.09,0.01-0.47,0.26-0.51c0.24-0.04,0.23-0.07,0.26-0.26c0.03-0.19,0.05-0.37,0.26-0.38
				c0.2-0.02,0.27-0.38,0.38-0.51c0.07-0.08,0.1-0.11,0.12-0.12C99,64.25,98.49,64.47,98.32,64.73z M99.08,64.22
				c0.01,0,0.01,0,0.01,0S99.09,64.21,99.08,64.22z"/>
		</g>
		<g id="形状_83_3_">
			<path class="st12" d="M71.2,82.25c0,0-0.31,1.35-0.9,2.3c-0.63,1.02-1.54,1.66-1.54,1.66s1.25-0.57,1.92-1.66
				C71.22,83.7,71.2,82.25,71.2,82.25z"/>
		</g>
		<g id="形状_84_3_">
			<path class="st12" d="M70.43,84.81c0,0,1.59,0.05,2.23,0.57c-0.97-0.85-2.1-0.96-2.1-0.96L70.43,84.81z"/>
		</g>
		<g id="形状_78_3_">
			<path class="st12" d="M80.54,85.71c-0.34-2.89-0.9-5.37-0.9-5.37s0.26,2.3,0.64,4.86c0.5,3.35,0.64,7.29,0.64,7.29
				S80.92,89,80.54,85.71z"/>
		</g>
		<g id="形状_47_拷贝_8_3_">
			<path class="st12" d="M87.26,84.68c-0.55-1.84-3.89-2.56-3.89-2.56c-0.02,0.01,1.77,1.43,2.41,3.22
				c0.55,1.53-0.86,3.78-0.86,3.78S87.74,86.27,87.26,84.68z"/>
		</g>
		<g id="形状_47_拷贝_9_3_">
			<path class="st12" d="M86.59,87.39c-0.23-1.91-3.4-3.18-3.4-3.18c-0.02,0.01,1.5,1.7,1.83,3.58c0.28,1.6-1.49,3.58-1.49,3.58
				S86.79,89.04,86.59,87.39z"/>
		</g>
		<g id="形状_50_3_">
			<path class="st4" d="M72.35,55c-0.98,2.05-0.56,1.28-0.38,1.41c0.24,0.17,0.64,0.38,0.64,0.38s0.96-2.84,3.72-5.66
				c2.48-2.54,5.19-3.26,5.19-3.26S75.96,47.41,72.35,55z"/>
		</g>
		<g id="形状_51_3_">
			<path class="st4" d="M72.99,71c-0.74-1.2-1.02-1.54-1.02-1.54s-2.21,3.71-1.54,5.25c0.68,1.53-0.06,6.06-0.51,7.8
				c-0.09,0.34,0.43,1.09,0.77,0.64c0.37-0.5,0.68-1.76,0.77-3.07C71.62,77.57,70.8,71.85,72.99,71z"/>
		</g>
		<g id="形状_89_3_">
			<path class="st4" d="M63.4,104.26c-1.87-0.93-3.45-2.05-3.45-2.05l-0.64,1.15c0,0,1.5,1.05,3.2,1.92
				c2.04,1.04,4.35,1.92,4.35,1.92l1.28-0.9C68.13,106.31,65.6,105.36,63.4,104.26z"/>
		</g>
		<g id="皇冠_4_">
			<g>
				<path class="st20" d="M90.06,53.26c-2.08,0-4.05-0.37-5.53-1.04c-1.84-0.83-2.91-2.11-3.11-3.71c-0.45-3.56,0.44-6.48,1.26-8.3
					c0.89-1.98,1.88-3.1,1.92-3.15l0.44-0.5l0.19,0.64c0.01,0.02,0.14,0.47,0.26,1.58c0.09,0.77,0.22,1.3,0.38,1.53
					c0.21-1.06,0.92-2.94,1.98-4.16c2.06-2.35,4.12-2.86,4.21-2.88l0.31-0.07l0.12,0.29c0.03,0.06,0.64,1.53,1,3.03
					c0.6,2.48,1.25,3.48,1.62,3.59c0.06,0.02,0.12,0.03,0.22,0.03c0.35,0,1.08-0.26,2.53-1.49l0.39-0.33l0.19,0.47
					c0.75,1.83,0.8,4.33,0.16,6.96l3.4,0.66c0.22,0.04,2.17,0.43,2.95,0.95c0.22,0.14,0.31,0.39,0.26,0.65
					c-0.2,0.97-2.8,2.56-4.83,2.96c-0.95,0.35-1.95,0.65-2.97,0.9c-0.99,0.24-1.8,0.41-2.41,0.49
					C93.86,52.93,92.02,53.26,90.06,53.26C90.06,53.26,90.06,53.26,90.06,53.26z M98.5,46.16c0.85,0.22,1.6,0.41,2.25,0.56
					l-2.17-0.86C98.55,45.96,98.52,46.06,98.5,46.16z"/>
			</g>
			<g>
				<path class="st4" d="M92.15,33.66c0,0,0.62,1.49,0.98,2.97c0.43,1.77,1.09,3.63,1.87,3.86c0.09,0.02,0.19,0.05,0.32,0.05
					c0.45,0,1.22-0.26,2.77-1.58c0.8,1.95,0.77,4.67-0.06,7.47c1.93,0.5,4.65,1.17,5.3,1.17c0.37,0,0.08-0.22-1.41-0.81
					c0,0,2.07,0.4,2.81,0.9c0.71,0.47-2.16,2.5-4.46,2.94c-0.89,0.33-1.88,0.64-2.96,0.9c-1.17,0.29-1.93,0.43-2.43,0.49
					c-1.08,0.54-2.89,0.87-4.83,0.87c-3.7,0-7.87-1.2-8.27-4.42c-0.84-6.73,3.08-11.16,3.08-11.16s0.13,0.43,0.25,1.52
					c0.18,1.57,0.51,1.98,0.93,1.98c0.04,0,0.08,0,0.13-0.01c0.05-0.83,0.79-3.06,1.96-4.39C90.14,34.13,92.15,33.66,92.15,33.66
					 M92.6,32.79l-0.61,0.14c-0.09,0.02-2.27,0.56-4.4,2.99c-0.76,0.86-1.33,2.03-1.7,3.03c-0.01-0.06-0.02-0.13-0.02-0.2
					c-0.13-1.12-0.26-1.6-0.28-1.65l-0.38-1.28l-0.89,1c-0.04,0.05-1.07,1.21-1.98,3.24c-0.53,1.19-0.92,2.43-1.15,3.69
					c-0.29,1.58-0.33,3.2-0.13,4.81c0.22,1.73,1.37,3.11,3.33,4c1.52,0.69,3.54,1.07,5.68,1.07c1.99,0,3.86-0.33,5.05-0.9
					c0.61-0.09,1.41-0.25,2.39-0.49c1.03-0.25,2.03-0.56,2.99-0.9c0.98-0.2,2.13-0.67,3.16-1.29c0.8-0.49,1.78-1.22,1.93-1.95
					c0.08-0.41-0.08-0.8-0.42-1.03c-0.83-0.55-2.72-0.94-3.09-1.01l-3.02-0.58c0.57-2.57,0.49-5-0.26-6.81l-0.39-0.94l-0.78,0.66
					c-1.49,1.26-2.1,1.4-2.29,1.4c-0.04,0-0.07-0.01-0.11-0.02c-0.18-0.09-0.76-0.85-1.36-3.32c-0.37-1.53-0.99-3.02-1.02-3.09
					L92.6,32.79L92.6,32.79z"/>
			</g>
		</g>
		<g>
			<defs>
				<path id="SVGID_13_" d="M104.74,47.69c-0.74-0.5-2.81-0.9-2.81-0.9c4.1,1.63-0.88,0.42-3.89-0.37c0.83-2.8,0.87-5.52,0.07-7.47
					c-1.99,1.69-2.7,1.64-3.09,1.53c-0.79-0.22-1.45-2.09-1.87-3.86c-0.36-1.49-0.98-2.97-0.98-2.97s-2.01,0.47-4.01,2.76
					c-1.17,1.34-1.91,3.56-1.96,4.39c-0.47,0.08-0.86-0.24-1.06-1.97c-0.12-1.09-0.25-1.52-0.25-1.52s-3.93,4.43-3.08,11.16
					c0.53,4.19,7.44,4.96,11.39,4.11l-0.01,0.02c0,0,0.05-0.02,0.13-0.04c0.57-0.13,1.07-0.29,1.48-0.48
					c0.07-0.02,0.15-0.05,0.23-0.07c0.5-0.07,1.23-0.21,2.32-0.48c1.07-0.26,2.06-0.57,2.94-0.9c0,0,0,0,0,0
					C102.57,50.2,105.45,48.16,104.74,47.69z"/>
			</defs>
			<clipPath id="SVGID_14_">
				<use xlink:href="#SVGID_13_"  style="overflow:visible;"/>
			</clipPath>
			<g id="皇冠1_3_" class="st21">
				<path class="st22" d="M86.7,37.45c-0.74,1.64-0.9,3.2-0.9,3.2l0.36,0.8c0,0,1.02-2.39,2.32-4.12c1.25-1.66,3.2-2.81,3.2-2.81
					l0.51-0.9l-2.69-1.15C89.52,32.46,87.76,35.12,86.7,37.45z M97.45,37.71l-3.62,3.87c0,0,1.61,0.27,3.1-0.8
					c1.02-0.74,1.16-1.47,1.28-1.92C98.48,37.85,97.45,37.71,97.45,37.71z M80.56,38.22c-0.06,0.29-0.77,11.39-0.77,11.39l2.69,0.51
					c0,0-0.51-3.37,0-6.4c0.45-2.64,1.92-4.99,1.92-4.99l0.64-1.79C85.04,36.94,80.62,37.93,80.56,38.22z M103.46,47.05
					c-0.47-0.19-1.41-0.26-1.41-0.26l-0.13,0.38l1.79,0.38C103.72,47.56,103.95,47.24,103.46,47.05z"/>
			</g>
		</g>
		<g>
			<defs>
				<path id="SVGID_15_" d="M104.74,47.69c-0.74-0.5-2.81-0.9-2.81-0.9c4.1,1.63-0.88,0.42-3.89-0.37c0.83-2.8,0.87-5.52,0.07-7.47
					c-1.99,1.69-2.7,1.64-3.09,1.53c-0.79-0.22-1.45-2.09-1.87-3.86c-0.36-1.49-0.98-2.97-0.98-2.97s-2.01,0.47-4.01,2.76
					c-1.17,1.34-1.91,3.56-1.96,4.39c-0.47,0.08-0.86-0.24-1.06-1.97c-0.12-1.09-0.25-1.52-0.25-1.52s-3.93,4.43-3.08,11.16
					c0.61,4.9,9.96,5.12,13.09,3.54c0.5-0.06,1.26-0.2,2.44-0.49c1.07-0.26,2.06-0.57,2.94-0.9c0,0,0,0,0,0
					C102.57,50.2,105.45,48.16,104.74,47.69z"/>
			</defs>
			<clipPath id="SVGID_16_">
				<use xlink:href="#SVGID_15_"  style="overflow:visible;"/>
			</clipPath>
			<g id="皇冠2_3_" class="st23">
				<path class="st24" d="M93.99,41.55c1.24-0.62,2.3-2.69,2.3-2.69l-4.02-5.4l-0.7,1.12C91.58,34.58,92.75,42.17,93.99,41.55z
					 M85.42,41.29c0.19,0.07,0.54,0.29,0.64,0.26c0.26-0.08,0.12-0.74,0.12-0.74l-0.38-1.95l-0.9-1.54l-0.51,1.41
					C84.4,38.73,84.69,41.04,85.42,41.29z M105.77,45.26l-7.16-7.29l-2.05,2.05c0,0-1.16,7.5-3.07,9.47
					c-1.91,1.97-10.27,1.2-11.77-1.41c-2.89,3.07,8.06,11.52,23.54,0.64C120.73,37.83,105.77,45.26,105.77,45.26z"/>
			</g>
		</g>
		<g id="形状_105_3_">
			<path class="st25" d="M89.13,40.91c0,0-2.4,4.89-2.3,5.63c0.1,0.74,3.54,1.98,4.61-1.15C92.58,42.05,89.13,40.91,89.13,40.91z"/>
		</g>
		<g id="宝珠_5_">
			<g>
				<path class="st26" d="M88.07,46.78c-0.13,0-0.25-0.02-0.38-0.05c-0.54-0.13-0.97-0.55-1.22-1.16c-0.24-0.6-0.27-1.32-0.1-2.03
					c0.33-1.3,1.29-2.25,2.29-2.25c0.13,0,0.25,0.02,0.38,0.05c1.1,0.27,1.69,1.71,1.32,3.2C90.03,45.84,89.07,46.78,88.07,46.78
					C88.07,46.78,88.07,46.78,88.07,46.78z"/>
			</g>
			<g>
				<path class="st4" d="M88.66,41.44c0.11,0,0.23,0.01,0.34,0.04c1.02,0.25,1.56,1.6,1.21,3.02c-0.31,1.26-1.23,2.14-2.14,2.14
					c-0.11,0-0.23-0.01-0.34-0.04c-1.02-0.25-1.56-1.6-1.21-3.02C86.83,42.32,87.75,41.44,88.66,41.44 M88.66,41.15
					c-1.07,0-2.09,0.99-2.43,2.36c-0.19,0.74-0.15,1.5,0.1,2.12c0.26,0.66,0.73,1.1,1.32,1.25c0.13,0.03,0.27,0.05,0.41,0.05
					c1.07,0,2.09-0.99,2.43-2.36c0.19-0.74,0.15-1.5-0.1-2.12c-0.26-0.66-0.73-1.1-1.32-1.25C88.94,41.16,88.8,41.15,88.66,41.15
					L88.66,41.15z"/>
			</g>
		</g>
		<g>
			<defs>
				<path id="SVGID_17_" d="M89,41.48c-1.02-0.25-2.13,0.68-2.48,2.09s0.19,2.76,1.21,3.02c1.02,0.25,2.13-0.68,2.48-2.09
					C90.56,43.09,90.02,41.74,89,41.48z"/>
			</defs>
			<clipPath id="SVGID_18_">
				<use xlink:href="#SVGID_17_"  style="overflow:visible;"/>
			</clipPath>
			<g id="宝珠1_3_" class="st27">
				<path class="st28" d="M90.28,40.65c-1.08,0.09-2.05,0.77-2.05,0.77s1.6,2.25-0.26,3.45c-1.62,0.26-2.43-0.38-2.43-0.38
					s-2.33,2.52,1.15,2.94c3.48,0.42,5.6,0.22,5.63-2.18C92.36,42.86,91.36,40.56,90.28,40.65z"/>
			</g>
		</g>
		<g id="椭圆_3_3_">
			<path class="st29" d="M88.43,41.8c-0.32,0-0.58,0.26-0.58,0.58c0,0.32,0.26,0.58,0.58,0.58c0.32,0,0.58-0.26,0.58-0.58
				C89.01,42.06,88.75,41.8,88.43,41.8z"/>
		</g>
		<g id="椭圆_4_3_">
			<path class="st29" d="M87.09,44.43c0.31-0.46,0.24-0.91,0-0.96c-0.41-0.08-0.64,0.5-0.64,0.96c0,0.46,0,0.82,0.32,0.83
				C87.45,45.27,86.83,44.8,87.09,44.43z"/>
		</g>
		<g>
			<polygon class="st17" points="40.26,133.08 41.79,128.97 37.89,127.97 24.48,131.56 28.3,132.6 17.24,162.36 31.04,158.66 
				33.44,152.2 24.75,154.53 27.28,147.73 34.4,145.82 36.8,139.36 29.68,141.27 31.89,135.32 			"/>
			<polygon class="st17" points="51.52,124.33 41.6,126.97 45.56,127.98 34.5,157.73 47.87,154.15 50.27,147.69 42.01,149.9 			"/>
			<polygon class="st17" points="73.58,124.15 75.08,120.1 71.16,119.05 57.75,122.64 61.61,123.69 50.56,153.43 64.35,149.73 
				66.75,143.28 58.07,145.6 60.6,138.8 67.71,136.89 70.11,130.43 63,132.34 65.21,126.4 			"/>
			<g>
				<path class="st30" d="M84.66,120.91l-2.09,0.56l-3.44,9.26l2.23-0.6c2.49-0.67,4.34-2.75,5.51-5.9
					C88.08,121.01,87.12,120.25,84.66,120.91z"/>
				<path class="st17" d="M87.18,114.77l-12.14,3.24l3.82,1.08l-11.04,29.72l5.11-1.37l3.95-10.64l2.49-0.67
					c4.49-1.2,9.65-5.61,12.48-13.23C94.79,114.98,91.86,113.52,87.18,114.77z M86.88,124.24c-1.17,3.14-3.02,5.23-5.51,5.9
					l-2.23,0.6l3.44-9.26l2.09-0.56C87.12,120.25,88.08,121.01,86.88,124.24z"/>
			</g>
			<polygon class="st17" points="110.51,108.52 105.98,120.71 98.98,122.58 103.51,110.4 93.61,113.03 97.53,114.1 86.49,143.8 
				91.6,142.43 96.5,129.26 103.5,127.38 98.6,140.56 103.66,139.2 115.56,107.17 			"/>
			<g>
				<path class="st30" d="M124.99,109.8c-1.76,3.5-3.73,7.4-5.45,10.73l-1.47,2.84l4.34-1.16l0.55-2.59
					c0.61-3.03,1.49-6.72,2.14-9.84L124.99,109.8z"/>
				<path class="st17" d="M119.13,106.2l3.79,1.06l-17.18,31.4l5.2-1.39l3.96-7.69l6.28-1.68l-1.51,7.03l5.37-1.44l5.31-30.27
					L119.13,106.2z M122.97,119.6l-0.55,2.59l-4.34,1.16l1.47-2.84c1.73-3.33,3.69-7.23,5.45-10.73l0.11-0.03
					C124.46,112.88,123.58,116.57,122.97,119.6z"/>
			</g>
			<polygon class="st17" points="151.11,97.63 143.37,119.92 143.23,119.95 144.2,99.49 134.15,102.17 138.14,103.19 127.09,132.92 
				131.95,131.62 139.64,109.32 139.79,109.28 138.78,129.79 143.98,128.4 155.96,96.33 			"/>
			<polygon class="st17" points="158.38,95.68 156.05,102.06 161.79,100.52 152.25,126.18 165.16,122.77 159.13,120.08 166.9,99.15 
				172.67,97.6 175.04,91.23 			"/>
		</g>
		<g>
			<polygon class="st7" points="34.4,145.82 35.27,143.47 23.06,146.7 20.23,154.32 17.24,162.36 21.75,161.15 31.04,158.66 
				33.44,152.2 24.75,154.53 27.28,147.73 			"/>
			<polygon class="st7" points="45.4,140.79 40.3,142.14 34.5,157.73 47.87,154.15 50.27,147.69 42.01,149.91 			"/>
			<polygon class="st7" points="67.71,136.89 68.54,134.66 56.33,137.89 50.56,153.43 64.35,149.74 66.75,143.28 58.07,145.6 
				60.6,138.8 			"/>
			<path class="st7" d="M73.57,133.33l-5.75,15.48l5.11-1.37l3.95-10.64l2.49-0.67c3-0.8,6.31-3.05,9.01-6.72L73.57,133.33z"/>
			<polygon class="st7" points="92.21,128.4 86.49,143.8 91.6,142.43 96.5,129.26 103.5,127.38 98.6,140.56 103.66,139.2 
				109.36,123.86 			"/>
			<polygon class="st7" points="122.82,120.3 122.42,122.2 118.08,123.36 119.16,121.27 114.59,122.48 105.73,138.65 110.93,137.25 
				114.9,129.56 121.18,127.88 119.67,134.91 125.05,133.47 127.58,119.04 			"/>
			<polygon class="st7" points="127.09,132.92 131.95,131.62 137.17,116.5 132.76,117.66 			"/>
			<polygon class="st7" points="143.37,119.92 143.23,119.95 143.47,114.83 139.46,115.89 138.78,129.79 143.98,128.4 
				149.66,113.19 145.31,114.34 			"/>
			<polygon class="st7" points="159.13,120.08 163,109.66 157.89,111.01 152.25,126.18 165.16,122.77 			"/>
		</g>
		<g>
			<path class="st17" d="M37.89,128.48l3.21,0.83l-1.23,3.32l-8.11,2.17l-0.26,0.07l-0.09,0.25l-2.21,5.94l-0.35,0.94l0.97-0.26
				l6.14-1.65L34,145.37l-6.85,1.84l-0.26,0.07l-0.09,0.25l-2.53,6.8l-0.35,0.94l0.97-0.26l7.71-2.07l-1.96,5.27l-12.57,3.37
				l10.71-28.81l0.2-0.53l-0.55-0.15l-1.97-0.54L37.89,128.48 M37.89,127.95l-13.41,3.59l3.82,1.05l-11.06,29.76l13.8-3.7l2.4-6.46
				l-8.68,2.33l2.53-6.8l7.11-1.91l2.4-6.46l-7.11,1.91l2.21-5.94l8.37-2.24l1.53-4.11L37.89,127.95L37.89,127.95z"/>
			<path class="st17" d="M50.68,125.07l-9.16,24.64l-0.35,0.94l0.97-0.26l7.29-1.95l-1.96,5.27l-12.14,3.25l10.71-28.82l0.2-0.54
				l-0.56-0.14l-2.03-0.52L50.68,125.07 M51.52,124.31l-9.92,2.64l3.96,1.01L34.5,157.72l13.37-3.58l2.4-6.46l-8.26,2.21
				L51.52,124.31L51.52,124.31z"/>
			<path class="st17" d="M71.16,119.57l3.24,0.87l-1.21,3.27l-8.11,2.17l-0.26,0.07l-0.09,0.25l-2.21,5.94l-0.35,0.94l0.97-0.26
				l6.14-1.65l-1.96,5.27l-6.85,1.84l-0.26,0.07l-0.09,0.25l-2.53,6.8l-0.35,0.94l0.97-0.26l7.71-2.07l-1.96,5.27l-12.57,3.37
				l10.7-28.8l0.2-0.53l-0.55-0.15l-2-0.54L71.16,119.57 M71.16,119.03l-13.41,3.59l3.86,1.04l-11.05,29.75l13.8-3.7l2.4-6.46
				l-8.68,2.33l2.53-6.8l7.11-1.91l2.4-6.46L63,132.32l2.21-5.94l8.37-2.24l1.51-4.05L71.16,119.03L71.16,119.03z"/>
			<g>
				<path class="st17" d="M89.77,114.88c1.09,0,1.83,0.3,2.26,0.92c0.37,0.54,0.53,1.34,0.46,2.39c-0.08,1.2-0.46,2.72-1.13,4.52
					c-1.29,3.47-3.19,6.53-5.5,8.84c-2.05,2.05-4.35,3.46-6.63,4.07l-2.49,0.67l-0.26,0.07l-0.09,0.25l-3.86,10.39l-3.88,1.04
					l10.69-28.77l0.2-0.53L79,118.57l-2-0.57l10.32-2.75C88.25,115,89.08,114.88,89.77,114.88 M78.3,131.47l0.97-0.26l2.23-0.6
					c2.58-0.69,4.61-2.84,5.86-6.22c0.64-1.73,0.72-2.86,0.24-3.56c-0.32-0.46-0.84-0.69-1.56-0.69c-0.42,0-0.92,0.08-1.51,0.24
					l-2.09,0.56l-0.26,0.07l-0.09,0.25l-3.44,9.26L78.3,131.47 M89.77,114.36c-0.77,0-1.65,0.14-2.6,0.4l-12.14,3.24l3.82,1.08
					l-11.04,29.72l5.11-1.37l3.95-10.64l2.49-0.67c4.49-1.2,9.65-5.61,12.48-13.23C94.19,116.57,92.81,114.36,89.77,114.36
					L89.77,114.36z M79.14,130.71l3.44-9.26l2.09-0.56c0.53-0.14,0.99-0.22,1.37-0.22c1.39,0,1.78,1.01,0.84,3.54
					c-1.17,3.14-3.02,5.23-5.51,5.9L79.14,130.71L79.14,130.71z"/>
			</g>
			<path class="st17" d="M114.73,107.91l-11.46,30.84l-3.83,1.03l4.55-12.23l0.35-0.94l-0.97,0.26l-7,1.88l-0.26,0.07l-0.09,0.25
				l-4.8,12.93l-3.88,1.04l10.69-28.76l0.2-0.53l-0.55-0.15l-2.06-0.56l7.07-1.88l-4.18,11.25l-0.35,0.94l0.97-0.26l7-1.88
				l0.26-0.07l0.09-0.25l4.43-11.94L114.73,107.91 M115.56,107.15l-5.06,1.35l-4.53,12.19l-7,1.88l4.53-12.19l-9.9,2.64l3.92,1.07
				l-11.04,29.7l5.11-1.37l4.9-13.18l7-1.88l-4.9,13.18l5.06-1.35L115.56,107.15L115.56,107.15z"/>
			<g>
				<path class="st17" d="M129.7,103.9l-5.11,29.14l-4.23,1.13l1.33-6.2l0.18-0.83l-0.82,0.22l-6.28,1.68l-0.22,0.06l-0.11,0.2
					l-3.86,7.49l-3.81,1.02l16.6-30.33l0.31-0.57l-0.63-0.18l-1.95-0.54L129.7,103.9 M117.08,124.15l1.13-0.3l4.34-1.16l0.31-0.08
					l0.07-0.31l0.55-2.59l0,0l0,0c0.32-1.6,0.73-3.41,1.12-5.16c0.35-1.57,0.72-3.2,1.02-4.68l0.17-0.82l-0.81,0.22l-0.11,0.03
					l-0.22,0.06l-0.1,0.21l-0.19,0.38c-1.69,3.34-3.6,7.13-5.26,10.34l-1.47,2.84L117.08,124.15 M130.35,103.19l-11.22,2.99
					l3.79,1.06l-17.18,31.4l5.2-1.39l3.96-7.69l6.28-1.68l-1.51,7.03l5.37-1.44L130.35,103.19L130.35,103.19z M118.08,123.34
					l1.47-2.84c1.73-3.33,3.69-7.23,5.45-10.73l0.11-0.03c-0.64,3.12-1.53,6.81-2.14,9.84l-0.55,2.59L118.08,123.34L118.08,123.34z"
					/>
			</g>
			<path class="st17" d="M155.12,97.07l-11.54,30.88l-4.25,1.14l0.98-19.8l0.04-0.71l-0.69,0.18l-0.14,0.04l-0.27,0.07l-0.09,0.26
				l-7.61,22.04l-3.62,0.97l10.7-28.79l0.2-0.54l-0.56-0.14l-2.06-0.53l7.44-1.98l-0.93,19.75l-0.03,0.71l0.69-0.18l0.14-0.04
				l0.27-0.07l0.09-0.26l7.65-22.03L155.12,97.07 M155.96,96.31l-4.85,1.3l-7.74,22.29l-0.14,0.04l0.97-20.46l-10.04,2.68l3.99,1.02
				l-11.05,29.73l4.86-1.3l7.7-22.3l0.14-0.04l-1.01,20.51l5.2-1.39L155.96,96.31L155.96,96.31z"/>
			<path class="st17" d="M174.21,91.97l-1.93,5.18l-5.51,1.48l-0.26,0.07l-0.09,0.25l-7.78,20.93l-0.17,0.46l0.44,0.2l4.69,2.09
				l-10.52,2.78l9.19-24.73l0.35-0.94l-0.97,0.26l-4.78,1.28l1.9-5.19L174.21,91.97 M175.04,91.21l-16.66,4.45l-2.33,6.38l5.74-1.54
				l-9.54,25.66l12.91-3.41l-6.04-2.69l7.78-20.93l5.77-1.55L175.04,91.21L175.04,91.21z"/>
		</g>
	</g>
</g>
</svg>
