<?xml version="1.0" encoding="utf-8"?>
<!-- Generator: Adobe Illustrator 24.1.1, SVG Export Plug-In . SVG Version: 6.00 Build 0)  -->
<svg version="1.1" id="图层_1" xmlns="http://www.w3.org/2000/svg" xmlns:xlink="http://www.w3.org/1999/xlink" x="0px" y="0px"
	 viewBox="0 0 600 600" style="enable-background:new 0 0 600 600;" xml:space="preserve">
<style type="text/css">
	.st0{fill:#FFFFFF;}
	.st1{fill:#C41634;}
	.st2{fill:#9FA0A0;}
	.st3{fill:#9E9E9F;}
</style>
<g>
	<path class="st0" d="M428.36,316.5c0,0,7.37-29.63,7.58-49.75l-13.55-0.16l-9.87,48.65L428.36,316.5z"/>
	<polygon class="st0" points="438.23,290 531.16,287.93 436.16,300.32 	"/>
	<path class="st0" d="M369.88,133.98C306.15,108.54,224.12,164,186.67,257.85c-5.68,14.23-10,28.52-13.03,42.63l-21.3,2.08
		c-10.91,70.43,10.72,133.68,57.53,156.47c7.26,6.22,15.4,11.22,24.39,14.81c63.74,25.44,145.77-30.02,183.22-123.87
		S433.62,159.42,369.88,133.98z"/>
	<path class="st1" d="M226.41,429.43c-42.34-22.8-42.76-104.26-0.92-181.94c27.48-51.04,66.37-87.75,101.81-100.46
		c-38.23,5.95-83.74,44.7-114.56,101.94c-40.8,75.77-40.4,155.22,0.9,177.46c5.66,3.05,11.79,4.85,18.26,5.52
		C230.02,431.22,228.19,430.39,226.41,429.43z"/>
	<path d="M214.02,231.55c32.57-50.2,77.77-86.66,117.14-98.41c-37.68,2.17-86.21,36.48-119.24,87.54
		c-19.88,30.74-30.46,61.86-31.58,87.59C185.71,284.29,196.97,257.83,214.02,231.55z"/>
	<path class="st2" d="M210.73,430.11c-43.14-26.69-50.55-106.05-19.39-181.07c3.73-8.97,7.91-17.63,12.45-25.91
		c-7.68,12.42-14.61,25.85-20.54,40.02c-31.59,75.58-26.83,154.37,13.2,179.72c22.89,14.5,53.02,9.19,82.34-11.72
		C254.45,441.93,230.36,442.26,210.73,430.11z"/>
	<polygon class="st0" points="236.65,388.27 108.51,441.29 179.64,338.41 56.46,299.06 196.46,259.34 167.44,166.27 270.99,206.29 
		330.66,119.99 354.09,206.54 453.27,173.32 400.5,256.33 480.65,287.3 386.51,326.25 407.64,404.26 322.17,379.57 262.98,472.72 	
		"/>
	<polygon points="327.89,136.1 127.45,426 462.12,287.52 178.26,177.83 265.13,456.5 437.04,186.01 85.04,303.92 397.8,394.25 	"/>
	<polygon class="st2" points="313.15,199.18 195.69,371.03 396.43,290.01 225.03,225.98 275.55,391.12 380.42,227.83 172.09,299.77 
		356.17,355.26 	"/>
	<polygon class="st0" points="393.29,261.6 600,286.56 373.17,322.35 	"/>
	<polygon class="st1" points="398.06,269.09 383.24,313.86 555.94,287.63 	"/>
	<polygon class="st0" points="309.9,213.63 211.06,358.77 381.23,290.61 235.64,236.79 278.05,376.24 367.39,237.57 191.5,298.86 
		346.66,346.23 	"/>
	<polygon class="st0" points="427.05,253.94 405.23,258.3 348.05,400.31 375.12,405.34 412.59,331.78 	"/>
	<path class="st1" d="M355.18,135.66c-0.5-0.13-0.99-0.24-1.49-0.36c40.7,36.68,47.81,120.63,9.48,205.71
		c-29.12,64.63-74.76,107.9-118.34,121.39c49.88,6.92,112.24-38.22,148.04-117.69C436.62,247.59,417.42,152.04,355.18,135.66z"/>
	<path d="M421.89,206.11c7.32,40.77,1.66,90.7-19.63,140.82c-24.22,57-61.76,97.58-100.52,116.41
		c40.25-13.23,81.01-51.49,106.61-108.3C432.92,300.5,436,245.97,421.89,206.11z"/>
	<polygon class="st0" points="315.66,338.19 342.27,334 327.21,288.99 324.91,289.04 339.76,259.87 263.21,252.16 263.21,252.16 
		56.46,230.64 123.06,282.07 50,380 198.96,356.55 198.96,356.55 206.53,355.36 206.53,355.36 280.71,343.69 280.71,343.69 	"/>
	<polygon class="st0" points="83.82,246.61 83.82,342.38 120.31,308.18 106.62,248.89 	"/>
	<g>
		<polygon class="st1" points="260.09,257.72 242.95,256.05 186.62,351.18 227.23,344.79 259.99,283.82 259.9,309.1 252.64,309.56 
			239.94,332.37 259.82,329.84 259.78,339.66 277.47,336.88 277.79,259.44 273.33,259.01 		"/>
		<polygon class="st1" points="319.74,291.58 312.7,291.65 319.71,299.11 319.64,313.37 304.43,314.79 304.59,279.96 327.72,280.72 
			334.39,264.95 304.68,262.06 292.85,260.91 283.36,271.66 283.14,324.36 292.53,334.51 304.35,332.65 319.55,330.26 324.36,329.5 
			331.45,318.64 331.6,291.47 325.81,291.52 		"/>
		<polygon class="st1" points="121.95,244.27 97.53,260.84 97.52,273.19 97.52,288 97.51,300.34 121.87,317.72 164.29,315.07 
			164.27,327.82 97.5,334.02 74.11,368.88 144.76,357.76 170.39,353.73 175.16,352.98 207.82,300.8 207.86,288.23 199.7,288.22 
			191.17,288.2 151.13,288.11 151.15,274.94 220.74,277.22 233.97,255.17 		"/>
	</g>
</g>
<path class="st1" d="M178.55,820.15h-23.62c-2.87,0-5.19-2.32-5.19-5.19v-23.62c0-2.87,2.32-5.19,5.19-5.19h23.62
	c2.87,0,5.19,2.32,5.19,5.19v23.62C183.74,817.83,181.41,820.15,178.55,820.15z"/>
<g>
	<path d="M215.21,809.47h-2.22l-4.95-6.45h-3.8v6.45h-1.65v-14.34h6.67c3.06,0.14,4.68,1.44,4.87,3.87c0,2.49-1.43,3.82-4.3,4.02
		L215.21,809.47z M204.24,796.56v5.02h4.66c2.34-0.04,3.51-0.93,3.51-2.65c-0.05-1.53-1.22-2.32-3.51-2.37H204.24z"/>
	<path d="M217.22,801.29v-2.22h2.22v2.22H217.22z M217.22,809.25v-2.08h2.22v2.08H217.22z"/>
	<path d="M227.04,797.92c-1.05,0.96-2.32,1.72-3.8,2.29v-1.51c2.2-1,3.61-2.27,4.23-3.8h1.07v14.56h-1.51V797.92z"/>
	<path d="M233.35,806.6l1.51-0.5c0.33,1.67,1.22,2.48,2.65,2.44c2.25-0.09,3.39-2.08,3.44-5.95c-0.72,1.39-1.92,2.08-3.59,2.08
		c-2.68-0.24-4.13-1.82-4.37-4.73c0.19-3.11,1.74-4.78,4.66-5.02c3.35-0.05,5,2.32,4.95,7.1c0,5.07-1.75,7.62-5.24,7.67
		C235.26,809.58,233.92,808.56,233.35,806.6z M240.95,800.72c0-3.01-1.15-4.49-3.44-4.45c-1.82,0.14-2.79,1.31-2.94,3.51
		c0.1,2.2,1.07,3.37,2.94,3.51C239.37,803.3,240.52,802.44,240.95,800.72z"/>
	<path d="M253.43,798.14l-1.43,0.5c-0.38-1.67-1.29-2.48-2.72-2.44c-2.39,0.05-3.58,2.03-3.58,5.95c0.76-1.29,2.01-1.96,3.73-2.01
		c2.68,0.14,4.11,1.7,4.3,4.66c-0.19,3.01-1.7,4.64-4.52,4.88c-3.39,0-5.09-2.32-5.09-6.96c0.05-5.21,1.79-7.82,5.24-7.82
		C251.44,795,252.81,796.08,253.43,798.14z M245.76,804.02c0.05,2.92,1.19,4.42,3.44,4.52c1.82-0.09,2.77-1.29,2.87-3.58
		c-0.05-2.29-1-3.46-2.87-3.51C247.33,801.53,246.18,802.39,245.76,804.02z"/>
	<path d="M272.93,802.08h6.17v5.24c-1.19,1.58-3.25,2.37-6.17,2.37c-4.49-0.24-6.86-2.63-7.1-7.17c0.19-4.88,2.46-7.41,6.81-7.6
		c3.2,0.05,5.33,1.46,6.38,4.23l-1.79,0.43c-0.76-2.1-2.32-3.18-4.66-3.23c-3.06,0.28-4.73,2.32-5.02,6.09
		c0.24,3.68,2.01,5.67,5.31,5.95c2.15,0,3.7-0.57,4.66-1.72v-3.23h-4.59V802.08z"/>
	<path d="M282.04,801.29v-2.22h2.22v2.22H282.04z M282.04,809.25v-2.08h2.22v2.08H282.04z"/>
	<path d="M286.48,809.32v-0.93c0.91-1.91,2.41-3.63,4.52-5.16c2.15-1.58,3.2-3.01,3.16-4.3c-0.05-1.72-1.03-2.61-2.94-2.65
		c-1.48,0.1-2.49,1.03-3.01,2.8l-1.44-0.72c0.81-2.34,2.39-3.49,4.73-3.44c2.68,0.1,4.11,1.36,4.3,3.8
		c0.14,1.86-1.05,3.66-3.58,5.38c-1.96,1.44-3.25,2.77-3.87,4.02h7.53v1.22H286.48z"/>
	<path d="M297.38,809.32v-0.93c0.91-1.91,2.41-3.63,4.52-5.16c2.15-1.58,3.2-3.01,3.16-4.3c-0.05-1.72-1.03-2.61-2.94-2.65
		c-1.48,0.1-2.49,1.03-3.01,2.8l-1.44-0.72c0.81-2.34,2.39-3.49,4.73-3.44c2.68,0.1,4.11,1.36,4.3,3.8
		c0.14,1.86-1.05,3.66-3.58,5.38c-1.96,1.44-3.25,2.77-3.87,4.02h7.53v1.22H297.38z"/>
	<path d="M325.28,809.47h-5.95v-14.34h5.59c2.87,0.14,4.4,1.34,4.59,3.58c-0.14,1.77-1.1,2.82-2.87,3.16v0.07
		c2.15,0.34,3.3,1.55,3.44,3.66C329.93,808.08,328.33,809.37,325.28,809.47z M324.56,796.56h-3.73v4.8h3.73
		c1.96-0.1,3.03-0.96,3.23-2.58C327.69,797.35,326.61,796.61,324.56,796.56z M324.77,802.8h-3.94v5.38h4.23
		c2.24,0,3.37-0.93,3.37-2.8C328.29,803.75,327.07,802.89,324.77,802.8z"/>
	<path d="M332.95,801.29v-2.22h2.22v2.22H332.95z M332.95,809.25v-2.08h2.22v2.08H332.95z"/>
	<path d="M342.63,799.93c2.77,0.14,4.25,1.72,4.45,4.73c-0.1,3.25-1.65,4.92-4.66,5.02c-2.72,0-4.35-1.29-4.87-3.87l1.58-0.43
		c0.29,2.01,1.34,3.03,3.16,3.08c2.05-0.1,3.13-1.31,3.23-3.66c-0.1-2.2-1.15-3.35-3.16-3.44c-1.48,0.05-2.54,0.57-3.16,1.58
		l-1.07-0.21l0.86-7.53h7.39v1.43h-6.17l-0.43,4.37C340.62,800.29,341.58,799.93,342.63,799.93z"/>
	<path d="M348.44,809.32v-0.93c0.91-1.91,2.41-3.63,4.52-5.16c2.15-1.58,3.2-3.01,3.16-4.3c-0.05-1.72-1.03-2.61-2.94-2.65
		c-1.48,0.1-2.49,1.03-3.01,2.8l-1.44-0.72c0.81-2.34,2.39-3.49,4.73-3.44c2.68,0.1,4.11,1.36,4.3,3.8
		c0.14,1.86-1.05,3.66-3.58,5.38c-1.96,1.44-3.25,2.77-3.87,4.02h7.53v1.22H348.44z"/>
</g>
<path class="st3" d="M178.55,765.11h-23.62c-2.87,0-5.19-2.32-5.19-5.19V736.3c0-2.87,2.32-5.19,5.19-5.19h23.62
	c2.87,0,5.19,2.32,5.19,5.19v23.62C183.74,762.78,181.41,765.11,178.55,765.11z"/>
<path d="M178.55,710.06h-23.62c-2.87,0-5.19-2.32-5.19-5.19v-23.62c0-2.87,2.32-5.19,5.19-5.19h23.62c2.87,0,5.19,2.32,5.19,5.19
	v23.62C183.74,707.74,181.41,710.06,178.55,710.06z"/>
<g>
	<path d="M215.21,699.38h-2.22l-4.95-6.45h-3.8v6.45h-1.65v-14.34h6.67c3.06,0.14,4.68,1.44,4.87,3.87c0,2.49-1.43,3.82-4.3,4.02
		L215.21,699.38z M204.24,686.47v5.02h4.66c2.34-0.04,3.51-0.93,3.51-2.65c-0.05-1.53-1.22-2.32-3.51-2.37H204.24z"/>
	<path d="M217.22,691.21v-2.22h2.22v2.22H217.22z M217.22,699.17v-2.08h2.22v2.08H217.22z"/>
	<path d="M226.68,699.59c-3.2-0.05-4.8-2.48-4.8-7.31c0.05-4.83,1.62-7.31,4.73-7.46c3.11,0.1,4.68,2.58,4.73,7.46
		C231.29,697.06,229.74,699.5,226.68,699.59z M226.54,686.11c-1.96,0.14-2.97,2.2-3.01,6.17c0,4.11,1.03,6.14,3.08,6.1
		c2.05,0.05,3.08-1.98,3.08-6.1C229.69,688.12,228.64,686.07,226.54,686.11z"/>
	<path d="M250.56,691.99h6.17v5.24c-1.19,1.58-3.25,2.37-6.17,2.37c-4.49-0.24-6.86-2.63-7.1-7.17c0.19-4.88,2.46-7.41,6.81-7.6
		c3.2,0.05,5.33,1.46,6.38,4.23l-1.79,0.43c-0.76-2.1-2.32-3.18-4.66-3.23c-3.06,0.28-4.73,2.32-5.02,6.09
		c0.24,3.68,2.01,5.67,5.31,5.95c2.15,0,3.7-0.57,4.66-1.72v-3.23h-4.59V691.99z"/>
	<path d="M259.67,691.21v-2.22h2.22v2.22H259.67z M259.67,699.17v-2.08h2.22v2.08H259.67z"/>
	<path d="M269.13,699.59c-3.2-0.05-4.8-2.48-4.8-7.31c0.05-4.83,1.62-7.31,4.73-7.46c3.11,0.1,4.68,2.58,4.73,7.46
		C273.74,697.06,272.19,699.5,269.13,699.59z M268.99,686.11c-1.96,0.14-2.97,2.2-3.01,6.17c0,4.11,1.03,6.14,3.08,6.1
		c2.05,0.05,3.08-1.98,3.08-6.1C272.14,688.12,271.09,686.07,268.99,686.11z"/>
	<path d="M292.29,699.38h-5.95v-14.34h5.59c2.87,0.14,4.4,1.34,4.59,3.58c-0.14,1.77-1.1,2.82-2.87,3.16v0.07
		c2.15,0.34,3.3,1.55,3.44,3.66C296.95,697.99,295.35,699.28,292.29,699.38z M291.58,686.47h-3.73v4.8h3.73
		c1.96-0.1,3.03-0.96,3.23-2.58C294.71,687.26,293.63,686.52,291.58,686.47z M291.79,692.71h-3.94v5.38h4.23
		c2.24,0,3.37-0.93,3.37-2.79C295.3,693.67,294.08,692.81,291.79,692.71z"/>
	<path d="M299.96,691.21v-2.22h2.22v2.22H299.96z M299.96,699.17v-2.08h2.22v2.08H299.96z"/>
	<path d="M309.43,699.59c-3.2-0.05-4.8-2.48-4.8-7.31c0.05-4.83,1.62-7.31,4.73-7.46c3.11,0.1,4.68,2.58,4.73,7.46
		C314.04,697.06,312.49,699.5,309.43,699.59z M309.29,686.11c-1.96,0.14-2.97,2.2-3.01,6.17c0,4.11,1.03,6.14,3.08,6.1
		c2.05,0.05,3.08-1.98,3.08-6.1C312.44,688.12,311.39,686.07,309.29,686.11z"/>
</g>
<g>
	<path d="M215.21,754.42h-2.22l-4.95-6.45h-3.8v6.45h-1.65v-14.34h6.67c3.06,0.14,4.68,1.44,4.87,3.87c0,2.49-1.43,3.82-4.3,4.02
		L215.21,754.42z M204.24,741.52v5.02h4.66c2.34-0.04,3.51-0.93,3.51-2.65c-0.05-1.53-1.22-2.32-3.51-2.37H204.24z"/>
	<path d="M217.22,746.25v-2.22h2.22v2.22H217.22z M217.22,754.21v-2.08h2.22v2.08H217.22z"/>
	<path d="M227.04,742.88c-1.05,0.96-2.32,1.72-3.8,2.29v-1.51c2.2-1,3.61-2.27,4.23-3.8h1.07v14.56h-1.51V742.88z"/>
	<path d="M238.08,744.89c2.77,0.14,4.25,1.72,4.45,4.73c-0.1,3.25-1.65,4.92-4.66,5.02c-2.72,0-4.35-1.29-4.87-3.87l1.58-0.43
		c0.29,2.01,1.34,3.03,3.16,3.08c2.05-0.1,3.13-1.31,3.23-3.66c-0.1-2.2-1.15-3.35-3.16-3.44c-1.48,0.05-2.54,0.57-3.16,1.58
		l-1.07-0.21l0.86-7.53h7.39v1.43h-6.17l-0.43,4.37C236.07,745.24,237.03,744.89,238.08,744.89z"/>
	<path d="M244.39,751.55l1.51-0.5c0.33,1.67,1.22,2.48,2.65,2.44c2.25-0.09,3.39-2.08,3.44-5.95c-0.72,1.39-1.92,2.08-3.59,2.08
		c-2.68-0.24-4.13-1.82-4.37-4.73c0.19-3.11,1.74-4.78,4.66-5.02c3.35-0.05,5,2.32,4.95,7.1c0,5.07-1.75,7.62-5.24,7.67
		C246.3,754.54,244.97,753.51,244.39,751.55z M251.99,745.67c0-3.01-1.15-4.49-3.44-4.45c-1.82,0.14-2.8,1.31-2.94,3.51
		c0.1,2.2,1.07,3.37,2.94,3.51C250.41,748.25,251.56,747.39,251.99,745.67z"/>
	<path d="M272.79,747.04h6.17v5.24c-1.19,1.58-3.25,2.37-6.17,2.37c-4.49-0.24-6.86-2.63-7.1-7.17c0.19-4.88,2.46-7.41,6.81-7.6
		c3.2,0.05,5.33,1.46,6.38,4.23l-1.79,0.43c-0.76-2.1-2.32-3.18-4.66-3.23c-3.06,0.28-4.73,2.32-5.02,6.09
		c0.24,3.68,2.01,5.67,5.31,5.95c2.15,0,3.7-0.57,4.66-1.72v-3.23h-4.59V747.04z"/>
	<path d="M281.9,746.25v-2.22h2.22v2.22H281.9z M281.9,754.21v-2.08h2.22v2.08H281.9z"/>
	<path d="M291.72,742.88c-1.05,0.96-2.32,1.72-3.8,2.29v-1.51c2.2-1,3.61-2.27,4.23-3.8h1.07v14.56h-1.51V742.88z"/>
	<path d="M306.92,743.09l-1.43,0.5c-0.38-1.67-1.29-2.48-2.72-2.44c-2.39,0.05-3.58,2.03-3.58,5.95c0.76-1.29,2.01-1.96,3.73-2.01
		c2.68,0.14,4.11,1.7,4.3,4.66c-0.19,3.01-1.7,4.64-4.52,4.88c-3.39,0-5.09-2.32-5.09-6.96c0.05-5.21,1.79-7.82,5.24-7.82
		C304.94,739.96,306.3,741.04,306.92,743.09z M299.25,748.97c0.05,2.92,1.19,4.42,3.44,4.52c1.82-0.09,2.77-1.29,2.87-3.58
		c-0.05-2.29-1-3.46-2.87-3.51C300.82,746.49,299.68,747.35,299.25,748.97z"/>
	<path d="M313.73,754.64c-3.2-0.05-4.8-2.48-4.8-7.31c0.05-4.83,1.62-7.31,4.73-7.46c3.11,0.1,4.68,2.58,4.73,7.46
		C318.34,752.1,316.79,754.54,313.73,754.64z M313.59,741.16c-1.96,0.14-2.97,2.2-3.01,6.17c0,4.11,1.03,6.14,3.08,6.1
		c2.05,0.05,3.08-1.98,3.08-6.1C316.74,743.16,315.69,741.11,313.59,741.16z"/>
	<path d="M336.89,754.42h-5.95v-14.34h5.59c2.87,0.14,4.4,1.34,4.59,3.58c-0.14,1.77-1.1,2.82-2.87,3.16v0.07
		c2.15,0.34,3.3,1.55,3.44,3.66C341.55,753.03,339.95,754.33,336.89,754.42z M336.17,741.52h-3.73v4.8h3.73
		c1.96-0.1,3.03-0.96,3.23-2.58C339.3,742.3,338.23,741.56,336.17,741.52z M336.39,747.75h-3.94v5.38h4.23
		c2.24,0,3.37-0.93,3.37-2.8C339.9,748.71,338.68,747.85,336.39,747.75z"/>
	<path d="M344.57,746.25v-2.22h2.22v2.22H344.57z M344.57,754.21v-2.08h2.22v2.08H344.57z"/>
	<path d="M354.39,742.88c-1.05,0.96-2.32,1.72-3.8,2.29v-1.51c2.2-1,3.61-2.27,4.23-3.8h1.07v14.56h-1.51V742.88z"/>
	<path d="M369.59,743.09l-1.43,0.5c-0.38-1.67-1.29-2.48-2.72-2.44c-2.39,0.05-3.58,2.03-3.58,5.95c0.76-1.29,2.01-1.96,3.73-2.01
		c2.68,0.14,4.11,1.7,4.3,4.66c-0.19,3.01-1.7,4.64-4.52,4.88c-3.39,0-5.09-2.32-5.09-6.96c0.05-5.21,1.79-7.82,5.24-7.82
		C367.61,739.96,368.97,741.04,369.59,743.09z M361.92,748.97c0.05,2.92,1.19,4.42,3.44,4.52c1.82-0.09,2.77-1.29,2.87-3.58
		c-0.05-2.29-1-3.46-2.87-3.51C363.49,746.49,362.35,747.35,361.92,748.97z"/>
	<path d="M376.4,754.64c-3.2-0.05-4.8-2.48-4.8-7.31c0.05-4.83,1.62-7.31,4.73-7.46c3.11,0.1,4.68,2.58,4.73,7.46
		C381.02,752.1,379.46,754.54,376.4,754.64z M376.26,741.16c-1.96,0.14-2.97,2.2-3.01,6.17c0,4.11,1.03,6.14,3.08,6.1
		c2.05,0.05,3.08-1.98,3.08-6.1C379.41,743.16,378.36,741.11,376.26,741.16z"/>
</g>
</svg>
