<?xml version="1.0" encoding="utf-8"?>
<!-- Generator: Adobe Illustrator 26.0.0, SVG Export Plug-In . SVG Version: 6.00 Build 0)  -->
<svg version="1.1" id="Capa_1" xmlns="http://www.w3.org/2000/svg" xmlns:xlink="http://www.w3.org/1999/xlink" x="0px" y="0px"
	 viewBox="0 0 192 192" style="enable-background:new 0 0 192 192;" xml:space="preserve">
<style type="text/css">
	.st0{fill:#FFFFFF;}
	.st1{fill:#0A0A0A;}
	.st2{fill:#DC001E;}
</style>
<g>
	<path class="st0" d="M139.68,95.62c0,1.57,0.02,3.12,0.43,4.65c0.58,2.18,1.52,4.16,3.44,5.47c2.57,1.75,5.18,3.43,7.77,5.15
		c0.18,0.12,0.6,0.33,0.66,0.48v-7.1c-0.24-0.11-0.55-0.24-0.67-0.32c-0.73-0.47-1.45-0.95-2.17-1.43
		c-1.17-0.79-2.04-1.83-2.66-3.09c-0.81-1.63-1.16-3.36-1.15-5.17l0-37.55c0-0.28,0-0.93,0-0.93s-3.38,1.95-4.86,2.75
		c-0.58,0.32-0.8,0.65-0.8,1.33C139.69,71.78,139.68,83.7,139.68,95.62z"/>
	<path class="st0" d="M151.85,77.76c0-0.75,0.22-1.15,0.88-1.51c1.54-0.83,3.03-1.76,4.64-2.71c0.02,0.34,0.04,0.59,0.04,0.85
		c0,11.1,0,22.19,0,33.29c0,1.63-0.01,3.26-0.04,4.89c-0.03,1.31-0.51,2.33-1.77,2.97c-1.76,0.9-3.45,1.92-5.21,2.83
		c-0.76,0.4-1.64,0.37-2.39-0.03c-1.31-0.7-2.57-1.48-3.82-2.28c-2.84-1.82-5.67-3.66-8.49-5.51c-1.97-1.28-3.01-3.19-3.65-5.38
		c-0.49-1.68-0.49-3.39-0.49-5.11c0-8.73,0-17.46,0-26.19c0-3.17-0.01-6.34-0.05-9.51c-0.01-0.53,0.16-0.86,0.62-1.12
		c1.63-0.92,5.05-2.87,5.05-2.87s0,1.65,0,2.19c0.01,11.83,0.02,23.67,0.02,35.5c0,1.38,0.05,2.75,0.41,4.11
		c0.65,2.43,2.09,4.2,4.2,5.52c3.07,1.92,6.09,3.91,9.13,5.86c0.26,0.17,0.92,0.57,0.92,0.57S151.88,86.24,151.85,77.76z"/>
	<path class="st0" d="M159.38,113.23c0.63-1.04,0.67-2.2,0.67-3.36c0.01-8.14,0.03-16.29,0.05-24.43c0.01-4.31,0.04-8.61,0.04-12.92
		c0-0.51,0.16-0.79,0.6-1.06c1.44-0.87,2.85-1.8,4.28-2.71c0.18-0.11,0.38-0.19,0.68-0.34c0.02,0.41,0.06,0.73,0.06,1.05
		c-0.05,11.05-0.1,22.09-0.15,33.14c-0.01,1.7-0.01,3.39-0.04,5.09c-0.01,0.47-0.06,0.94-0.18,1.39c-0.22,0.79-0.63,1.44-1.41,1.84
		c-1.36,0.7-2.69,1.47-4.03,2.21c-0.15,0.08-0.3,0.14-0.45,0.21C159.45,113.31,159.42,113.27,159.38,113.23z"/>
	<g>
		<g>
			<path class="st0" d="M131.59,125.09h3.41l-0.17,1.09h-2l-0.13,0.85h1.59l-0.15,1h-1.6l-0.15,0.91h2.11l-0.17,1.09h-3.52
				L131.59,125.09z"/>
			<path class="st0" d="M135.54,128.46h1.33c0.01,0.34,0.21,0.64,0.78,0.64c0.43,0.01,0.65-0.18,0.65-0.5c0-0.24-0.17-0.37-0.7-0.48
				c-1.2-0.26-1.64-0.64-1.64-1.47c0-0.93,0.73-1.64,1.98-1.64c1.17,0,1.88,0.48,1.87,1.54h-1.29c-0.03-0.37-0.25-0.53-0.62-0.53
				c-0.39,0-0.57,0.18-0.57,0.45c0,0.23,0.15,0.33,0.7,0.45c1.11,0.24,1.66,0.62,1.66,1.46c0,1.01-0.73,1.71-2.07,1.72
				C136.28,130.11,135.53,129.49,135.54,128.46z"/>
			<path class="st0" d="M141.44,125.09h1.78c1.18,0,1.82,0.54,1.83,1.41c0,1.23-0.83,1.86-2.07,1.86h-0.63l-0.26,1.67h-1.42
				L141.44,125.09z M142.92,127.4c0.5,0,0.78-0.26,0.78-0.74c0-0.34-0.21-0.52-0.64-0.52h-0.38l-0.19,1.26H142.92z"/>
			<path class="st0" d="M148.29,130.11c-1.31,0-2.39-0.78-2.39-2.16c0-1.71,1.17-2.93,2.83-2.93c1.37,0,2.43,0.77,2.43,2.18
				C151.16,128.92,149.99,130.11,148.29,130.11z M148.69,126.13c-0.86-0.01-1.31,0.85-1.31,1.77c0,0.66,0.35,1.11,1.02,1.11
				c0.86,0,1.29-0.84,1.29-1.75C149.68,126.63,149.38,126.13,148.69,126.13z"/>
			<path class="st0" d="M152.78,125.09h1.88c1.2,0,1.82,0.53,1.81,1.4c0,0.83-0.48,1.33-1.14,1.5l0.93,2.04h-1.44l-0.81-1.77h-0.33
				l-0.28,1.77H152L152.78,125.09z M154.33,127.34c0.48,0,0.75-0.21,0.75-0.68c0.01-0.35-0.21-0.51-0.62-0.51h-0.45l-0.19,1.19
				H154.33z"/>
			<path class="st0" d="M158.78,126.18h-1.28l0.18-1.09h3.98l-0.18,1.09h-1.28l-0.6,3.85h-1.42L158.78,126.18z"/>
			<path class="st0" d="M162.02,128.46h1.33c0.01,0.34,0.21,0.64,0.78,0.64c0.43,0.01,0.65-0.18,0.65-0.5c0-0.24-0.17-0.37-0.7-0.48
				c-1.2-0.26-1.64-0.64-1.64-1.47c0-0.93,0.73-1.64,1.98-1.64c1.17,0,1.88,0.48,1.87,1.54h-1.29c-0.03-0.37-0.25-0.53-0.62-0.53
				c-0.39,0-0.57,0.18-0.57,0.45c0,0.23,0.15,0.33,0.7,0.45c1.11,0.24,1.66,0.62,1.66,1.46c0,1.01-0.73,1.71-2.07,1.72
				C162.76,130.11,162.02,129.49,162.02,128.46z"/>
		</g>
		<g>
			<polygon class="st0" points="127.31,125.95 127.28,126.01 125.42,129.64 125.9,129.79 127.78,126.1 			"/>
			<polygon class="st0" points="128.13,126.77 128.1,126.83 127.07,128.81 127.54,128.97 128.6,126.93 			"/>
			<polygon class="st0" points="125.57,126.77 125.53,126.83 124.5,128.81 124.97,128.97 126.04,126.93 			"/>
		</g>
		<g>
			<polygon class="st0" points="171.45,125.95 171.42,126.01 169.56,129.64 170.04,129.79 171.92,126.1 			"/>
			<polygon class="st0" points="172.27,126.77 172.24,126.83 171.21,128.81 171.68,128.97 172.74,126.93 			"/>
			<polygon class="st0" points="169.71,126.77 169.67,126.83 168.64,128.81 169.11,128.97 170.18,126.93 			"/>
		</g>
	</g>
	<rect x="99.51" y="65.76" class="st0" width="2.08" height="61.01"/>
	<path class="st1" d="M78.73,62.26c-0.32-0.04-0.63-0.08-0.95-0.12c-1.01-0.12-2.01-0.24-3.02-0.35c-0.26-0.03-0.52-0.05-0.78-0.08
		c-1.01-0.11-2.01-0.21-3.02-0.3c-2.76-0.26-5.54-0.47-8.32-0.64c-1.01-0.06-2.02-0.11-3.03-0.16c-3.19-0.15-6.39-0.23-9.6-0.25h0h0
		c0,0-0.01,0-0.01,0h0l0,0c-0.5,0-1-0.01-1.51-0.01c-0.51,0-1.01,0.01-1.52,0.01h0h0c0,0-0.01,0-0.01,0h0h0
		c-3.21,0.02-6.41,0.1-9.6,0.25c-1.01,0.05-2.02,0.1-3.03,0.16c-2.78,0.16-5.56,0.38-8.32,0.64c-1.01,0.1-2.02,0.2-3.02,0.3
		c-0.26,0.03-0.52,0.05-0.78,0.08c-1.01,0.11-2.01,0.23-3.02,0.35c-0.32,0.04-0.63,0.08-0.95,0.12c-1.01,0.13-2.02,0.26-3.02,0.41
		l0.68,2.99l1.53,6.76l0.67,2.96l0.01,0.04c0.64-0.08,1.27-0.16,1.91-0.24c0.37-0.05,0.74-0.09,1.12-0.13
		c0.63-0.07,1.27-0.15,1.91-0.22c0.26-0.03,0.52-0.06,0.78-0.08l0.19,3.02l0.44,7.07l0.19,3.05l0.24,3.75l0.65,10.32l0.18,2.86
		l0.09,1.37l1.76,1.51l1.18,1.01l0.28,0.24l7.12,6.1l3.13,2.68l7.73,6.63l0,0l0,0l0.01,0.01l0,0l0,0l0.34,0.29l1.17,1.01l1.18-1.01
		l0.33-0.28l0,0l0,0l0.01-0.01l0,0l0,0l7.73-6.61l3.13-2.67l7.12-6.09l0.27-0.23l1.24-1.06l1.71-1.46l0.09-1.42l0.18-2.81
		l0.65-10.37l0.24-3.75c0.2,0.02,0.4,0.05,0.6,0.07c0.06,0.01,0.12,0.01,0.19,0.02c0.95,0.11,1.9,0.23,2.84,0.36l0.25-1.1l0.43-1.89
		l1.57-6.96l0.67-2.95l0.01-0.04l0.67-2.96l1.53-6.77l0.68-2.99C80.75,62.53,79.74,62.39,78.73,62.26z"/>
	<g>
		<path class="st2" d="M61.12,107c-0.29-0.02-0.57-0.03-0.86-0.05l-2.3,3.84l-3.39,5.64l3.29-2.82l3.13-2.67l4.27-3.65
			C63.88,107.19,62.5,107.09,61.12,107z"/>
		<path class="st2" d="M38.99,110.78l-2.3-3.83c-0.29,0.02-0.58,0.03-0.86,0.05c-1.37,0.08-2.73,0.18-4.09,0.29l4.22,3.62l3.13,2.68
			l3.28,2.81L38.99,110.78z"/>
		<path class="st2" d="M50,108.31L50,108.31L50,108.31l-0.01,0.02l0,0l0,0l-1.51,2.52l-1.52-2.53l0,0l0,0l-0.01-0.01l0,0l0,0
			l-0.99-1.66c-1.95,0.02-3.89,0.07-5.83,0.14l6.82,11.36l0,0l0,0l0.01,0.01l0,0l0,0l1.52,2.53l1.51-2.52l0,0l0,0l0.01-0.01l0,0l0,0
			l6.82-11.38c-1.93-0.08-3.88-0.12-5.82-0.14L50,108.31z"/>
	</g>
	<g>
		<path class="st0" d="M77.59,64.85c-1-0.13-2.01-0.25-3.02-0.36c-0.26-0.03-0.52-0.06-0.78-0.08c-1.01-0.11-2.01-0.21-3.02-0.31
			c-2.73-0.26-5.47-0.48-8.23-0.64l-0.23,7l-0.1,3.04l0,0l-0.1,3.04l-0.23,7l-0.1,3.04l-0.56,17.03c2.35,0.14,4.7,0.32,7.03,0.54
			l1.06-16.95l0.19-3.04c1.01,0.1,2.02,0.21,3.02,0.33c0.26,0.03,0.52,0.06,0.78,0.09c0.1,0.01,0.2,0.02,0.3,0.04l1.57-6.94
			c-0.47-0.05-0.95-0.1-1.42-0.16c-0.26-0.03-0.52-0.06-0.78-0.08c-1.01-0.11-2.01-0.21-3.02-0.3l0.19-3.03l0-0.02l0.19-3.03
			c1.01,0.09,2.02,0.19,3.02,0.3c0.26,0.03,0.52,0.05,0.78,0.08c0.8,0.09,1.59,0.18,2.39,0.27l0.88-3.91l0.65-2.89
			C77.9,64.89,77.74,64.87,77.59,64.85z"/>
		<path class="st0" d="M35.17,86.58l-0.1-3.04l-0.23-7.01l-0.1-3.04l0,0l-0.1-3.04l-0.23-6.99c-2.76,0.17-5.5,0.38-8.23,0.64
			c-1.01,0.1-2.02,0.2-3.02,0.31c-0.26,0.03-0.52,0.06-0.78,0.08c-1.01,0.11-2.02,0.23-3.02,0.36c-0.16,0.02-0.31,0.04-0.47,0.06
			l0.65,2.89l0.88,3.89c0.8-0.09,1.59-0.18,2.39-0.27c0.26-0.03,0.52-0.06,0.78-0.08c1.01-0.11,2.01-0.2,3.02-0.3l0.19,3.03l0,0.02
			L27,77.11l0.44,7.04l0.19,3.04l1.06,16.95c2.34-0.22,4.68-0.4,7.03-0.54L35.17,86.58z"/>
		<path class="st0" d="M51.42,63.05v0.07l-0.17,15.37l-3.93-15.46c-0.12,0-0.24,0-0.37,0l0,0h0c0,0-0.01,0-0.01,0h0h0
			c-3.18,0.02-6.35,0.1-9.5,0.25l0.23,7l0.1,3.04l0.1,3.04l0.23,7l0.1,3.04l0.56,17.05c2.58-0.12,4.57-0.19,7.16-0.21v-0.01
			L45.5,83.49l5.17,19.76c2.6,0.02,4.94,0.09,7.52,0.2l0.56-17.05l0.1-3.04l0.23-6.99l0.1-3.04c-0.03,0-0.07,0-0.1,0
			c0.03,0,0.07,0,0.1,0l0.1-3.04l0.23-7.01C56.76,63.16,54.19,63.09,51.42,63.05z"/>
	</g>
</g>
</svg>
