<?xml version="1.0" encoding="utf-8"?>
<!-- Generator: Adobe Illustrator 25.2.1, SVG Export Plug-In . SVG Version: 6.00 Build 0)  -->
<svg version="1.1" id="Capa_1" xmlns="http://www.w3.org/2000/svg" xmlns:xlink="http://www.w3.org/1999/xlink" x="0px" y="0px"
	 viewBox="0 0 192 192" style="enable-background:new 0 0 192 192;" xml:space="preserve">
<style type="text/css">
	.st0{fill:#FF3000;}
	.st1{fill:#FFFFFF;}
</style>
<g>
	<path class="st0" d="M171.89,91.07V9.08L149.67,28.3V6.87L96,53.29L42.33,6.87V28.3L20.11,9.08v81.98H-0.12v52.56h45.45L96,186.79
		l50.68-43.17h45.44V91.07H171.89z M180.03,134.25h-49.32L96,163.82L61.3,134.25H11.98v-33.93H37.6V47.33l22.22,19.22V45.11
		L96,76.41l36.18-31.3v21.44l22.22-19.22v52.99h25.62V134.25z"/>
	<g>
		<path class="st1" d="M27.69,105.52v23.63h-7.25v-23.63H27.69z"/>
		<path class="st1" d="M53.78,129.15h-5.9l-6.47-10.44c-0.83-1.34-1.67-2.97-2.51-4.88c0.38,1.52,0.57,2.82,0.57,3.88v11.44h-5.89
			v-23.63h6.86l5.51,8.66c1.1,1.72,1.93,3.23,2.49,4.54c-0.37-2.02-0.55-4.09-0.55-6.2v-6.99h5.9V129.15z"/>
		<path class="st1" d="M74.44,120.3h-7.7v8.85h-7.06v-23.63h17.09v5.63H66.74v3.84h7.7V120.3z"/>
		<path class="st1" d="M88.09,105.52v23.63h-7.25v-23.63H88.09z"/>
		<path class="st1" d="M114.19,129.15h-5.9l-6.47-10.44c-0.83-1.34-1.67-2.97-2.51-4.88c0.38,1.52,0.57,2.82,0.57,3.88v11.44h-5.89
			v-23.63h6.86l5.51,8.66c1.1,1.72,1.93,3.23,2.49,4.54c-0.37-2.02-0.55-4.09-0.55-6.2v-6.99h5.9V129.15z"/>
		<path class="st1" d="M127.33,105.52v23.63h-7.25v-23.63H127.33z"/>
		<path class="st1" d="M142.94,111.18v17.97h-6.87v-17.97h-4.9v-5.66h16.67v5.66H142.94z"/>
		<path class="st1" d="M172.57,105.52l-7.4,13.62v10.01h-7.05v-10.01l-7.95-13.62h7.94l4.14,7.79l3.97-7.79H172.57z"/>
	</g>
	<g>
		<g>
			<g id="Fixed_Logo_Elements_9_">
				<g id="Gillette_9_">
					<g id="XMLID_81_">
						<path id="XMLID_82_" class="st1" d="M69.49,86.97l-0.8,3.36h2.75c-0.27,1.81-4.72,2.58-4.04-1.78c0.47-3.06,4.3-4.7,5.15-2.34
							l4.72-1.19c-1.62-6.99-14.09-5.58-15.1,3.78c-0.49,4.55,2.93,7.05,6.88,6.98c2.82-0.05,5.04-1.08,6.12-1.84l1.64-6.97H69.49z
							 M78.09,85.39l-2.37,10.08h4.91L83,85.39H78.09z M85.24,79.64L81.5,95.47h4.91l3.74-15.83H85.24z M84.03,81.09h-4.91
							l-0.84,3.68l5.23-1.3L84.03,81.09z M124.21,84.72c-2,0-3.67,0.9-4.82,2.31c0.18-0.74,0.39-1.59,0.39-1.59h-2.04l1.03-4.35
							h-4.9l-1.03,4.35l-1.11,0.01l1.04-4.36h-4.91l-1.03,4.34l-1.57,0.01l-0.74,2.67c-0.55-2.32-2.72-3.41-4.78-3.41
							c-2.9,0-5.12,1.9-6.06,4.46l2.24-9.52h-4.9L87.3,95.47h4.91l1.06-4.51c-0.18,1.81,0.52,5.03,4.92,5.03
							c2.22,0,5.06-1.44,5.73-3.44l-3.83-0.67c-0.43,0.55-1.08,0.89-1.7,0.89c-1.05,0-1.35-0.9-1.14-1.71l7.13-0.01
							c0.07-0.24,0.22-0.51,0.28-1.38c0.02-0.27,0.01-0.52,0-0.76h1.37l-1.56,6.56h4.9l1.55-6.56h1.09l-1.54,6.56h4.9l1.56-6.56
							h1.33c-0.01,0.01-0.01,0.02-0.01,0.02c-0.24,0.59-0.4,1.21-0.5,1.86l0,0c-0.25,1.76,0.35,5.22,4.9,5.22
							c2.21,0,5.06-1.44,5.73-3.44l-3.84-0.67c-0.42,0.56-1.07,0.89-1.7,0.89c-1.05,0-1.35-0.9-1.14-1.71l0,0l7.13,0
							c0.06-0.25,0.22-0.52,0.27-1.4C129.35,86.29,126.69,84.72,124.21,84.72z M100.5,89.06l-2.71-0.03
							C98.2,87.63,100.72,87.32,100.5,89.06z M124.97,89.08l-2.7-0.01C122.67,87.66,125.19,87.33,124.97,89.08z"/>
					</g>
				</g>
			</g>
			<g>
				<path class="st1" d="M129.87,84.87c0,0.21-0.16,0.37-0.38,0.37c-0.21,0-0.38-0.16-0.38-0.37c0-0.2,0.17-0.37,0.38-0.37
					C129.71,84.5,129.87,84.67,129.87,84.87z M129.21,84.87c0,0.16,0.12,0.29,0.29,0.29c0.16,0,0.28-0.13,0.28-0.29
					c0-0.16-0.12-0.3-0.28-0.3S129.21,84.71,129.21,84.87z M129.44,85.06h-0.09V84.7c0.03-0.01,0.08-0.01,0.14-0.01
					c0.07,0,0.1,0.01,0.13,0.03c0.02,0.02,0.04,0.04,0.04,0.08c0,0.04-0.03,0.07-0.08,0.09v0c0.04,0.01,0.06,0.04,0.07,0.09
					c0.01,0.06,0.02,0.08,0.03,0.09h-0.09c-0.01-0.01-0.02-0.05-0.03-0.09c-0.01-0.04-0.03-0.06-0.08-0.06h-0.04V85.06z
					 M129.44,84.86h0.04c0.05,0,0.09-0.02,0.09-0.05c0-0.03-0.02-0.06-0.08-0.06c-0.02,0-0.04,0-0.05,0V84.86z"/>
			</g>
		</g>
	</g>
</g>
</svg>
