<?xml version="1.0" encoding="utf-8"?>
<!-- Generator: Adobe Illustrator 23.1.0, SVG Export Plug-In . SVG Version: 6.00 Build 0)  -->
<svg version="1.1" id="Layer_1" xmlns="http://www.w3.org/2000/svg" xmlns:xlink="http://www.w3.org/1999/xlink" x="0px" y="0px"
	 width="192px" height="192px" viewBox="0 0 192 192" enable-background="new 0 0 192 192" xml:space="preserve">
<g>
	<g>
		
			<linearGradient id="SVGID_1_" gradientUnits="userSpaceOnUse" x1="129.2582" y1="189.0141" x2="128.9745" y2="84.6156" gradientTransform="matrix(1 0 0 -1 0 194)">
			<stop  offset="0.1341" style="stop-color:#FFEEC0"/>
			<stop  offset="0.4022" style="stop-color:#E3BC5D"/>
			<stop  offset="1" style="stop-color:#BB9847"/>
		</linearGradient>
		<path fill="url(#SVGID_1_)" d="M89.4,29.1c18.8-2.4,49-8.1,62.4,14.6c3.6,6.1,5,16.7-11.1,22.5c7.6-0.3,17.7-2.8,28.3,3.3
			C165.6,45.9,152.5,11.8,89.4,29.1z"/>
		
			<linearGradient id="SVGID_2_" gradientUnits="userSpaceOnUse" x1="165.3817" y1="188.916" x2="165.098" y2="84.5175" gradientTransform="matrix(1 0 0 -1 0 194)">
			<stop  offset="0.1341" style="stop-color:#FFEEC0"/>
			<stop  offset="0.4022" style="stop-color:#E3BC5D"/>
			<stop  offset="1" style="stop-color:#BB9847"/>
		</linearGradient>
		<path fill="url(#SVGID_2_)" d="M170.1,93.4c0,0-1.2,6.8-6.2,11.3c-1.2,1.1-2.4,1.8-6.9,3.5c4.7,0.6,9.4,1.1,16.1,2.2
			C170.5,100.9,170.1,93.4,170.1,93.4z"/>
		
			<linearGradient id="SVGID_3_" gradientUnits="userSpaceOnUse" x1="98.7734" y1="189.097" x2="98.4897" y2="84.6985" gradientTransform="matrix(1 0 0 -1 0 194)">
			<stop  offset="0.1341" style="stop-color:#FFEEC0"/>
			<stop  offset="0.4022" style="stop-color:#E3BC5D"/>
			<stop  offset="1" style="stop-color:#BB9847"/>
		</linearGradient>
		<path fill="url(#SVGID_3_)" d="M75.4,24.5c-8.7-5.9-17.7-10.4-26.2-13.8c8.2,5.2,16.1,11.9,23.7,19.8c11.5,12,20.6,24.1,28.1,38.8
			c6.8,0.4,12.1,0.4,15.9-0.1c8.3-1.3,25.9-4.4,31.3-11.5C125.7,71.6,104.5,44.2,75.4,24.5z"/>
		
			<linearGradient id="SVGID_4_" gradientUnits="userSpaceOnUse" x1="128.0113" y1="189.0175" x2="127.7276" y2="84.619" gradientTransform="matrix(1 0 0 -1 0 194)">
			<stop  offset="0.1341" style="stop-color:#FFEEC0"/>
			<stop  offset="0.4022" style="stop-color:#E3BC5D"/>
			<stop  offset="1" style="stop-color:#BB9847"/>
		</linearGradient>
		<path fill="url(#SVGID_4_)" d="M134,96.8c-2.4-5.5-3.1-13.4-0.3-22.1c-4.4-0.5-8-0.1-12.1,0.7C123.1,80.7,126.1,92.5,134,96.8z"/>
		
			<linearGradient id="SVGID_5_" gradientUnits="userSpaceOnUse" x1="128.4841" y1="189.0162" x2="128.2004" y2="84.6177" gradientTransform="matrix(1 0 0 -1 0 194)">
			<stop  offset="0.1341" style="stop-color:#FFEEC0"/>
			<stop  offset="0.4022" style="stop-color:#E3BC5D"/>
			<stop  offset="1" style="stop-color:#BB9847"/>
		</linearGradient>
		<path fill="url(#SVGID_5_)" d="M115.7,72.4c-4.8,0.5-9.4,0.5-12.8,0.5c2.6,5,4.2,8.9,6.1,13.8c6.5,17.1,15.4,18.1,39.8,20.7
			c0.7,0.1,4.9,0.5,4.9,0.5c-13.2-2.8-19.2-3.8-27.6-12.4C121,90.2,119.2,81.4,115.7,72.4z"/>
		
			<linearGradient id="SVGID_6_" gradientUnits="userSpaceOnUse" x1="95.7789" y1="189.1051" x2="95.4952" y2="84.7066" gradientTransform="matrix(1 0 0 -1 0 194)">
			<stop  offset="0.1341" style="stop-color:#FFEEC0"/>
			<stop  offset="0.4022" style="stop-color:#E3BC5D"/>
			<stop  offset="1" style="stop-color:#BB9847"/>
		</linearGradient>
		<path fill="url(#SVGID_6_)" d="M11.2,0.5c0,0,2,1,6.9,3.5c34.3,16.9,65.2,56.6,72.4,76.7s9.3,30.2,17.6,35.2s39.9,12.4,71.8,15.8
			c0,0-4.1-10-5.8-17.2c-43.4-6.7-59.4-1.2-69-26.4C92.1,53.5,55.9,5.5,11.2,0.5z"/>
		
			<linearGradient id="SVGID_7_" gradientUnits="userSpaceOnUse" x1="63.5134" y1="189.1928" x2="63.2297" y2="84.7943" gradientTransform="matrix(1 0 0 -1 0 194)">
			<stop  offset="0.1341" style="stop-color:#FFEEC0"/>
			<stop  offset="0.4022" style="stop-color:#E3BC5D"/>
			<stop  offset="1" style="stop-color:#BB9847"/>
		</linearGradient>
		<path fill="url(#SVGID_7_)" d="M90.5,91.6c-1-2.9-2.1-6.1-3.4-9.6c-3.6-10.1-13.4-24.8-25.4-38.4c-2-2.2-3.9-4.3-5.9-6.4
			c-10.1-6.9-20.5-11.2-29-14.4C74.1,60.2,67.2,96.2,99.8,113C96.1,108,93.7,101.1,90.5,91.6z"/>
		
			<linearGradient id="SVGID_8_" gradientUnits="userSpaceOnUse" x1="84.9594" y1="189.1345" x2="84.6757" y2="84.736" gradientTransform="matrix(1 0 0 -1 0 194)">
			<stop  offset="0.1341" style="stop-color:#FFEEC0"/>
			<stop  offset="0.4022" style="stop-color:#E3BC5D"/>
			<stop  offset="1" style="stop-color:#BB9847"/>
		</linearGradient>
		<path fill="url(#SVGID_8_)" d="M98.1,116.2c-10.7-5.4-17.3-12.7-22.8-21.3c-5.7-1.9-16.6-9.3-23.5-24c0,0,8.3,26.8,23.5,37
			c7.2,4.7,21.2,11.4,42.1,15.8C113.5,122.6,105.8,120.1,98.1,116.2z"/>
	</g>
	<g>
		
			<linearGradient id="SVGID_9_" gradientUnits="userSpaceOnUse" x1="215.4141" y1="87.4411" x2="36.6544" y2="228.8308" gradientTransform="matrix(1 0 0 -1 0 194)">
			<stop  offset="0" style="stop-color:#FFEEC0"/>
			<stop  offset="0.4022" style="stop-color:#E3BC5D"/>
			<stop  offset="1" style="stop-color:#BB9847"/>
		</linearGradient>
		<path fill="url(#SVGID_9_)" d="M93.2,28.9c19.4-2.6,45.9-6.1,58.2,14.9c1.3,2.3,3.4,6.9,1.6,11.7c-1.6,4.4-5.8,7.8-12.5,10.3
			l-2.2,0.8l2.3-0.1c1.4,0,3-0.2,4.6-0.3c6.7-0.6,15.1-1.3,23.5,3.6l0.7,0.4l-0.1-0.7c-2.6-18.2-9.3-30.6-20.5-37.9
			c-13.6-8.9-33.6-9.9-59.5-2.8l0.1,0.7C90.6,29.3,91.9,29.1,93.2,28.9z M148.4,32.1c10.9,7.2,17.5,19.2,20.1,36.7
			c-5.5-3-10.8-3.8-15.8-3.8c-2.7,0-5.2,0.2-7.6,0.4c-0.8,0.1-1.5,0.1-2.3,0.2c5.7-2.5,9.3-5.8,10.8-9.9c1.4-3.8,0.7-8.3-1.7-12.3
			c-5.6-9.5-14.5-14.9-27.2-16.6c-9.9-1.3-20.5-0.1-29.4,1C118.2,22.6,136,24,148.4,32.1z"/>
		
			<linearGradient id="SVGID_10_" gradientUnits="userSpaceOnUse" x1="198.765" y1="66.3915" x2="20.0052" y2="207.7812" gradientTransform="matrix(1 0 0 -1 0 194)">
			<stop  offset="0" style="stop-color:#FFEEC0"/>
			<stop  offset="0.4022" style="stop-color:#E3BC5D"/>
			<stop  offset="1" style="stop-color:#BB9847"/>
		</linearGradient>
		<path fill="url(#SVGID_10_)" d="M163.6,104.4c-1.1,1.1-2.4,1.8-6.8,3.4l-1.4,0.5l3.8,0.5c4,0.5,8.2,1,13.9,1.9l0.6,0.1l-0.1-0.6
			c-2.7-9.3-3.1-16.8-3.1-16.9l-0.2-3.2l-0.6,3.1C169.7,93.4,168.5,100,163.6,104.4z M169.9,95.5c0.3,2.8,1,8.2,2.8,14.4
			c-5.4-0.8-9.4-1.3-13.3-1.8l-0.8-0.1c3.4-1.3,4.5-2,5.6-3C167.5,101.9,169.1,97.9,169.9,95.5z"/>
		
			<linearGradient id="SVGID_11_" gradientUnits="userSpaceOnUse" x1="201.9061" y1="70.3627" x2="23.1463" y2="211.7524" gradientTransform="matrix(1 0 0 -1 0 194)">
			<stop  offset="0" style="stop-color:#FFEEC0"/>
			<stop  offset="0.4022" style="stop-color:#E3BC5D"/>
			<stop  offset="1" style="stop-color:#BB9847"/>
		</linearGradient>
		<path fill="url(#SVGID_11_)" d="M72.6,30.7c12.1,12.6,20.7,24.5,28,38.7l0.1,0.2h0.2c3.3,0.2,6.2,0.3,8.6,0.3c3,0,5.4-0.1,7.4-0.4
			c6.4-1,25.8-4,31.5-11.6l1.2-1.5l-1.7,1c-7.6,4.8-15.5,5-24.9,0.8c-8.5-3.8-17.5-11-27-18.6c-6.5-5.2-13.2-10.5-20.4-15.4
			c-7.8-5.3-16.6-9.9-26.2-13.8L49,11C57.1,16.2,65.1,22.9,72.6,30.7z M52.5,12.4c8.2,3.5,15.8,7.7,22.6,12.3
			c7.2,4.9,13.9,10.2,20.4,15.4c18.4,14.7,34.4,27.4,50.7,19c-7,6.1-23.6,8.7-29.4,9.6c-3.5,0.6-8.3,0.6-15.6,0.2
			c-7.2-14-16.1-26.3-28.1-38.7C66.5,23.3,59.6,17.4,52.5,12.4z"/>
		
			<linearGradient id="SVGID_12_" gradientUnits="userSpaceOnUse" x1="194.1491" y1="60.5556" x2="15.3893" y2="201.9453" gradientTransform="matrix(1 0 0 -1 0 194)">
			<stop  offset="0" style="stop-color:#FFEEC0"/>
			<stop  offset="0.4022" style="stop-color:#E3BC5D"/>
			<stop  offset="1" style="stop-color:#BB9847"/>
		</linearGradient>
		<path fill="url(#SVGID_12_)" d="M134.2,74.4l-0.4,0c-3.9-0.5-7.5-0.3-12.3,0.7l-0.4,0.1l0.1,0.4c0.1,0.4,0.2,0.7,0.3,1.1
			c1.7,5.7,4.8,16.4,12.3,20.5l0.9,0.5l-0.4-1c-2.7-6.2-2.8-14.1-0.3-21.8L134.2,74.4z M133.2,95.9c-6.6-4.3-9.4-14.1-11-19.5
			c-0.1-0.3-0.1-0.5-0.2-0.8c4.3-0.8,7.6-1.1,11.2-0.7C130.9,82.3,130.9,89.9,133.2,95.9z"/>
		
			<linearGradient id="SVGID_13_" gradientUnits="userSpaceOnUse" x1="187.3815" y1="51.9993" x2="8.6218" y2="193.3891" gradientTransform="matrix(1 0 0 -1 0 194)">
			<stop  offset="0" style="stop-color:#FFEEC0"/>
			<stop  offset="0.4022" style="stop-color:#E3BC5D"/>
			<stop  offset="1" style="stop-color:#BB9847"/>
		</linearGradient>
		<path fill="url(#SVGID_13_)" d="M116,72.2l-0.1-0.3l-0.3,0c-3.9,0.4-8.2,0.5-12.8,0.5h-0.6l0.3,0.6c2.4,4.7,4.1,8.4,6.1,13.8
			c6.6,17.4,15.7,18.3,40.1,20.9c0.7,0.1,4.9,0.5,4.9,0.5l0.1-0.7l-1.4-0.3c-12.4-2.6-18-3.8-26-12c-3.7-3.8-5.6-9.4-7.8-15.8
			C117.8,77.1,116.9,74.7,116,72.2z M147.3,106.8c-23-2.4-31.7-3.7-38-20.3c-2-5.2-3.6-8.9-5.9-13.4c4.3,0,8.3-0.1,12-0.4
			c0.9,2.3,1.7,4.6,2.4,6.9c2.1,6.3,4.2,12.2,8,16.1C132.8,102.8,138.3,104.8,147.3,106.8z"/>
		
			<linearGradient id="SVGID_14_" gradientUnits="userSpaceOnUse" x1="182.6707" y1="46.0433" x2="3.9109" y2="187.4331" gradientTransform="matrix(1 0 0 -1 0 194)">
			<stop  offset="0" style="stop-color:#FFEEC0"/>
			<stop  offset="0.4022" style="stop-color:#E3BC5D"/>
			<stop  offset="1" style="stop-color:#BB9847"/>
		</linearGradient>
		<path fill="url(#SVGID_14_)" d="M180.3,131.6c0-0.1-4.1-10-5.8-17.2l-0.1-0.2l-0.3,0c-10-1.5-18.4-2.4-25.8-3.2
			c-24.4-2.6-35.5-3.8-42.8-23c-7.2-18.9-20.4-39.5-35.3-55C57.4,19.6,36.7,3.1,11.2,0.2L9.2,0l8.7,4.4c15.3,7.5,31.7,20.7,46.3,37
			c12.3,13.8,22.2,28.9,26,39.4c1.3,3.5,2.4,6.8,3.4,9.6c4.8,13.9,7.4,21.6,14.4,25.8c8,4.8,38.9,12.3,72,15.8l0.6,0.1L180.3,131.6z
			 M108.3,115.7c-6.8-4.1-9.4-11.6-14.1-25.4c-1-2.9-2.1-6.1-3.4-9.7C87.1,70,77.1,54.8,64.8,40.9C50.2,24.5,33.7,11.3,18.3,3.7
			l-5.1-2.6c45.1,6.5,80.1,56.5,91.7,87.1c7.5,19.6,18.7,20.8,43.4,23.4c7.4,0.8,15.7,1.7,25.6,3.2c1.5,6.2,4.7,14.3,5.5,16.5
			C146.6,127.8,116.2,120.4,108.3,115.7z"/>
		
			<linearGradient id="SVGID_15_" gradientUnits="userSpaceOnUse" x1="177.4368" y1="39.4261" x2="-1.3229" y2="180.8159" gradientTransform="matrix(1 0 0 -1 0 194)">
			<stop  offset="0" style="stop-color:#FFEEC0"/>
			<stop  offset="0.4022" style="stop-color:#E3BC5D"/>
			<stop  offset="1" style="stop-color:#BB9847"/>
		</linearGradient>
		<path fill="url(#SVGID_15_)" d="M99.6,113.4l1.4,0.7l-0.9-1.2c-3.6-5-6-11.8-9.2-21.4c-1-2.8-2.1-6.1-3.4-9.6
			c-3.7-10.2-13.4-25-25.4-38.5c-1.9-2.1-3.9-4.3-5.9-6.4l-0.1,0C46,30.1,35.7,25.8,27,22.5l-2.2-0.8l1.8,1.5
			c24.4,19.3,34.1,38,42.7,54.5C77.1,92.4,83.8,105.2,99.6,113.4z M28.9,24c8.2,3.2,17.5,7.3,26.7,13.5c2,2.1,4,4.2,5.9,6.3
			c12,13.5,21.7,28.2,25.3,38.3c1.3,3.5,2.4,6.8,3.4,9.6c3,8.8,5.3,15.4,8.5,20.3C83.9,104,77.5,91.6,70,77.3
			C61.6,61.1,52.1,42.9,28.9,24z"/>
		
			<linearGradient id="SVGID_16_" gradientUnits="userSpaceOnUse" x1="165.2921" y1="24.0714" x2="-13.4677" y2="165.4611" gradientTransform="matrix(1 0 0 -1 0 194)">
			<stop  offset="0" style="stop-color:#FFEEC0"/>
			<stop  offset="0.4022" style="stop-color:#E3BC5D"/>
			<stop  offset="1" style="stop-color:#BB9847"/>
		</linearGradient>
		<path fill="url(#SVGID_16_)" d="M75.6,94.8l-0.1-0.1l-0.1,0c-5.3-1.8-16.2-8.8-23.2-23.8L51.5,71c0.1,0.3,8.5,27,23.7,37.2
			c4.6,3.1,18,10.7,42.3,15.9l0.2-0.7c-3.1-0.8-11.1-3.3-19.4-7.5C89,111.2,82,104.7,75.6,94.8z M75.6,107.6
			c-11-7.4-18.5-23.8-21.7-32c7,12,16.2,17.9,21.1,19.6c6.4,10,13.5,16.6,22.8,21.3c3.9,2,7.8,3.6,11.1,4.8
			C90.3,116.4,79.6,110.3,75.6,107.6z"/>
	</g>
	<g>
		
			<linearGradient id="SVGID_17_" gradientUnits="userSpaceOnUse" x1="28.9126" y1="27.7574" x2="182.8299" y2="27.7574" gradientTransform="matrix(1 0 0 -1 0 194)">
			<stop  offset="0" style="stop-color:#FFEEC0"/>
			<stop  offset="0.4022" style="stop-color:#E3BC5D"/>
			<stop  offset="1" style="stop-color:#BB9847"/>
		</linearGradient>
		<path fill="url(#SVGID_17_)" d="M182.8,140.5c0,0-4.8,0.7-9.6,11c0,0-1.4-5.1-6.6-5.1c-7.9,0-105.8,0-111.6,0l3.4,1.9l-10.1,21.2
			h17.4l-10.3,5.9H41.4l3.3,1.9c0,0.1-1.9,4.1-2,4.2c-3.9,8.3-0.3,10.3-0.3,10.3c-1.9,0-11.6,0-13.5,0l21.6-45.5l-7.1-5.9
			L182.8,140.5L182.8,140.5z"/>
		
			<linearGradient id="SVGID_18_" gradientUnits="userSpaceOnUse" x1="53.563" y1="21.4657" x2="107.255" y2="21.4657" gradientTransform="matrix(1 0 0 -1 0 194)">
			<stop  offset="0" style="stop-color:#FFEEC0"/>
			<stop  offset="0.4022" style="stop-color:#E3BC5D"/>
			<stop  offset="1" style="stop-color:#BB9847"/>
		</linearGradient>
		<path fill="url(#SVGID_18_)" d="M107.3,153.1c0,0-4.8,0.7-9.6,11c0,0-1.4-5.1-6.6-5.1c-7.8,0-7.2,0-12.9,0l3.4,1.9l-4,8.6h14.4
			l-10.2,5.9H70.5l3.3,1.9l-4.1,8.6h9.9l2.6-5.5h8l-0.6,1.2c-3.9,8.3-0.3,10.3-0.3,10.3H53.6c0,0,4.8-0.7,9.6-11
			c0.6-1.3,9.8-20.7,10.4-21.9l-7.1-5.9L107.3,153.1L107.3,153.1z"/>
		
			<linearGradient id="SVGID_19_" gradientUnits="userSpaceOnUse" x1="92.9371" y1="21.4657" x2="132.3852" y2="21.4657" gradientTransform="matrix(1 0 0 -1 0 194)">
			<stop  offset="0" style="stop-color:#FFEEC0"/>
			<stop  offset="0.4022" style="stop-color:#E3BC5D"/>
			<stop  offset="1" style="stop-color:#BB9847"/>
		</linearGradient>
		<path fill="url(#SVGID_19_)" d="M130,181.6c-3.9,8.3-0.4,10.3-0.4,10.3c-1.7,0-34.7,0-36.6,0c0,0,5.4-2,9.3-10.3l10.7-22.6
			l-7.1-5.9c2.8,0,16.1,0,18.9,0c-0.3,0.7-14.9,31.4-15.6,32.9h9.9l4.5-9.4h8.9C131.8,177.8,130.9,179.6,130,181.6z"/>
		
			<linearGradient id="SVGID_20_" gradientUnits="userSpaceOnUse" x1="126.9975" y1="21.4657" x2="168.9179" y2="21.4657" gradientTransform="matrix(1 0 0 -1 0 194)">
			<stop  offset="0" style="stop-color:#FFEEC0"/>
			<stop  offset="0.4022" style="stop-color:#E3BC5D"/>
			<stop  offset="1" style="stop-color:#BB9847"/>
		</linearGradient>
		<path fill="url(#SVGID_20_)" d="M168.9,153.1L168.9,153.1c-1.7,3.6-5.4,5.9-9.4,5.9h-2.4c-1.4,2.8-9.6,20.1-10.7,22.6
			c-3.9,8.3-0.4,10.3-0.4,10.3h-8.9c0,0-3.5-2,0.4-10.3c1.2-2.5,8.3-17.5,9.4-19.9l8.5-2.7h-20.8l-7.7-5.9H168.9z"/>
	</g>
	<g>
		
			<linearGradient id="SVGID_21_" gradientUnits="userSpaceOnUse" x1="104.8933" y1="-10.7109" x2="104.8933" y2="61.4969" gradientTransform="matrix(1 0 0 -1 0 194)">
			<stop  offset="9.217878e-02" style="stop-color:#FFFFFF"/>
			<stop  offset="0.5419" style="stop-color:#E3BC5D"/>
			<stop  offset="1" style="stop-color:#BB9847"/>
		</linearGradient>
		<path fill="url(#SVGID_21_)" d="M45.6,141.3l5.4,4.5l0.5,0.4l-0.3,0.6l-21.1,44.4h10.6c-0.8-1.5-1.2-4.5,1.3-9.9
			c0.1-0.2,1.2-2.4,1.7-3.6l-2.7-1.5l-2.6-1.5h3h13.9l7.5-4.4H48.5h-1.3l0.6-1.1l9.7-20.5l-2.8-1.5l-2.7-1.5h3h111.6
			c3.4,0,5.5,2.1,6.6,3.9c2.3-4.5,4.6-7,6.3-8.3L45.6,141.3L45.6,141.3z"/>
		
			<linearGradient id="SVGID_22_" gradientUnits="userSpaceOnUse" x1="80.3905" y1="-10.7109" x2="80.3905" y2="61.4969" gradientTransform="matrix(1 0 0 -1 0 194)">
			<stop  offset="9.217878e-02" style="stop-color:#FFFFFF"/>
			<stop  offset="0.5419" style="stop-color:#E3BC5D"/>
			<stop  offset="1" style="stop-color:#BB9847"/>
		</linearGradient>
		<path fill="url(#SVGID_22_)" d="M68.6,153.9l5.4,4.5l0.5,0.4l-0.3,0.6c-0.2,0.5-1.7,3.5-3.5,7.3c-2.9,6.2-6.5,13.8-6.9,14.6
			c-2.6,5.5-5.2,8.4-7.1,9.9h30.8c-0.8-1.5-1.2-4.5,1.3-9.9l0-0.1h-6.2l-2.4,5.1l-0.2,0.4h-0.5h-9.9h-1.3l0.6-1.1l3.8-7.9l-2.7-1.5
			l-2.6-1.5h3h11l7.5-4.4H77.5h-1.3l0.5-1.1l3.7-7.9l-2.7-1.5l-2.6-1.5h3h12.9c3.4,0,5.5,2.1,6.6,3.9c2.3-4.5,4.6-7,6.3-8.3
			L68.6,153.9L68.6,153.9z"/>
		
			<linearGradient id="SVGID_23_" gradientUnits="userSpaceOnUse" x1="113.4914" y1="-10.7109" x2="113.4914" y2="61.4969" gradientTransform="matrix(1 0 0 -1 0 194)">
			<stop  offset="9.217878e-02" style="stop-color:#FFFFFF"/>
			<stop  offset="0.5419" style="stop-color:#E3BC5D"/>
			<stop  offset="1" style="stop-color:#BB9847"/>
		</linearGradient>
		<path fill="url(#SVGID_23_)" d="M131.1,177.3H124l-4.3,9l-0.2,0.4H119h-9.8h-1.3l0.6-1.1c0.7-1.4,12.4-26.1,15.1-31.7h-15.4
			l5.4,4.5l0.5,0.4l-0.3,0.6L103,182c-2.3,4.9-5.1,7.7-7.1,9.2H128c-0.8-1.5-1.2-4.5,1.3-9.9c0.4-1,0.9-1.9,1.3-2.7
			C130.8,178.1,131,177.7,131.1,177.3z"/>
		<g>
			
				<linearGradient id="SVGID_24_" gradientUnits="userSpaceOnUse" x1="146.2428" y1="-10.7109" x2="146.2428" y2="61.4969" gradientTransform="matrix(1 0 0 -1 0 194)">
				<stop  offset="9.217878e-02" style="stop-color:#FFFFFF"/>
				<stop  offset="0.5419" style="stop-color:#E3BC5D"/>
				<stop  offset="1" style="stop-color:#BB9847"/>
			</linearGradient>
			<path fill="url(#SVGID_24_)" d="M155.7,159.8l-8.2,2.6l-1.2,2.5c-2.5,5.2-7.1,15-8,17c-3,6.4-1.4,8.7-0.8,9.2h7
				c-0.8-1.5-1.2-4.5,1.3-9.9c1-2.3,8-17,10.2-21.6L155.7,159.8z"/>
			
				<linearGradient id="SVGID_25_" gradientUnits="userSpaceOnUse" x1="148.4559" y1="-10.7109" x2="148.4559" y2="61.4969" gradientTransform="matrix(1 0 0 -1 0 194)">
				<stop  offset="9.217878e-02" style="stop-color:#FFFFFF"/>
				<stop  offset="0.5419" style="stop-color:#E3BC5D"/>
				<stop  offset="1" style="stop-color:#BB9847"/>
			</linearGradient>
			<path fill="url(#SVGID_25_)" d="M155.4,158.2h1.3h0.5h2.4c3.2,0,6.3-1.7,8-4.4h-38.3l5.6,4.4H155.4z"/>
		</g>
	</g>
</g>
</svg>
