<?xml version="1.0" encoding="utf-8"?>
<!-- Generator: Adobe Illustrator 24.0.1, SVG Export Plug-In . SVG Version: 6.00 Build 0)  -->
<svg version="1.1" id="图层_1" xmlns="http://www.w3.org/2000/svg" xmlns:xlink="http://www.w3.org/1999/xlink" x="0px" y="0px"
	 viewBox="0 0 2304 2304" style="enable-background:new 0 0 2304 2304;" xml:space="preserve">
<style type="text/css">
	.st0{fill:#1A73A1;}
	.st1{fill:#070001;}
	.st2{fill:#40B1CE;}
	.st3{fill:#FFFFFF;}
	.st4{fill:#1F6D99;}
	.st5{fill:#3FA8C3;}
	.st6{fill:#040000;}
</style>
<g>
	<g>
		<g>
			<path class="st0" d="M1044.33,382.42l-67.25,206.52c9.28-6.82,18.56-13.65,27.83-20.49c40.9-30.19,134.86-96.38,135.81-97.05
				l10.86-7.65l10.82,7.7c1.14,0.81,95.89,68.3,163.91,117.54l-67.68-207.05l176.87-126.9c-81.79,0.45-201.49,0.15-202.89,0.15
				l-13.47-0.03l-4.28-12.78c-0.34-1.03-34.73-103.89-59.92-180.98c-1.24-3.78-2.45-7.5-3.65-11.15
				c-23.71,72.06-63.85,190.45-64.29,191.75l-4.26,12.57l-13.28,0.16c-1.39,0.02-118.81,1.44-201.45,1.92L1044.33,382.42z"/>
			<path class="st0" d="M867.92,242.76c82.31-0.45,199.17-1.88,201.38-1.92l3.44-0.04l1.12-3.3c0.65-1.84,40.64-119.74,64.24-191.59
				l13.24-40.26l16.81,51.44c24.97,76.4,58.98,178.19,59.9,180.89l1.11,3.32l3.62-0.01c2.89,0.03,121.43,0.32,202.63-0.13
				l43.62-0.24L1275,387.3l77.79,238l-34.62-25.05c-67.62-48.93-161.64-115.9-163.83-117.47l-2.83-2.02l-5.05,3.59
				c-14.64,10.32-96.04,67.75-133.29,95.25l-62.65,45.99l77.44-237.83L824.97,243.02L867.92,242.76z M1003.66,552.13
				c39.74-29.06,112.95-80.73,126.78-90.47l21.22-14.9l18.68,13.3c1.4,0.97,68.53,48.84,129.54,92.71l-57.59-176.2l149.82-107.48
				c-74.29,0.19-158.12-0.01-159.5-0.04l-23.47-0.03l-7.34-22c-0.39-1.1-27.14-81.2-50.55-152.38
				c-22.99,69.02-50.73,150.78-51.07,151.83l-7.41,21.86l-23.02,0.3c-1.17,0.01-83.46,1.02-158.76,1.6l149.72,106.78L1003.66,552.13
				z"/>
		</g>
		<g>
			<path class="st1" d="M1051.41,380.18l-61.33,188.34c8.47-6.22,16.93-12.45,25.38-18.68c37.3-27.53,122.99-87.9,123.85-88.5
				l9.91-6.98l9.87,7.03c1.04,0.74,87.45,62.29,149.48,107.2l-61.72-188.83l161.3-115.73c-74.59,0.41-183.75,0.14-185.03,0.13
				l-12.29-0.03l-3.9-11.66c-0.31-0.94-31.67-94.75-54.65-165.05c-1.13-3.45-2.24-6.84-3.32-10.17
				c-21.62,65.71-58.23,173.68-58.63,174.87l-3.89,11.47l-12.11,0.15c-1.27,0.01-108.35,1.32-183.72,1.75L1051.41,380.18z"/>
			<path class="st2" d="M890.57,258.54c75.35-0.43,182.39-1.7,183.67-1.72l7.19-0.1l2.33-6.84c0.24-0.76,36.92-108.93,58.6-174.81
				l6.61-20.11l9.91,30.32c20.57,62.94,47.88,144.75,53.57,161.81l3.39,10.11l7.31,0.01c1.29,0.01,110.41,0.3,184.96-0.12l21.8-0.1
				l-174.88,125.46l66.78,204.3l-17.32-12.55c-59.55-43.1-141.56-101.54-149.44-107.16l-5.84-4.17l-5.96,4.2
				c-0.63,0.43-86.03,60.57-123.67,88.37l-42.8,31.48l66.43-204.03L869.1,258.68L890.57,258.54z M1003.37,550.11l7.96-5.86
				c37.52-27.7,123.56-88.34,123.99-88.62l13.92-9.8l14.4,10.25c6.66,4.76,74.67,53.2,131.7,94.35l-56.67-173.39l147.77-105.98
				c-72.38,0.25-162.18,0.04-163.33,0.01l-17.27-0.01l-6.55-19.61c-5.4-16.19-30.25-90.63-50.36-151.99
				c-21.7,65.46-51.81,154.27-52.02,154.85l-5.44,16.11l-17.02,0.23c-1.16,0.04-89.6,1.09-162.32,1.62l147.48,105.17L1003.37,550.11
				z"/>
		</g>
		<g>
			<g>
				<path class="st3" d="M1093.88,366.5l-35.3,108.38c27.48-20.03,75.97-54.17,78.95-56.29l12.65-8.9l12.44,8.89
					c0.44,0.31,40.99,29.18,79.31,56.73l-35.65-109.07l92.7-66.55c-40.75,0.1-84.39,0.01-95.19-0.02l-18.02-0.02
					c0,0-22.96-68.84-35.88-108.03c-11.86,35.58-31.27,93.04-31.27,93.04l-4.98,14.56c0,0-65.74,0.77-112.47,1.17L1093.88,366.5z"/>
			</g>
			<g>
				<path class="st2" d="M1268.69,309.46l-62.32,44.71l-11.57,8.31l4.42,13.54l24.21,74.08c-29.45-21.11-54.75-39.13-55.22-39.46
					l-6.81-4.85l-11.22-7.99l-11.26,7.93l-6.86,4.83c-0.28,0.19-28.85,20.32-55.04,39.06l23.88-73.32l4.42-13.57l-11.62-8.29
					l-62.52-44.58c35.92-0.35,66.87-0.73,67.43-0.74l8.28-0.09l13.76-0.17l4.42-13.03l2.69-7.94c0.18-0.52,10.63-31.34,22.06-65.4
					c11.5,34.74,21.66,65.13,21.8,65.57l2.7,8.06l4.43,13.25l13.97,0.02l8.51,0.02C1201.77,309.4,1232.84,309.48,1268.69,309.46
					 M1329.36,289.86c-51.63,0.28-127.19,0.1-128.08,0.09l-8.51-0.02l-2.7-8.07c-0.22-0.65-21.92-65.58-37.83-114.25
					c-0.78-2.39-1.55-4.73-2.3-7.04c-14.97,45.49-40.31,120.22-40.59,121.05l-2.69,7.94l-8.38,0.1c-0.88,0.02-75,0.92-127.17,1.22
					l111.3,79.38l-42.46,130.37c5.86-4.31,11.72-8.61,17.57-12.93c25.82-19.06,85.13-60.85,85.73-61.26l6.86-4.83l6.83,4.87
					c0.72,0.51,60.53,43.11,103.47,74.2l-42.72-130.71L1329.36,289.86L1329.36,289.86z"/>
			</g>
		</g>
	</g>
	<g>
		<path class="st3" d="M999.44,2174.18c-3.34-288.35-63.14-897.26-265.51-1137.94c-8.89-10.38-18.22-20.27-27.58-29.17l-8.08-7.45
			c-22.26-19.44-46.11-33.23-70.22-40.36c-16.83-4.57-39.24-7-65.86-7c-134.5,0-243.92,109.43-243.92,243.93
			c0,79.82,39.19,154.74,104.82,200.43l72.58,50.49l-161.62,232.22l-72.56-50.52c-141.59-98.52-226.13-260.24-226.13-432.61
			c0-273.94,214.19-502.95,483.82-525.08l0.25-4.05l63.5,2.13l24.09,1.25c163.46,8.63,300.33,99.34,406.84,269.62
			c19.52,30.47,37.26,62.69,52.5,95.45c31.52,64.79,60.21,139.66,85.63,223.44c25.46-83.84,54.22-158.85,85.92-224.05
			c14.96-32.19,32.74-64.48,52.57-95.41c106.25-169.79,243.08-260.42,406.45-269.06l87.57-4.62l0.33,5.28
			c269.62,22.14,483.79,251.15,483.79,525.08c0,172.36-84.54,334.09-226.14,432.62l-72.56,50.51l-161.62-232.22l72.59-50.5
			c65.64-45.69,104.82-120.61,104.82-200.41c0-134.5-109.43-243.93-243.93-243.93c-27.02,0-48.87,2.37-66.77,7.25
			c-23.28,6.92-47.15,20.77-70.2,40.93l-3.81,3.43l-3.66,3.44c-9.06,8.63-18.37,18.5-27.45,29.11
			c-202.18,240.34-262,849.34-265.35,1137.75l-1.04,88.4l-151.99-1.75l-151.07,1.75L999.44,2174.18z"/>
		<path class="st4" d="M1751.41,702.98l0.12,1.83c266.54,5.19,481.74,223.62,481.74,491.38c0,160.79-78.88,311.67-210.98,403.59
			l-43.54,30.31l-121.2-174.16l43.55-30.3c75.14-52.3,120-138.07,120-229.45c0-154-125.29-279.29-279.29-279.29
			c-30.19,0-55.07,2.77-76.07,8.5c-28.76,8.54-57.28,24.9-84.18,48.44l-4.19,3.78l-4.16,3.89c-10.14,9.66-20.32,20.43-30.16,31.93
			c-208.78,248.2-270.44,867.54-273.85,1160.33l-0.62,53.04l-116.63-1.35l-116.52,1.35l-0.62-53.04
			c-3.4-292.74-65.01-911.96-273.81-1160.29c-9.83-11.5-20.06-22.33-30.26-32.04l-8.52-7.84c-26.66-23.31-55.07-39.66-84.13-48.26
			c-20.7-5.63-45.74-8.45-75.9-8.45c-154,0-279.28,125.29-279.28,279.29c0,91.39,44.86,177.16,119.98,229.45l43.55,30.3
			l-121.2,174.16l-43.54-30.31c-132.11-91.92-210.97-242.8-210.97-403.59c0-267.76,215.21-486.19,481.74-491.38l0.08-1.27
			l29.19,0.98l23.43,1.23c151.26,7.99,278.68,93.14,378.7,253.06c18.83,29.39,35.86,60.31,50.43,91.62
			c45.85,94.27,85.37,209.66,117.69,343.66c32.32-133.98,71.81-249.3,117.73-343.72c14.48-31.15,31.55-62.18,50.54-91.79
			c99.93-159.68,227.34-244.84,378.54-252.83L1751.41,702.98 M1817.61,628.66l-69.91,3.69l-52.61,2.77
			c-175.45,9.27-321.67,105.37-434.57,285.61c-20.49,31.99-38.87,65.38-54.65,99.25c-19.03,39.18-37,81.75-53.86,127.53
			c-16.85-45.76-34.82-88.32-53.83-127.48c-15.8-33.88-34.15-67.21-54.54-99.06C930.69,740.56,784.43,644.39,608.9,635.12
			l-23.44-1.23l-0.67-0.03l-0.67-0.02l-29.19-0.98l-68.59-2.3l-0.55,8.58c-122.84,16.67-236.27,73.39-324.6,163.35
			C57.24,908.34,0,1048.16,0,1196.19c0,183.94,90.2,356.52,241.3,461.65l43.52,30.3l58.05,40.42l40.41-58.06l121.2-174.16
			l40.41-58.06l-58.06-40.4l-43.55-30.3c-56.14-39.07-89.65-103.14-89.65-171.39c0-115,93.56-208.57,208.55-208.57
			c23.07,0,42.1,1.94,56.58,5.77c18.72,5.68,37.64,16.75,56.25,32.9l7.37,6.78c8.34,7.97,16.7,16.83,24.84,26.36
			c181.36,215.69,253.02,785.13,256.85,1115.15l0.62,53.05l0.83,70.71l70.71-0.82l115.7-1.34l115.82,1.34l70.71,0.82l0.83-70.71
			l0.62-53.04c3.84-329.99,75.46-899.24,257.07-1115.42c8.17-9.53,16.51-18.37,24.8-26.27l3.43-3.21l3.27-2.95
			c18.81-16.39,37.86-27.6,56.61-33.32c14.54-3.85,33.61-5.8,56.71-5.8c115.01,0,208.57,93.56,208.57,208.57
			c0,68.24-33.52,132.32-89.67,171.4l-43.54,30.29l-58.06,40.4l40.41,58.06l121.2,174.16l40.41,58.06l58.05-40.42l43.54-30.31
			c151.09-105.13,241.3-277.71,241.3-461.64c0-148.03-57.24-287.85-161.18-393.7c-88.32-89.95-201.73-146.66-324.55-163.34
			L1817.61,628.66L1817.61,628.66z"/>
	</g>
	<path class="st5" d="M1723.79,733.94l0.03,0.57c6.15-0.21,12.12-0.32,17.98-0.32c254.75,0,462,207.25,462,462
		c0,151.15-74.15,292.98-198.34,379.41l-19.35,13.47l-13.47-19.35l-60.6-87.07l-13.47-19.35l19.35-13.47
		c83.05-57.8,132.64-152.62,132.64-253.63c0-170.25-138.51-308.76-308.76-308.76c-32.85,0-60.44,3.17-83.82,9.53
		c-33.49,9.93-65.79,28.38-95.85,54.7c-1.53,1.36-3.04,2.71-4.67,4.21c-1.16,1.06-2.31,2.14-3.46,3.23l-1.02,0.96
		c-10.98,10.44-21.89,22.01-32.34,34.22c-214.31,254.77-277.46,882.7-280.91,1179.14l-0.28,23.57l-23.57-0.27l-63.61-0.73
		l-64.15,0.73l-23.57,0.27l-0.28-23.57c-3.45-296.39-66.59-924.24-280.74-1178.92c-10.64-12.45-21.61-24.06-32.49-34.42L750,959.1
		c-1.12-1.05-2.23-2.1-3.46-3.22c-1.5-1.39-3.02-2.74-4.58-4.14c-30.22-26.45-62.52-44.88-95.51-54.66
		c-23.86-6.5-51.43-9.66-84.26-9.66c-170.24,0-308.75,138.51-308.75,308.76c0,101.02,49.58,195.84,132.62,253.63l19.35,13.47
		l-13.47,19.35l-60.6,87.07l-13.47,19.35l-19.35-13.47c-124.19-86.42-198.33-228.26-198.33-379.41c0-254.75,207.25-462,461.99-462
		c5.86,0,11.83,0.1,17.98,0.32l0.03-0.57l23.43,1.24c141.1,7.46,260.68,88.03,355.26,239.26c18.3,28.56,34.75,58.43,48.7,88.42
		c54.63,112.33,100.05,255.05,134.99,424.19c3.23,15.61,6.37,31.48,9.42,47.59c3.06-16.11,6.2-31.98,9.42-47.59
		c34.94-169.13,80.35-311.83,134.8-423.79c14.16-30.45,30.64-60.39,48.85-88.77c94.7-151.34,214.25-231.85,355.29-239.32
		L1723.79,733.94 M524.92,672l-0.28,4.59c-269.79,19.3-483.38,244.98-483.38,519.6c0,170.43,83.59,330.35,223.6,427.78l19.35,13.47
		l48.37,33.66l33.67-48.37l13.47-19.35l60.6-87.07l13.47-19.35l33.67-48.38l-48.38-33.67l-19.35-13.47
		c-67.22-46.78-107.35-123.51-107.35-205.25c0-137.75,112.06-249.82,249.81-249.82c27.22,0,49.53,2.43,68.15,7.42
		c24.65,7.42,49.06,21.58,72.55,42.09l0.55,0.49c1.05,0.95,2.09,1.87,3.11,2.82l2.48,2.31l0.64,0.6l1.01,0.94
		c9.2,8.75,18.72,18.85,28.04,29.75c188.4,224.05,262.7,805.34,266.61,1141.31l0.28,23.58l0.69,58.92l58.92-0.68l23.57-0.27
		l63.47-0.72l62.94,0.72l23.56,0.27l58.92,0.68l0.69-58.92l0.28-23.57c3.91-336.03,78.26-917.42,267.08-1141.88
		c8.89-10.39,18.37-20.43,27.87-29.47l0.79-0.75c0.97-0.92,1.86-1.76,2.76-2.58c1.58-1.45,2.85-2.59,4.13-3.72
		c23.14-20.27,47.74-34.51,72.81-42.05c18.08-4.84,40.85-7.29,67.7-7.29c137.75,0,249.82,112.07,249.82,249.82
		c0,81.73-40.13,158.46-107.37,205.26l-19.35,13.47l-48.38,33.67l33.68,48.38l13.47,19.35l60.59,87.07l13.47,19.35l33.67,48.37
		l48.37-33.66l19.35-13.47c140.02-97.44,223.62-257.36,223.62-427.78c0-274.62-213.6-500.3-483.4-519.6l-0.24-4.02l-58.42,2.52
		l-23.43,1.23c-161.27,8.53-296.51,98.24-401.97,266.63c-19.51,30.43-37.1,62.39-52.29,94.99c-33.91,69.8-64.34,150.64-91,241.62
		c-26.7-91.08-57.18-172.04-91.18-242.01c-15.02-32.23-32.55-64.06-52.11-94.61C903.31,774.55,768.07,684.85,606.74,676.32
		l-23.44-1.23L524.92,672L524.92,672z"/>
	<path class="st6" d="M1262.75,2220.85l-110.74-1.28l-110.76,1.28l-0.55-47.15c-3.41-293.46-65.3-914.41-275.19-1164.02
		c-9.99-11.68-20.36-22.67-30.71-32.51l-8.63-7.94c-27.36-23.93-56.53-40.69-86.41-49.53c-21.33-5.8-46.87-8.69-77.56-8.69
		c-157.25,0-285.17,127.94-285.17,285.19c0,93.31,45.8,180.9,122.52,234.28l38.7,26.94l-114.47,164.48l-38.7-26.94
		c-130.52-90.83-208.44-239.89-208.44-398.76c0-266.36,215.55-483.32,481.39-485.55l0.06-0.9l46.81,1.9
		c149.22,7.89,275.06,92.1,374.01,250.31c18.73,29.22,35.63,59.89,50.09,90.98c48.45,99.61,89.79,222.86,123.03,366.82
		c33.25-143.95,74.55-267.1,123.02-366.79c14.42-31,31.37-61.82,50.2-91.18c98.88-158.02,224.73-242.25,373.89-250.13l46.78-2.46
		l0.09,1.46c265.81,2.27,481.39,219.21,481.39,485.55c0,158.87-77.92,307.94-208.45,398.76l-38.7,26.94l-114.47-164.48l38.7-26.94
		c76.72-53.39,122.53-140.97,122.53-234.28c0-157.25-127.94-285.19-285.19-285.19c-30.72,0-56.11,2.84-77.62,8.7
		c-29.69,8.82-58.97,25.58-86.51,49.7l-8.51,7.8c-10.31,9.82-20.63,20.73-30.6,32.4c-209.89,249.5-271.84,870.57-275.26,1164.09
		L1262.75,2220.85z M562.19,863.85c34.94,0,64.52,3.43,90.46,10.49c36.94,10.94,72.04,30.97,104.85,59.66l9.65,8.85
		c11.67,11.11,23.16,23.28,34.33,36.33c218.6,259.98,282.91,894.66,286.38,1193.96l64.16-0.73l64.14,0.73
		c3.49-299.36,67.85-934.17,286.45-1194.03c11.13-13.03,22.57-25.14,34.12-36.13l9.77-8.96c32.8-28.72,68.02-48.76,104.79-59.66
		c26.11-7.13,55.55-10.51,90.51-10.51c183.25,0,332.34,149.09,332.34,332.34c0,108.73-53.37,210.79-142.74,272.98l60.6,87.07
		c117.87-82.01,188.24-216.61,188.24-360.06c0-241.75-196.67-438.43-438.43-438.43c-5.58,0-11.27,0.1-17.13,0.31l-22.97,0.82
		l-0.12-0.17c-132.91,7.03-246.14,83.84-336.54,228.27c-17.83,27.82-33.75,56.75-47.45,86.22
		c-53.83,110.67-98.55,251.39-133.08,418.6c-3.2,15.49-6.32,31.24-9.36,47.23l-23.21,122.03l-23.12-122.06
		c-3.03-15.98-6.15-31.73-9.35-47.21c-34.53-167.2-79.31-308.06-133.11-418.64c-13.74-29.54-29.61-58.35-47.34-86.01
		c-90.47-144.63-203.7-221.41-336.66-228.45l-23.06-0.64c-5.86-0.21-11.56-0.31-17.14-0.31c-241.74,0-438.41,196.67-438.41,438.43
		c0,143.44,70.36,278.04,188.22,360.06l60.6-87.07c-89.38-62.2-142.73-164.25-142.73-272.98
		C229.86,1012.93,378.95,863.85,562.19,863.85z"/>
</g>
</svg>
