<?xml version="1.0" encoding="utf-8"?>
<!-- Generator: Adobe Illustrator 25.2.1, SVG Export Plug-In . SVG Version: 6.00 Build 0)  -->
<svg version="1.1" id="Layer_1" xmlns="http://www.w3.org/2000/svg" xmlns:xlink="http://www.w3.org/1999/xlink" x="0px" y="0px"
	 width="192px" height="192px" viewBox="0 0 192 192" style="enable-background:new 0 0 192 192;" xml:space="preserve">
<style type="text/css">
	.st0{fill:#FFFFFF;}
</style>
<path class="st0" d="M176.3,117.1c-2.8-21-13.9-34.1-32.9-43.2c-1-0.5-1.3-1.8-0.8-2.8c0.1-0.1,0.2-0.3,0.3-0.4c1.9-2.1,3.8-4,5.5-6
	c19.9-21.3,1.5-50.3-22.9-57.3C117.9,4.9,110,3.5,102,3.5c-16.9,0-33.8-0.1-50.8,0c-7.8,0.1-12.4,2.9-13.8,8.8l-14.5,165
	c0.1,8.5,3.7,11.2,14.1,11.2c21.5,0,43.1,0,64.7,0C141.1,188.9,183.4,162.2,176.3,117.1z"/>
<path d="M155.3,118.5c-2.6-23.6-24.9-33.9-42.7-45.8c-1-0.7-1.3-2.1-0.6-3.1c0.2-0.3,0.4-0.5,0.7-0.7c5.7-3.6,11.5-7,16.9-11
	c16.8-12.6,5.7-32.7-10.4-39.5c-11.4-5.3-23.4-6.3-35.7-4.1c-20.6,2.3-42.8,25.5-20.9,42.2c15.9,13,62.5,37.4,67.8,54.4
	c7.5,22.1-19.6,39.1-42.6,33c-15.3-2.5-29.6-17.6-23.1-32.7c0.4-0.9,1.4-1.4,2.4-1.1l14.8,4.9c-4.4-13.5-6.7-26.7-5.1-40.5
	c-56.8,27.1-47.4,97.8,20.9,101C130.6,176,159.8,151.1,155.3,118.5z M93.2,54.3c-4.8-3.6-9.8-7-14.6-10.6
	c-19.8-16.6,17.9-34,35.5-18.2c15.1,14.5-6.5,21.8-16.8,28.9C95.8,55.3,94.7,55.4,93.2,54.3z"/>
</svg>
